<svg width="1280" height="1024" viewBox="0 0 1280 1024" fill="none" xmlns="http://www.w3.org/2000/svg">
<g clip-path="url(#clip0_419_4041)">
<rect width="1280" height="1024" fill="#111111"/>
<rect x="103.672" y="247.889" width="8.74613" height="8.74525" fill="white"/>
<rect x="1118" y="915" width="8.74613" height="8.74525" fill="white"/>
<rect x="903.375" y="174.375" width="8.74613" height="8.74525" fill="white"/>
<rect x="957.125" y="596.875" width="8.74613" height="8.74525" fill="white"/>
<rect x="957.125" y="887.5" width="8.74613" height="8.74525" fill="white"/>
<rect x="632.555" y="130.556" width="8.74613" height="8.74525" fill="white"/>
<rect x="408.555" y="318.111" width="8.74613" height="8.74525" fill="white"/>
<rect x="965.875" y="286.875" width="8.74613" height="8.74525" fill="white"/>
<rect x="826.5" y="713.75" width="8.74613" height="8.74525" fill="white"/>
<rect x="386.336" y="905.667" width="8.74613" height="8.74525" fill="white"/>
<rect x="132.109" y="690.555" width="8.74613" height="8.74525" fill="white"/>
<rect x="1040.55" y="115.445" width="8.74613" height="8.74525" fill="white"/>
<rect x="1049.62" y="731.875" width="8.74613" height="8.74525" fill="white"/>
<rect x="743.43" y="321.58" width="5.83075" height="5.83017" fill="white"/>
<rect x="613.695" y="707.829" width="5.83075" height="5.83017" fill="white"/>
<rect x="641.391" y="927.917" width="5.83075" height="5.83017" fill="white"/>
<rect x="210.875" y="124.375" width="5.83075" height="5.83017" fill="white"/>
<rect x="240.555" y="361.667" width="5.83075" height="5.83017" fill="white"/>
<rect x="1155.88" y="236.25" width="5.83075" height="5.83017" fill="white"/>
<rect x="560.555" y="359" width="5.83075" height="5.83017" fill="white"/>
<rect x="374.773" y="178.556" width="5.83075" height="5.83017" fill="white"/>
<rect x="246.781" y="557.222" width="5.83075" height="5.83017" fill="white"/>
<rect x="237.891" y="794.555" width="5.83075" height="5.83017" fill="white"/>
<rect x="1244.87" y="799.654" width="5.83075" height="5.83017" fill="white"/>
<rect x="420.109" y="647" width="8.74613" height="8.74525" fill="white"/>
<rect x="99.125" y="487.74" width="8.74613" height="8.74525" fill="white"/>
<rect x="1021" y="447.889" width="8.74613" height="8.74525" fill="white"/>
<rect x="1161.79" y="515.433" width="8.74613" height="8.74525" fill="white"/>
<rect x="101.336" y="890.667" width="8.74613" height="8.74525" fill="white"/>
<path d="M578.422 917.651V838.629H704.87V917.651H578.422Z" fill="#A80000" stroke="#A80000" stroke-width="0.58538"/>
<path d="M578.422 995.742V898.335H586.933V918.177H608.21V937.418H704.87V956.255V975.298V995.742H686.633V1075.11H667.179V995.742H606.994V1075.11H588.149V995.742H578.422Z" fill="#A80000"/>
<path d="M704.87 956.255V995.742H686.633V1075.11H667.179V995.742H606.994V1075.11H588.149V995.742H578.422V898.335H586.933V918.177H608.21V937.418H704.87V975.298" stroke="#A80000" stroke-width="0.58538"/>
<path d="M566.711 838.63V818.728H653.937V838.045L566.711 838.63Z" fill="#A80000" stroke="#A80000" stroke-width="0.58538"/>
<path d="M578.422 898.335V877.262H665.063V898.335H578.422Z" fill="#A80000" stroke="#A80000" stroke-width="0.58538"/>
<path d="M665.648 895.408V878.432H704.871V895.408H665.648Z" fill="#A80000" stroke="#A80000" stroke-width="0.58538"/>
<path d="M676.18 939.046V891.312H704.865V939.046H676.18Z" fill="#A80000" stroke="#A80000" stroke-width="0.58538"/>
<path d="M608.859 939.046L608.273 898.921L678.523 898.043V939.046H608.859Z" fill="#A80000" stroke="#A80000" stroke-width="0.58538"/>
<path d="M653.938 838.63V818.728H712.478V838.045L653.938 838.63Z" fill="#A80000" stroke="#A80000" stroke-width="0.58538"/>
<path d="M727.143 681.17H552.582V722.783H516.945V740.876H763.988V722.783H727.143V681.17Z" fill="#A80000" stroke="#A80000" stroke-width="0.58538"/>
<path d="M562.023 739.676H718.913V818.727H562.023V739.676Z" fill="#A80000"/>
<rect x="638.711" y="818.728" width="15.2207" height="19.9019" fill="#A80000"/>
<rect x="622.328" y="818.728" width="16.3915" height="19.9019" fill="#A80000"/>
<rect x="658.039" y="765.46" width="17.5623" height="28.6822" fill="#A80000"/>
<path d="M617.633 917.651V896.579H704.859V917.651H617.633Z" fill="#A80000" stroke="#A80000" stroke-width="0.58538"/>
<rect x="605.93" y="765.46" width="16.3915" height="28.6822" fill="#A80000"/>
<rect x="563.789" y="700.486" width="9.36656" height="10.5363" fill="#A80000"/>
<rect x="710.719" y="686.438" width="8.78115" height="11.1217" fill="#A80000"/>
<rect x="573.141" y="711.023" width="22.831" height="10.5363" fill="#A80000"/>
<rect x="640.773" y="803.206" width="3.55445" height="3.55445" transform="rotate(-90 640.773 803.206)" fill="#A80000"/>
<path d="M567.19 799.2H553.883V942.751H589.87V924.426H578.127V911.827V837.38H567.19V812.946V799.2Z" fill="#A80000" stroke="#A80000" stroke-width="0.58538"/>
<path d="M529.008 799.2V973.375H540.876V959.977H553.51V799.2H529.008Z" fill="#A80000" stroke="#A80000" stroke-width="0.58538"/>
<rect x="540.867" y="822.551" width="5.35922" height="19.9077" transform="rotate(-90 540.867 822.551)" fill="#A80000"/>
<path d="M516.367 824.083V811.833H530.988V824.083H516.367Z" fill="#A80000"/>
<rect x="540.867" y="834.801" width="5.35922" height="19.9077" transform="rotate(-90 540.867 834.801)" fill="#A80000"/>
<rect x="540.867" y="846.943" width="5.35922" height="19.9077" transform="rotate(-90 540.867 846.943)" fill="#A80000"/>
<rect x="380.883" y="521.913" width="15.1826" height="15.1826" fill="#A80000"/>
<path d="M395.984 506.948H414.451V521.766H395.984V506.948Z" fill="#A80000"/>
<path d="M360.398 506.73H380.87V521.913H360.398V506.73Z" fill="#A80000"/>
<rect x="350.508" y="569.797" width="81.7525" height="15.1826" transform="rotate(-90 350.508 569.797)" fill="#A80000"/>
<path d="M355.242 502.262V488.044H365.686V502.262H355.242Z" fill="white"/>
<path d="M355.234 510.556V496.339H359.974V510.556H355.234Z" fill="white"/>
<rect x="412.414" y="569.797" width="81.7525" height="15.1826" transform="rotate(-90 412.414 569.797)" fill="#A80000"/>
<path d="M412.117 502.262V488.044H422.561V502.262H412.117Z" fill="white"/>
<path d="M412.102 510.556V496.339H416.841V510.556H412.102Z" fill="white"/>
<path d="M401.445 521.219V506.949H406.185V521.219H401.445Z" fill="white"/>
<path d="M370.641 512.925V506.728H375.38V512.925H370.641Z" fill="white"/>
<rect x="451.086" y="569.797" width="81.7525" height="15.3286" transform="rotate(-90 451.086 569.797)" fill="#A80000"/>
<path d="M455.945 502.263V488.045H466.389L466.419 502.263H455.945Z" fill="white"/>
<path d="M460.664 510.555V496.337H465.403V510.555H460.664Z" fill="white"/>
<rect x="520.289" y="521.911" width="15.1826" height="15.1826" fill="#A80000"/>
<path d="M535.469 537.094H554.993V552.277H535.469V537.094Z" fill="#A80000"/>
<path d="M501.93 506.729H520.286V521.912H501.93V506.729Z" fill="#A80000"/>
<rect x="489.914" y="569.794" width="81.7525" height="15.1826" transform="rotate(-90 489.914 569.794)" fill="#A80000"/>
<rect x="551.82" y="569.794" width="81.7525" height="15.1826" transform="rotate(-90 551.82 569.794)" fill="#A80000"/>
<rect x="638.516" y="554.468" width="51.0953" height="15.3286" transform="rotate(-90 638.516 554.468)" fill="#A80000"/>
<path d="M600.539 554.468H638.529V569.797H600.539V554.468Z" fill="#A80000"/>
<path d="M600.539 488.044H638.529V503.372H600.539V488.044Z" fill="#A80000"/>
<rect x="590.492" y="569.797" width="81.7525" height="15.3286" transform="rotate(-90 590.492 569.797)" fill="#A80000"/>
<rect x="725.391" y="518.7" width="15.3286" height="15.3286" transform="rotate(-90 725.391 518.7)" fill="#A80000"/>
<rect x="725.391" y="569.797" width="15.3286" height="15.3286" transform="rotate(-90 725.391 569.797)" fill="#A80000"/>
<path d="M710.062 554.468V528.741H725.391V554.468H710.062Z" fill="#A80000"/>
<path d="M687.414 488.044H725.404V503.372H687.414V488.044Z" fill="#A80000"/>
<path d="M687.414 518.7H725.404V534.029H687.414V518.7Z" fill="#A80000"/>
<rect x="677.367" y="569.797" width="81.7525" height="15.3286" transform="rotate(-90 677.367 569.797)" fill="#A80000"/>
<rect x="812.25" y="568.774" width="32.701" height="15.3286" transform="rotate(-180 812.25 568.774)" fill="#A80000"/>
<rect x="827.594" y="488.044" width="65.402" height="15.3286" transform="rotate(90 827.594 488.044)" fill="#A80000"/>
<rect x="779.57" y="488.044" width="65.402" height="15.3286" transform="rotate(90 779.57 488.044)" fill="#A80000"/>
<path d="M764.016 502.261V488.043H774.459V502.261H764.016Z" fill="white"/>
<path d="M764 534.252V496.338H768.739V534.252H764Z" fill="white"/>
<rect x="881.461" y="521.912" width="15.1826" height="15.1826" fill="#A80000"/>
<path d="M896.641 537.095H916.165V552.278H896.641V537.095Z" fill="#A80000"/>
<path d="M862.039 506.729H881.453V521.912H862.039V506.729Z" fill="#A80000"/>
<rect x="849.648" y="570.295" width="81.7525" height="15.1826" transform="rotate(-90 849.648 570.295)" fill="#A80000"/>
<rect x="912.992" y="569.795" width="81.7525" height="15.1826" transform="rotate(-90 912.992 569.795)" fill="#A80000"/>
<path d="M852.266 535.437V488.539H857.97L858 535.437H852.266Z" fill="white"/>
<path d="M857.594 496.338L857.624 488.548H862.736V496.338H857.594Z" fill="white"/>
<path d="M551.922 813.871V798.809H562.04V813.871H551.922Z" fill="white"/>
<path d="M551.906 822.164V807.946H556.646V822.164H551.906Z" fill="white"/>
<path d="M716.617 695.388V680.876H727.444V695.388H716.617Z" fill="white"/>
<path d="M716.602 727.378V689.464H721.341V727.378H716.602Z" fill="white"/>
<path d="M559.023 534.253V488.045H564.727L564.758 534.253H559.023Z" fill="white"/>
<path d="M590.422 534.253V488.045H595.534L595.565 534.253H590.422Z" fill="white"/>
<path d="M595.75 753.445V680.87H600.862L600.893 753.445H595.75Z" fill="white"/>
<path d="M618.266 690.057V680.87H623.378L623.408 690.057H618.266Z" fill="white"/>
<path d="M599.297 701.313V680.87H604.409L604.44 701.313H599.297Z" fill="white"/>
<path d="M633.664 498.709V488.046H638.776L638.807 498.709H633.664Z" fill="white"/>
<path d="M595.156 495.154V488.045H600.269L600.299 495.154H595.156Z" fill="white"/>
<path d="M554.273 503.448V488.045H559.977L560.008 503.448H554.273Z" fill="white"/>
<path d="M686.977 529.514V488.045H692.681L692.711 529.514H686.977Z" fill="white"/>
<path d="M682.242 503.448V488.045H687.946L687.977 503.448H682.242Z" fill="white"/>
<path d="M513.992 515.296V506.734H518.731V515.296H513.992Z" fill="white"/>
<path d="M542.43 545.186V537.09L547.169 537.09V545.186H542.43Z" fill="white"/>
<path d="M735.561 514.704L735.547 503.372L740.286 503.372L740.3 514.704H735.561Z" fill="white"/>
<path d="M544.812 733.971V722.487L549.552 722.487V733.971H544.812Z" fill="white"/>
<path d="M804.287 564.542L804.273 553.21L809.013 553.21L809.027 564.542H804.287Z" fill="white"/>
<path d="M903.812 549.14V537.097H908.552V549.14H903.812Z" fill="white"/>
</g>
<defs>
<clipPath id="clip0_419_4041">
<rect width="1280" height="1024" fill="white"/>
</clipPath>
</defs>
</svg>
