<svg width="425" height="896" viewBox="0 0 425 896" fill="none" xmlns="http://www.w3.org/2000/svg">
<g clip-path="url(#clip0_442_22501)">
<rect width="425" height="896" fill="#111111"/>
<rect x="142.844" y="822.189" width="4.45117" height="4.45072" transform="rotate(180 142.844 822.189)" fill="white"/>
<rect x="176.977" y="695.344" width="4.45117" height="4.45072" transform="rotate(180 176.977 695.344)" fill="white"/>
<rect x="217.766" y="799.194" width="4.45117" height="4.45072" transform="rotate(180 217.766 799.194)" fill="white"/>
<rect x="4.85938" y="535.859" width="4.45117" height="4.45072" transform="rotate(180 4.85938 535.859)" fill="white"/>
<rect x="65.4531" y="776.451" width="4.45117" height="4.45072" transform="rotate(180 65.4531 776.451)" fill="white"/>
<rect x="291.211" y="517.315" width="4.45117" height="4.45072" transform="rotate(180 291.211 517.315)" fill="white"/>
<rect x="347.602" y="564.047" width="4.45117" height="4.45072" transform="rotate(180 347.602 564.047)" fill="white"/>
<rect x="111.906" y="531.3" width="4.45117" height="4.45072" transform="rotate(180 111.906 531.3)" fill="white"/>
<rect x="154.703" y="756.17" width="2.96745" height="2.96715" transform="rotate(180 154.703 756.17)" fill="white"/>
<rect x="419.016" y="524.205" width="2.96745" height="2.96715" transform="rotate(180 419.016 524.205)" fill="white"/>
<rect x="92.9688" y="469.967" width="2.96745" height="2.96715" transform="rotate(180 92.9688 469.967)" fill="white"/>
<rect x="312.969" y="735.967" width="2.96745" height="2.96715" transform="rotate(180 312.969 735.967)" fill="white"/>
<rect x="362.547" y="470.904" width="2.96745" height="2.96715" transform="rotate(180 362.547 470.904)" fill="white"/>
<rect x="395.07" y="653.062" width="2.96745" height="2.96715" transform="rotate(180 395.07 653.062)" fill="white"/>
<rect x="24.1484" y="438.688" width="4.45117" height="4.45072" transform="rotate(180 24.1484 438.688)" fill="white"/>
<rect x="260.789" y="752.461" width="4.45117" height="4.45072" transform="rotate(180 260.789 752.461)" fill="white"/>
<rect x="19.6875" y="697.597" width="4.45117" height="4.45072" transform="rotate(180 19.6875 697.597)" fill="white"/>
<rect x="239.562" y="742.668" width="4.45117" height="4.45072" transform="rotate(-90 239.562 742.668)" fill="white"/>
<rect x="298.906" y="862.856" width="4.45117" height="4.45072" transform="rotate(-90 298.906 862.856)" fill="white"/>
<rect x="18.5156" y="842.816" width="2.96745" height="2.96715" transform="rotate(-90 18.5156 842.816)" fill="white"/>
<rect x="163.906" y="739.699" width="2.96745" height="2.96715" transform="rotate(-90 163.906 739.699)" fill="white"/>
<rect x="393.859" y="744.897" width="4.45117" height="4.45072" transform="rotate(-90 393.859 744.897)" fill="white"/>
<rect x="396.078" y="882.145" width="4.45117" height="4.45072" transform="rotate(-90 396.078 882.145)" fill="white"/>
<rect x="177.258" y="799.794" width="4.45117" height="4.45072" transform="rotate(-90 177.258 799.794)" fill="white"/>
<rect x="16.2891" y="378.963" width="4.45117" height="4.45072" transform="rotate(-90 16.2891 378.963)" fill="white"/>
<rect x="281" y="49.4512" width="4.45117" height="4.45072" transform="rotate(-90 281 49.4512)" fill="white"/>
<rect x="222" y="121.451" width="4.45117" height="4.45072" transform="rotate(-90 222 121.451)" fill="white"/>
<rect x="168" y="53.4512" width="4.45117" height="4.45072" transform="rotate(-90 168 53.4512)" fill="white"/>
<rect x="35.5703" y="77.7656" width="4.45117" height="4.45072" transform="rotate(-90 35.5703 77.7656)" fill="white"/>
<rect x="106" y="212.451" width="4.45117" height="4.45072" transform="rotate(-90 106 212.451)" fill="white"/>
<rect x="317.453" y="151.211" width="4.45117" height="4.45072" transform="rotate(-90 317.453 151.211)" fill="white"/>
<rect x="257" y="214.451" width="4.45117" height="4.45072" transform="rotate(-90 257 214.451)" fill="white"/>
<rect x="229" y="300.451" width="4.45117" height="4.45072" transform="rotate(-90 229 300.451)" fill="white"/>
<rect x="411.656" y="401.958" width="4.45117" height="4.45072" transform="rotate(-90 411.656 401.958)" fill="white"/>
<rect x="78.5938" y="14.7031" width="2.96745" height="2.96715" transform="rotate(-90 78.5938 14.7031)" fill="white"/>
<rect x="310.562" y="279.012" width="2.96745" height="2.96715" transform="rotate(-90 310.562 279.012)" fill="white"/>
<rect x="387.18" y="66.6436" width="2.96745" height="2.96715" transform="rotate(-90 387.18 66.6436)" fill="white"/>
<rect x="147.586" y="154.918" width="2.96745" height="2.96715" transform="rotate(-90 147.586 154.918)" fill="white"/>
<rect x="358.25" y="345.584" width="2.96745" height="2.96715" transform="rotate(-90 358.25 345.584)" fill="white"/>
<rect x="57.8281" y="295.873" width="2.96745" height="2.96715" transform="rotate(-90 57.8281 295.873)" fill="white"/>
<rect x="363.867" y="222.546" width="2.96745" height="2.96715" transform="rotate(-90 363.867 222.546)" fill="white"/>
<rect x="14.8047" y="195.725" width="2.96745" height="2.96715" transform="rotate(-90 14.8047 195.725)" fill="white"/>
<rect x="181.703" y="255.066" width="2.96745" height="2.96715" transform="rotate(-90 181.703 255.066)" fill="white"/>
<rect x="407.211" y="315.161" width="2.96745" height="2.96715" transform="rotate(-90 407.211 315.161)" fill="white"/>
<rect x="188" y="494.451" width="4.45117" height="4.45072" transform="rotate(-90 188 494.451)" fill="white"/>
<rect x="82.3047" y="120.788" width="4.45117" height="4.45072" transform="rotate(-90 82.3047 120.788)" fill="white"/>
<rect x="120" y="311.968" width="2.96745" height="2.96715" transform="rotate(-90 120 311.968)" fill="white"/>
<path d="M158.094 761.148V689.771H272.308V761.148H158.094Z" fill="#A80000" stroke="#A80000" stroke-width="0.528744"/>
<path d="M158.094 831.683V743.7H165.781V761.623H185V779.002H272.308V796.017V813.217V831.683H255.835V903.373H238.263V831.683H183.902V903.373H166.879V831.683H158.094Z" fill="#A80000"/>
<path d="M272.308 796.017V831.683H255.835V903.373H238.263V831.683H183.902V903.373H166.879V831.683H158.094V743.7H165.781V761.623H185V779.002H272.308V813.217" stroke="#A80000" stroke-width="0.528744"/>
<path d="M147.523 689.771V671.795H226.31V689.243L147.523 689.771Z" fill="#A80000" stroke="#A80000" stroke-width="0.528744"/>
<path d="M158.094 743.7V724.666H236.352V743.7H158.094Z" fill="#A80000" stroke="#A80000" stroke-width="0.528744"/>
<path d="M236.875 741.055V725.723H272.303V741.055H236.875Z" fill="#A80000" stroke="#A80000" stroke-width="0.528744"/>
<path d="M246.398 780.471V737.355H272.308V780.471H246.398Z" fill="#A80000" stroke="#A80000" stroke-width="0.528744"/>
<path d="M185.591 780.47L185.062 744.228L248.515 743.435V780.47H185.591Z" fill="#A80000" stroke="#A80000" stroke-width="0.528744"/>
<path d="M226.289 689.771V671.795H279.166V689.243L226.289 689.771Z" fill="#A80000" stroke="#A80000" stroke-width="0.528744"/>
<path d="M292.423 547.546H134.752V585.133H102.562V601.475H325.703V585.133H292.423V547.546Z" fill="#A80000" stroke="#A80000" stroke-width="0.528744"/>
<path d="M143.281 600.392H284.992V671.794H143.281V600.392Z" fill="#A80000"/>
<rect x="212.555" y="671.795" width="13.748" height="17.9764" fill="#A80000"/>
<rect x="197.75" y="671.795" width="14.8056" height="17.9764" fill="#A80000"/>
<rect x="230" y="623.681" width="15.8631" height="25.9071" fill="#A80000"/>
<path d="M193.508 761.148V742.114H272.295V761.148H193.508Z" fill="#A80000" stroke="#A80000" stroke-width="0.528744"/>
<rect x="182.938" y="623.681" width="14.8056" height="25.9071" fill="#A80000"/>
<rect x="144.875" y="564.992" width="8.46032" height="9.5169" fill="#A80000"/>
<rect x="277.578" y="552.305" width="7.93155" height="10.0456" fill="#A80000"/>
<rect x="153.328" y="574.511" width="20.622" height="9.5169" fill="#A80000"/>
<rect x="214.422" y="657.774" width="3.21055" height="3.21055" transform="rotate(-90 214.422 657.774)" fill="#A80000"/>
<path d="M147.949 654.157H135.93V783.818H168.435V767.266H157.828V755.886V688.642H147.949V666.572V654.157Z" fill="#A80000" stroke="#A80000" stroke-width="0.528744"/>
<path d="M113.453 654.157L113.453 811.479H124.173V799.378H135.584V654.157H113.453Z" fill="#A80000" stroke="#A80000" stroke-width="0.528744"/>
<rect x="124.172" y="675.247" width="4.8407" height="17.9816" transform="rotate(-90 124.172 675.247)" fill="#A80000"/>
<path d="M102.039 676.633V665.568H115.245V676.633H102.039Z" fill="#A80000"/>
<rect x="124.172" y="686.313" width="4.8407" height="17.9816" transform="rotate(-90 124.172 686.313)" fill="#A80000"/>
<rect x="124.172" y="697.279" width="4.8407" height="17.9816" transform="rotate(-90 124.172 697.279)" fill="#A80000"/>
<path d="M158.094 761.148V689.771H272.308V761.148H158.094Z" fill="#A80000" stroke="#A80000" stroke-width="0.528744"/>
<path d="M158.094 831.683V743.7H165.781V761.623H185V779.002H272.308V796.017V813.217V831.683H255.835V903.373H238.263V831.683H183.902V903.373H166.879V831.683H158.094Z" fill="#A80000"/>
<path d="M272.308 796.017V831.683H255.835V903.373H238.263V831.683H183.902V903.373H166.879V831.683H158.094V743.7H165.781V761.623H185V779.002H272.308V813.217" stroke="#A80000" stroke-width="0.528744"/>
<path d="M147.523 689.771V671.795H226.31V689.243L147.523 689.771Z" fill="#A80000" stroke="#A80000" stroke-width="0.528744"/>
<path d="M158.094 743.7V724.666H236.352V743.7H158.094Z" fill="#A80000" stroke="#A80000" stroke-width="0.528744"/>
<path d="M236.875 741.055V725.723H272.303V741.055H236.875Z" fill="#A80000" stroke="#A80000" stroke-width="0.528744"/>
<path d="M246.398 780.471V737.355H272.308V780.471H246.398Z" fill="#A80000" stroke="#A80000" stroke-width="0.528744"/>
<path d="M185.591 780.47L185.062 744.228L248.515 743.435V780.47H185.591Z" fill="#A80000" stroke="#A80000" stroke-width="0.528744"/>
<path d="M226.289 689.771V671.795H279.166V689.243L226.289 689.771Z" fill="#A80000" stroke="#A80000" stroke-width="0.528744"/>
<path d="M292.423 547.546H134.752V585.133H102.562V601.475H325.703V585.133H292.423V547.546Z" fill="#A80000" stroke="#A80000" stroke-width="0.528744"/>
<path d="M143.281 600.392H284.992V671.794H143.281V600.392Z" fill="#A80000"/>
<rect x="212.555" y="671.795" width="13.748" height="17.9764" fill="#A80000"/>
<rect x="197.75" y="671.795" width="14.8056" height="17.9764" fill="#A80000"/>
<rect x="230" y="623.681" width="15.8631" height="25.9071" fill="#A80000"/>
<path d="M193.508 761.148V742.114H272.295V761.148H193.508Z" fill="#A80000" stroke="#A80000" stroke-width="0.528744"/>
<rect x="182.938" y="623.681" width="14.8056" height="25.9071" fill="#A80000"/>
<rect x="144.875" y="564.992" width="8.46032" height="9.5169" fill="#A80000"/>
<rect x="277.578" y="552.305" width="7.93155" height="10.0456" fill="#A80000"/>
<rect x="153.328" y="574.511" width="20.622" height="9.5169" fill="#A80000"/>
<rect x="214.422" y="657.774" width="3.21055" height="3.21055" transform="rotate(-90 214.422 657.774)" fill="#A80000"/>
<path d="M147.949 654.157H135.93V783.818H168.435V767.266H157.828V755.886V688.642H147.949V666.572V654.157Z" fill="#A80000" stroke="#A80000" stroke-width="0.528744"/>
<path d="M113.453 654.157L113.453 811.479H124.173V799.378H135.584V654.157H113.453Z" fill="#A80000" stroke="#A80000" stroke-width="0.528744"/>
<rect x="124.172" y="675.247" width="4.8407" height="17.9816" transform="rotate(-90 124.172 675.247)" fill="#A80000"/>
<path d="M102.039 676.633V665.568H115.245V676.633H102.039Z" fill="#A80000"/>
<rect x="124.172" y="686.313" width="4.8407" height="17.9816" transform="rotate(-90 124.172 686.313)" fill="#A80000"/>
<rect x="124.172" y="697.279" width="4.8407" height="17.9816" transform="rotate(-90 124.172 697.279)" fill="#A80000"/>
<path d="M134.148 667.408V653.804H143.287V667.408H134.148Z" fill="white"/>
<path d="M134.141 674.9V662.058H138.421V674.9H134.141Z" fill="white"/>
<path d="M282.914 560.39V547.282H292.694V560.39H282.914Z" fill="white"/>
<path d="M282.898 589.284V555.038H287.179V589.284H282.898Z" fill="white"/>
<path d="M173.734 612.829V547.276H178.352L178.379 612.829H173.734Z" fill="white"/>
<path d="M194.078 555.574V547.276H198.696L198.723 555.574H194.078Z" fill="white"/>
<path d="M176.953 565.741V547.276H181.571L181.598 565.741H176.953Z" fill="white"/>
<path d="M127.727 595.239V584.867L132.007 584.866V595.239H127.727Z" fill="white"/>
<rect x="57.2578" y="384.502" width="9.12004" height="9.12004" fill="#A80000"/>
<path d="M66.3281 375.511H77.4206V384.412H66.3281V375.511Z" fill="#A80000"/>
<path d="M44.9609 375.382H57.2582V384.502H44.9609V375.382Z" fill="#A80000"/>
<rect x="39.0156" y="413.265" width="49.1079" height="9.12004" transform="rotate(-90 39.0156 413.265)" fill="#A80000"/>
<path d="M41.8594 372.696V364.156H48.1326V372.696H41.8594Z" fill="white"/>
<path d="M41.8516 377.68V369.139H44.6984V377.68H41.8516Z" fill="white"/>
<rect x="76.2031" y="413.265" width="49.1079" height="9.12004" transform="rotate(-90 76.2031 413.265)" fill="#A80000"/>
<path d="M76.0234 372.696V364.156H82.2966V372.696H76.0234Z" fill="white"/>
<path d="M76.0234 377.68V369.139H78.8703V377.68H76.0234Z" fill="white"/>
<path d="M69.6172 384.085V375.514H72.464V384.085H69.6172Z" fill="white"/>
<path d="M51.1094 379.102V375.379H53.9562V379.102H51.1094Z" fill="white"/>
<rect x="99.4297" y="413.267" width="49.1079" height="9.20774" transform="rotate(-90 99.4297 413.267)" fill="#A80000"/>
<path d="M102.344 372.7V364.16H108.617L108.635 372.7H102.344Z" fill="white"/>
<path d="M105.195 377.682V369.141H108.042V377.682H105.195Z" fill="white"/>
<rect x="141.008" y="384.504" width="9.12004" height="9.12004" fill="#A80000"/>
<path d="M150.125 393.625H161.853V402.745H150.125V393.625Z" fill="#A80000"/>
<path d="M129.977 375.385H141.003V384.505H129.977V375.385Z" fill="#A80000"/>
<rect x="122.766" y="413.268" width="49.1079" height="9.12004" transform="rotate(-90 122.766 413.268)" fill="#A80000"/>
<rect x="159.953" y="413.268" width="49.1079" height="9.12004" transform="rotate(-90 159.953 413.268)" fill="#A80000"/>
<rect x="212.023" y="404.058" width="30.6924" height="9.20774" transform="rotate(-90 212.023 404.058)" fill="#A80000"/>
<path d="M189.203 404.058H212.023V413.265H189.203V404.058Z" fill="#A80000"/>
<path d="M189.203 364.156H212.023V373.364H189.203V364.156Z" fill="#A80000"/>
<rect x="183.172" y="413.265" width="49.1079" height="9.20774" transform="rotate(-90 183.172 413.265)" fill="#A80000"/>
<rect x="264.188" y="382.572" width="9.20774" height="9.20774" transform="rotate(-90 264.188 382.572)" fill="#A80000"/>
<rect x="264.188" y="413.265" width="9.20774" height="9.20774" transform="rotate(-90 264.188 413.265)" fill="#A80000"/>
<path d="M254.977 404.058V388.603H264.184V404.058H254.977Z" fill="#A80000"/>
<path d="M241.367 364.156H264.188V373.364H241.367V364.156Z" fill="#A80000"/>
<path d="M241.367 382.572H264.188V391.78H241.367V382.572Z" fill="#A80000"/>
<rect x="235.336" y="413.265" width="49.1079" height="9.20774" transform="rotate(-90 235.336 413.265)" fill="#A80000"/>
<rect x="316.375" y="412.653" width="19.6432" height="9.20774" transform="rotate(-180 316.375 412.653)" fill="#A80000"/>
<rect x="325.594" y="364.16" width="39.2863" height="9.20774" transform="rotate(90 325.594 364.16)" fill="#A80000"/>
<rect x="296.742" y="364.16" width="39.2863" height="9.20774" transform="rotate(90 296.742 364.16)" fill="#A80000"/>
<path d="M287.406 372.696V364.156H293.679V372.696H287.406Z" fill="white"/>
<path d="M287.391 391.913V369.138H290.237V391.913H287.391Z" fill="white"/>
<rect x="357.953" y="384.501" width="9.12004" height="9.12004" fill="#A80000"/>
<path d="M367.07 393.622H378.798V402.742H367.07V393.622Z" fill="#A80000"/>
<path d="M346.281 375.382H357.943V384.502H346.281V375.382Z" fill="#A80000"/>
<rect x="338.836" y="413.564" width="49.1079" height="9.12004" transform="rotate(-90 338.836 413.564)" fill="#A80000"/>
<rect x="376.891" y="413.265" width="49.1079" height="9.12004" transform="rotate(-90 376.891 413.265)" fill="#A80000"/>
<path d="M340.414 392.626V364.455H343.84L343.859 392.626H340.414Z" fill="white"/>
<path d="M343.609 369.141L343.628 364.462H346.699V369.141H343.609Z" fill="white"/>
<path d="M164.258 391.917V364.16H167.684L167.702 391.917H164.258Z" fill="white"/>
<path d="M183.117 391.917V364.16H186.188L186.206 391.917H183.117Z" fill="white"/>
<path d="M209.094 370.566V364.161H212.165L212.183 370.566H209.094Z" fill="white"/>
<path d="M185.961 368.43V364.159H189.032L189.05 368.43H185.961Z" fill="white"/>
<path d="M161.406 373.412V364.16H164.833L164.851 373.412H161.406Z" fill="white"/>
<path d="M241.117 389.069V364.16H244.544L244.562 389.069H241.117Z" fill="white"/>
<path d="M238.273 373.412V364.16H241.7L241.718 373.412H238.273Z" fill="white"/>
<path d="M137.211 380.529V375.386H140.058V380.529H137.211Z" fill="white"/>
<path d="M154.289 398.483V393.621L157.136 393.62V398.483H154.289Z" fill="white"/>
<path d="M270.297 380.173L270.289 373.366L273.136 373.366L273.144 380.173H270.297Z" fill="white"/>
<path d="M311.594 410.11L311.586 403.304L314.433 403.304L314.441 410.11H311.594Z" fill="white"/>
<path d="M372.688 400.858V393.624H375.534V400.858H372.688Z" fill="white"/>
</g>
<defs>
<clipPath id="clip0_442_22501">
<rect width="425" height="896" fill="white"/>
</clipPath>
</defs>
</svg>
