<svg width="1440" height="1024" viewBox="0 0 1440 1024" fill="none" xmlns="http://www.w3.org/2000/svg">
<g clip-path="url(#clip0_419_5172)">
<rect width="1440" height="1024" fill="#111111"/>
<rect x="129" y="217" width="9.8394" height="9.83841" fill="white"/>
<rect x="1028.67" y="134.297" width="9.8394" height="9.83841" fill="white"/>
<rect x="1089.14" y="609.609" width="9.8394" height="9.83841" fill="white"/>
<rect x="1089.14" y="936.562" width="9.8394" height="9.83841" fill="white"/>
<rect x="724" y="85" width="9.8394" height="9.83841" fill="white"/>
<rect x="472" y="296" width="9.8394" height="9.83841" fill="white"/>
<rect x="1098.98" y="260.859" width="9.8394" height="9.83841" fill="white"/>
<rect x="942.188" y="741.094" width="9.8394" height="9.83841" fill="white"/>
<rect x="447" y="957" width="9.8394" height="9.83841" fill="white"/>
<rect x="161" y="715" width="9.8394" height="9.83841" fill="white"/>
<rect x="1183" y="68" width="9.8394" height="9.83841" fill="white"/>
<rect x="1193.2" y="761.484" width="9.8394" height="9.83841" fill="white"/>
<rect x="848.734" y="299.902" width="6.5596" height="6.55894" fill="white"/>
<rect x="702.781" y="734.432" width="6.5596" height="6.55894" fill="white"/>
<rect x="733.945" y="982.032" width="6.5596" height="6.55894" fill="white"/>
<rect x="249.609" y="78.0469" width="6.5596" height="6.55894" fill="white"/>
<rect x="283" y="345" width="6.5596" height="6.55894" fill="white"/>
<rect x="1312.73" y="203.906" width="6.5596" height="6.55894" fill="white"/>
<rect x="643" y="342" width="6.5596" height="6.55894" fill="white"/>
<rect x="434" y="139" width="6.5596" height="6.55894" fill="white"/>
<rect x="290" y="565" width="6.5596" height="6.55894" fill="white"/>
<rect x="280" y="832" width="6.5596" height="6.55894" fill="white"/>
<rect x="1412.86" y="837.735" width="6.5596" height="6.55894" fill="white"/>
<rect x="485" y="666" width="9.8394" height="9.83841" fill="white"/>
<rect x="123.898" y="486.832" width="9.8394" height="9.83841" fill="white"/>
<rect x="1161" y="442" width="9.8394" height="9.83841" fill="white"/>
<rect x="1319.38" y="517.987" width="9.8394" height="9.83841" fill="white"/>
<rect x="114" y="1002" width="9.8394" height="9.83841" fill="white"/>
<path d="M651.227 895.858V806.958H793.481V895.858H651.227Z" fill="#A80000" stroke="#A80000" stroke-width="0.658553"/>
<path d="M651.227 983.71V874.126H660.801V896.449H684.738V918.095H793.481V939.287V960.711V983.71H772.964V1073H751.078V983.71H683.371V1073H662.169V983.71H651.227Z" fill="#A80000"/>
<path d="M793.481 939.287V983.71H772.964V1073H751.078V983.71H683.371V1073H662.169V983.71H651.227V874.126H660.801V896.449H684.738V918.095H793.481V960.711" stroke="#A80000" stroke-width="0.658553"/>
<path d="M638.055 806.959V784.569H736.184V806.3L638.055 806.959Z" fill="#A80000" stroke="#A80000" stroke-width="0.658553"/>
<path d="M651.227 874.126V850.419H748.697V874.126H651.227Z" fill="#A80000" stroke="#A80000" stroke-width="0.658553"/>
<path d="M749.352 870.833V851.736H793.477V870.833H749.352Z" fill="#A80000" stroke="#A80000" stroke-width="0.658553"/>
<path d="M761.203 919.926V866.225H793.474V919.926H761.203Z" fill="#A80000" stroke="#A80000" stroke-width="0.658553"/>
<path d="M685.471 919.926L684.812 874.786L763.843 873.798V919.926H685.471Z" fill="#A80000" stroke="#A80000" stroke-width="0.658553"/>
<path d="M736.172 806.959V784.569H802.03V806.3L736.172 806.959Z" fill="#A80000" stroke="#A80000" stroke-width="0.658553"/>
<path d="M818.543 629.816H622.162V676.631H582.07V696.985H859.994V676.631H818.543V629.816Z" fill="#A80000" stroke="#A80000" stroke-width="0.658553"/>
<path d="M632.781 695.636H809.282V784.568H632.781V695.636Z" fill="#A80000"/>
<rect x="719.055" y="784.569" width="17.1232" height="22.3897" fill="#A80000"/>
<rect x="700.617" y="784.569" width="18.4404" height="22.3897" fill="#A80000"/>
<rect x="740.789" y="724.643" width="19.7576" height="32.2675" fill="#A80000"/>
<path d="M695.336 895.858V872.151H793.465V895.858H695.336Z" fill="#A80000" stroke="#A80000" stroke-width="0.658553"/>
<rect x="682.172" y="724.643" width="18.4404" height="32.2675" fill="#A80000"/>
<rect x="634.758" y="651.546" width="10.5374" height="11.8534" fill="#A80000"/>
<rect x="800.055" y="635.743" width="9.87879" height="12.5119" fill="#A80000"/>
<rect x="645.289" y="663.401" width="25.6849" height="11.8534" fill="#A80000"/>
<rect x="721.375" y="767.106" width="3.99876" height="3.99876" transform="rotate(-90 721.375 767.106)" fill="#A80000"/>
<path d="M638.595 762.6H623.625V924.095H664.11V903.479H650.899V889.305V805.552H638.595V778.064V762.6Z" fill="#A80000" stroke="#A80000" stroke-width="0.658553"/>
<path d="M595.633 762.6V958.547H608.984V943.474H623.197V762.6H595.633Z" fill="#A80000" stroke="#A80000" stroke-width="0.658553"/>
<rect x="608.977" y="788.87" width="6.02912" height="22.3961" transform="rotate(-90 608.977 788.87)" fill="#A80000"/>
<path d="M581.414 790.593V776.812H597.862V790.593H581.414Z" fill="#A80000"/>
<rect x="608.977" y="802.651" width="6.02912" height="22.3961" transform="rotate(-90 608.977 802.651)" fill="#A80000"/>
<rect x="608.977" y="816.311" width="6.02912" height="22.3961" transform="rotate(-90 608.977 816.311)" fill="#A80000"/>
<rect x="428.984" y="450.652" width="17.0804" height="17.0804" fill="#A80000"/>
<path d="M445.977 433.817H466.751V450.487H445.977V433.817Z" fill="#A80000"/>
<path d="M405.953 433.571H428.984V450.652H405.953V433.571Z" fill="#A80000"/>
<rect x="394.82" y="504.521" width="91.9715" height="17.0804" transform="rotate(-90 394.82 504.521)" fill="#A80000"/>
<path d="M400.156 428.544V412.549H411.905V428.544H400.156Z" fill="white"/>
<path d="M400.141 437.875V421.88H405.472V437.875H400.141Z" fill="white"/>
<rect x="464.461" y="504.521" width="91.9715" height="17.0804" transform="rotate(-90 464.461 504.521)" fill="#A80000"/>
<path d="M464.133 428.544V412.549H475.882V428.544H464.133Z" fill="white"/>
<path d="M464.117 437.875V421.88H469.449V437.875H464.117Z" fill="white"/>
<path d="M452.117 449.871V433.818H457.449V449.871H452.117Z" fill="white"/>
<path d="M417.469 440.541V433.569H422.8V440.541H417.469Z" fill="white"/>
<rect x="507.969" y="504.521" width="91.9715" height="17.2447" transform="rotate(-90 507.969 504.521)" fill="#A80000"/>
<path d="M513.438 428.545V412.55H525.186L525.22 428.545H513.438Z" fill="white"/>
<path d="M518.75 437.875V421.879H524.082V437.875H518.75Z" fill="white"/>
<rect x="585.82" y="450.65" width="17.0804" height="17.0804" fill="#A80000"/>
<path d="M602.906 467.731H624.871V484.812H602.906V467.731Z" fill="#A80000"/>
<path d="M565.172 433.57H585.823V450.651H565.172V433.57Z" fill="#A80000"/>
<rect x="551.656" y="504.519" width="91.9715" height="17.0804" transform="rotate(-90 551.656 504.519)" fill="#A80000"/>
<rect x="621.297" y="504.519" width="91.9715" height="17.0804" transform="rotate(-90 621.297 504.519)" fill="#A80000"/>
<rect x="718.836" y="487.276" width="57.4822" height="17.2447" transform="rotate(-90 718.836 487.276)" fill="#A80000"/>
<path d="M676.102 487.276H718.841V504.521H676.102V487.276Z" fill="#A80000"/>
<path d="M676.102 412.548H718.841V429.793H676.102V412.548Z" fill="#A80000"/>
<rect x="664.805" y="504.521" width="91.9715" height="17.2447" transform="rotate(-90 664.805 504.521)" fill="#A80000"/>
<rect x="816.562" y="447.037" width="17.2447" height="17.2447" transform="rotate(-90 816.562 447.037)" fill="#A80000"/>
<rect x="816.562" y="504.521" width="17.2447" height="17.2447" transform="rotate(-90 816.562 504.521)" fill="#A80000"/>
<path d="M799.312 487.276V458.333H816.557V487.276H799.312Z" fill="#A80000"/>
<path d="M773.828 412.548H816.567V429.793H773.828V412.548Z" fill="#A80000"/>
<path d="M773.828 447.037H816.567V464.282H773.828V447.037Z" fill="#A80000"/>
<rect x="762.531" y="504.521" width="91.9715" height="17.2447" transform="rotate(-90 762.531 504.521)" fill="#A80000"/>
<rect x="914.297" y="503.371" width="36.7886" height="17.2447" transform="rotate(-180 914.297 503.371)" fill="#A80000"/>
<rect x="931.547" y="412.549" width="73.5772" height="17.2447" transform="rotate(90 931.547 412.549)" fill="#A80000"/>
<rect x="877.516" y="412.549" width="73.5772" height="17.2447" transform="rotate(90 877.516 412.549)" fill="#A80000"/>
<path d="M860.008 428.543V412.548H871.757V428.543H860.008Z" fill="white"/>
<path d="M859.992 464.533V421.879H865.324V464.533H859.992Z" fill="white"/>
<rect x="992.133" y="450.65" width="17.0804" height="17.0804" fill="#A80000"/>
<path d="M1009.22 467.732H1031.18V484.812H1009.22V467.732Z" fill="#A80000"/>
<path d="M970.289 433.57H992.13V450.651H970.289V433.57Z" fill="#A80000"/>
<rect x="956.344" y="505.082" width="91.9715" height="17.0804" transform="rotate(-90 956.344 505.082)" fill="#A80000"/>
<rect x="1027.62" y="504.519" width="91.9715" height="17.0804" transform="rotate(-90 1027.62 504.519)" fill="#A80000"/>
<path d="M959.297 465.866V413.106H965.714L965.748 465.866H959.297Z" fill="white"/>
<path d="M965.289 421.88L965.323 413.117H971.075V421.88H965.289Z" fill="white"/>
<path d="M621.414 779.104V762.161H632.796V779.104H621.414Z" fill="white"/>
<path d="M621.398 788.435V772.44H626.73V788.435H621.398Z" fill="white"/>
<path d="M806.688 645.812V629.486H818.868V645.812H806.688Z" fill="white"/>
<path d="M806.672 681.8V639.147H812.004V681.8H806.672Z" fill="white"/>
<path d="M629.398 464.535V412.551H635.815L635.85 464.535H629.398Z" fill="white"/>
<path d="M664.719 464.535V412.551H670.47L670.504 464.535H664.719Z" fill="white"/>
<path d="M670.711 711.125V629.479H676.462L676.496 711.125H670.711Z" fill="white"/>
<path d="M696.047 639.814V629.478H701.798L701.832 639.814H696.047Z" fill="white"/>
<path d="M674.719 652.477V629.478H680.47L680.504 652.477H674.719Z" fill="white"/>
<path d="M713.367 424.547V412.551H719.119L719.153 424.547H713.367Z" fill="white"/>
<path d="M670.047 420.548V412.551H675.798L675.832 420.548H670.047Z" fill="white"/>
<path d="M624.062 429.879V412.551H630.48L630.514 429.879H624.062Z" fill="white"/>
<path d="M773.352 459.203V412.55H779.769L779.803 459.203H773.352Z" fill="white"/>
<path d="M768.016 429.879V412.551H774.433L774.467 429.879H768.016Z" fill="white"/>
<path d="M578.742 443.208V433.575H584.074V443.208H578.742Z" fill="white"/>
<path d="M610.734 476.834V467.727L616.066 467.727V476.834H610.734Z" fill="white"/>
<path d="M828 442.542L827.984 429.793L833.316 429.793L833.332 442.542H828Z" fill="white"/>
<path d="M613.414 689.217V676.298L618.746 676.297V689.217H613.414Z" fill="white"/>
<path d="M905.328 498.609L905.312 485.861L910.644 485.861L910.66 498.609H905.328Z" fill="white"/>
<path d="M1017.29 481.282V467.733H1022.62V481.282H1017.29Z" fill="white"/>
</g>
<defs>
<clipPath id="clip0_419_5172">
<rect width="1440" height="1024" fill="white"/>
</clipPath>
</defs>
</svg>
