<svg width="2560" height="1024" viewBox="0 0 2560 1024" fill="none" xmlns="http://www.w3.org/2000/svg">
<g clip-path="url(#clip0_421_8614)">
<rect width="2560" height="1024" fill="#111111"/>
<rect x="641.414" y="52" width="9.8394" height="9.83841" fill="white"/>
<rect x="2006.07" y="621.725" width="9.8394" height="9.83841" fill="white"/>
<rect x="1589.09" y="100.297" width="9.8394" height="9.83841" fill="white"/>
<rect x="1773" y="548" width="9.8394" height="9.83841" fill="white"/>
<rect x="1649.55" y="902.562" width="9.8394" height="9.83841" fill="white"/>
<rect x="1289.55" y="95.375" width="9.8394" height="9.83841" fill="white"/>
<rect x="1659.4" y="226.859" width="9.8394" height="9.83841" fill="white"/>
<rect x="1630" y="380" width="9.8394" height="9.83841" fill="white"/>
<rect x="1502.6" y="707.094" width="9.8394" height="9.83841" fill="white"/>
<rect x="972.414" y="907" width="9.8394" height="9.83841" fill="white"/>
<rect x="982.773" y="690.594" width="9.8394" height="9.83841" fill="white"/>
<rect x="1753.62" y="727.484" width="9.8394" height="9.83841" fill="white"/>
<rect x="1409.15" y="265.902" width="6.5596" height="6.55894" fill="white"/>
<rect x="1156.41" y="780" width="6.5596" height="6.55894" fill="white"/>
<rect x="1294.36" y="948.031" width="6.5596" height="6.55894" fill="white"/>
<rect x="794.414" y="121" width="6.5596" height="6.55894" fill="white"/>
<rect x="807.414" y="320" width="6.5596" height="6.55894" fill="white"/>
<rect x="736" y="798" width="6.5596" height="6.55894" fill="white"/>
<rect x="1873.15" y="169.906" width="6.5596" height="6.55894" fill="white"/>
<rect x="784.414" y="558" width="6.5596" height="6.55894" fill="white"/>
<rect x="989.32" y="138.266" width="6.5596" height="6.55894" fill="white"/>
<rect x="984.414" y="453" width="6.5596" height="6.55894" fill="white"/>
<rect x="1341.41" y="800" width="6.5596" height="6.55894" fill="white"/>
<rect x="1973.27" y="803.735" width="6.5596" height="6.55894" fill="white"/>
<rect x="2012.62" y="454.472" width="6.5596" height="6.55894" fill="white"/>
<rect x="546.562" y="361.007" width="6.5596" height="6.55894" fill="white"/>
<rect x="553" y="677" width="6.5596" height="6.55894" fill="white"/>
<rect x="2001.16" y="962.789" width="9.8394" height="9.83841" fill="white"/>
<rect x="2010.99" y="85.5312" width="9.8394" height="9.83841" fill="white"/>
<rect x="664.414" y="429" width="9.8394" height="9.83841" fill="white"/>
<rect x="600" y="921" width="6.5596" height="6.55894" fill="white"/>
<rect x="1165.1" y="192.406" width="9.8394" height="9.83841" fill="white"/>
<rect x="1863" y="406" width="9.8394" height="9.83841" fill="white"/>
<rect x="2372" y="816" width="9.8394" height="9.83841" fill="white"/>
<rect x="1659.4" y="226.859" width="9.8394" height="9.83841" fill="white"/>
<rect x="381.07" y="621.725" width="9.8394" height="9.83841" fill="white"/>
<rect x="148" y="548" width="9.8394" height="9.83841" fill="white"/>
<rect x="24.5547" y="902.562" width="9.8394" height="9.83841" fill="white"/>
<rect x="34.3984" y="226.859" width="9.8394" height="9.83841" fill="white"/>
<rect x="5" y="380" width="9.8394" height="9.83841" fill="white"/>
<rect x="128.617" y="727.484" width="9.8394" height="9.83841" fill="white"/>
<rect x="248.148" y="169.906" width="6.5596" height="6.55894" fill="white"/>
<rect x="348.273" y="803.735" width="6.5596" height="6.55894" fill="white"/>
<rect x="387.625" y="454.472" width="6.5596" height="6.55894" fill="white"/>
<rect x="376.156" y="962.789" width="9.8394" height="9.83841" fill="white"/>
<rect x="385.992" y="85.5312" width="9.8394" height="9.83841" fill="white"/>
<rect x="238" y="406" width="9.8394" height="9.83841" fill="white"/>
<rect x="34.3984" y="226.859" width="9.8394" height="9.83841" fill="white"/>
<rect x="2262.41" y="52" width="9.8394" height="9.83841" fill="white"/>
<rect x="2415.41" y="121" width="6.5596" height="6.55894" fill="white"/>
<rect x="2428.41" y="320" width="6.5596" height="6.55894" fill="white"/>
<rect x="2405.41" y="558" width="6.5596" height="6.55894" fill="white"/>
<rect x="2161" y="703.711" width="6.5596" height="6.55894" fill="white"/>
<rect x="2167.56" y="361.007" width="6.5596" height="6.55894" fill="white"/>
<rect x="2285.41" y="429" width="9.8394" height="9.83841" fill="white"/>
<rect x="2225.01" y="926.469" width="9.8394" height="9.83841" fill="white"/>
<path d="M1211.42 896.858V807.958H1353.68V896.858H1211.42Z" fill="#A80000" stroke="#A80000" stroke-width="0.658553"/>
<path d="M1211.42 984.71V875.127H1221V897.449H1244.93V919.095H1353.68V940.288V961.711V984.71H1333.16V1074H1311.27V984.71H1243.57V1074H1222.36V984.71H1211.42Z" fill="#A80000"/>
<path d="M1353.68 940.288V984.71H1333.16V1074H1311.27V984.71H1243.57V1074H1222.36V984.71H1211.42V875.127H1221V897.449H1244.93V919.095H1353.68V961.711" stroke="#A80000" stroke-width="0.658553"/>
<path d="M1198.25 807.959V785.569H1296.38V807.3L1198.25 807.959Z" fill="#A80000" stroke="#A80000" stroke-width="0.658553"/>
<path d="M1211.42 875.127V851.42H1308.89V875.127H1211.42Z" fill="#A80000" stroke="#A80000" stroke-width="0.658553"/>
<path d="M1309.55 871.834V852.737H1353.67V871.834H1309.55Z" fill="#A80000" stroke="#A80000" stroke-width="0.658553"/>
<path d="M1321.4 920.927V867.226H1353.67V920.927H1321.4Z" fill="#A80000" stroke="#A80000" stroke-width="0.658553"/>
<path d="M1245.67 920.926L1245.01 875.786L1324.04 874.798V920.926H1245.67Z" fill="#A80000" stroke="#A80000" stroke-width="0.658553"/>
<path d="M1296.37 807.959V785.569H1362.23V807.3L1296.37 807.959Z" fill="#A80000" stroke="#A80000" stroke-width="0.658553"/>
<path d="M1378.74 630.816H1182.36V677.631H1142.27V697.985H1420.19V677.631H1378.74V630.816Z" fill="#A80000" stroke="#A80000" stroke-width="0.658553"/>
<path d="M1192.98 696.637H1369.48V785.569H1192.98V696.637Z" fill="#A80000"/>
<rect x="1279.25" y="785.569" width="17.1232" height="22.3897" fill="#A80000"/>
<rect x="1260.81" y="785.569" width="18.4404" height="22.3897" fill="#A80000"/>
<rect x="1300.98" y="725.643" width="19.7576" height="32.2675" fill="#A80000"/>
<path d="M1255.53 896.858V873.151H1353.66V896.858H1255.53Z" fill="#A80000" stroke="#A80000" stroke-width="0.658553"/>
<rect x="1242.37" y="725.643" width="18.4404" height="32.2675" fill="#A80000"/>
<rect x="1194.95" y="652.547" width="10.5374" height="11.8534" fill="#A80000"/>
<rect x="1360.25" y="636.743" width="9.87879" height="12.5119" fill="#A80000"/>
<rect x="1205.48" y="664.401" width="25.6849" height="11.8534" fill="#A80000"/>
<rect x="1281.57" y="768.107" width="3.99876" height="3.99876" transform="rotate(-90 1281.57 768.107)" fill="#A80000"/>
<path d="M1198.79 763.6H1183.82V925.095H1224.31V904.479H1211.09V890.305V806.552H1198.79V779.064V763.6Z" fill="#A80000" stroke="#A80000" stroke-width="0.658553"/>
<path d="M1155.83 763.6V959.547H1169.18V944.474H1183.39V763.6H1155.83Z" fill="#A80000" stroke="#A80000" stroke-width="0.658553"/>
<rect x="1169.17" y="789.87" width="6.02912" height="22.3961" transform="rotate(-90 1169.17 789.87)" fill="#A80000"/>
<path d="M1141.61 791.594V777.813H1158.06V791.594H1141.61Z" fill="#A80000"/>
<rect x="1169.17" y="803.651" width="6.02912" height="22.3961" transform="rotate(-90 1169.17 803.651)" fill="#A80000"/>
<rect x="1169.17" y="817.311" width="6.02912" height="22.3961" transform="rotate(-90 1169.17 817.311)" fill="#A80000"/>
<rect x="989.18" y="451.652" width="17.0804" height="17.0804" fill="#A80000"/>
<path d="M1006.17 434.816H1026.95V451.486H1006.17V434.816Z" fill="#A80000"/>
<path d="M966.148 434.571H989.179V451.652H966.148V434.571Z" fill="#A80000"/>
<rect x="955.016" y="505.521" width="91.9715" height="17.0804" transform="rotate(-90 955.016 505.521)" fill="#A80000"/>
<path d="M960.352 429.544V413.549H972.1V429.544H960.352Z" fill="white"/>
<path d="M960.336 438.875V422.88H965.668V438.875H960.336Z" fill="white"/>
<rect x="1024.66" y="505.521" width="91.9715" height="17.0804" transform="rotate(-90 1024.66 505.521)" fill="#A80000"/>
<path d="M1024.33 429.544V413.549H1036.08V429.544H1024.33Z" fill="white"/>
<path d="M1024.31 438.875V422.88H1029.64V438.875H1024.31Z" fill="white"/>
<path d="M1012.31 450.87V434.817H1017.64V450.87H1012.31Z" fill="white"/>
<path d="M977.664 441.54V434.568H982.996V441.54H977.664Z" fill="white"/>
<rect x="1068.16" y="505.521" width="91.9715" height="17.2447" transform="rotate(-90 1068.16 505.521)" fill="#A80000"/>
<path d="M1073.63 429.545V413.55H1085.38L1085.42 429.545H1073.63Z" fill="white"/>
<path d="M1078.95 438.875V422.88H1084.28V438.875H1078.95Z" fill="white"/>
<rect x="1146.02" y="451.65" width="17.0804" height="17.0804" fill="#A80000"/>
<path d="M1163.1 468.731H1185.07V485.812H1163.1V468.731Z" fill="#A80000"/>
<path d="M1125.37 434.57H1146.02V451.651H1125.37V434.57Z" fill="#A80000"/>
<rect x="1111.85" y="505.52" width="91.9715" height="17.0804" transform="rotate(-90 1111.85 505.52)" fill="#A80000"/>
<rect x="1181.49" y="505.52" width="91.9715" height="17.0804" transform="rotate(-90 1181.49 505.52)" fill="#A80000"/>
<rect x="1279.03" y="488.275" width="57.4822" height="17.2447" transform="rotate(-90 1279.03 488.275)" fill="#A80000"/>
<path d="M1236.3 488.275H1279.04V505.52H1236.3V488.275Z" fill="#A80000"/>
<path d="M1236.3 413.548H1279.04V430.793H1236.3V413.548Z" fill="#A80000"/>
<rect x="1225" y="505.52" width="91.9715" height="17.2447" transform="rotate(-90 1225 505.52)" fill="#A80000"/>
<rect x="1376.76" y="448.037" width="17.2447" height="17.2447" transform="rotate(-90 1376.76 448.037)" fill="#A80000"/>
<rect x="1376.76" y="505.52" width="17.2447" height="17.2447" transform="rotate(-90 1376.76 505.52)" fill="#A80000"/>
<path d="M1359.51 488.275V459.332H1376.75V488.275H1359.51Z" fill="#A80000"/>
<path d="M1334.02 413.548H1376.76V430.793H1334.02V413.548Z" fill="#A80000"/>
<path d="M1334.02 448.037H1376.76V465.282H1334.02V448.037Z" fill="#A80000"/>
<rect x="1322.73" y="505.52" width="91.9715" height="17.2447" transform="rotate(-90 1322.73 505.52)" fill="#A80000"/>
<rect x="1474.49" y="504.37" width="36.7886" height="17.2447" transform="rotate(-180 1474.49 504.37)" fill="#A80000"/>
<rect x="1491.74" y="413.549" width="73.5772" height="17.2447" transform="rotate(90 1491.74 413.549)" fill="#A80000"/>
<rect x="1437.71" y="413.549" width="73.5772" height="17.2447" transform="rotate(90 1437.71 413.549)" fill="#A80000"/>
<path d="M1420.2 429.544V413.549H1431.95V429.544H1420.2Z" fill="white"/>
<path d="M1420.19 465.533V422.88H1425.52V465.533H1420.19Z" fill="white"/>
<rect x="1552.33" y="451.65" width="17.0804" height="17.0804" fill="#A80000"/>
<path d="M1569.41 468.731H1591.38V485.812H1569.41V468.731Z" fill="#A80000"/>
<path d="M1530.48 434.57H1552.33V451.651H1530.48V434.57Z" fill="#A80000"/>
<rect x="1516.54" y="506.082" width="91.9715" height="17.0804" transform="rotate(-90 1516.54 506.082)" fill="#A80000"/>
<rect x="1587.81" y="505.52" width="91.9715" height="17.0804" transform="rotate(-90 1587.81 505.52)" fill="#A80000"/>
<path d="M1519.49 466.865V414.106H1525.91L1525.94 466.865H1519.49Z" fill="white"/>
<path d="M1525.48 422.88L1525.52 414.117H1531.27L1531.27 422.88H1525.48Z" fill="white"/>
<path d="M1168.41 780.104V763.161H1179.8V780.104H1168.41Z" fill="white"/>
<path d="M1168.4 789.435V773.44H1173.73V789.435H1168.4Z" fill="white"/>
<path d="M1353.69 646.812V630.486H1365.87V646.812H1353.69Z" fill="white"/>
<path d="M1353.67 682.8V640.146H1359V682.8H1353.67Z" fill="white"/>
<path d="M1176.4 465.535V413.551H1182.82L1182.85 465.535H1176.4Z" fill="white"/>
<path d="M1211.72 465.535V413.551H1217.47L1217.5 465.535H1211.72Z" fill="white"/>
<path d="M1217.71 712.125V630.478H1223.46L1223.5 712.125H1217.71Z" fill="white"/>
<path d="M1243.05 640.813V630.478H1248.8L1248.83 640.813H1243.05Z" fill="white"/>
<path d="M1221.72 653.477V630.478H1227.47L1227.5 653.477H1221.72Z" fill="white"/>
<path d="M1260.37 425.547V413.551H1266.12L1266.15 425.547H1260.37Z" fill="white"/>
<path d="M1217.05 421.549V413.551H1222.8L1222.83 421.549H1217.05Z" fill="white"/>
<path d="M1171.06 430.879V413.551H1177.48L1177.51 430.879H1171.06Z" fill="white"/>
<path d="M1320.35 460.202V413.55H1326.77L1326.8 460.202H1320.35Z" fill="white"/>
<path d="M1315.02 430.879V413.551H1321.43L1321.47 430.879H1315.02Z" fill="white"/>
<path d="M1125.74 444.208V434.575H1131.07V444.208H1125.74Z" fill="white"/>
<path d="M1157.73 477.834V468.727L1163.07 468.727V477.834H1157.73Z" fill="white"/>
<path d="M1375 443.542L1374.98 430.794L1380.32 430.794L1380.33 443.542H1375Z" fill="white"/>
<path d="M1160.41 690.217V677.298L1165.75 677.297V690.217H1160.41Z" fill="white"/>
<path d="M1452.33 499.609L1452.31 486.861L1457.64 486.861L1457.66 499.609H1452.33Z" fill="white"/>
<path d="M1564.29 482.281V468.733H1569.62V482.281H1564.29Z" fill="white"/>
</g>
<defs>
<clipPath id="clip0_421_8614">
<rect width="2560" height="1024" fill="white"/>
</clipPath>
</defs>
</svg>
