<svg width="1024" height="1024" viewBox="0 0 1024 1024" fill="none" xmlns="http://www.w3.org/2000/svg">
<g clip-path="url(#clip0_426_11109)">
<rect width="1024" height="1024" fill="#111111"/>
<rect x="2.13281" y="144.001" width="7.87209" height="7.8713" fill="white"/>
<rect x="729" y="205" width="7.87209" height="7.8713" fill="white"/>
<rect x="744" y="416" width="7.87209" height="7.8713" fill="white"/>
<rect x="808.711" y="824.501" width="7.87209" height="7.8713" fill="white"/>
<rect x="496" y="128" width="7.87209" height="7.8713" fill="white"/>
<rect x="858" y="320" width="7.87209" height="7.8713" fill="white"/>
<rect x="691.133" y="668.114" width="7.87209" height="7.8713" fill="white"/>
<rect x="266.953" y="828.051" width="7.87209" height="7.8713" fill="white"/>
<rect x="209" y="932" width="7.87209" height="7.8713" fill="white"/>
<rect x="163" y="772" width="7.87209" height="7.8713" fill="white"/>
<rect x="438" y="408" width="7.87209" height="7.8713" fill="white"/>
<rect x="75" y="899" width="7.87209" height="7.8713" fill="white"/>
<rect x="275.242" y="654.914" width="7.87209" height="7.8713" fill="white"/>
<rect x="891.961" y="684.428" width="7.87209" height="7.8713" fill="white"/>
<rect x="891.961" y="684.428" width="7.87209" height="7.8713" fill="white"/>
<rect x="616.375" y="315.136" width="5.24806" height="5.24753" fill="white"/>
<rect x="279" y="361" width="5.24806" height="5.24753" fill="white"/>
<rect x="374" y="673" width="5.24806" height="5.24753" fill="white"/>
<rect x="43" y="678" width="5.24806" height="5.24753" fill="white"/>
<rect x="414.164" y="726.444" width="5.24806" height="5.24753" fill="white"/>
<rect x="524.531" y="860.879" width="5.24806" height="5.24753" fill="white"/>
<rect x="124.547" y="199.206" width="5.24806" height="5.24753" fill="white"/>
<rect x="134.953" y="358.417" width="5.24806" height="5.24753" fill="white"/>
<rect x="987.594" y="238.333" width="5.24806" height="5.24753" fill="white"/>
<rect x="116.547" y="548.831" width="5.24806" height="5.24753" fill="white"/>
<rect x="280.492" y="213.019" width="5.24806" height="5.24753" fill="white"/>
<rect x="562.18" y="742.445" width="5.24806" height="5.24753" fill="white"/>
<rect x="20.5312" y="445.623" width="7.87209" height="7.8713" fill="white"/>
<rect x="421.117" y="256.335" width="7.87209" height="7.8713" fill="white"/>
<rect x="992.922" y="489.616" width="7.87209" height="7.8713" fill="white"/>
<rect x="315.422" y="100.916" width="7.87209" height="7.8713" transform="rotate(-180 315.422 100.916)" fill="white"/>
<rect x="951.203" y="84.3518" width="5.24806" height="5.24753" transform="rotate(-180 951.203 84.3518)" fill="white"/>
<rect x="88.1562" y="45.2241" width="5.24806" height="5.24753" transform="rotate(-180 88.1562 45.2241)" fill="white"/>
<rect x="795.258" y="70.5383" width="5.24806" height="5.24753" transform="rotate(-180 795.258 70.5383)" fill="white"/>
<rect x="625.875" y="64.8713" width="7.87209" height="7.8713" transform="rotate(-180 625.875 64.8713)" fill="white"/>
<rect x="644.039" y="918.056" width="7.87209" height="7.8713" transform="rotate(-180 644.039 918.056)" fill="white"/>
<rect x="721.875" y="972.871" width="7.87209" height="7.8713" transform="rotate(-180 721.875 972.871)" fill="white"/>
<rect x="928.219" y="881.678" width="5.24806" height="5.24753" transform="rotate(-180 928.219 881.678)" fill="white"/>
<rect x="890.57" y="1000.11" width="5.24806" height="5.24753" transform="rotate(-180 890.57 1000.11)" fill="white"/>
<rect x="385.047" y="997.124" width="5.24806" height="5.24753" transform="rotate(-180 385.047 997.124)" fill="white"/>
<rect x="362.742" y="869.871" width="7.87209" height="7.8713" transform="rotate(-180 362.742 869.871)" fill="white"/>
<path d="M455.695 913.131V840.083H572.585V913.131H455.695Z" fill="#A80000" stroke="#A80000" stroke-width="0.541129"/>
<path d="M455.695 985.318V895.275H463.563V913.617H483.232V931.403H572.585V948.817V966.42V985.318H555.726V1058.69H537.743V985.318H482.108V1058.69H464.687V985.318H455.695Z" fill="#A80000"/>
<path d="M572.585 948.817V985.318H555.726V1058.69H537.743V985.318H482.108V1058.69H464.687V985.318H455.695V895.275H463.563V913.617H483.232V931.403H572.585V966.42" stroke="#A80000" stroke-width="0.541129"/>
<path d="M444.875 840.083V821.686H525.507V839.542L444.875 840.083Z" fill="#A80000" stroke="#A80000" stroke-width="0.541129"/>
<path d="M455.695 895.275V875.795H535.786V895.275H455.695Z" fill="#A80000" stroke="#A80000" stroke-width="0.541129"/>
<path d="M536.32 892.569V876.877H572.578V892.569H536.32Z" fill="#A80000" stroke="#A80000" stroke-width="0.541129"/>
<path d="M546.062 932.908V888.782H572.579V932.908H546.062Z" fill="#A80000" stroke="#A80000" stroke-width="0.541129"/>
<path d="M483.83 932.908L483.289 895.816L548.228 895.005V932.908H483.83Z" fill="#A80000" stroke="#A80000" stroke-width="0.541129"/>
<path d="M525.492 840.083V821.686H579.608V839.542L525.492 840.083Z" fill="#A80000" stroke="#A80000" stroke-width="0.541129"/>
<path d="M593.175 694.526H431.81V732.994H398.867V749.719H627.235V732.994H593.175V694.526Z" fill="#A80000" stroke="#A80000" stroke-width="0.541129"/>
<path d="M440.539 748.61H585.569V821.685H440.539V748.61Z" fill="#A80000"/>
<rect x="511.43" y="821.686" width="14.0701" height="18.3975" fill="#A80000"/>
<rect x="496.273" y="821.686" width="15.1524" height="18.3975" fill="#A80000"/>
<rect x="529.289" y="772.445" width="16.2347" height="26.514" fill="#A80000"/>
<path d="M491.938 913.131V893.652H572.57V913.131H491.938Z" fill="#A80000" stroke="#A80000" stroke-width="0.541129"/>
<rect x="481.117" y="772.445" width="15.1524" height="26.514" fill="#A80000"/>
<rect x="442.164" y="712.382" width="8.6585" height="9.73983" fill="#A80000"/>
<rect x="577.992" y="699.396" width="8.11734" height="10.2809" fill="#A80000"/>
<rect x="450.82" y="722.123" width="21.1051" height="9.73983" fill="#A80000"/>
<rect x="513.336" y="807.337" width="3.28576" height="3.28576" transform="rotate(-90 513.336 807.337)" fill="#A80000"/>
<path d="M445.309 803.635H433.008V936.333H466.274V919.393H455.419V907.747V838.928H445.309V816.341V803.635Z" fill="#A80000" stroke="#A80000" stroke-width="0.541129"/>
<path d="M410.008 803.635V964.643H420.979V952.257H432.657V803.635H410.008Z" fill="#A80000" stroke="#A80000" stroke-width="0.541129"/>
<rect x="420.969" y="825.22" width="4.95409" height="18.4028" transform="rotate(-90 420.969 825.22)" fill="#A80000"/>
<path d="M398.32 826.636V815.313H411.836V826.636H398.32Z" fill="#A80000"/>
<rect x="420.969" y="836.544" width="4.95409" height="18.4028" transform="rotate(-90 420.969 836.544)" fill="#A80000"/>
<rect x="420.969" y="847.768" width="4.95409" height="18.4028" transform="rotate(-90 420.969 847.768)" fill="#A80000"/>
<rect x="273.078" y="547.309" width="14.0349" height="14.0349" fill="#A80000"/>
<path d="M287.039 533.475H304.109V547.173H287.039V533.475Z" fill="#A80000"/>
<path d="M254.156 533.274H273.08V547.309H254.156V533.274Z" fill="#A80000"/>
<rect x="245.008" y="591.573" width="75.5724" height="14.0349" transform="rotate(-90 245.008 591.573)" fill="#A80000"/>
<path d="M249.398 529.143V516H259.052V529.143H249.398Z" fill="white"/>
<path d="M249.383 536.81V523.667H253.764V536.81H249.383Z" fill="white"/>
<rect x="302.234" y="591.573" width="75.5724" height="14.0349" transform="rotate(-90 302.234 591.573)" fill="#A80000"/>
<path d="M301.961 529.143V516H311.615V529.143H301.961Z" fill="white"/>
<path d="M301.945 536.81V523.667H306.326V536.81H301.945Z" fill="white"/>
<path d="M292.086 546.667V533.476H296.467V546.667H292.086Z" fill="white"/>
<path d="M263.617 539V533.272H267.998V539H263.617Z" fill="white"/>
<rect x="337.984" y="591.573" width="75.5724" height="14.1698" transform="rotate(-90 337.984 591.573)" fill="#A80000"/>
<path d="M342.484 529.144V516.001H352.138L352.166 529.144H342.484Z" fill="white"/>
<path d="M346.844 536.809V523.666H351.225V536.809H346.844Z" fill="white"/>
<rect x="401.961" y="547.307" width="14.0349" height="14.0349" fill="#A80000"/>
<path d="M416 561.342H434.048V575.377H416V561.342Z" fill="#A80000"/>
<path d="M385 533.273H401.968V547.308H385V533.273Z" fill="#A80000"/>
<rect x="373.891" y="591.571" width="75.5724" height="14.0349" transform="rotate(-90 373.891 591.571)" fill="#A80000"/>
<rect x="431.117" y="591.571" width="75.5724" height="14.0349" transform="rotate(-90 431.117 591.571)" fill="#A80000"/>
<rect x="511.25" y="577.402" width="47.2328" height="14.1698" transform="rotate(-90 511.25 577.402)" fill="#A80000"/>
<path d="M476.141 577.402H511.259V591.571H476.141V577.402Z" fill="#A80000"/>
<path d="M476.141 515.999H511.259V530.169H476.141V515.999Z" fill="#A80000"/>
<rect x="466.852" y="591.572" width="75.5724" height="14.1698" transform="rotate(-90 466.852 591.572)" fill="#A80000"/>
<rect x="591.555" y="544.338" width="14.1698" height="14.1698" transform="rotate(-90 591.555 544.338)" fill="#A80000"/>
<rect x="591.555" y="591.572" width="14.1698" height="14.1698" transform="rotate(-90 591.555 591.572)" fill="#A80000"/>
<path d="M577.375 577.402V553.619H591.545V577.402H577.375Z" fill="#A80000"/>
<path d="M556.445 515.999H591.564V530.169H556.445V515.999Z" fill="#A80000"/>
<path d="M556.445 544.338H591.564V558.508H556.445V544.338Z" fill="#A80000"/>
<rect x="547.156" y="591.572" width="75.5724" height="14.1698" transform="rotate(-90 547.156 591.572)" fill="#A80000"/>
<rect x="671.852" y="590.627" width="30.229" height="14.1698" transform="rotate(-180 671.852 590.627)" fill="#A80000"/>
<rect x="686.031" y="516" width="60.4579" height="14.1698" transform="rotate(90 686.031 516)" fill="#A80000"/>
<rect x="641.633" y="516" width="60.4579" height="14.1698" transform="rotate(90 641.633 516)" fill="#A80000"/>
<path d="M627.25 529.142V515.999H636.904V529.142H627.25Z" fill="white"/>
<path d="M627.234 558.714V523.666H631.615V558.714H627.234Z" fill="white"/>
<rect x="735.812" y="547.307" width="14.0349" height="14.0349" fill="#A80000"/>
<path d="M749.852 561.343H767.9V575.377H749.852V561.343Z" fill="#A80000"/>
<path d="M717.859 533.273H735.806V547.308H717.859V533.273Z" fill="#A80000"/>
<rect x="706.406" y="592.033" width="75.5724" height="14.0349" transform="rotate(-90 706.406 592.033)" fill="#A80000"/>
<rect x="764.969" y="591.571" width="75.5724" height="14.0349" transform="rotate(-90 764.969 591.571)" fill="#A80000"/>
<path d="M708.844 559.809V516.457H714.117L714.145 559.809H708.844Z" fill="white"/>
<path d="M713.766 523.667L713.794 516.466H718.52V523.667H713.766Z" fill="white"/>
<path d="M431.203 817.196V803.273H440.556V817.196H431.203Z" fill="white"/>
<path d="M431.195 824.862V811.719H435.576V824.862H431.195Z" fill="white"/>
<path d="M583.445 707.67V694.255H593.454V707.67H583.445Z" fill="white"/>
<path d="M583.43 737.242V702.194H587.811V737.242H583.43Z" fill="white"/>
<path d="M437.766 558.716V516.001H443.038L443.066 558.716H437.766Z" fill="white"/>
<path d="M466.789 558.716V516.001H471.515L471.543 558.716H466.789Z" fill="white"/>
<path d="M471.711 761.338V694.249H476.437L476.465 761.338H471.711Z" fill="white"/>
<path d="M492.531 702.741V694.249H497.257L497.285 702.741H492.531Z" fill="white"/>
<path d="M475.008 713.146V694.249H479.734L479.762 713.146H475.008Z" fill="white"/>
<path d="M506.766 525.858V516.001H511.492L511.52 525.858H506.766Z" fill="white"/>
<path d="M471.164 522.573V516.001H475.89L475.918 522.573H471.164Z" fill="white"/>
<path d="M433.383 530.239V516.001H438.656L438.684 530.239H433.383Z" fill="white"/>
<path d="M556.055 554.334V516H561.328L561.356 554.334H556.055Z" fill="white"/>
<path d="M551.664 530.239V516.001H556.937L556.965 530.239H551.664Z" fill="white"/>
<path d="M396.148 541.192V533.277H400.529V541.192H396.148Z" fill="white"/>
<path d="M422.43 568.822V561.338L426.811 561.338V568.822H422.43Z" fill="white"/>
<path d="M600.958 540.644L600.945 530.169L605.326 530.169L605.339 540.644H600.958Z" fill="white"/>
<path d="M424.641 743.336V732.72L429.022 732.72V743.336H424.641Z" fill="white"/>
<path d="M664.497 586.715L664.484 576.24L668.865 576.24L668.878 586.715H664.497Z" fill="white"/>
<path d="M756.5 572.477V561.344H760.881V572.477H756.5Z" fill="white"/>
</g>
<defs>
<clipPath id="clip0_426_11109">
<rect width="1024" height="1024" fill="white"/>
</clipPath>
</defs>
</svg>
