<svg width="1440" height="717" viewBox="0 0 1440 717" fill="none" xmlns="http://www.w3.org/2000/svg">
<g clip-path="url(#clip0_372_8576)">
<rect width="1440" height="717" fill="#111111"/>
<path d="M668.375 625.593V558.897H775.099V625.593H668.375Z" fill="#A80000" stroke="#A80000" stroke-width="0.494068"/>
<path d="M668.375 691.503V609.29H675.558V626.037H693.517V642.276H775.099V658.175V674.248V691.503H759.706V758.491H743.287V691.503H692.491V758.491H676.585V691.503H668.375Z" fill="#A80000"/>
<path d="M775.099 658.175V691.503H759.706V758.491H743.287V691.503H692.491V758.491H676.585V691.503H668.375V609.29H675.558V626.037H693.517V642.276H775.099V674.248" stroke="#A80000" stroke-width="0.494068"/>
<path d="M658.492 558.898V542.1H732.112V558.404L658.492 558.898Z" fill="#A80000" stroke="#A80000" stroke-width="0.494068"/>
<path d="M668.375 609.29V591.504H741.501V609.29H668.375Z" fill="#A80000" stroke="#A80000" stroke-width="0.494068"/>
<path d="M741.992 606.82V592.492H775.096V606.82H741.992Z" fill="#A80000" stroke="#A80000" stroke-width="0.494068"/>
<path d="M750.887 643.65V603.361H775.097V643.65H750.887Z" fill="#A80000" stroke="#A80000" stroke-width="0.494068"/>
<path d="M694.064 643.65L693.57 609.784L752.861 609.043V643.65H694.064Z" fill="#A80000" stroke="#A80000" stroke-width="0.494068"/>
<path d="M732.109 558.898V542.1H781.519V558.404L732.109 558.898Z" fill="#A80000" stroke="#A80000" stroke-width="0.494068"/>
<path d="M793.902 426H646.57V461.122H616.492V476.392H824.999V461.122H793.902V426Z" fill="#A80000" stroke="#A80000" stroke-width="0.494068"/>
<path d="M654.539 475.38H786.956V542.1H654.539V475.38Z" fill="#A80000"/>
<rect x="719.262" y="542.1" width="12.8464" height="16.7975" fill="#A80000"/>
<rect x="705.43" y="542.1" width="13.8346" height="16.7975" fill="#A80000"/>
<rect x="735.57" y="497.142" width="14.8228" height="24.2081" fill="#A80000"/>
<path d="M701.477 625.593V607.808H775.096V625.593H701.477Z" fill="#A80000" stroke="#A80000" stroke-width="0.494068"/>
<rect x="691.594" y="497.142" width="13.8346" height="24.2081" fill="#A80000"/>
<rect x="656.02" y="442.303" width="7.90548" height="8.89277" fill="#A80000"/>
<rect x="780.035" y="430.446" width="7.41139" height="9.38681" fill="#A80000"/>
<rect x="663.926" y="451.196" width="19.2696" height="8.89277" fill="#A80000"/>
<rect x="721" y="529" width="3" height="3" transform="rotate(-90 721 529)" fill="#A80000"/>
<path d="M658.895 525.619H647.664V646.778H678.037V631.311H668.126V620.677V557.843H658.895V537.22V525.619Z" fill="#A80000" stroke="#A80000" stroke-width="0.494068"/>
<path d="M626.664 525.619V672.625H636.681V661.317H647.344V525.619H626.664Z" fill="#A80000" stroke="#A80000" stroke-width="0.494068"/>
<rect x="636.68" y="545.328" width="4.52324" height="16.8023" transform="rotate(-90 636.68 545.328)" fill="#A80000"/>
<path d="M616 546.62V536.281H628.34V546.62H616Z" fill="#A80000"/>
<rect x="636.68" y="555.667" width="4.52324" height="16.8023" transform="rotate(-90 636.68 555.667)" fill="#A80000"/>
<rect x="636.68" y="565.915" width="4.52324" height="16.8023" transform="rotate(-90 636.68 565.915)" fill="#A80000"/>
<rect x="501.641" y="291.586" width="12.8143" height="12.8143" fill="#A80000"/>
<path d="M514.395 278.956H529.98V291.462H514.395V278.956Z" fill="#A80000"/>
<path d="M484.363 278.771H501.642V291.586H484.363V278.771Z" fill="#A80000"/>
<rect x="476.012" y="332" width="69" height="12.8143" transform="rotate(-90 476.012 332)" fill="#A80000"/>
<path d="M480.012 275V263H488.826V275H480.012Z" fill="white"/>
<path d="M480 282V270H484V282H480Z" fill="white"/>
<rect x="528.258" y="332" width="69" height="12.8143" transform="rotate(-90 528.258 332)" fill="#A80000"/>
<path d="M528.012 275V263H536.826V275H528.012Z" fill="white"/>
<path d="M528 282V270H532V282H528Z" fill="white"/>
<path d="M519 291V278.957H523V291H519Z" fill="white"/>
<path d="M493 284V278.77H497V284H493Z" fill="white"/>
<rect x="560.898" y="332" width="69" height="12.9375" transform="rotate(-90 560.898 332)" fill="#A80000"/>
<path d="M565 275V263H573.814L573.84 275H565Z" fill="white"/>
<path d="M568.988 282V270H572.988V282H568.988Z" fill="white"/>
<rect x="619.305" y="291.585" width="12.8143" height="12.8143" fill="#A80000"/>
<path d="M632.125 304.4H648.603V317.214H632.125V304.4Z" fill="#A80000"/>
<path d="M603.812 278.771H619.305V291.586H603.812V278.771Z" fill="#A80000"/>
<rect x="593.676" y="332" width="69" height="12.8143" transform="rotate(-90 593.676 332)" fill="#A80000"/>
<rect x="645.922" y="332" width="69" height="12.8143" transform="rotate(-90 645.922 332)" fill="#A80000"/>
<rect x="719.102" y="319.062" width="43.125" height="12.9375" transform="rotate(-90 719.102 319.062)" fill="#A80000"/>
<path d="M687.043 319.062H719.107V332H687.043V319.062Z" fill="#A80000"/>
<path d="M687.043 263H719.107V275.937H687.043V263Z" fill="#A80000"/>
<rect x="678.566" y="332" width="69" height="12.9375" transform="rotate(-90 678.566 332)" fill="#A80000"/>
<rect x="792.414" y="288.875" width="12.9375" height="12.9375" transform="rotate(-90 792.414 288.875)" fill="#A80000"/>
<rect x="792.414" y="332" width="12.9375" height="12.9375" transform="rotate(-90 792.414 332)" fill="#A80000"/>
<path d="M779.473 319.062V297.348H792.41L792.41 319.062H779.473Z" fill="#A80000"/>
<path d="M760.355 263H792.42V275.937H760.355V263Z" fill="#A80000"/>
<path d="M760.355 288.875H792.42V301.812H760.355V288.875Z" fill="#A80000"/>
<rect x="751.879" y="332" width="69" height="12.9375" transform="rotate(-90 751.879 332)" fill="#A80000"/>
<rect x="865.738" y="331.137" width="27.6" height="12.9375" transform="rotate(-180 865.738 331.137)" fill="#A80000"/>
<rect x="878.68" y="263" width="55.2" height="12.9375" transform="rotate(90 878.68 263)" fill="#A80000"/>
<rect x="838.145" y="263" width="55.2" height="12.9375" transform="rotate(90 838.145 263)" fill="#A80000"/>
<path d="M825.012 275V263H833.826V275H825.012Z" fill="white"/>
<path d="M825 302V270H829V302H825Z" fill="white"/>
<rect x="924.137" y="291.585" width="12.8143" height="12.8143" fill="#A80000"/>
<path d="M936.953 304.4H953.432V317.214H936.953V304.4Z" fill="#A80000"/>
<path d="M907.75 278.771H924.136V291.586H907.75V278.771Z" fill="#A80000"/>
<rect x="897.289" y="332.421" width="69" height="12.8143" transform="rotate(-90 897.289 332.421)" fill="#A80000"/>
<rect x="950.754" y="332" width="69" height="12.8143" transform="rotate(-90 950.754 332)" fill="#A80000"/>
<path d="M899.5 303V263.418H904.314L904.34 303H899.5Z" fill="white"/>
<path d="M904 270L904.026 263.426H908.34V270H904Z" fill="white"/>
<path d="M646.012 538V525.288H654.551V538H646.012Z" fill="white"/>
<path d="M646 545V533H650V545H646Z" fill="white"/>
<path d="M785.012 438V425.752H794.15V438H785.012Z" fill="white"/>
<path d="M785 465V433H789V465H785Z" fill="white"/>
<path d="M652 302V263H656.814L656.84 302H652Z" fill="white"/>
<path d="M678.5 302V263H682.815L682.84 302H678.5Z" fill="white"/>
<path d="M683 487V425.746H687.315L687.34 487H683Z" fill="white"/>
<path d="M702 433.5V425.746H706.315L706.34 433.5H702Z" fill="white"/>
<path d="M686 443V425.746H690.315L690.34 443H686Z" fill="white"/>
<path d="M715 272V263H719.315L719.34 272H715Z" fill="white"/>
<path d="M682.5 269V263H686.815L686.84 269H682.5Z" fill="white"/>
<path d="M648 276V263H652.814L652.84 276H648Z" fill="white"/>
<path d="M760 298V263H764.814L764.84 298H760Z" fill="white"/>
<path d="M756 276V263H760.814L760.84 276H756Z" fill="white"/>
<path d="M614 286V278.773H618V286H614Z" fill="white"/>
<path d="M638 311.227V304.394L642 304.394V311.227H638Z" fill="white"/>
<path d="M801 285.5L800.988 275.936L804.988 275.936L805 285.5H801Z" fill="white"/>
<path d="M640.012 470.564V460.872L644.012 460.871V470.564H640.012Z" fill="white"/>
<path d="M859.012 327.564L859 318L863 318L863.012 327.564H859.012Z" fill="white"/>
<path d="M943.012 314.564V304.399H947.012V314.564H943.012Z" fill="white"/>
</g>
<defs>
<clipPath id="clip0_372_8576">
<rect width="1440" height="717" fill="white"/>
</clipPath>
</defs>
</svg>
