<svg width="121" height="56" viewBox="0 0 121 56" fill="none" xmlns="http://www.w3.org/2000/svg">
<path fill-rule="evenodd" clip-rule="evenodd" d="M-0.000915527 55.438H120.391V19.2419H97.1195V11.3222H120.391V9.15527e-05H66.7706V12.8691H38.4432V9.15527e-05H-0.000915527V15.8393H10.6204V31.6787H-0.000915527V55.438Z" fill="#A80000"/>
<rect x="26.2891" y="31.9106" width="3.94251" height="3.94251" fill="white"/>
<rect x="30.2109" y="28.0247" width="4.24578" height="3.84774" fill="white"/>
<rect x="22.3477" y="27.9678" width="3.94251" height="3.94251" fill="white"/>
<rect x="18.4023" y="44.3445" width="21.2289" height="3.94251" transform="rotate(-90 18.4023 44.3445)" fill="white"/>
<rect x="34.4766" y="44.3445" width="21.2289" height="3.94251" transform="rotate(-90 34.4766 44.3445)" fill="white"/>
<rect x="48.5" y="23.1155" width="8.35889" height="3.98042" fill="white"/>
<rect x="48.5" y="40.364" width="8.35889" height="3.98042" fill="white"/>
<rect x="44.5156" y="40.0986" width="13.0027" height="3.98042" transform="rotate(-90 44.5156 40.0986)" fill="white"/>
<rect x="56.8516" y="40.0986" width="13.0027" height="3.98042" transform="rotate(-90 56.8516 40.0986)" fill="white"/>
<rect x="79.4062" y="31.0764" width="3.98042" height="3.98042" transform="rotate(-90 79.4062 31.0764)" fill="white"/>
<rect x="79.4062" y="44.3445" width="3.98042" height="3.98042" transform="rotate(-90 79.4062 44.3445)" fill="white"/>
<rect x="75.4297" y="40.3643" width="5.30723" height="3.98042" transform="rotate(-90 75.4297 40.3643)" fill="white"/>
<rect x="70.9219" y="23.1155" width="8.49157" height="3.98042" fill="white"/>
<rect x="70.9219" y="31.0764" width="8.49157" height="3.98042" fill="white"/>
<rect x="66.9375" y="44.3445" width="21.2289" height="3.98042" transform="rotate(-90 66.9375 44.3445)" fill="white"/>
<rect x="93.4844" y="23.1155" width="8.49157" height="3.98042" fill="white"/>
<rect x="93.4844" y="31.7397" width="8.49157" height="3.98042" fill="white"/>
<rect x="93.4844" y="40.3643" width="8.49157" height="3.98042" fill="white"/>
<rect x="89.5" y="44.3445" width="21.2289" height="3.98042" transform="rotate(-90 89.5 44.3445)" fill="white"/>
</svg>
