<svg width="121" height="56" viewBox="0 0 121 56" fill="none" xmlns="http://www.w3.org/2000/svg">
<path fill-rule="evenodd" clip-rule="evenodd" d="M-0.000915527 55.5596H120.391V19.3634H97.1195V11.4437H120.391V0.121674H66.7706V12.9907H38.4432V0.121674H-0.000915527V15.9608H10.6204V31.8002H-0.000915527V55.5596Z" fill="#206234"/>
<rect x="26.2891" y="32.0322" width="3.94251" height="3.94251" fill="white"/>
<rect x="30.2109" y="28.1462" width="4.24578" height="3.84774" fill="white"/>
<rect x="22.3477" y="28.0894" width="3.94251" height="3.94251" fill="white"/>
<rect x="18.4023" y="44.4661" width="21.2289" height="3.94251" transform="rotate(-90 18.4023 44.4661)" fill="white"/>
<rect x="34.4766" y="44.4661" width="21.2289" height="3.94251" transform="rotate(-90 34.4766 44.4661)" fill="white"/>
<rect x="48.5" y="23.2371" width="8.35889" height="3.98042" fill="white"/>
<rect x="48.5" y="40.4856" width="8.35889" height="3.98042" fill="white"/>
<rect x="44.5156" y="40.2202" width="13.0027" height="3.98042" transform="rotate(-90 44.5156 40.2202)" fill="white"/>
<rect x="56.8516" y="40.2202" width="13.0027" height="3.98042" transform="rotate(-90 56.8516 40.2202)" fill="white"/>
<rect x="79.4062" y="31.198" width="3.98042" height="3.98042" transform="rotate(-90 79.4062 31.198)" fill="white"/>
<rect x="79.4062" y="44.4661" width="3.98042" height="3.98042" transform="rotate(-90 79.4062 44.4661)" fill="white"/>
<rect x="75.4297" y="40.4858" width="5.30723" height="3.98042" transform="rotate(-90 75.4297 40.4858)" fill="white"/>
<rect x="70.9219" y="23.2371" width="8.49157" height="3.98042" fill="white"/>
<rect x="70.9219" y="31.198" width="8.49157" height="3.98042" fill="white"/>
<rect x="66.9375" y="44.4661" width="21.2289" height="3.98042" transform="rotate(-90 66.9375 44.4661)" fill="white"/>
<rect x="93.4844" y="23.2371" width="8.49157" height="3.98042" fill="white"/>
<rect x="93.4844" y="31.8613" width="8.49157" height="3.98042" fill="white"/>
<rect x="93.4844" y="40.4858" width="8.49157" height="3.98042" fill="white"/>
<rect x="89.5" y="44.4661" width="21.2289" height="3.98042" transform="rotate(-90 89.5 44.4661)" fill="white"/>
</svg>
