<svg width="122" height="56" viewBox="0 0 122 56" fill="none" xmlns="http://www.w3.org/2000/svg">
<path fill-rule="evenodd" clip-rule="evenodd" d="M0.917053 55.5596H121.309V43.6799H98.0374V35.7602H121.309V0.121674H67.6885V12.9907H39.3612V0.121674H0.917053V15.9608H24.6762V31.8002H0.917053V55.5596Z" fill="#206234"/>
<rect x="67.7266" y="23.2371" width="8.35889" height="3.98042" fill="white"/>
<rect x="67.7266" y="40.4856" width="8.35889" height="3.98042" fill="white"/>
<rect x="63.7422" y="40.2202" width="13.0027" height="3.98042" transform="rotate(-90 63.7422 40.2202)" fill="white"/>
<rect x="76.0781" y="40.2202" width="13.0027" height="3.98042" transform="rotate(-90 76.0781 40.2202)" fill="white"/>
<rect x="46.8945" y="23.2371" width="12.472" height="3.98042" fill="white"/>
<rect x="42.9102" y="40.2202" width="13.0027" height="3.98042" transform="rotate(-90 42.9102 40.2202)" fill="white"/>
<rect x="55.3789" y="40.2202" width="8.22621" height="3.98042" transform="rotate(-90 55.3789 40.2202)" fill="white"/>
<rect x="51.4023" y="35.8416" width="3.84774" height="3.98042" transform="rotate(-90 51.4023 35.8416)" fill="white"/>
<rect x="46.8945" y="40.2202" width="8.49157" height="3.98042" fill="white"/>
</svg>
