<svg width="84" height="39" viewBox="0 0 84 39" fill="none" xmlns="http://www.w3.org/2000/svg">
<path fill-rule="evenodd" clip-rule="evenodd" d="M-0.00142609 38.4922H83.5898V29.1674H68.5096V23.6686H83.5898V8.24174e-05H46.3604V4.62948H26.692V8.24174e-05H-0.00142609V10.9977H8.42315V21.9954H-0.00142609V38.4922Z" fill="#206234"/>
<rect x="28.1914" y="11.3035" width="7.2057" height="3.43129" fill="white"/>
<rect x="28.1914" y="26.1724" width="7.2057" height="3.43129" fill="white"/>
<rect x="24.7617" y="25.9436" width="11.2089" height="3.43129" transform="rotate(-90 24.7617 25.9436)" fill="white"/>
<rect x="35.3984" y="25.9436" width="11.2089" height="3.43129" transform="rotate(-90 35.3984 25.9436)" fill="white"/>
<path d="M50.4688 11.3032H54.2447V15.4922H50.4688V11.3032Z" fill="white"/>
<path d="M50.4688 18.8572H54.2447V29.6033H50.4688V18.8572Z" fill="white"/>
<rect x="47.0703" y="15.4861" width="3.39859" height="3.39859" fill="white"/>
<rect x="43.6719" y="29.6033" width="18.3001" height="3.39859" transform="rotate(-90 43.6719 29.6033)" fill="white"/>
</svg>
