<svg width="425" height="896" viewBox="0 0 425 896" fill="none" xmlns="http://www.w3.org/2000/svg">
<g clip-path="url(#clip0_437_12900)">
<rect width="425" height="896" fill="#111111"/>
<path d="M144.328 764.997V656.479H153.707V678.585H177.155V700.02H198.592V742.221H263.575V721.006H283.673V764.997H263.575V853.418H242.137V764.997H175.815V853.418H155.047V764.997H144.328Z" fill="black" stroke="black" stroke-width="0.26076"/>
<path d="M260.039 719.91V656.456H283.692V719.91H260.039Z" fill="#206234" stroke="#206234" stroke-width="0.26076"/>
<path d="M130.93 591.353V568.113H227.301V591.353H130.93Z" fill="#26733D" stroke="#26733D" stroke-width="0.26076"/>
<path d="M144.328 633.704V591.178H283.673V633.704H144.328Z" fill="#206234" stroke="#206234" stroke-width="0.26076"/>
<path d="M152.812 656.456V613.04H269.713V656.456H152.812Z" fill="#206234" stroke="#206234" stroke-width="0.26076"/>
<path d="M176.203 676.494V636.418H263.043V689.853L212.943 694.862L176.203 676.494Z" fill="#206234" stroke="#206234" stroke-width="0.26076"/>
<path d="M144.328 655.809V633.704H154.377V655.809H177.824V676.495H207.301V706.03H189.559H177.824V677.915H154.377V655.809H144.328Z" fill="#26733D"/>
<path d="M154.377 655.809H144.328V633.704H154.377V655.809ZM154.377 655.809V677.915H177.824V676.495M154.377 655.809H177.824V676.495M177.824 676.495V706.03H189.559H207.301V676.495H177.824Z" stroke="#26733D" stroke-width="0.26076"/>
<path d="M269.727 653.116V633.078H283.682V656.456H269.727V666.475H283.682V688.183H271.397V704.881H263.047V674.824V656.456H266.387H269.727V653.116Z" fill="#26733D"/>
<path d="M269.727 656.456V633.078H283.682V656.456H269.727ZM269.727 656.456V666.475H283.682V688.183H271.397V704.881H263.047V674.824V656.456H266.387H269.727ZM269.727 656.456V653.116" stroke="#26733D" stroke-width="0.26076"/>
<path d="M262.25 591.19V568.113H293.128V591.19H262.25Z" fill="#26733D" stroke="#26733D" stroke-width="0.26076"/>
<path d="M125.578 482.986H299.759V568.058H125.578V482.986Z" fill="black"/>
<rect x="244.688" y="568.113" width="17.5516" height="23.0771" fill="black"/>
<rect x="227.477" y="568.113" width="17.2266" height="23.0771" fill="black"/>
<rect x="276.984" y="509.111" width="18.7579" height="32.1532" fill="#FAFF15"/>
<rect x="218.023" y="509.111" width="18.7579" height="32.1532" fill="#FAFF15"/>
<path d="M309.134 416H115.526V462.22H76V482.316H350V462.22H309.134V416Z" fill="#26733D" stroke="#26733D" stroke-width="0.26076"/>
<rect x="126.914" y="436.765" width="10.7188" height="12.0575" fill="#FF9315"/>
<rect x="290.375" y="422.028" width="10.7188" height="12.0575" fill="#FF9315"/>
<rect x="137.633" y="448.822" width="25.4572" height="12.0575" fill="#FF9315"/>
<path d="M154.383 854.088H176.49V894.949H154.383V854.088Z" fill="#26733D"/>
<path d="M241.469 854.088H264.246V894.949H241.469V854.088Z" fill="#26733D"/>
<path d="M262.907 675.859L228.109 675.83V741.552H262.907V675.859Z" fill="white"/>
<path d="M202.316 825.998H213.883V689.017H177.661V706.503H190.748V718.526V789.566H202.316V812.882V825.998Z" fill="#122132" stroke="#122132" stroke-width="0.26076"/>
<path d="M237.633 826L237.63 659.796H226.305L226.308 672.581H214.252V826H237.633Z" fill="#182738" stroke="#182738" stroke-width="0.26076"/>
<rect x="226.312" y="803.715" width="5.11396" height="18.9966" transform="rotate(90 226.312 803.715)" fill="#FF9315"/>
<rect x="249.688" y="802.255" width="11.6891" height="11.6902" transform="rotate(90 249.688 802.255)" fill="#FF9315"/>
<rect x="226.312" y="792.027" width="5.11396" height="18.9966" transform="rotate(90 226.312 792.027)" fill="#FF9315"/>
<rect x="226.312" y="815.405" width="5.11396" height="18.9966" transform="rotate(90 226.312 815.405)" fill="#FF9315"/>
<path fill-rule="evenodd" clip-rule="evenodd" d="M217.754 329.114H117.117V284.398H78V167.02H122.711V116.715H78V71.9998L290.421 71.9998V122.305H346.32V329.114H290.424V267.63H217.754V329.114Z" fill="#010101"/>
<mask id="path-31-inside-1_437_12900" fill="white">
<path fill-rule="evenodd" clip-rule="evenodd" d="M217.754 329.114H117.117V284.398H78V167.02H122.711V116.715H78V71.9998L290.421 71.9998V122.305H346.32V329.114H290.424V267.63H217.754V329.114Z"/>
</mask>
<path d="M117.117 329.114H115.145V331.086H117.117V329.114ZM217.754 329.114V331.086H219.725V329.114H217.754ZM117.117 284.398H119.089V282.426H117.117V284.398ZM78 284.398H76.0281V286.37H78V284.398ZM78 167.02V165.048H76.0281V167.02H78ZM122.711 167.02V168.992H124.683V167.02H122.711ZM122.711 116.715H124.683V114.743H122.711V116.715ZM78 116.715H76.0281V118.687H78V116.715ZM78 71.9998L78 70.0279H76.0281L76.0281 71.9998H78ZM290.421 71.9998H292.393V70.0279H290.421V71.9998ZM290.421 122.305H288.449V124.277H290.421V122.305ZM346.32 122.305H348.292V120.333H346.32V122.305ZM346.32 329.114V331.086H348.292V329.114H346.32ZM290.424 329.114H288.452V331.086H290.424V329.114ZM290.424 267.63H292.396V265.658H290.424V267.63ZM217.754 267.63V265.658H215.782V267.63H217.754ZM117.117 331.086H217.754V327.142H117.117V331.086ZM115.145 284.398V329.114H119.089V284.398H115.145ZM78 286.37H117.117V282.426H78V286.37ZM76.0281 167.02V284.398H79.9719V167.02H76.0281ZM122.711 165.048H78V168.992H122.711V165.048ZM120.739 116.715V167.02H124.683V116.715H120.739ZM78 118.687H122.711V114.743H78V118.687ZM76.0281 71.9998V116.715H79.9719V71.9998H76.0281ZM290.421 70.0279L78 70.0279L78 73.9718L290.421 73.9718V70.0279ZM292.393 122.305V71.9998H288.449V122.305H292.393ZM346.32 120.333H290.421V124.277H346.32V120.333ZM348.292 329.114V122.305H344.348V329.114H348.292ZM290.424 331.086H346.32V327.142H290.424V331.086ZM288.452 267.63V329.114H292.396V267.63H288.452ZM217.754 269.602H290.424V265.658H217.754V269.602ZM219.725 329.114V267.63H215.782V329.114H219.725Z" fill="#206234" mask="url(#path-31-inside-1_437_12900)"/>
</g>
<defs>
<clipPath id="clip0_437_12900">
<rect width="425" height="896" fill="white"/>
</clipPath>
</defs>
</svg>
