<svg width="896" height="654" viewBox="0 0 896 654" fill="none" xmlns="http://www.w3.org/2000/svg">
<path d="M84.3263 249.503H63.7344L63.7344 493.357H124.867V462.227H104.918V440.825L104.918 314.359H84.3263L84.3263 272.853V249.503Z" fill="#122132" stroke="#122132" stroke-width="0.994405"/>
<path d="M21.4648 249.503L21.4648 545.38H41.6255V522.62H63.0868L63.0868 249.503H21.4648Z" fill="#182738" stroke="#182738" stroke-width="0.994405"/>
<rect x="41.6211" y="289.17" width="9.10388" height="33.8178" transform="rotate(-90 41.6211 289.17)" fill="#FF9315"/>
<rect y="291.771" width="20.8089" height="20.811" transform="rotate(-90 0 291.771)" fill="#FF9315"/>
<rect x="41.6211" y="309.979" width="9.10388" height="33.8178" transform="rotate(-90 41.6211 309.979)" fill="#FF9315"/>
<rect x="41.6211" y="330.605" width="9.10388" height="33.8178" transform="rotate(-90 41.6211 330.605)" fill="#FF9315"/>
<path fill-rule="evenodd" clip-rule="evenodd" d="M735.481 321.009L609.859 321.009V265.181L561 265.181V118.634H616.839V55.8278H561V-3.05176e-05L826.207 -3.05176e-05V62.8064H896V321.009H826.21V244.246H735.481V321.009Z" fill="#010101"/>
<mask id="path-8-inside-1_358_959" fill="white">
<path fill-rule="evenodd" clip-rule="evenodd" d="M735.481 321.009L609.859 321.009V265.181L561 265.181V118.634H616.839V55.8278H561V-6.10352e-05L826.207 -6.10352e-05V62.8064H896V321.009H826.21V244.246H735.481V321.009Z"/>
</mask>
<path d="M609.859 321.009H607.397V323.471L609.859 323.471V321.009ZM735.481 321.009V323.471H737.943V321.009H735.481ZM609.859 265.181H612.321V262.719H609.859V265.181ZM561 265.181H558.538V267.643H561V265.181ZM561 118.634V116.172H558.538V118.634H561ZM616.839 118.634V121.096H619.301V118.634H616.839ZM616.839 55.8278H619.301V53.3658H616.839V55.8278ZM561 55.8278H558.538V58.2897H561V55.8278ZM561 -6.10352e-05V-2.46204H558.538V-6.10352e-05H561ZM826.207 -6.10352e-05H828.669V-2.46204H826.207V-6.10352e-05ZM826.207 62.8064H823.745V65.2684H826.207V62.8064ZM896 62.8064H898.462V60.3444H896V62.8064ZM896 321.009V323.471H898.462V321.009H896ZM826.21 321.009H823.748V323.471H826.21V321.009ZM826.21 244.246H828.672V241.784H826.21V244.246ZM735.481 244.246V241.784H733.019V244.246H735.481ZM609.859 323.471L735.481 323.471V318.547L609.859 318.547V323.471ZM607.397 265.181V321.009H612.321V265.181H607.397ZM561 267.643L609.859 267.643V262.719L561 262.719V267.643ZM558.538 118.634V265.181H563.462V118.634H558.538ZM616.839 116.172H561V121.096H616.839V116.172ZM614.377 55.8278V118.634H619.301V55.8278H614.377ZM561 58.2897H616.839V53.3658H561V58.2897ZM558.538 -6.10352e-05V55.8278H563.462V-6.10352e-05H558.538ZM826.207 -2.46204L561 -2.46204V2.46191L826.207 2.46191V-2.46204ZM828.669 62.8064V-6.10352e-05H823.745V62.8064H828.669ZM896 60.3444H826.207V65.2684H896V60.3444ZM898.462 321.009V62.8064H893.538V321.009H898.462ZM826.21 323.471H896V318.547H826.21V323.471ZM823.748 244.246V321.009H828.672V244.246H823.748ZM735.481 246.708H826.21V241.784H735.481V246.708ZM737.943 321.009V244.246H733.019V321.009H737.943Z" fill="#206234" mask="url(#path-8-inside-1_358_959)"/>
<path d="M105.734 583.959V417.619H120.111V451.503H156.052V484.36H188.913V549.048H288.522V516.529H319.329V583.959H288.522V719.496H255.661V583.959H153.998V719.496H122.165V583.959H105.734Z" fill="black" stroke="black" stroke-width="0.399704"/>
<path d="M283.086 514.849V417.584H319.342V514.849H283.086Z" fill="#206234" stroke="#206234" stroke-width="0.399704"/>
<path d="M85.1992 317.79V282.167H232.922V317.79H85.1992Z" fill="#26733D" stroke="#26733D" stroke-width="0.399704"/>
<path d="M105.734 382.708V317.522H319.329V382.708H105.734Z" fill="#206234" stroke="#206234" stroke-width="0.399704"/>
<path d="M118.75 417.582V351.033H297.941V417.582H118.75Z" fill="#206234" stroke="#206234" stroke-width="0.399704"/>
<path d="M154.594 448.298V386.868H287.707V468.775L210.911 476.454L154.594 448.298Z" fill="#206234" stroke="#206234" stroke-width="0.399704"/>
<path d="M105.734 416.592V382.708H121.138V416.592H157.079V448.299H202.263V493.572H175.066H157.079V450.476H121.138V416.592H105.734Z" fill="#26733D"/>
<path d="M121.138 416.592H105.734V382.708H121.138V416.592ZM121.138 416.592V450.476H157.079V448.299M121.138 416.592H157.079V448.299M157.079 448.299V493.572H175.066H202.263V448.299H157.079Z" stroke="#26733D" stroke-width="0.399704"/>
<path d="M297.946 412.464V381.748H319.337V417.583H297.946V432.941H319.337V466.215H300.506V491.812H287.707V445.739V417.583H292.827H297.946V412.464Z" fill="#26733D"/>
<path d="M297.946 417.583V381.748H319.337V417.583H297.946ZM297.946 417.583V432.941H319.337V466.215H300.506V491.812H287.707V445.739V417.583H292.827H297.946ZM297.946 417.583V412.464" stroke="#26733D" stroke-width="0.399704"/>
<path d="M286.477 317.541V282.167H333.808V317.541H286.477Z" fill="#26733D" stroke="#26733D" stroke-width="0.399704"/>
<path d="M358.359 49H61.5868V119.849H1V150.652H421V119.849H358.359V49Z" fill="#26733D" stroke="#26733D" stroke-width="0.399704"/>
<path d="M76.9883 151.68H343.981V282.083H76.9883V151.68Z" fill="black"/>
<rect x="259.574" y="282.167" width="26.9039" height="35.3737" fill="black"/>
<rect x="233.168" y="282.167" width="26.4057" height="35.3737" fill="black"/>
<rect x="309.07" y="191.725" width="28.7531" height="49.286" fill="#FAFF15"/>
<rect x="218.703" y="191.725" width="28.7531" height="49.286" fill="#FAFF15"/>
<rect x="79.0469" y="80.8301" width="16.4303" height="18.4823" fill="#FF9315"/>
<rect x="329.605" y="58.2412" width="16.4303" height="18.4823" fill="#FF9315"/>
<rect x="95.4766" y="99.3118" width="39.022" height="18.4823" fill="#FF9315"/>
<path d="M287.508 447.324L234.168 447.28V548.022H287.508V447.324Z" fill="white"/>
<path d="M194.625 677.465H212.355V467.494H156.833V494.299H176.894V512.727V621.621H194.625V657.36V677.465Z" fill="#122132" stroke="#122132" stroke-width="0.399704"/>
<path d="M248.75 677.469L248.745 422.704H231.386L231.391 442.301H212.911V677.469H248.75Z" fill="#182738" stroke="#182738" stroke-width="0.399704"/>
<rect x="231.398" y="643.311" width="7.83892" height="29.1189" transform="rotate(90 231.398 643.311)" fill="#FF9315"/>
<rect x="267.234" y="641.072" width="17.9175" height="17.9193" transform="rotate(90 267.234 641.072)" fill="#FF9315"/>
<rect x="231.398" y="625.395" width="7.83892" height="29.1189" transform="rotate(90 231.398 625.395)" fill="#FF9315"/>
</svg>
