<svg width="886" height="682" viewBox="0 0 886 682" fill="none" xmlns="http://www.w3.org/2000/svg">
<path d="M110.801 507.951V366.85H336.585V507.951H110.801Z" fill="#206234" stroke="#206234" stroke-width="1.04525"/>
<path d="M110.801 647.388V473.459H125.998V508.889H163.99V543.246H336.585V576.881V610.884V647.388H304.02V789.108H269.284V647.388H161.819V789.108H128.169V647.388H110.801Z" fill="black"/>
<path d="M336.585 576.881V647.388H304.02V789.108H269.284V647.388H161.819V789.108H128.169V647.388H110.801V473.459H125.998V508.889H163.99V543.246H336.585V610.884" stroke="black" stroke-width="1.04525"/>
<path d="M89.8945 366.85V331.313H245.644V365.805L89.8945 366.85Z" fill="#26733D" stroke="#26733D" stroke-width="1.04525"/>
<path d="M110.801 473.459V435.833H265.505V473.459H110.801Z" fill="#26733D" stroke="#26733D" stroke-width="1.04525"/>
<path d="M266.547 468.234V437.923H336.582V468.234H266.547Z" fill="#206234" stroke="#206234" stroke-width="1.04525"/>
<path d="M285.363 541.92V460.917H336.583V541.92H285.363Z" fill="#206234" stroke="#206234" stroke-width="1.04525"/>
<path d="M165.155 541.92L164.109 474.505L289.545 472.937V541.92H165.155Z" fill="#206234" stroke="#206234" stroke-width="1.04525"/>
<path d="M245.641 366.85V331.313H350.17V365.805L245.641 366.85Z" fill="#26733D" stroke="#26733D" stroke-width="1.04525"/>
<path d="M376.369 85.6931H64.6758V159.997H1.04297V192.303H442.159V159.997H376.369V85.6931Z" fill="#26733D" stroke="#26733D" stroke-width="1.04525"/>
<path d="M81.5312 194.393H361.671V331.313H81.5312V194.393Z" fill="black"/>
<rect x="218.461" y="331.313" width="27.1777" height="35.5365" fill="black"/>
<rect x="189.195" y="331.313" width="29.2683" height="35.5365" fill="black"/>
<rect x="252.961" y="236.201" width="31.3589" height="51.2144" fill="#FAFF15"/>
<path d="M180.832 507.951V470.324H336.581V507.951H180.832Z" fill="#26733D" stroke="#26733D" stroke-width="1.04525"/>
<rect x="159.926" y="236.201" width="29.2683" height="51.2144" fill="#FAFF15"/>
<rect x="84.668" y="120.184" width="16.7248" height="18.8135" fill="#FF9315"/>
<rect x="347.035" y="95.0999" width="15.6795" height="19.8587" fill="#FF9315"/>
<rect x="101.391" y="138.998" width="40.7666" height="18.8135" fill="#FF9315"/>
<path d="M88.6369 296.447H66.9922L66.9922 552.769H131.25V520.047H110.282V497.551L110.282 364.619H88.6369L88.6369 320.99V296.447Z" fill="#122132" stroke="#122132" stroke-width="1.04525"/>
<path d="M22.5586 296.447L22.5586 607.451H43.75V583.527H66.3085L66.3085 296.447H22.5586Z" fill="#182738" stroke="#182738" stroke-width="1.04525"/>
<rect x="43.75" y="338.142" width="9.56933" height="35.5468" transform="rotate(-90 43.75 338.142)" fill="#FF9315"/>
<rect y="340.876" width="21.8728" height="21.875" transform="rotate(-90 0 340.876)" fill="#FF9315"/>
<rect x="43.75" y="360.015" width="9.56933" height="35.5468" transform="rotate(-90 43.75 360.015)" fill="#FF9315"/>
<rect x="43.75" y="381.695" width="9.56933" height="35.5468" transform="rotate(-90 43.75 381.695)" fill="#FF9315"/>
<path fill-rule="evenodd" clip-rule="evenodd" d="M714.634 340.733L581.29 340.733V281.475H529.433V125.923H588.7V59.2578H529.433V6.10352e-05L810.934 6.10352e-05V66.6651H885.016V340.733H810.938V259.253H714.634V340.733Z" fill="#010101"/>
<mask id="path-27-inside-1_245_385" fill="white">
<path fill-rule="evenodd" clip-rule="evenodd" d="M714.634 340.733L581.29 340.733V281.475H529.433V125.923H588.7V59.2578H529.433V6.10352e-05L810.934 6.10352e-05V66.6651H885.016V340.733H810.938V259.253H714.634V340.733Z"/>
</mask>
<path d="M581.29 340.733H578.677V343.346H581.29V340.733ZM714.634 340.733V343.346H717.247V340.733H714.634ZM581.29 281.475H583.904V278.862H581.29V281.475ZM529.433 281.475H526.819V284.088H529.433V281.475ZM529.433 125.923V123.31H526.819V125.923H529.433ZM588.7 125.923V128.536H591.313V125.923H588.7ZM588.7 59.2578H591.313V56.6446H588.7V59.2578ZM529.433 59.2578H526.819V61.871H529.433V59.2578ZM529.433 4.49927e-05V-2.6132H526.819V4.49927e-05H529.433ZM810.934 4.49927e-05H813.547V-2.6132H810.934V4.49927e-05ZM810.934 66.6651H808.321V69.2783H810.934V66.6651ZM885.016 66.6651H887.629V64.0518H885.016V66.6651ZM885.016 340.733V343.346H887.629V340.733H885.016ZM810.938 340.733H808.325V343.346H810.938V340.733ZM810.938 259.253H813.551V256.64H810.938V259.253ZM714.634 259.253V256.64H712.021V259.253H714.634ZM581.29 343.346L714.634 343.346V338.12L581.29 338.12V343.346ZM578.677 281.475V340.733H583.904V281.475H578.677ZM529.433 284.088H581.29V278.862H529.433V284.088ZM526.819 125.923V281.475H532.046V125.923H526.819ZM588.7 123.31H529.433V128.536H588.7V123.31ZM586.087 59.2578V125.923H591.313V59.2578H586.087ZM529.433 61.871H588.7V56.6446H529.433V61.871ZM526.819 4.49927e-05V59.2578H532.046V4.49927e-05H526.819ZM810.934 -2.6132L529.433 -2.6132V2.61329L810.934 2.61329V-2.6132ZM813.547 66.6651V4.49927e-05H808.321V66.6651H813.547ZM885.016 64.0518H810.934V69.2783H885.016V64.0518ZM887.629 340.733V66.6651H882.402V340.733H887.629ZM810.938 343.346H885.016V338.12H810.938V343.346ZM808.325 259.253V340.733H813.551V259.253H808.325ZM714.634 261.866H810.938V256.64H714.634V261.866ZM717.247 340.733V259.253H712.021V340.733H717.247Z" fill="#206234" mask="url(#path-27-inside-1_245_385)"/>
</svg>
