<svg width="425" height="896" viewBox="0 0 425 896" fill="none" xmlns="http://www.w3.org/2000/svg">
<g clip-path="url(#clip0_435_12148)">
<rect width="425" height="896" fill="#111111"/>
<path d="M130.084 547.428H116.633L116.633 706.716H156.565V686.381H143.535V672.401V589.792H130.084V562.68L130.084 547.428Z" fill="#122132" stroke="#122132" stroke-width="0.649556"/>
<path d="M89.0156 547.428L89.0156 740.697H102.185V725.83H116.204L116.204 547.428H89.0156Z" fill="#182738" stroke="#182738" stroke-width="0.649556"/>
<rect x="102.18" y="573.338" width="5.94675" height="22.0902" transform="rotate(-90 102.18 573.338)" fill="#FF9315"/>
<rect x="75" y="575.037" width="13.5926" height="13.5939" transform="rotate(-90 75 575.037)" fill="#FF9315"/>
<rect x="102.18" y="586.932" width="5.94675" height="22.0902" transform="rotate(-90 102.18 586.932)" fill="#FF9315"/>
<rect x="102.18" y="600.403" width="5.94675" height="22.0902" transform="rotate(-90 102.18 600.403)" fill="#FF9315"/>
<path d="M144.062 765.897V657.242H153.453V679.376H176.931V700.838H198.396V743.093H263.461V721.851H283.585V765.897H263.461V854.431H241.996V765.897H175.589V854.431H154.795V765.897H144.062Z" fill="black" stroke="black" stroke-width="0.261091"/>
<path d="M259.914 720.754V657.22H283.597V720.754H259.914Z" fill="#206234" stroke="#206234" stroke-width="0.261091"/>
<path d="M130.648 592.033V568.764H227.142V592.033H130.648Z" fill="#26733D" stroke="#26733D" stroke-width="0.261091"/>
<path d="M144.062 634.438V591.857H283.585V634.438H144.062Z" fill="#206234" stroke="#206234" stroke-width="0.261091"/>
<path d="M152.57 657.219V613.748H269.62V657.219H152.57Z" fill="#206234" stroke="#206234" stroke-width="0.261091"/>
<path d="M175.977 677.282V637.155H262.927V690.658L212.763 695.674L175.977 677.282Z" fill="#206234" stroke="#206234" stroke-width="0.261091"/>
<path d="M144.062 656.571V634.438H154.124V656.571H177.601V677.282H207.116V706.855H189.35H177.601V678.704H154.124V656.571H144.062Z" fill="#26733D"/>
<path d="M154.124 656.571H144.062V634.438H154.124V656.571ZM154.124 656.571V678.704H177.601V677.282M154.124 656.571H177.601V677.282M177.601 677.282V706.855H189.35H207.116V677.282H177.601Z" stroke="#26733D" stroke-width="0.261091"/>
<path d="M269.61 653.874V633.811H283.583V657.218H269.61V667.25H283.583V688.985H271.283V705.705H262.922V675.61V657.218H266.266H269.61V653.874Z" fill="#26733D"/>
<path d="M269.61 657.218V633.811H283.583V657.218H269.61ZM269.61 657.218V667.25H283.583V688.985H271.283V705.705H262.922V675.61V657.218H266.266H269.61ZM269.61 657.218V653.874" stroke="#26733D" stroke-width="0.261091"/>
<path d="M262.125 591.87V568.764H293.042V591.87H262.125Z" fill="#26733D" stroke="#26733D" stroke-width="0.261091"/>
<path d="M309.08 416.456H115.224V462.735H75.6484V482.856H349.997V462.735H309.08V416.456Z" fill="#26733D" stroke="#26733D" stroke-width="0.261091"/>
<path d="M125.289 483.528H299.692V568.709H125.289V483.528Z" fill="black"/>
<rect x="244.555" y="568.764" width="17.5739" height="23.1065" fill="black"/>
<rect x="227.305" y="568.764" width="17.2485" height="23.1065" fill="black"/>
<rect x="276.883" y="509.687" width="18.7818" height="32.1942" fill="#FAFF15"/>
<rect x="217.852" y="509.687" width="18.7818" height="32.1942" fill="#FAFF15"/>
<rect x="126.625" y="437.248" width="10.7325" height="12.0728" fill="#FF9315"/>
<rect x="290.297" y="422.493" width="10.7325" height="12.0728" fill="#FF9315"/>
<rect x="137.367" y="449.32" width="25.4896" height="12.0728" fill="#FF9315"/>
<path d="M154.125 855.102H176.26V896.015H154.125V855.102Z" fill="#26733D"/>
<path d="M241.336 855.102H264.143V896.015H241.336V855.102Z" fill="#26733D"/>
<path d="M262.795 676.646L227.953 676.617V742.423H262.795V676.646Z" fill="white"/>
<path d="M202.129 826.977H213.711V689.821H177.443V707.33H190.547V719.368V790.498H202.129V813.844V826.977Z" fill="#122132" stroke="#122132" stroke-width="0.261091"/>
<path d="M237.484 826.979L237.481 660.563H226.142L226.145 673.365H214.074V826.979H237.484Z" fill="#182738" stroke="#182738" stroke-width="0.261091"/>
<rect x="226.141" y="804.667" width="5.12047" height="19.0208" transform="rotate(90 226.141 804.667)" fill="#FF9315"/>
<rect x="249.555" y="803.204" width="11.7039" height="11.7051" transform="rotate(90 249.555 803.204)" fill="#FF9315"/>
<rect x="226.141" y="792.964" width="5.12047" height="19.0208" transform="rotate(90 226.141 792.964)" fill="#FF9315"/>
<rect x="226.141" y="816.371" width="5.12047" height="19.0208" transform="rotate(90 226.141 816.371)" fill="#FF9315"/>
<path fill-rule="evenodd" clip-rule="evenodd" d="M218.754 329.114H118.117V284.398H79V167.02H123.711V116.715H79V71.9998L291.421 71.9998V122.305H347.32V329.114H291.424V267.63H218.754V329.114Z" fill="#010101"/>
<mask id="path-37-inside-1_435_12148" fill="white">
<path fill-rule="evenodd" clip-rule="evenodd" d="M218.754 329.114H118.117V284.398H79V167.02H123.711V116.715H79V71.9998L291.421 71.9998V122.305H347.32V329.114H291.424V267.63H218.754V329.114Z"/>
</mask>
<path d="M118.117 329.114H116.145V331.086H118.117V329.114ZM218.754 329.114V331.086H220.725V329.114H218.754ZM118.117 284.398H120.089V282.426H118.117V284.398ZM79 284.398H77.028V286.37H79V284.398ZM79 167.02V165.048H77.028V167.02H79ZM123.711 167.02V168.992H125.683V167.02H123.711ZM123.711 116.715H125.683V114.743H123.711V116.715ZM79 116.715H77.028V118.687H79V116.715ZM79 71.9999L79 70.0279H77.028L77.028 71.9999H79ZM291.421 71.9999H293.393V70.0279H291.421V71.9999ZM291.421 122.305H289.449V124.277H291.421V122.305ZM347.32 122.305H349.292V120.333H347.32V122.305ZM347.32 329.114V331.086H349.292V329.114H347.32ZM291.424 329.114H289.452V331.086H291.424V329.114ZM291.424 267.63H293.396V265.658H291.424V267.63ZM218.754 267.63V265.658H216.782V267.63H218.754ZM118.117 331.086H218.754V327.142H118.117V331.086ZM116.145 284.398V329.114H120.089V284.398H116.145ZM79 286.37H118.117V282.426H79V286.37ZM77.028 167.02V284.398H80.9719V167.02H77.028ZM123.711 165.048H79V168.992H123.711V165.048ZM121.739 116.715V167.02H125.683V116.715H121.739ZM79 118.687H123.711V114.743H79V118.687ZM77.028 71.9999V116.715H80.9719V71.9999H77.028ZM291.421 70.0279L79 70.0279L79 73.9718L291.421 73.9718V70.0279ZM293.393 122.305V71.9999H289.449V122.305H293.393ZM347.32 120.333H291.421V124.277H347.32V120.333ZM349.292 329.114V122.305H345.348V329.114H349.292ZM291.424 331.086H347.32V327.142H291.424V331.086ZM289.452 267.63V329.114H293.396V267.63H289.452ZM218.754 269.602H291.424V265.658H218.754V269.602ZM220.725 329.114V267.63H216.782V329.114H220.725Z" fill="#206234" mask="url(#path-37-inside-1_435_12148)"/>
</g>
<defs>
<clipPath id="clip0_435_12148">
<rect width="425" height="896" fill="white"/>
</clipPath>
</defs>
</svg>
