<svg width="8173" height="349" viewBox="0 0 8173 349" fill="none" xmlns="http://www.w3.org/2000/svg">
<g clip-path="url(#clip0_364_1047)">
<path d="M19.8789 263.777V232.208H22.6074V238.638H29.4285V244.874H35.665V257.151H54.5694V250.979H60.4161V263.777H54.5694V289.499H48.3329V263.777H29.0387V289.499H22.9971V263.777H19.8789Z" fill="black" stroke="black" stroke-width="0.389761"/>
<path d="M111.674 244.614V238.443H38.5898V256.761H47.9196V250.784H54.3339H92.2361V244.614H104.676H111.674Z" fill="#122132" stroke="#122132" stroke-width="0.389761"/>
<path d="M111.671 225.777H22.9961V231.818H29.8172V238.249H111.671V225.777Z" fill="#182738" stroke="#182738" stroke-width="0.389761"/>
<path d="M15.9805 213.11V206.484H44.0446V212.915L15.9805 213.11Z" fill="#26733D" stroke="#26733D" stroke-width="0.389761"/>
<path d="M19.8789 225.582V213.305H60.4161V225.215L19.8789 225.582Z" fill="#206234" stroke="#206234" stroke-width="0.389761"/>
<path d="M19.8789 232.013V225.582H22.8023V232.013H29.6234V238.443H38.1986V244.679H29.6234V238.443H22.8023V232.013H19.8789Z" fill="#26733D"/>
<path d="M22.8023 232.013H19.8789V225.582H22.8023V232.013ZM22.8023 232.013V238.443H29.6234M22.8023 232.013H29.6234V238.443M29.6234 238.443V244.679H38.1986V238.443H29.6234Z" stroke="#26733D" stroke-width="0.389761"/>
<path d="M54.1758 213.11V206.484H63.1407V212.915L54.1758 213.11Z" fill="#26733D" stroke="#26733D" stroke-width="0.389761"/>
<path d="M67.8218 162.249H11.4985V175.695H0V181.541H79.7101V175.695H67.8218V162.249Z" fill="#26733D" stroke="#26733D" stroke-width="0.389761"/>
<path d="M14.4219 181.736H65.0933V206.484H14.4219V181.736Z" fill="black"/>
<rect x="49.1133" y="206.484" width="5.06714" height="6.6256" fill="black"/>
<rect x="44.0469" y="206.484" width="5.06714" height="6.6256" fill="black"/>
<rect x="58.4688" y="189.336" width="5.45692" height="9.35379" fill="#FAFF15"/>
<rect x="41.3164" y="189.336" width="5.45692" height="9.35379" fill="#FAFF15"/>
<rect x="14.8125" y="168.29" width="3.11824" height="3.50767" fill="#FF9315"/>
<rect x="62.3633" y="164.003" width="3.11824" height="3.50767" fill="#FF9315"/>
<rect x="17.9297" y="171.798" width="7.40583" height="3.50767" fill="#FF9315"/>
<rect x="99.7812" y="231.818" width="2.72846" height="10.1333" fill="#FF9315"/>
<rect x="99.0039" y="219.346" width="6.23649" height="6.23586" fill="#FF9315"/>
<rect x="93.5469" y="231.818" width="2.72846" height="10.1333" fill="#FF9315"/>
<rect x="106.02" y="231.818" width="2.72846" height="10.1333" fill="#FF9315"/>
<path d="M22.8008 289.694H29.2321V301.581H22.8008V289.694Z" fill="#26733D"/>
<path d="M48.1367 289.694H54.763V301.581H48.1367V289.694Z" fill="#26733D"/>
<path d="M38.3929 244.874H35.8594V256.956H38.3929V244.874Z" fill="white"/>
<path d="M54.3732 250.982L48.1367 250.974V256.956H54.3732V250.982Z" fill="white"/>
<path d="M443.126 0H390.865V17.488H382.12V34.976H373.375V61.2079H417.099V104.72H425.844V61.2079H452.079V26.232H443.126V0Z" fill="#314A46" stroke="#314A46" stroke-width="0.971603"/>
<rect x="373.375" y="61.208" width="8.74487" height="8.74399" fill="white"/>
<rect x="408.355" y="61.2075" width="8.74487" height="8.74399" fill="white"/>
<rect x="443.332" y="61.2075" width="8.74487" height="8.74399" fill="white"/>
<rect x="443.332" y="96.6001" width="8.74487" height="16.6552" fill="white"/>
<rect x="399.609" y="92.4365" width="8.74487" height="20.819" fill="white"/>
<rect x="373.375" y="104.511" width="8.74487" height="8.74399" fill="white"/>
<rect x="425.844" y="104.511" width="8.74487" height="8.74399" fill="white"/>
<rect x="408.355" y="104.511" width="17.4897" height="8.74399" fill="#6F1E27"/>
<rect x="434.586" y="104.511" width="8.74487" height="8.74399" fill="#6F1E27"/>
<rect x="452.078" y="104.511" width="17.4897" height="8.74399" fill="#6F1E27"/>
<rect x="469.57" y="96.6001" width="8.74487" height="8.74399" fill="#6F1E27"/>
<rect x="425.844" y="61.208" width="8.74487" height="15.8225" fill="white"/>
<rect x="390.863" y="61.208" width="8.74487" height="22.0682" fill="white"/>
<path d="M373.375 113.255L452.079 113.464V174.671H443.271V270.647H443.334H452.079V349.135H443.334V270.647H443.271H434.589V200.903H425.844V183.415H417.099V165.928H408.354V174.671H399.61V192.159H390.865V200.903H382.12V349.135H373.375V113.255Z" fill="#314A46"/>
<path d="M443.334 270.647H443.271V174.671H452.079V113.464L373.375 113.255V349.135H382.12V200.903H390.865V192.159H399.61V174.671H408.354V165.927H417.099V183.415H425.844V200.903H434.589V270.647H443.334ZM443.334 270.647H452.079V349.135H443.334V270.647Z" stroke="#314A46" stroke-width="0.971603"/>
<path d="M497.879 263.777V232.208H500.607V238.638H507.429V244.874H513.665V257.151H532.569V250.979H538.416V263.777H532.569V289.499H526.333V263.777H507.039V289.499H500.997V263.777H497.879Z" fill="black" stroke="black" stroke-width="0.389761"/>
<path d="M589.674 244.614V238.443H516.59V256.761H525.92V250.784H532.334H570.236V244.614H582.676H589.674Z" fill="#122132" stroke="#122132" stroke-width="0.389761"/>
<path d="M589.671 225.777H500.996V231.818H507.817V238.249H589.671V225.777Z" fill="#182738" stroke="#182738" stroke-width="0.389761"/>
<path d="M493.98 213.11V206.484H522.045V212.915L493.98 213.11Z" fill="#26733D" stroke="#26733D" stroke-width="0.389761"/>
<path d="M497.879 225.582V213.305H538.416V225.215L497.879 225.582Z" fill="#206234" stroke="#206234" stroke-width="0.389761"/>
<path d="M497.879 232.013V225.582H500.802V232.013H507.623V238.443H516.199V244.679H507.623V238.443H500.802V232.013H497.879Z" fill="#26733D"/>
<path d="M500.802 232.013H497.879V225.582H500.802V232.013ZM500.802 232.013V238.443H507.623M500.802 232.013H507.623V238.443M507.623 238.443V244.679H516.199V238.443H507.623Z" stroke="#26733D" stroke-width="0.389761"/>
<path d="M532.176 213.11V206.484H541.141V212.915L532.176 213.11Z" fill="#26733D" stroke="#26733D" stroke-width="0.389761"/>
<path d="M545.822 162.249H489.499V175.695H478V181.541H557.71V175.695H545.822V162.249Z" fill="#26733D" stroke="#26733D" stroke-width="0.389761"/>
<path d="M492.422 181.736H543.093V206.484H492.422V181.736Z" fill="black"/>
<rect x="527.113" y="206.484" width="5.06714" height="6.6256" fill="black"/>
<rect x="522.047" y="206.484" width="5.06714" height="6.6256" fill="black"/>
<rect x="536.469" y="189.336" width="5.45692" height="9.35379" fill="#FAFF15"/>
<rect x="519.316" y="189.336" width="5.45692" height="9.35379" fill="#FAFF15"/>
<rect x="492.812" y="168.29" width="3.11824" height="3.50767" fill="#FF9315"/>
<rect x="540.363" y="164.003" width="3.11824" height="3.50767" fill="#FF9315"/>
<rect x="495.93" y="171.798" width="7.40583" height="3.50767" fill="#FF9315"/>
<rect x="577.781" y="231.818" width="2.72846" height="10.1333" fill="#FF9315"/>
<rect x="577.004" y="219.346" width="6.23649" height="6.23586" fill="#FF9315"/>
<rect x="571.547" y="231.818" width="2.72846" height="10.1333" fill="#FF9315"/>
<rect x="584.02" y="231.818" width="2.72846" height="10.1333" fill="#FF9315"/>
<path d="M500.801 289.694H507.232V301.581H500.801V289.694Z" fill="#26733D"/>
<path d="M526.137 289.694H532.763V301.581H526.137V289.694Z" fill="#26733D"/>
<path d="M516.393 244.874H513.859V256.956H516.393V244.874Z" fill="white"/>
<path d="M532.373 250.982L526.137 250.974V256.956H532.373V250.982Z" fill="white"/>
<path d="M921.126 0H868.865V17.488H860.12V34.976H851.375V61.2079H895.099V104.72H903.844V61.2079H930.079V26.232H921.126V0Z" fill="#314A46" stroke="#314A46" stroke-width="0.971603"/>
<rect x="851.375" y="61.208" width="8.74487" height="8.74399" fill="white"/>
<rect x="886.355" y="61.2075" width="8.74487" height="8.74399" fill="white"/>
<rect x="921.332" y="61.2075" width="8.74487" height="8.74399" fill="white"/>
<rect x="921.332" y="96.6001" width="8.74487" height="16.6552" fill="white"/>
<rect x="877.609" y="92.4365" width="8.74487" height="20.819" fill="white"/>
<rect x="851.375" y="104.511" width="8.74487" height="8.74399" fill="white"/>
<rect x="903.844" y="104.511" width="8.74487" height="8.74399" fill="white"/>
<rect x="886.355" y="104.511" width="17.4897" height="8.74399" fill="#6F1E27"/>
<rect x="912.586" y="104.511" width="8.74487" height="8.74399" fill="#6F1E27"/>
<rect x="930.078" y="104.511" width="17.4897" height="8.74399" fill="#6F1E27"/>
<rect x="947.57" y="96.6001" width="8.74487" height="8.74399" fill="#6F1E27"/>
<rect x="903.844" y="61.208" width="8.74487" height="15.8225" fill="white"/>
<rect x="868.863" y="61.208" width="8.74487" height="22.0682" fill="white"/>
<path d="M851.375 113.255L930.079 113.464V174.671H921.271V270.647H921.334H930.079V349.135H921.334V270.647H921.271H912.589V200.903H903.844V183.415H895.099V165.928H886.354V174.671H877.61V192.159H868.865V200.903H860.12V349.135H851.375V113.255Z" fill="#314A46"/>
<path d="M921.334 270.647H921.271V174.671H930.079V113.464L851.375 113.255V349.135H860.12V200.903H868.865V192.159H877.61V174.671H886.354V165.927H895.099V183.415H903.844V200.903H912.589V270.647H921.334ZM921.334 270.647H930.079V349.135H921.334V270.647Z" stroke="#314A46" stroke-width="0.971603"/>
<rect x="629" y="231" width="8.74487" height="8.74399" fill="#FAFF15"/>
<path d="M975.879 263.777V232.208H978.607V238.638H985.429V244.874H991.665V257.151H1010.57V250.979H1016.42V263.777H1010.57V289.499H1004.33V263.777H985.039V289.499H978.997V263.777H975.879Z" fill="black" stroke="black" stroke-width="0.389761"/>
<path d="M1067.67 244.614V238.443H994.59V256.761H1003.92V250.784H1010.33H1048.24V244.614H1060.68H1067.67Z" fill="#122132" stroke="#122132" stroke-width="0.389761"/>
<path d="M1067.67 225.777H978.996V231.818H985.817V238.249H1067.67V225.777Z" fill="#182738" stroke="#182738" stroke-width="0.389761"/>
<path d="M971.98 213.11V206.484H1000.04V212.915L971.98 213.11Z" fill="#26733D" stroke="#26733D" stroke-width="0.389761"/>
<path d="M975.879 225.582V213.305H1016.42V225.215L975.879 225.582Z" fill="#206234" stroke="#206234" stroke-width="0.389761"/>
<path d="M975.879 232.013V225.582H978.802V232.013H985.623V238.443H994.199V244.679H985.623V238.443H978.802V232.013H975.879Z" fill="#26733D"/>
<path d="M978.802 232.013H975.879V225.582H978.802V232.013ZM978.802 232.013V238.443H985.623M978.802 232.013H985.623V238.443M985.623 238.443V244.679H994.199V238.443H985.623Z" stroke="#26733D" stroke-width="0.389761"/>
<path d="M1010.18 213.11V206.484H1019.14V212.915L1010.18 213.11Z" fill="#26733D" stroke="#26733D" stroke-width="0.389761"/>
<path d="M1023.82 162.249H967.499V175.695H956V181.541H1035.71V175.695H1023.82V162.249Z" fill="#26733D" stroke="#26733D" stroke-width="0.389761"/>
<path d="M970.422 181.736H1021.09V206.484H970.422V181.736Z" fill="black"/>
<rect x="1005.11" y="206.484" width="5.06714" height="6.6256" fill="black"/>
<rect x="1000.05" y="206.484" width="5.06714" height="6.6256" fill="black"/>
<rect x="1014.47" y="189.336" width="5.45692" height="9.35379" fill="#FAFF15"/>
<rect x="997.316" y="189.336" width="5.45692" height="9.35379" fill="#FAFF15"/>
<rect x="970.812" y="168.29" width="3.11824" height="3.50767" fill="#FF9315"/>
<rect x="1018.36" y="164.003" width="3.11824" height="3.50767" fill="#FF9315"/>
<rect x="973.93" y="171.798" width="7.40583" height="3.50767" fill="#FF9315"/>
<rect x="1055.78" y="231.818" width="2.72846" height="10.1333" fill="#FF9315"/>
<rect x="1055" y="219.346" width="6.23649" height="6.23586" fill="#FF9315"/>
<rect x="1049.55" y="231.818" width="2.72846" height="10.1333" fill="#FF9315"/>
<rect x="1062.02" y="231.818" width="2.72846" height="10.1333" fill="#FF9315"/>
<path d="M978.801 289.694H985.232V301.581H978.801V289.694Z" fill="#26733D"/>
<path d="M1004.14 289.694H1010.76V301.581H1004.14V289.694Z" fill="#26733D"/>
<path d="M994.393 244.874H991.859V256.956H994.393V244.874Z" fill="white"/>
<path d="M1010.37 250.982L1004.14 250.974V256.956H1010.37V250.982Z" fill="white"/>
<path d="M1399.13 0H1346.86V17.488H1338.12V34.976H1329.38V61.2079H1373.1V104.72H1381.84V61.2079H1408.08V26.232H1399.13V0Z" fill="#314A46" stroke="#314A46" stroke-width="0.971603"/>
<rect x="1329.38" y="61.208" width="8.74487" height="8.74399" fill="white"/>
<rect x="1364.36" y="61.2075" width="8.74487" height="8.74399" fill="white"/>
<rect x="1399.33" y="61.2075" width="8.74487" height="8.74399" fill="white"/>
<rect x="1399.33" y="96.6001" width="8.74487" height="16.6552" fill="white"/>
<rect x="1355.61" y="92.4365" width="8.74487" height="20.819" fill="white"/>
<rect x="1329.38" y="104.511" width="8.74487" height="8.74399" fill="white"/>
<rect x="1381.84" y="104.511" width="8.74487" height="8.74399" fill="white"/>
<rect x="1364.36" y="104.511" width="17.4897" height="8.74399" fill="#6F1E27"/>
<rect x="1390.59" y="104.511" width="8.74487" height="8.74399" fill="#6F1E27"/>
<rect x="1408.08" y="104.511" width="17.4897" height="8.74399" fill="#6F1E27"/>
<rect x="1425.57" y="96.6001" width="8.74487" height="8.74399" fill="#6F1E27"/>
<rect x="1381.84" y="61.208" width="8.74487" height="15.8225" fill="white"/>
<rect x="1346.86" y="61.208" width="8.74487" height="22.0682" fill="white"/>
<path d="M1329.38 113.255L1408.08 113.464V174.671H1399.27V270.647H1399.33H1408.08V349.135H1399.33V270.647H1399.27H1390.59V200.903H1381.84V183.415H1373.1V165.928H1364.35V174.671H1355.61V192.159H1346.86V200.903H1338.12V349.135H1329.38V113.255Z" fill="#314A46"/>
<path d="M1399.33 270.647H1399.27V174.671H1408.08V113.464L1329.38 113.255V349.135H1338.12V200.903H1346.86V192.159H1355.61V174.671H1364.35V165.927H1373.1V183.415H1381.84V200.903H1390.59V270.647H1399.33ZM1399.33 270.647H1408.08V349.135H1399.33V270.647Z" stroke="#314A46" stroke-width="0.971603"/>
<rect x="1140" y="231" width="8.74487" height="8.74399" fill="#FAFF15"/>
<path d="M1453.88 263.777V232.208H1456.61V238.638H1463.43V244.874H1469.67V257.151H1488.57V250.979H1494.42V263.777H1488.57V289.499H1482.33V263.777H1463.04V289.499H1457V263.777H1453.88Z" fill="black" stroke="black" stroke-width="0.389761"/>
<path d="M1545.67 244.614V238.443H1472.59V256.761H1481.92V250.784H1488.33H1526.24V244.614H1538.68H1545.67Z" fill="#122132" stroke="#122132" stroke-width="0.389761"/>
<path d="M1545.67 225.777H1457V231.818H1463.82V238.249H1545.67V225.777Z" fill="#182738" stroke="#182738" stroke-width="0.389761"/>
<path d="M1449.98 213.11V206.484H1478.04V212.915L1449.98 213.11Z" fill="#26733D" stroke="#26733D" stroke-width="0.389761"/>
<path d="M1453.88 225.582V213.305H1494.42V225.215L1453.88 225.582Z" fill="#206234" stroke="#206234" stroke-width="0.389761"/>
<path d="M1453.88 232.013V225.582H1456.8V232.013H1463.62V238.443H1472.2V244.679H1463.62V238.443H1456.8V232.013H1453.88Z" fill="#26733D"/>
<path d="M1456.8 232.013H1453.88V225.582H1456.8V232.013ZM1456.8 232.013V238.443H1463.62M1456.8 232.013H1463.62V238.443M1463.62 238.443V244.679H1472.2V238.443H1463.62Z" stroke="#26733D" stroke-width="0.389761"/>
<path d="M1488.18 213.11V206.484H1497.14V212.915L1488.18 213.11Z" fill="#26733D" stroke="#26733D" stroke-width="0.389761"/>
<path d="M1501.82 162.249H1445.5V175.695H1434V181.541H1513.71V175.695H1501.82V162.249Z" fill="#26733D" stroke="#26733D" stroke-width="0.389761"/>
<path d="M1448.42 181.736H1499.09V206.484H1448.42V181.736Z" fill="black"/>
<rect x="1483.11" y="206.484" width="5.06714" height="6.6256" fill="black"/>
<rect x="1478.05" y="206.484" width="5.06714" height="6.6256" fill="black"/>
<rect x="1492.47" y="189.336" width="5.45692" height="9.35379" fill="#FAFF15"/>
<rect x="1475.32" y="189.336" width="5.45692" height="9.35379" fill="#FAFF15"/>
<rect x="1448.81" y="168.29" width="3.11824" height="3.50767" fill="#FF9315"/>
<rect x="1496.36" y="164.003" width="3.11824" height="3.50767" fill="#FF9315"/>
<rect x="1451.93" y="171.798" width="7.40583" height="3.50767" fill="#FF9315"/>
<rect x="1533.78" y="231.818" width="2.72846" height="10.1333" fill="#FF9315"/>
<rect x="1533" y="219.346" width="6.23649" height="6.23586" fill="#FF9315"/>
<rect x="1527.55" y="231.818" width="2.72846" height="10.1333" fill="#FF9315"/>
<rect x="1540.02" y="231.818" width="2.72846" height="10.1333" fill="#FF9315"/>
<path d="M1456.8 289.694H1463.23V301.581H1456.8V289.694Z" fill="#26733D"/>
<path d="M1482.14 289.694H1488.76V301.581H1482.14V289.694Z" fill="#26733D"/>
<path d="M1472.39 244.874H1469.86V256.956H1472.39V244.874Z" fill="white"/>
<path d="M1488.37 250.982L1482.14 250.974V256.956H1488.37V250.982Z" fill="white"/>
<path d="M1877.13 0H1824.86V17.488H1816.12V34.976H1807.38V61.2079H1851.1V104.72H1859.84V61.2079H1886.08V26.232H1877.13V0Z" fill="#314A46" stroke="#314A46" stroke-width="0.971603"/>
<rect x="1807.38" y="61.208" width="8.74487" height="8.74399" fill="white"/>
<rect x="1842.36" y="61.2075" width="8.74487" height="8.74399" fill="white"/>
<rect x="1877.33" y="61.2075" width="8.74487" height="8.74399" fill="white"/>
<rect x="1877.33" y="96.6001" width="8.74487" height="16.6552" fill="white"/>
<rect x="1833.61" y="92.4365" width="8.74487" height="20.819" fill="white"/>
<rect x="1807.38" y="104.511" width="8.74487" height="8.74399" fill="white"/>
<rect x="1859.84" y="104.511" width="8.74487" height="8.74399" fill="white"/>
<rect x="1842.36" y="104.511" width="17.4897" height="8.74399" fill="#6F1E27"/>
<rect x="1868.59" y="104.511" width="8.74487" height="8.74399" fill="#6F1E27"/>
<rect x="1886.08" y="104.511" width="17.4897" height="8.74399" fill="#6F1E27"/>
<rect x="1903.57" y="96.6001" width="8.74487" height="8.74399" fill="#6F1E27"/>
<rect x="1859.84" y="61.208" width="8.74487" height="15.8225" fill="white"/>
<rect x="1824.86" y="61.208" width="8.74487" height="22.0682" fill="white"/>
<path d="M1807.38 113.255L1886.08 113.464V174.671H1877.27V270.647H1877.33H1886.08V349.135H1877.33V270.647H1877.27H1868.59V200.903H1859.84V183.415H1851.1V165.928H1842.35V174.671H1833.61V192.159H1824.86V200.903H1816.12V349.135H1807.38V113.255Z" fill="#314A46"/>
<path d="M1877.33 270.647H1877.27V174.671H1886.08V113.464L1807.38 113.255V349.135H1816.12V200.903H1824.86V192.159H1833.61V174.671H1842.35V165.927H1851.1V183.415H1859.84V200.903H1868.59V270.647H1877.33ZM1877.33 270.647H1886.08V349.135H1877.33V270.647Z" stroke="#314A46" stroke-width="0.971603"/>
<rect x="1653" y="231" width="8.74487" height="8.74399" fill="#FAFF15"/>
<path d="M1931.88 263.777V232.208H1934.61V238.638H1941.43V244.874H1947.67V257.151H1966.57V250.979H1972.42V263.777H1966.57V289.499H1960.33V263.777H1941.04V289.499H1935V263.777H1931.88Z" fill="black" stroke="black" stroke-width="0.389761"/>
<path d="M2023.67 244.614V238.443H1950.59V256.761H1959.92V250.784H1966.33H2004.24V244.614H2016.68H2023.67Z" fill="#122132" stroke="#122132" stroke-width="0.389761"/>
<path d="M2023.67 225.777H1935V231.818H1941.82V238.249H2023.67V225.777Z" fill="#182738" stroke="#182738" stroke-width="0.389761"/>
<path d="M1927.98 213.11V206.484H1956.04V212.915L1927.98 213.11Z" fill="#26733D" stroke="#26733D" stroke-width="0.389761"/>
<path d="M1931.88 225.582V213.305H1972.42V225.215L1931.88 225.582Z" fill="#206234" stroke="#206234" stroke-width="0.389761"/>
<path d="M1931.88 232.013V225.582H1934.8V232.013H1941.62V238.443H1950.2V244.679H1941.62V238.443H1934.8V232.013H1931.88Z" fill="#26733D"/>
<path d="M1934.8 232.013H1931.88V225.582H1934.8V232.013ZM1934.8 232.013V238.443H1941.62M1934.8 232.013H1941.62V238.443M1941.62 238.443V244.679H1950.2V238.443H1941.62Z" stroke="#26733D" stroke-width="0.389761"/>
<path d="M1966.18 213.11V206.484H1975.14V212.915L1966.18 213.11Z" fill="#26733D" stroke="#26733D" stroke-width="0.389761"/>
<path d="M1979.82 162.249H1923.5V175.695H1912V181.541H1991.71V175.695H1979.82V162.249Z" fill="#26733D" stroke="#26733D" stroke-width="0.389761"/>
<path d="M1926.42 181.736H1977.09V206.484H1926.42V181.736Z" fill="black"/>
<rect x="1961.11" y="206.484" width="5.06714" height="6.6256" fill="black"/>
<rect x="1956.05" y="206.484" width="5.06714" height="6.6256" fill="black"/>
<rect x="1970.47" y="189.336" width="5.45692" height="9.35379" fill="#FAFF15"/>
<rect x="1953.32" y="189.336" width="5.45692" height="9.35379" fill="#FAFF15"/>
<rect x="1926.81" y="168.29" width="3.11824" height="3.50767" fill="#FF9315"/>
<rect x="1974.36" y="164.003" width="3.11824" height="3.50767" fill="#FF9315"/>
<rect x="1929.93" y="171.798" width="7.40583" height="3.50767" fill="#FF9315"/>
<rect x="2011.78" y="231.818" width="2.72846" height="10.1333" fill="#FF9315"/>
<rect x="2011" y="219.346" width="6.23649" height="6.23586" fill="#FF9315"/>
<rect x="2005.55" y="231.818" width="2.72846" height="10.1333" fill="#FF9315"/>
<rect x="2018.02" y="231.818" width="2.72846" height="10.1333" fill="#FF9315"/>
<path d="M1934.8 289.694H1941.23V301.581H1934.8V289.694Z" fill="#26733D"/>
<path d="M1960.14 289.694H1966.76V301.581H1960.14V289.694Z" fill="#26733D"/>
<path d="M1950.39 244.874H1947.86V256.956H1950.39V244.874Z" fill="white"/>
<path d="M1966.37 250.982L1960.14 250.974V256.956H1966.37V250.982Z" fill="white"/>
<path d="M2355.13 0H2302.86V17.488H2294.12V34.976H2285.38V61.2079H2329.1V104.72H2337.84V61.2079H2364.08V26.232H2355.13V0Z" fill="#314A46" stroke="#314A46" stroke-width="0.971603"/>
<rect x="2285.38" y="61.208" width="8.74487" height="8.74399" fill="white"/>
<rect x="2320.36" y="61.2075" width="8.74487" height="8.74399" fill="white"/>
<rect x="2355.33" y="61.2075" width="8.74487" height="8.74399" fill="white"/>
<rect x="2355.33" y="96.6001" width="8.74487" height="16.6552" fill="white"/>
<rect x="2311.61" y="92.4365" width="8.74487" height="20.819" fill="white"/>
<rect x="2285.38" y="104.511" width="8.74487" height="8.74399" fill="white"/>
<rect x="2337.84" y="104.511" width="8.74487" height="8.74399" fill="white"/>
<rect x="2320.36" y="104.511" width="17.4897" height="8.74399" fill="#6F1E27"/>
<rect x="2346.59" y="104.511" width="8.74487" height="8.74399" fill="#6F1E27"/>
<rect x="2364.08" y="104.511" width="17.4897" height="8.74399" fill="#6F1E27"/>
<rect x="2381.57" y="96.6001" width="8.74487" height="8.74399" fill="#6F1E27"/>
<rect x="2337.84" y="61.208" width="8.74487" height="15.8225" fill="white"/>
<rect x="2302.86" y="61.208" width="8.74487" height="22.0682" fill="white"/>
<path d="M2285.38 113.255L2364.08 113.464V174.671H2355.27V270.647H2355.33H2364.08V349.135H2355.33V270.647H2355.27H2346.59V200.903H2337.84V183.415H2329.1V165.928H2320.35V174.671H2311.61V192.159H2302.86V200.903H2294.12V349.135H2285.38V113.255Z" fill="#314A46"/>
<path d="M2355.33 270.647H2355.27V174.671H2364.08V113.464L2285.38 113.255V349.135H2294.12V200.903H2302.86V192.159H2311.61V174.671H2320.35V165.927H2329.1V183.415H2337.84V200.903H2346.59V270.647H2355.33ZM2355.33 270.647H2364.08V349.135H2355.33V270.647Z" stroke="#314A46" stroke-width="0.971603"/>
<rect x="2187" y="231" width="8.74487" height="8.74399" fill="#FAFF15"/>
<path d="M2934.88 263.777V232.208H2937.61V238.638H2944.43V244.874H2950.67V257.151H2969.57V250.979H2975.42V263.777H2969.57V289.499H2963.33V263.777H2944.04V289.499H2938V263.777H2934.88Z" fill="black" stroke="black" stroke-width="0.389761"/>
<path d="M3026.67 244.614V238.443H2953.59V256.761H2962.92V250.784H2969.33H3007.24V244.614H3019.68H3026.67Z" fill="#122132" stroke="#122132" stroke-width="0.389761"/>
<path d="M3026.67 225.777H2938V231.818H2944.82V238.249H3026.67V225.777Z" fill="#182738" stroke="#182738" stroke-width="0.389761"/>
<path d="M2930.98 213.11V206.484H2959.04V212.915L2930.98 213.11Z" fill="#26733D" stroke="#26733D" stroke-width="0.389761"/>
<path d="M2934.88 225.582V213.305H2975.42V225.215L2934.88 225.582Z" fill="#206234" stroke="#206234" stroke-width="0.389761"/>
<path d="M2934.88 232.013V225.582H2937.8V232.013H2944.62V238.443H2953.2V244.679H2944.62V238.443H2937.8V232.013H2934.88Z" fill="#26733D"/>
<path d="M2937.8 232.013H2934.88V225.582H2937.8V232.013ZM2937.8 232.013V238.443H2944.62M2937.8 232.013H2944.62V238.443M2944.62 238.443V244.679H2953.2V238.443H2944.62Z" stroke="#26733D" stroke-width="0.389761"/>
<path d="M2969.18 213.11V206.484H2978.14V212.915L2969.18 213.11Z" fill="#26733D" stroke="#26733D" stroke-width="0.389761"/>
<path d="M2982.82 162.249H2926.5V175.695H2915V181.541H2994.71V175.695H2982.82V162.249Z" fill="#26733D" stroke="#26733D" stroke-width="0.389761"/>
<path d="M2929.42 181.736H2980.09V206.484H2929.42V181.736Z" fill="black"/>
<rect x="2964.11" y="206.484" width="5.06714" height="6.6256" fill="black"/>
<rect x="2959.05" y="206.484" width="5.06714" height="6.6256" fill="black"/>
<rect x="2973.47" y="189.336" width="5.45692" height="9.35379" fill="#FAFF15"/>
<rect x="2956.32" y="189.336" width="5.45692" height="9.35379" fill="#FAFF15"/>
<rect x="2929.81" y="168.29" width="3.11824" height="3.50767" fill="#FF9315"/>
<rect x="2977.36" y="164.003" width="3.11824" height="3.50767" fill="#FF9315"/>
<rect x="2932.93" y="171.798" width="7.40583" height="3.50767" fill="#FF9315"/>
<rect x="3014.78" y="231.818" width="2.72846" height="10.1333" fill="#FF9315"/>
<rect x="3014" y="219.346" width="6.23649" height="6.23586" fill="#FF9315"/>
<rect x="3008.55" y="231.818" width="2.72846" height="10.1333" fill="#FF9315"/>
<rect x="3021.02" y="231.818" width="2.72846" height="10.1333" fill="#FF9315"/>
<path d="M2937.8 289.694H2944.23V301.581H2937.8V289.694Z" fill="#26733D"/>
<path d="M2963.14 289.694H2969.76V301.581H2963.14V289.694Z" fill="#26733D"/>
<path d="M2953.39 244.874H2950.86V256.956H2953.39V244.874Z" fill="white"/>
<path d="M2969.37 250.982L2963.14 250.974V256.956H2969.37V250.982Z" fill="white"/>
<path d="M3358.13 0H3305.86V17.488H3297.12V34.976H3288.38V61.2079H3332.1V104.72H3340.84V61.2079H3367.08V26.232H3358.13V0Z" fill="#314A46" stroke="#314A46" stroke-width="0.971603"/>
<rect x="3288.38" y="61.208" width="8.74487" height="8.74399" fill="white"/>
<rect x="3323.36" y="61.2075" width="8.74487" height="8.74399" fill="white"/>
<rect x="3358.33" y="61.2075" width="8.74487" height="8.74399" fill="white"/>
<rect x="3358.33" y="96.6001" width="8.74487" height="16.6552" fill="white"/>
<rect x="3314.61" y="92.4365" width="8.74487" height="20.819" fill="white"/>
<rect x="3288.38" y="104.511" width="8.74487" height="8.74399" fill="white"/>
<rect x="3340.84" y="104.511" width="8.74487" height="8.74399" fill="white"/>
<rect x="3323.36" y="104.511" width="17.4897" height="8.74399" fill="#6F1E27"/>
<rect x="3349.59" y="104.511" width="8.74487" height="8.74399" fill="#6F1E27"/>
<rect x="3367.08" y="104.511" width="17.4897" height="8.74399" fill="#6F1E27"/>
<rect x="3384.57" y="96.6001" width="8.74487" height="8.74399" fill="#6F1E27"/>
<rect x="3340.84" y="61.208" width="8.74487" height="15.8225" fill="white"/>
<rect x="3305.86" y="61.208" width="8.74487" height="22.0682" fill="white"/>
<path d="M3288.38 113.255L3367.08 113.464V174.671H3358.27V270.647H3358.33H3367.08V349.135H3358.33V270.647H3358.27H3349.59V200.903H3340.84V183.415H3332.1V165.928H3323.35V174.671H3314.61V192.159H3305.86V200.903H3297.12V349.135H3288.38V113.255Z" fill="#314A46"/>
<path d="M3358.33 270.647H3358.27V174.671H3367.08V113.464L3288.38 113.255V349.135H3297.12V200.903H3305.86V192.159H3314.61V174.671H3323.35V165.927H3332.1V183.415H3340.84V200.903H3349.59V270.647H3358.33ZM3358.33 270.647H3367.08V349.135H3358.33V270.647Z" stroke="#314A46" stroke-width="0.971603"/>
<rect x="3284" y="231" width="8.74487" height="8.74399" fill="#FAFF15"/>
<path d="M3412.88 263.777V232.208H3415.61V238.638H3422.43V244.874H3428.67V257.151H3447.57V250.979H3453.42V263.777H3447.57V289.499H3441.33V263.777H3422.04V289.499H3416V263.777H3412.88Z" fill="black" stroke="black" stroke-width="0.389761"/>
<path d="M3504.67 244.614V238.443H3431.59V256.761H3440.92V250.784H3447.33H3485.24V244.614H3497.68H3504.67Z" fill="#122132" stroke="#122132" stroke-width="0.389761"/>
<path d="M3504.67 225.777H3416V231.818H3422.82V238.249H3504.67V225.777Z" fill="#182738" stroke="#182738" stroke-width="0.389761"/>
<path d="M3408.98 213.11V206.484H3437.04V212.915L3408.98 213.11Z" fill="#26733D" stroke="#26733D" stroke-width="0.389761"/>
<path d="M3412.88 225.582V213.305H3453.42V225.215L3412.88 225.582Z" fill="#206234" stroke="#206234" stroke-width="0.389761"/>
<path d="M3412.88 232.013V225.582H3415.8V232.013H3422.62V238.443H3431.2V244.679H3422.62V238.443H3415.8V232.013H3412.88Z" fill="#26733D"/>
<path d="M3415.8 232.013H3412.88V225.582H3415.8V232.013ZM3415.8 232.013V238.443H3422.62M3415.8 232.013H3422.62V238.443M3422.62 238.443V244.679H3431.2V238.443H3422.62Z" stroke="#26733D" stroke-width="0.389761"/>
<path d="M3447.18 213.11V206.484H3456.14V212.915L3447.18 213.11Z" fill="#26733D" stroke="#26733D" stroke-width="0.389761"/>
<path d="M3460.82 162.249H3404.5V175.695H3393V181.541H3472.71V175.695H3460.82V162.249Z" fill="#26733D" stroke="#26733D" stroke-width="0.389761"/>
<path d="M3407.42 181.736H3458.09V206.484H3407.42V181.736Z" fill="black"/>
<rect x="3442.11" y="206.484" width="5.06714" height="6.6256" fill="black"/>
<rect x="3437.05" y="206.484" width="5.06714" height="6.6256" fill="black"/>
<rect x="3451.47" y="189.336" width="5.45692" height="9.35379" fill="#FAFF15"/>
<rect x="3434.32" y="189.336" width="5.45692" height="9.35379" fill="#FAFF15"/>
<rect x="3407.81" y="168.29" width="3.11824" height="3.50767" fill="#FF9315"/>
<rect x="3455.36" y="164.003" width="3.11824" height="3.50767" fill="#FF9315"/>
<rect x="3410.93" y="171.798" width="7.40583" height="3.50767" fill="#FF9315"/>
<rect x="3492.78" y="231.818" width="2.72846" height="10.1333" fill="#FF9315"/>
<rect x="3492" y="219.346" width="6.23649" height="6.23586" fill="#FF9315"/>
<rect x="3486.55" y="231.818" width="2.72846" height="10.1333" fill="#FF9315"/>
<rect x="3499.02" y="231.818" width="2.72846" height="10.1333" fill="#FF9315"/>
<path d="M3415.8 289.694H3422.23V301.581H3415.8V289.694Z" fill="#26733D"/>
<path d="M3441.14 289.694H3447.76V301.581H3441.14V289.694Z" fill="#26733D"/>
<path d="M3431.39 244.874H3428.86V256.956H3431.39V244.874Z" fill="white"/>
<path d="M3447.37 250.982L3441.14 250.974V256.956H3447.37V250.982Z" fill="white"/>
<path d="M3836.13 0H3783.86V17.488H3775.12V34.976H3766.38V61.2079H3810.1V104.72H3818.84V61.2079H3845.08V26.232H3836.13V0Z" fill="#314A46" stroke="#314A46" stroke-width="0.971603"/>
<rect x="3766.38" y="61.208" width="8.74487" height="8.74399" fill="white"/>
<rect x="3801.36" y="61.2075" width="8.74487" height="8.74399" fill="white"/>
<rect x="3836.33" y="61.2075" width="8.74487" height="8.74399" fill="white"/>
<rect x="3836.33" y="96.6001" width="8.74487" height="16.6552" fill="white"/>
<rect x="3792.61" y="92.4365" width="8.74487" height="20.819" fill="white"/>
<rect x="3766.38" y="104.511" width="8.74487" height="8.74399" fill="white"/>
<rect x="3818.84" y="104.511" width="8.74487" height="8.74399" fill="white"/>
<rect x="3801.36" y="104.511" width="17.4897" height="8.74399" fill="#6F1E27"/>
<rect x="3827.59" y="104.511" width="8.74487" height="8.74399" fill="#6F1E27"/>
<rect x="3845.08" y="104.511" width="17.4897" height="8.74399" fill="#6F1E27"/>
<rect x="3862.57" y="96.6001" width="8.74487" height="8.74399" fill="#6F1E27"/>
<rect x="3818.84" y="61.208" width="8.74487" height="15.8225" fill="white"/>
<rect x="3783.86" y="61.208" width="8.74487" height="22.0682" fill="white"/>
<path d="M3766.38 113.255L3845.08 113.464V174.671H3836.27V270.647H3836.33H3845.08V349.135H3836.33V270.647H3836.27H3827.59V200.903H3818.84V183.415H3810.1V165.928H3801.35V174.671H3792.61V192.159H3783.86V200.903H3775.12V349.135H3766.38V113.255Z" fill="#314A46"/>
<path d="M3836.33 270.647H3836.27V174.671H3845.08V113.464L3766.38 113.255V349.135H3775.12V200.903H3783.86V192.159H3792.61V174.671H3801.35V165.927H3810.1V183.415H3818.84V200.903H3827.59V270.647H3836.33ZM3836.33 270.647H3845.08V349.135H3836.33V270.647Z" stroke="#314A46" stroke-width="0.971603"/>
<rect x="3762" y="231" width="8.74487" height="8.74399" fill="#111111"/>
<rect x="3771" y="206" width="8.74487" height="8.74399" fill="#111111"/>
<path d="M3890.88 263.777V232.208H3893.61V238.638H3900.43V244.874H3906.67V257.151H3925.57V250.979H3931.42V263.777H3925.57V289.499H3919.33V263.777H3900.04V289.499H3894V263.777H3890.88Z" fill="black" stroke="black" stroke-width="0.389761"/>
<path d="M3982.67 244.614V238.443H3909.59V256.761H3918.92V250.784H3925.33H3963.24V244.614H3975.68H3982.67Z" fill="#122132" stroke="#122132" stroke-width="0.389761"/>
<path d="M3982.67 225.777H3894V231.818H3900.82V238.249H3982.67V225.777Z" fill="#182738" stroke="#182738" stroke-width="0.389761"/>
<path d="M3886.98 213.11V206.484H3915.04V212.915L3886.98 213.11Z" fill="#26733D" stroke="#26733D" stroke-width="0.389761"/>
<path d="M3890.88 225.582V213.305H3931.42V225.215L3890.88 225.582Z" fill="#206234" stroke="#206234" stroke-width="0.389761"/>
<path d="M3890.88 232.013V225.582H3893.8V232.013H3900.62V238.443H3909.2V244.679H3900.62V238.443H3893.8V232.013H3890.88Z" fill="#26733D"/>
<path d="M3893.8 232.013H3890.88V225.582H3893.8V232.013ZM3893.8 232.013V238.443H3900.62M3893.8 232.013H3900.62V238.443M3900.62 238.443V244.679H3909.2V238.443H3900.62Z" stroke="#26733D" stroke-width="0.389761"/>
<path d="M3925.18 213.11V206.484H3934.14V212.915L3925.18 213.11Z" fill="#26733D" stroke="#26733D" stroke-width="0.389761"/>
<path d="M3938.82 162.249H3882.5V175.695H3871V181.541H3950.71V175.695H3938.82V162.249Z" fill="#26733D" stroke="#26733D" stroke-width="0.389761"/>
<path d="M3885.42 181.736H3936.09V206.484H3885.42V181.736Z" fill="black"/>
<rect x="3920.11" y="206.484" width="5.06714" height="6.6256" fill="black"/>
<rect x="3915.05" y="206.484" width="5.06714" height="6.6256" fill="black"/>
<rect x="3929.47" y="189.336" width="5.45692" height="9.35379" fill="#FAFF15"/>
<rect x="3912.32" y="189.336" width="5.45692" height="9.35379" fill="#FAFF15"/>
<rect x="3885.81" y="168.29" width="3.11824" height="3.50767" fill="#FF9315"/>
<rect x="3933.36" y="164.003" width="3.11824" height="3.50767" fill="#FF9315"/>
<rect x="3888.93" y="171.798" width="7.40583" height="3.50767" fill="#FF9315"/>
<rect x="3970.78" y="231.818" width="2.72846" height="10.1333" fill="#FF9315"/>
<rect x="3970" y="219.346" width="6.23649" height="6.23586" fill="#FF9315"/>
<rect x="3964.55" y="231.818" width="2.72846" height="10.1333" fill="#FF9315"/>
<rect x="3977.02" y="231.818" width="2.72846" height="10.1333" fill="#FF9315"/>
<path d="M3893.8 289.694H3900.23V301.581H3893.8V289.694Z" fill="#26733D"/>
<path d="M3919.14 289.694H3925.76V301.581H3919.14V289.694Z" fill="#26733D"/>
<path d="M3909.39 244.874H3906.86V256.956H3909.39V244.874Z" fill="white"/>
<path d="M3925.37 250.982L3919.14 250.974V256.956H3925.37V250.982Z" fill="white"/>
<path d="M4313.75 0H4261.49V17.488H4252.74V34.976H4244V61.2079H4287.72V104.72H4296.47V61.2079H4322.7V26.232H4313.75V0Z" fill="#314A46" stroke="#314A46" stroke-width="0.971603"/>
<rect x="4244" y="61.208" width="8.74487" height="8.74399" fill="white"/>
<rect x="4278.98" y="61.2075" width="8.74487" height="8.74399" fill="white"/>
<rect x="4313.96" y="61.2075" width="8.74487" height="8.74399" fill="white"/>
<rect x="4313.96" y="96.6001" width="8.74487" height="16.6552" fill="white"/>
<rect x="4270.23" y="92.4365" width="8.74487" height="20.819" fill="white"/>
<rect x="4244" y="104.511" width="8.74487" height="8.74399" fill="white"/>
<rect x="4296.47" y="104.511" width="8.74487" height="8.74399" fill="white"/>
<rect x="4278.98" y="104.511" width="17.4897" height="8.74399" fill="#6F1E27"/>
<rect x="4305.21" y="104.511" width="8.74487" height="8.74399" fill="#6F1E27"/>
<rect x="4322.7" y="104.511" width="17.4897" height="8.74399" fill="#6F1E27"/>
<rect x="4340.2" y="96.6001" width="8.74487" height="8.74399" fill="#6F1E27"/>
<rect x="4296.47" y="61.208" width="8.74487" height="15.8225" fill="white"/>
<rect x="4261.49" y="61.208" width="8.74487" height="22.0682" fill="white"/>
<path d="M4244 113.255L4322.7 113.464V174.671H4313.9V270.647H4313.96H4322.7V349.135H4313.96V270.647H4313.9H4305.21V200.903H4296.47V183.415H4287.72V165.928H4278.98V174.671H4270.23V192.159H4261.49V200.903H4252.74V349.135H4244V113.255Z" fill="#314A46"/>
<path d="M4313.96 270.647H4313.9V174.671H4322.7V113.464L4244 113.255V349.135H4252.74V200.903H4261.49V192.159H4270.23V174.671H4278.98V165.927H4287.72V183.415H4296.47V200.903H4305.21V270.647H4313.96ZM4313.96 270.647H4322.7V349.135H4313.96V270.647Z" stroke="#314A46" stroke-width="0.971603"/>
<rect x="4240" y="208" width="8.74487" height="8.74399" fill="#111111"/>
<rect x="4297" y="145" width="8.74487" height="8.74399" fill="#111111"/>
<rect x="4279" y="130" width="8.74487" height="8.74399" fill="#111111"/>
<rect x="4253" y="171" width="8.74487" height="8.74399" fill="#111111"/>
<rect x="4315" y="116" width="8.74487" height="8.74399" fill="#111111"/>
<path d="M4252 17H4261V25.744H4252V17Z" fill="#111111"/>
<rect x="4288" y="38" width="8.74487" height="8.74399" fill="#111111"/>
<rect x="4270" width="8.74487" height="8.74399" fill="#111111"/>
<rect x="4252" y="143" width="8.74487" height="8.74399" fill="#111111"/>
<rect x="4306" y="190" width="8.74487" height="8.74399" fill="#111111"/>
<rect x="4240" y="231" width="8.74487" height="8.74399" fill="#111111"/>
<path d="M4368.88 263.777V232.208H4371.61V238.638H4378.43V244.874H4384.67V257.151H4403.57V250.979H4409.42V263.777H4403.57V289.499H4397.33V263.777H4378.04V289.499H4372V263.777H4368.88Z" fill="black" stroke="black" stroke-width="0.389761"/>
<path d="M4460.67 244.614V238.443H4387.59V256.761H4396.92V250.784H4403.33H4441.24V244.614H4453.68H4460.67Z" fill="#122132" stroke="#122132" stroke-width="0.389761"/>
<path d="M4460.67 225.777H4372V231.818H4378.82V238.249H4460.67V225.777Z" fill="#182738" stroke="#182738" stroke-width="0.389761"/>
<path d="M4364.98 213.11V206.484H4393.04V212.915L4364.98 213.11Z" fill="#26733D" stroke="#26733D" stroke-width="0.389761"/>
<path d="M4368.88 225.582V213.305H4409.42V225.215L4368.88 225.582Z" fill="#206234" stroke="#206234" stroke-width="0.389761"/>
<path d="M4368.88 232.013V225.582H4371.8V232.013H4378.62V238.443H4387.2V244.679H4378.62V238.443H4371.8V232.013H4368.88Z" fill="#26733D"/>
<path d="M4371.8 232.013H4368.88V225.582H4371.8V232.013ZM4371.8 232.013V238.443H4378.62M4371.8 232.013H4378.62V238.443M4378.62 238.443V244.679H4387.2V238.443H4378.62Z" stroke="#26733D" stroke-width="0.389761"/>
<path d="M4403.18 213.11V206.484H4412.14V212.915L4403.18 213.11Z" fill="#26733D" stroke="#26733D" stroke-width="0.389761"/>
<path d="M4416.82 162.249H4360.5V175.695H4349V181.541H4428.71V175.695H4416.82V162.249Z" fill="#26733D" stroke="#26733D" stroke-width="0.389761"/>
<path d="M4363.42 181.736H4414.09V206.484H4363.42V181.736Z" fill="black"/>
<rect x="4398.11" y="206.484" width="5.06714" height="6.6256" fill="black"/>
<rect x="4393.05" y="206.484" width="5.06714" height="6.6256" fill="black"/>
<rect x="4407.47" y="189.336" width="5.45692" height="9.35379" fill="#FAFF15"/>
<rect x="4390.32" y="189.336" width="5.45692" height="9.35379" fill="#FAFF15"/>
<rect x="4363.81" y="168.29" width="3.11824" height="3.50767" fill="#FF9315"/>
<rect x="4411.36" y="164.003" width="3.11824" height="3.50767" fill="#FF9315"/>
<rect x="4366.93" y="171.798" width="7.40583" height="3.50767" fill="#FF9315"/>
<rect x="4448.78" y="231.818" width="2.72846" height="10.1333" fill="#FF9315"/>
<rect x="4448" y="219.346" width="6.23649" height="6.23586" fill="#FF9315"/>
<rect x="4442.55" y="231.818" width="2.72846" height="10.1333" fill="#FF9315"/>
<rect x="4455.02" y="231.818" width="2.72846" height="10.1333" fill="#FF9315"/>
<path d="M4371.8 289.694H4378.23V301.581H4371.8V289.694Z" fill="#26733D"/>
<path d="M4397.14 289.694H4403.76V301.581H4397.14V289.694Z" fill="#26733D"/>
<path d="M4387.39 244.874H4384.86V256.956H4387.39V244.874Z" fill="white"/>
<path d="M4403.37 250.982L4397.14 250.974V256.956H4403.37V250.982Z" fill="white"/>
<path d="M4791.75 0H4739.49V17.488H4730.74V34.976H4722V61.2079H4765.72V104.72H4774.47V61.2079H4800.7V26.232H4791.75V0Z" fill="#314A46" stroke="#314A46" stroke-width="0.971603"/>
<rect x="4722" y="61.208" width="8.74487" height="8.74399" fill="white"/>
<rect x="4756.98" y="61.2075" width="8.74487" height="8.74399" fill="white"/>
<rect x="4791.96" y="61.2075" width="8.74487" height="8.74399" fill="white"/>
<rect x="4791.96" y="96.6001" width="8.74487" height="16.6552" fill="white"/>
<rect x="4748.23" y="92.4365" width="8.74487" height="20.819" fill="white"/>
<rect x="4722" y="104.511" width="8.74487" height="8.74399" fill="white"/>
<rect x="4774.47" y="104.511" width="8.74487" height="8.74399" fill="white"/>
<rect x="4756.98" y="104.511" width="17.4897" height="8.74399" fill="#6F1E27"/>
<rect x="4783.21" y="104.511" width="8.74487" height="8.74399" fill="#6F1E27"/>
<rect x="4800.7" y="104.511" width="17.4897" height="8.74399" fill="#6F1E27"/>
<rect x="4818.2" y="96.6001" width="8.74487" height="8.74399" fill="#6F1E27"/>
<rect x="4774.47" y="61.208" width="8.74487" height="15.8225" fill="white"/>
<rect x="4739.49" y="61.208" width="8.74487" height="22.0682" fill="white"/>
<path d="M4722 113.255L4800.7 113.464V174.671H4791.9V270.647H4791.96H4800.7V349.135H4791.96V270.647H4791.9H4783.21V200.903H4774.47V183.415H4765.72V165.928H4756.98V174.671H4748.23V192.159H4739.49V200.903H4730.74V349.135H4722V113.255Z" fill="#314A46"/>
<path d="M4791.96 270.647H4791.9V174.671H4800.7V113.464L4722 113.255V349.135H4730.74V200.903H4739.49V192.159H4748.23V174.671H4756.98V165.927H4765.72V183.415H4774.47V200.903H4783.21V270.647H4791.96ZM4791.96 270.647H4800.7V349.135H4791.96V270.647Z" stroke="#314A46" stroke-width="0.971603"/>
<rect x="4718" y="208" width="8.74487" height="8.74399" fill="#111111"/>
<rect x="4775" y="145" width="8.74487" height="8.74399" fill="#111111"/>
<rect x="4757" y="130" width="8.74487" height="8.74399" fill="#111111"/>
<rect x="4731" y="171" width="8.74487" height="8.74399" fill="#111111"/>
<rect x="4793" y="116" width="8.74487" height="8.74399" fill="#111111"/>
<path d="M4730 17H4739V25.744H4730V17Z" fill="#111111"/>
<rect x="4766" y="38" width="8.74487" height="8.74399" fill="#111111"/>
<rect x="4748" width="8.74487" height="8.74399" fill="#111111"/>
<rect x="4730" y="143" width="8.74487" height="8.74399" fill="#111111"/>
<rect x="4784" y="190" width="8.74487" height="8.74399" fill="#111111"/>
<rect x="4718" y="231" width="8.74487" height="8.74399" fill="#111111"/>
<path d="M4846.88 263.777V232.208H4849.61V238.638H4856.43V244.874H4862.67V257.151H4881.57V250.979H4887.42V263.777H4881.57V289.499H4875.33V263.777H4856.04V289.499H4850V263.777H4846.88Z" fill="black" stroke="black" stroke-width="0.389761"/>
<path d="M4938.67 244.614V238.443H4865.59V256.761H4874.92V250.784H4881.33H4919.24V244.614H4931.68H4938.67Z" fill="#122132" stroke="#122132" stroke-width="0.389761"/>
<path d="M4938.67 225.777H4850V231.818H4856.82V238.249H4938.67V225.777Z" fill="#182738" stroke="#182738" stroke-width="0.389761"/>
<path d="M4842.98 213.11V206.484H4871.04V212.915L4842.98 213.11Z" fill="#26733D" stroke="#26733D" stroke-width="0.389761"/>
<path d="M4846.88 225.582V213.305H4887.42V225.215L4846.88 225.582Z" fill="#206234" stroke="#206234" stroke-width="0.389761"/>
<path d="M4846.88 232.013V225.582H4849.8V232.013H4856.62V238.443H4865.2V244.679H4856.62V238.443H4849.8V232.013H4846.88Z" fill="#26733D"/>
<path d="M4849.8 232.013H4846.88V225.582H4849.8V232.013ZM4849.8 232.013V238.443H4856.62M4849.8 232.013H4856.62V238.443M4856.62 238.443V244.679H4865.2V238.443H4856.62Z" stroke="#26733D" stroke-width="0.389761"/>
<path d="M4881.18 213.11V206.484H4890.14V212.915L4881.18 213.11Z" fill="#26733D" stroke="#26733D" stroke-width="0.389761"/>
<path d="M4894.82 162.249H4838.5V175.695H4827V181.541H4906.71V175.695H4894.82V162.249Z" fill="#26733D" stroke="#26733D" stroke-width="0.389761"/>
<path d="M4841.42 181.736H4892.09V206.484H4841.42V181.736Z" fill="black"/>
<rect x="4876.11" y="206.484" width="5.06714" height="6.6256" fill="black"/>
<rect x="4871.05" y="206.484" width="5.06714" height="6.6256" fill="black"/>
<rect x="4885.47" y="189.336" width="5.45692" height="9.35379" fill="#FAFF15"/>
<rect x="4868.32" y="189.336" width="5.45692" height="9.35379" fill="#FAFF15"/>
<rect x="4841.81" y="168.29" width="3.11824" height="3.50767" fill="#FF9315"/>
<rect x="4889.36" y="164.003" width="3.11824" height="3.50767" fill="#FF9315"/>
<rect x="4844.93" y="171.798" width="7.40583" height="3.50767" fill="#FF9315"/>
<rect x="4926.78" y="231.818" width="2.72846" height="10.1333" fill="#FF9315"/>
<rect x="4926" y="219.346" width="6.23649" height="6.23586" fill="#FF9315"/>
<rect x="4920.55" y="231.818" width="2.72846" height="10.1333" fill="#FF9315"/>
<rect x="4933.02" y="231.818" width="2.72846" height="10.1333" fill="#FF9315"/>
<path d="M4849.8 289.694H4856.23V301.581H4849.8V289.694Z" fill="#26733D"/>
<path d="M4875.14 289.694H4881.76V301.581H4875.14V289.694Z" fill="#26733D"/>
<path d="M4865.39 244.874H4862.86V256.956H4865.39V244.874Z" fill="white"/>
<path d="M4881.37 250.982L4875.14 250.974V256.956H4881.37V250.982Z" fill="white"/>
<path d="M5269.75 0H5217.49V17.488H5208.74V34.976H5200V61.2079H5243.72V104.72H5252.47V61.2079H5278.7V26.232H5269.75V0Z" fill="#314A46" stroke="#314A46" stroke-width="0.971603"/>
<rect x="5200" y="61.208" width="8.74487" height="8.74399" fill="white"/>
<rect x="5234.98" y="61.2075" width="8.74487" height="8.74399" fill="white"/>
<rect x="5269.96" y="61.2075" width="8.74487" height="8.74399" fill="white"/>
<rect x="5269.96" y="96.6001" width="8.74487" height="16.6552" fill="white"/>
<rect x="5226.23" y="92.4365" width="8.74487" height="20.819" fill="white"/>
<rect x="5200" y="104.511" width="8.74487" height="8.74399" fill="white"/>
<rect x="5252.47" y="104.511" width="8.74487" height="8.74399" fill="white"/>
<rect x="5234.98" y="104.511" width="17.4897" height="8.74399" fill="#6F1E27"/>
<rect x="5261.21" y="104.511" width="8.74487" height="8.74399" fill="#6F1E27"/>
<rect x="5278.7" y="104.511" width="17.4897" height="8.74399" fill="#6F1E27"/>
<rect x="5296.2" y="96.6001" width="8.74487" height="8.74399" fill="#6F1E27"/>
<rect x="5252.47" y="61.208" width="8.74487" height="15.8225" fill="white"/>
<rect x="5217.49" y="61.208" width="8.74487" height="22.0682" fill="white"/>
<path d="M5200 113.255L5278.7 113.464V174.671H5269.9V270.647H5269.96H5278.7V349.135H5269.96V270.647H5269.9H5261.21V200.903H5252.47V183.415H5243.72V165.928H5234.98V174.671H5226.23V192.159H5217.49V200.903H5208.74V349.135H5200V113.255Z" fill="#314A46"/>
<path d="M5269.96 270.647H5269.9V174.671H5278.7V113.464L5200 113.255V349.135H5208.74V200.903H5217.49V192.159H5226.23V174.671H5234.98V165.927H5243.72V183.415H5252.47V200.903H5261.21V270.647H5269.96ZM5269.96 270.647H5278.7V349.135H5269.96V270.647Z" stroke="#314A46" stroke-width="0.971603"/>
<rect x="5199" y="121" width="8.74487" height="8.74399" fill="#111111"/>
<rect x="5253" y="145" width="8.74487" height="8.74399" fill="#111111"/>
<rect x="5235" y="130" width="8.74487" height="8.74399" fill="#111111"/>
<rect x="5227" y="158" width="8.74487" height="8.74399" fill="#111111"/>
<rect x="5262" y="125" width="8.74487" height="8.74399" fill="#111111"/>
<rect x="5204" y="216" width="8.74487" height="8.74399" fill="#111111"/>
<rect x="5257" y="241" width="8.74487" height="8.74399" fill="#111111"/>
<rect x="5265" y="265" width="8.74487" height="8.74399" fill="#111111"/>
<rect x="5209" y="171" width="8.74487" height="8.74399" fill="#111111"/>
<rect x="5271" y="116" width="8.74487" height="8.74399" fill="#111111"/>
<path d="M5208 17H5217V25.744H5208V17Z" fill="#111111"/>
<rect x="5244" y="38" width="8.74487" height="8.74399" fill="#111111"/>
<path d="M5199 52.5H5207.74V61.244H5199V52.5Z" fill="#111111"/>
<path d="M5262 8H5270.74V16.744H5262V8Z" fill="#111111"/>
<rect x="5226" width="8.74487" height="8.74399" fill="#111111"/>
<rect x="5208" y="143" width="8.74487" height="8.74399" fill="#111111"/>
<rect x="5262" y="190" width="8.74487" height="8.74399" fill="#111111"/>
<rect x="5196" y="231" width="8.74487" height="8.74399" fill="#111111"/>
<path d="M5324.88 263.777V232.208H5327.61V238.638H5334.43V244.874H5340.67V257.151H5359.57V250.979H5365.42V263.777H5359.57V289.499H5353.33V263.777H5334.04V289.499H5328V263.777H5324.88Z" fill="black" stroke="black" stroke-width="0.389761"/>
<path d="M5416.67 244.614V238.443H5343.59V256.761H5352.92V250.784H5359.33H5397.24V244.614H5409.68H5416.67Z" fill="#122132" stroke="#122132" stroke-width="0.389761"/>
<path d="M5416.67 225.777H5328V231.818H5334.82V238.249H5416.67V225.777Z" fill="#182738" stroke="#182738" stroke-width="0.389761"/>
<path d="M5320.98 213.11V206.484H5349.04V212.915L5320.98 213.11Z" fill="#26733D" stroke="#26733D" stroke-width="0.389761"/>
<path d="M5324.88 225.582V213.305H5365.42V225.215L5324.88 225.582Z" fill="#206234" stroke="#206234" stroke-width="0.389761"/>
<path d="M5324.88 232.013V225.582H5327.8V232.013H5334.62V238.443H5343.2V244.679H5334.62V238.443H5327.8V232.013H5324.88Z" fill="#26733D"/>
<path d="M5327.8 232.013H5324.88V225.582H5327.8V232.013ZM5327.8 232.013V238.443H5334.62M5327.8 232.013H5334.62V238.443M5334.62 238.443V244.679H5343.2V238.443H5334.62Z" stroke="#26733D" stroke-width="0.389761"/>
<path d="M5359.18 213.11V206.484H5368.14V212.915L5359.18 213.11Z" fill="#26733D" stroke="#26733D" stroke-width="0.389761"/>
<path d="M5372.82 162.249H5316.5V175.695H5305V181.541H5384.71V175.695H5372.82V162.249Z" fill="#26733D" stroke="#26733D" stroke-width="0.389761"/>
<path d="M5319.42 181.736H5370.09V206.484H5319.42V181.736Z" fill="black"/>
<rect x="5354.11" y="206.484" width="5.06714" height="6.6256" fill="black"/>
<rect x="5349.05" y="206.484" width="5.06714" height="6.6256" fill="black"/>
<rect x="5363.47" y="189.336" width="5.45692" height="9.35379" fill="#FAFF15"/>
<rect x="5346.32" y="189.336" width="5.45692" height="9.35379" fill="#FAFF15"/>
<rect x="5319.81" y="168.29" width="3.11824" height="3.50767" fill="#FF9315"/>
<rect x="5367.36" y="164.003" width="3.11824" height="3.50767" fill="#FF9315"/>
<rect x="5322.93" y="171.798" width="7.40583" height="3.50767" fill="#FF9315"/>
<rect x="5404.78" y="231.818" width="2.72846" height="10.1333" fill="#FF9315"/>
<rect x="5404" y="219.346" width="6.23649" height="6.23586" fill="#FF9315"/>
<rect x="5398.55" y="231.818" width="2.72846" height="10.1333" fill="#FF9315"/>
<rect x="5411.02" y="231.818" width="2.72846" height="10.1333" fill="#FF9315"/>
<path d="M5327.8 289.694H5334.23V301.581H5327.8V289.694Z" fill="#26733D"/>
<path d="M5353.14 289.694H5359.76V301.581H5353.14V289.694Z" fill="#26733D"/>
<path d="M5343.39 244.874H5340.86V256.956H5343.39V244.874Z" fill="white"/>
<path d="M5359.37 250.982L5353.14 250.974V256.956H5359.37V250.982Z" fill="white"/>
<path d="M5747.75 0H5695.49V17.488H5686.74V34.976H5678V61.2079H5721.72V104.72H5730.47V61.2079H5756.7V26.232H5747.75V0Z" fill="#314A46" stroke="#314A46" stroke-width="0.971603"/>
<rect x="5678" y="61.208" width="8.74487" height="8.74399" fill="white"/>
<rect x="5712.98" y="61.2075" width="8.74487" height="8.74399" fill="white"/>
<rect x="5747.96" y="61.2075" width="8.74487" height="8.74399" fill="white"/>
<rect x="5747.96" y="96.6001" width="8.74487" height="16.6552" fill="white"/>
<rect x="5704.23" y="92.4365" width="8.74487" height="20.819" fill="white"/>
<rect x="5678" y="104.511" width="8.74487" height="8.74399" fill="white"/>
<rect x="5730.47" y="104.511" width="8.74487" height="8.74399" fill="white"/>
<rect x="5712.98" y="104.511" width="17.4897" height="8.74399" fill="#6F1E27"/>
<rect x="5739.21" y="104.511" width="8.74487" height="8.74399" fill="#6F1E27"/>
<rect x="5756.7" y="104.511" width="17.4897" height="8.74399" fill="#6F1E27"/>
<rect x="5774.2" y="96.6001" width="8.74487" height="8.74399" fill="#6F1E27"/>
<rect x="5730.47" y="61.208" width="8.74487" height="15.8225" fill="white"/>
<rect x="5695.49" y="61.208" width="8.74487" height="22.0682" fill="white"/>
<path d="M5678 113.255L5756.7 113.464V174.671H5747.9V270.647H5747.96H5756.7V349.135H5747.96V270.647H5747.9H5739.21V200.903H5730.47V183.415H5721.72V165.928H5712.98V174.671H5704.23V192.159H5695.49V200.903H5686.74V349.135H5678V113.255Z" fill="#314A46"/>
<path d="M5747.96 270.647H5747.9V174.671H5756.7V113.464L5678 113.255V349.135H5686.74V200.903H5695.49V192.159H5704.23V174.671H5712.98V165.927H5721.72V183.415H5730.47V200.903H5739.21V270.647H5747.96ZM5747.96 270.647H5756.7V349.135H5747.96V270.647Z" stroke="#314A46" stroke-width="0.971603"/>
<rect x="5677" y="121" width="8.74487" height="8.74399" fill="#111111"/>
<rect x="5731" y="145" width="8.74487" height="8.74399" fill="#111111"/>
<rect x="5740" y="171" width="8.74487" height="8.74399" fill="#111111"/>
<rect x="5749" y="158" width="8.74487" height="8.74399" fill="#111111"/>
<rect x="5713" y="130" width="8.74487" height="8.74399" fill="#111111"/>
<rect x="5705" y="158" width="8.74487" height="8.74399" fill="#111111"/>
<rect x="5740" y="125" width="8.74487" height="8.74399" fill="#111111"/>
<rect x="5682" y="216" width="8.74487" height="8.74399" fill="#111111"/>
<rect x="5735" y="241" width="8.74487" height="8.74399" fill="#111111"/>
<rect x="5743" y="265" width="8.74487" height="8.74399" fill="#111111"/>
<rect x="5673" y="290" width="8.74487" height="8.74399" fill="#111111"/>
<rect x="5744" y="337" width="8.74487" height="8.74399" fill="#111111"/>
<rect x="5753" y="306" width="8.74487" height="8.74399" fill="#111111"/>
<rect x="5673" y="326" width="8.74487" height="8.74399" fill="#111111"/>
<rect x="5687" y="171" width="8.74487" height="8.74399" fill="#111111"/>
<rect x="5749" y="116" width="8.74487" height="8.74399" fill="#111111"/>
<path d="M5686 17H5695V25.744H5686V17Z" fill="#111111"/>
<rect x="5722" y="38" width="8.74487" height="8.74399" fill="#111111"/>
<rect x="5718" y="83" width="8.74487" height="8.74399" fill="#111111"/>
<rect x="5709" y="109" width="8.74487" height="8.74399" fill="#111111"/>
<rect x="5762" y="101" width="8.74487" height="8.74399" fill="#111111"/>
<rect x="5699" y="31" width="8.74487" height="8.74399" fill="#111111"/>
<rect x="5683" y="22" width="8.74487" height="8.74399" fill="#111111"/>
<rect x="5753" y="57" width="8.74487" height="8.74399" fill="#111111"/>
<rect x="5734" y="69" width="8.74487" height="8.74399" fill="#111111"/>
<rect x="5708" y="57" width="8.74487" height="8.74399" fill="#111111"/>
<path d="M5677 52.5H5685.74V61.244H5677V52.5Z" fill="#111111"/>
<path d="M5740 8H5748.74V16.744H5740V8Z" fill="#111111"/>
<rect x="5704" width="8.74487" height="8.74399" fill="#111111"/>
<rect x="5686" y="143" width="8.74487" height="8.74399" fill="#111111"/>
<rect x="5740" y="190" width="8.74487" height="8.74399" fill="#111111"/>
<rect x="5674" y="231" width="8.74487" height="8.74399" fill="#111111"/>
<path d="M5802.88 263.777V232.208H5805.61V238.638H5812.43V244.874H5818.67V257.151H5837.57V250.979H5843.42V263.777H5837.57V289.499H5831.33V263.777H5812.04V289.499H5806V263.777H5802.88Z" fill="black" stroke="black" stroke-width="0.389761"/>
<path d="M5894.67 244.614V238.443H5821.59V256.761H5830.92V250.784H5837.33H5875.24V244.614H5887.68H5894.67Z" fill="#122132" stroke="#122132" stroke-width="0.389761"/>
<path d="M5894.67 225.777H5806V231.818H5812.82V238.249H5894.67V225.777Z" fill="#182738" stroke="#182738" stroke-width="0.389761"/>
<path d="M5798.98 213.11V206.484H5827.04V212.915L5798.98 213.11Z" fill="#26733D" stroke="#26733D" stroke-width="0.389761"/>
<path d="M5802.88 225.582V213.305H5843.42V225.215L5802.88 225.582Z" fill="#206234" stroke="#206234" stroke-width="0.389761"/>
<path d="M5802.88 232.013V225.582H5805.8V232.013H5812.62V238.443H5821.2V244.679H5812.62V238.443H5805.8V232.013H5802.88Z" fill="#26733D"/>
<path d="M5805.8 232.013H5802.88V225.582H5805.8V232.013ZM5805.8 232.013V238.443H5812.62M5805.8 232.013H5812.62V238.443M5812.62 238.443V244.679H5821.2V238.443H5812.62Z" stroke="#26733D" stroke-width="0.389761"/>
<path d="M5837.18 213.11V206.484H5846.14V212.915L5837.18 213.11Z" fill="#26733D" stroke="#26733D" stroke-width="0.389761"/>
<path d="M5850.82 162.249H5794.5V175.695H5783V181.541H5862.71V175.695H5850.82V162.249Z" fill="#26733D" stroke="#26733D" stroke-width="0.389761"/>
<path d="M5797.42 181.736H5848.09V206.484H5797.42V181.736Z" fill="black"/>
<rect x="5832.11" y="206.484" width="5.06714" height="6.6256" fill="black"/>
<rect x="5827.05" y="206.484" width="5.06714" height="6.6256" fill="black"/>
<rect x="5841.47" y="189.336" width="5.45692" height="9.35379" fill="#FAFF15"/>
<rect x="5824.32" y="189.336" width="5.45692" height="9.35379" fill="#FAFF15"/>
<rect x="5797.81" y="168.29" width="3.11824" height="3.50767" fill="#FF9315"/>
<rect x="5845.36" y="164.003" width="3.11824" height="3.50767" fill="#FF9315"/>
<rect x="5800.93" y="171.798" width="7.40583" height="3.50767" fill="#FF9315"/>
<rect x="5882.78" y="231.818" width="2.72846" height="10.1333" fill="#FF9315"/>
<rect x="5882" y="219.346" width="6.23649" height="6.23586" fill="#FF9315"/>
<rect x="5876.55" y="231.818" width="2.72846" height="10.1333" fill="#FF9315"/>
<rect x="5889.02" y="231.818" width="2.72846" height="10.1333" fill="#FF9315"/>
<path d="M5805.8 289.694H5812.23V301.581H5805.8V289.694Z" fill="#26733D"/>
<path d="M5831.14 289.694H5837.76V301.581H5831.14V289.694Z" fill="#26733D"/>
<path d="M5821.39 244.874H5818.86V256.956H5821.39V244.874Z" fill="white"/>
<path d="M5837.37 250.982L5831.14 250.974V256.956H5837.37V250.982Z" fill="white"/>
<rect x="6152" y="231" width="8.74487" height="8.74399" fill="#111111"/>
<g opacity="0.8">
<path d="M6225.75 0H6173.49V17.488H6164.74V34.976H6156V61.2079H6199.72V104.72H6208.47V61.2079H6234.7V26.232H6225.75V0Z" fill="#314A46" stroke="#314A46" stroke-width="0.971603"/>
<rect x="6156" y="61.208" width="8.74487" height="8.74399" fill="white"/>
<rect x="6190.98" y="61.2075" width="8.74487" height="8.74399" fill="white"/>
<rect x="6225.96" y="61.2075" width="8.74487" height="8.74399" fill="white"/>
<rect x="6225.96" y="96.6001" width="8.74487" height="16.6552" fill="white"/>
<rect x="6182.23" y="92.4365" width="8.74487" height="20.819" fill="white"/>
<rect x="6156" y="104.511" width="8.74487" height="8.74399" fill="white"/>
<rect x="6208.47" y="104.511" width="8.74487" height="8.74399" fill="white"/>
<rect x="6190.98" y="104.511" width="17.4897" height="8.74399" fill="#6F1E27"/>
<rect x="6217.21" y="104.511" width="8.74487" height="8.74399" fill="#6F1E27"/>
<rect x="6234.7" y="104.511" width="17.4897" height="8.74399" fill="#6F1E27"/>
<rect x="6252.2" y="96.6001" width="8.74487" height="8.74399" fill="#6F1E27"/>
<rect x="6208.47" y="61.208" width="8.74487" height="15.8225" fill="white"/>
<rect x="6173.49" y="61.208" width="8.74487" height="22.0682" fill="white"/>
<path d="M6156 113.255L6234.7 113.464V174.671H6225.9V270.647H6225.96H6234.7V349.135H6225.96V270.647H6225.9H6217.21V200.903H6208.47V183.415H6199.72V165.928H6190.98V174.671H6182.23V192.159H6173.49V200.903H6164.74V349.135H6156V113.255Z" fill="#314A46"/>
<path d="M6225.96 270.647H6225.9V174.671H6234.7V113.464L6156 113.255V349.135H6164.74V200.903H6173.49V192.159H6182.23V174.671H6190.98V165.927H6199.72V183.415H6208.47V200.903H6217.21V270.647H6225.96ZM6225.96 270.647H6234.7V349.135H6225.96V270.647Z" stroke="#314A46" stroke-width="0.971603"/>
<rect x="6155" y="121" width="8.74487" height="8.74399" fill="#111111"/>
<rect x="6209" y="145" width="8.74487" height="8.74399" fill="#111111"/>
<rect x="6218" y="171" width="8.74487" height="8.74399" fill="#111111"/>
<rect x="6227" y="158" width="8.74487" height="8.74399" fill="#111111"/>
<rect x="6191" y="130" width="8.74487" height="8.74399" fill="#111111"/>
<rect x="6183" y="158" width="8.74487" height="8.74399" fill="#111111"/>
<rect x="6218" y="125" width="8.74487" height="8.74399" fill="#111111"/>
<rect x="6160" y="216" width="8.74487" height="8.74399" fill="#111111"/>
<rect x="6213" y="241" width="8.74487" height="8.74399" fill="#111111"/>
<rect x="6221" y="265" width="8.74487" height="8.74399" fill="#111111"/>
<rect x="6151" y="290" width="8.74487" height="8.74399" fill="#111111"/>
<rect x="6222" y="337" width="8.74487" height="8.74399" fill="#111111"/>
<rect x="6231" y="306" width="8.74487" height="8.74399" fill="#111111"/>
<rect x="6151" y="326" width="8.74487" height="8.74399" fill="#111111"/>
<rect x="6165" y="171" width="8.74487" height="8.74399" fill="#111111"/>
<rect x="6227" y="116" width="8.74487" height="8.74399" fill="#111111"/>
<path d="M6164 17H6173V25.744H6164V17Z" fill="#111111"/>
<rect x="6200" y="38" width="8.74487" height="8.74399" fill="#111111"/>
<rect x="6196" y="83" width="8.74487" height="8.74399" fill="#111111"/>
<rect x="6187" y="109" width="8.74487" height="8.74399" fill="#111111"/>
<rect x="6240" y="101" width="8.74487" height="8.74399" fill="#111111"/>
<rect x="6177" y="31" width="8.74487" height="8.74399" fill="#111111"/>
<rect x="6161" y="22" width="8.74487" height="8.74399" fill="#111111"/>
<rect x="6231" y="57" width="8.74487" height="8.74399" fill="#111111"/>
<rect x="6212" y="69" width="8.74487" height="8.74399" fill="#111111"/>
<rect x="6186" y="57" width="8.74487" height="8.74399" fill="#111111"/>
<path d="M6155 52.5H6163.74V61.244H6155V52.5Z" fill="#111111"/>
<path d="M6218 8H6226.74V16.744H6218V8Z" fill="#111111"/>
<rect x="6182" width="8.74487" height="8.74399" fill="#111111"/>
<rect x="6164" y="143" width="8.74487" height="8.74399" fill="#111111"/>
<rect x="6218" y="190" width="8.74487" height="8.74399" fill="#111111"/>
</g>
<path d="M6280.88 263.777V232.208H6283.61V238.638H6290.43V244.874H6296.67V257.151H6315.57V250.979H6321.42V263.777H6315.57V289.499H6309.33V263.777H6290.04V289.499H6284V263.777H6280.88Z" fill="black" stroke="black" stroke-width="0.389761"/>
<path d="M6372.67 244.614V238.443H6299.59V256.761H6308.92V250.784H6315.33H6353.24V244.614H6365.68H6372.67Z" fill="#122132" stroke="#122132" stroke-width="0.389761"/>
<path d="M6372.67 225.777H6284V231.818H6290.82V238.249H6372.67V225.777Z" fill="#182738" stroke="#182738" stroke-width="0.389761"/>
<path d="M6276.98 213.11V206.484H6305.04V212.915L6276.98 213.11Z" fill="#26733D" stroke="#26733D" stroke-width="0.389761"/>
<path d="M6280.88 225.582V213.305H6321.42V225.215L6280.88 225.582Z" fill="#206234" stroke="#206234" stroke-width="0.389761"/>
<path d="M6280.88 232.013V225.582H6283.8V232.013H6290.62V238.443H6299.2V244.679H6290.62V238.443H6283.8V232.013H6280.88Z" fill="#26733D"/>
<path d="M6283.8 232.013H6280.88V225.582H6283.8V232.013ZM6283.8 232.013V238.443H6290.62M6283.8 232.013H6290.62V238.443M6290.62 238.443V244.679H6299.2V238.443H6290.62Z" stroke="#26733D" stroke-width="0.389761"/>
<path d="M6315.18 213.11V206.484H6324.14V212.915L6315.18 213.11Z" fill="#26733D" stroke="#26733D" stroke-width="0.389761"/>
<path d="M6328.82 162.249H6272.5V175.695H6261V181.541H6340.71V175.695H6328.82V162.249Z" fill="#26733D" stroke="#26733D" stroke-width="0.389761"/>
<path d="M6275.42 181.736H6326.09V206.484H6275.42V181.736Z" fill="black"/>
<rect x="6310.11" y="206.484" width="5.06714" height="6.6256" fill="black"/>
<rect x="6305.05" y="206.484" width="5.06714" height="6.6256" fill="black"/>
<rect x="6319.47" y="189.336" width="5.45692" height="9.35379" fill="#FAFF15"/>
<rect x="6302.32" y="189.336" width="5.45692" height="9.35379" fill="#FAFF15"/>
<rect x="6275.81" y="168.29" width="3.11824" height="3.50767" fill="#FF9315"/>
<rect x="6323.36" y="164.003" width="3.11824" height="3.50767" fill="#FF9315"/>
<rect x="6278.93" y="171.798" width="7.40583" height="3.50767" fill="#FF9315"/>
<rect x="6360.78" y="231.818" width="2.72846" height="10.1333" fill="#FF9315"/>
<rect x="6360" y="219.346" width="6.23649" height="6.23586" fill="#FF9315"/>
<rect x="6354.55" y="231.818" width="2.72846" height="10.1333" fill="#FF9315"/>
<rect x="6367.02" y="231.818" width="2.72846" height="10.1333" fill="#FF9315"/>
<path d="M6283.8 289.694H6290.23V301.581H6283.8V289.694Z" fill="#26733D"/>
<path d="M6309.14 289.694H6315.76V301.581H6309.14V289.694Z" fill="#26733D"/>
<path d="M6299.39 244.874H6296.86V256.956H6299.39V244.874Z" fill="white"/>
<path d="M6315.37 250.982L6309.14 250.974V256.956H6315.37V250.982Z" fill="white"/>
<rect x="6630" y="231" width="8.74487" height="8.74399" fill="#111111"/>
<g opacity="0.6">
<path d="M6703.75 0H6651.49V17.488H6642.74V34.976H6634V61.2079H6677.72V104.72H6686.47V61.2079H6712.7V26.232H6703.75V0Z" fill="#314A46" stroke="#314A46" stroke-width="0.971603"/>
<rect x="6634" y="61.208" width="8.74487" height="8.74399" fill="white"/>
<rect x="6668.98" y="61.2075" width="8.74487" height="8.74399" fill="white"/>
<rect x="6703.96" y="61.2075" width="8.74487" height="8.74399" fill="white"/>
<rect x="6703.96" y="96.6001" width="8.74487" height="16.6552" fill="white"/>
<rect x="6660.23" y="92.4365" width="8.74487" height="20.819" fill="white"/>
<rect x="6634" y="104.511" width="8.74487" height="8.74399" fill="white"/>
<rect x="6686.47" y="104.511" width="8.74487" height="8.74399" fill="white"/>
<rect x="6668.98" y="104.511" width="17.4897" height="8.74399" fill="#6F1E27"/>
<rect x="6695.21" y="104.511" width="8.74487" height="8.74399" fill="#6F1E27"/>
<rect x="6712.7" y="104.511" width="17.4897" height="8.74399" fill="#6F1E27"/>
<rect x="6730.2" y="96.6001" width="8.74487" height="8.74399" fill="#6F1E27"/>
<rect x="6686.47" y="61.208" width="8.74487" height="15.8225" fill="white"/>
<rect x="6651.49" y="61.208" width="8.74487" height="22.0682" fill="white"/>
<path d="M6634 113.255L6712.7 113.464V174.671H6703.9V270.647H6703.96H6712.7V349.135H6703.96V270.647H6703.9H6695.21V200.903H6686.47V183.415H6677.72V165.928H6668.98V174.671H6660.23V192.159H6651.49V200.903H6642.74V349.135H6634V113.255Z" fill="#314A46"/>
<path d="M6703.96 270.647H6703.9V174.671H6712.7V113.464L6634 113.255V349.135H6642.74V200.903H6651.49V192.159H6660.23V174.671H6668.98V165.927H6677.72V183.415H6686.47V200.903H6695.21V270.647H6703.96ZM6703.96 270.647H6712.7V349.135H6703.96V270.647Z" stroke="#314A46" stroke-width="0.971603"/>
<rect x="6633" y="121" width="8.74487" height="8.74399" fill="#111111"/>
<rect x="6687" y="145" width="8.74487" height="8.74399" fill="#111111"/>
<rect x="6696" y="171" width="8.74487" height="8.74399" fill="#111111"/>
<rect x="6705" y="158" width="8.74487" height="8.74399" fill="#111111"/>
<rect x="6669" y="130" width="8.74487" height="8.74399" fill="#111111"/>
<rect x="6661" y="158" width="8.74487" height="8.74399" fill="#111111"/>
<rect x="6696" y="125" width="8.74487" height="8.74399" fill="#111111"/>
<rect x="6638" y="216" width="8.74487" height="8.74399" fill="#111111"/>
<rect x="6691" y="241" width="8.74487" height="8.74399" fill="#111111"/>
<rect x="6699" y="265" width="8.74487" height="8.74399" fill="#111111"/>
<rect x="6629" y="290" width="8.74487" height="8.74399" fill="#111111"/>
<rect x="6700" y="337" width="8.74487" height="8.74399" fill="#111111"/>
<rect x="6709" y="306" width="8.74487" height="8.74399" fill="#111111"/>
<rect x="6629" y="326" width="8.74487" height="8.74399" fill="#111111"/>
<rect x="6643" y="171" width="8.74487" height="8.74399" fill="#111111"/>
<rect x="6705" y="116" width="8.74487" height="8.74399" fill="#111111"/>
<path d="M6642 17H6651V25.744H6642V17Z" fill="#111111"/>
<rect x="6678" y="38" width="8.74487" height="8.74399" fill="#111111"/>
<rect x="6674" y="83" width="8.74487" height="8.74399" fill="#111111"/>
<rect x="6665" y="109" width="8.74487" height="8.74399" fill="#111111"/>
<rect x="6718" y="101" width="8.74487" height="8.74399" fill="#111111"/>
<rect x="6655" y="31" width="8.74487" height="8.74399" fill="#111111"/>
<rect x="6639" y="22" width="8.74487" height="8.74399" fill="#111111"/>
<rect x="6709" y="57" width="8.74487" height="8.74399" fill="#111111"/>
<rect x="6690" y="69" width="8.74487" height="8.74399" fill="#111111"/>
<rect x="6664" y="57" width="8.74487" height="8.74399" fill="#111111"/>
<path d="M6633 52.5H6641.74V61.244H6633V52.5Z" fill="#111111"/>
<path d="M6696 8H6704.74V16.744H6696V8Z" fill="#111111"/>
<rect x="6660" width="8.74487" height="8.74399" fill="#111111"/>
<rect x="6642" y="143" width="8.74487" height="8.74399" fill="#111111"/>
<rect x="6696" y="190" width="8.74487" height="8.74399" fill="#111111"/>
</g>
<path d="M6758.88 263.777V232.208H6761.61V238.638H6768.43V244.874H6774.67V257.151H6793.57V250.979H6799.42V263.777H6793.57V289.499H6787.33V263.777H6768.04V289.499H6762V263.777H6758.88Z" fill="black" stroke="black" stroke-width="0.389761"/>
<path d="M6850.67 244.614V238.443H6777.59V256.761H6786.92V250.784H6793.33H6831.24V244.614H6843.68H6850.67Z" fill="#122132" stroke="#122132" stroke-width="0.389761"/>
<path d="M6850.67 225.777H6762V231.818H6768.82V238.249H6850.67V225.777Z" fill="#182738" stroke="#182738" stroke-width="0.389761"/>
<path d="M6754.98 213.11V206.484H6783.04V212.915L6754.98 213.11Z" fill="#26733D" stroke="#26733D" stroke-width="0.389761"/>
<path d="M6758.88 225.582V213.305H6799.42V225.215L6758.88 225.582Z" fill="#206234" stroke="#206234" stroke-width="0.389761"/>
<path d="M6758.88 232.013V225.582H6761.8V232.013H6768.62V238.443H6777.2V244.679H6768.62V238.443H6761.8V232.013H6758.88Z" fill="#26733D"/>
<path d="M6761.8 232.013H6758.88V225.582H6761.8V232.013ZM6761.8 232.013V238.443H6768.62M6761.8 232.013H6768.62V238.443M6768.62 238.443V244.679H6777.2V238.443H6768.62Z" stroke="#26733D" stroke-width="0.389761"/>
<path d="M6793.18 213.11V206.484H6802.14V212.915L6793.18 213.11Z" fill="#26733D" stroke="#26733D" stroke-width="0.389761"/>
<path d="M6806.82 162.249H6750.5V175.695H6739V181.541H6818.71V175.695H6806.82V162.249Z" fill="#26733D" stroke="#26733D" stroke-width="0.389761"/>
<path d="M6753.42 181.736H6804.09V206.484H6753.42V181.736Z" fill="black"/>
<rect x="6788.11" y="206.484" width="5.06714" height="6.6256" fill="black"/>
<rect x="6783.05" y="206.484" width="5.06714" height="6.6256" fill="black"/>
<rect x="6797.47" y="189.336" width="5.45692" height="9.35379" fill="#FAFF15"/>
<rect x="6780.32" y="189.336" width="5.45692" height="9.35379" fill="#FAFF15"/>
<rect x="6753.81" y="168.29" width="3.11824" height="3.50767" fill="#FF9315"/>
<rect x="6801.36" y="164.003" width="3.11824" height="3.50767" fill="#FF9315"/>
<rect x="6756.93" y="171.798" width="7.40583" height="3.50767" fill="#FF9315"/>
<rect x="6838.78" y="231.818" width="2.72846" height="10.1333" fill="#FF9315"/>
<rect x="6838" y="219.346" width="6.23649" height="6.23586" fill="#FF9315"/>
<rect x="6832.55" y="231.818" width="2.72846" height="10.1333" fill="#FF9315"/>
<rect x="6845.02" y="231.818" width="2.72846" height="10.1333" fill="#FF9315"/>
<path d="M6761.8 289.694H6768.23V301.581H6761.8V289.694Z" fill="#26733D"/>
<path d="M6787.14 289.694H6793.76V301.581H6787.14V289.694Z" fill="#26733D"/>
<path d="M6777.39 244.874H6774.86V256.956H6777.39V244.874Z" fill="white"/>
<path d="M6793.37 250.982L6787.14 250.974V256.956H6793.37V250.982Z" fill="white"/>
<rect x="7108" y="231" width="8.74487" height="8.74399" fill="#111111"/>
<g opacity="0.4">
<path d="M7181.75 0H7129.49V17.488H7120.74V34.976H7112V61.2079H7155.72V104.72H7164.47V61.2079H7190.7V26.232H7181.75V0Z" fill="#314A46" stroke="#314A46" stroke-width="0.971603"/>
<rect x="7112" y="61.208" width="8.74487" height="8.74399" fill="white"/>
<rect x="7146.98" y="61.2075" width="8.74487" height="8.74399" fill="white"/>
<rect x="7181.96" y="61.2075" width="8.74487" height="8.74399" fill="white"/>
<rect x="7181.96" y="96.6001" width="8.74487" height="16.6552" fill="white"/>
<rect x="7138.23" y="92.4365" width="8.74487" height="20.819" fill="white"/>
<rect x="7112" y="104.511" width="8.74487" height="8.74399" fill="white"/>
<rect x="7164.47" y="104.511" width="8.74487" height="8.74399" fill="white"/>
<rect x="7146.98" y="104.511" width="17.4897" height="8.74399" fill="#6F1E27"/>
<rect x="7173.21" y="104.511" width="8.74487" height="8.74399" fill="#6F1E27"/>
<rect x="7190.7" y="104.511" width="17.4897" height="8.74399" fill="#6F1E27"/>
<rect x="7208.2" y="96.6001" width="8.74487" height="8.74399" fill="#6F1E27"/>
<rect x="7164.47" y="61.208" width="8.74487" height="15.8225" fill="white"/>
<rect x="7129.49" y="61.208" width="8.74487" height="22.0682" fill="white"/>
<path d="M7112 113.255L7190.7 113.464V174.671H7181.9V270.647H7181.96H7190.7V349.135H7181.96V270.647H7181.9H7173.21V200.903H7164.47V183.415H7155.72V165.928H7146.98V174.671H7138.23V192.159H7129.49V200.903H7120.74V349.135H7112V113.255Z" fill="#314A46"/>
<path d="M7181.96 270.647H7181.9V174.671H7190.7V113.464L7112 113.255V349.135H7120.74V200.903H7129.49V192.159H7138.23V174.671H7146.98V165.927H7155.72V183.415H7164.47V200.903H7173.21V270.647H7181.96ZM7181.96 270.647H7190.7V349.135H7181.96V270.647Z" stroke="#314A46" stroke-width="0.971603"/>
<rect x="7111" y="121" width="8.74487" height="8.74399" fill="#111111"/>
<rect x="7165" y="145" width="8.74487" height="8.74399" fill="#111111"/>
<rect x="7174" y="171" width="8.74487" height="8.74399" fill="#111111"/>
<rect x="7183" y="158" width="8.74487" height="8.74399" fill="#111111"/>
<rect x="7147" y="130" width="8.74487" height="8.74399" fill="#111111"/>
<rect x="7139" y="158" width="8.74487" height="8.74399" fill="#111111"/>
<rect x="7174" y="125" width="8.74487" height="8.74399" fill="#111111"/>
<rect x="7116" y="216" width="8.74487" height="8.74399" fill="#111111"/>
<rect x="7169" y="241" width="8.74487" height="8.74399" fill="#111111"/>
<rect x="7177" y="265" width="8.74487" height="8.74399" fill="#111111"/>
<rect x="7107" y="290" width="8.74487" height="8.74399" fill="#111111"/>
<rect x="7178" y="337" width="8.74487" height="8.74399" fill="#111111"/>
<rect x="7187" y="306" width="8.74487" height="8.74399" fill="#111111"/>
<rect x="7107" y="326" width="8.74487" height="8.74399" fill="#111111"/>
<rect x="7121" y="171" width="8.74487" height="8.74399" fill="#111111"/>
<rect x="7183" y="116" width="8.74487" height="8.74399" fill="#111111"/>
<path d="M7120 17H7129V25.744H7120V17Z" fill="#111111"/>
<rect x="7156" y="38" width="8.74487" height="8.74399" fill="#111111"/>
<rect x="7152" y="83" width="8.74487" height="8.74399" fill="#111111"/>
<rect x="7143" y="109" width="8.74487" height="8.74399" fill="#111111"/>
<rect x="7196" y="101" width="8.74487" height="8.74399" fill="#111111"/>
<rect x="7133" y="31" width="8.74487" height="8.74399" fill="#111111"/>
<rect x="7117" y="22" width="8.74487" height="8.74399" fill="#111111"/>
<rect x="7187" y="57" width="8.74487" height="8.74399" fill="#111111"/>
<rect x="7168" y="69" width="8.74487" height="8.74399" fill="#111111"/>
<rect x="7142" y="57" width="8.74487" height="8.74399" fill="#111111"/>
<path d="M7111 52.5H7119.74V61.244H7111V52.5Z" fill="#111111"/>
<path d="M7174 8H7182.74V16.744H7174V8Z" fill="#111111"/>
<rect x="7138" width="8.74487" height="8.74399" fill="#111111"/>
<rect x="7120" y="143" width="8.74487" height="8.74399" fill="#111111"/>
<rect x="7174" y="190" width="8.74487" height="8.74399" fill="#111111"/>
</g>
<path d="M7236.88 263.777V232.208H7239.61V238.638H7246.43V244.874H7252.67V257.151H7271.57V250.979H7277.42V263.777H7271.57V289.499H7265.33V263.777H7246.04V289.499H7240V263.777H7236.88Z" fill="black" stroke="black" stroke-width="0.389761"/>
<path d="M7328.67 244.614V238.443H7255.59V256.761H7264.92V250.784H7271.33H7309.24V244.614H7321.68H7328.67Z" fill="#122132" stroke="#122132" stroke-width="0.389761"/>
<path d="M7328.67 225.777H7240V231.818H7246.82V238.249H7328.67V225.777Z" fill="#182738" stroke="#182738" stroke-width="0.389761"/>
<path d="M7232.98 213.11V206.484H7261.04V212.915L7232.98 213.11Z" fill="#26733D" stroke="#26733D" stroke-width="0.389761"/>
<path d="M7236.88 225.582V213.305H7277.42V225.215L7236.88 225.582Z" fill="#206234" stroke="#206234" stroke-width="0.389761"/>
<path d="M7236.88 232.013V225.582H7239.8V232.013H7246.62V238.443H7255.2V244.679H7246.62V238.443H7239.8V232.013H7236.88Z" fill="#26733D"/>
<path d="M7239.8 232.013H7236.88V225.582H7239.8V232.013ZM7239.8 232.013V238.443H7246.62M7239.8 232.013H7246.62V238.443M7246.62 238.443V244.679H7255.2V238.443H7246.62Z" stroke="#26733D" stroke-width="0.389761"/>
<path d="M7271.18 213.11V206.484H7280.14V212.915L7271.18 213.11Z" fill="#26733D" stroke="#26733D" stroke-width="0.389761"/>
<path d="M7284.82 162.249H7228.5V175.695H7217V181.541H7296.71V175.695H7284.82V162.249Z" fill="#26733D" stroke="#26733D" stroke-width="0.389761"/>
<path d="M7231.42 181.736H7282.09V206.484H7231.42V181.736Z" fill="black"/>
<rect x="7266.11" y="206.484" width="5.06714" height="6.6256" fill="black"/>
<rect x="7261.05" y="206.484" width="5.06714" height="6.6256" fill="black"/>
<rect x="7275.47" y="189.336" width="5.45692" height="9.35379" fill="#FAFF15"/>
<rect x="7258.32" y="189.336" width="5.45692" height="9.35379" fill="#FAFF15"/>
<rect x="7231.81" y="168.29" width="3.11824" height="3.50767" fill="#FF9315"/>
<rect x="7279.36" y="164.003" width="3.11824" height="3.50767" fill="#FF9315"/>
<rect x="7234.93" y="171.798" width="7.40583" height="3.50767" fill="#FF9315"/>
<rect x="7316.78" y="231.818" width="2.72846" height="10.1333" fill="#FF9315"/>
<rect x="7316" y="219.346" width="6.23649" height="6.23586" fill="#FF9315"/>
<rect x="7310.55" y="231.818" width="2.72846" height="10.1333" fill="#FF9315"/>
<rect x="7323.02" y="231.818" width="2.72846" height="10.1333" fill="#FF9315"/>
<path d="M7239.8 289.694H7246.23V301.581H7239.8V289.694Z" fill="#26733D"/>
<path d="M7265.14 289.694H7271.76V301.581H7265.14V289.694Z" fill="#26733D"/>
<path d="M7255.39 244.874H7252.86V256.956H7255.39V244.874Z" fill="white"/>
<path d="M7271.37 250.982L7265.14 250.974V256.956H7271.37V250.982Z" fill="white"/>
<rect x="7586" y="231" width="8.74487" height="8.74399" fill="#111111"/>
<g opacity="0.2">
<path d="M7659.75 0H7607.49V17.488H7598.74V34.976H7590V61.2079H7633.72V104.72H7642.47V61.2079H7668.7V26.232H7659.75V0Z" fill="#314A46" stroke="#314A46" stroke-width="0.971603"/>
<rect x="7590" y="61.208" width="8.74487" height="8.74399" fill="white"/>
<rect x="7624.98" y="61.2075" width="8.74487" height="8.74399" fill="white"/>
<rect x="7659.96" y="61.2075" width="8.74487" height="8.74399" fill="white"/>
<rect x="7659.96" y="96.6001" width="8.74487" height="16.6552" fill="white"/>
<rect x="7616.23" y="92.4365" width="8.74487" height="20.819" fill="white"/>
<rect x="7590" y="104.511" width="8.74487" height="8.74399" fill="white"/>
<rect x="7642.47" y="104.511" width="8.74487" height="8.74399" fill="white"/>
<rect x="7624.98" y="104.511" width="17.4897" height="8.74399" fill="#6F1E27"/>
<rect x="7651.21" y="104.511" width="8.74487" height="8.74399" fill="#6F1E27"/>
<rect x="7668.7" y="104.511" width="17.4897" height="8.74399" fill="#6F1E27"/>
<rect x="7686.2" y="96.6001" width="8.74487" height="8.74399" fill="#6F1E27"/>
<rect x="7642.47" y="61.208" width="8.74487" height="15.8225" fill="white"/>
<rect x="7607.49" y="61.208" width="8.74487" height="22.0682" fill="white"/>
<path d="M7590 113.255L7668.7 113.464V174.671H7659.9V270.647H7659.96H7668.7V349.135H7659.96V270.647H7659.9H7651.21V200.903H7642.47V183.415H7633.72V165.928H7624.98V174.671H7616.23V192.159H7607.49V200.903H7598.74V349.135H7590V113.255Z" fill="#314A46"/>
<path d="M7659.96 270.647H7659.9V174.671H7668.7V113.464L7590 113.255V349.135H7598.74V200.903H7607.49V192.159H7616.23V174.671H7624.98V165.927H7633.72V183.415H7642.47V200.903H7651.21V270.647H7659.96ZM7659.96 270.647H7668.7V349.135H7659.96V270.647Z" stroke="#314A46" stroke-width="0.971603"/>
<rect x="7589" y="121" width="8.74487" height="8.74399" fill="#111111"/>
<rect x="7643" y="145" width="8.74487" height="8.74399" fill="#111111"/>
<rect x="7652" y="171" width="8.74487" height="8.74399" fill="#111111"/>
<rect x="7661" y="158" width="8.74487" height="8.74399" fill="#111111"/>
<rect x="7625" y="130" width="8.74487" height="8.74399" fill="#111111"/>
<rect x="7617" y="158" width="8.74487" height="8.74399" fill="#111111"/>
<rect x="7652" y="125" width="8.74487" height="8.74399" fill="#111111"/>
<rect x="7594" y="216" width="8.74487" height="8.74399" fill="#111111"/>
<rect x="7647" y="241" width="8.74487" height="8.74399" fill="#111111"/>
<rect x="7655" y="265" width="8.74487" height="8.74399" fill="#111111"/>
<rect x="7585" y="290" width="8.74487" height="8.74399" fill="#111111"/>
<rect x="7656" y="337" width="8.74487" height="8.74399" fill="#111111"/>
<rect x="7665" y="306" width="8.74487" height="8.74399" fill="#111111"/>
<rect x="7585" y="326" width="8.74487" height="8.74399" fill="#111111"/>
<rect x="7599" y="171" width="8.74487" height="8.74399" fill="#111111"/>
<rect x="7661" y="116" width="8.74487" height="8.74399" fill="#111111"/>
<path d="M7598 17H7607V25.744H7598V17Z" fill="#111111"/>
<rect x="7634" y="38" width="8.74487" height="8.74399" fill="#111111"/>
<rect x="7630" y="83" width="8.74487" height="8.74399" fill="#111111"/>
<rect x="7621" y="109" width="8.74487" height="8.74399" fill="#111111"/>
<rect x="7674" y="101" width="8.74487" height="8.74399" fill="#111111"/>
<rect x="7611" y="31" width="8.74487" height="8.74399" fill="#111111"/>
<rect x="7595" y="22" width="8.74487" height="8.74399" fill="#111111"/>
<rect x="7665" y="57" width="8.74487" height="8.74399" fill="#111111"/>
<rect x="7646" y="69" width="8.74487" height="8.74399" fill="#111111"/>
<rect x="7620" y="57" width="8.74487" height="8.74399" fill="#111111"/>
<path d="M7589 52.5H7597.74V61.244H7589V52.5Z" fill="#111111"/>
<path d="M7652 8H7660.74V16.744H7652V8Z" fill="#111111"/>
<rect x="7616" width="8.74487" height="8.74399" fill="#111111"/>
<rect x="7598" y="143" width="8.74487" height="8.74399" fill="#111111"/>
<rect x="7652" y="190" width="8.74487" height="8.74399" fill="#111111"/>
</g>
<path d="M7714.88 263.777V232.208H7717.61V238.638H7724.43V244.874H7730.67V257.151H7749.57V250.979H7755.42V263.777H7749.57V289.499H7743.33V263.777H7724.04V289.499H7718V263.777H7714.88Z" fill="black" stroke="black" stroke-width="0.389761"/>
<path d="M7806.67 244.614V238.443H7733.59V256.761H7742.92V250.784H7749.33H7787.24V244.614H7799.68H7806.67Z" fill="#122132" stroke="#122132" stroke-width="0.389761"/>
<path d="M7806.67 225.777H7718V231.818H7724.82V238.249H7806.67V225.777Z" fill="#182738" stroke="#182738" stroke-width="0.389761"/>
<path d="M7710.98 213.11V206.484H7739.04V212.915L7710.98 213.11Z" fill="#26733D" stroke="#26733D" stroke-width="0.389761"/>
<path d="M7714.88 225.582V213.305H7755.42V225.215L7714.88 225.582Z" fill="#206234" stroke="#206234" stroke-width="0.389761"/>
<path d="M7714.88 232.013V225.582H7717.8V232.013H7724.62V238.443H7733.2V244.679H7724.62V238.443H7717.8V232.013H7714.88Z" fill="#26733D"/>
<path d="M7717.8 232.013H7714.88V225.582H7717.8V232.013ZM7717.8 232.013V238.443H7724.62M7717.8 232.013H7724.62V238.443M7724.62 238.443V244.679H7733.2V238.443H7724.62Z" stroke="#26733D" stroke-width="0.389761"/>
<path d="M7749.18 213.11V206.484H7758.14V212.915L7749.18 213.11Z" fill="#26733D" stroke="#26733D" stroke-width="0.389761"/>
<path d="M7762.82 162.249H7706.5V175.695H7695V181.541H7774.71V175.695H7762.82V162.249Z" fill="#26733D" stroke="#26733D" stroke-width="0.389761"/>
<path d="M7709.42 181.736H7760.09V206.484H7709.42V181.736Z" fill="black"/>
<rect x="7744.11" y="206.484" width="5.06714" height="6.6256" fill="black"/>
<rect x="7739.05" y="206.484" width="5.06714" height="6.6256" fill="black"/>
<rect x="7753.47" y="189.336" width="5.45692" height="9.35379" fill="#FAFF15"/>
<rect x="7736.32" y="189.336" width="5.45692" height="9.35379" fill="#FAFF15"/>
<rect x="7709.81" y="168.29" width="3.11824" height="3.50767" fill="#FF9315"/>
<rect x="7757.36" y="164.003" width="3.11824" height="3.50767" fill="#FF9315"/>
<rect x="7712.93" y="171.798" width="7.40583" height="3.50767" fill="#FF9315"/>
<rect x="7794.78" y="231.818" width="2.72846" height="10.1333" fill="#FF9315"/>
<rect x="7794" y="219.346" width="6.23649" height="6.23586" fill="#FF9315"/>
<rect x="7788.55" y="231.818" width="2.72846" height="10.1333" fill="#FF9315"/>
<rect x="7801.02" y="231.818" width="2.72846" height="10.1333" fill="#FF9315"/>
<path d="M7717.8 289.694H7724.23V301.581H7717.8V289.694Z" fill="#26733D"/>
<path d="M7743.14 289.694H7749.76V301.581H7743.14V289.694Z" fill="#26733D"/>
<path d="M7733.39 244.874H7730.86V256.956H7733.39V244.874Z" fill="white"/>
<path d="M7749.37 250.982L7743.14 250.974V256.956H7749.37V250.982Z" fill="white"/>
<rect x="8064" y="231" width="8.74487" height="8.74399" fill="#111111"/>
<path d="M2456.88 263.777V232.208H2459.61V238.638H2466.43V244.874H2472.67V257.151H2491.57V250.979H2497.42V263.777H2491.57V289.499H2485.33V263.777H2466.04V289.499H2460V263.777H2456.88Z" fill="black" stroke="black" stroke-width="0.389761"/>
<path d="M2548.67 244.614V238.443H2475.59V256.761H2484.92V250.784H2491.33H2529.24V244.614H2541.68H2548.67Z" fill="#122132" stroke="#122132" stroke-width="0.389761"/>
<path d="M2548.67 225.777H2460V231.818H2466.82V238.249H2548.67V225.777Z" fill="#182738" stroke="#182738" stroke-width="0.389761"/>
<path d="M2452.98 213.11V206.484H2481.04V212.915L2452.98 213.11Z" fill="#26733D" stroke="#26733D" stroke-width="0.389761"/>
<path d="M2456.88 225.582V213.305H2497.42V225.215L2456.88 225.582Z" fill="#206234" stroke="#206234" stroke-width="0.389761"/>
<path d="M2456.88 232.013V225.582H2459.8V232.013H2466.62V238.443H2475.2V244.679H2466.62V238.443H2459.8V232.013H2456.88Z" fill="#26733D"/>
<path d="M2459.8 232.013H2456.88V225.582H2459.8V232.013ZM2459.8 232.013V238.443H2466.62M2459.8 232.013H2466.62V238.443M2466.62 238.443V244.679H2475.2V238.443H2466.62Z" stroke="#26733D" stroke-width="0.389761"/>
<path d="M2491.18 213.11V206.484H2500.14V212.915L2491.18 213.11Z" fill="#26733D" stroke="#26733D" stroke-width="0.389761"/>
<path d="M2504.82 162.249H2448.5V175.695H2437V181.541H2516.71V175.695H2504.82V162.249Z" fill="#26733D" stroke="#26733D" stroke-width="0.389761"/>
<path d="M2451.42 181.736H2502.09V206.484H2451.42V181.736Z" fill="black"/>
<rect x="2486.11" y="206.484" width="5.06714" height="6.6256" fill="black"/>
<rect x="2481.05" y="206.484" width="5.06714" height="6.6256" fill="black"/>
<rect x="2495.47" y="189.336" width="5.45692" height="9.35379" fill="#FAFF15"/>
<rect x="2478.32" y="189.336" width="5.45692" height="9.35379" fill="#FAFF15"/>
<rect x="2451.81" y="168.29" width="3.11824" height="3.50767" fill="#FF9315"/>
<rect x="2499.36" y="164.003" width="3.11824" height="3.50767" fill="#FF9315"/>
<rect x="2454.93" y="171.798" width="7.40583" height="3.50767" fill="#FF9315"/>
<rect x="2536.78" y="231.818" width="2.72846" height="10.1333" fill="#FF9315"/>
<rect x="2536" y="219.346" width="6.23649" height="6.23586" fill="#FF9315"/>
<rect x="2530.55" y="231.818" width="2.72846" height="10.1333" fill="#FF9315"/>
<rect x="2543.02" y="231.818" width="2.72846" height="10.1333" fill="#FF9315"/>
<path d="M2459.8 289.694H2466.23V301.581H2459.8V289.694Z" fill="#26733D"/>
<path d="M2485.14 289.694H2491.76V301.581H2485.14V289.694Z" fill="#26733D"/>
<path d="M2475.39 244.874H2472.86V256.956H2475.39V244.874Z" fill="white"/>
<path d="M2491.37 250.982L2485.14 250.974V256.956H2491.37V250.982Z" fill="white"/>
<path d="M2880.13 0H2827.86V17.488H2819.12V34.976H2810.38V61.2079H2854.1V104.72H2862.84V61.2079H2889.08V26.232H2880.13V0Z" fill="#314A46" stroke="#314A46" stroke-width="0.971603"/>
<rect x="2810.38" y="61.208" width="8.74487" height="8.74399" fill="white"/>
<rect x="2845.36" y="61.2075" width="8.74487" height="8.74399" fill="white"/>
<rect x="2880.33" y="61.2075" width="8.74487" height="8.74399" fill="white"/>
<rect x="2880.33" y="96.6001" width="8.74487" height="16.6552" fill="white"/>
<rect x="2836.61" y="92.4365" width="8.74487" height="20.819" fill="white"/>
<rect x="2810.38" y="104.511" width="8.74487" height="8.74399" fill="white"/>
<rect x="2862.84" y="104.511" width="8.74487" height="8.74399" fill="white"/>
<rect x="2845.36" y="104.511" width="17.4897" height="8.74399" fill="#6F1E27"/>
<rect x="2871.59" y="104.511" width="8.74487" height="8.74399" fill="#6F1E27"/>
<rect x="2889.08" y="104.511" width="17.4897" height="8.74399" fill="#6F1E27"/>
<rect x="2906.57" y="96.6001" width="8.74487" height="8.74399" fill="#6F1E27"/>
<rect x="2862.84" y="61.208" width="8.74487" height="15.8225" fill="white"/>
<rect x="2827.86" y="61.208" width="8.74487" height="22.0682" fill="white"/>
<path d="M2810.38 113.255L2889.08 113.464V174.671H2880.27V270.647H2880.33H2889.08V349.135H2880.33V270.647H2880.27H2871.59V200.903H2862.84V183.415H2854.1V165.928H2845.35V174.671H2836.61V192.159H2827.86V200.903H2819.12V349.135H2810.38V113.255Z" fill="#314A46"/>
<path d="M2880.33 270.647H2880.27V174.671H2889.08V113.464L2810.38 113.255V349.135H2819.12V200.903H2827.86V192.159H2836.61V174.671H2845.35V165.927H2854.1V183.415H2862.84V200.903H2871.59V270.647H2880.33ZM2880.33 270.647H2889.08V349.135H2880.33V270.647Z" stroke="#314A46" stroke-width="0.971603"/>
<rect x="2756" y="231" width="8.74487" height="8.74399" fill="#FAFF15"/>
</g>
<defs>
<clipPath id="clip0_364_1047">
<rect width="8173" height="349" fill="white"/>
</clipPath>
</defs>
</svg>
