<svg width="1215" height="372" viewBox="0 0 1215 372" fill="none" xmlns="http://www.w3.org/2000/svg">
<rect x="159" y="19" width="148.424" height="12.1341" fill="white"/>
<rect x="235.547" y="30.2007" width="99.8831" height="12.1341" fill="white"/>
<rect x="1214.48" y="15.8677" width="100.817" height="8.40053" transform="rotate(-180 1214.48 15.8677)" fill="white"/>
<rect x="1162.21" y="8.40039" width="67.211" height="8.40053" transform="rotate(-180 1162.21 8.40039)" fill="white"/>
<rect x="119.484" y="371.868" width="100.817" height="8.40053" transform="rotate(-180 119.484 371.868)" fill="white"/>
<rect x="67.2109" y="364.4" width="67.211" height="8.40053" transform="rotate(-180 67.2109 364.4)" fill="white"/>
<rect x="126" y="214" width="40.1399" height="12.1341" fill="white"/>
<rect x="151.203" y="219.601" width="40.1399" height="12.1341" fill="white"/>
<rect x="669.113" y="175.082" width="40.1399" height="12.1341" fill="white"/>
<rect x="694.32" y="180.682" width="40.1399" height="12.1341" fill="white"/>
<rect x="524.539" y="66" width="108.284" height="12.1341" fill="white"/>
<rect x="504" y="71.6006" width="40.1399" height="12.1341" fill="white"/>
</svg>
