<svg width="563" height="367" viewBox="0 0 563 367" fill="none" xmlns="http://www.w3.org/2000/svg">
<g filter="url(#filter0_b_383_8837)">
<rect width="563" height="367" fill="black" fill-opacity="0.79"/>
</g>
<rect x="0.807361" y="0.807361" width="561.385" height="365.385" stroke="#206234" stroke-width="1.61472"/>
<path d="M120.091 178.931V166.358H123.657C124.805 166.358 125.701 166.645 126.344 167.219C126.998 167.793 127.325 168.591 127.325 169.613C127.325 170.187 127.205 170.687 126.964 171.112C126.722 171.537 126.378 171.864 125.93 172.094C125.494 172.323 124.966 172.432 124.346 172.421V172.162C125.012 172.151 125.586 172.277 126.068 172.541C126.562 172.805 126.941 173.184 127.205 173.678C127.48 174.172 127.618 174.758 127.618 175.435C127.618 176.147 127.469 176.767 127.17 177.295C126.872 177.823 126.447 178.231 125.896 178.518C125.345 178.794 124.684 178.931 123.915 178.931H120.091ZM121.607 177.536H123.743C124.466 177.536 125.035 177.347 125.448 176.968C125.873 176.577 126.085 176.049 126.085 175.383C126.085 174.694 125.873 174.137 125.448 173.713C125.035 173.276 124.466 173.058 123.743 173.058H121.607V177.536ZM121.607 171.715H123.639C124.305 171.715 124.828 171.537 125.207 171.181C125.597 170.825 125.792 170.343 125.792 169.734C125.792 169.125 125.603 168.643 125.224 168.287C124.845 167.931 124.323 167.753 123.657 167.753H121.607V171.715ZM134.931 179.104C134.174 179.104 133.519 178.96 132.968 178.673C132.428 178.386 132.009 177.973 131.711 177.433C131.424 176.882 131.28 176.233 131.28 175.487V169.803C131.28 169.045 131.424 168.396 131.711 167.857C132.009 167.317 132.428 166.904 132.968 166.616C133.519 166.329 134.174 166.186 134.931 166.186C135.689 166.186 136.338 166.329 136.878 166.616C137.429 166.904 137.848 167.317 138.135 167.857C138.434 168.396 138.583 169.039 138.583 169.786V175.487C138.583 176.233 138.434 176.882 138.135 177.433C137.848 177.973 137.429 178.386 136.878 178.673C136.338 178.96 135.689 179.104 134.931 179.104ZM134.931 177.709C135.609 177.709 136.126 177.519 136.482 177.14C136.849 176.75 137.033 176.199 137.033 175.487V169.803C137.033 169.091 136.849 168.545 136.482 168.167C136.126 167.776 135.609 167.581 134.931 167.581C134.265 167.581 133.749 167.776 133.381 168.167C133.014 168.545 132.83 169.091 132.83 169.803V175.487C132.83 176.199 133.014 176.75 133.381 177.14C133.749 177.519 134.265 177.709 134.931 177.709ZM146.275 179.104C145.517 179.104 144.857 178.96 144.294 178.673C143.743 178.386 143.313 177.973 143.003 177.433C142.704 176.882 142.555 176.233 142.555 175.487V169.803C142.555 169.045 142.704 168.396 143.003 167.857C143.313 167.317 143.743 166.904 144.294 166.616C144.857 166.329 145.517 166.186 146.275 166.186C147.033 166.186 147.687 166.335 148.239 166.634C148.79 166.921 149.215 167.334 149.513 167.874C149.812 168.413 149.961 169.056 149.961 169.803H148.411C148.411 169.091 148.221 168.545 147.842 168.167C147.475 167.776 146.953 167.581 146.275 167.581C145.598 167.581 145.064 167.77 144.673 168.149C144.294 168.528 144.105 169.074 144.105 169.786V175.487C144.105 176.199 144.294 176.75 144.673 177.14C145.064 177.519 145.598 177.709 146.275 177.709C146.953 177.709 147.475 177.519 147.842 177.14C148.221 176.75 148.411 176.199 148.411 175.487H149.961C149.961 176.222 149.812 176.865 149.513 177.416C149.215 177.955 148.79 178.374 148.239 178.673C147.687 178.96 147.033 179.104 146.275 179.104ZM153.933 178.931V166.358H161.029V178.931H159.479V167.77H155.483V178.931H153.933ZM168.756 179.104C167.998 179.104 167.343 178.96 166.792 178.673C166.253 178.386 165.834 177.973 165.535 177.433C165.248 176.882 165.104 176.233 165.104 175.487V169.803C165.104 169.045 165.248 168.396 165.535 167.857C165.834 167.317 166.253 166.904 166.792 166.616C167.343 166.329 167.998 166.186 168.756 166.186C169.514 166.186 170.162 166.329 170.702 166.616C171.253 166.904 171.672 167.317 171.959 167.857C172.258 168.396 172.407 169.039 172.407 169.786V175.487C172.407 176.233 172.258 176.882 171.959 177.433C171.672 177.973 171.253 178.386 170.702 178.673C170.162 178.96 169.514 179.104 168.756 179.104ZM168.756 177.709C169.433 177.709 169.95 177.519 170.306 177.14C170.673 176.75 170.857 176.199 170.857 175.487V169.803C170.857 169.091 170.673 168.545 170.306 168.167C169.95 167.776 169.433 167.581 168.756 167.581C168.09 167.581 167.573 167.776 167.206 168.167C166.838 168.545 166.655 169.091 166.655 169.803V175.487C166.655 176.199 166.838 176.75 167.206 177.14C167.573 177.519 168.09 177.709 168.756 177.709ZM176.173 178.931V166.358H178.205L179.514 170.423C179.64 170.79 179.755 171.158 179.858 171.525C179.962 171.881 180.036 172.157 180.082 172.352C180.14 172.157 180.214 171.881 180.306 171.525C180.398 171.158 180.501 170.785 180.616 170.406L181.856 166.358H183.889V178.931H182.373V174.367C182.373 173.862 182.39 173.288 182.425 172.645C182.459 172.002 182.505 171.347 182.563 170.681C182.62 170.004 182.677 169.361 182.735 168.752C182.804 168.132 182.861 167.592 182.907 167.133L180.875 173.42H179.238L177.189 167.133C177.246 167.581 177.304 168.103 177.361 168.701C177.418 169.286 177.47 169.912 177.516 170.578C177.562 171.232 177.602 171.887 177.637 172.541C177.671 173.196 177.688 173.804 177.688 174.367V178.931H176.173ZM187.688 178.931V166.358H189.187V173.42C189.187 173.833 189.175 174.275 189.152 174.746C189.141 175.205 189.124 175.647 189.101 176.072C189.078 176.486 189.055 176.836 189.032 177.123L192.856 166.358H194.922V178.931H193.424V171.87C193.424 171.445 193.43 171.003 193.441 170.543C193.464 170.073 193.487 169.631 193.51 169.217C193.545 168.792 193.573 168.442 193.596 168.167L189.755 178.931H187.688ZM199.015 178.931V166.358H200.565V171.732H204.595V166.358H206.146V178.931H204.595V173.144H200.565V178.931H199.015ZM209.549 178.931L212.822 166.358H214.906L218.161 178.931H216.594L215.767 175.59H211.96L211.134 178.931H209.549ZM212.27 174.281H215.44L214.475 170.406C214.291 169.671 214.148 169.056 214.045 168.563C213.941 168.069 213.878 167.747 213.855 167.598C213.832 167.747 213.769 168.069 213.666 168.563C213.562 169.056 213.419 169.665 213.235 170.388L212.27 174.281ZM221.565 178.931V166.358H223.115V171.732H227.145V166.358H228.695V178.931H227.145V173.144H223.115V178.931H221.565ZM232.788 178.931V166.358H234.286V173.42C234.286 173.833 234.275 174.275 234.252 174.746C234.24 175.205 234.223 175.647 234.2 176.072C234.177 176.486 234.154 176.836 234.131 177.123L237.955 166.358H240.022V178.931H238.523V171.87C238.523 171.445 238.529 171.003 238.54 170.543C238.563 170.073 238.586 169.631 238.609 169.217C238.644 168.792 238.672 168.442 238.695 168.167L234.855 178.931H232.788ZM243.477 178.931L246.06 173.42C245.303 173.19 244.705 172.771 244.269 172.162C243.833 171.554 243.615 170.825 243.615 169.975C243.615 169.252 243.77 168.62 244.08 168.08C244.39 167.541 244.826 167.122 245.389 166.823C245.951 166.513 246.606 166.358 247.352 166.358H251.21V178.931H249.66V173.592H247.662L245.268 178.931H243.477ZM247.352 172.214H249.66V167.736H247.352C246.721 167.736 246.204 167.943 245.802 168.356C245.412 168.758 245.216 169.298 245.216 169.975C245.216 170.641 245.412 171.181 245.802 171.594C246.192 172.007 246.709 172.214 247.352 172.214ZM266.681 178.931V166.358H273.777V178.931H272.227V167.77H268.231V178.931H266.681ZM281.504 179.104C280.746 179.104 280.091 178.96 279.54 178.673C279.001 178.386 278.582 177.973 278.283 177.433C277.996 176.882 277.852 176.233 277.852 175.487V169.803C277.852 169.045 277.996 168.396 278.283 167.857C278.582 167.317 279.001 166.904 279.54 166.616C280.091 166.329 280.746 166.186 281.504 166.186C282.262 166.186 282.91 166.329 283.45 166.616C284.001 166.904 284.42 167.317 284.707 167.857C285.006 168.396 285.155 169.039 285.155 169.786V175.487C285.155 176.233 285.006 176.882 284.707 177.433C284.42 177.973 284.001 178.386 283.45 178.673C282.91 178.96 282.262 179.104 281.504 179.104ZM281.504 177.709C282.181 177.709 282.698 177.519 283.054 177.14C283.421 176.75 283.605 176.199 283.605 175.487V169.803C283.605 169.091 283.421 168.545 283.054 168.167C282.698 167.776 282.181 167.581 281.504 167.581C280.838 167.581 280.321 167.776 279.954 168.167C279.586 168.545 279.403 169.091 279.403 169.803V175.487C279.403 176.199 279.586 176.75 279.954 177.14C280.321 177.519 280.838 177.709 281.504 177.709ZM288.042 181.343V177.605H288.817C288.944 177.376 289.076 177.065 289.213 176.675C289.351 176.285 289.472 175.843 289.575 175.349C289.678 174.855 289.736 174.338 289.747 173.799L289.868 166.358H296.31V177.605H297.515V181.343H296.137V178.931H289.42V181.343H288.042ZM290.436 177.605H294.759V167.736H291.349L291.263 173.799C291.251 174.683 291.154 175.464 290.97 176.141C290.786 176.819 290.608 177.307 290.436 177.605ZM300.488 178.931V166.358H304.053C305.202 166.358 306.097 166.645 306.74 167.219C307.395 167.793 307.722 168.591 307.722 169.613C307.722 170.187 307.602 170.687 307.36 171.112C307.119 171.537 306.775 171.864 306.327 172.094C305.891 172.323 305.362 172.432 304.742 172.421V172.162C305.408 172.151 305.983 172.277 306.465 172.541C306.959 172.805 307.337 173.184 307.602 173.678C307.877 174.172 308.015 174.758 308.015 175.435C308.015 176.147 307.866 176.767 307.567 177.295C307.269 177.823 306.844 178.231 306.293 178.518C305.741 178.794 305.081 178.931 304.312 178.931H300.488ZM302.004 177.536H304.14C304.863 177.536 305.431 177.347 305.845 176.968C306.27 176.577 306.482 176.049 306.482 175.383C306.482 174.694 306.27 174.137 305.845 173.713C305.431 173.276 304.863 173.058 304.14 173.058H302.004V177.536ZM302.004 171.715H304.036C304.702 171.715 305.225 171.537 305.604 171.181C305.994 170.825 306.189 170.343 306.189 169.734C306.189 169.125 306 168.643 305.621 168.287C305.242 167.931 304.719 167.753 304.053 167.753H302.004V171.715ZM315.328 179.104C314.57 179.104 313.916 178.96 313.365 178.673C312.825 178.386 312.406 177.973 312.107 177.433C311.82 176.882 311.677 176.233 311.677 175.487V169.803C311.677 169.045 311.82 168.396 312.107 167.857C312.406 167.317 312.825 166.904 313.365 166.616C313.916 166.329 314.57 166.186 315.328 166.186C316.086 166.186 316.735 166.329 317.275 166.616C317.826 166.904 318.245 167.317 318.532 167.857C318.83 168.396 318.98 169.039 318.98 169.786V175.487C318.98 176.233 318.83 176.882 318.532 177.433C318.245 177.973 317.826 178.386 317.275 178.673C316.735 178.96 316.086 179.104 315.328 179.104ZM315.328 177.709C316.006 177.709 316.522 177.519 316.878 177.14C317.246 176.75 317.43 176.199 317.43 175.487V169.803C317.43 169.091 317.246 168.545 316.878 168.167C316.522 167.776 316.006 167.581 315.328 167.581C314.662 167.581 314.146 167.776 313.778 168.167C313.411 168.545 313.227 169.091 313.227 169.803V175.487C313.227 176.199 313.411 176.75 313.778 177.14C314.146 177.519 314.662 177.709 315.328 177.709ZM321.867 181.343V177.605H322.642C322.768 177.376 322.9 177.065 323.038 176.675C323.176 176.285 323.296 175.843 323.399 175.349C323.503 174.855 323.56 174.338 323.572 173.799L323.692 166.358H330.134V177.605H331.34V181.343H329.962V178.931H323.244V181.343H321.867ZM324.261 177.605H328.584V167.736H325.173L325.087 173.799C325.076 174.683 324.978 175.464 324.795 176.141C324.611 176.819 324.433 177.307 324.261 177.605ZM333.675 178.931L336.259 173.42C335.501 173.19 334.904 172.771 334.468 172.162C334.031 171.554 333.813 170.825 333.813 169.975C333.813 169.252 333.968 168.62 334.278 168.08C334.588 167.541 335.024 167.122 335.587 166.823C336.15 166.513 336.804 166.358 337.551 166.358H341.409V178.931H339.859V173.592H337.861L335.467 178.931H333.675ZM337.551 172.214H339.859V167.736H337.551C336.919 167.736 336.402 167.943 336 168.356C335.61 168.758 335.415 169.298 335.415 169.975C335.415 170.641 335.61 171.181 336 171.594C336.391 172.007 336.908 172.214 337.551 172.214ZM348.378 178.931V167.753H344.933V166.341H353.372V167.753H349.928V178.931H348.378ZM367.844 178.931V166.358H369.877L371.186 170.423C371.312 170.79 371.427 171.158 371.53 171.525C371.633 171.881 371.708 172.157 371.754 172.352C371.811 172.157 371.886 171.881 371.978 171.525C372.07 171.158 372.173 170.785 372.288 170.406L373.528 166.358H375.56V178.931H374.045V174.367C374.045 173.862 374.062 173.288 374.096 172.645C374.131 172.002 374.177 171.347 374.234 170.681C374.292 170.004 374.349 169.361 374.406 168.752C374.475 168.132 374.533 167.592 374.579 167.133L372.546 173.42H370.91L368.86 167.133C368.918 167.581 368.975 168.103 369.033 168.701C369.09 169.286 369.142 169.912 369.188 170.578C369.234 171.232 369.274 171.887 369.308 172.541C369.343 173.196 369.36 173.804 369.36 174.367V178.931H367.844ZM379.532 178.931V166.358H386.766V167.77H381.065V171.663H386.163V173.058H381.065V177.519H386.766V178.931H379.532ZM390.687 178.931V166.358H392.237V171.732H396.267V166.358H397.817V178.931H396.267V173.144H392.237V178.931H390.687ZM401.324 178.931L403.908 173.42C403.15 173.19 402.553 172.771 402.116 172.162C401.68 171.554 401.462 170.825 401.462 169.975C401.462 169.252 401.617 168.62 401.927 168.08C402.237 167.541 402.673 167.122 403.236 166.823C403.799 166.513 404.453 166.358 405.199 166.358H409.058V178.931H407.507V173.592H405.509L403.115 178.931H401.324ZM405.199 172.214H407.507V167.736H405.199C404.568 167.736 404.051 167.943 403.649 168.356C403.259 168.758 403.064 169.298 403.064 169.975C403.064 170.641 403.259 171.181 403.649 171.594C404.04 172.007 404.556 172.214 405.199 172.214ZM420.439 179.104C420.003 179.104 419.659 178.977 419.406 178.725C419.142 178.472 419.01 178.133 419.01 177.709C419.01 177.261 419.142 176.905 419.406 176.641C419.659 176.377 420.003 176.244 420.439 176.244C420.876 176.244 421.226 176.377 421.49 176.641C421.743 176.905 421.869 177.261 421.869 177.709C421.869 178.133 421.743 178.472 421.49 178.725C421.226 178.977 420.876 179.104 420.439 179.104ZM429.034 179.104C428.598 179.104 428.253 178.977 428.001 178.725C427.737 178.472 427.605 178.133 427.605 177.709C427.605 177.261 427.737 176.905 428.001 176.641C428.253 176.377 428.598 176.244 429.034 176.244C429.47 176.244 429.821 176.377 430.085 176.641C430.337 176.905 430.464 177.261 430.464 177.709C430.464 178.133 430.337 178.472 430.085 178.725C429.821 178.977 429.47 179.104 429.034 179.104ZM437.629 179.104C437.192 179.104 436.842 178.977 436.578 178.725C436.325 178.472 436.199 178.133 436.199 177.709C436.199 177.261 436.325 176.905 436.578 176.641C436.842 176.377 437.192 176.244 437.629 176.244C438.065 176.244 438.41 176.377 438.662 176.641C438.926 176.905 439.058 177.261 439.058 177.709C439.058 178.133 438.926 178.472 438.662 178.725C438.41 178.977 438.065 179.104 437.629 179.104ZM117.373 199.104C116.593 199.104 115.904 198.966 115.306 198.69C114.709 198.415 114.233 198.024 113.877 197.519C113.532 197.014 113.337 196.422 113.291 195.745H114.841C114.91 196.354 115.174 196.836 115.634 197.192C116.093 197.548 116.673 197.726 117.373 197.726C118.154 197.726 118.768 197.519 119.216 197.106C119.676 196.692 119.905 196.153 119.905 195.487C119.905 194.809 119.676 194.27 119.216 193.868C118.757 193.454 118.143 193.248 117.373 193.248H115.823V191.835H117.356C118.057 191.835 118.619 191.617 119.044 191.181C119.469 190.744 119.681 190.21 119.681 189.579C119.681 188.936 119.469 188.442 119.044 188.098C118.631 187.742 118.068 187.564 117.356 187.564C116.656 187.564 116.093 187.765 115.668 188.167C115.243 188.557 115.031 189.074 115.031 189.717H113.481C113.481 189.005 113.642 188.385 113.963 187.857C114.285 187.328 114.732 186.921 115.306 186.634C115.892 186.335 116.575 186.186 117.356 186.186C118.562 186.186 119.521 186.461 120.232 187.013C120.944 187.564 121.3 188.35 121.3 189.372C121.3 189.946 121.174 190.463 120.921 190.922C120.68 191.37 120.33 191.72 119.871 191.973C119.423 192.226 118.889 192.346 118.269 192.335V192.076C118.935 192.065 119.509 192.197 119.991 192.473C120.485 192.737 120.864 193.121 121.128 193.626C121.404 194.12 121.541 194.706 121.541 195.383C121.541 196.107 121.369 196.75 121.025 197.312C120.692 197.864 120.21 198.3 119.578 198.621C118.958 198.943 118.223 199.104 117.373 199.104ZM125.255 198.931V186.358H126.805V191.732H130.836V186.358H132.386V198.931H130.836V193.144H126.805V198.931H125.255ZM135.789 198.931L139.062 186.358H141.146L144.401 198.931H142.834L142.007 195.59H138.201L137.374 198.931H135.789ZM138.511 194.281H141.68L140.715 190.406C140.532 189.671 140.388 189.056 140.285 188.563C140.181 188.069 140.118 187.747 140.095 187.598C140.072 187.747 140.009 188.069 139.906 188.563C139.802 189.056 139.659 189.665 139.475 190.388L138.511 194.281ZM147.787 198.931V186.358H149.338V191.749H151.198L153.988 186.358H155.676L152.558 192.404L155.848 198.931H154.074L151.146 193.11H149.338V198.931H147.787ZM162.645 199.104C161.887 199.104 161.232 198.96 160.681 198.673C160.142 198.386 159.722 197.973 159.424 197.433C159.137 196.882 158.993 196.233 158.993 195.487V189.803C158.993 189.045 159.137 188.396 159.424 187.857C159.722 187.317 160.142 186.904 160.681 186.616C161.232 186.329 161.887 186.186 162.645 186.186C163.403 186.186 164.051 186.329 164.591 186.616C165.142 186.904 165.561 187.317 165.848 187.857C166.147 188.396 166.296 189.039 166.296 189.786V195.487C166.296 196.233 166.147 196.882 165.848 197.433C165.561 197.973 165.142 198.386 164.591 198.673C164.051 198.96 163.403 199.104 162.645 199.104ZM162.645 197.709C163.322 197.709 163.839 197.519 164.195 197.14C164.562 196.75 164.746 196.199 164.746 195.487V189.803C164.746 189.091 164.562 188.545 164.195 188.167C163.839 187.776 163.322 187.581 162.645 187.581C161.979 187.581 161.462 187.776 161.095 188.167C160.727 188.545 160.543 189.091 160.543 189.803V195.487C160.543 196.199 160.727 196.75 161.095 197.14C161.462 197.519 161.979 197.709 162.645 197.709ZM170.061 198.931V186.358H172.094L173.403 190.423C173.529 190.79 173.644 191.158 173.747 191.525C173.851 191.881 173.925 192.157 173.971 192.352C174.029 192.157 174.103 191.881 174.195 191.525C174.287 191.158 174.39 190.785 174.505 190.406L175.745 186.358H177.778V198.931H176.262V194.367C176.262 193.862 176.279 193.288 176.314 192.645C176.348 192.002 176.394 191.347 176.451 190.681C176.509 190.004 176.566 189.361 176.624 188.752C176.693 188.132 176.75 187.592 176.796 187.133L174.764 193.42H173.127L171.078 187.133C171.135 187.581 171.192 188.103 171.25 188.701C171.307 189.286 171.359 189.912 171.405 190.578C171.451 191.232 171.491 191.887 171.525 192.541C171.56 193.196 171.577 193.804 171.577 194.367V198.931H170.061ZM181.147 198.931V186.358H182.594V191.525H183.3C184.345 191.525 185.166 191.818 185.763 192.404C186.371 192.989 186.676 193.787 186.676 194.798V195.676C186.676 196.687 186.377 197.485 185.78 198.07C185.183 198.644 184.356 198.931 183.3 198.931H181.147ZM182.594 197.571H183.3C183.908 197.571 184.373 197.404 184.695 197.071C185.028 196.727 185.194 196.256 185.194 195.659V194.798C185.194 194.189 185.028 193.718 184.695 193.385C184.373 193.052 183.908 192.886 183.3 192.886H182.594V197.571ZM187.795 198.931V186.358H189.242V198.931H187.795ZM192.852 198.931V186.358H194.351V193.42C194.351 193.833 194.339 194.275 194.316 194.746C194.305 195.205 194.288 195.647 194.265 196.072C194.242 196.486 194.219 196.836 194.196 197.123L198.019 186.358H200.086V198.931H198.588V191.87C198.588 191.445 198.593 191.003 198.605 190.543C198.628 190.073 198.651 189.631 198.674 189.217C198.708 188.792 198.737 188.442 198.76 188.167L194.919 198.931H192.852ZM196.469 185.066C195.642 185.066 194.976 184.837 194.471 184.377C193.966 183.918 193.713 183.315 193.713 182.569H194.936C194.936 183.017 195.074 183.378 195.35 183.654C195.625 183.93 195.993 184.067 196.452 184.067C196.923 184.067 197.296 183.93 197.572 183.654C197.859 183.378 198.002 183.017 198.002 182.569H199.225C199.225 183.315 198.972 183.918 198.467 184.377C197.962 184.837 197.296 185.066 196.469 185.066ZM219.019 199.104C218.261 199.104 217.606 198.96 217.055 198.673C216.516 198.386 216.097 197.973 215.798 197.433C215.511 196.882 215.367 196.233 215.367 195.487V189.803C215.367 189.045 215.511 188.396 215.798 187.857C216.097 187.317 216.516 186.904 217.055 186.616C217.606 186.329 218.261 186.186 219.019 186.186C219.777 186.186 220.425 186.329 220.965 186.616C221.516 186.904 221.935 187.317 222.222 187.857C222.521 188.396 222.67 189.039 222.67 189.786V195.487C222.67 196.233 222.521 196.882 222.222 197.433C221.935 197.973 221.516 198.386 220.965 198.673C220.425 198.96 219.777 199.104 219.019 199.104ZM219.019 197.709C219.696 197.709 220.213 197.519 220.569 197.14C220.936 196.75 221.12 196.199 221.12 195.487V189.803C221.12 189.091 220.936 188.545 220.569 188.167C220.213 187.776 219.696 187.581 219.019 187.581C218.353 187.581 217.836 187.776 217.469 188.167C217.101 188.545 216.917 189.091 216.917 189.803V195.487C216.917 196.199 217.101 196.75 217.469 197.14C217.836 197.519 218.353 197.709 219.019 197.709ZM226.746 198.931V186.358H233.738V187.77H228.296V191.56H230.38C231.183 191.56 231.872 191.715 232.447 192.025C233.021 192.323 233.463 192.748 233.773 193.299C234.094 193.85 234.255 194.499 234.255 195.246C234.255 195.992 234.094 196.641 233.773 197.192C233.463 197.743 233.021 198.174 232.447 198.484C231.872 198.782 231.183 198.931 230.38 198.931H226.746ZM228.296 197.519H230.38C231.092 197.519 231.649 197.318 232.05 196.916C232.452 196.503 232.653 195.946 232.653 195.246C232.653 194.534 232.452 193.977 232.05 193.575C231.649 193.173 231.092 192.972 230.38 192.972H228.296V197.519ZM237.986 198.931V186.358H242.033C242.814 186.358 243.492 186.513 244.066 186.823C244.64 187.122 245.082 187.547 245.392 188.098C245.714 188.649 245.874 189.303 245.874 190.061C245.874 190.808 245.714 191.462 245.392 192.025C245.082 192.576 244.64 193.006 244.066 193.316C243.492 193.615 242.814 193.764 242.033 193.764H239.536V198.931H237.986ZM239.536 192.369H242.033C242.711 192.369 243.251 192.162 243.652 191.749C244.066 191.324 244.273 190.762 244.273 190.061C244.273 189.349 244.066 188.787 243.652 188.373C243.251 187.96 242.711 187.753 242.033 187.753H239.536V192.369ZM248.537 198.931L251.81 186.358H253.894L257.149 198.931H255.582L254.755 195.59H250.949L250.122 198.931H248.537ZM251.259 194.281H254.428L253.463 190.406C253.28 189.671 253.136 189.056 253.033 188.563C252.929 188.069 252.866 187.747 252.843 187.598C252.82 187.747 252.757 188.069 252.654 188.563C252.55 189.056 252.407 189.665 252.223 190.388L251.259 194.281ZM263.946 199.104C263.165 199.104 262.476 198.966 261.879 198.69C261.282 198.415 260.805 198.024 260.449 197.519C260.105 197.014 259.91 196.422 259.864 195.745H261.414C261.483 196.354 261.747 196.836 262.206 197.192C262.665 197.548 263.245 197.726 263.946 197.726C264.727 197.726 265.341 197.519 265.789 197.106C266.248 196.692 266.478 196.153 266.478 195.487C266.478 194.809 266.248 194.27 265.789 193.868C265.329 193.454 264.715 193.248 263.946 193.248H262.396V191.835H263.929C264.629 191.835 265.192 191.617 265.616 191.181C266.041 190.744 266.254 190.21 266.254 189.579C266.254 188.936 266.041 188.442 265.616 188.098C265.203 187.742 264.64 187.564 263.929 187.564C263.228 187.564 262.665 187.765 262.241 188.167C261.816 188.557 261.603 189.074 261.603 189.717H260.053C260.053 189.005 260.214 188.385 260.535 187.857C260.857 187.328 261.305 186.921 261.879 186.634C262.465 186.335 263.148 186.186 263.929 186.186C265.134 186.186 266.093 186.461 266.805 187.013C267.517 187.564 267.873 188.35 267.873 189.372C267.873 189.946 267.746 190.463 267.494 190.922C267.253 191.37 266.902 191.72 266.443 191.973C265.995 192.226 265.461 192.346 264.841 192.335V192.076C265.507 192.065 266.081 192.197 266.564 192.473C267.058 192.737 267.436 193.121 267.701 193.626C267.976 194.12 268.114 194.706 268.114 195.383C268.114 196.107 267.942 196.75 267.597 197.312C267.264 197.864 266.782 198.3 266.15 198.621C265.53 198.943 264.795 199.104 263.946 199.104ZM281.931 201.343V197.605H282.706C282.832 197.376 282.965 197.065 283.102 196.675C283.24 196.285 283.361 195.843 283.464 195.349C283.567 194.855 283.625 194.338 283.636 193.799L283.757 186.358H290.198V197.605H291.404V201.343H290.026V198.931H283.309V201.343H281.931ZM284.325 197.605H288.648V187.736H285.238L285.152 193.799C285.14 194.683 285.043 195.464 284.859 196.141C284.675 196.819 284.497 197.307 284.325 197.605ZM294.498 198.931V186.358H301.732V187.77H296.031V191.663H301.129V193.058H296.031V197.519H301.732V198.931H294.498ZM305.359 198.931V186.358H307.391L308.7 190.423C308.827 190.79 308.942 191.158 309.045 191.525C309.148 191.881 309.223 192.157 309.269 192.352C309.326 192.157 309.401 191.881 309.493 191.525C309.585 191.158 309.688 190.785 309.803 190.406L311.043 186.358H313.075V198.931H311.56V194.367C311.56 193.862 311.577 193.288 311.611 192.645C311.646 192.002 311.692 191.347 311.749 190.681C311.807 190.004 311.864 189.361 311.921 188.752C311.99 188.132 312.048 187.592 312.094 187.133L310.061 193.42H308.425L306.375 187.133C306.433 187.581 306.49 188.103 306.548 188.701C306.605 189.286 306.657 189.912 306.703 190.578C306.748 191.232 306.789 191.887 306.823 192.541C306.858 193.196 306.875 193.804 306.875 194.367V198.931H305.359ZM320.492 199.104C319.734 199.104 319.08 198.96 318.529 198.673C317.989 198.386 317.57 197.973 317.271 197.433C316.984 196.882 316.841 196.233 316.841 195.487V189.803C316.841 189.045 316.984 188.396 317.271 187.857C317.57 187.317 317.989 186.904 318.529 186.616C319.08 186.329 319.734 186.186 320.492 186.186C321.25 186.186 321.899 186.329 322.438 186.616C322.989 186.904 323.409 187.317 323.696 187.857C323.994 188.396 324.143 189.039 324.143 189.786V195.487C324.143 196.233 323.994 196.882 323.696 197.433C323.409 197.973 322.989 198.386 322.438 198.673C321.899 198.96 321.25 199.104 320.492 199.104ZM320.492 197.709C321.169 197.709 321.686 197.519 322.042 197.14C322.41 196.75 322.593 196.199 322.593 195.487V189.803C322.593 189.091 322.41 188.545 322.042 188.167C321.686 187.776 321.169 187.581 320.492 187.581C319.826 187.581 319.309 187.776 318.942 188.167C318.574 188.545 318.391 189.091 318.391 189.803V195.487C318.391 196.199 318.574 196.75 318.942 197.14C319.309 197.519 319.826 197.709 320.492 197.709ZM328.201 198.931V186.358H329.752V191.732H333.782V186.358H335.332V198.931H333.782V193.144H329.752V198.931H328.201ZM338.736 198.931L342.008 186.358H344.092L347.348 198.931H345.78L344.953 195.59H341.147L340.32 198.931H338.736ZM341.457 194.281H344.626L343.662 190.406C343.478 189.671 343.334 189.056 343.231 188.563C343.128 188.069 343.065 187.747 343.042 187.598C343.019 187.747 342.955 188.069 342.852 188.563C342.749 189.056 342.605 189.665 342.422 190.388L341.457 194.281ZM362.009 198.931V186.358H363.559V191.749H365.419L368.209 186.358H369.897L366.78 192.404L370.069 198.931H368.295L365.367 193.11H363.559V198.931H362.009ZM373.283 198.931V186.358H377.331C378.112 186.358 378.789 186.513 379.363 186.823C379.938 187.122 380.38 187.547 380.69 188.098C381.011 188.649 381.172 189.303 381.172 190.061C381.172 190.808 381.011 191.462 380.69 192.025C380.38 192.576 379.938 193.006 379.363 193.316C378.789 193.615 378.112 193.764 377.331 193.764H374.834V198.931H373.283ZM374.834 192.369H377.331C378.009 192.369 378.548 192.162 378.95 191.749C379.363 191.324 379.57 190.762 379.57 190.061C379.57 189.349 379.363 188.787 378.95 188.373C378.548 187.96 378.009 187.753 377.331 187.753H374.834V192.369ZM386.263 198.931L387.538 195.676L383.835 186.358H385.523L387.779 192.507C387.928 192.897 388.049 193.271 388.141 193.626C388.233 193.971 388.29 194.229 388.313 194.402C388.336 194.229 388.388 193.971 388.468 193.626C388.548 193.271 388.652 192.897 388.778 192.507L390.759 186.358H392.447L387.917 198.931H386.263ZM398.641 198.931V187.753H395.196V186.341H403.635V187.753H400.191V198.931H398.641ZM407.073 198.931V186.358H408.572V193.42C408.572 193.833 408.56 194.275 408.537 194.746C408.526 195.205 408.509 195.647 408.486 196.072C408.463 196.486 408.44 196.836 408.417 197.123L412.241 186.358H414.307V198.931H412.809V191.87C412.809 191.445 412.815 191.003 412.826 190.543C412.849 190.073 412.872 189.631 412.895 189.217C412.93 188.792 412.958 188.442 412.981 188.167L409.14 198.931H407.073ZM421.19 198.931V187.753H417.745V186.341H426.185V187.753H422.74V198.931H421.19ZM433.309 199.104C432.551 199.104 431.891 198.96 431.328 198.673C430.777 198.386 430.346 197.973 430.036 197.433C429.738 196.882 429.589 196.233 429.589 195.487V189.803C429.589 189.045 429.738 188.396 430.036 187.857C430.346 187.317 430.777 186.904 431.328 186.616C431.891 186.329 432.551 186.186 433.309 186.186C434.067 186.186 434.721 186.335 435.272 186.634C435.824 186.921 436.248 187.334 436.547 187.874C436.845 188.413 436.995 189.056 436.995 189.803H435.445C435.445 189.091 435.255 188.545 434.876 188.167C434.509 187.776 433.986 187.581 433.309 187.581C432.631 187.581 432.097 187.77 431.707 188.149C431.328 188.528 431.139 189.074 431.139 189.786V195.487C431.139 196.199 431.328 196.75 431.707 197.14C432.097 197.519 432.631 197.709 433.309 197.709C433.986 197.709 434.509 197.519 434.876 197.14C435.255 196.75 435.445 196.199 435.445 195.487H436.995C436.995 196.222 436.845 196.865 436.547 197.416C436.248 197.955 435.824 198.374 435.272 198.673C434.721 198.96 434.067 199.104 433.309 199.104ZM440.312 198.931L442.896 193.42C442.138 193.19 441.541 192.771 441.105 192.162C440.668 191.554 440.45 190.825 440.45 189.975C440.45 189.252 440.605 188.62 440.915 188.08C441.225 187.541 441.661 187.122 442.224 186.823C442.787 186.513 443.441 186.358 444.188 186.358H448.046V198.931H446.496V193.592H444.498L442.104 198.931H440.312ZM444.188 192.214H446.496V187.736H444.188C443.556 187.736 443.039 187.943 442.637 188.356C442.247 188.758 442.052 189.298 442.052 189.975C442.052 190.641 442.247 191.181 442.637 191.594C443.028 192.007 443.545 192.214 444.188 192.214ZM176.465 218.931V206.358H180.031C181.179 206.358 182.075 206.645 182.718 207.219C183.372 207.793 183.699 208.591 183.699 209.613C183.699 210.187 183.579 210.687 183.338 211.112C183.096 211.537 182.752 211.864 182.304 212.094C181.868 212.323 181.34 212.432 180.72 212.421V212.162C181.386 212.151 181.96 212.277 182.442 212.541C182.936 212.805 183.315 213.184 183.579 213.678C183.854 214.172 183.992 214.758 183.992 215.435C183.992 216.147 183.843 216.767 183.544 217.295C183.246 217.823 182.821 218.231 182.27 218.518C181.719 218.794 181.058 218.931 180.289 218.931H176.465ZM177.981 217.536H180.117C180.84 217.536 181.409 217.347 181.822 216.968C182.247 216.577 182.459 216.049 182.459 215.383C182.459 214.694 182.247 214.137 181.822 213.713C181.409 213.276 180.84 213.058 180.117 213.058H177.981V217.536ZM177.981 211.715H180.013C180.679 211.715 181.202 211.537 181.581 211.181C181.971 210.825 182.166 210.343 182.166 209.734C182.166 209.125 181.977 208.643 181.598 208.287C181.219 207.931 180.697 207.753 180.031 207.753H177.981V211.715ZM191.305 219.104C190.548 219.104 189.893 218.96 189.342 218.673C188.802 218.386 188.383 217.973 188.085 217.433C187.798 216.882 187.654 216.233 187.654 215.487V209.803C187.654 209.045 187.798 208.396 188.085 207.857C188.383 207.317 188.802 206.904 189.342 206.616C189.893 206.329 190.548 206.186 191.305 206.186C192.063 206.186 192.712 206.329 193.252 206.616C193.803 206.904 194.222 207.317 194.509 207.857C194.808 208.396 194.957 209.039 194.957 209.786V215.487C194.957 216.233 194.808 216.882 194.509 217.433C194.222 217.973 193.803 218.386 193.252 218.673C192.712 218.96 192.063 219.104 191.305 219.104ZM191.305 217.709C191.983 217.709 192.5 217.519 192.856 217.14C193.223 216.75 193.407 216.199 193.407 215.487V209.803C193.407 209.091 193.223 208.545 192.856 208.167C192.5 207.776 191.983 207.581 191.305 207.581C190.639 207.581 190.123 207.776 189.755 208.167C189.388 208.545 189.204 209.091 189.204 209.803V215.487C189.204 216.199 189.388 216.75 189.755 217.14C190.123 217.519 190.639 217.709 191.305 217.709ZM198.998 218.931V206.358H200.548V211.749H202.408L205.198 206.358H206.886L203.769 212.404L207.058 218.931H205.284L202.356 213.11H200.548V218.931H198.998ZM210.273 218.931V206.358H214.32C215.101 206.358 215.778 206.513 216.352 206.823C216.927 207.122 217.369 207.547 217.679 208.098C218 208.649 218.161 209.303 218.161 210.061C218.161 210.808 218 211.462 217.679 212.025C217.369 212.576 216.927 213.006 216.352 213.316C215.778 213.615 215.101 213.764 214.32 213.764H211.823V218.931H210.273ZM211.823 212.369H214.32C214.998 212.369 215.537 212.162 215.939 211.749C216.352 211.324 216.559 210.762 216.559 210.061C216.559 209.349 216.352 208.787 215.939 208.373C215.537 207.96 214.998 207.753 214.32 207.753H211.823V212.369ZM223.252 218.931L224.527 215.676L220.824 206.358H222.512L224.768 212.507C224.917 212.897 225.038 213.271 225.13 213.626C225.222 213.971 225.279 214.229 225.302 214.402C225.325 214.229 225.377 213.971 225.457 213.626C225.537 213.271 225.641 212.897 225.767 212.507L227.748 206.358H229.436L224.906 218.931H223.252ZM233.132 218.931V206.358H240.452V207.77H234.682V218.931H233.132ZM245.354 221.687L246.732 216.331H248.971L246.732 221.687H245.354ZM266.026 218.931L268.61 213.42C267.852 213.19 267.255 212.771 266.819 212.162C266.382 211.554 266.164 210.825 266.164 209.975C266.164 209.252 266.319 208.62 266.629 208.08C266.939 207.541 267.376 207.122 267.938 206.823C268.501 206.513 269.155 206.358 269.902 206.358H273.76V218.931H272.21V213.592H270.212L267.818 218.931H266.026ZM269.902 212.214H272.21V207.736H269.902C269.27 207.736 268.754 207.943 268.352 208.356C267.961 208.758 267.766 209.298 267.766 209.975C267.766 210.641 267.961 211.181 268.352 211.594C268.742 212.007 269.259 212.214 269.902 212.214ZM294.759 218.931V214.092C294.61 214.126 294.329 214.166 293.915 214.212C293.514 214.247 293.02 214.264 292.434 214.264C291.355 214.264 290.494 213.937 289.851 213.282C289.219 212.628 288.903 211.749 288.903 210.647V206.358H290.453V210.647C290.453 211.324 290.654 211.87 291.056 212.283C291.47 212.685 292.015 212.886 292.693 212.886C293.244 212.886 293.697 212.869 294.053 212.834C294.409 212.788 294.645 212.748 294.759 212.714V206.358H296.31V218.931H294.759ZM302.176 218.931L303.451 215.676L299.748 206.358H301.435L303.692 212.507C303.841 212.897 303.962 213.271 304.053 213.626C304.145 213.971 304.203 214.229 304.226 214.402C304.249 214.229 304.3 213.971 304.381 213.626C304.461 213.271 304.564 212.897 304.691 212.507L306.671 206.358H308.359L303.83 218.931H302.176ZM311.763 218.931V206.358H315.328C316.477 206.358 317.372 206.645 318.015 207.219C318.67 207.793 318.997 208.591 318.997 209.613C318.997 210.187 318.876 210.687 318.635 211.112C318.394 211.537 318.05 211.864 317.602 212.094C317.165 212.323 316.637 212.432 316.017 212.421V212.162C316.683 212.151 317.257 212.277 317.74 212.541C318.233 212.805 318.612 213.184 318.876 213.678C319.152 214.172 319.29 214.758 319.29 215.435C319.29 216.147 319.14 216.767 318.842 217.295C318.543 217.823 318.119 218.231 317.567 218.518C317.016 218.794 316.356 218.931 315.587 218.931H311.763ZM313.279 217.536H315.414C316.138 217.536 316.706 217.347 317.12 216.968C317.544 216.577 317.757 216.049 317.757 215.383C317.757 214.694 317.544 214.137 317.12 213.713C316.706 213.276 316.138 213.058 315.414 213.058H313.279V217.536ZM313.279 211.715H315.311C315.977 211.715 316.499 211.537 316.878 211.181C317.269 210.825 317.464 210.343 317.464 209.734C317.464 209.125 317.275 208.643 316.896 208.287C316.517 207.931 315.994 207.753 315.328 207.753H313.279V211.715ZM326.672 219.104C325.914 219.104 325.254 218.96 324.691 218.673C324.14 218.386 323.709 217.973 323.399 217.433C323.101 216.882 322.952 216.233 322.952 215.487V209.803C322.952 209.045 323.101 208.396 323.399 207.857C323.709 207.317 324.14 206.904 324.691 206.616C325.254 206.329 325.914 206.186 326.672 206.186C327.43 206.186 328.084 206.335 328.635 206.634C329.187 206.921 329.611 207.334 329.91 207.874C330.209 208.413 330.358 209.056 330.358 209.803H328.808C328.808 209.091 328.618 208.545 328.239 208.167C327.872 207.776 327.349 207.581 326.672 207.581C325.994 207.581 325.461 207.77 325.07 208.149C324.691 208.528 324.502 209.074 324.502 209.786V215.487C324.502 216.199 324.691 216.75 325.07 217.14C325.461 217.519 325.994 217.709 326.672 217.709C327.349 217.709 327.872 217.519 328.239 217.14C328.618 216.75 328.808 216.199 328.808 215.487H330.358C330.358 216.222 330.209 216.865 329.91 217.416C329.611 217.955 329.187 218.374 328.635 218.673C328.084 218.96 327.43 219.104 326.672 219.104ZM337.103 218.931V207.753H333.658V206.341H342.098V207.753H338.653V218.931H337.103ZM345.587 218.931V206.358H349.153C350.301 206.358 351.197 206.645 351.84 207.219C352.494 207.793 352.821 208.591 352.821 209.613C352.821 210.187 352.701 210.687 352.46 211.112C352.218 211.537 351.874 211.864 351.426 212.094C350.99 212.323 350.462 212.432 349.842 212.421V212.162C350.508 212.151 351.082 212.277 351.564 212.541C352.058 212.805 352.437 213.184 352.701 213.678C352.976 214.172 353.114 214.758 353.114 215.435C353.114 216.147 352.965 216.767 352.666 217.295C352.368 217.823 351.943 218.231 351.392 218.518C350.841 218.794 350.18 218.931 349.411 218.931H345.587ZM347.103 217.536H349.239C349.962 217.536 350.531 217.347 350.944 216.968C351.369 216.577 351.581 216.049 351.581 215.383C351.581 214.694 351.369 214.137 350.944 213.713C350.531 213.276 349.962 213.058 349.239 213.058H347.103V217.536ZM347.103 211.715H349.135C349.801 211.715 350.324 211.537 350.703 211.181C351.093 210.825 351.288 210.343 351.288 209.734C351.288 209.125 351.099 208.643 350.72 208.287C350.341 207.931 349.819 207.753 349.153 207.753H347.103V211.715ZM358.55 218.931L359.825 215.676L356.122 206.358H357.809L360.066 212.507C360.215 212.897 360.336 213.271 360.427 213.626C360.519 213.971 360.577 214.229 360.6 214.402C360.623 214.229 360.674 213.971 360.755 213.626C360.835 213.271 360.938 212.897 361.065 212.507L363.045 206.358H364.733L360.204 218.931H358.55ZM373.235 219.104C372.351 219.104 371.651 218.811 371.134 218.225C370.617 217.64 370.359 216.842 370.359 215.831V213.161H368.998V218.931H367.569V206.358H368.998V211.784H370.359V209.458C370.359 208.436 370.611 207.638 371.117 207.064C371.633 206.479 372.34 206.186 373.235 206.186C374.154 206.186 374.871 206.479 375.388 207.064C375.916 207.65 376.18 208.448 376.18 209.458V215.831C376.18 216.842 375.916 217.64 375.388 218.225C374.871 218.811 374.154 219.104 373.235 219.104ZM373.235 217.76C373.729 217.76 374.102 217.594 374.355 217.261C374.619 216.928 374.751 216.451 374.751 215.831V209.458C374.751 208.838 374.619 208.362 374.355 208.029C374.102 207.696 373.729 207.529 373.235 207.529C372.741 207.529 372.363 207.696 372.098 208.029C371.846 208.362 371.719 208.838 371.719 209.458V215.831C371.719 216.451 371.846 216.928 372.098 217.261C372.363 217.594 372.741 217.76 373.235 217.76ZM131.487 238.931V226.358H138.721V227.77H133.02V231.663H138.118V233.058H133.02V237.519H138.721V238.931H131.487ZM142.934 238.931V226.358H150.254V227.77H144.484V238.931H142.934ZM157.481 239.104C156.723 239.104 156.069 238.96 155.518 238.673C154.978 238.386 154.559 237.973 154.26 237.433C153.973 236.882 153.83 236.233 153.83 235.487V229.803C153.83 229.045 153.973 228.396 154.26 227.857C154.559 227.317 154.978 226.904 155.518 226.616C156.069 226.329 156.723 226.186 157.481 226.186C158.239 226.186 158.888 226.329 159.427 226.616C159.978 226.904 160.398 227.317 160.685 227.857C160.983 228.396 161.132 229.039 161.132 229.786V235.487C161.132 236.233 160.983 236.882 160.685 237.433C160.398 237.973 159.978 238.386 159.427 238.673C158.888 238.96 158.239 239.104 157.481 239.104ZM157.481 237.709C158.158 237.709 158.675 237.519 159.031 237.14C159.399 236.75 159.582 236.199 159.582 235.487V229.803C159.582 229.091 159.399 228.545 159.031 228.167C158.675 227.776 158.158 227.581 157.481 227.581C156.815 227.581 156.298 227.776 155.931 228.167C155.563 228.545 155.38 229.091 155.38 229.803V235.487C155.38 236.199 155.563 236.75 155.931 237.14C156.298 237.519 156.815 237.709 157.481 237.709ZM175.294 241.343V237.605H176.069C176.195 237.376 176.328 237.065 176.465 236.675C176.603 236.285 176.724 235.843 176.827 235.349C176.93 234.855 176.988 234.338 176.999 233.799L177.12 226.358H183.561V237.605H184.767V241.343H183.389V238.931H176.672V241.343H175.294ZM177.688 237.605H182.011V227.736H178.601L178.515 233.799C178.503 234.683 178.406 235.464 178.222 236.141C178.038 236.819 177.86 237.307 177.688 237.605ZM187.258 238.931V226.358H188.705V231.525H189.411C190.456 231.525 191.277 231.818 191.874 232.404C192.482 232.989 192.787 233.787 192.787 234.798V235.676C192.787 236.687 192.488 237.485 191.891 238.07C191.294 238.644 190.467 238.931 189.411 238.931H187.258ZM188.705 237.571H189.411C190.019 237.571 190.484 237.404 190.806 237.071C191.139 236.727 191.305 236.256 191.305 235.659V234.798C191.305 234.189 191.139 233.718 190.806 233.385C190.484 233.052 190.019 232.886 189.411 232.886H188.705V237.571ZM193.906 238.931V226.358H195.353V238.931H193.906ZM198.102 238.931L201.719 232.559L198.292 226.358H200.083L202.029 230.078C202.132 230.274 202.236 230.486 202.339 230.716C202.454 230.934 202.546 231.106 202.615 231.232C202.672 231.106 202.752 230.934 202.856 230.716C202.971 230.486 203.08 230.274 203.183 230.078L205.164 226.358H206.869L203.441 232.455L207.058 238.931H205.284L203.131 234.935C203.028 234.74 202.919 234.534 202.804 234.315C202.701 234.086 202.62 233.902 202.563 233.764C202.506 233.902 202.419 234.08 202.305 234.298C202.201 234.516 202.098 234.723 201.995 234.918L199.824 238.931H198.102ZM209.549 238.931L212.822 226.358H214.906L218.161 238.931H216.594L215.767 235.59H211.96L211.134 238.931H209.549ZM212.27 234.281H215.44L214.475 230.406C214.291 229.671 214.148 229.056 214.044 228.563C213.941 228.069 213.878 227.747 213.855 227.598C213.832 227.747 213.769 228.069 213.666 228.563C213.562 229.056 213.419 229.665 213.235 230.388L212.27 234.281ZM221.565 238.931V226.358H223.115V231.732H227.145V226.358H228.695V238.931H227.145V233.144H223.115V238.931H221.565ZM232.788 238.931V226.358H234.286V233.42C234.286 233.833 234.275 234.275 234.252 234.746C234.24 235.205 234.223 235.647 234.2 236.072C234.177 236.486 234.154 236.836 234.131 237.123L237.955 226.358H240.022V238.931H238.523V231.87C238.523 231.445 238.529 231.003 238.54 230.543C238.563 230.073 238.586 229.631 238.609 229.217C238.644 228.792 238.672 228.442 238.695 228.167L234.854 238.931H232.788ZM244.235 238.931V226.358H251.469V227.77H245.768V231.663H250.866V233.058H245.768V237.519H251.469V238.931H244.235ZM270.298 239.104C269.54 239.104 268.88 238.96 268.317 238.673C267.766 238.386 267.335 237.973 267.025 237.433C266.727 236.882 266.578 236.233 266.578 235.487V229.803C266.578 229.045 266.727 228.396 267.025 227.857C267.335 227.317 267.766 226.904 268.317 226.616C268.88 226.329 269.54 226.186 270.298 226.186C271.056 226.186 271.71 226.335 272.261 226.634C272.813 226.921 273.237 227.334 273.536 227.874C273.835 228.413 273.984 229.056 273.984 229.803H272.434C272.434 229.091 272.244 228.545 271.865 228.167C271.498 227.776 270.975 227.581 270.298 227.581C269.62 227.581 269.087 227.77 268.696 228.149C268.317 228.528 268.128 229.074 268.128 229.786V235.487C268.128 236.199 268.317 236.75 268.696 237.14C269.087 237.519 269.62 237.709 270.298 237.709C270.975 237.709 271.498 237.519 271.865 237.14C272.244 236.75 272.434 236.199 272.434 235.487H273.984C273.984 236.222 273.835 236.865 273.536 237.416C273.237 237.955 272.813 238.374 272.261 238.673C271.71 238.96 271.056 239.104 270.298 239.104ZM281.504 239.104C280.746 239.104 280.091 238.96 279.54 238.673C279.001 238.386 278.582 237.973 278.283 237.433C277.996 236.882 277.852 236.233 277.852 235.487V229.803C277.852 229.045 277.996 228.396 278.283 227.857C278.582 227.317 279.001 226.904 279.54 226.616C280.091 226.329 280.746 226.186 281.504 226.186C282.262 226.186 282.91 226.329 283.45 226.616C284.001 226.904 284.42 227.317 284.707 227.857C285.006 228.396 285.155 229.039 285.155 229.786V235.487C285.155 236.233 285.006 236.882 284.707 237.433C284.42 237.973 284.001 238.386 283.45 238.673C282.91 238.96 282.262 239.104 281.504 239.104ZM281.504 237.709C282.181 237.709 282.698 237.519 283.054 237.14C283.421 236.75 283.605 236.199 283.605 235.487V229.803C283.605 229.091 283.421 228.545 283.054 228.167C282.698 227.776 282.181 227.581 281.504 227.581C280.838 227.581 280.321 227.776 279.954 228.167C279.586 228.545 279.403 229.091 279.403 229.803V235.487C279.403 236.199 279.586 236.75 279.954 237.14C280.321 237.519 280.838 237.709 281.504 237.709ZM289.213 238.931V226.358H292.779C293.927 226.358 294.823 226.645 295.466 227.219C296.12 227.793 296.447 228.591 296.447 229.613C296.447 230.187 296.327 230.687 296.086 231.112C295.844 231.537 295.5 231.864 295.052 232.094C294.616 232.323 294.088 232.432 293.468 232.421V232.162C294.134 232.151 294.708 232.277 295.19 232.541C295.684 232.805 296.063 233.184 296.327 233.678C296.602 234.172 296.74 234.758 296.74 235.435C296.74 236.147 296.591 236.767 296.292 237.295C295.994 237.823 295.569 238.231 295.018 238.518C294.467 238.794 293.806 238.931 293.037 238.931H289.213ZM290.729 237.536H292.865C293.588 237.536 294.157 237.347 294.57 236.968C294.995 236.577 295.207 236.049 295.207 235.383C295.207 234.694 294.995 234.137 294.57 233.713C294.157 233.276 293.588 233.058 292.865 233.058H290.729V237.536ZM290.729 231.715H292.761C293.427 231.715 293.95 231.537 294.329 231.181C294.719 230.825 294.914 230.343 294.914 229.734C294.914 229.125 294.725 228.643 294.346 228.287C293.967 227.931 293.445 227.753 292.779 227.753H290.729V231.715ZM304.122 239.104C303.365 239.104 302.704 238.96 302.142 238.673C301.59 238.386 301.16 237.973 300.85 237.433C300.551 236.882 300.402 236.233 300.402 235.487V229.803C300.402 229.045 300.551 228.396 300.85 227.857C301.16 227.317 301.59 226.904 302.142 226.616C302.704 226.329 303.365 226.186 304.122 226.186C304.88 226.186 305.535 226.335 306.086 226.634C306.637 226.921 307.062 227.334 307.36 227.874C307.659 228.413 307.808 229.056 307.808 229.803H306.258C306.258 229.091 306.069 228.545 305.69 228.167C305.322 227.776 304.8 227.581 304.122 227.581C303.445 227.581 302.911 227.77 302.521 228.149C302.142 228.528 301.952 229.074 301.952 229.786V235.487C301.952 236.199 302.142 236.75 302.521 237.14C302.911 237.519 303.445 237.709 304.122 237.709C304.8 237.709 305.322 237.519 305.69 237.14C306.069 236.75 306.258 236.199 306.258 235.487H307.808C307.808 236.222 307.659 236.865 307.36 237.416C307.062 237.955 306.637 238.374 306.086 238.673C305.535 238.96 304.88 239.104 304.122 239.104ZM311.884 238.931V226.358H319.117V227.77H313.416V231.663H318.515V233.058H313.416V237.519H319.117V238.931H311.884ZM322.745 238.931V226.358H324.777L326.086 230.423C326.213 230.79 326.327 231.158 326.431 231.525C326.534 231.881 326.609 232.157 326.655 232.352C326.712 232.157 326.787 231.881 326.879 231.525C326.97 231.158 327.074 230.785 327.189 230.406L328.429 226.358H330.461V238.931H328.945V234.367C328.945 233.862 328.963 233.288 328.997 232.645C329.032 232.002 329.078 231.347 329.135 230.681C329.192 230.004 329.25 229.361 329.307 228.752C329.376 228.132 329.433 227.592 329.479 227.133L327.447 233.42H325.811L323.761 227.133C323.819 227.581 323.876 228.103 323.933 228.701C323.991 229.286 324.042 229.912 324.088 230.578C324.134 231.232 324.175 231.887 324.209 232.541C324.243 233.196 324.261 233.804 324.261 234.367V238.931H322.745ZM345.57 238.931V226.358H349.618C350.398 226.358 351.076 226.513 351.65 226.823C352.224 227.122 352.666 227.547 352.976 228.098C353.298 228.649 353.459 229.303 353.459 230.061C353.459 230.808 353.298 231.462 352.976 232.025C352.666 232.576 352.224 233.006 351.65 233.316C351.076 233.615 350.398 233.764 349.618 233.764H347.12V238.931H345.57ZM347.12 232.369H349.618C350.295 232.369 350.835 232.162 351.237 231.749C351.65 231.324 351.857 230.762 351.857 230.061C351.857 229.349 351.65 228.787 351.237 228.373C350.835 227.96 350.295 227.753 349.618 227.753H347.12V232.369ZM356.225 238.931L358.808 233.42C358.051 233.19 357.453 232.771 357.017 232.162C356.581 231.554 356.363 230.825 356.363 229.975C356.363 229.252 356.518 228.62 356.828 228.08C357.138 227.541 357.574 227.122 358.137 226.823C358.699 226.513 359.354 226.358 360.1 226.358H363.958V238.931H362.408V233.592H360.41L358.016 238.931H356.225ZM360.1 232.214H362.408V227.736H360.1C359.469 227.736 358.952 227.943 358.55 228.356C358.16 228.758 357.964 229.298 357.964 229.975C357.964 230.641 358.16 231.181 358.55 231.594C358.94 232.007 359.457 232.214 360.1 232.214ZM366.966 241.343V237.605H367.741C367.867 237.376 367.999 237.065 368.137 236.675C368.275 236.285 368.395 235.843 368.499 235.349C368.602 234.855 368.659 234.338 368.671 233.799L368.791 226.358H375.233V237.605H376.439V241.343H375.061V238.931H368.344V241.343H366.966ZM369.36 237.605H373.683V227.736H370.273L370.187 233.799C370.175 234.683 370.077 235.464 369.894 236.141C369.71 236.819 369.532 237.307 369.36 237.605ZM382.977 239.104C382.219 239.104 381.565 238.96 381.014 238.673C380.474 238.386 380.055 237.973 379.756 237.433C379.469 236.882 379.326 236.233 379.326 235.487V229.803C379.326 229.045 379.469 228.396 379.756 227.857C380.055 227.317 380.474 226.904 381.014 226.616C381.565 226.329 382.219 226.186 382.977 226.186C383.735 226.186 384.384 226.329 384.923 226.616C385.474 226.904 385.894 227.317 386.181 227.857C386.479 228.396 386.628 229.039 386.628 229.786V235.487C386.628 236.233 386.479 236.882 386.181 237.433C385.894 237.973 385.474 238.386 384.923 238.673C384.384 238.96 383.735 239.104 382.977 239.104ZM382.977 237.709C383.655 237.709 384.171 237.519 384.527 237.14C384.895 236.75 385.078 236.199 385.078 235.487V229.803C385.078 229.091 384.895 228.545 384.527 228.167C384.171 227.776 383.655 227.581 382.977 227.581C382.311 227.581 381.794 227.776 381.427 228.167C381.059 228.545 380.876 229.091 380.876 229.803V235.487C380.876 236.199 381.059 236.75 381.427 237.14C381.794 237.519 382.311 237.709 382.977 237.709ZM390.394 238.931V226.358H392.426L393.735 230.423C393.861 230.79 393.976 231.158 394.08 231.525C394.183 231.881 394.258 232.157 394.304 232.352C394.361 232.157 394.436 231.881 394.527 231.525C394.619 231.158 394.723 230.785 394.837 230.406L396.078 226.358H398.11V238.931H396.594V234.367C396.594 233.862 396.612 233.288 396.646 232.645C396.68 232.002 396.726 231.347 396.784 230.681C396.841 230.004 396.899 229.361 396.956 228.752C397.025 228.132 397.082 227.592 397.128 227.133L395.096 233.42H393.46L391.41 227.133C391.467 227.581 391.525 228.103 391.582 228.701C391.64 229.286 391.691 229.912 391.737 230.578C391.783 231.232 391.823 231.887 391.858 232.541C391.892 233.196 391.909 233.804 391.909 234.367V238.931H390.394ZM409.165 239.104C408.728 239.104 408.384 238.977 408.131 238.725C407.867 238.472 407.735 238.133 407.735 237.709C407.735 237.261 407.867 236.905 408.131 236.641C408.384 236.377 408.728 236.244 409.165 236.244C409.601 236.244 409.951 236.377 410.215 236.641C410.468 236.905 410.594 237.261 410.594 237.709C410.594 238.133 410.468 238.472 410.215 238.725C409.951 238.977 409.601 239.104 409.165 239.104ZM417.759 239.104C417.323 239.104 416.978 238.977 416.726 238.725C416.462 238.472 416.33 238.133 416.33 237.709C416.33 237.261 416.462 236.905 416.726 236.641C416.978 236.377 417.323 236.244 417.759 236.244C418.196 236.244 418.546 236.377 418.81 236.641C419.063 236.905 419.189 237.261 419.189 237.709C419.189 238.133 419.063 238.472 418.81 238.725C418.546 238.977 418.196 239.104 417.759 239.104ZM426.354 239.104C425.918 239.104 425.567 238.977 425.303 238.725C425.051 238.472 424.924 238.133 424.924 237.709C424.924 237.261 425.051 236.905 425.303 236.641C425.567 236.377 425.918 236.244 426.354 236.244C426.79 236.244 427.135 236.377 427.387 236.641C427.651 236.905 427.783 237.261 427.783 237.709C427.783 238.133 427.651 238.472 427.387 238.725C427.135 238.977 426.79 239.104 426.354 239.104ZM159.57 278.931V266.358H166.667V278.931H165.116V267.77H161.12V278.931H159.57ZM174.393 279.104C173.635 279.104 172.981 278.96 172.43 278.673C171.89 278.386 171.471 277.973 171.172 277.433C170.885 276.882 170.742 276.233 170.742 275.487V269.803C170.742 269.045 170.885 268.396 171.172 267.857C171.471 267.317 171.89 266.904 172.43 266.616C172.981 266.329 173.635 266.186 174.393 266.186C175.151 266.186 175.8 266.329 176.34 266.616C176.891 266.904 177.31 267.317 177.597 267.857C177.895 268.396 178.045 269.039 178.045 269.786V275.487C178.045 276.233 177.895 276.882 177.597 277.433C177.31 277.973 176.891 278.386 176.34 278.673C175.8 278.96 175.151 279.104 174.393 279.104ZM174.393 277.709C175.071 277.709 175.587 277.519 175.943 277.14C176.311 276.75 176.495 276.199 176.495 275.487V269.803C176.495 269.091 176.311 268.545 175.943 268.167C175.587 267.776 175.071 267.581 174.393 267.581C173.727 267.581 173.211 267.776 172.843 268.167C172.476 268.545 172.292 269.091 172.292 269.803V275.487C172.292 276.199 172.476 276.75 172.843 277.14C173.211 277.519 173.727 277.709 174.393 277.709ZM181.81 278.931V266.358H183.842L185.151 270.423C185.278 270.79 185.392 271.158 185.496 271.525C185.599 271.881 185.674 272.157 185.72 272.352C185.777 272.157 185.852 271.881 185.944 271.525C186.035 271.158 186.139 270.785 186.254 270.406L187.494 266.358H189.526V278.931H188.01V274.367C188.01 273.862 188.028 273.288 188.062 272.645C188.097 272.002 188.143 271.347 188.2 270.681C188.257 270.004 188.315 269.361 188.372 268.752C188.441 268.132 188.498 267.592 188.544 267.133L186.512 273.42H184.876L182.826 267.133C182.884 267.581 182.941 268.103 182.998 268.701C183.056 269.286 183.107 269.912 183.153 270.578C183.199 271.232 183.24 271.887 183.274 272.541C183.308 273.196 183.326 273.804 183.326 274.367V278.931H181.81ZM196.943 279.104C196.185 279.104 195.53 278.96 194.979 278.673C194.44 278.386 194.021 277.973 193.722 277.433C193.435 276.882 193.291 276.233 193.291 275.487V269.803C193.291 269.045 193.435 268.396 193.722 267.857C194.021 267.317 194.44 266.904 194.979 266.616C195.53 266.329 196.185 266.186 196.943 266.186C197.701 266.186 198.349 266.329 198.889 266.616C199.44 266.904 199.859 267.317 200.146 267.857C200.445 268.396 200.594 269.039 200.594 269.786V275.487C200.594 276.233 200.445 276.882 200.146 277.433C199.859 277.973 199.44 278.386 198.889 278.673C198.349 278.96 197.701 279.104 196.943 279.104ZM196.943 277.709C197.62 277.709 198.137 277.519 198.493 277.14C198.86 276.75 199.044 276.199 199.044 275.487V269.803C199.044 269.091 198.86 268.545 198.493 268.167C198.137 267.776 197.62 267.581 196.943 267.581C196.277 267.581 195.76 267.776 195.393 268.167C195.025 268.545 194.842 269.091 194.842 269.803V275.487C194.842 276.199 195.025 276.75 195.393 277.14C195.76 277.519 196.277 277.709 196.943 277.709ZM204.945 278.931V266.358H212.265V267.77H206.495V278.931H204.945ZM215.875 278.931V266.358H217.374V273.42C217.374 273.833 217.362 274.275 217.339 274.746C217.328 275.205 217.311 275.647 217.288 276.072C217.265 276.486 217.242 276.836 217.219 277.123L221.043 266.358H223.109V278.931H221.611V271.87C221.611 271.445 221.617 271.003 221.628 270.543C221.651 270.073 221.674 269.631 221.697 269.217C221.732 268.792 221.76 268.442 221.783 268.167L217.942 278.931H215.875ZM238.184 278.931V266.358H240.216L241.525 270.423C241.652 270.79 241.766 271.158 241.87 271.525C241.973 271.881 242.048 272.157 242.094 272.352C242.151 272.157 242.226 271.881 242.318 271.525C242.409 271.158 242.513 270.785 242.628 270.406L243.868 266.358H245.9V278.931H244.384V274.367C244.384 273.862 244.402 273.288 244.436 272.645C244.471 272.002 244.517 271.347 244.574 270.681C244.631 270.004 244.689 269.361 244.746 268.752C244.815 268.132 244.872 267.592 244.918 267.133L242.886 273.42H241.25L239.2 267.133C239.258 267.581 239.315 268.103 239.372 268.701C239.43 269.286 239.481 269.912 239.527 270.578C239.573 271.232 239.614 271.887 239.648 272.541C239.682 273.196 239.7 273.804 239.7 274.367V278.931H238.184ZM249.752 278.931V266.358H251.302V271.732H255.332V266.358H256.882V278.931H255.332V273.144H251.302V278.931H249.752ZM261.147 278.931V266.358H268.381V267.77H262.68V271.663H267.778V273.058H262.68V277.519H268.381V278.931H261.147ZM283.524 278.931V266.358H285.023V273.42C285.023 273.833 285.011 274.275 284.988 274.746C284.977 275.205 284.96 275.647 284.937 276.072C284.914 276.486 284.891 276.836 284.868 277.123L288.691 266.358H290.758V278.931H289.26V271.87C289.26 271.445 289.266 271.003 289.277 270.543C289.3 270.073 289.323 269.631 289.346 269.217C289.38 268.792 289.409 268.442 289.432 268.167L285.591 278.931H283.524ZM298.244 279.104C297.463 279.104 296.774 278.966 296.177 278.69C295.58 278.415 295.103 278.024 294.747 277.519C294.403 277.014 294.208 276.422 294.162 275.745H295.712C295.781 276.354 296.045 276.836 296.504 277.192C296.964 277.548 297.543 277.726 298.244 277.726C299.025 277.726 299.639 277.519 300.087 277.106C300.546 276.692 300.776 276.153 300.776 275.487C300.776 274.809 300.546 274.27 300.087 273.868C299.627 273.454 299.013 273.248 298.244 273.248H296.694V271.835H298.227C298.927 271.835 299.49 271.617 299.915 271.181C300.339 270.744 300.552 270.21 300.552 269.579C300.552 268.936 300.339 268.442 299.915 268.098C299.501 267.742 298.939 267.564 298.227 267.564C297.526 267.564 296.964 267.765 296.539 268.167C296.114 268.557 295.901 269.074 295.901 269.717H294.351C294.351 269.005 294.512 268.385 294.834 267.857C295.155 267.328 295.603 266.921 296.177 266.634C296.763 266.335 297.446 266.186 298.227 266.186C299.432 266.186 300.391 266.461 301.103 267.013C301.815 267.564 302.171 268.35 302.171 269.372C302.171 269.946 302.045 270.463 301.792 270.922C301.551 271.37 301.201 271.72 300.741 271.973C300.293 272.226 299.76 272.346 299.139 272.335V272.076C299.805 272.065 300.38 272.197 300.862 272.473C301.356 272.737 301.734 273.121 301.999 273.626C302.274 274.12 302.412 274.706 302.412 275.383C302.412 276.107 302.24 276.75 301.895 277.312C301.562 277.864 301.08 278.3 300.448 278.621C299.828 278.943 299.094 279.104 298.244 279.104ZM306.143 278.931V266.358H313.136V267.77H307.693V271.56H309.777C310.581 271.56 311.27 271.715 311.844 272.025C312.418 272.323 312.86 272.748 313.17 273.299C313.492 273.85 313.652 274.499 313.652 275.246C313.652 275.992 313.492 276.641 313.17 277.192C312.86 277.743 312.418 278.174 311.844 278.484C311.27 278.782 310.581 278.931 309.777 278.931H306.143ZM307.693 277.519H309.777C310.489 277.519 311.046 277.318 311.448 276.916C311.85 276.503 312.051 275.946 312.051 275.246C312.051 274.534 311.85 273.977 311.448 273.575C311.046 273.173 310.489 272.972 309.777 272.972H307.693V277.519ZM316.66 278.931L319.932 266.358H322.016L325.272 278.931H323.704L322.877 275.59H319.071L318.244 278.931H316.66ZM319.381 274.281H322.55L321.586 270.406C321.402 269.671 321.258 269.056 321.155 268.563C321.052 268.069 320.989 267.747 320.966 267.598C320.943 267.747 320.88 268.069 320.776 268.563C320.673 269.056 320.529 269.665 320.346 270.388L319.381 274.281ZM328.675 278.931V266.358H332.24C333.389 266.358 334.284 266.645 334.927 267.219C335.582 267.793 335.909 268.591 335.909 269.613C335.909 270.187 335.789 270.687 335.547 271.112C335.306 271.537 334.962 271.864 334.514 272.094C334.078 272.323 333.549 272.432 332.929 272.421V272.162C333.595 272.151 334.17 272.277 334.652 272.541C335.146 272.805 335.524 273.184 335.789 273.678C336.064 274.172 336.202 274.758 336.202 275.435C336.202 276.147 336.053 276.767 335.754 277.295C335.456 277.823 335.031 278.231 334.48 278.518C333.928 278.794 333.268 278.931 332.499 278.931H328.675ZM330.191 277.536H332.327C333.05 277.536 333.618 277.347 334.032 276.968C334.457 276.577 334.669 276.049 334.669 275.383C334.669 274.694 334.457 274.137 334.032 273.713C333.618 273.276 333.05 273.058 332.327 273.058H330.191V277.536ZM330.191 271.715H332.223C332.889 271.715 333.412 271.537 333.791 271.181C334.181 270.825 334.376 270.343 334.376 269.734C334.376 269.125 334.187 268.643 333.808 268.287C333.429 267.931 332.906 267.753 332.24 267.753H330.191V271.715ZM339.898 278.931V266.358H341.397V273.42C341.397 273.833 341.385 274.275 341.362 274.746C341.351 275.205 341.334 275.647 341.311 276.072C341.288 276.486 341.265 276.836 341.242 277.123L345.065 266.358H347.132V278.931H345.634V271.87C345.634 271.445 345.64 271.003 345.651 270.543C345.674 270.073 345.697 269.631 345.72 269.217C345.754 268.792 345.783 268.442 345.806 268.167L341.965 278.931H339.898ZM354.015 278.931V267.753H350.57V266.341H359.01V267.753H355.565V278.931H354.015ZM362.517 278.931V266.358H364.067V271.525H366.582C367.339 271.525 368 271.68 368.562 271.99C369.136 272.3 369.579 272.731 369.889 273.282C370.21 273.833 370.371 274.482 370.371 275.228C370.371 275.963 370.21 276.612 369.889 277.175C369.579 277.726 369.136 278.156 368.562 278.466C368 278.776 367.339 278.931 366.582 278.931H362.517ZM364.067 277.519H366.495C367.173 277.519 367.718 277.312 368.132 276.899C368.557 276.474 368.769 275.917 368.769 275.228C368.769 274.539 368.557 273.988 368.132 273.575C367.718 273.15 367.173 272.938 366.495 272.938H364.067V277.519ZM377.409 279.104C376.651 279.104 375.99 278.96 375.428 278.673C374.877 278.386 374.446 277.973 374.136 277.433C373.838 276.882 373.688 276.233 373.688 275.487V269.803C373.688 269.045 373.838 268.396 374.136 267.857C374.446 267.317 374.877 266.904 375.428 266.616C375.99 266.329 376.651 266.186 377.409 266.186C378.166 266.186 378.821 266.335 379.372 266.634C379.923 266.921 380.348 267.334 380.647 267.874C380.945 268.413 381.094 269.056 381.094 269.803H379.544C379.544 269.091 379.355 268.545 378.976 268.167C378.608 267.776 378.086 267.581 377.409 267.581C376.731 267.581 376.197 267.77 375.807 268.149C375.428 268.528 375.238 269.074 375.238 269.786V275.487C375.238 276.199 375.428 276.75 375.807 277.14C376.197 277.519 376.731 277.709 377.409 277.709C378.086 277.709 378.608 277.519 378.976 277.14C379.355 276.75 379.544 276.199 379.544 275.487H381.094C381.094 276.222 380.945 276.865 380.647 277.416C380.348 277.955 379.923 278.374 379.372 278.673C378.821 278.96 378.166 279.104 377.409 279.104ZM384.412 278.931L386.995 273.42C386.238 273.19 385.641 272.771 385.204 272.162C384.768 271.554 384.55 270.825 384.55 269.975C384.55 269.252 384.705 268.62 385.015 268.08C385.325 267.541 385.761 267.122 386.324 266.823C386.886 266.513 387.541 266.358 388.287 266.358H392.145V278.931H390.595V273.592H388.597L386.203 278.931H384.412ZM388.287 272.214H390.595V267.736H388.287C387.656 267.736 387.139 267.943 386.737 268.356C386.347 268.758 386.151 269.298 386.151 269.975C386.151 270.641 386.347 271.181 386.737 271.594C387.127 272.007 387.644 272.214 388.287 272.214ZM106.744 299.104C105.987 299.104 105.332 298.96 104.781 298.673C104.241 298.386 103.822 297.973 103.524 297.433C103.237 296.882 103.093 296.233 103.093 295.487V289.803C103.093 289.045 103.237 288.396 103.524 287.857C103.822 287.317 104.241 286.904 104.781 286.616C105.332 286.329 105.987 286.186 106.744 286.186C107.502 286.186 108.151 286.329 108.691 286.616C109.242 286.904 109.661 287.317 109.948 287.857C110.247 288.396 110.396 289.039 110.396 289.786V295.487C110.396 296.233 110.247 296.882 109.948 297.433C109.661 297.973 109.242 298.386 108.691 298.673C108.151 298.96 107.502 299.104 106.744 299.104ZM106.744 297.709C107.422 297.709 107.939 297.519 108.295 297.14C108.662 296.75 108.846 296.199 108.846 295.487V289.803C108.846 289.091 108.662 288.545 108.295 288.167C107.939 287.776 107.422 287.581 106.744 287.581C106.078 287.581 105.562 287.776 105.194 288.167C104.827 288.545 104.643 289.091 104.643 289.803V295.487C104.643 296.199 104.827 296.75 105.194 297.14C105.562 297.519 106.078 297.709 106.744 297.709ZM117.244 298.931V287.753H113.799V286.341H122.239V287.753H118.794V298.931H117.244ZM137.004 298.931V286.358H138.554V291.732H142.584V286.358H144.134V298.931H142.584V293.144H138.554V298.931H137.004ZM148.399 298.931V286.358H155.633V287.77H149.932V291.663H155.03V293.058H149.932V297.519H155.633V298.931H148.399ZM159.846 298.931V286.358H167.166V287.77H161.396V298.931H159.846ZM174.393 299.104C173.635 299.104 172.981 298.96 172.43 298.673C171.89 298.386 171.471 297.973 171.172 297.433C170.885 296.882 170.742 296.233 170.742 295.487V289.803C170.742 289.045 170.885 288.396 171.172 287.857C171.471 287.317 171.89 286.904 172.43 286.616C172.981 286.329 173.635 286.186 174.393 286.186C175.151 286.186 175.8 286.329 176.34 286.616C176.891 286.904 177.31 287.317 177.597 287.857C177.895 288.396 178.045 289.039 178.045 289.786V295.487C178.045 296.233 177.895 296.882 177.597 297.433C177.31 297.973 176.891 298.386 176.34 298.673C175.8 298.96 175.151 299.104 174.393 299.104ZM174.393 297.709C175.071 297.709 175.587 297.519 175.943 297.14C176.311 296.75 176.495 296.199 176.495 295.487V289.803C176.495 289.091 176.311 288.545 175.943 288.167C175.587 287.776 175.071 287.581 174.393 287.581C173.727 287.581 173.211 287.776 172.843 288.167C172.476 288.545 172.292 289.091 172.292 289.803V295.487C172.292 296.199 172.476 296.75 172.843 297.14C173.211 297.519 173.727 297.709 174.393 297.709ZM183.343 301.687L184.721 296.331H186.96L184.721 301.687H183.343ZM208.287 299.104C207.529 299.104 206.868 298.96 206.306 298.673C205.755 298.386 205.324 297.973 205.014 297.433C204.715 296.882 204.566 296.233 204.566 295.487V289.803C204.566 289.045 204.715 288.396 205.014 287.857C205.324 287.317 205.755 286.904 206.306 286.616C206.868 286.329 207.529 286.186 208.287 286.186C209.044 286.186 209.699 286.335 210.25 286.634C210.801 286.921 211.226 287.334 211.525 287.874C211.823 288.413 211.972 289.056 211.972 289.803H210.422C210.422 289.091 210.233 288.545 209.854 288.167C209.486 287.776 208.964 287.581 208.287 287.581C207.609 287.581 207.075 287.77 206.685 288.149C206.306 288.528 206.116 289.074 206.116 289.786V295.487C206.116 296.199 206.306 296.75 206.685 297.14C207.075 297.519 207.609 297.709 208.287 297.709C208.964 297.709 209.486 297.519 209.854 297.14C210.233 296.75 210.422 296.199 210.422 295.487H211.972C211.972 296.222 211.823 296.865 211.525 297.416C211.226 297.955 210.801 298.374 210.25 298.673C209.699 298.96 209.044 299.104 208.287 299.104ZM219.492 299.104C218.735 299.104 218.08 298.96 217.529 298.673C216.989 298.386 216.57 297.973 216.272 297.433C215.985 296.882 215.841 296.233 215.841 295.487V289.803C215.841 289.045 215.985 288.396 216.272 287.857C216.57 287.317 216.989 286.904 217.529 286.616C218.08 286.329 218.735 286.186 219.492 286.186C220.25 286.186 220.899 286.329 221.439 286.616C221.99 286.904 222.409 287.317 222.696 287.857C222.995 288.396 223.144 289.039 223.144 289.786V295.487C223.144 296.233 222.995 296.882 222.696 297.433C222.409 297.973 221.99 298.386 221.439 298.673C220.899 298.96 220.25 299.104 219.492 299.104ZM219.492 297.709C220.17 297.709 220.687 297.519 221.043 297.14C221.41 296.75 221.594 296.199 221.594 295.487V289.803C221.594 289.091 221.41 288.545 221.043 288.167C220.687 287.776 220.17 287.581 219.492 287.581C218.826 287.581 218.31 287.776 217.942 288.167C217.575 288.545 217.391 289.091 217.391 289.803V295.487C217.391 296.199 217.575 296.75 217.942 297.14C218.31 297.519 218.826 297.709 219.492 297.709ZM227.219 298.931V286.358H234.212V287.77H228.769V291.56H230.853C231.657 291.56 232.346 291.715 232.92 292.025C233.494 292.323 233.936 292.748 234.246 293.299C234.568 293.85 234.729 294.499 234.729 295.246C234.729 295.992 234.568 296.641 234.246 297.192C233.936 297.743 233.494 298.174 232.92 298.484C232.346 298.782 231.657 298.931 230.853 298.931H227.219ZM228.769 297.519H230.853C231.565 297.519 232.122 297.318 232.524 296.916C232.926 296.503 233.127 295.946 233.127 295.246C233.127 294.534 232.926 293.977 232.524 293.575C232.122 293.173 231.565 292.972 230.853 292.972H228.769V297.519ZM238.46 298.931V286.358H242.507C243.288 286.358 243.965 286.513 244.539 286.823C245.114 287.122 245.556 287.547 245.866 288.098C246.187 288.649 246.348 289.303 246.348 290.061C246.348 290.808 246.187 291.462 245.866 292.025C245.556 292.576 245.114 293.006 244.539 293.316C243.965 293.615 243.288 293.764 242.507 293.764H240.01V298.931H238.46ZM240.01 292.369H242.507C243.185 292.369 243.724 292.162 244.126 291.749C244.539 291.324 244.746 290.762 244.746 290.061C244.746 289.349 244.539 288.787 244.126 288.373C243.724 287.96 243.185 287.753 242.507 287.753H240.01V292.369ZM249.011 298.931L252.283 286.358H254.367L257.623 298.931H256.055L255.229 295.59H251.422L250.596 298.931H249.011ZM251.732 294.281H254.901L253.937 290.406C253.753 289.671 253.61 289.056 253.506 288.563C253.403 288.069 253.34 287.747 253.317 287.598C253.294 287.747 253.231 288.069 253.127 288.563C253.024 289.056 252.881 289.665 252.697 290.388L251.732 294.281ZM261.026 298.931V286.358H264.592C265.74 286.358 266.636 286.645 267.279 287.219C267.933 287.793 268.26 288.591 268.26 289.613C268.26 290.187 268.14 290.687 267.899 291.112C267.657 291.537 267.313 291.864 266.865 292.094C266.429 292.323 265.901 292.432 265.281 292.421V292.162C265.947 292.151 266.521 292.277 267.003 292.541C267.497 292.805 267.876 293.184 268.14 293.678C268.415 294.172 268.553 294.758 268.553 295.435C268.553 296.147 268.404 296.767 268.105 297.295C267.807 297.823 267.382 298.231 266.831 298.518C266.28 298.794 265.619 298.931 264.85 298.931H261.026ZM262.542 297.536H264.678C265.401 297.536 265.97 297.347 266.383 296.968C266.808 296.577 267.02 296.049 267.02 295.383C267.02 294.694 266.808 294.137 266.383 293.713C265.97 293.276 265.401 293.058 264.678 293.058H262.542V297.536ZM262.542 291.715H264.574C265.24 291.715 265.763 291.537 266.142 291.181C266.532 290.825 266.727 290.343 266.727 289.734C266.727 289.125 266.538 288.643 266.159 288.287C265.78 287.931 265.258 287.753 264.592 287.753H262.542V291.715ZM283.559 298.931V286.358H285.109V291.749H286.969L289.759 286.358H291.447L288.33 292.404L291.619 298.931H289.845L286.917 293.11H285.109V298.931H283.559ZM294.11 298.931L297.383 286.358H299.467L302.722 298.931H301.155L300.328 295.59H296.521L295.695 298.931H294.11ZM296.831 294.281H300.001L299.036 290.406C298.852 289.671 298.709 289.056 298.606 288.563C298.502 288.069 298.439 287.747 298.416 287.598C298.393 287.747 298.33 288.069 298.227 288.563C298.123 289.056 297.98 289.665 297.796 290.388L296.831 294.281ZM306.108 298.931V286.358H310.156C310.937 286.358 311.614 286.513 312.188 286.823C312.762 287.122 313.204 287.547 313.515 288.098C313.836 288.649 313.997 289.303 313.997 290.061C313.997 290.808 313.836 291.462 313.515 292.025C313.204 292.576 312.762 293.006 312.188 293.316C311.614 293.615 310.937 293.764 310.156 293.764H307.658V298.931H306.108ZM307.658 292.369H310.156C310.833 292.369 311.373 292.162 311.775 291.749C312.188 291.324 312.395 290.762 312.395 290.061C312.395 289.349 312.188 288.787 311.775 288.373C311.373 287.96 310.833 287.753 310.156 287.753H307.658V292.369ZM320.191 298.931V287.753H316.746V286.341H325.185V287.753H321.741V298.931H320.191ZM328.623 298.931V286.358H330.122V293.42C330.122 293.833 330.11 294.275 330.087 294.746C330.076 295.205 330.059 295.647 330.036 296.072C330.013 296.486 329.99 296.836 329.967 297.123L333.791 286.358H335.857V298.931H334.359V291.87C334.359 291.445 334.365 291.003 334.376 290.543C334.399 290.073 334.422 289.631 334.445 289.217C334.48 288.792 334.508 288.442 334.531 288.167L330.69 298.931H328.623ZM339.95 298.931V286.358H341.5V291.732H345.53V286.358H347.081V298.931H345.53V293.144H341.5V298.931H339.95ZM352.913 298.931L354.187 295.676L350.484 286.358H352.172L354.428 292.507C354.578 292.897 354.698 293.271 354.79 293.626C354.882 293.971 354.939 294.229 354.962 294.402C354.985 294.229 355.037 293.971 355.117 293.626C355.198 293.271 355.301 292.897 355.427 292.507L357.408 286.358H359.096L354.566 298.931H352.913ZM373.774 298.931V286.358H377.34C378.488 286.358 379.384 286.645 380.027 287.219C380.681 287.793 381.008 288.591 381.008 289.613C381.008 290.187 380.888 290.687 380.647 291.112C380.405 291.537 380.061 291.864 379.613 292.094C379.177 292.323 378.649 292.432 378.029 292.421V292.162C378.695 292.151 379.269 292.277 379.751 292.541C380.245 292.805 380.624 293.184 380.888 293.678C381.163 294.172 381.301 294.758 381.301 295.435C381.301 296.147 381.152 296.767 380.853 297.295C380.555 297.823 380.13 298.231 379.579 298.518C379.028 298.794 378.367 298.931 377.598 298.931H373.774ZM375.29 297.536H377.426C378.149 297.536 378.718 297.347 379.131 296.968C379.556 296.577 379.768 296.049 379.768 295.383C379.768 294.694 379.556 294.137 379.131 293.713C378.718 293.276 378.149 293.058 377.426 293.058H375.29V297.536ZM375.29 291.715H377.322C377.988 291.715 378.511 291.537 378.89 291.181C379.28 290.825 379.475 290.343 379.475 289.734C379.475 289.125 379.286 288.643 378.907 288.287C378.528 287.931 378.006 287.753 377.34 287.753H375.29V291.715ZM388.614 299.104C387.857 299.104 387.202 298.96 386.651 298.673C386.111 298.386 385.692 297.973 385.394 297.433C385.107 296.882 384.963 296.233 384.963 295.487V289.803C384.963 289.045 385.107 288.396 385.394 287.857C385.692 287.317 386.111 286.904 386.651 286.616C387.202 286.329 387.857 286.186 388.614 286.186C389.372 286.186 390.021 286.329 390.561 286.616C391.112 286.904 391.531 287.317 391.818 287.857C392.117 288.396 392.266 289.039 392.266 289.786V295.487C392.266 296.233 392.117 296.882 391.818 297.433C391.531 297.973 391.112 298.386 390.561 298.673C390.021 298.96 389.372 299.104 388.614 299.104ZM388.614 297.709C389.292 297.709 389.809 297.519 390.165 297.14C390.532 296.75 390.716 296.199 390.716 295.487V289.803C390.716 289.091 390.532 288.545 390.165 288.167C389.809 287.776 389.292 287.581 388.614 287.581C387.948 287.581 387.432 287.776 387.064 288.167C386.697 288.545 386.513 289.091 386.513 289.803V295.487C386.513 296.199 386.697 296.75 387.064 297.14C387.432 297.519 387.948 297.709 388.614 297.709ZM396.445 298.931V286.358H403.678V287.77H397.977V291.663H403.076V293.058H397.977V297.519H403.678V298.931H396.445ZM406.428 301.343V297.605H407.203C407.329 297.376 407.461 297.065 407.599 296.675C407.737 296.285 407.857 295.843 407.96 295.349C408.064 294.855 408.121 294.338 408.133 293.799L408.253 286.358H414.695V297.605H415.901V301.343H414.523V298.931H407.805V301.343H406.428ZM408.822 297.605H413.145V287.736H409.734L409.648 293.799C409.637 294.683 409.539 295.464 409.356 296.141C409.172 296.819 408.994 297.307 408.822 297.605ZM418.822 298.931V286.358H420.32V293.42C420.32 293.833 420.309 294.275 420.286 294.746C420.274 295.205 420.257 295.647 420.234 296.072C420.211 296.486 420.188 296.836 420.165 297.123L423.989 286.358H426.056V298.931H424.557V291.87C424.557 291.445 424.563 291.003 424.575 290.543C424.598 290.073 424.621 289.631 424.643 289.217C424.678 288.792 424.707 288.442 424.73 288.167L420.889 298.931H418.822ZM430.148 298.931V286.358H431.699V291.732H435.729V286.358H437.279V298.931H435.729V293.144H431.699V298.931H430.148ZM444.988 299.104C444.231 299.104 443.576 298.96 443.025 298.673C442.485 298.386 442.066 297.973 441.768 297.433C441.481 296.882 441.337 296.233 441.337 295.487V289.803C441.337 289.045 441.481 288.396 441.768 287.857C442.066 287.317 442.485 286.904 443.025 286.616C443.576 286.329 444.231 286.186 444.988 286.186C445.746 286.186 446.395 286.329 446.935 286.616C447.486 286.904 447.905 287.317 448.192 287.857C448.491 288.396 448.64 289.039 448.64 289.786V295.487C448.64 296.233 448.491 296.882 448.192 297.433C447.905 297.973 447.486 298.386 446.935 298.673C446.395 298.96 445.746 299.104 444.988 299.104ZM444.988 297.709C445.666 297.709 446.183 297.519 446.539 297.14C446.906 296.75 447.09 296.199 447.09 295.487V289.803C447.09 289.091 446.906 288.545 446.539 288.167C446.183 287.776 445.666 287.581 444.988 287.581C444.322 287.581 443.806 287.776 443.438 288.167C443.071 288.545 442.887 289.091 442.887 289.803V295.487C442.887 296.199 443.071 296.75 443.438 297.14C443.806 297.519 444.322 297.709 444.988 297.709ZM455.712 295.228L455.35 288.425V286.358H457.176V288.425L456.814 295.228H455.712ZM456.005 299.018C455.706 299.018 455.46 298.92 455.264 298.725C455.069 298.53 454.972 298.283 454.972 297.984C454.972 297.686 455.069 297.439 455.264 297.243C455.46 297.048 455.706 296.951 456.005 296.951H456.522C456.855 296.951 457.107 297.048 457.28 297.243C457.463 297.427 457.555 297.668 457.555 297.967C457.555 298.265 457.457 298.518 457.262 298.725C457.067 298.92 456.82 299.018 456.522 299.018H456.005Z" fill="white"/>
<path d="M255.426 145.153V112.245H308.085V145.153H255.426Z" fill="#206234" stroke="#206234" stroke-width="1.07643"/>
<path d="M250.551 112.244V103.956H286.876V112.001L250.551 112.244Z" fill="#26733D" stroke="#26733D" stroke-width="1.07643"/>
<path d="M286.875 112.244V103.956H311.254V112.001L286.875 112.244Z" fill="#26733D" stroke="#26733D" stroke-width="1.07643"/>
<path d="M317.364 46.6709H244.669V64.0006H229.828V71.5352H332.708V64.0006H317.364V46.6709Z" fill="#26733D" stroke="#26733D" stroke-width="1.07643"/>
<path d="M248.598 72.0227H313.934V103.956H248.598V72.0227Z" fill="black"/>
<rect x="280.539" y="103.956" width="6.3386" height="8.2881" fill="black"/>
<rect x="273.711" y="103.956" width="6.82618" height="8.2881" fill="black"/>
<rect x="288.582" y="81.7734" width="7.31377" height="11.9446" fill="#FAFF15"/>
<rect x="266.887" y="81.7734" width="6.82618" height="11.9446" fill="#FAFF15"/>
<rect x="249.332" y="54.7151" width="3.90068" height="4.38782" fill="#FF9315"/>
<rect x="310.527" y="48.8647" width="3.65688" height="4.63159" fill="#FF9315"/>
<rect x="253.234" y="59.103" width="9.5079" height="4.38782" fill="#FF9315"/>
<defs>
<filter id="filter0_b_383_8837" x="-2.15296" y="-2.15296" width="567.306" height="371.306" filterUnits="userSpaceOnUse" color-interpolation-filters="sRGB">
<feFlood flood-opacity="0" result="BackgroundImageFix"/>
<feGaussianBlur in="BackgroundImageFix" stdDeviation="1.07648"/>
<feComposite in2="SourceAlpha" operator="in" result="effect1_backgroundBlur_383_8837"/>
<feBlend mode="normal" in="SourceGraphic" in2="effect1_backgroundBlur_383_8837" result="shape"/>
</filter>
</defs>
</svg>
