<svg width="563" height="367" viewBox="0 0 563 367" fill="none" xmlns="http://www.w3.org/2000/svg">
<g filter="url(#filter0_b_97_3031)">
<rect width="563" height="367" fill="black" fill-opacity="0.87"/>
</g>
<rect x="0.807361" y="0.807361" width="561.385" height="365.385" stroke="#206234" stroke-width="1.61472"/>
<path d="M153.932 179V166.427H161.029V179H159.478V167.839H155.483V179H153.932ZM165.173 179V166.427H169.22C170.001 166.427 170.679 166.582 171.253 166.892C171.827 167.19 172.269 167.615 172.579 168.166C172.901 168.717 173.061 169.372 173.061 170.13C173.061 170.876 172.901 171.531 172.579 172.093C172.269 172.644 171.827 173.075 171.253 173.385C170.679 173.684 170.001 173.833 169.22 173.833H166.723V179H165.173ZM166.723 172.438H169.22C169.898 172.438 170.438 172.231 170.839 171.818C171.253 171.393 171.459 170.83 171.459 170.13C171.459 169.418 171.253 168.855 170.839 168.442C170.438 168.028 169.898 167.822 169.22 167.822H166.723V172.438ZM176.413 179V166.427H177.912V173.488C177.912 173.902 177.9 174.344 177.877 174.815C177.866 175.274 177.848 175.716 177.826 176.141C177.803 176.554 177.78 176.904 177.757 177.192L181.58 166.427H183.647V179H182.149V171.938C182.149 171.513 182.154 171.071 182.166 170.612C182.189 170.141 182.212 169.699 182.235 169.286C182.269 168.861 182.298 168.511 182.321 168.235L178.48 179H176.413ZM187.74 179V166.427H191.305C192.453 166.427 193.349 166.714 193.992 167.288C194.646 167.862 194.974 168.66 194.974 169.682C194.974 170.256 194.853 170.756 194.612 171.18C194.371 171.605 194.026 171.933 193.578 172.162C193.142 172.392 192.614 172.501 191.994 172.489V172.231C192.66 172.22 193.234 172.346 193.716 172.61C194.21 172.874 194.589 173.253 194.853 173.747C195.129 174.241 195.266 174.826 195.266 175.504C195.266 176.216 195.117 176.836 194.819 177.364C194.52 177.892 194.095 178.3 193.544 178.587C192.993 178.862 192.333 179 191.563 179H187.74ZM189.255 177.605H191.391C192.114 177.605 192.683 177.415 193.096 177.036C193.521 176.646 193.733 176.118 193.733 175.452C193.733 174.763 193.521 174.206 193.096 173.781C192.683 173.345 192.114 173.127 191.391 173.127H189.255V177.605ZM189.255 171.783H191.288C191.954 171.783 192.476 171.605 192.855 171.249C193.245 170.893 193.441 170.411 193.441 169.803C193.441 169.194 193.251 168.712 192.872 168.356C192.493 168 191.971 167.822 191.305 167.822H189.255V171.783ZM199.135 179V166.427H206.369V167.839H200.668V171.732H205.766V173.127H200.668V177.588H206.369V179H199.135ZM213.079 179V167.822H209.635V166.409H218.074V167.822H214.63V179H213.079ZM225.129 179.172C224.693 179.172 224.343 179.046 224.079 178.793C223.826 178.541 223.7 178.202 223.7 177.777C223.7 177.329 223.826 176.973 224.079 176.709C224.343 176.445 224.693 176.313 225.129 176.313C225.566 176.313 225.91 176.445 226.163 176.709C226.427 176.973 226.559 177.329 226.559 177.777C226.559 178.202 226.427 178.541 226.163 178.793C225.91 179.046 225.566 179.172 225.129 179.172ZM232.546 179V166.427H234.578L235.887 170.491C236.014 170.859 236.129 171.226 236.232 171.594C236.335 171.95 236.41 172.225 236.456 172.421C236.513 172.225 236.588 171.95 236.68 171.594C236.772 171.226 236.875 170.853 236.99 170.474L238.23 166.427H240.262V179H238.747V174.436C238.747 173.93 238.764 173.356 238.798 172.713C238.833 172.07 238.879 171.416 238.936 170.75C238.993 170.072 239.051 169.429 239.108 168.821C239.177 168.201 239.235 167.661 239.281 167.202L237.248 173.488H235.612L233.562 167.202C233.62 167.65 233.677 168.172 233.734 168.769C233.792 169.355 233.844 169.981 233.889 170.647C233.935 171.301 233.976 171.956 234.01 172.61C234.044 173.265 234.062 173.873 234.062 174.436V179H232.546ZM244.234 179V166.427H251.468V167.839H245.767V171.732H250.865V173.127H245.767V177.588H251.468V179H244.234ZM255.388 179V166.427H256.939V171.8H260.969V166.427H262.519V179H260.969V173.213H256.939V179H255.388ZM266.026 179L268.61 173.488C267.852 173.259 267.255 172.84 266.818 172.231C266.382 171.623 266.164 170.893 266.164 170.044C266.164 169.32 266.319 168.689 266.629 168.149C266.939 167.609 267.375 167.19 267.938 166.892C268.5 166.582 269.155 166.427 269.901 166.427H273.759V179H272.209V173.661H270.211L267.817 179H266.026ZM269.901 172.283H272.209V167.805H269.901C269.27 167.805 268.753 168.011 268.351 168.425C267.961 168.827 267.766 169.366 267.766 170.044C267.766 170.71 267.961 171.249 268.351 171.663C268.742 172.076 269.258 172.283 269.901 172.283ZM292.606 179.172C291.825 179.172 291.136 179.034 290.539 178.759C289.942 178.483 289.465 178.093 289.11 177.588C288.765 177.082 288.57 176.491 288.524 175.814H290.074C290.143 176.422 290.407 176.904 290.866 177.26C291.326 177.616 291.905 177.794 292.606 177.794C293.387 177.794 294.001 177.588 294.449 177.174C294.908 176.761 295.138 176.221 295.138 175.555C295.138 174.878 294.908 174.338 294.449 173.936C293.99 173.523 293.375 173.316 292.606 173.316H291.056V171.904H292.589C293.289 171.904 293.852 171.686 294.277 171.249C294.701 170.813 294.914 170.279 294.914 169.648C294.914 169.005 294.701 168.511 294.277 168.166C293.863 167.81 293.301 167.632 292.589 167.632C291.888 167.632 291.326 167.833 290.901 168.235C290.476 168.626 290.264 169.142 290.264 169.785H288.713C288.713 169.073 288.874 168.453 289.196 167.925C289.517 167.397 289.965 166.989 290.539 166.702C291.125 166.404 291.808 166.254 292.589 166.254C293.794 166.254 294.753 166.53 295.465 167.081C296.177 167.632 296.533 168.419 296.533 169.441C296.533 170.015 296.407 170.532 296.154 170.991C295.913 171.439 295.563 171.789 295.103 172.042C294.656 172.294 294.122 172.415 293.502 172.403V172.145C294.168 172.133 294.742 172.266 295.224 172.541C295.718 172.805 296.097 173.19 296.361 173.695C296.636 174.189 296.774 174.774 296.774 175.452C296.774 176.175 296.602 176.818 296.257 177.381C295.924 177.932 295.442 178.368 294.811 178.69C294.191 179.011 293.456 179.172 292.606 179.172ZM304.053 179.172C303.295 179.172 302.641 179.029 302.089 178.742C301.55 178.455 301.131 178.041 300.832 177.502C300.545 176.95 300.402 176.302 300.402 175.555V169.871C300.402 169.114 300.545 168.465 300.832 167.925C301.131 167.385 301.55 166.972 302.089 166.685C302.641 166.398 303.295 166.254 304.053 166.254C304.811 166.254 305.46 166.398 305.999 166.685C306.55 166.972 306.97 167.385 307.257 167.925C307.555 168.465 307.704 169.108 307.704 169.854V175.555C307.704 176.302 307.555 176.95 307.257 177.502C306.97 178.041 306.55 178.455 305.999 178.742C305.46 179.029 304.811 179.172 304.053 179.172ZM304.053 177.777C304.73 177.777 305.247 177.588 305.603 177.209C305.971 176.818 306.154 176.267 306.154 175.555V169.871C306.154 169.16 305.971 168.614 305.603 168.235C305.247 167.845 304.73 167.65 304.053 167.65C303.387 167.65 302.87 167.845 302.503 168.235C302.135 168.614 301.952 169.16 301.952 169.871V175.555C301.952 176.267 302.135 176.818 302.503 177.209C302.87 177.588 303.387 177.777 304.053 177.777ZM311.762 179V166.427H315.328C316.476 166.427 317.372 166.714 318.015 167.288C318.669 167.862 318.996 168.66 318.996 169.682C318.996 170.256 318.876 170.756 318.635 171.18C318.394 171.605 318.049 171.933 317.601 172.162C317.165 172.392 316.637 172.501 316.017 172.489V172.231C316.683 172.22 317.257 172.346 317.739 172.61C318.233 172.874 318.612 173.253 318.876 173.747C319.151 174.241 319.289 174.826 319.289 175.504C319.289 176.216 319.14 176.836 318.841 177.364C318.543 177.892 318.118 178.3 317.567 178.587C317.016 178.862 316.355 179 315.586 179H311.762ZM313.278 177.605H315.414C316.137 177.605 316.706 177.415 317.119 177.036C317.544 176.646 317.756 176.118 317.756 175.452C317.756 174.763 317.544 174.206 317.119 173.781C316.706 173.345 316.137 173.127 315.414 173.127H313.278V177.605ZM313.278 171.783H315.311C315.977 171.783 316.499 171.605 316.878 171.249C317.268 170.893 317.463 170.411 317.463 169.803C317.463 169.194 317.274 168.712 316.895 168.356C316.516 168 315.994 167.822 315.328 167.822H313.278V171.783ZM324.725 179L326 175.745L322.297 166.427H323.985L326.241 172.576C326.39 172.966 326.511 173.339 326.603 173.695C326.694 174.04 326.752 174.298 326.775 174.47C326.798 174.298 326.849 174.04 326.93 173.695C327.01 173.339 327.114 172.966 327.24 172.576L329.221 166.427H330.908L326.379 179H324.725ZM337.102 179V167.822H333.658V166.409H342.097V167.822H338.652V179H337.102ZM356.844 179V166.427H358.395V171.818H360.255L363.045 166.427H364.733L361.615 172.472L364.905 179H363.131L360.203 173.178H358.395V179H356.844ZM366.879 179.086V177.639H367.189C367.694 177.639 368.056 177.415 368.274 176.968C368.504 176.508 368.624 175.727 368.636 174.625L368.774 166.427H375.25V179H373.7V167.839H370.307L370.186 174.625C370.163 176.164 369.916 177.295 369.445 178.018C368.986 178.73 368.263 179.086 367.275 179.086H366.879ZM379.532 179V166.427H386.766V167.839H381.065V171.732H386.163V173.127H381.065V177.588H386.766V179H379.532ZM390.634 179V166.427H392.133V173.488C392.133 173.902 392.121 174.344 392.098 174.815C392.087 175.274 392.07 175.716 392.047 176.141C392.024 176.554 392.001 176.904 391.978 177.192L395.802 166.427H397.868V179H396.37V171.938C396.37 171.513 396.376 171.071 396.387 170.612C396.41 170.141 396.433 169.699 396.456 169.286C396.49 168.861 396.519 168.511 396.542 168.235L392.701 179H390.634ZM394.251 165.135C393.425 165.135 392.759 164.905 392.253 164.446C391.748 163.987 391.496 163.384 391.496 162.637H392.718C392.718 163.085 392.856 163.447 393.132 163.723C393.407 163.998 393.775 164.136 394.234 164.136C394.705 164.136 395.078 163.998 395.354 163.723C395.641 163.447 395.784 163.085 395.784 162.637H397.007C397.007 163.384 396.755 163.987 396.249 164.446C395.744 164.905 395.078 165.135 394.251 165.135ZM404.975 175.297L404.613 168.494V166.427H406.439V168.494L406.077 175.297H404.975ZM405.268 179.086C404.969 179.086 404.722 178.989 404.527 178.793C404.332 178.598 404.234 178.351 404.234 178.053C404.234 177.754 404.332 177.507 404.527 177.312C404.722 177.117 404.969 177.019 405.268 177.019H405.785C406.118 177.019 406.37 177.117 406.542 177.312C406.726 177.496 406.818 177.737 406.818 178.035C406.818 178.334 406.72 178.587 406.525 178.793C406.33 178.989 406.083 179.086 405.785 179.086H405.268ZM113.282 201.411V197.674H114.057C114.184 197.444 114.316 197.134 114.453 196.744C114.591 196.353 114.712 195.911 114.815 195.417C114.918 194.924 114.976 194.407 114.987 193.867L115.108 186.427H121.55V197.674H122.755V201.411H121.377V199H114.66V201.411H113.282ZM115.676 197.674H119.999V187.805H116.589L116.503 193.867C116.492 194.751 116.394 195.532 116.21 196.21C116.027 196.887 115.849 197.375 115.676 197.674ZM129.294 199.172C128.536 199.172 127.881 199.029 127.33 198.742C126.79 198.455 126.371 198.041 126.073 197.502C125.786 196.95 125.642 196.302 125.642 195.555V189.871C125.642 189.114 125.786 188.465 126.073 187.925C126.371 187.385 126.79 186.972 127.33 186.685C127.881 186.398 128.536 186.254 129.294 186.254C130.051 186.254 130.7 186.398 131.24 186.685C131.791 186.972 132.21 187.385 132.497 187.925C132.796 188.465 132.945 189.108 132.945 189.854V195.555C132.945 196.302 132.796 196.95 132.497 197.502C132.21 198.041 131.791 198.455 131.24 198.742C130.7 199.029 130.051 199.172 129.294 199.172ZM129.294 197.777C129.971 197.777 130.488 197.588 130.844 197.209C131.211 196.818 131.395 196.267 131.395 195.555V189.871C131.395 189.16 131.211 188.614 130.844 188.235C130.488 187.845 129.971 187.65 129.294 187.65C128.628 187.65 128.111 187.845 127.743 188.235C127.376 188.614 127.192 189.16 127.192 189.871V195.555C127.192 196.267 127.376 196.818 127.743 197.209C128.111 197.588 128.628 197.777 129.294 197.777ZM137.02 199V186.427H144.013V187.839H138.57V191.628H140.654C141.458 191.628 142.147 191.783 142.721 192.093C143.295 192.392 143.738 192.817 144.048 193.368C144.369 193.919 144.53 194.568 144.53 195.314C144.53 196.06 144.369 196.709 144.048 197.26C143.738 197.812 143.295 198.242 142.721 198.552C142.147 198.851 141.458 199 140.654 199H137.02ZM138.57 197.588H140.654C141.366 197.588 141.923 197.387 142.325 196.985C142.727 196.571 142.928 196.015 142.928 195.314C142.928 194.602 142.727 194.045 142.325 193.643C141.923 193.242 141.366 193.041 140.654 193.041H138.57V197.588ZM148.261 199V186.427H152.308C153.089 186.427 153.766 186.582 154.341 186.892C154.915 187.19 155.357 187.615 155.667 188.166C155.988 188.717 156.149 189.372 156.149 190.13C156.149 190.876 155.988 191.531 155.667 192.093C155.357 192.644 154.915 193.075 154.341 193.385C153.766 193.684 153.089 193.833 152.308 193.833H149.811V199H148.261ZM149.811 192.438H152.308C152.986 192.438 153.525 192.231 153.927 191.818C154.341 191.393 154.547 190.83 154.547 190.13C154.547 189.418 154.341 188.855 153.927 188.442C153.525 188.028 152.986 187.822 152.308 187.822H149.811V192.438ZM163.118 199.172C162.36 199.172 161.706 199.029 161.154 198.742C160.615 198.455 160.196 198.041 159.897 197.502C159.61 196.95 159.467 196.302 159.467 195.555V189.871C159.467 189.114 159.61 188.465 159.897 187.925C160.196 187.385 160.615 186.972 161.154 186.685C161.706 186.398 162.36 186.254 163.118 186.254C163.876 186.254 164.525 186.398 165.064 186.685C165.615 186.972 166.034 187.385 166.322 187.925C166.62 188.465 166.769 189.108 166.769 189.854V195.555C166.769 196.302 166.62 196.95 166.322 197.502C166.034 198.041 165.615 198.455 165.064 198.742C164.525 199.029 163.876 199.172 163.118 199.172ZM163.118 197.777C163.795 197.777 164.312 197.588 164.668 197.209C165.036 196.818 165.219 196.267 165.219 195.555V189.871C165.219 189.16 165.036 188.614 164.668 188.235C164.312 187.845 163.795 187.65 163.118 187.65C162.452 187.65 161.935 187.845 161.568 188.235C161.2 188.614 161.017 189.16 161.017 189.871V195.555C161.017 196.267 161.2 196.818 161.568 197.209C161.935 197.588 162.452 197.777 163.118 197.777ZM182.119 199V186.427H189.216V199H187.665V187.839H183.67V199H182.119ZM196.942 199.172C196.185 199.172 195.53 199.029 194.979 198.742C194.439 198.455 194.02 198.041 193.722 197.502C193.434 196.95 193.291 196.302 193.291 195.555V189.871C193.291 189.114 193.434 188.465 193.722 187.925C194.02 187.385 194.439 186.972 194.979 186.685C195.53 186.398 196.185 186.254 196.942 186.254C197.7 186.254 198.349 186.398 198.889 186.685C199.44 186.972 199.859 187.385 200.146 187.925C200.444 188.465 200.594 189.108 200.594 189.854V195.555C200.594 196.302 200.444 196.95 200.146 197.502C199.859 198.041 199.44 198.455 198.889 198.742C198.349 199.029 197.7 199.172 196.942 199.172ZM196.942 197.777C197.62 197.777 198.137 197.588 198.492 197.209C198.86 196.818 199.044 196.267 199.044 195.555V189.871C199.044 189.16 198.86 188.614 198.492 188.235C198.137 187.845 197.62 187.65 196.942 187.65C196.276 187.65 195.76 187.845 195.392 188.235C195.025 188.614 194.841 189.16 194.841 189.871V195.555C194.841 196.267 195.025 196.818 195.392 197.209C195.76 197.588 196.276 197.777 196.942 197.777ZM203.257 199L205.53 192.524L203.429 186.427H205.048L206.839 192.007H207.563V186.427H208.872V192.007H209.612L211.386 186.427H213.005L210.938 192.541L213.178 199H211.576L209.647 193.109H208.872V199H207.563V193.109H206.788L204.841 199H203.257ZM215.186 199L218.459 186.427H220.543L223.798 199H222.231L221.404 195.659H217.597L216.771 199H215.186ZM217.907 194.35H221.077L220.112 190.474C219.928 189.739 219.785 189.125 219.681 188.631C219.578 188.138 219.515 187.816 219.492 187.667C219.469 187.816 219.406 188.138 219.302 188.631C219.199 189.125 219.056 189.734 218.872 190.457L217.907 194.35ZM225.944 199.086V197.639H226.254C226.759 197.639 227.121 197.415 227.339 196.968C227.569 196.508 227.689 195.727 227.701 194.625L227.839 186.427H234.315V199H232.765V187.839H229.372L229.251 194.625C229.228 196.164 228.981 197.295 228.51 198.018C228.051 198.73 227.328 199.086 226.34 199.086H225.944ZM242.042 199.172C241.284 199.172 240.629 199.029 240.078 198.742C239.538 198.455 239.119 198.041 238.821 197.502C238.534 196.95 238.39 196.302 238.39 195.555V189.871C238.39 189.114 238.534 188.465 238.821 187.925C239.119 187.385 239.538 186.972 240.078 186.685C240.629 186.398 241.284 186.254 242.042 186.254C242.799 186.254 243.448 186.398 243.988 186.685C244.539 186.972 244.958 187.385 245.245 187.925C245.544 188.465 245.693 189.108 245.693 189.854V195.555C245.693 196.302 245.544 196.95 245.245 197.502C244.958 198.041 244.539 198.455 243.988 198.742C243.448 199.029 242.799 199.172 242.042 199.172ZM242.042 197.777C242.719 197.777 243.236 197.588 243.592 197.209C243.959 196.818 244.143 196.267 244.143 195.555V189.871C244.143 189.16 243.959 188.614 243.592 188.235C243.236 187.845 242.719 187.65 242.042 187.65C241.376 187.65 240.859 187.845 240.491 188.235C240.124 188.614 239.94 189.16 239.94 189.871V195.555C239.94 196.267 240.124 196.818 240.491 197.209C240.859 197.588 241.376 197.777 242.042 197.777ZM249.751 199V186.427H253.316C254.465 186.427 255.36 186.714 256.003 187.288C256.658 187.862 256.985 188.66 256.985 189.682C256.985 190.256 256.864 190.756 256.623 191.18C256.382 191.605 256.038 191.933 255.59 192.162C255.154 192.392 254.625 192.501 254.005 192.489V192.231C254.671 192.22 255.245 192.346 255.728 192.61C256.221 192.874 256.6 193.253 256.864 193.747C257.14 194.241 257.278 194.826 257.278 195.504C257.278 196.216 257.129 196.836 256.83 197.364C256.531 197.892 256.107 198.3 255.555 198.587C255.004 198.862 254.344 199 253.575 199H249.751ZM251.267 197.605H253.402C254.126 197.605 254.694 197.415 255.108 197.036C255.532 196.646 255.745 196.118 255.745 195.452C255.745 194.763 255.532 194.206 255.108 193.781C254.694 193.345 254.126 193.127 253.402 193.127H251.267V197.605ZM251.267 191.783H253.299C253.965 191.783 254.488 191.605 254.866 191.249C255.257 190.893 255.452 190.411 255.452 189.803C255.452 189.194 255.263 188.712 254.884 188.356C254.505 188 253.982 187.822 253.316 187.822H251.267V191.783ZM260.285 199L263.558 186.427H265.642L268.897 199H267.33L266.503 195.659H262.697L261.87 199H260.285ZM263.007 194.35H266.176L265.211 190.474C265.027 189.739 264.884 189.125 264.781 188.631C264.677 188.138 264.614 187.816 264.591 187.667C264.568 187.816 264.505 188.138 264.402 188.631C264.298 189.125 264.155 189.734 263.971 190.457L263.007 194.35ZM275.091 199V187.822H271.646V186.409H280.086V187.822H276.641V199H275.091ZM283.593 199V186.427H285.143V191.594H287.657C288.415 191.594 289.076 191.749 289.638 192.059C290.212 192.369 290.654 192.799 290.964 193.351C291.286 193.902 291.447 194.551 291.447 195.297C291.447 196.032 291.286 196.681 290.964 197.243C290.654 197.794 290.212 198.225 289.638 198.535C289.076 198.845 288.415 199 287.657 199H283.593ZM285.143 197.588H287.571C288.249 197.588 288.794 197.381 289.208 196.968C289.632 196.543 289.845 195.986 289.845 195.297C289.845 194.608 289.632 194.057 289.208 193.643C288.794 193.219 288.249 193.006 287.571 193.006H285.143V197.588ZM306.125 199V186.427H309.69C310.839 186.427 311.734 186.714 312.377 187.288C313.032 187.862 313.359 188.66 313.359 189.682C313.359 190.256 313.238 190.756 312.997 191.18C312.756 191.605 312.412 191.933 311.964 192.162C311.528 192.392 310.999 192.501 310.379 192.489V192.231C311.045 192.22 311.619 192.346 312.102 192.61C312.595 192.874 312.974 193.253 313.238 193.747C313.514 194.241 313.652 194.826 313.652 195.504C313.652 196.216 313.503 196.836 313.204 197.364C312.905 197.892 312.481 198.3 311.929 198.587C311.378 198.862 310.718 199 309.949 199H306.125ZM307.641 197.605H309.776C310.5 197.605 311.068 197.415 311.482 197.036C311.906 196.646 312.119 196.118 312.119 195.452C312.119 194.763 311.906 194.206 311.482 193.781C311.068 193.345 310.5 193.127 309.776 193.127H307.641V197.605ZM307.641 191.783H309.673C310.339 191.783 310.862 191.605 311.241 191.249C311.631 190.893 311.826 190.411 311.826 189.803C311.826 189.194 311.637 188.712 311.258 188.356C310.879 188 310.356 187.822 309.69 187.822H307.641V191.783ZM328.382 199V186.427H330.414L331.723 190.491C331.85 190.859 331.964 191.226 332.068 191.594C332.171 191.95 332.246 192.225 332.292 192.421C332.349 192.225 332.424 191.95 332.516 191.594C332.607 191.226 332.711 190.853 332.826 190.474L334.066 186.427H336.098V199H334.582V194.436C334.582 193.93 334.6 193.356 334.634 192.713C334.669 192.07 334.714 191.416 334.772 190.75C334.829 190.072 334.887 189.429 334.944 188.821C335.013 188.201 335.07 187.661 335.116 187.202L333.084 193.488H331.448L329.398 187.202C329.455 187.65 329.513 188.172 329.57 188.769C329.628 189.355 329.679 189.981 329.725 190.647C329.771 191.301 329.811 191.956 329.846 192.61C329.88 193.265 329.898 193.873 329.898 194.436V199H328.382ZM343.515 199.172C342.757 199.172 342.102 199.029 341.551 198.742C341.012 198.455 340.592 198.041 340.294 197.502C340.007 196.95 339.863 196.302 339.863 195.555V189.871C339.863 189.114 340.007 188.465 340.294 187.925C340.592 187.385 341.012 186.972 341.551 186.685C342.102 186.398 342.757 186.254 343.515 186.254C344.273 186.254 344.921 186.398 345.461 186.685C346.012 186.972 346.431 187.385 346.718 187.925C347.017 188.465 347.166 189.108 347.166 189.854V195.555C347.166 196.302 347.017 196.95 346.718 197.502C346.431 198.041 346.012 198.455 345.461 198.742C344.921 199.029 344.273 199.172 343.515 199.172ZM343.515 197.777C344.192 197.777 344.709 197.588 345.065 197.209C345.432 196.818 345.616 196.267 345.616 195.555V189.871C345.616 189.16 345.432 188.614 345.065 188.235C344.709 187.845 344.192 187.65 343.515 187.65C342.849 187.65 342.332 187.845 341.965 188.235C341.597 188.614 341.413 189.16 341.413 189.871V195.555C341.413 196.267 341.597 196.818 341.965 197.209C342.332 197.588 342.849 197.777 343.515 197.777ZM356.322 199.172C355.438 199.172 354.738 198.879 354.221 198.294C353.704 197.708 353.446 196.91 353.446 195.9V193.23H352.085V199H350.656V186.427H352.085V191.852H353.446V189.527C353.446 188.505 353.699 187.707 354.204 187.133C354.721 186.547 355.427 186.254 356.322 186.254C357.241 186.254 357.959 186.547 358.475 187.133C359.004 187.718 359.268 188.517 359.268 189.527V195.9C359.268 196.91 359.004 197.708 358.475 198.294C357.959 198.879 357.241 199.172 356.322 199.172ZM356.322 197.829C356.816 197.829 357.189 197.662 357.442 197.329C357.706 196.996 357.838 196.52 357.838 195.9V189.527C357.838 188.907 357.706 188.43 357.442 188.097C357.189 187.764 356.816 187.598 356.322 187.598C355.829 187.598 355.45 187.764 355.186 188.097C354.933 188.43 354.807 188.907 354.807 189.527V195.9C354.807 196.52 354.933 196.996 355.186 197.329C355.45 197.662 355.829 197.829 356.322 197.829ZM374.067 199V186.427H381.387V187.839H375.617V199H374.067ZM388.614 199.172C387.856 199.172 387.202 199.029 386.65 198.742C386.111 198.455 385.692 198.041 385.393 197.502C385.106 196.95 384.963 196.302 384.963 195.555V189.871C384.963 189.114 385.106 188.465 385.393 187.925C385.692 187.385 386.111 186.972 386.65 186.685C387.202 186.398 387.856 186.254 388.614 186.254C389.372 186.254 390.021 186.398 390.56 186.685C391.111 186.972 391.531 187.385 391.818 187.925C392.116 188.465 392.265 189.108 392.265 189.854V195.555C392.265 196.302 392.116 196.95 391.818 197.502C391.531 198.041 391.111 198.455 390.56 198.742C390.021 199.029 389.372 199.172 388.614 199.172ZM388.614 197.777C389.291 197.777 389.808 197.588 390.164 197.209C390.532 196.818 390.715 196.267 390.715 195.555V189.871C390.715 189.16 390.532 188.614 390.164 188.235C389.808 187.845 389.291 187.65 388.614 187.65C387.948 187.65 387.431 187.845 387.064 188.235C386.696 188.614 386.513 189.16 386.513 189.871V195.555C386.513 196.267 386.696 196.818 387.064 197.209C387.431 197.588 387.948 197.777 388.614 197.777ZM395.066 199.086V197.639H395.376C395.881 197.639 396.243 197.415 396.461 196.968C396.691 196.508 396.811 195.727 396.823 194.625L396.961 186.427H403.437V199H401.887V187.839H398.494L398.373 194.625C398.35 196.164 398.103 197.295 397.632 198.018C397.173 198.73 396.45 199.086 395.462 199.086H395.066ZM411.164 199.172C410.406 199.172 409.751 199.029 409.2 198.742C408.66 198.455 408.241 198.041 407.943 197.502C407.656 196.95 407.512 196.302 407.512 195.555V189.871C407.512 189.114 407.656 188.465 407.943 187.925C408.241 187.385 408.66 186.972 409.2 186.685C409.751 186.398 410.406 186.254 411.164 186.254C411.921 186.254 412.57 186.398 413.11 186.685C413.661 186.972 414.08 187.385 414.367 187.925C414.666 188.465 414.815 189.108 414.815 189.854V195.555C414.815 196.302 414.666 196.95 414.367 197.502C414.08 198.041 413.661 198.455 413.11 198.742C412.57 199.029 411.921 199.172 411.164 199.172ZM411.164 197.777C411.841 197.777 412.358 197.588 412.714 197.209C413.081 196.818 413.265 196.267 413.265 195.555V189.871C413.265 189.16 413.081 188.614 412.714 188.235C412.358 187.845 411.841 187.65 411.164 187.65C410.498 187.65 409.981 187.845 409.613 188.235C409.246 188.614 409.062 189.16 409.062 189.871V195.555C409.062 196.267 409.246 196.818 409.613 197.209C409.981 197.588 410.498 197.777 411.164 197.777ZM418.873 199V186.427H422.438C423.587 186.427 424.482 186.714 425.125 187.288C425.78 187.862 426.107 188.66 426.107 189.682C426.107 190.256 425.986 190.756 425.745 191.18C425.504 191.605 425.16 191.933 424.712 192.162C424.276 192.392 423.747 192.501 423.127 192.489V192.231C423.793 192.22 424.367 192.346 424.85 192.61C425.343 192.874 425.722 193.253 425.986 193.747C426.262 194.241 426.4 194.826 426.4 195.504C426.4 196.216 426.251 196.836 425.952 197.364C425.653 197.892 425.229 198.3 424.677 198.587C424.126 198.862 423.466 199 422.697 199H418.873ZM420.389 197.605H422.525C423.248 197.605 423.816 197.415 424.23 197.036C424.655 196.646 424.867 196.118 424.867 195.452C424.867 194.763 424.655 194.206 424.23 193.781C423.816 193.345 423.248 193.127 422.525 193.127H420.389V197.605ZM420.389 191.783H422.421C423.087 191.783 423.61 191.605 423.989 191.249C424.379 190.893 424.574 190.411 424.574 189.803C424.574 189.194 424.385 188.712 424.006 188.356C423.627 188 423.104 187.822 422.438 187.822H420.389V191.783ZM431.836 199L433.11 195.745L429.407 186.427H431.095L433.351 192.576C433.501 192.966 433.621 193.339 433.713 193.695C433.805 194.04 433.862 194.298 433.885 194.47C433.908 194.298 433.96 194.04 434.04 193.695C434.121 193.339 434.224 192.966 434.35 192.576L436.331 186.427H438.019L433.489 199H431.836ZM444.988 199.172C444.552 199.172 444.201 199.046 443.937 198.793C443.685 198.541 443.558 198.202 443.558 197.777C443.558 197.329 443.685 196.973 443.937 196.709C444.201 196.445 444.552 196.313 444.988 196.313C445.424 196.313 445.769 196.445 446.021 196.709C446.285 196.973 446.418 197.329 446.418 197.777C446.418 198.202 446.285 198.541 446.021 198.793C445.769 199.046 445.424 199.172 444.988 199.172ZM117.244 219V207.822H113.799V206.409H122.239V207.822H118.794V219H117.244ZM125.728 219V206.427H129.294C130.442 206.427 131.337 206.714 131.98 207.288C132.635 207.862 132.962 208.66 132.962 209.682C132.962 210.256 132.842 210.756 132.6 211.18C132.359 211.605 132.015 211.933 131.567 212.162C131.131 212.392 130.603 212.501 129.982 212.489V212.231C130.648 212.22 131.223 212.346 131.705 212.61C132.199 212.874 132.578 213.253 132.842 213.747C133.117 214.241 133.255 214.826 133.255 215.504C133.255 216.216 133.106 216.836 132.807 217.364C132.509 217.892 132.084 218.3 131.533 218.587C130.981 218.862 130.321 219 129.552 219H125.728ZM127.244 217.605H129.38C130.103 217.605 130.671 217.415 131.085 217.036C131.51 216.646 131.722 216.118 131.722 215.452C131.722 214.763 131.51 214.206 131.085 213.781C130.671 213.345 130.103 213.127 129.38 213.127H127.244V217.605ZM127.244 211.783H129.276C129.942 211.783 130.465 211.605 130.844 211.249C131.234 210.893 131.429 210.411 131.429 209.803C131.429 209.194 131.24 208.712 130.861 208.356C130.482 208 129.96 207.822 129.294 207.822H127.244V211.783ZM140.568 219.172C139.81 219.172 139.156 219.029 138.605 218.742C138.065 218.455 137.646 218.041 137.348 217.502C137.06 216.95 136.917 216.302 136.917 215.555V209.871C136.917 209.114 137.06 208.465 137.348 207.925C137.646 207.385 138.065 206.972 138.605 206.685C139.156 206.398 139.81 206.254 140.568 206.254C141.326 206.254 141.975 206.398 142.515 206.685C143.066 206.972 143.485 207.385 143.772 207.925C144.07 208.465 144.22 209.108 144.22 209.854V215.555C144.22 216.302 144.07 216.95 143.772 217.502C143.485 218.041 143.066 218.455 142.515 218.742C141.975 219.029 141.326 219.172 140.568 219.172ZM140.568 217.777C141.246 217.777 141.763 217.588 142.118 217.209C142.486 216.818 142.67 216.267 142.67 215.555V209.871C142.67 209.16 142.486 208.614 142.118 208.235C141.763 207.845 141.246 207.65 140.568 207.65C139.902 207.65 139.386 207.845 139.018 208.235C138.651 208.614 138.467 209.16 138.467 209.871V215.555C138.467 216.267 138.651 216.818 139.018 217.209C139.386 217.588 139.902 217.777 140.568 217.777ZM148.398 219V206.427H155.632V207.839H149.931V211.732H155.03V213.127H149.931V217.588H155.632V219H148.398ZM159.501 219V206.427H160.999V213.488C160.999 213.902 160.988 214.344 160.965 214.815C160.953 215.274 160.936 215.716 160.913 216.141C160.89 216.554 160.867 216.904 160.844 217.192L164.668 206.427H166.735V219H165.236V211.938C165.236 211.513 165.242 211.071 165.254 210.612C165.277 210.141 165.3 209.699 165.323 209.286C165.357 208.861 165.386 208.511 165.409 208.235L161.568 219H159.501ZM163.118 205.135C162.291 205.135 161.625 204.905 161.12 204.446C160.615 203.987 160.362 203.384 160.362 202.637H161.585C161.585 203.085 161.723 203.447 161.998 203.723C162.274 203.998 162.641 204.136 163.101 204.136C163.571 204.136 163.945 203.998 164.22 203.723C164.507 203.447 164.651 203.085 164.651 202.637H165.874C165.874 203.384 165.621 203.987 165.116 204.446C164.611 204.905 163.945 205.135 163.118 205.135ZM185.495 219.172C184.715 219.172 184.026 219.034 183.428 218.759C182.831 218.483 182.355 218.093 181.999 217.588C181.654 217.082 181.459 216.491 181.413 215.814H182.963C183.032 216.422 183.296 216.904 183.756 217.26C184.215 217.616 184.795 217.794 185.495 217.794C186.276 217.794 186.89 217.588 187.338 217.174C187.798 216.761 188.027 216.221 188.027 215.555C188.027 214.878 187.798 214.338 187.338 213.936C186.879 213.523 186.265 213.316 185.495 213.316H183.945V211.904H185.478C186.179 211.904 186.741 211.686 187.166 211.249C187.591 210.813 187.803 210.279 187.803 209.648C187.803 209.005 187.591 208.511 187.166 208.166C186.753 207.81 186.19 207.632 185.478 207.632C184.778 207.632 184.215 207.833 183.79 208.235C183.365 208.626 183.153 209.142 183.153 209.785H181.603C181.603 209.073 181.764 208.453 182.085 207.925C182.407 207.397 182.854 206.989 183.428 206.702C184.014 206.404 184.697 206.254 185.478 206.254C186.684 206.254 187.643 206.53 188.354 207.081C189.066 207.632 189.422 208.419 189.422 209.441C189.422 210.015 189.296 210.532 189.043 210.991C188.802 211.439 188.452 211.789 187.993 212.042C187.545 212.294 187.011 212.415 186.391 212.403V212.145C187.057 212.133 187.631 212.266 188.113 212.541C188.607 212.805 188.986 213.19 189.25 213.695C189.526 214.189 189.663 214.774 189.663 215.452C189.663 216.175 189.491 216.818 189.147 217.381C188.814 217.932 188.331 218.368 187.7 218.69C187.08 219.011 186.345 219.172 185.495 219.172ZM192.636 219L195.909 206.427H197.993L201.248 219H199.681L198.854 215.659H195.048L194.221 219H192.636ZM195.358 214.35H198.527L197.562 210.474C197.379 209.739 197.235 209.125 197.132 208.631C197.028 208.138 196.965 207.816 196.942 207.667C196.919 207.816 196.856 208.138 196.753 208.631C196.65 209.125 196.506 209.734 196.322 210.457L195.358 214.35ZM203.481 221.411V217.674H204.256C204.382 217.444 204.514 217.134 204.652 216.744C204.79 216.353 204.91 215.911 205.014 215.417C205.117 214.924 205.174 214.407 205.186 213.867L205.306 206.427H211.748V217.674H212.954V221.411H211.576V219H204.859V221.411H203.481ZM205.875 217.674H210.198V207.805H206.788L206.701 213.867C206.69 214.751 206.592 215.532 206.409 216.21C206.225 216.887 206.047 217.375 205.875 217.674ZM215.186 219L218.459 206.427H220.543L223.798 219H222.231L221.404 215.659H217.597L216.771 219H215.186ZM217.907 214.35H221.077L220.112 210.474C219.928 209.739 219.785 209.125 219.681 208.631C219.578 208.138 219.515 207.816 219.492 207.667C219.469 207.816 219.406 208.138 219.302 208.631C219.199 209.125 219.056 209.734 218.872 210.457L217.907 214.35ZM232.747 219V214.16C232.598 214.195 232.317 214.235 231.904 214.281C231.502 214.315 231.008 214.332 230.422 214.332C229.343 214.332 228.482 214.005 227.839 213.351C227.207 212.696 226.891 211.818 226.891 210.715V206.427H228.442V210.715C228.442 211.393 228.642 211.938 229.044 212.352C229.458 212.754 230.003 212.954 230.681 212.954C231.232 212.954 231.685 212.937 232.041 212.903C232.397 212.857 232.633 212.817 232.747 212.782V206.427H234.298V219H232.747ZM238.597 219V206.427H245.831V207.839H240.13V211.732H245.228V213.127H240.13V217.588H245.831V219H238.597ZM249.699 219V206.427H251.198V213.488C251.198 213.902 251.186 214.344 251.163 214.815C251.152 215.274 251.135 215.716 251.112 216.141C251.089 216.554 251.066 216.904 251.043 217.192L254.866 206.427H256.933V219H255.435V211.938C255.435 211.513 255.441 211.071 255.452 210.612C255.475 210.141 255.498 209.699 255.521 209.286C255.555 208.861 255.584 208.511 255.607 208.235L251.766 219H249.699ZM253.316 205.135C252.49 205.135 251.824 204.905 251.318 204.446C250.813 203.987 250.561 203.384 250.561 202.637H251.783C251.783 203.085 251.921 203.447 252.197 203.723C252.472 203.998 252.84 204.136 253.299 204.136C253.77 204.136 254.143 203.998 254.419 203.723C254.706 203.447 254.849 203.085 254.849 202.637H256.072C256.072 203.384 255.82 203.987 255.314 204.446C254.809 204.905 254.143 205.135 253.316 205.135ZM271.663 219L274.247 213.488C273.489 213.259 272.892 212.84 272.456 212.231C272.019 211.623 271.801 210.893 271.801 210.044C271.801 209.32 271.956 208.689 272.266 208.149C272.576 207.609 273.013 207.19 273.575 206.892C274.138 206.582 274.792 206.427 275.539 206.427H279.397V219H277.847V213.661H275.849L273.455 219H271.663ZM275.539 212.283H277.847V207.805H275.539C274.907 207.805 274.39 208.011 273.989 208.425C273.598 208.827 273.403 209.366 273.403 210.044C273.403 210.71 273.598 211.249 273.989 211.663C274.379 212.076 274.896 212.283 275.539 212.283ZM283.575 219V206.427H287.141C288.289 206.427 289.185 206.714 289.828 207.288C290.482 207.862 290.809 208.66 290.809 209.682C290.809 210.256 290.689 210.756 290.448 211.18C290.207 211.605 289.862 211.933 289.414 212.162C288.978 212.392 288.45 212.501 287.83 212.489V212.231C288.496 212.22 289.07 212.346 289.552 212.61C290.046 212.874 290.425 213.253 290.689 213.747C290.964 214.241 291.102 214.826 291.102 215.504C291.102 216.216 290.953 216.836 290.654 217.364C290.356 217.892 289.931 218.3 289.38 218.587C288.829 218.862 288.168 219 287.399 219H283.575ZM285.091 217.605H287.227C287.95 217.605 288.519 217.415 288.932 217.036C289.357 216.646 289.569 216.118 289.569 215.452C289.569 214.763 289.357 214.206 288.932 213.781C288.519 213.345 287.95 213.127 287.227 213.127H285.091V217.605ZM285.091 211.783H287.124C287.79 211.783 288.312 211.605 288.691 211.249C289.081 210.893 289.277 210.411 289.277 209.803C289.277 209.194 289.087 208.712 288.708 208.356C288.329 208 287.807 207.822 287.141 207.822H285.091V211.783ZM293.593 219.086V217.639H293.903C294.408 217.639 294.77 217.415 294.988 216.968C295.218 216.508 295.338 215.727 295.35 214.625L295.488 206.427H301.964V219H300.414V207.839H297.02L296.9 214.625C296.877 216.164 296.63 217.295 296.159 218.018C295.7 218.73 294.977 219.086 293.989 219.086H293.593ZM305.488 219L308.071 213.488C307.313 213.259 306.716 212.84 306.28 212.231C305.844 211.623 305.626 210.893 305.626 210.044C305.626 209.32 305.781 208.689 306.091 208.149C306.401 207.609 306.837 207.19 307.4 206.892C307.962 206.582 308.617 206.427 309.363 206.427H313.221V219H311.671V213.661H309.673L307.279 219H305.488ZM309.363 212.283H311.671V207.805H309.363C308.732 207.805 308.215 208.011 307.813 208.425C307.423 208.827 307.227 209.366 307.227 210.044C307.227 210.71 307.423 211.249 307.813 211.663C308.203 212.076 308.72 212.283 309.363 212.283ZM317.52 219V206.427H324.754V207.839H319.053V211.732H324.152V213.127H319.053V217.588H324.754V219H317.52ZM331.465 219V207.822H328.02V206.409H336.46V207.822H333.015V219H331.465ZM343.584 219.172C342.826 219.172 342.166 219.029 341.603 218.742C341.052 218.455 340.621 218.041 340.311 217.502C340.013 216.95 339.863 216.302 339.863 215.555V209.871C339.863 209.114 340.013 208.465 340.311 207.925C340.621 207.385 341.052 206.972 341.603 206.685C342.166 206.398 342.826 206.254 343.584 206.254C344.342 206.254 344.996 206.404 345.547 206.702C346.098 206.989 346.523 207.403 346.822 207.942C347.12 208.482 347.27 209.125 347.27 209.871H345.719C345.719 209.16 345.53 208.614 345.151 208.235C344.784 207.845 344.261 207.65 343.584 207.65C342.906 207.65 342.372 207.839 341.982 208.218C341.603 208.597 341.413 209.142 341.413 209.854V215.555C341.413 216.267 341.603 216.818 341.982 217.209C342.372 217.588 342.906 217.777 343.584 217.777C344.261 217.777 344.784 217.588 345.151 217.209C345.53 216.818 345.719 216.267 345.719 215.555H347.27C347.27 216.29 347.12 216.933 346.822 217.484C346.523 218.024 346.098 218.443 345.547 218.742C344.996 219.029 344.342 219.172 343.584 219.172ZM350.587 219L353.171 213.488C352.413 213.259 351.816 212.84 351.379 212.231C350.943 211.623 350.725 210.893 350.725 210.044C350.725 209.32 350.88 208.689 351.19 208.149C351.5 207.609 351.936 207.19 352.499 206.892C353.061 206.582 353.716 206.427 354.462 206.427H358.32V219H356.77V213.661H354.772L352.378 219H350.587ZM354.462 212.283H356.77V207.805H354.462C353.831 207.805 353.314 208.011 352.912 208.425C352.522 208.827 352.327 209.366 352.327 210.044C352.327 210.71 352.522 211.249 352.912 211.663C353.303 212.076 353.819 212.283 354.462 212.283ZM373.791 219V206.427H380.887V219H379.337V207.839H375.341V219H373.791ZM388.614 219.172C387.856 219.172 387.202 219.029 386.65 218.742C386.111 218.455 385.692 218.041 385.393 217.502C385.106 216.95 384.963 216.302 384.963 215.555V209.871C384.963 209.114 385.106 208.465 385.393 207.925C385.692 207.385 386.111 206.972 386.65 206.685C387.202 206.398 387.856 206.254 388.614 206.254C389.372 206.254 390.021 206.398 390.56 206.685C391.111 206.972 391.531 207.385 391.818 207.925C392.116 208.465 392.265 209.108 392.265 209.854V215.555C392.265 216.302 392.116 216.95 391.818 217.502C391.531 218.041 391.111 218.455 390.56 218.742C390.021 219.029 389.372 219.172 388.614 219.172ZM388.614 217.777C389.291 217.777 389.808 217.588 390.164 217.209C390.532 216.818 390.715 216.267 390.715 215.555V209.871C390.715 209.16 390.532 208.614 390.164 208.235C389.808 207.845 389.291 207.65 388.614 207.65C387.948 207.65 387.431 207.845 387.064 208.235C386.696 208.614 386.513 209.16 386.513 209.871V215.555C386.513 216.267 386.696 216.818 387.064 217.209C387.431 217.588 387.948 217.777 388.614 217.777ZM396.031 219V206.427H398.063L399.372 210.491C399.498 210.859 399.613 211.226 399.717 211.594C399.82 211.95 399.895 212.225 399.94 212.421C399.998 212.225 400.072 211.95 400.164 211.594C400.256 211.226 400.36 210.853 400.474 210.474L401.714 206.427H403.747V219H402.231V214.436C402.231 213.93 402.248 213.356 402.283 212.713C402.317 212.07 402.363 211.416 402.421 210.75C402.478 210.072 402.535 209.429 402.593 208.821C402.662 208.201 402.719 207.661 402.765 207.202L400.733 213.488H399.096L397.047 207.202C397.104 207.65 397.162 208.172 397.219 208.769C397.276 209.355 397.328 209.981 397.374 210.647C397.42 211.301 397.46 211.956 397.495 212.61C397.529 213.265 397.546 213.873 397.546 214.436V219H396.031ZM411.164 219.172C410.406 219.172 409.751 219.029 409.2 218.742C408.66 218.455 408.241 218.041 407.943 217.502C407.656 216.95 407.512 216.302 407.512 215.555V209.871C407.512 209.114 407.656 208.465 407.943 207.925C408.241 207.385 408.66 206.972 409.2 206.685C409.751 206.398 410.406 206.254 411.164 206.254C411.921 206.254 412.57 206.398 413.11 206.685C413.661 206.972 414.08 207.385 414.367 207.925C414.666 208.465 414.815 209.108 414.815 209.854V215.555C414.815 216.302 414.666 216.95 414.367 217.502C414.08 218.041 413.661 218.455 413.11 218.742C412.57 219.029 411.921 219.172 411.164 219.172ZM411.164 217.777C411.841 217.777 412.358 217.588 412.714 217.209C413.081 216.818 413.265 216.267 413.265 215.555V209.871C413.265 209.16 413.081 208.614 412.714 208.235C412.358 207.845 411.841 207.65 411.164 207.65C410.498 207.65 409.981 207.845 409.613 208.235C409.246 208.614 409.062 209.16 409.062 209.871V215.555C409.062 216.267 409.246 216.818 409.613 217.209C409.981 217.588 410.498 217.777 411.164 217.777ZM424.419 219V214.16C424.27 214.195 423.989 214.235 423.575 214.281C423.173 214.315 422.68 214.332 422.094 214.332C421.015 214.332 420.153 214.005 419.51 213.351C418.879 212.696 418.563 211.818 418.563 210.715V206.427H420.113V210.715C420.113 211.393 420.314 211.938 420.716 212.352C421.129 212.754 421.675 212.954 422.352 212.954C422.903 212.954 423.357 212.937 423.713 212.903C424.069 212.857 424.304 212.817 424.419 212.782V206.427H425.969V219H424.419ZM430.165 219V206.427H431.715V211.594H434.23C434.988 211.594 435.648 211.749 436.211 212.059C436.785 212.369 437.227 212.799 437.537 213.351C437.858 213.902 438.019 214.551 438.019 215.297C438.019 216.032 437.858 216.681 437.537 217.243C437.227 217.794 436.785 218.225 436.211 218.535C435.648 218.845 434.988 219 434.23 219H430.165ZM431.715 217.588H434.144C434.821 217.588 435.367 217.381 435.78 216.968C436.205 216.543 436.417 215.986 436.417 215.297C436.417 214.608 436.205 214.057 435.78 213.643C435.367 213.219 434.821 213.006 434.144 213.006H431.715V217.588ZM136.71 239V226.427H138.743L140.052 230.491C140.178 230.859 140.293 231.226 140.396 231.594C140.499 231.95 140.574 232.225 140.62 232.421C140.677 232.225 140.752 231.95 140.844 231.594C140.936 231.226 141.039 230.853 141.154 230.474L142.394 226.427H144.426V239H142.911V234.436C142.911 233.93 142.928 233.356 142.962 232.713C142.997 232.07 143.043 231.416 143.1 230.75C143.158 230.072 143.215 229.429 143.272 228.821C143.341 228.201 143.399 227.661 143.445 227.202L141.412 233.488H139.776L137.726 227.202C137.784 227.65 137.841 228.172 137.899 228.769C137.956 229.355 138.008 229.981 138.054 230.647C138.1 231.301 138.14 231.956 138.174 232.61C138.209 233.265 138.226 233.873 138.226 234.436V239H136.71ZM148.278 239V226.427H149.828V231.8H153.858V226.427H155.408V239H153.858V233.213H149.828V239H148.278ZM159.673 239V226.427H166.907V227.839H161.206V231.732H166.304V233.127H161.206V237.588H166.907V239H159.673ZM182.119 239V226.427H189.216V239H187.665V227.839H183.67V239H182.119ZM193.498 239V226.427H200.732V227.839H195.031V231.732H200.129V233.127H195.031V237.588H200.732V239H193.498ZM204.635 239V226.427H208.682C209.463 226.427 210.14 226.582 210.715 226.892C211.289 227.19 211.731 227.615 212.041 228.166C212.362 228.717 212.523 229.372 212.523 230.13C212.523 230.876 212.362 231.531 212.041 232.093C211.731 232.644 211.289 233.075 210.715 233.385C210.14 233.684 209.463 233.833 208.682 233.833H206.185V239H204.635ZM206.185 232.438H208.682C209.36 232.438 209.899 232.231 210.301 231.818C210.715 231.393 210.921 230.83 210.921 230.13C210.921 229.418 210.715 228.855 210.301 228.442C209.899 228.028 209.36 227.822 208.682 227.822H206.185V232.438ZM216.047 239V226.427H223.281V227.839H217.58V231.732H222.678V233.127H217.58V237.588H223.281V239H216.047ZM227.219 239V226.427H234.211V227.839H228.769V231.628H230.853C231.657 231.628 232.346 231.783 232.92 232.093C233.494 232.392 233.936 232.817 234.246 233.368C234.567 233.919 234.728 234.568 234.728 235.314C234.728 236.06 234.567 236.709 234.246 237.26C233.936 237.812 233.494 238.242 232.92 238.552C232.346 238.851 231.657 239 230.853 239H227.219ZM228.769 237.588H230.853C231.565 237.588 232.122 237.387 232.524 236.985C232.925 236.571 233.126 236.015 233.126 235.314C233.126 234.602 232.925 234.045 232.524 233.643C232.122 233.242 231.565 233.041 230.853 233.041H228.769V237.588ZM238.425 239V226.427H239.923V233.488C239.923 233.902 239.912 234.344 239.889 234.815C239.877 235.274 239.86 235.716 239.837 236.141C239.814 236.554 239.791 236.904 239.768 237.192L243.592 226.427H245.659V239H244.16V231.938C244.16 231.513 244.166 231.071 244.177 230.612C244.2 230.141 244.223 229.699 244.246 229.286C244.281 228.861 244.309 228.511 244.332 228.235L240.491 239H238.425ZM252.541 239V227.822H249.097V226.409H257.536V227.822H254.091V239H252.541ZM261.043 239V226.427H262.593V231.594H265.108C265.866 231.594 266.526 231.749 267.089 232.059C267.663 232.369 268.105 232.799 268.415 233.351C268.736 233.902 268.897 234.551 268.897 235.297C268.897 236.032 268.736 236.681 268.415 237.243C268.105 237.794 267.663 238.225 267.089 238.535C266.526 238.845 265.866 239 265.108 239H261.043ZM262.593 237.588H265.022C265.699 237.588 266.245 237.381 266.658 236.968C267.083 236.543 267.295 235.986 267.295 235.297C267.295 234.608 267.083 234.057 266.658 233.643C266.245 233.219 265.699 233.006 265.022 233.006H262.593V237.588ZM283.575 239V226.427H287.141C288.289 226.427 289.185 226.714 289.828 227.288C290.482 227.862 290.809 228.66 290.809 229.682C290.809 230.256 290.689 230.756 290.448 231.18C290.207 231.605 289.862 231.933 289.414 232.162C288.978 232.392 288.45 232.501 287.83 232.489V232.231C288.496 232.22 289.07 232.346 289.552 232.61C290.046 232.874 290.425 233.253 290.689 233.747C290.964 234.241 291.102 234.826 291.102 235.504C291.102 236.216 290.953 236.836 290.654 237.364C290.356 237.892 289.931 238.3 289.38 238.587C288.829 238.862 288.168 239 287.399 239H283.575ZM285.091 237.605H287.227C287.95 237.605 288.519 237.415 288.932 237.036C289.357 236.646 289.569 236.118 289.569 235.452C289.569 234.763 289.357 234.206 288.932 233.781C288.519 233.345 287.95 233.127 287.227 233.127H285.091V237.605ZM285.091 231.783H287.124C287.79 231.783 288.312 231.605 288.691 231.249C289.081 230.893 289.277 230.411 289.277 229.803C289.277 229.194 289.087 228.712 288.708 228.356C288.329 228 287.807 227.822 287.141 227.822H285.091V231.783ZM298.484 239.172C297.727 239.172 297.066 239.029 296.504 238.742C295.953 238.455 295.522 238.041 295.212 237.502C294.913 236.95 294.764 236.302 294.764 235.555V229.871C294.764 229.114 294.913 228.465 295.212 227.925C295.522 227.385 295.953 226.972 296.504 226.685C297.066 226.398 297.727 226.254 298.484 226.254C299.242 226.254 299.897 226.404 300.448 226.702C300.999 226.989 301.424 227.403 301.723 227.942C302.021 228.482 302.17 229.125 302.17 229.871H300.62C300.62 229.16 300.431 228.614 300.052 228.235C299.684 227.845 299.162 227.65 298.484 227.65C297.807 227.65 297.273 227.839 296.883 228.218C296.504 228.597 296.314 229.142 296.314 229.854V235.555C296.314 236.267 296.504 236.818 296.883 237.209C297.273 237.588 297.807 237.777 298.484 237.777C299.162 237.777 299.684 237.588 300.052 237.209C300.431 236.818 300.62 236.267 300.62 235.555H302.17C302.17 236.29 302.021 236.933 301.723 237.484C301.424 238.024 300.999 238.443 300.448 238.742C299.897 239.029 299.242 239.172 298.484 239.172ZM306.246 239V226.427H313.48V227.839H307.779V231.732H312.877V233.127H307.779V237.588H313.48V239H306.246ZM316.487 239L320.104 232.627L316.676 226.427H318.468L320.414 230.147C320.517 230.342 320.621 230.555 320.724 230.784C320.839 231.002 320.931 231.175 321 231.301C321.057 231.175 321.137 231.002 321.241 230.784C321.356 230.555 321.465 230.342 321.568 230.147L323.549 226.427H325.254L321.826 232.524L325.443 239H323.669L321.516 235.004C321.413 234.809 321.304 234.602 321.189 234.384C321.086 234.154 321.005 233.971 320.948 233.833C320.891 233.971 320.804 234.149 320.69 234.367C320.586 234.585 320.483 234.792 320.38 234.987L318.209 239H316.487ZM338.778 241.411V237.674H339.553C339.68 237.444 339.812 237.134 339.949 236.744C340.087 236.353 340.208 235.911 340.311 235.417C340.415 234.924 340.472 234.407 340.483 233.867L340.604 226.427H347.046V237.674H348.251V241.411H346.873V239H340.156V241.411H338.778ZM341.172 237.674H345.495V227.805H342.085L341.999 233.867C341.988 234.751 341.89 235.532 341.706 236.21C341.523 236.887 341.345 237.375 341.172 237.674ZM351.345 239V226.427H358.579V227.839H352.878V231.732H357.976V233.127H352.878V237.588H358.579V239H351.345ZM362.206 239V226.427H364.239L365.548 230.491C365.674 230.859 365.789 231.226 365.892 231.594C365.995 231.95 366.07 232.225 366.116 232.421C366.173 232.225 366.248 231.95 366.34 231.594C366.432 231.226 366.535 230.853 366.65 230.474L367.89 226.427H369.923V239H368.407V234.436C368.407 233.93 368.424 233.356 368.458 232.713C368.493 232.07 368.539 231.416 368.596 230.75C368.654 230.072 368.711 229.429 368.769 228.821C368.837 228.201 368.895 227.661 368.941 227.202L366.908 233.488H365.272L363.222 227.202C363.28 227.65 363.337 228.172 363.395 228.769C363.452 229.355 363.504 229.981 363.55 230.647C363.596 231.301 363.636 231.956 363.67 232.61C363.705 233.265 363.722 233.873 363.722 234.436V239H362.206ZM377.339 239.172C376.581 239.172 375.927 239.029 375.376 238.742C374.836 238.455 374.417 238.041 374.118 237.502C373.831 236.95 373.688 236.302 373.688 235.555V229.871C373.688 229.114 373.831 228.465 374.118 227.925C374.417 227.385 374.836 226.972 375.376 226.685C375.927 226.398 376.581 226.254 377.339 226.254C378.097 226.254 378.746 226.398 379.285 226.685C379.837 226.972 380.256 227.385 380.543 227.925C380.841 228.465 380.991 229.108 380.991 229.854V235.555C380.991 236.302 380.841 236.95 380.543 237.502C380.256 238.041 379.837 238.455 379.285 238.742C378.746 239.029 378.097 239.172 377.339 239.172ZM377.339 237.777C378.017 237.777 378.533 237.588 378.889 237.209C379.257 236.818 379.44 236.267 379.44 235.555V229.871C379.44 229.16 379.257 228.614 378.889 228.235C378.533 227.845 378.017 227.65 377.339 227.65C376.673 227.65 376.156 227.845 375.789 228.235C375.422 228.614 375.238 229.16 375.238 229.871V235.555C375.238 236.267 375.422 236.818 375.789 237.209C376.156 237.588 376.673 237.777 377.339 237.777ZM385.049 239V226.427H386.599V231.8H390.629V226.427H392.179V239H390.629V233.213H386.599V239H385.049ZM399.889 239.172C399.131 239.172 398.476 239.029 397.925 238.742C397.386 238.455 396.967 238.041 396.668 237.502C396.381 236.95 396.237 236.302 396.237 235.555V229.871C396.237 229.114 396.381 228.465 396.668 227.925C396.967 227.385 397.386 226.972 397.925 226.685C398.476 226.398 399.131 226.254 399.889 226.254C400.647 226.254 401.295 226.398 401.835 226.685C402.386 226.972 402.805 227.385 403.092 227.925C403.391 228.465 403.54 229.108 403.54 229.854V235.555C403.54 236.302 403.391 236.95 403.092 237.502C402.805 238.041 402.386 238.455 401.835 238.742C401.295 239.029 400.647 239.172 399.889 239.172ZM399.889 237.777C400.566 237.777 401.083 237.588 401.439 237.209C401.806 236.818 401.99 236.267 401.99 235.555V229.871C401.99 229.16 401.806 228.614 401.439 228.235C401.083 227.845 400.566 227.65 399.889 227.65C399.223 227.65 398.706 227.845 398.339 228.235C397.971 228.614 397.787 229.16 397.787 229.871V235.555C397.787 236.267 397.971 236.818 398.339 237.209C398.706 237.588 399.223 237.777 399.889 237.777ZM407.598 239V226.427H411.164C412.312 226.427 413.207 226.714 413.85 227.288C414.505 227.862 414.832 228.66 414.832 229.682C414.832 230.256 414.712 230.756 414.471 231.18C414.229 231.605 413.885 231.933 413.437 232.162C413.001 232.392 412.473 232.501 411.853 232.489V232.231C412.519 232.22 413.093 232.346 413.575 232.61C414.069 232.874 414.448 233.253 414.712 233.747C414.987 234.241 415.125 234.826 415.125 235.504C415.125 236.216 414.976 236.836 414.677 237.364C414.379 237.892 413.954 238.3 413.403 238.587C412.851 238.862 412.191 239 411.422 239H407.598ZM409.114 237.605H411.25C411.973 237.605 412.541 237.415 412.955 237.036C413.38 236.646 413.592 236.118 413.592 235.452C413.592 234.763 413.38 234.206 412.955 233.781C412.541 233.345 411.973 233.127 411.25 233.127H409.114V237.605ZM409.114 231.783H411.146C411.812 231.783 412.335 231.605 412.714 231.249C413.104 230.893 413.299 230.411 413.299 229.803C413.299 229.194 413.11 228.712 412.731 228.356C412.352 228 411.83 227.822 411.164 227.822H409.114V231.783ZM97.0676 259V246.427H100.633C101.781 246.427 102.677 246.714 103.32 247.288C103.974 247.862 104.302 248.66 104.302 249.682C104.302 250.256 104.181 250.756 103.94 251.18C103.699 251.605 103.354 251.933 102.906 252.162C102.47 252.392 101.942 252.501 101.322 252.489V252.231C101.988 252.22 102.562 252.346 103.044 252.61C103.538 252.874 103.917 253.253 104.181 253.747C104.457 254.241 104.594 254.826 104.594 255.504C104.594 256.216 104.445 256.836 104.147 257.364C103.848 257.892 103.423 258.3 102.872 258.587C102.321 258.862 101.661 259 100.891 259H97.0676ZM98.5833 257.605H100.719C101.442 257.605 102.011 257.415 102.424 257.036C102.849 256.646 103.061 256.118 103.061 255.452C103.061 254.763 102.849 254.206 102.424 253.781C102.011 253.345 101.442 253.127 100.719 253.127H98.5833V257.605ZM98.5833 251.783H100.616C101.282 251.783 101.804 251.605 102.183 251.249C102.573 250.893 102.769 250.411 102.769 249.803C102.769 249.194 102.579 248.712 102.2 248.356C101.821 248 101.299 247.822 100.633 247.822H98.5833V251.783ZM119.324 259V246.427H121.357L122.666 250.491C122.792 250.859 122.907 251.226 123.01 251.594C123.114 251.95 123.188 252.225 123.234 252.421C123.292 252.225 123.366 251.95 123.458 251.594C123.55 251.226 123.653 250.853 123.768 250.474L125.008 246.427H127.041V259H125.525V254.436C125.525 253.93 125.542 253.356 125.577 252.713C125.611 252.07 125.657 251.416 125.714 250.75C125.772 250.072 125.829 249.429 125.887 248.821C125.956 248.201 126.013 247.661 126.059 247.202L124.026 253.488H122.39L120.341 247.202C120.398 247.65 120.455 248.172 120.513 248.769C120.57 249.355 120.622 249.981 120.668 250.647C120.714 251.301 120.754 251.956 120.788 252.61C120.823 253.265 120.84 253.873 120.84 254.436V259H119.324ZM134.457 259.172C133.699 259.172 133.045 259.029 132.494 258.742C131.954 258.455 131.535 258.041 131.236 257.502C130.949 256.95 130.806 256.302 130.806 255.555V249.871C130.806 249.114 130.949 248.465 131.236 247.925C131.535 247.385 131.954 246.972 132.494 246.685C133.045 246.398 133.699 246.254 134.457 246.254C135.215 246.254 135.864 246.398 136.404 246.685C136.955 246.972 137.374 247.385 137.661 247.925C137.959 248.465 138.109 249.108 138.109 249.854V255.555C138.109 256.302 137.959 256.95 137.661 257.502C137.374 258.041 136.955 258.455 136.404 258.742C135.864 259.029 135.215 259.172 134.457 259.172ZM134.457 257.777C135.135 257.777 135.651 257.588 136.007 257.209C136.375 256.818 136.559 256.267 136.559 255.555V249.871C136.559 249.16 136.375 248.614 136.007 248.235C135.651 247.845 135.135 247.65 134.457 247.65C133.791 247.65 133.275 247.845 132.907 248.235C132.54 248.614 132.356 249.16 132.356 249.871V255.555C132.356 256.267 132.54 256.818 132.907 257.209C133.275 257.588 133.791 257.777 134.457 257.777ZM142.287 259V246.427H149.521V247.839H143.82V251.732H148.918V253.127H143.82V257.588H149.521V259H142.287ZM153.39 259V246.427H154.888V253.488C154.888 253.902 154.877 254.344 154.854 254.815C154.842 255.274 154.825 255.716 154.802 256.141C154.779 256.554 154.756 256.904 154.733 257.192L158.557 246.427H160.624V259H159.125V251.938C159.125 251.513 159.131 251.071 159.143 250.612C159.166 250.141 159.189 249.699 159.212 249.286C159.246 248.861 159.275 248.511 159.298 248.235L155.457 259H153.39ZM157.007 245.135C156.18 245.135 155.514 244.905 155.009 244.446C154.504 243.987 154.251 243.384 154.251 242.637H155.474C155.474 243.085 155.612 243.447 155.887 243.723C156.163 243.998 156.53 244.136 156.99 244.136C157.46 244.136 157.834 243.998 158.109 243.723C158.396 243.447 158.54 243.085 158.54 242.637H159.763C159.763 243.384 159.51 243.987 159.005 244.446C158.5 244.905 157.834 245.135 157.007 245.135ZM176.284 259V246.427H183.604V247.839H177.834V259H176.284ZM190.831 259.172C190.073 259.172 189.419 259.029 188.868 258.742C188.328 258.455 187.909 258.041 187.61 257.502C187.323 256.95 187.18 256.302 187.18 255.555V249.871C187.18 249.114 187.323 248.465 187.61 247.925C187.909 247.385 188.328 246.972 188.868 246.685C189.419 246.398 190.073 246.254 190.831 246.254C191.589 246.254 192.238 246.398 192.778 246.685C193.329 246.972 193.748 247.385 194.035 247.925C194.333 248.465 194.483 249.108 194.483 249.854V255.555C194.483 256.302 194.333 256.95 194.035 257.502C193.748 258.041 193.329 258.455 192.778 258.742C192.238 259.029 191.589 259.172 190.831 259.172ZM190.831 257.777C191.509 257.777 192.025 257.588 192.381 257.209C192.749 256.818 192.933 256.267 192.933 255.555V249.871C192.933 249.16 192.749 248.614 192.381 248.235C192.025 247.845 191.509 247.65 190.831 247.65C190.165 247.65 189.649 247.845 189.281 248.235C188.914 248.614 188.73 249.16 188.73 249.871V255.555C188.73 256.267 188.914 256.818 189.281 257.209C189.649 257.588 190.165 257.777 190.831 257.777ZM197.283 259.086V257.639H197.593C198.099 257.639 198.46 257.415 198.679 256.968C198.908 256.508 199.029 255.727 199.04 254.625L199.178 246.427H205.654V259H204.104V247.839H200.711L200.59 254.625C200.567 256.164 200.321 257.295 199.85 258.018C199.39 258.73 198.667 259.086 197.68 259.086H197.283ZM213.381 259.172C212.623 259.172 211.969 259.029 211.417 258.742C210.878 258.455 210.459 258.041 210.16 257.502C209.873 256.95 209.729 256.302 209.729 255.555V249.871C209.729 249.114 209.873 248.465 210.16 247.925C210.459 247.385 210.878 246.972 211.417 246.685C211.969 246.398 212.623 246.254 213.381 246.254C214.139 246.254 214.788 246.398 215.327 246.685C215.878 246.972 216.297 247.385 216.585 247.925C216.883 248.465 217.032 249.108 217.032 249.854V255.555C217.032 256.302 216.883 256.95 216.585 257.502C216.297 258.041 215.878 258.455 215.327 258.742C214.788 259.029 214.139 259.172 213.381 259.172ZM213.381 257.777C214.058 257.777 214.575 257.588 214.931 257.209C215.298 256.818 215.482 256.267 215.482 255.555V249.871C215.482 249.16 215.298 248.614 214.931 248.235C214.575 247.845 214.058 247.65 213.381 247.65C212.715 247.65 212.198 247.845 211.831 248.235C211.463 248.614 211.28 249.16 211.28 249.871V255.555C211.28 256.267 211.463 256.818 211.831 257.209C212.198 257.588 212.715 257.777 213.381 257.777ZM221.09 259V246.427H224.656C225.804 246.427 226.7 246.714 227.343 247.288C227.997 247.862 228.324 248.66 228.324 249.682C228.324 250.256 228.204 250.756 227.963 251.18C227.722 251.605 227.377 251.933 226.929 252.162C226.493 252.392 225.965 252.501 225.345 252.489V252.231C226.011 252.22 226.585 252.346 227.067 252.61C227.561 252.874 227.94 253.253 228.204 253.747C228.479 254.241 228.617 254.826 228.617 255.504C228.617 256.216 228.468 256.836 228.169 257.364C227.871 257.892 227.446 258.3 226.895 258.587C226.344 258.862 225.683 259 224.914 259H221.09ZM222.606 257.605H224.742C225.465 257.605 226.034 257.415 226.447 257.036C226.872 256.646 227.084 256.118 227.084 255.452C227.084 254.763 226.872 254.206 226.447 253.781C226.034 253.345 225.465 253.127 224.742 253.127H222.606V257.605ZM222.606 251.783H224.638C225.304 251.783 225.827 251.605 226.206 251.249C226.596 250.893 226.791 250.411 226.791 249.803C226.791 249.194 226.602 248.712 226.223 248.356C225.844 248 225.322 247.822 224.656 247.822H222.606V251.783ZM232.486 259V246.427H239.72V247.839H234.019V251.732H239.117V253.127H234.019V257.588H239.72V259H232.486ZM244.88 261.756L246.258 256.399H248.497L246.258 261.756H244.88ZM271.736 259V254.16C271.586 254.195 271.305 254.235 270.892 254.281C270.49 254.315 269.996 254.332 269.41 254.332C268.331 254.332 267.47 254.005 266.827 253.351C266.195 252.696 265.88 251.818 265.88 250.715V246.427H267.43V250.715C267.43 251.393 267.631 251.938 268.033 252.352C268.446 252.754 268.991 252.954 269.669 252.954C270.22 252.954 270.674 252.937 271.029 252.903C271.385 252.857 271.621 252.817 271.736 252.782V246.427H273.286V259H271.736ZM280.255 259V247.822H276.81V246.409H285.25V247.822H281.805V259H280.255ZM292.305 259.172C291.547 259.172 290.892 259.029 290.341 258.742C289.801 258.455 289.382 258.041 289.084 257.502C288.797 256.95 288.653 256.302 288.653 255.555V249.871C288.653 249.114 288.797 248.465 289.084 247.925C289.382 247.385 289.801 246.972 290.341 246.685C290.892 246.398 291.547 246.254 292.305 246.254C293.062 246.254 293.711 246.398 294.251 246.685C294.802 246.972 295.221 247.385 295.508 247.925C295.807 248.465 295.956 249.108 295.956 249.854V255.555C295.956 256.302 295.807 256.95 295.508 257.502C295.221 258.041 294.802 258.455 294.251 258.742C293.711 259.029 293.062 259.172 292.305 259.172ZM292.305 257.777C292.982 257.777 293.499 257.588 293.855 257.209C294.222 256.818 294.406 256.267 294.406 255.555V249.871C294.406 249.16 294.222 248.614 293.855 248.235C293.499 247.845 292.982 247.65 292.305 247.65C291.639 247.65 291.122 247.845 290.754 248.235C290.387 248.614 290.203 249.16 290.203 249.871V255.555C290.203 256.267 290.387 256.818 290.754 257.209C291.122 257.588 291.639 257.777 292.305 257.777ZM300.031 259V246.427H307.024V247.839H301.581V251.628H303.665C304.469 251.628 305.158 251.783 305.732 252.093C306.306 252.392 306.748 252.817 307.059 253.368C307.38 253.919 307.541 254.568 307.541 255.314C307.541 256.06 307.38 256.709 307.059 257.26C306.748 257.812 306.306 258.242 305.732 258.552C305.158 258.851 304.469 259 303.665 259H300.031ZM301.581 257.588H303.665C304.377 257.588 304.934 257.387 305.336 256.985C305.738 256.571 305.939 256.015 305.939 255.314C305.939 254.602 305.738 254.045 305.336 253.643C304.934 253.242 304.377 253.041 303.665 253.041H301.581V257.588ZM310.807 259V246.427H312.253V251.594H312.96C314.004 251.594 314.825 251.887 315.422 252.472C316.031 253.058 316.335 253.856 316.335 254.866V255.745C316.335 256.755 316.037 257.553 315.44 258.139C314.843 258.713 314.016 259 312.96 259H310.807ZM312.253 257.639H312.96C313.568 257.639 314.033 257.473 314.355 257.14C314.688 256.795 314.854 256.325 314.854 255.727V254.866C314.854 254.258 314.688 253.787 314.355 253.454C314.033 253.121 313.568 252.954 312.96 252.954H312.253V257.639ZM317.455 259V246.427H318.902V259H317.455ZM333.201 259L335.785 253.488C335.027 253.259 334.43 252.84 333.993 252.231C333.557 251.623 333.339 250.893 333.339 250.044C333.339 249.32 333.494 248.689 333.804 248.149C334.114 247.609 334.55 247.19 335.113 246.892C335.676 246.582 336.33 246.427 337.076 246.427H340.935V259H339.384V253.661H337.386L334.992 259H333.201ZM337.076 252.283H339.384V247.805H337.076C336.445 247.805 335.928 248.011 335.526 248.425C335.136 248.827 334.941 249.366 334.941 250.044C334.941 250.71 335.136 251.249 335.526 251.663C335.917 252.076 336.433 252.283 337.076 252.283ZM356.388 259V246.427H357.938V251.8H361.968V246.427H363.519V259H361.968V253.213H357.938V259H356.388ZM366.922 259L370.195 246.427H372.279L375.534 259H373.967L373.14 255.659H369.334L368.507 259H366.922ZM369.644 254.35H372.813L371.848 250.474C371.664 249.739 371.521 249.125 371.418 248.631C371.314 248.138 371.251 247.816 371.228 247.667C371.205 247.816 371.142 248.138 371.039 248.631C370.935 249.125 370.792 249.734 370.608 250.457L369.644 254.35ZM378.92 259V246.427H380.471V251.818H382.331L385.121 246.427H386.809L383.691 252.472L386.981 259H385.207L382.279 253.178H380.471V259H378.92ZM393.778 259.172C393.02 259.172 392.365 259.029 391.814 258.742C391.275 258.455 390.855 258.041 390.557 257.502C390.27 256.95 390.126 256.302 390.126 255.555V249.871C390.126 249.114 390.27 248.465 390.557 247.925C390.855 247.385 391.275 246.972 391.814 246.685C392.365 246.398 393.02 246.254 393.778 246.254C394.536 246.254 395.184 246.398 395.724 246.685C396.275 246.972 396.694 247.385 396.981 247.925C397.28 248.465 397.429 249.108 397.429 249.854V255.555C397.429 256.302 397.28 256.95 396.981 257.502C396.694 258.041 396.275 258.455 395.724 258.742C395.184 259.029 394.536 259.172 393.778 259.172ZM393.778 257.777C394.455 257.777 394.972 257.588 395.328 257.209C395.695 256.818 395.879 256.267 395.879 255.555V249.871C395.879 249.16 395.695 248.614 395.328 248.235C394.972 247.845 394.455 247.65 393.778 247.65C393.112 247.65 392.595 247.845 392.228 248.235C391.86 248.614 391.676 249.16 391.676 249.871V255.555C391.676 256.267 391.86 256.818 392.228 257.209C392.595 257.588 393.112 257.777 393.778 257.777ZM401.487 259V246.427H403.037V251.8H407.068V246.427H408.618V259H407.068V253.213H403.037V259H401.487ZM412.883 259V246.427H420.117V247.839H414.415V251.732H419.514V253.127H414.415V257.588H420.117V259H412.883ZM430.788 261.411V259H424.054V246.427H425.604V257.622H429.324V246.427H430.875V257.622H432.166V261.411H430.788ZM436.121 254.005V252.627H441.633V254.005H436.121ZM449.377 259V247.822H445.932V246.409H454.372V247.822H450.927V259H449.377ZM461.427 259.172C460.669 259.172 460.014 259.029 459.463 258.742C458.923 258.455 458.504 258.041 458.206 257.502C457.919 256.95 457.775 256.302 457.775 255.555V249.871C457.775 249.114 457.919 248.465 458.206 247.925C458.504 247.385 458.923 246.972 459.463 246.685C460.014 246.398 460.669 246.254 461.427 246.254C462.184 246.254 462.833 246.398 463.373 246.685C463.924 246.972 464.343 247.385 464.63 247.925C464.929 248.465 465.078 249.108 465.078 249.854V255.555C465.078 256.302 464.929 256.95 464.63 257.502C464.343 258.041 463.924 258.455 463.373 258.742C462.833 259.029 462.184 259.172 461.427 259.172ZM461.427 257.777C462.104 257.777 462.621 257.588 462.977 257.209C463.344 256.818 463.528 256.267 463.528 255.555V249.871C463.528 249.16 463.344 248.614 462.977 248.235C462.621 247.845 462.104 247.65 461.427 247.65C460.761 247.65 460.244 247.845 459.876 248.235C459.509 248.614 459.325 249.16 459.325 249.871V255.555C459.325 256.267 459.509 256.818 459.876 257.209C460.244 257.588 460.761 257.777 461.427 257.777ZM197.011 279.172C196.253 279.172 195.593 279.029 195.031 278.742C194.479 278.455 194.049 278.041 193.739 277.502C193.44 276.95 193.291 276.302 193.291 275.555V269.871C193.291 269.114 193.44 268.465 193.739 267.925C194.049 267.385 194.479 266.972 195.031 266.685C195.593 266.398 196.253 266.254 197.011 266.254C197.769 266.254 198.424 266.404 198.975 266.702C199.526 266.989 199.951 267.403 200.249 267.942C200.548 268.482 200.697 269.125 200.697 269.871H199.147C199.147 269.16 198.958 268.614 198.579 268.235C198.211 267.845 197.689 267.65 197.011 267.65C196.334 267.65 195.8 267.839 195.409 268.218C195.031 268.597 194.841 269.142 194.841 269.854V275.555C194.841 276.267 195.031 276.818 195.409 277.209C195.8 277.588 196.334 277.777 197.011 277.777C197.689 277.777 198.211 277.588 198.579 277.209C198.958 276.818 199.147 276.267 199.147 275.555H200.697C200.697 276.29 200.548 276.933 200.249 277.484C199.951 278.024 199.526 278.443 198.975 278.742C198.424 279.029 197.769 279.172 197.011 279.172ZM204.359 279V266.427H206.391L207.7 270.491C207.827 270.859 207.942 271.226 208.045 271.594C208.148 271.95 208.223 272.225 208.269 272.421C208.326 272.225 208.401 271.95 208.493 271.594C208.585 271.226 208.688 270.853 208.803 270.474L210.043 266.427H212.075V279H210.56V274.436C210.56 273.93 210.577 273.356 210.611 272.713C210.646 272.07 210.692 271.416 210.749 270.75C210.806 270.072 210.864 269.429 210.921 268.821C210.99 268.201 211.048 267.661 211.094 267.202L209.061 273.488H207.425L205.375 267.202C205.433 267.65 205.49 268.172 205.547 268.769C205.605 269.355 205.657 269.981 205.702 270.647C205.748 271.301 205.789 271.956 205.823 272.61C205.858 273.265 205.875 273.873 205.875 274.436V279H204.359ZM219.492 279.172C218.734 279.172 218.08 279.029 217.528 278.742C216.989 278.455 216.57 278.041 216.271 277.502C215.984 276.95 215.841 276.302 215.841 275.555V269.871C215.841 269.114 215.984 268.465 216.271 267.925C216.57 267.385 216.989 266.972 217.528 266.685C218.08 266.398 218.734 266.254 219.492 266.254C220.25 266.254 220.899 266.398 221.438 266.685C221.989 266.972 222.409 267.385 222.696 267.925C222.994 268.465 223.143 269.108 223.143 269.854V275.555C223.143 276.302 222.994 276.95 222.696 277.502C222.409 278.041 221.989 278.455 221.438 278.742C220.899 279.029 220.25 279.172 219.492 279.172ZM219.492 277.777C220.169 277.777 220.686 277.588 221.042 277.209C221.41 276.818 221.593 276.267 221.593 275.555V269.871C221.593 269.16 221.41 268.614 221.042 268.235C220.686 267.845 220.169 267.65 219.492 267.65C218.826 267.65 218.309 267.845 217.942 268.235C217.574 268.614 217.391 269.16 217.391 269.871V275.555C217.391 276.267 217.574 276.818 217.942 277.209C218.309 277.588 218.826 277.777 219.492 277.777ZM227.494 279V266.427H234.814V267.839H229.044V279H227.494ZM249.751 279V266.427H253.316C254.465 266.427 255.36 266.714 256.003 267.288C256.658 267.862 256.985 268.66 256.985 269.682C256.985 270.256 256.864 270.756 256.623 271.18C256.382 271.605 256.038 271.933 255.59 272.162C255.154 272.392 254.625 272.501 254.005 272.489V272.231C254.671 272.22 255.245 272.346 255.728 272.61C256.221 272.874 256.6 273.253 256.864 273.747C257.14 274.241 257.278 274.826 257.278 275.504C257.278 276.216 257.129 276.836 256.83 277.364C256.531 277.892 256.107 278.3 255.555 278.587C255.004 278.862 254.344 279 253.575 279H249.751ZM251.267 277.605H253.402C254.126 277.605 254.694 277.415 255.108 277.036C255.532 276.646 255.745 276.118 255.745 275.452C255.745 274.763 255.532 274.206 255.108 273.781C254.694 273.345 254.126 273.127 253.402 273.127H251.267V277.605ZM251.267 271.783H253.299C253.965 271.783 254.488 271.605 254.866 271.249C255.257 270.893 255.452 270.411 255.452 269.803C255.452 269.194 255.263 268.712 254.884 268.356C254.505 268 253.982 267.822 253.316 267.822H251.267V271.783ZM260.544 279V266.427H261.99V271.594H262.697C263.741 271.594 264.562 271.887 265.16 272.472C265.768 273.058 266.072 273.856 266.072 274.866V275.745C266.072 276.755 265.774 277.553 265.177 278.139C264.58 278.713 263.753 279 262.697 279H260.544ZM261.99 277.639H262.697C263.305 277.639 263.77 277.473 264.092 277.14C264.425 276.795 264.591 276.325 264.591 275.727V274.866C264.591 274.258 264.425 273.787 264.092 273.454C263.77 273.121 263.305 272.954 262.697 272.954H261.99V277.639ZM267.192 279V266.427H268.639V279H267.192ZM271.043 279.086V277.639H271.353C271.859 277.639 272.22 277.415 272.438 276.968C272.668 276.508 272.789 275.727 272.8 274.625L272.938 266.427H279.414V279H277.864V267.839H274.471L274.35 274.625C274.327 276.164 274.08 277.295 273.61 278.018C273.15 278.73 272.427 279.086 271.439 279.086H271.043ZM283.696 279V266.427H290.93V267.839H285.229V271.732H290.327V273.127H285.229V277.588H290.93V279H283.696ZM300.396 279V274.16C300.247 274.195 299.966 274.235 299.552 274.281C299.15 274.315 298.657 274.332 298.071 274.332C296.992 274.332 296.131 274.005 295.488 273.351C294.856 272.696 294.54 271.818 294.54 270.715V266.427H296.09V270.715C296.09 271.393 296.291 271.938 296.693 272.352C297.107 272.754 297.652 272.954 298.329 272.954C298.881 272.954 299.334 272.937 299.69 272.903C300.046 272.857 300.281 272.817 300.396 272.782V266.427H301.946V279H300.396ZM306.073 279V266.427H307.572V273.488C307.572 273.902 307.56 274.344 307.537 274.815C307.526 275.274 307.509 275.716 307.486 276.141C307.463 276.554 307.44 276.904 307.417 277.192L311.241 266.427H313.307V279H311.809V271.938C311.809 271.513 311.815 271.071 311.826 270.612C311.849 270.141 311.872 269.699 311.895 269.286C311.929 268.861 311.958 268.511 311.981 268.235L308.14 279H306.073ZM320.19 279V267.822H316.745V266.409H325.185V267.822H321.74V279H320.19ZM328.692 279V266.427H330.242V271.594H332.757C333.515 271.594 334.175 271.749 334.737 272.059C335.312 272.369 335.754 272.799 336.064 273.351C336.385 273.902 336.546 274.551 336.546 275.297C336.546 276.032 336.385 276.681 336.064 277.243C335.754 277.794 335.312 278.225 334.737 278.535C334.175 278.845 333.515 279 332.757 279H328.692ZM330.242 277.588H332.671C333.348 277.588 333.893 277.381 334.307 276.968C334.732 276.543 334.944 275.986 334.944 275.297C334.944 274.608 334.732 274.057 334.307 273.643C333.893 273.219 333.348 273.006 332.671 273.006H330.242V277.588ZM343.584 279.172C342.826 279.172 342.166 279.029 341.603 278.742C341.052 278.455 340.621 278.041 340.311 277.502C340.013 276.95 339.863 276.302 339.863 275.555V269.871C339.863 269.114 340.013 268.465 340.311 267.925C340.621 267.385 341.052 266.972 341.603 266.685C342.166 266.398 342.826 266.254 343.584 266.254C344.342 266.254 344.996 266.404 345.547 266.702C346.098 266.989 346.523 267.403 346.822 267.942C347.12 268.482 347.27 269.125 347.27 269.871H345.719C345.719 269.16 345.53 268.614 345.151 268.235C344.784 267.845 344.261 267.65 343.584 267.65C342.906 267.65 342.372 267.839 341.982 268.218C341.603 268.597 341.413 269.142 341.413 269.854V275.555C341.413 276.267 341.603 276.818 341.982 277.209C342.372 277.588 342.906 277.777 343.584 277.777C344.261 277.777 344.784 277.588 345.151 277.209C345.53 276.818 345.719 276.267 345.719 275.555H347.27C347.27 276.29 347.12 276.933 346.822 277.484C346.523 278.024 346.098 278.443 345.547 278.742C344.996 279.029 344.342 279.172 343.584 279.172ZM350.587 279L353.171 273.488C352.413 273.259 351.816 272.84 351.379 272.231C350.943 271.623 350.725 270.893 350.725 270.044C350.725 269.32 350.88 268.689 351.19 268.149C351.5 267.609 351.936 267.19 352.499 266.892C353.061 266.582 353.716 266.427 354.462 266.427H358.32V279H356.77V273.661H354.772L352.378 279H350.587ZM354.462 272.283H356.77V267.805H354.462C353.831 267.805 353.314 268.011 352.912 268.425C352.522 268.827 352.327 269.366 352.327 270.044C352.327 270.71 352.522 271.249 352.912 271.663C353.303 272.076 353.819 272.283 354.462 272.283ZM142.589 299V286.427H144.087V293.488C144.087 293.902 144.076 294.344 144.053 294.815C144.041 295.274 144.024 295.716 144.001 296.141C143.978 296.554 143.955 296.904 143.932 297.192L147.756 286.427H149.823V299H148.324V291.938C148.324 291.513 148.33 291.071 148.341 290.612C148.364 290.141 148.387 289.699 148.41 289.286C148.445 288.861 148.474 288.511 148.497 288.235L144.656 299H142.589ZM163.795 299L166.068 292.524L163.967 286.427H165.586L167.377 292.007H168.101V286.427H169.41V292.007H170.15L171.925 286.427H173.544L171.477 292.541L173.716 299H172.114L170.185 293.109H169.41V299H168.101V293.109H167.326L165.38 299H163.795ZM176.413 299V286.427H177.912V293.488C177.912 293.902 177.9 294.344 177.877 294.815C177.866 295.274 177.848 295.716 177.826 296.141C177.803 296.554 177.78 296.904 177.757 297.192L181.58 286.427H183.647V299H182.149V291.938C182.149 291.513 182.154 291.071 182.166 290.612C182.189 290.141 182.212 289.699 182.235 289.286C182.269 288.861 182.298 288.511 182.321 288.235L178.48 299H176.413ZM190.53 299V287.822H187.085V286.409H195.525V287.822H192.08V299H190.53ZM199.032 299V286.427H200.582V291.594H203.096C203.854 291.594 204.515 291.749 205.077 292.059C205.651 292.369 206.093 292.799 206.403 293.351C206.725 293.902 206.886 294.551 206.886 295.297C206.886 296.032 206.725 296.681 206.403 297.243C206.093 297.794 205.651 298.225 205.077 298.535C204.515 298.845 203.854 299 203.096 299H199.032ZM200.582 297.588H203.01C203.688 297.588 204.233 297.381 204.647 296.968C205.071 296.543 205.284 295.986 205.284 295.297C205.284 294.608 205.071 294.057 204.647 293.643C204.233 293.219 203.688 293.006 203.01 293.006H200.582V297.588ZM225.198 299.172C224.44 299.172 223.78 299.029 223.218 298.742C222.666 298.455 222.236 298.041 221.926 297.502C221.627 296.95 221.478 296.302 221.478 295.555V289.871C221.478 289.114 221.627 288.465 221.926 287.925C222.236 287.385 222.666 286.972 223.218 286.685C223.78 286.398 224.44 286.254 225.198 286.254C225.956 286.254 226.611 286.404 227.162 286.702C227.713 286.989 228.138 287.403 228.436 287.942C228.735 288.482 228.884 289.125 228.884 289.871H227.334C227.334 289.16 227.145 288.614 226.766 288.235C226.398 287.845 225.876 287.65 225.198 287.65C224.521 287.65 223.987 287.839 223.596 288.218C223.218 288.597 223.028 289.142 223.028 289.854V295.555C223.028 296.267 223.218 296.818 223.596 297.209C223.987 297.588 224.521 297.777 225.198 297.777C225.876 297.777 226.398 297.588 226.766 297.209C227.145 296.818 227.334 296.267 227.334 295.555H228.884C228.884 296.29 228.735 296.933 228.436 297.484C228.138 298.024 227.713 298.443 227.162 298.742C226.611 299.029 225.956 299.172 225.198 299.172ZM238.385 299V294.16C238.236 294.195 237.954 294.235 237.541 294.281C237.139 294.315 236.645 294.332 236.06 294.332C234.98 294.332 234.119 294.005 233.476 293.351C232.845 292.696 232.529 291.818 232.529 290.715V286.427H234.079V290.715C234.079 291.393 234.28 291.938 234.682 292.352C235.095 292.754 235.641 292.954 236.318 292.954C236.869 292.954 237.323 292.937 237.679 292.903C238.035 292.857 238.27 292.817 238.385 292.782V286.427H239.935V299H238.385ZM243.373 299L246.646 286.427H248.73L251.985 299H250.418L249.591 295.659H245.784L244.958 299H243.373ZM246.094 294.35H249.264L248.299 290.474C248.115 289.739 247.972 289.125 247.868 288.631C247.765 288.138 247.702 287.816 247.679 287.667C247.656 287.816 247.593 288.138 247.489 288.631C247.386 289.125 247.243 289.734 247.059 290.457L246.094 294.35ZM259.023 299.172C258.265 299.172 257.605 299.029 257.042 298.742C256.491 298.455 256.06 298.041 255.75 297.502C255.452 296.95 255.302 296.302 255.302 295.555V289.871C255.302 289.114 255.452 288.465 255.75 287.925C256.06 287.385 256.491 286.972 257.042 286.685C257.605 286.398 258.265 286.254 259.023 286.254C259.781 286.254 260.435 286.404 260.986 286.702C261.537 286.989 261.962 287.403 262.261 287.942C262.559 288.482 262.709 289.125 262.709 289.871H261.158C261.158 289.16 260.969 288.614 260.59 288.235C260.223 287.845 259.7 287.65 259.023 287.65C258.345 287.65 257.811 287.839 257.421 288.218C257.042 288.597 256.852 289.142 256.852 289.854V295.555C256.852 296.267 257.042 296.818 257.421 297.209C257.811 297.588 258.345 297.777 259.023 297.777C259.7 297.777 260.223 297.588 260.59 297.209C260.969 296.818 261.158 296.267 261.158 295.555H262.709C262.709 296.29 262.559 296.933 262.261 297.484C261.962 298.024 261.537 298.443 260.986 298.742C260.435 299.029 259.781 299.172 259.023 299.172ZM269.454 299V287.822H266.009V286.409H274.448V287.822H271.004V299H269.454ZM276.681 299.086V297.639H276.991C277.496 297.639 277.858 297.415 278.076 296.968C278.306 296.508 278.426 295.727 278.438 294.625L278.575 286.427H285.051V299H283.501V287.839H280.108L279.988 294.625C279.965 296.164 279.718 297.295 279.247 298.018C278.788 298.73 278.064 299.086 277.077 299.086H276.681ZM289.161 299V286.427H290.66V293.488C290.66 293.902 290.648 294.344 290.625 294.815C290.614 295.274 290.596 295.716 290.574 296.141C290.551 296.554 290.528 296.904 290.505 297.192L294.328 286.427H296.395V299H294.897V291.938C294.897 291.513 294.902 291.071 294.914 290.612C294.937 290.141 294.96 289.699 294.983 289.286C295.017 288.861 295.046 288.511 295.069 288.235L291.228 299H289.161ZM300.488 299V286.427H304.053C305.201 286.427 306.097 286.714 306.74 287.288C307.394 287.862 307.722 288.66 307.722 289.682C307.722 290.256 307.601 290.756 307.36 291.18C307.119 291.605 306.774 291.933 306.326 292.162C305.89 292.392 305.362 292.501 304.742 292.489V292.231C305.408 292.22 305.982 292.346 306.464 292.61C306.958 292.874 307.337 293.253 307.601 293.747C307.877 294.241 308.014 294.826 308.014 295.504C308.014 296.216 307.865 296.836 307.567 297.364C307.268 297.892 306.843 298.3 306.292 298.587C305.741 298.862 305.081 299 304.311 299H300.488ZM302.003 297.605H304.139C304.862 297.605 305.431 297.415 305.844 297.036C306.269 296.646 306.482 296.118 306.482 295.452C306.482 294.763 306.269 294.206 305.844 293.781C305.431 293.345 304.862 293.127 304.139 293.127H302.003V297.605ZM302.003 291.783H304.036C304.702 291.783 305.224 291.605 305.603 291.249C305.993 290.893 306.189 290.411 306.189 289.803C306.189 289.194 305.999 288.712 305.62 288.356C305.241 288 304.719 287.822 304.053 287.822H302.003V291.783ZM315.328 299.172C314.57 299.172 313.915 299.029 313.364 298.742C312.825 298.455 312.405 298.041 312.107 297.502C311.82 296.95 311.676 296.302 311.676 295.555V289.871C311.676 289.114 311.82 288.465 312.107 287.925C312.405 287.385 312.825 286.972 313.364 286.685C313.915 286.398 314.57 286.254 315.328 286.254C316.086 286.254 316.734 286.398 317.274 286.685C317.825 286.972 318.244 287.385 318.531 287.925C318.83 288.465 318.979 289.108 318.979 289.854V295.555C318.979 296.302 318.83 296.95 318.531 297.502C318.244 298.041 317.825 298.455 317.274 298.742C316.734 299.029 316.086 299.172 315.328 299.172ZM315.328 297.777C316.005 297.777 316.522 297.588 316.878 297.209C317.245 296.818 317.429 296.267 317.429 295.555V289.871C317.429 289.16 317.245 288.614 316.878 288.235C316.522 287.845 316.005 287.65 315.328 287.65C314.662 287.65 314.145 287.845 313.778 288.235C313.41 288.614 313.226 289.16 313.226 289.871V295.555C313.226 296.267 313.41 296.818 313.778 297.209C314.145 297.588 314.662 297.777 315.328 297.777ZM322.986 299V286.427H324.484V293.488C324.484 293.902 324.473 294.344 324.45 294.815C324.438 295.274 324.421 295.716 324.398 296.141C324.375 296.554 324.352 296.904 324.329 297.192L328.153 286.427H330.22V299H328.721V291.938C328.721 291.513 328.727 291.071 328.738 290.612C328.761 290.141 328.784 289.699 328.807 289.286C328.842 288.861 328.87 288.511 328.893 288.235L325.052 299H322.986ZM326.603 285.135C325.776 285.135 325.11 284.905 324.605 284.446C324.099 283.987 323.847 283.384 323.847 282.637H325.07C325.07 283.085 325.207 283.447 325.483 283.723C325.759 283.998 326.126 284.136 326.585 284.136C327.056 284.136 327.429 283.998 327.705 283.723C327.992 283.447 328.135 283.085 328.135 282.637H329.358C329.358 283.384 329.106 283.987 328.601 284.446C328.095 284.905 327.429 285.135 326.603 285.135ZM344.192 299L346.465 292.524L344.364 286.427H345.983L347.774 292.007H348.498V286.427H349.807V292.007H350.547L352.321 286.427H353.94L351.874 292.541L354.113 299H352.511L350.582 293.109H349.807V299H348.498V293.109H347.723L345.776 299H344.192ZM356.81 299V286.427H358.308V293.488C358.308 293.902 358.297 294.344 358.274 294.815C358.263 295.274 358.245 295.716 358.222 296.141C358.199 296.554 358.176 296.904 358.153 297.192L361.977 286.427H364.044V299H362.545V291.938C362.545 291.513 362.551 291.071 362.563 290.612C362.586 290.141 362.609 289.699 362.632 289.286C362.666 288.861 362.695 288.511 362.718 288.235L358.877 299H356.81ZM371.53 299.172C370.749 299.172 370.06 299.034 369.463 298.759C368.866 298.483 368.389 298.093 368.033 297.588C367.689 297.082 367.493 296.491 367.448 295.814H368.998C369.067 296.422 369.331 296.904 369.79 297.26C370.249 297.616 370.829 297.794 371.53 297.794C372.31 297.794 372.925 297.588 373.372 297.174C373.832 296.761 374.061 296.221 374.061 295.555C374.061 294.878 373.832 294.338 373.372 293.936C372.913 293.523 372.299 293.316 371.53 293.316H369.979V291.904H371.512C372.213 291.904 372.775 291.686 373.2 291.249C373.625 290.813 373.838 290.279 373.838 289.648C373.838 289.005 373.625 288.511 373.2 288.166C372.787 287.81 372.224 287.632 371.512 287.632C370.812 287.632 370.249 287.833 369.824 288.235C369.4 288.626 369.187 289.142 369.187 289.785H367.637C367.637 289.073 367.798 288.453 368.119 287.925C368.441 287.397 368.889 286.989 369.463 286.702C370.048 286.404 370.732 286.254 371.512 286.254C372.718 286.254 373.677 286.53 374.389 287.081C375.101 287.632 375.457 288.419 375.457 289.441C375.457 290.015 375.33 290.532 375.078 290.991C374.836 291.439 374.486 291.789 374.027 292.042C373.579 292.294 373.045 292.415 372.425 292.403V292.145C373.091 292.133 373.665 292.266 374.148 292.541C374.641 292.805 375.02 293.19 375.284 293.695C375.56 294.189 375.698 294.774 375.698 295.452C375.698 296.175 375.525 296.818 375.181 297.381C374.848 297.932 374.366 298.368 373.734 298.69C373.114 299.011 372.379 299.172 371.53 299.172ZM379.411 299V286.427H380.961V291.8H384.992V286.427H386.542V299H384.992V293.213H380.961V299H379.411ZM390.703 299V286.427H392.253V291.594H394.768C395.526 291.594 396.186 291.749 396.749 292.059C397.323 292.369 397.765 292.799 398.075 293.351C398.397 293.902 398.557 294.551 398.557 295.297C398.557 296.032 398.397 296.681 398.075 297.243C397.765 297.794 397.323 298.225 396.749 298.535C396.186 298.845 395.526 299 394.768 299H390.703ZM392.253 297.588H394.682C395.359 297.588 395.905 297.381 396.318 296.968C396.743 296.543 396.956 295.986 396.956 295.297C396.956 294.608 396.743 294.057 396.318 293.643C395.905 293.219 395.359 293.006 394.682 293.006H392.253V297.588ZM407.059 299.172C406.175 299.172 405.475 298.879 404.958 298.294C404.441 297.708 404.183 296.91 404.183 295.9V293.23H402.822V299H401.392V286.427H402.822V291.852H404.183V289.527C404.183 288.505 404.435 287.707 404.941 287.133C405.457 286.547 406.163 286.254 407.059 286.254C407.978 286.254 408.695 286.547 409.212 287.133C409.74 287.718 410.004 288.517 410.004 289.527V295.9C410.004 296.91 409.74 297.708 409.212 298.294C408.695 298.879 407.978 299.172 407.059 299.172ZM407.059 297.829C407.553 297.829 407.926 297.662 408.179 297.329C408.443 296.996 408.575 296.52 408.575 295.9V289.527C408.575 288.907 408.443 288.43 408.179 288.097C407.926 287.764 407.553 287.598 407.059 287.598C406.565 287.598 406.186 287.764 405.922 288.097C405.67 288.43 405.543 288.907 405.543 289.527V295.9C405.543 296.52 405.67 296.996 405.922 297.329C406.186 297.662 406.565 297.829 407.059 297.829ZM416.801 299.172C416.365 299.172 416.014 299.046 415.75 298.793C415.498 298.541 415.371 298.202 415.371 297.777C415.371 297.329 415.498 296.973 415.75 296.709C416.014 296.445 416.365 296.313 416.801 296.313C417.237 296.313 417.582 296.445 417.834 296.709C418.099 296.973 418.231 297.329 418.231 297.777C418.231 298.202 418.099 298.541 417.834 298.793C417.582 299.046 417.237 299.172 416.801 299.172ZM210.306 319V306.427H217.403V319H215.853V307.839H211.857V319H210.306ZM225.129 319.172C224.372 319.172 223.717 319.029 223.166 318.742C222.626 318.455 222.207 318.041 221.909 317.502C221.621 316.95 221.478 316.302 221.478 315.555V309.871C221.478 309.114 221.621 308.465 221.909 307.925C222.207 307.385 222.626 306.972 223.166 306.685C223.717 306.398 224.372 306.254 225.129 306.254C225.887 306.254 226.536 306.398 227.076 306.685C227.627 306.972 228.046 307.385 228.333 307.925C228.632 308.465 228.781 309.108 228.781 309.854V315.555C228.781 316.302 228.632 316.95 228.333 317.502C228.046 318.041 227.627 318.455 227.076 318.742C226.536 319.029 225.887 319.172 225.129 319.172ZM225.129 317.777C225.807 317.777 226.324 317.588 226.679 317.209C227.047 316.818 227.231 316.267 227.231 315.555V309.871C227.231 309.16 227.047 308.614 226.679 308.235C226.324 307.845 225.807 307.65 225.129 307.65C224.463 307.65 223.947 307.845 223.579 308.235C223.212 308.614 223.028 309.16 223.028 309.871V315.555C223.028 316.267 223.212 316.818 223.579 317.209C223.947 317.588 224.463 317.777 225.129 317.777ZM232.546 319V306.427H234.578L235.887 310.491C236.014 310.859 236.129 311.226 236.232 311.594C236.335 311.95 236.41 312.225 236.456 312.421C236.513 312.225 236.588 311.95 236.68 311.594C236.772 311.226 236.875 310.853 236.99 310.474L238.23 306.427H240.262V319H238.747V314.436C238.747 313.93 238.764 313.356 238.798 312.713C238.833 312.07 238.879 311.416 238.936 310.75C238.993 310.072 239.051 309.429 239.108 308.821C239.177 308.201 239.235 307.661 239.281 307.202L237.248 313.488H235.612L233.562 307.202C233.62 307.65 233.677 308.172 233.734 308.769C233.792 309.355 233.844 309.981 233.889 310.647C233.935 311.301 233.976 311.956 234.01 312.61C234.045 313.265 234.062 313.873 234.062 314.436V319H232.546ZM247.679 319.172C246.921 319.172 246.267 319.029 245.715 318.742C245.176 318.455 244.757 318.041 244.458 317.502C244.171 316.95 244.028 316.302 244.028 315.555V309.871C244.028 309.114 244.171 308.465 244.458 307.925C244.757 307.385 245.176 306.972 245.715 306.685C246.267 306.398 246.921 306.254 247.679 306.254C248.437 306.254 249.086 306.398 249.625 306.685C250.176 306.972 250.596 307.385 250.883 307.925C251.181 308.465 251.33 309.108 251.33 309.854V315.555C251.33 316.302 251.181 316.95 250.883 317.502C250.596 318.041 250.176 318.455 249.625 318.742C249.086 319.029 248.437 319.172 247.679 319.172ZM247.679 317.777C248.356 317.777 248.873 317.588 249.229 317.209C249.597 316.818 249.78 316.267 249.78 315.555V309.871C249.78 309.16 249.597 308.614 249.229 308.235C248.873 307.845 248.356 307.65 247.679 307.65C247.013 307.65 246.496 307.845 246.129 308.235C245.761 308.614 245.578 309.16 245.578 309.871V315.555C245.578 316.267 245.761 316.818 246.129 317.209C246.496 317.588 247.013 317.777 247.679 317.777ZM253.993 319L256.267 312.524L254.166 306.427H255.785L257.576 312.007H258.299V306.427H259.608V312.007H260.349L262.123 306.427H263.742L261.675 312.541L263.914 319H262.312L260.383 313.109H259.608V319H258.299V313.109H257.524L255.578 319H253.993ZM266.784 319V306.427H274.018V307.839H268.317V311.732H273.415V313.127H268.317V317.588H274.018V319H266.784ZM277.473 319L277.439 306.427H278.885V317.829H280.901V306.427H282.141V317.829H284.139V306.427H285.568V319H277.473ZM289.23 319V306.427H290.78V311.594H293.295C294.053 311.594 294.713 311.749 295.276 312.059C295.85 312.369 296.292 312.799 296.602 313.351C296.923 313.902 297.084 314.551 297.084 315.297C297.084 316.032 296.923 316.681 296.602 317.243C296.292 317.794 295.85 318.225 295.276 318.535C294.713 318.845 294.053 319 293.295 319H289.23ZM290.78 317.588H293.209C293.886 317.588 294.432 317.381 294.845 316.968C295.27 316.543 295.482 315.986 295.482 315.297C295.482 314.608 295.27 314.057 294.845 313.643C294.432 313.219 293.886 313.006 293.209 313.006H290.78V317.588ZM311.47 319V306.427H313.502L314.811 310.491C314.937 310.859 315.052 311.226 315.156 311.594C315.259 311.95 315.333 312.225 315.379 312.421C315.437 312.225 315.511 311.95 315.603 311.594C315.695 311.226 315.799 310.853 315.913 310.474L317.153 306.427H319.186V319H317.67V314.436C317.67 313.93 317.687 313.356 317.722 312.713C317.756 312.07 317.802 311.416 317.86 310.75C317.917 310.072 317.974 309.429 318.032 308.821C318.101 308.201 318.158 307.661 318.204 307.202L316.172 313.488H314.535L312.486 307.202C312.543 307.65 312.601 308.172 312.658 308.769C312.715 309.355 312.767 309.981 312.813 310.647C312.859 311.301 312.899 311.956 312.934 312.61C312.968 313.265 312.985 313.873 312.985 314.436V319H311.47ZM323.037 319V306.427H324.587V311.8H328.618V306.427H330.168V319H328.618V313.213H324.587V319H323.037ZM334.433 319V306.427H341.667V307.839H335.966V311.732H341.064V313.127H335.966V317.588H341.667V319H334.433ZM347.619 315.469V312.369H348.48C349.215 312.369 349.795 312.168 350.22 311.766C350.656 311.353 350.875 310.807 350.875 310.13C350.875 309.452 350.656 308.913 350.22 308.511C349.795 308.097 349.21 307.891 348.463 307.891H346.31V306.427H348.463C349.267 306.427 349.962 306.582 350.547 306.892C351.144 307.19 351.604 307.615 351.925 308.166C352.258 308.717 352.425 309.372 352.425 310.13C352.425 310.784 352.287 311.376 352.011 311.904C351.736 312.421 351.351 312.834 350.857 313.144C350.375 313.454 349.812 313.626 349.169 313.661V315.469H347.619ZM348.119 319.086C347.82 319.086 347.573 318.989 347.378 318.793C347.183 318.598 347.085 318.351 347.085 318.053C347.085 317.754 347.183 317.507 347.378 317.312C347.573 317.117 347.82 317.019 348.119 317.019H348.635C348.968 317.019 349.221 317.117 349.393 317.312C349.577 317.496 349.669 317.737 349.669 318.035C349.669 318.334 349.571 318.587 349.376 318.793C349.181 318.989 348.934 319.086 348.635 319.086H348.119Z" fill="white"/>
<path d="M255.598 145.153V112.245H308.257V145.153H255.598Z" fill="#206234" stroke="#206234" stroke-width="1.07643"/>
<path d="M250.723 112.245V103.957H287.048V112.001L250.723 112.245Z" fill="#26733D" stroke="#26733D" stroke-width="1.07643"/>
<path d="M287.047 112.245V103.957H311.426V112.001L287.047 112.245Z" fill="#26733D" stroke="#26733D" stroke-width="1.07643"/>
<path d="M317.536 46.6711H244.841V64.0008H230V71.5355H332.88V64.0008H317.536V46.6711Z" fill="#26733D" stroke="#26733D" stroke-width="1.07643"/>
<path d="M248.773 72.0229H314.11V103.957H248.773V72.0229Z" fill="black"/>
<rect x="280.711" y="103.957" width="6.3386" height="8.2881" fill="black"/>
<rect x="273.883" y="103.957" width="6.82618" height="8.2881" fill="black"/>
<rect x="288.754" y="81.7737" width="7.31377" height="11.9446" fill="#FAFF15"/>
<rect x="267.059" y="81.7737" width="6.82618" height="11.9446" fill="#FAFF15"/>
<rect x="249.504" y="54.7156" width="3.90068" height="4.38782" fill="#FF9315"/>
<rect x="310.695" y="48.865" width="3.65688" height="4.63159" fill="#FF9315"/>
<rect x="253.406" y="59.1033" width="9.5079" height="4.38782" fill="#FF9315"/>
<defs>
<filter id="filter0_b_97_3031" x="-2.15296" y="-2.15296" width="567.306" height="371.306" filterUnits="userSpaceOnUse" color-interpolation-filters="sRGB">
<feFlood flood-opacity="0" result="BackgroundImageFix"/>
<feGaussianBlur in="BackgroundImageFix" stdDeviation="1.07648"/>
<feComposite in2="SourceAlpha" operator="in" result="effect1_backgroundBlur_97_3031"/>
<feBlend mode="normal" in="SourceGraphic" in2="effect1_backgroundBlur_97_3031" result="shape"/>
</filter>
</defs>
</svg>
