<svg width="1440" height="717" viewBox="0 0 1440 717" fill="none" xmlns="http://www.w3.org/2000/svg">
<rect width="1440" height="717" fill="#111111"/>
<g clip-path="url(#clip0_369_5424)">
<rect width="287.794" height="212.353" transform="translate(865.316 252.324)" fill="#191919"/>
<path fill-rule="evenodd" clip-rule="evenodd" d="M1023.75 283.542H1009V276.986H1003.27V259.779H1009.83V252.404H1003.27V245.849H1034.41V253.223H1042.6V283.542H1034.41V274.528H1023.75V283.542Z" fill="#A80000"/>
<path fill-rule="evenodd" clip-rule="evenodd" d="M973.568 436.381H982.704V440.443H986.26V451.103H982.195V455.672H986.26V459.733H966.967V455.165H961.891V436.381H966.968V441.965H973.568V436.381Z" fill="#A80000"/>
<path d="M785.446 483.981L784.23 478.147L796.57 451.619L797.982 458.394L808.709 456.158L809.885 461.804L816.284 460.47L817.304 465.363L823.326 464.108L824.659 470.507L830.493 469.291L831.356 473.431L835.684 472.529L836.234 475.164L842.82 473.791L843.958 479.248L856.378 476.66L857.633 482.682L874.758 479.112L873.503 473.09L880.09 471.718L877.541 459.485L870.954 460.858L869.62 454.46L846.285 459.323L845.265 454.43L834.35 456.705L833.173 451.059L826.963 452.354L825.551 445.579L819.717 446.795L816.227 430.046L822.06 428.83L820.727 422.432L826.937 421.137L825.996 416.621L833.147 415.13L834.088 419.647L837.852 418.862L840.558 431.847L853.167 429.22L854.383 435.053L865.11 432.818L862.521 420.397L845.396 423.966L844.062 417.568L842.557 417.882L841.616 413.365L836.911 414.346L835.499 407.571L829.477 408.826L824.692 385.867L830.714 384.612L828.164 372.379L840.773 369.752L839.636 364.294L856.761 360.725L857.349 363.548L867.888 361.351L869.77 370.384L882.191 367.796L878.19 348.6L873.297 349.62L872.317 344.915L854.251 348.681L853.074 343.035L846.675 344.369L844.401 333.454L855.88 331.061L856.9 335.954L874.778 332.228L876.033 338.25L887.136 335.936L888.313 341.582L894.523 340.287L897.033 352.331L903.056 351.076L906.468 367.449L900.446 368.704L901.779 375.102L890.3 377.495L891.594 383.705L862.801 389.706L861.507 383.496L855.108 384.829L853.775 378.431L847.941 379.647L850.569 392.256L856.403 391.04L857.697 397.25L869.176 394.857L870.314 400.315L876.524 399.021L879.034 411.065L885.056 409.81L891.136 438.979L897.346 437.685L898.523 443.33L904.921 441.997L909.824 465.521L903.426 466.854L905.622 477.393L899.412 478.687L900.824 485.462L894.802 486.717L896.018 492.551L884.914 494.865L885.895 499.57L855.973 505.806L854.992 501.101L842.195 503.768L841.646 501.134L835.624 502.389L834.683 497.872L824.521 499.99L823.383 494.533L812.656 496.768L811.715 492.252L805.316 493.585L804.061 487.563L798.227 488.779L796.737 481.628L785.446 483.981Z" fill="black" stroke="black" stroke-width="0.409749"/>
</g>
<g clip-path="url(#clip1_369_5424)">
<rect width="272.426" height="212.353" transform="translate(578.918 26)" fill="#191919"/>
<path fill-rule="evenodd" clip-rule="evenodd" d="M614.07 -67.7515L596.837 -67.7515L596.837 -59.799L591.531 -59.799L591.532 -50.5207L602.136 -50.5207L602.136 -55.8222L607.44 -55.8222L607.441 -43.8936L602.138 -43.8936L602.139 -33.2893L596.841 -33.2893L596.841 -26.6618L591.535 -26.6618L591.535 -20.0342L584.904 -20.0342L584.904 -14.7331L579.606 -14.7331L579.607 -9.43095L574.301 -9.43095L574.301 -4.12883L567.674 -4.12883L567.674 2.49823L562.369 2.49823L562.369 13.1025L557.071 13.1025L557.071 30.3338L550.44 30.3338L550.441 71.4235L557.072 71.4235L557.072 87.3291L562.37 87.3291L562.371 100.583L567.676 100.583L567.677 104.56L574.304 104.56L574.304 111.187L584.908 111.187L584.908 117.152L596.175 117.152L596.175 122.454L608.106 122.454L608.106 127.756L620.036 127.756L620.037 133.72L630.641 133.72L630.642 144.987L637.933 144.987L637.933 150.289L643.235 150.289L643.235 156.253L647.212 156.253L647.212 162.881L653.84 162.881L653.84 168.183L659.806 168.183L659.806 173.484L666.434 173.484L666.434 179.449L677.039 179.449L677.039 185.414L688.306 185.414L688.307 190.716L694.272 190.716L694.272 208.61L688.307 208.61L688.307 220.539L682.342 220.539L682.342 231.805L676.377 231.805L676.378 265.605L682.343 265.605L682.344 289.464L676.378 289.464L676.38 339.832L682.345 339.832L682.345 345.796L688.31 345.796L688.31 352.424L692.95 352.424L692.95 357.726L705.543 357.726L705.544 363.69L716.811 363.69L716.811 352.424L704.88 352.424L704.88 345.796L699.578 345.796L699.578 341.82L692.95 341.82L692.949 329.228L699.577 329.228L699.577 323.263L722.113 323.263L722.113 317.961L728.078 317.961L728.078 311.997L734.706 311.997L734.706 317.299L751.276 317.299L751.276 323.263L763.206 323.263L763.207 329.228L768.509 329.228L768.509 335.192L774.474 335.192L774.475 345.796L780.44 345.796L780.44 370.318L774.475 370.318L774.476 386.886L768.51 386.886L768.51 391.525L757.243 391.525L757.243 398.153L744.65 398.153L744.65 404.117L734.708 404.117L734.708 410.082L728.743 410.082L728.743 416.709L722.778 416.709L722.778 439.242L728.743 439.242L728.743 443.219L744.651 443.219L744.65 432.615L739.348 432.615L739.348 426.65L744.65 426.65L744.65 420.686L751.278 420.686L751.278 416.709L775.802 416.709L775.802 409.419L785.744 409.419L785.744 402.792L791.046 402.792L791.046 398.153L797.011 398.153L797.011 386.886L802.976 386.886L802.976 374.957L808.941 374.957L808.941 357.726L814.906 357.726L814.905 323.926L808.94 323.926L808.939 306.032L802.974 306.032L802.974 296.091L797.009 296.091L797.008 277.534L802.973 277.534L802.972 232.468L797.007 232.468L797.007 220.539L791.042 220.539L791.041 209.272L785.076 209.272L785.076 203.308L779.774 203.308L779.774 198.006L773.808 198.006L773.808 192.041L767.843 192.041L767.843 179.449L773.808 179.449L773.808 168.183L779.773 168.183L779.773 162.218L785.075 162.218L785.075 156.253L791.04 156.253L791.04 152.277L797.005 152.277L797.005 145.65L802.97 145.65L802.97 133.057L807.61 133.057L807.609 116.489L814.237 116.489L814.236 70.7602L808.271 70.7602L808.271 58.8309L814.899 58.8309L814.899 52.8663L820.201 52.8663L820.201 47.5644L826.166 47.5644L826.166 25.0313L820.2 25.0313L820.2 19.0666L814.898 19.0666L814.898 12.4393L808.932 12.4393L808.932 7.8001L797.002 7.8001L797.002 -3.46644L803.63 -3.46644L803.63 -9.43108L809.595 -9.43108L809.594 -26.6623L797.001 -26.6623L797.001 -15.3957L791.036 -15.3957L791.036 -9.43108L785.734 -9.43108L785.734 -3.46644L781.094 -3.46644L781.095 19.0666L786.397 19.0666L786.397 25.0313L785.735 25.0313L779.769 25.0313L779.769 19.7294L773.804 19.7294L773.804 12.4393L767.839 12.4393L767.839 7.8001L757.234 7.8001L757.234 1.83546L739.338 1.83546L739.338 -3.46644L693.604 -3.46644L693.605 1.83546L676.372 1.83546L676.372 6.47462L665.767 6.47462L665.767 12.4393L659.139 12.4393L659.139 18.4039L653.837 18.4039L653.837 25.694L648.535 25.694L648.535 30.9959L642.569 30.9959L642.57 36.2978L636.604 36.2978L636.605 42.2625L630.639 42.2625L630.64 54.1917L625.337 54.1917L625.337 60.8191L620.035 60.8191L620.035 64.7955L601.477 64.7955L601.476 60.8191L595.511 60.8191L595.511 54.1917L590.209 54.1917L590.208 42.2625L584.907 42.2625L584.907 18.4038L590.212 18.4038L590.212 2.49883L595.51 2.49883L595.51 -2.80322L602.141 -2.80322L602.14 -9.43076L607.446 -9.43076L607.446 -16.0586L614.07 -16.0586L614.069 -26.662L619.371 -26.662L619.371 -37.2656L625.998 -37.2656L625.998 -55.8223L619.371 -55.8223L619.371 -62.4498L614.07 -62.4498L614.07 -67.7515Z" fill="black"/>
<rect width="29.1633" height="4.55632" transform="matrix(1 1.0589e-09 2.34236e-05 1 746.633 95.7788)" fill="#FAFF15"/>
<rect width="1.82271" height="4.55632" transform="matrix(1 0 2.34214e-05 1 760.305 95.7776)" fill="black"/>
<rect width="3.64541" height="1.82253" transform="matrix(1 0 2.34214e-05 1 771.238 93.9558)" fill="#FAFF15"/>
<rect width="1.82237" height="1.82219" transform="matrix(1 0 2.34214e-05 1 754.832 100.334)" fill="#FAFF15"/>
<rect width="41.0938" height="6.42027" transform="matrix(1 1.0589e-09 2.34236e-05 1 704.227 233.048)" fill="#FAFF15"/>
<rect width="2.56836" height="6.42027" transform="matrix(1 0 2.34214e-05 1 723.492 233.048)" fill="black"/>
<rect width="5.13672" height="2.56811" transform="matrix(1 0 2.34214e-05 1 738.898 230.48)" fill="#FAFF15"/>
<rect width="42.4194" height="6.62738" transform="matrix(1 1.0589e-09 2.34236e-05 1 667.09 60.8196)" fill="#FAFF15"/>
<rect width="42.4194" height="6.62738" transform="matrix(1 1.0589e-09 2.34236e-05 1 667.09 60.8196)" fill="#FAFF15"/>
<rect width="2.65121" height="6.62738" transform="matrix(1 1.0589e-09 2.34236e-05 1 686.973 60.8196)" fill="black"/>
<rect width="2.65121" height="2.65095" transform="matrix(1 1.0589e-09 2.34236e-05 1 667.09 58.1682)" fill="#FAFF15"/>
<rect width="2.65121" height="2.65095" transform="matrix(1 1.0589e-09 2.34236e-05 1 704.211 66.1211)" fill="#FAFF15"/>
<rect width="53.0242" height="8.28422" transform="matrix(1 1.0589e-09 2.34236e-05 1 671.066 125.104)" fill="#FAFF15"/>
<rect width="53.0242" height="8.28422" transform="matrix(1 1.0589e-09 2.34236e-05 1 671.066 125.104)" fill="#FAFF15"/>
<rect width="3.31401" height="8.28422" transform="matrix(1 1.0589e-09 2.34236e-05 1 695.922 125.104)" fill="black"/>
<rect width="3.31401" height="3.31369" transform="matrix(1 0 2.34214e-05 1 671.066 121.791)" fill="#FAFF15"/>
<rect width="3.31401" height="3.31369" transform="matrix(1 0 2.34214e-05 1 717.469 131.731)" fill="#FAFF15"/>
<path d="M701.981 286.513L701.596 280.566L682.622 258.295L683.07 265.2L672.135 265.91L672.508 271.664L665.986 272.087L666.31 277.075L660.171 277.473L660.594 283.995L654.647 284.381L654.921 288.601L650.509 288.887L650.683 291.573L643.969 292.008L644.329 297.571L631.669 298.392L632.067 304.531L614.61 305.663L614.212 299.524L607.498 299.96L606.689 287.491L613.404 287.055L612.981 280.533L636.768 278.991L636.444 274.003L647.57 273.282L647.197 267.527L653.528 267.116L653.08 260.21L659.027 259.825L657.919 242.752L651.973 243.137L651.55 236.615L645.219 237.026L644.921 232.422L637.631 232.894L637.93 237.498L634.093 237.747L634.951 250.983L622.099 251.817L622.484 257.764L611.55 258.473L610.729 245.812L628.186 244.68L627.763 238.158L629.297 238.058L628.999 233.454L633.795 233.143L633.347 226.237L639.485 225.839L637.968 202.436L631.829 202.834L631.021 190.365L618.168 191.198L617.807 185.635L600.351 186.767L600.537 189.645L589.795 190.341L590.392 199.549L577.731 200.37L576.462 180.803L581.45 180.48L581.139 175.684L599.555 174.49L599.181 168.735L605.704 168.312L604.982 157.186L593.28 157.945L593.604 162.932L575.38 164.114L575.778 170.253L564.46 170.987L564.833 176.741L558.503 177.152L559.299 189.429L553.16 189.827L554.243 206.516L560.381 206.118L560.804 212.641L572.506 211.882L572.916 218.212L602.266 216.309L601.856 209.979L608.378 209.556L607.955 203.033L613.902 202.648L614.735 215.501L608.789 215.886L609.199 222.217L597.497 222.975L597.858 228.538L591.528 228.949L592.324 241.226L586.185 241.624L588.113 271.358L581.783 271.768L582.156 277.523L575.634 277.946L577.189 301.925L583.711 301.502L584.408 312.245L590.738 311.834L591.186 318.74L597.324 318.342L597.71 324.289L609.028 323.555L609.339 328.351L639.84 326.373L639.529 321.577L652.574 320.731L652.399 318.046L658.538 317.647L658.239 313.044L668.598 312.372L668.238 306.809L679.172 306.1L678.873 301.496L685.396 301.073L684.998 294.934L690.944 294.549L690.472 287.259L701.981 286.513Z" fill="black" stroke="black" stroke-width="0.409749"/>
<path d="M771.465 257.658L770.249 251.824L782.589 225.296L784.001 232.071L794.728 229.835L795.905 235.481L802.303 234.147L803.323 239.04L809.345 237.785L810.679 244.183L816.513 242.968L817.376 247.108L821.704 246.206L822.253 248.84L828.84 247.468L829.977 252.925L842.398 250.336L843.653 256.358L860.778 252.789L859.523 246.767L866.11 245.394L863.56 233.162L856.973 234.535L855.64 228.136L832.304 233L831.285 228.107L820.37 230.382L819.193 224.736L812.983 226.031L811.571 219.256L805.737 220.472L802.246 203.723L808.08 202.507L806.746 196.108L812.957 194.814L812.015 190.297L819.167 188.807L820.108 193.324L823.872 192.539L826.578 205.524L839.187 202.896L840.403 208.73L851.129 206.495L848.541 194.074L831.415 197.643L830.082 191.245L828.576 191.559L827.635 187.042L822.93 188.023L821.518 181.248L815.496 182.503L810.711 159.544L816.733 158.289L814.184 146.056L826.793 143.428L825.655 137.971L842.78 134.402L843.369 137.225L853.907 135.028L855.79 144.061L868.21 141.473L864.21 122.277L859.317 123.297L858.336 118.592L840.27 122.358L839.093 116.712L832.695 118.045L830.42 107.13L841.9 104.738L842.919 109.631L860.798 105.905L862.053 111.927L873.156 109.613L874.332 115.258L880.543 113.964L883.053 126.008L889.075 124.753L892.487 141.126L886.465 142.381L887.799 148.779L876.319 151.172L877.614 157.382L848.821 163.383L847.526 157.173L841.128 158.506L839.794 152.108L833.96 153.324L836.588 165.932L842.422 164.716L843.716 170.927L855.196 168.534L856.333 173.992L862.544 172.697L865.054 184.741L871.076 183.486L877.155 212.656L883.366 211.361L884.542 217.007L890.941 215.674L895.844 239.197L889.445 240.531L891.642 251.069L885.431 252.364L886.843 259.139L880.821 260.394L882.037 266.228L870.934 268.542L871.914 273.246L841.992 279.483L841.012 274.778L828.215 277.445L827.666 274.81L821.644 276.066L820.702 271.549L810.54 273.667L809.403 268.21L798.676 270.445L797.734 265.929L791.336 267.262L790.081 261.24L784.247 262.456L782.757 255.305L771.465 257.658Z" fill="black" stroke="black" stroke-width="0.409749"/>
</g>
<g clip-path="url(#clip2_369_5424)">
<rect width="278.946" height="212.353" transform="translate(286 478.647)" fill="#191919"/>
<path fill-rule="evenodd" clip-rule="evenodd" d="M509.319 659.423H494.562V652.868H488.832V635.66H495.387V628.285H488.832V621.73H519.972V629.105H528.168V659.423H519.972V650.41H509.319V659.423Z" fill="#A80000"/>
<path fill-rule="evenodd" clip-rule="evenodd" d="M599.574 384.895L582.341 384.895L582.341 392.848L577.035 392.848L577.036 402.126L587.64 402.126L587.64 396.825L592.944 396.825L592.944 408.754L587.642 408.754L587.643 419.358L582.345 419.358L582.345 425.985L577.039 425.985L577.039 432.613L570.408 432.613L570.408 437.914L565.11 437.914L565.11 443.216L559.801 443.216L559.801 448.517L553.178 448.517L553.178 455.145L547.872 455.145L547.873 465.749L542.575 465.749L542.575 482.981L535.944 482.981L535.945 524.07L542.576 524.07L542.576 539.976L547.874 539.976L547.875 553.23L553.18 553.23L553.18 557.206L559.804 557.206L559.804 563.834L570.409 563.834L570.407 471.051L575.716 471.051L575.716 455.146L581.014 455.146L581.013 449.844L587.644 449.844L587.644 443.216L592.95 443.216L592.95 436.589L599.573 436.589L599.573 425.985L604.875 425.985L604.875 415.381L611.502 415.381L611.502 396.824L604.875 396.824L604.874 390.197L599.574 390.197L599.574 384.895ZM570.41 494.909L575.712 494.909L575.713 506.839L581.015 506.839L581.015 513.466L586.98 513.466L586.98 517.442L605.539 517.442L605.539 513.466L610.841 513.466L610.841 506.839L616.143 506.839L616.143 494.909L622.108 494.909L622.108 488.945L628.074 488.945L628.073 483.643L634.039 483.643L634.038 478.341L639.341 478.341L639.341 471.051L644.643 471.051L644.643 465.086L651.271 465.086L651.271 459.122L661.876 459.122L661.876 454.482L679.109 454.482L679.108 449.181L724.842 449.181L724.842 454.482L742.738 454.482L742.738 460.447L753.343 460.447L753.343 465.086L759.308 465.086L759.308 472.376L765.273 472.376L765.273 477.678L771.239 477.678L771.901 477.678L771.901 471.714L766.599 471.714L766.598 449.181L771.238 449.181L771.238 443.216L776.54 443.216L776.54 437.251L782.505 437.251L782.505 425.985L795.098 425.985L795.099 443.216L789.133 443.216L789.134 449.181L782.506 449.181L782.506 460.447L794.436 460.447L794.436 465.086L800.402 465.086L800.402 471.714L805.704 471.714L805.704 477.678L811.67 477.678L811.67 500.211L805.705 500.211L805.705 505.513L800.403 505.513L800.403 511.478L793.775 511.478L793.775 523.407L799.74 523.407L799.741 569.136L793.113 569.136L793.114 585.704L788.474 585.704L788.474 598.296L782.509 598.296L782.509 604.924L776.544 604.924L776.544 608.9L770.579 608.9L770.579 614.865L765.277 614.865L765.277 620.83L759.311 620.83L759.312 632.096L753.347 632.096L753.347 644.688L759.312 644.688L759.312 650.653L765.277 650.653L765.278 655.955L770.58 655.955L770.58 661.919L776.545 661.919L776.546 673.186L782.511 673.186L782.511 685.115L788.476 685.115L788.477 730.181L782.512 730.181L782.513 748.738L788.478 748.738L788.478 758.679L794.443 758.679L794.444 776.573L800.409 776.573L800.41 810.373L794.444 810.373L794.445 827.604L788.48 827.604L788.48 839.533L782.515 839.533L782.515 850.8L776.55 850.8L776.55 855.439L771.247 855.439L771.248 862.066L761.306 862.066L761.306 869.356L736.782 869.356L736.782 873.333L730.154 873.333L730.154 879.297L724.852 879.297L724.852 885.262L730.154 885.262L730.155 895.866L714.247 895.866L714.247 891.889L708.282 891.889L708.282 869.356L714.247 869.356L714.247 862.729L720.212 862.729L720.212 856.764L730.154 856.764L730.154 850.8L742.747 850.8L742.747 844.172L754.014 844.172L754.014 839.533L759.979 839.533L759.979 822.965L765.944 822.965L765.944 798.443L759.978 798.443L759.978 787.839L754.013 787.839L754.013 781.875L748.71 781.875L748.71 775.91L736.78 775.91L736.78 769.946L720.21 769.946L720.21 764.644L713.581 764.644L713.582 770.608L707.616 770.608L707.617 775.91L685.081 775.91L685.081 781.875L678.453 781.875L678.454 794.467L685.082 794.467L685.082 798.443L690.384 798.443L690.384 805.071L702.315 805.071L702.315 816.337L691.047 816.337L691.047 810.373L678.454 810.373L678.454 805.071L673.814 805.071L673.814 798.443L667.849 798.443L667.849 792.479L661.884 792.479L661.882 742.111L667.848 742.111L667.847 718.252L661.882 718.252L661.881 684.452L667.846 684.452L667.846 673.186L673.811 673.186L673.811 661.257L679.776 661.257L679.776 643.363L673.811 643.363L673.81 638.061L662.543 638.061L662.543 632.096L651.938 632.096L651.938 626.131L645.31 626.131L645.309 620.83L639.344 620.83L639.344 615.528L632.716 615.528L632.716 608.9L628.739 608.9L628.739 602.936L623.437 602.936L623.436 597.634L616.146 597.634L616.145 586.367L605.541 586.367L605.54 580.403L593.61 580.403L593.61 575.101L581.679 575.101L581.679 569.799L570.412 569.799L570.41 494.909Z" fill="black"/>
<path d="M687.478 739.16L687.092 733.213L668.118 710.942L668.566 717.847L657.631 718.557L658.004 724.311L651.482 724.734L651.806 729.722L645.667 730.12L646.09 736.642L640.143 737.028L640.417 741.248L636.005 741.534L636.179 744.22L629.465 744.655L629.826 750.218L617.165 751.039L617.563 757.178L600.106 758.31L599.708 752.171L592.994 752.607L592.186 740.138L598.9 739.702L598.477 733.18L622.264 731.638L621.94 726.65L633.066 725.929L632.693 720.174L639.024 719.763L638.576 712.857L644.523 712.472L643.416 695.399L637.469 695.784L637.046 689.262L630.715 689.673L630.417 685.069L623.127 685.541L623.426 690.145L619.589 690.394L620.448 703.63L607.595 704.464L607.981 710.411L597.046 711.12L596.225 698.459L613.682 697.327L613.259 690.804L614.793 690.705L614.495 686.101L619.291 685.79L618.843 678.884L624.981 678.486L623.464 655.083L617.325 655.481L616.517 643.012L603.664 643.845L603.303 638.282L585.847 639.414L586.033 642.292L575.291 642.988L575.888 652.196L563.227 653.017L561.958 633.45L566.946 633.127L566.635 628.331L585.051 627.137L584.677 621.382L591.2 620.959L590.478 609.833L578.777 610.592L579.1 615.579L560.876 616.761L561.274 622.9L549.956 623.634L550.329 629.388L543.999 629.799L544.795 642.076L538.656 642.474L539.739 659.163L545.877 658.765L546.3 665.288L558.002 664.529L558.412 670.859L587.762 668.956L587.352 662.626L593.874 662.203L593.451 655.68L599.398 655.295L600.231 668.148L594.285 668.533L594.695 674.864L582.993 675.622L583.354 681.185L577.024 681.596L577.82 693.873L571.681 694.271L573.609 724.005L567.279 724.415L567.652 730.17L561.13 730.593L562.685 754.572L569.207 754.149L569.904 764.892L576.234 764.481L576.682 771.387L582.82 770.989L583.206 776.936L594.524 776.202L594.835 780.998L625.336 779.02L625.025 774.224L638.07 773.378L637.896 770.693L644.034 770.294L643.736 765.691L654.094 765.019L653.734 759.456L664.668 758.747L664.37 754.143L670.892 753.72L670.494 747.581L676.44 747.196L675.968 739.906L687.478 739.16Z" fill="black" stroke="black" stroke-width="0.409749"/>
</g>
<g clip-path="url(#clip3_369_5424)">
<rect width="287.794" height="212.353" transform="translate(865.316 26)" fill="#191919"/>
<path fill-rule="evenodd" clip-rule="evenodd" d="M1088.91 151.381V270.041H1100.61V247.106H1108.42V270.041H1143.55V217.193H1130.86V189.273H1143.55V151.381H1127.93V174.8H1112.32V151.381H1088.91Z" fill="#A80000"/>
<path d="M785.446 42.0451L784.23 36.2112L796.57 9.68283L797.982 16.4577L808.709 14.222L809.885 19.8677L816.284 18.5341L817.304 23.4271L823.326 22.172L824.659 28.5704L830.493 27.3546L831.356 31.4947L835.684 30.5926L836.234 33.2273L842.82 31.8545L843.958 37.312L856.378 34.7234L857.633 40.7454L874.758 37.1762L873.503 31.1541L880.09 29.7814L877.541 17.549L870.954 18.9218L869.62 12.5233L846.285 17.3869L845.265 12.494L834.35 14.7688L833.173 9.12314L826.963 10.4175L825.551 3.64263L819.717 4.85851L816.227 -11.8904L822.06 -13.1062L820.727 -19.5047L826.937 -20.799L825.996 -25.3156L833.147 -26.806L834.088 -22.2895L837.852 -23.0739L840.558 -10.0888L853.167 -12.7167L854.383 -6.8828L865.11 -9.11846L862.521 -21.539L845.396 -17.9698L844.062 -24.3682L842.557 -24.0545L841.616 -28.571L836.911 -27.5905L835.499 -34.3653L829.477 -33.1102L824.692 -56.0693L830.714 -57.3245L828.164 -69.5568L840.773 -72.1847L839.636 -77.6422L856.761 -81.2114L857.349 -78.3885L867.888 -80.585L869.77 -71.5519L882.191 -74.1405L878.19 -93.3359L873.297 -92.3161L872.317 -97.0208L854.251 -93.2555L853.074 -98.9012L846.675 -97.5677L844.401 -108.483L855.88 -110.875L856.9 -105.982L874.778 -109.708L876.033 -103.686L887.136 -106L888.313 -100.355L894.523 -101.649L897.033 -89.6049L903.056 -90.86L906.468 -74.4875L900.446 -73.2324L901.779 -66.8339L890.3 -64.4414L891.594 -58.2311L862.801 -52.2301L861.507 -58.4404L855.108 -57.1069L853.775 -63.5053L847.941 -62.2894L850.569 -49.6807L856.403 -50.8966L857.697 -44.6863L869.176 -47.0789L870.314 -41.6214L876.524 -42.9157L879.034 -30.8716L885.056 -32.1267L891.136 -2.95725L897.346 -4.25158L898.523 1.39411L904.921 0.0605626L909.824 23.5843L903.426 24.9178L905.622 35.4564L899.412 36.7508L900.824 43.5256L894.802 44.7807L896.018 50.6146L884.914 52.9287L885.895 57.6335L855.973 63.8698L854.992 59.165L842.195 61.8321L841.646 59.1974L835.624 60.4526L834.683 55.936L824.521 58.054L823.383 52.5965L812.656 54.8321L811.715 50.3156L805.316 51.6491L804.061 45.6271L798.227 46.843L796.737 39.6917L785.446 42.0451Z" fill="black" stroke="black" stroke-width="0.409749"/>
</g>
<g clip-path="url(#clip4_369_5424)">
<rect width="272.426" height="212.353" transform="translate(578.918 478.647)" fill="#191919"/>
<path fill-rule="evenodd" clip-rule="evenodd" d="M614.07 168.817L596.837 168.817L596.837 176.769L591.531 176.769L591.532 186.048L602.136 186.048L602.136 180.746L607.44 180.746L607.441 192.675L602.138 192.675L602.139 203.279L596.841 203.279L596.841 209.907L591.535 209.907L591.535 216.534L584.904 216.534L584.904 221.835L579.606 221.835L579.607 227.137L574.301 227.137L574.301 232.439L567.674 232.439L567.674 239.066L562.369 239.066L562.369 249.67L557.071 249.67L557.071 266.902L550.44 266.902L550.441 307.992L557.072 307.992L557.072 323.897L562.37 323.897L562.371 337.151L567.676 337.151L567.677 341.128L574.304 341.128L574.304 347.755L584.908 347.755L584.908 353.72L596.175 353.72L596.175 359.022L608.106 359.022L608.106 364.324L620.036 364.324L620.037 370.289L630.641 370.289L630.642 381.555L637.933 381.555L637.933 386.857L643.235 386.857L643.235 392.822L647.212 392.822L647.212 399.449L653.84 399.449L653.84 404.751L659.806 404.751L659.806 410.053L666.434 410.053L666.434 416.017L677.039 416.017L677.039 421.982L688.306 421.982L688.307 427.284L694.272 427.284L694.272 445.178L688.307 445.178L688.307 457.107L682.342 457.107L682.342 468.374L676.377 468.374L676.378 502.173L682.343 502.173L682.344 526.032L676.378 526.032L676.38 576.4L682.345 576.4L682.345 582.365L688.31 582.365L688.31 588.992L692.95 588.992L692.95 594.294L705.543 594.294L705.544 600.259L716.811 600.259L716.811 588.992L704.88 588.992L704.88 582.365L699.578 582.365L699.578 578.388L692.95 578.388L692.949 565.796L699.577 565.796L699.577 559.832L722.113 559.832L722.113 554.53L728.078 554.53L728.078 548.565L734.706 548.565L734.706 553.867L751.276 553.867L751.276 559.832L763.206 559.832L763.207 565.796L768.509 565.796L768.509 571.761L774.474 571.761L774.475 582.365L780.44 582.365L780.44 606.886L774.475 606.886L774.476 623.454L768.51 623.454L768.51 628.094L757.243 628.094L757.243 634.721L744.65 634.721L744.65 640.686L734.708 640.686L734.708 646.65L728.743 646.65L728.743 653.278L722.778 653.278L722.778 675.811L728.743 675.811L728.743 679.787L744.651 679.787L744.65 669.183L739.348 669.183L739.348 663.219L744.65 663.219L744.65 657.254L751.278 657.254L751.278 653.278L775.802 653.278L775.802 645.987L785.744 645.987L785.744 639.36L791.046 639.36L791.046 634.721L797.011 634.721L797.011 623.454L802.976 623.454L802.976 611.525L808.941 611.525L808.941 594.294L814.906 594.294L814.905 560.494L808.94 560.494L808.939 542.6L802.974 542.6L802.974 532.659L797.009 532.659L797.008 514.103L802.973 514.103L802.972 469.036L797.007 469.036L797.007 457.107L791.042 457.107L791.041 445.841L785.076 445.841L785.076 439.876L779.774 439.876L779.774 434.574L773.808 434.574L773.808 428.609L767.843 428.609L767.843 416.017L773.808 416.017L773.808 404.751L779.773 404.751L779.773 398.786L785.075 398.786L785.075 392.822L791.04 392.822L791.04 388.845L797.005 388.845L797.005 382.218L802.97 382.218L802.97 369.626L807.61 369.626L807.609 353.057L814.237 353.057L814.236 307.329L808.271 307.329L808.271 295.399L814.899 295.399L814.899 289.435L820.201 289.435L820.201 284.133L826.166 284.133L826.166 261.6L820.2 261.6L820.2 255.635L814.898 255.635L814.898 249.008L808.932 249.008L808.932 244.368L797.002 244.368L797.002 233.102L803.63 233.102L803.63 227.137L809.595 227.137L809.594 209.906L797.001 209.906L797.001 221.173L791.036 221.173L791.036 227.137L785.734 227.137L785.734 233.102L781.094 233.102L781.095 255.635L786.397 255.635L786.397 261.6L785.735 261.6L779.769 261.6L779.769 256.298L773.804 256.298L773.804 249.008L767.839 249.008L767.839 244.368L757.234 244.368L757.234 238.404L739.338 238.404L739.338 233.102L693.604 233.102L693.605 238.404L676.372 238.404L676.372 243.043L665.767 243.043L665.767 249.008L659.139 249.008L659.139 254.972L653.837 254.972L653.837 262.262L648.535 262.262L648.535 267.564L642.569 267.564L642.57 272.866L636.604 272.866L636.605 278.831L630.639 278.831L630.64 290.76L625.337 290.76L625.337 297.387L620.035 297.387L620.035 301.364L601.477 301.364L601.476 297.387L595.511 297.387L595.511 290.76L590.209 290.76L590.208 278.831L584.907 278.831L584.907 254.972L590.212 254.972L590.212 239.067L595.51 239.067L595.51 233.765L602.141 233.765L602.14 227.138L607.446 227.138L607.446 220.51L614.07 220.51L614.069 209.906L619.371 209.906L619.371 199.302L625.998 199.302L625.998 180.746L619.371 180.746L619.371 174.119L614.07 174.119L614.07 168.817Z" fill="black"/>
<rect width="29.1633" height="4.55632" transform="matrix(1 0 2.34214e-05 1 745.309 513.937)" fill="#FAFF15"/>
<rect width="1.82271" height="4.55632" transform="matrix(1 1.0589e-09 2.34236e-05 1 758.98 513.937)" fill="black"/>
<rect width="3.64541" height="1.82253" transform="matrix(1 0 2.34214e-05 1 769.914 512.114)" fill="#FAFF15"/>
<rect width="1.82237" height="1.82219" transform="matrix(1 0 2.34214e-05 1 753.508 518.492)" fill="#FAFF15"/>
<path d="M701.981 523.081L701.596 517.135L682.622 494.863L683.07 501.769L672.135 502.478L672.508 508.233L665.986 508.656L666.31 513.644L660.171 514.042L660.594 520.564L654.647 520.95L654.921 525.17L650.509 525.456L650.683 528.142L643.969 528.577L644.329 534.14L631.669 534.961L632.067 541.1L614.61 542.232L614.212 536.093L607.498 536.528L606.689 524.059L613.404 523.624L612.981 517.102L636.768 515.559L636.444 510.572L647.57 509.85L647.197 504.095L653.528 503.685L653.08 496.779L659.027 496.393L657.919 479.32L651.973 479.706L651.55 473.184L645.219 473.594L644.921 468.99L637.631 469.463L637.93 474.067L634.093 474.316L634.951 487.552L622.099 488.385L622.484 494.332L611.55 495.041L610.729 482.38L628.186 481.248L627.763 474.726L629.297 474.627L628.999 470.023L633.795 469.712L633.347 462.806L639.485 462.408L637.968 439.004L631.829 439.402L631.021 426.933L618.168 427.767L617.807 422.204L600.351 423.336L600.537 426.213L589.795 426.91L590.392 436.118L577.731 436.939L576.462 417.372L581.45 417.049L581.139 412.253L599.555 411.059L599.181 405.304L605.704 404.881L604.982 393.755L593.28 394.513L593.604 399.501L575.38 400.683L575.778 406.821L564.46 407.555L564.833 413.31L558.503 413.721L559.299 425.998L553.16 426.396L554.243 443.085L560.381 442.687L560.804 449.209L572.506 448.45L572.916 454.781L602.266 452.878L601.856 446.547L608.378 446.124L607.955 439.602L613.902 439.216L614.735 452.069L608.789 452.455L609.199 458.785L597.497 459.544L597.858 465.107L591.528 465.518L592.324 477.795L586.185 478.193L588.113 507.927L581.783 508.337L582.156 514.092L575.634 514.515L577.189 538.494L583.711 538.071L584.408 548.813L590.738 548.403L591.186 555.309L597.324 554.911L597.71 560.857L609.028 560.123L609.339 564.919L639.84 562.941L639.529 558.146L652.574 557.3L652.399 554.614L658.538 554.216L658.239 549.612L668.598 548.94L668.238 543.377L679.172 542.668L678.873 538.064L685.396 537.641L684.998 531.503L690.944 531.117L690.472 523.828L701.981 523.081Z" fill="black" stroke="black" stroke-width="0.409749"/>
<path d="M771.465 494.226L770.249 488.393L782.589 461.864L784.001 468.639L794.728 466.403L795.905 472.049L802.303 470.716L803.323 475.608L809.345 474.353L810.679 480.752L816.513 479.536L817.376 483.676L821.704 482.774L822.253 485.409L828.84 484.036L829.977 489.493L842.398 486.905L843.653 492.927L860.778 489.358L859.523 483.336L866.11 481.963L863.56 469.73L856.973 471.103L855.64 464.705L832.304 469.568L831.285 464.675L820.37 466.95L819.193 461.305L812.983 462.599L811.571 455.824L805.737 457.04L802.246 440.291L808.08 439.075L806.746 432.677L812.957 431.382L812.015 426.866L819.167 425.375L820.108 429.892L823.872 429.107L826.578 442.093L839.187 439.465L840.403 445.299L851.129 443.063L848.541 430.642L831.415 434.212L830.082 427.813L828.576 428.127L827.635 423.61L822.93 424.591L821.518 417.816L815.496 419.071L810.711 396.112L816.733 394.857L814.184 382.625L826.793 379.997L825.655 374.539L842.78 370.97L843.369 373.793L853.907 371.596L855.79 380.63L868.21 378.041L864.21 358.846L859.317 359.865L858.336 355.161L840.27 358.926L839.093 353.28L832.695 354.614L830.42 343.699L841.9 341.306L842.919 346.199L860.798 342.473L862.053 348.495L873.156 346.181L874.332 351.827L880.543 350.532L883.053 362.576L889.075 361.321L892.487 377.694L886.465 378.949L887.799 385.347L876.319 387.74L877.614 393.95L848.821 399.951L847.526 393.741L841.128 395.075L839.794 388.676L833.96 389.892L836.588 402.501L842.422 401.285L843.716 407.495L855.196 405.103L856.333 410.56L862.544 409.266L865.054 421.31L871.076 420.055L877.155 449.224L883.366 447.93L884.542 453.576L890.941 452.242L895.844 475.766L889.445 477.099L891.642 487.638L885.431 488.932L886.843 495.707L880.821 496.962L882.037 502.796L870.934 505.11L871.914 509.815L841.992 516.051L841.012 511.346L828.215 514.014L827.666 511.379L821.644 512.634L820.702 508.117L810.54 510.235L809.403 504.778L798.676 507.014L797.734 502.497L791.336 503.831L790.081 497.808L784.247 499.024L782.757 491.873L771.465 494.226Z" fill="black" stroke="black" stroke-width="0.409749"/>
</g>
<g clip-path="url(#clip5_369_5424)">
<rect width="278.946" height="212.353" transform="translate(286 26)" fill="#191919"/>
<path fill-rule="evenodd" clip-rule="evenodd" d="M242.162 246.356H428.84V227.935H392.757V215.655H428.84V160.394H345.7V180.349H301.775V160.394H242.162V184.955H279.007V209.515H242.162V246.356Z" fill="#A80000"/>
<path fill-rule="evenodd" clip-rule="evenodd" d="M371.74 48.1194H362.6V44.0579H359.048V33.3971H363.109V28.8282H359.048V24.7675L378.341 24.7675V29.336H383.418V48.1194H378.34V42.5354H371.74V48.1194Z" fill="#A80000"/>
<path fill-rule="evenodd" clip-rule="evenodd" d="M599.574 -283.364L582.341 -283.364L582.341 -275.411L577.035 -275.411L577.036 -266.133L587.64 -266.133L587.64 -271.435L592.944 -271.435L592.944 -259.506L587.642 -259.506L587.643 -248.903L582.345 -248.903L582.345 -242.275L577.039 -242.275L577.039 -235.647L570.408 -235.647L570.408 -230.346L565.11 -230.346L565.11 -225.044L559.801 -225.044L559.801 -219.742L553.178 -219.742L553.178 -213.115L547.872 -213.115L547.873 -202.51L542.575 -202.51L542.575 -185.279L535.944 -185.279L535.945 -144.189L542.576 -144.189L542.576 -128.284L547.874 -128.284L547.875 -115.029L553.18 -115.029L553.18 -111.053L559.804 -111.053L559.804 -104.425L570.409 -104.425L570.407 -197.209L575.716 -197.209L575.716 -213.114L581.014 -213.114L581.013 -218.416L587.644 -218.416L587.644 -225.044L592.95 -225.044L592.95 -231.671L599.573 -231.671L599.573 -242.274L604.875 -242.274L604.875 -252.878L611.502 -252.878L611.502 -271.435L604.875 -271.435L604.874 -278.062L599.574 -278.062L599.574 -283.364ZM570.41 -173.35L575.712 -173.35L575.713 -161.421L581.015 -161.421L581.015 -154.794L586.98 -154.794L586.98 -150.817L605.539 -150.817L605.539 -154.794L610.841 -154.794L610.841 -161.421L616.143 -161.421L616.143 -173.35L622.108 -173.35L622.108 -179.315L628.074 -179.315L628.073 -184.617L634.039 -184.617L634.038 -189.919L639.341 -189.919L639.341 -197.209L644.643 -197.209L644.643 -203.174L651.271 -203.174L651.271 -209.138L661.876 -209.138L661.876 -213.777L679.109 -213.777L679.108 -219.079L724.842 -219.079L724.842 -213.777L742.738 -213.777L742.738 -207.813L753.343 -207.813L753.343 -203.174L759.308 -203.174L759.308 -195.883L765.273 -195.883L765.273 -190.582L771.239 -190.582L771.901 -190.582L771.901 -196.546L766.599 -196.546L766.598 -219.079L771.238 -219.079L771.238 -225.044L776.54 -225.044L776.54 -231.009L782.505 -231.009L782.505 -242.275L795.098 -242.275L795.099 -225.044L789.133 -225.044L789.134 -219.079L782.506 -219.079L782.506 -207.813L794.436 -207.813L794.436 -203.174L800.402 -203.174L800.402 -196.546L805.704 -196.546L805.704 -190.582L811.67 -190.582L811.67 -168.048L805.705 -168.048L805.705 -162.747L800.403 -162.747L800.403 -156.782L793.775 -156.782L793.775 -144.853L799.74 -144.853L799.741 -99.1237L793.113 -99.1237L793.114 -82.5553L788.474 -82.5553L788.474 -69.9633L782.509 -69.9633L782.509 -63.3359L776.544 -63.3359L776.544 -59.3595L770.579 -59.3595L770.579 -53.3948L765.277 -53.3948L765.277 -47.4302L759.311 -47.4302L759.312 -36.1637L753.347 -36.1637L753.347 -23.5716L759.312 -23.5716L759.312 -17.607L765.277 -17.607L765.278 -12.3051L770.58 -12.3051L770.58 -6.34045L776.545 -6.34045L776.546 4.92609L782.511 4.92609L782.511 16.8553L788.476 16.8553L788.477 61.9215L782.512 61.9215L782.513 80.4781L788.478 80.4781L788.478 90.4192L794.443 90.4192L794.444 108.313L800.409 108.313L800.41 142.113L794.444 142.113L794.445 159.344L788.48 159.344L788.48 171.273L782.515 171.273L782.515 182.54L776.55 182.54L776.55 187.179L771.247 187.179L771.248 193.806L761.306 193.806L761.306 201.096L736.782 201.096L736.782 205.073L730.154 205.073L730.154 211.037L724.852 211.037L724.852 217.002L730.154 217.002L730.155 227.606L714.247 227.606L714.247 223.629L708.282 223.629L708.282 201.096L714.247 201.096L714.247 194.469L720.212 194.469L720.212 188.504L730.154 188.504L730.154 182.54L742.747 182.54L742.747 175.912L754.014 175.912L754.014 171.273L759.979 171.273L759.979 154.705L765.944 154.705L765.944 130.183L759.978 130.183L759.978 119.58L754.013 119.58L754.013 113.615L748.71 113.615L748.71 107.65L736.78 107.65L736.78 101.686L720.21 101.686L720.21 96.3839L713.581 96.3839L713.582 102.349L707.616 102.349L707.617 107.65L685.081 107.65L685.081 113.615L678.453 113.615L678.454 126.207L685.082 126.207L685.082 130.183L690.384 130.183L690.384 136.811L702.315 136.811L702.315 148.077L691.047 148.077L691.047 142.113L678.454 142.113L678.454 136.811L673.814 136.811L673.814 130.183L667.849 130.183L667.849 124.219L661.884 124.219L661.882 73.8508L667.848 73.8508L667.847 49.9922L661.882 49.9922L661.881 16.1926L667.846 16.1926L667.846 4.92609L673.811 4.92609L673.811 -7.0032L679.776 -7.0032L679.776 -24.8971L673.811 -24.8971L673.81 -30.199L662.543 -30.199L662.543 -36.1637L651.938 -36.1637L651.938 -42.1283L645.31 -42.1283L645.309 -47.4302L639.344 -47.4302L639.344 -52.7321L632.716 -52.7321L632.716 -59.3595L628.739 -59.3595L628.739 -65.3241L623.437 -65.3241L623.436 -70.626L616.146 -70.626L616.145 -81.8925L605.541 -81.8925L605.54 -87.8572L593.61 -87.8572L593.61 -93.1591L581.679 -93.1591L581.679 -98.461L570.412 -98.461L570.41 -173.35Z" fill="black"/>
<path d="M687.478 70.8999L687.092 64.9532L668.118 42.6818L668.566 49.5877L657.631 50.2967L658.004 56.0517L651.482 56.4746L651.806 61.4622L645.667 61.8602L646.09 68.3825L640.143 68.7681L640.417 72.9884L636.005 73.2745L636.179 75.9601L629.465 76.3955L629.826 81.9586L617.165 82.7796L617.563 88.9181L600.106 90.0501L599.708 83.9116L592.994 84.3469L592.186 71.8779L598.9 71.4426L598.477 64.9203L622.264 63.3778L621.94 58.3902L633.066 57.6688L632.693 51.9138L639.024 51.5033L638.576 44.5974L644.523 44.2118L643.416 27.1389L637.469 27.5245L637.046 21.0023L630.715 21.4128L630.417 16.8088L623.127 17.2815L623.426 21.8854L619.589 22.1342L620.448 35.3706L607.595 36.204L607.981 42.1507L597.046 42.8598L596.225 30.199L613.682 29.067L613.259 22.5447L614.793 22.4452L614.495 17.8413L619.291 17.5303L618.843 10.6244L624.981 10.2263L623.464 -13.177L617.325 -12.779L616.517 -25.2479L603.664 -24.4145L603.303 -29.9776L585.847 -28.8456L586.033 -25.9682L575.291 -25.2716L575.888 -16.0637L563.227 -15.2427L561.958 -34.8094L566.946 -35.1329L566.635 -39.9286L585.051 -41.1228L584.677 -46.8777L591.2 -47.3007L590.478 -58.4268L578.777 -57.668L579.1 -52.6805L560.876 -51.4987L561.274 -45.3601L549.956 -44.6262L550.329 -38.8713L543.999 -38.4608L544.795 -26.1836L538.656 -25.7856L539.739 -9.09632L545.877 -9.49438L546.3 -2.97212L558.002 -3.73091L558.412 2.5995L587.762 0.696293L587.352 -5.63412L593.874 -6.05705L593.451 -12.5793L599.398 -12.9649L600.231 -0.112259L594.285 0.273358L594.695 6.60377L582.993 7.36257L583.354 12.9257L577.024 13.3362L577.82 25.6133L571.681 26.0114L573.609 55.7451L567.279 56.1556L567.652 61.9106L561.13 62.3335L562.685 86.3123L569.207 85.8894L569.904 96.6319L576.234 96.2214L576.682 103.127L582.82 102.729L583.206 108.676L594.524 107.942L594.835 112.738L625.336 110.76L625.025 105.964L638.07 105.118L637.896 102.433L644.034 102.035L643.736 97.4308L654.094 96.759L653.734 91.1959L664.668 90.4869L664.37 85.883L670.892 85.46L670.494 79.3215L676.44 78.9358L675.968 71.6463L687.478 70.8999Z" fill="black" stroke="black" stroke-width="0.409749"/>
</g>
<g clip-path="url(#clip6_369_5424)">
<rect width="287.794" height="212.353" transform="translate(865.316 478.647)" fill="#191919"/>
<path fill-rule="evenodd" clip-rule="evenodd" d="M1022.93 580.999H1209.61V562.578H1173.53V550.298H1209.61V495.037H1126.47V514.992H1082.55V495.037H1022.93V519.598H1059.78V544.158H1022.93V580.999Z" fill="#A80000"/>
<path fill-rule="evenodd" clip-rule="evenodd" d="M1023.75 722.034H1009V715.479H1003.27V698.271H1009.83V690.897H1003.27V684.341H1034.41V691.715H1042.6V722.034H1034.41V713.021H1023.75V722.034Z" fill="#A80000"/>
<path fill-rule="evenodd" clip-rule="evenodd" d="M871.324 581.084H863.132V590.098H855.757V581.084H840.186V620.416H863.956V617.139H871.331V620.416H877.883V586.82H871.324V581.084Z" fill="#A80000"/>
</g>
<g clip-path="url(#clip7_369_5424)">
<rect width="272.426" height="212.353" transform="translate(578.918 252.324)" fill="#191919"/>
<path fill-rule="evenodd" clip-rule="evenodd" d="M857.343 354.761H849.152V363.775H841.776V354.761H826.205V394.093H849.967V390.816H857.343V394.093H863.902V360.497H857.343V354.761Z" fill="#A80000"/>
<path fill-rule="evenodd" clip-rule="evenodd" d="M614.07 370.742L596.837 370.742L596.837 378.694L591.531 378.694L591.532 387.973L602.136 387.973L602.136 382.671L607.44 382.671L607.441 394.6L602.138 394.6L602.139 405.204L596.841 405.204L596.841 411.832L591.535 411.832L591.535 418.459L584.904 418.459L584.904 423.76L579.606 423.76L579.607 429.062L574.301 429.062L574.301 434.364L567.674 434.364L567.674 440.991L562.369 440.991L562.369 451.595L557.071 451.595L557.071 468.827L550.44 468.827L550.441 509.917L557.072 509.917L557.072 525.822L562.37 525.822L562.371 539.076L567.676 539.076L567.677 543.053L574.304 543.053L574.304 549.68L584.908 549.68L584.908 555.645L596.175 555.645L596.175 560.947L608.106 560.947L608.106 566.249L620.036 566.249L620.037 572.214L630.641 572.214L630.642 583.48L637.933 583.48L637.933 588.782L643.235 588.782L643.235 594.747L647.212 594.747L647.212 601.374L653.84 601.374L653.84 606.676L659.806 606.676L659.806 611.978L666.434 611.978L666.434 617.943L677.039 617.943L677.039 623.907L688.306 623.907L688.307 629.209L694.272 629.209L694.272 647.103L688.307 647.103L688.307 659.032L682.342 659.032L682.342 670.299L676.377 670.299L676.378 704.098L682.343 704.098L682.344 727.957L676.378 727.957L676.38 778.325L682.345 778.325L682.345 784.29L688.31 784.29L688.31 790.917L692.95 790.917L692.95 796.219L705.543 796.219L705.544 802.184L716.811 802.184L716.811 790.917L704.88 790.917L704.88 784.29L699.578 784.29L699.578 780.313L692.95 780.313L692.949 767.721L699.577 767.721L699.577 761.757L722.113 761.757L722.113 756.455L728.078 756.455L728.078 750.49L734.706 750.49L734.706 755.792L751.276 755.792L751.276 761.757L763.206 761.757L763.207 767.721L768.509 767.721L768.509 773.686L774.474 773.686L774.475 784.29L780.44 784.29L780.44 808.811L774.475 808.811L774.476 825.379L768.51 825.379L768.51 830.019L757.243 830.019L757.243 836.646L744.65 836.646L744.65 842.611L734.708 842.611L734.708 848.575L728.743 848.575L728.743 855.203L722.778 855.203L722.778 877.736L728.743 877.736L728.743 881.712L744.651 881.712L744.65 871.108L739.348 871.108L739.348 865.144L744.65 865.144L744.65 859.179L751.278 859.179L751.278 855.203L775.802 855.203L775.802 847.913L785.744 847.913L785.744 841.285L791.046 841.285L791.046 836.646L797.011 836.646L797.011 825.379L802.976 825.379L802.976 813.45L808.941 813.45L808.941 796.219L814.906 796.219L814.905 762.419L808.94 762.419L808.939 744.525L802.974 744.525L802.974 734.584L797.009 734.584L797.008 716.028L802.973 716.028L802.972 670.962L797.007 670.962L797.007 659.032L791.042 659.032L791.041 647.766L785.076 647.766L785.076 641.801L779.774 641.801L779.774 636.499L773.808 636.499L773.808 630.535L767.843 630.535L767.843 617.943L773.808 617.943L773.808 606.676L779.773 606.676L779.773 600.711L785.075 600.711L785.075 594.747L791.04 594.747L791.04 590.77L797.005 590.77L797.005 584.143L802.97 584.143L802.97 571.551L807.61 571.551L807.609 554.982L814.237 554.982L814.236 509.254L808.271 509.254L808.271 497.324L814.899 497.324L814.899 491.36L820.201 491.36L820.201 486.058L826.166 486.058L826.166 463.525L820.2 463.525L820.2 457.56L814.898 457.56L814.898 450.933L808.932 450.933L808.932 446.294L797.002 446.294L797.002 435.027L803.63 435.027L803.63 429.062L809.595 429.062L809.594 411.831L797.001 411.831L797.001 423.098L791.036 423.098L791.036 429.062L785.734 429.062L785.734 435.027L781.094 435.027L781.095 457.56L786.397 457.56L786.397 463.525L785.735 463.525L779.769 463.525L779.769 458.223L773.804 458.223L773.804 450.933L767.839 450.933L767.839 446.294L757.234 446.294L757.234 440.329L739.338 440.329L739.338 435.027L693.604 435.027L693.605 440.329L676.372 440.329L676.372 444.968L665.767 444.968L665.767 450.933L659.139 450.933L659.139 456.897L653.837 456.897L653.837 464.187L648.535 464.187L648.535 469.489L642.569 469.489L642.57 474.791L636.604 474.791L636.605 480.756L630.639 480.756L630.64 492.685L625.337 492.685L625.337 499.313L620.035 499.313L620.035 503.289L601.477 503.289L601.476 499.313L595.511 499.313L595.511 492.685L590.209 492.685L590.208 480.756L584.907 480.756L584.907 456.897L590.212 456.897L590.212 440.992L595.51 440.992L595.51 435.69L602.141 435.69L602.14 429.063L607.446 429.063L607.446 422.435L614.07 422.435L614.069 411.831L619.371 411.831L619.371 401.227L625.998 401.227L625.998 382.671L619.371 382.671L619.371 376.044L614.07 376.044L614.07 370.742Z" fill="black"/>
</g>
<g clip-path="url(#clip8_369_5424)">
<rect width="278.946" height="212.353" transform="translate(286 252.324)" fill="#191919"/>
<path fill-rule="evenodd" clip-rule="evenodd" d="M265.516 229.788L265.516 416.466H283.935V380.385H296.215V416.466H351.477V333.325H331.524V289.4H351.477L351.477 229.788L326.918 229.788L326.918 266.633H302.357L302.357 229.788H265.516Z" fill="#A80000"/>
<path fill-rule="evenodd" clip-rule="evenodd" d="M484.078 416.633H478.1V423.205H472.723V416.633H461.369V445.312H478.699V442.921H484.076V445.312H488.855V420.815H484.078V416.633Z" fill="#A80000"/>
<path fill-rule="evenodd" clip-rule="evenodd" d="M599.574 370.741L582.341 370.741L582.341 378.694L577.035 378.694L577.036 387.972L587.64 387.972L587.64 382.67L592.944 382.67L592.944 394.6L587.642 394.6L587.643 405.204L582.345 405.204L582.345 411.831L577.039 411.831L577.039 418.459L570.408 418.459L570.408 423.76L565.11 423.76L565.11 429.062L559.801 429.062L559.801 434.363L553.178 434.363L553.178 440.991L547.872 440.991L547.873 451.595L542.575 451.595L542.575 468.826L535.944 468.826L535.945 509.916L542.576 509.916L542.576 525.822L547.874 525.822L547.875 539.076L553.18 539.076L553.18 543.052L559.804 543.052L559.804 549.68L570.409 549.68L570.407 456.896L575.716 456.896L575.716 440.992L581.014 440.992L581.013 435.69L587.644 435.69L587.644 429.062L592.95 429.062L592.95 422.435L599.573 422.435L599.573 411.831L604.875 411.831L604.875 401.227L611.502 401.227L611.502 382.67L604.875 382.67L604.874 376.043L599.574 376.043L599.574 370.741ZM570.41 480.755L575.712 480.755L575.713 492.685L581.015 492.685L581.015 499.312L586.98 499.312L586.98 503.288L605.539 503.288L605.539 499.312L610.841 499.312L610.841 492.685L616.143 492.685L616.143 480.755L622.108 480.755L622.108 474.791L628.074 474.791L628.073 469.489L634.039 469.489L634.038 464.187L639.341 464.187L639.341 456.897L644.643 456.897L644.643 450.932L651.271 450.932L651.271 444.968L661.876 444.968L661.876 440.328L679.109 440.328L679.108 435.026L724.842 435.026L724.842 440.328L742.738 440.328L742.738 446.293L753.343 446.293L753.343 450.932L759.308 450.932L759.308 458.222L765.273 458.222L765.273 463.524L771.239 463.524L771.901 463.524L771.901 457.56L766.599 457.56L766.598 435.026L771.238 435.026L771.238 429.062L776.54 429.062L776.54 423.097L782.505 423.097L782.505 411.831L795.098 411.831L795.099 429.062L789.133 429.062L789.134 435.026L782.506 435.026L782.506 446.293L794.436 446.293L794.436 450.932L800.402 450.932L800.402 457.56L805.704 457.56L805.704 463.524L811.67 463.524L811.67 486.057L805.705 486.057L805.705 491.359L800.403 491.359L800.403 497.324L793.775 497.324L793.775 509.253L799.74 509.253L799.741 554.982L793.113 554.982L793.114 571.55L788.474 571.55L788.474 584.142L782.509 584.142L782.509 590.77L776.544 590.77L776.544 594.746L770.579 594.746L770.579 600.711L765.277 600.711L765.277 606.676L759.311 606.676L759.312 617.942L753.347 617.942L753.347 630.534L759.312 630.534L759.312 636.499L765.277 636.499L765.278 641.801L770.58 641.801L770.58 647.765L776.545 647.765L776.546 659.032L782.511 659.032L782.511 670.961L788.476 670.961L788.477 716.027L782.512 716.027L782.513 734.584L788.478 734.584L788.478 744.525L794.443 744.525L794.444 762.419L800.409 762.419L800.41 796.218L794.444 796.218L794.445 813.45L788.48 813.45L788.48 825.379L782.515 825.379L782.515 836.645L776.55 836.645L776.55 841.285L771.247 841.285L771.248 847.912L761.306 847.912L761.306 855.202L736.782 855.202L736.782 859.179L730.154 859.179L730.154 865.143L724.852 865.143L724.852 871.108L730.154 871.108L730.155 881.712L714.247 881.712L714.247 877.735L708.282 877.735L708.282 855.202L714.247 855.202L714.247 848.575L720.212 848.575L720.212 842.61L730.154 842.61L730.154 836.645L742.747 836.645L742.747 830.018L754.014 830.018L754.014 825.379L759.979 825.379L759.979 808.81L765.944 808.81L765.944 784.289L759.978 784.289L759.978 773.685L754.013 773.685L754.013 767.721L748.71 767.721L748.71 761.756L736.78 761.756L736.78 755.791L720.21 755.791L720.21 750.49L713.581 750.49L713.582 756.454L707.616 756.454L707.617 761.756L685.081 761.756L685.081 767.721L678.453 767.721L678.454 780.313L685.082 780.313L685.082 784.289L690.384 784.289L690.384 790.917L702.315 790.917L702.315 802.183L691.047 802.183L691.047 796.218L678.454 796.218L678.454 790.917L673.814 790.917L673.814 784.289L667.849 784.289L667.849 778.325L661.884 778.325L661.882 727.956L667.848 727.956L667.847 704.098L661.882 704.098L661.881 670.298L667.846 670.298L667.846 659.032L673.811 659.032L673.811 647.103L679.776 647.103L679.776 629.209L673.811 629.209L673.81 623.907L662.543 623.907L662.543 617.942L651.938 617.942L651.938 611.977L645.31 611.977L645.309 606.676L639.344 606.676L639.344 601.374L632.716 601.374L632.716 594.746L628.739 594.746L628.739 588.782L623.437 588.782L623.436 583.48L616.146 583.48L616.145 572.213L605.541 572.213L605.54 566.249L593.61 566.249L593.61 560.947L581.679 560.947L581.679 555.645L570.412 555.645L570.41 480.755Z" fill="black"/>
</g>
<defs>
<clipPath id="clip0_369_5424">
<rect width="287.794" height="212.353" fill="white" transform="translate(865.316 252.324)"/>
</clipPath>
<clipPath id="clip1_369_5424">
<rect width="272.426" height="212.353" fill="white" transform="translate(578.918 26)"/>
</clipPath>
<clipPath id="clip2_369_5424">
<rect width="278.946" height="212.353" fill="white" transform="translate(286 478.647)"/>
</clipPath>
<clipPath id="clip3_369_5424">
<rect width="287.794" height="212.353" fill="white" transform="translate(865.316 26)"/>
</clipPath>
<clipPath id="clip4_369_5424">
<rect width="272.426" height="212.353" fill="white" transform="translate(578.918 478.647)"/>
</clipPath>
<clipPath id="clip5_369_5424">
<rect width="278.946" height="212.353" fill="white" transform="translate(286 26)"/>
</clipPath>
<clipPath id="clip6_369_5424">
<rect width="287.794" height="212.353" fill="white" transform="translate(865.316 478.647)"/>
</clipPath>
<clipPath id="clip7_369_5424">
<rect width="272.426" height="212.353" fill="white" transform="translate(578.918 252.324)"/>
</clipPath>
<clipPath id="clip8_369_5424">
<rect width="278.946" height="212.353" fill="white" transform="translate(286 252.324)"/>
</clipPath>
</defs>
</svg>
