<svg width="1280" height="1024" viewBox="0 0 1280 1024" fill="none" xmlns="http://www.w3.org/2000/svg">
<g clip-path="url(#clip0_419_3145)">
<rect width="1280" height="1024" fill="#111111"/>
<rect x="1183.72" y="777.114" width="7.92786" height="7.92706" transform="rotate(180 1183.72 777.114)" fill="white"/>
<rect x="54" y="379.441" width="7.92786" height="7.92706" transform="rotate(180 54 379.441)" fill="white"/>
<rect x="513.812" y="783.721" width="7.92786" height="7.92706" transform="rotate(180 513.812 783.721)" fill="white"/>
<rect x="1078.3" y="371.176" width="7.92786" height="7.92706" transform="rotate(180 1078.3 371.176)" fill="white"/>
<rect x="574.594" y="557.799" width="7.92786" height="7.92706" transform="rotate(180 574.594 557.799)" fill="white"/>
<rect x="647.266" y="742.764" width="7.92786" height="7.92706" transform="rotate(180 647.266 742.764)" fill="white"/>
<rect x="865.32" y="502.334" width="7.92786" height="7.92706" transform="rotate(180 865.32 502.334)" fill="white"/>
<rect x="268.055" y="273.746" width="7.92786" height="7.92706" transform="rotate(180 268.055 273.746)" fill="white"/>
<rect x="388.953" y="412.504" width="7.92786" height="7.92706" transform="rotate(180 388.953 412.504)" fill="white"/>
<rect x="778.078" y="240.716" width="7.92786" height="7.92706" transform="rotate(180 778.078 240.716)" fill="white"/>
<rect x="878.5" y="323.951" width="7.92786" height="7.92706" transform="rotate(180 878.5 323.951)" fill="white"/>
<rect x="458.727" y="265.624" width="7.92786" height="7.92706" transform="rotate(180 458.727 265.624)" fill="white"/>
<rect x="1224.68" y="72.9272" width="7.92786" height="7.92706" transform="rotate(180 1224.68 72.9272)" fill="white"/>
<rect x="534.961" y="666.136" width="5.28524" height="5.28471" transform="rotate(180 534.961 666.136)" fill="white"/>
<rect x="1005.7" y="252.989" width="5.28524" height="5.28471" transform="rotate(180 1005.7 252.989)" fill="white"/>
<rect x="627.445" y="116.526" width="5.28524" height="5.28471" transform="rotate(180 627.445 116.526)" fill="white"/>
<rect x="784.68" y="543.266" width="5.28524" height="5.28471" transform="rotate(180 784.68 543.266)" fill="white"/>
<rect x="1124.26" y="168.053" width="5.28524" height="5.28471" transform="rotate(180 1124.26 168.053)" fill="white"/>
<rect x="232.375" y="773.151" width="5.28524" height="5.28471" transform="rotate(180 232.375 773.151)" fill="white"/>
<rect x="123.375" y="678.748" width="5.28524" height="5.28471" transform="rotate(180 123.375 678.748)" fill="white"/>
<rect x="1035.73" y="703.129" width="5.28524" height="5.28471" transform="rotate(180 1035.73 703.129)" fill="white"/>
<rect x="905.141" y="158.054" width="5.28524" height="5.28471" transform="rotate(180 905.141 158.054)" fill="white"/>
<rect x="1235.25" y="313.381" width="5.28524" height="5.28471" transform="rotate(180 1235.25 313.381)" fill="white"/>
<rect x="875.391" y="748.285" width="5.28524" height="5.28471" transform="rotate(180 875.391 748.285)" fill="white"/>
<rect x="963.062" y="482.492" width="5.28524" height="5.28471" transform="rotate(180 963.062 482.492)" fill="white"/>
<rect x="1070.09" y="80.8538" width="5.28524" height="5.28471" transform="rotate(180 1070.09 80.8538)" fill="white"/>
<rect x="80.4219" y="232.791" width="5.28524" height="5.28471" transform="rotate(180 80.4219 232.791)" fill="white"/>
<rect x="48.7109" y="514.2" width="5.28524" height="5.28471" transform="rotate(180 48.7109 514.2)" fill="white"/>
<rect x="1229.96" y="589.507" width="5.28524" height="5.28471" transform="rotate(180 1229.96 589.507)" fill="white"/>
<rect x="57.9609" y="104.635" width="7.92786" height="7.92706" transform="rotate(180 57.9609 104.635)" fill="white"/>
<rect x="302.406" y="100.675" width="7.92786" height="7.92706" transform="rotate(180 302.406 100.675)" fill="white"/>
<rect x="50.0312" y="811.465" width="7.92786" height="7.92706" transform="rotate(180 50.0312 811.465)" fill="white"/>
<rect x="1118.98" y="515.522" width="7.92786" height="7.92706" transform="rotate(180 1118.98 515.522)" fill="white"/>
<rect x="723.898" y="659.53" width="7.92786" height="7.92706" transform="rotate(180 723.898 659.53)" fill="white"/>
<rect x="155.742" y="490.42" width="7.92786" height="7.92706" transform="rotate(180 155.742 490.42)" fill="white"/>
<rect x="294.477" y="561.813" width="7.92786" height="7.92706" transform="rotate(180 294.477 561.813)" fill="white"/>
<path d="M685.658 195.968H673.656V299.805H686.179V254.931H698.181V312.328H711.225V601.56H722.183V276.846H734.184V262.758H744.62V251.8H756.615V228.715H744.62V244.495H707.573V233.016H700.79H696.615V229.885V206.926H685.658V195.968Z" fill="#A80000"/>
<path d="M569.296 195.968H581.297V299.805H568.774V254.931H556.773V312.328H543.728V599.062H532.77V276.846H520.769V262.758H510.333V251.8H499.376V229.016H510.333V244.495H547.38V233.016H554.164H558.338V229.885V206.926H569.296V195.968Z" fill="#A80000"/>
<path d="M615.215 173.009H604.258V182.923H615.215V173.009Z" stroke="black" stroke-width="0.624566"/>
<path d="M650.7 173.009H639.742V182.923H650.7V173.009Z" stroke="black" stroke-width="0.624566"/>
<path d="M733.668 195.968H707.578V206.404H733.668V195.968Z" fill="#A80000"/>
<path d="M547.902 195.968H521.812V206.404H547.902V195.968Z" fill="#A80000"/>
<path d="M603.739 326.416H592.781V336.33H603.739V326.416Z" stroke="black" stroke-width="0.624566"/>
<path d="M663.747 326.416H652.789V336.33H663.747V326.416Z" stroke="black" stroke-width="0.624566"/>
<path d="M499.38 159.443H509.815V195.968H499.38V229.363H488.422V174.053H499.38V159.443Z" fill="white"/>
<path d="M510.336 146.919H522.337V158.92H510.336V146.919Z" fill="white"/>
<path d="M756.628 158.922H746.192V195.447H756.628V228.842H767.586V173.532H756.628V158.922Z" fill="white"/>
<path d="M745.672 146.399H733.671V158.4H745.672V146.399Z" fill="white"/>
<path d="M673.652 89H582.338H581.294V98.3923H558.857V111.437H534.854V123.438H523.375V145.876H546.856V137.005H581.294V299.805H568.771V254.93H556.77V324.329H569.815V337.374H581.294V382.248H592.774V429.21H604.775V370.247H592.774V347.81H604.775V359.289H614.689V429.21H640.257V359.289H652.258V347.81H663.216V370.247H652.258V429.21H663.216V382.248H673.652V337.374H686.175V324.329H698.176V254.93H686.175V299.805H673.652V137.005H710.699V145.876H733.658V123.438H721.657V111.437H698.176V98.3923H673.652V89Z" fill="white"/>
<path d="M615.215 136.483V98.9143H581.82V114.046H603.736V125.004H592.778V158.399H615.215V147.441H603.736V136.483H615.215Z" fill="#111111"/>
<path d="M639.746 136.483V98.9143H673.141V114.046H651.225V125.004H662.183V158.399H639.746V147.441H651.225V136.483H639.746Z" fill="#111111"/>
<path d="M433.461 639.632V626.377H448.112V618.005H463.46V610.679H478.46V604.052H493.111V596.028H508.11V588.354H522.761V580.68H537.761V574.401H552.761V567.773H567.063V557.657H575.434V549.983H597.062V543.006H608.573V533.937H619.736V525.565H634.038V533.937H642.061V543.006H656.363V549.983H670.665V557.657H691.246V567.773H703.106V574.401H715.315V580.68H731.012V588.354H750.547V596.028H763.453V604.052H775.662V610.679H790.313V618.005H806.359V624.981H820.312V639.981H806.359V648.004H790.313V655.329H775.662V662.306H763.453V670.329H750.547V677.654H731.012V684.98H716.013V692.305H701.013V699.631H686.711V706.956H670.665V713.933H656.363V721.956H642.061V729.281H634.038V736.258H619.736V729.281H611.713V721.956H597.062V713.933H582.062V706.956H567.063V699.631H552.761V692.305H537.761V684.98H522.761V677.654H508.11V670.329H493.111V662.655H478.46V655.329H463.46V647.655H448.112V639.632H433.461Z" fill="#2D8647"/>
<path fill-rule="evenodd" clip-rule="evenodd" d="M820.315 893.579V832.186H804.966V786.14H820.315V719.017H795.197V707.305H820.315V639.98H806.361V648.004H790.315V655.329H775.665V662.306H763.455V670.329H750.549V677.654H731.014V684.979H716.015V692.305H701.015V699.63H686.713V706.956H670.667V713.932H656.365V721.955H642.063V729.281H634.04V736.257H629.156V736.606V881.72H647.295V893.58H678.686V906.835H629.156V1032.16H786.127V1001.02H820.315V906.835H762.406V893.579H820.315Z" fill="#26733D"/>
<path fill-rule="evenodd" clip-rule="evenodd" d="M433.469 664.925V632.136H448.12V640.159H463.468V647.833H478.468V655.158H493.119V662.833H508.118V670.158H522.769V677.484H537.769V684.809H552.768V692.134H567.07V699.46H582.07V706.436H597.07V714.459H611.72V721.785H619.744V728.761H629.162V729.11V874.223H570.561V887.479H629.162V1031.91H453.352V1020.03H433.469V865.852H496.607V852.596H433.469V676.638H463.755V664.925H433.469Z" fill="#206234"/>
<rect x="783.234" y="782" width="59.5459" height="15.3103" fill="white"/>
<rect x="754.32" y="797.31" width="59.5459" height="15.3103" fill="white"/>
<rect x="401.734" y="995" width="59.5459" height="15.3103" fill="white"/>
<rect x="372.82" y="1010.31" width="59.5459" height="15.3103" fill="white"/>
<path d="M401.742 1004.31H432.362V1025.62H401.742V1004.31Z" fill="white"/>
<rect x="484.555" y="809.804" width="78.2604" height="20.4137" transform="rotate(-180 484.555 809.804)" fill="white"/>
<rect x="426.711" y="796.194" width="78.2604" height="20.4137" transform="rotate(-180 426.711 796.194)" fill="white"/>
<rect width="64.1846" height="20.4137" transform="matrix(1 0 0 -1 581.32 743.022)" fill="white"/>
<rect width="64.1846" height="20.4137" transform="matrix(1 0 0 -1 628.758 729.414)" fill="white"/>
<rect x="759.32" y="985" width="86.1776" height="18.0354" fill="white"/>
<rect x="797.398" y="1003.04" width="86.1776" height="18.0354" fill="white"/>
<path d="M797.406 995.035H845.501V1021.07H797.406V995.035Z" fill="white"/>
<rect x="425.617" y="578.835" width="86.1776" height="18.0354" fill="white"/>
<rect x="463.695" y="596.87" width="86.1776" height="18.0354" fill="white"/>
<path d="M463.703 588.87H511.779V614.906H463.703V588.87Z" fill="white"/>
<path d="M610.627 542.861H607.914V537.02H621.795H643.463V542.861H638.461V565.538H632.963V542.861H615.953V565.538H610.627V542.861Z" fill="black" stroke="black" stroke-width="0.648401"/>
<path d="M604.914 498.328V492.332H646.887V498.152L604.914 498.328Z" fill="#26733D" stroke="#26733D" stroke-width="0.648401"/>
<path d="M607.914 509.036V498.329H643.463V509.036H607.914Z" fill="#206234" stroke="#206234" stroke-width="0.648401"/>
<path d="M604.914 498.328V492.332H646.887V498.328H604.914Z" fill="#26733D" stroke="#26733D" stroke-width="0.648401"/>
<path d="M607.914 536.874V509.035H643.463V536.874H607.914Z" fill="#26733D" stroke="#26733D" stroke-width="0.648401"/>
<path d="M650.572 453.357H600.918V465.211H590.781V470.365H661.052V465.211H650.572V453.357Z" fill="#26733D" stroke="#26733D" stroke-width="0.648401"/>
<path d="M603.492 470.537H648.163V492.355H603.492V470.537Z" fill="black"/>
<rect x="603.836" y="458.683" width="2.74899" height="3.0923" fill="#FF9315"/>
<rect x="645.758" y="454.903" width="2.74899" height="3.0923" fill="#FF9315"/>
<rect x="606.586" y="461.775" width="6.52884" height="3.0923" fill="#FF9315"/>
<path d="M610.484 565.57H616.154V576.049H610.484V565.57Z" fill="#26733D"/>
<path d="M632.758 565.57H638.599V576.049H632.758V565.57Z" fill="#26733D"/>
<path d="M603.992 509.068H601.109V543.201H609.666V538.844H606.874V535.848V518.147H603.992V512.337V509.068Z" fill="#122132" stroke="#122132" stroke-width="1.39525"/>
<path d="M595.188 509.069V550.484H598.009V547.298H601.013V509.069H595.188Z" fill="#182738" stroke="#182738" stroke-width="1.39525"/>
<rect x="598.016" y="514.621" width="1.2743" height="4.73358" transform="rotate(-90 598.016 514.621)" fill="#FF9315"/>
<rect x="592.188" y="514.985" width="2.91268" height="2.91297" transform="rotate(-90 592.188 514.985)" fill="#FF9315"/>
<rect x="598.016" y="517.534" width="1.2743" height="4.73358" transform="rotate(-90 598.016 517.534)" fill="#FF9315"/>
<rect x="598.016" y="520.421" width="1.2743" height="4.73358" transform="rotate(-90 598.016 520.421)" fill="#FF9315"/>
<rect x="314.117" y="888.235" width="18.5585" height="18.5585" fill="white"/>
<path d="M332.586 869.944H356.572V888.056H332.586V869.944Z" fill="white"/>
<path d="M291.562 869.676H314.121V888.235H291.562V869.676Z" fill="white"/>
<rect x="277" y="946.765" width="99.9305" height="18.5585" transform="rotate(-90 277 946.765)" fill="white"/>
<rect x="352.664" y="946.765" width="99.9305" height="18.5585" transform="rotate(-90 352.664 946.765)" fill="white"/>
<rect x="399.953" y="946.764" width="99.9305" height="18.737" transform="rotate(-90 399.953 946.764)" fill="white"/>
<rect x="484.531" y="888.235" width="18.5585" height="18.5585" fill="white"/>
<path d="M503.094 906.793H527.08V925.351H503.094V906.793Z" fill="white"/>
<path d="M461.977 869.676H484.535V888.235H461.977V869.676Z" fill="white"/>
<rect x="447.414" y="946.765" width="99.9305" height="18.5585" transform="rotate(-90 447.414 946.765)" fill="white"/>
<rect x="523.078" y="946.765" width="99.9305" height="18.5585" transform="rotate(-90 523.078 946.765)" fill="white"/>
<rect x="629.078" y="928.028" width="62.4566" height="18.737" transform="rotate(-90 629.078 928.028)" fill="white"/>
<rect x="589.109" y="928.028" width="39.9722" height="18.737" fill="white"/>
<rect x="589.109" y="846.834" width="39.9722" height="18.737" fill="white"/>
<rect x="570.367" y="946.765" width="99.9305" height="18.737" transform="rotate(-90 570.367 946.765)" fill="white"/>
<rect x="735.25" y="884.309" width="18.737" height="18.737" transform="rotate(-90 735.25 884.309)" fill="white"/>
<rect x="735.25" y="946.765" width="18.737" height="18.737" transform="rotate(-90 735.25 946.765)" fill="white"/>
<rect x="716.508" y="928.028" width="24.9826" height="18.737" transform="rotate(-90 716.508 928.028)" fill="white"/>
<path d="M690.281 846.834H734.253V865.571H690.281V846.834Z" fill="white"/>
<path d="M691.273 884.309H735.246V903.046H691.273V884.309Z" fill="white"/>
<rect x="676.539" y="946.765" width="99.9305" height="18.737" transform="rotate(-90 676.539 946.765)" fill="white"/>
<rect x="841.43" y="945.516" width="39.9722" height="18.737" transform="rotate(-180 841.43 945.516)" fill="white"/>
<rect x="860.164" y="846.834" width="79.9444" height="18.737" transform="rotate(90 860.164 846.834)" fill="white"/>
<rect x="801.453" y="846.834" width="79.9444" height="18.737" transform="rotate(90 801.453 846.834)" fill="white"/>
<rect x="926.016" y="888.235" width="18.5585" height="18.5585" fill="white"/>
<path d="M944.578 906.793H969.564V925.351H944.578V906.793Z" fill="white"/>
<path d="M903.461 869.675H926.019V888.234H903.461V869.675Z" fill="white"/>
<rect x="888.898" y="946.765" width="99.9305" height="18.5585" transform="rotate(-90 888.898 946.765)" fill="white"/>
<rect x="964.562" y="946.765" width="99.9305" height="18.5585" transform="rotate(-90 964.562 946.765)" fill="white"/>
</g>
<defs>
<clipPath id="clip0_419_3145">
<rect width="1280" height="1024" fill="white"/>
</clipPath>
</defs>
</svg>
