<svg width="1299" height="717" viewBox="0 0 1299 717" fill="none" xmlns="http://www.w3.org/2000/svg">
<rect x="791.508" y="349.76" width="6.80157" height="8.74399" fill="white"/>
<rect x="1284" y="82" width="6.80157" height="8.74399" fill="white"/>
<rect x="131.359" y="22.5698" width="7.74772" height="7.74694" fill="white"/>
<rect x="1291" y="429" width="7.74772" height="7.74694" fill="white"/>
<rect x="847" y="64" width="7.74772" height="7.74694" fill="white"/>
<rect x="839" y="229" width="7.74772" height="7.74694" fill="white"/>
<rect x="670" y="181" width="7.74772" height="7.74694" fill="white"/>
<rect x="655.625" y="56.1396" width="7.74772" height="7.74694" fill="white"/>
<rect x="398.656" y="174.926" width="7.74772" height="7.74694" fill="white"/>
<rect y="346" width="7.74772" height="7.74694" fill="white"/>
<rect x="1077" y="549" width="7.74772" height="7.74694" fill="white"/>
<rect x="527.785" y="546.78" width="7.74772" height="7.74694" fill="white"/>
<rect x="429.648" y="465.437" width="7.74772" height="7.74694" fill="white"/>
<rect x="789.91" y="602.299" width="7.74772" height="7.74694" fill="white"/>
<rect x="91.332" y="710.757" width="7.74772" height="7.74694" fill="white"/>
<rect x="765.383" y="131.027" width="5.16515" height="5.16463" fill="white"/>
<rect x="688" y="396" width="5.16515" height="5.16463" fill="white"/>
<rect x="674.992" y="668.148" width="5.16515" height="5.16463" fill="white"/>
<rect x="499" y="305" width="5.16515" height="5.16463" fill="white"/>
<rect x="189.465" y="617.793" width="5.16515" height="5.16463" fill="white"/>
<rect x="1061.09" y="26.4429" width="5.16515" height="5.16463" fill="white"/>
<rect x="275.984" y="94.875" width="5.16515" height="5.16463" fill="white"/>
<rect x="81" y="475.766" width="5.16515" height="5.16463" fill="white"/>
<rect x="18" y="581" width="5.16515" height="5.16463" fill="white"/>
<rect x="430" y="65" width="5.16515" height="5.16463" fill="white"/>
<rect x="347.004" y="310.498" width="5.16515" height="5.16463" fill="white"/>
<rect x="242.41" y="703.01" width="5.16515" height="5.16463" fill="white"/>
<rect x="1209.58" y="554.527" width="5.16515" height="5.16463" fill="white"/>
<rect x="1194" y="207" width="5.16515" height="5.16463" fill="white"/>
<rect x="86.1641" y="205.915" width="5.16515" height="5.16463" fill="white"/>
<rect x="18" y="113" width="5.16515" height="5.16463" fill="white"/>
<rect x="1231.54" y="679.769" width="7.74772" height="7.74694" fill="white"/>
<rect x="573" y="371" width="7.74772" height="7.74694" fill="white"/>
<rect x="194.637" y="278.219" width="7.74772" height="7.74694" fill="white"/>
<rect x="533" y="171" width="7.74772" height="7.74694" fill="white"/>
<rect x="1121" y="371" width="7.74772" height="7.74694" fill="white"/>
<rect x="1183" y="211.473" width="41.781" height="8.74399" fill="white"/>
<path fill-rule="evenodd" clip-rule="evenodd" d="M962.426 97.8003H1004.21V129.862H1019.75V97.8003H1072.22V140.549H1041.13V159.98H1072.22V208.557H977.003V193.984H962.426V97.8003Z" fill="#206234"/>
<rect x="959.516" y="120.146" width="34.0078" height="8.74399" fill="white"/>
<path fill-rule="evenodd" clip-rule="evenodd" d="M1255.87 101.687H1198.06V113.345H1209.23V121.118H1198.06V156.094H1223.81V143.464H1237.41V156.094H1255.87V128.89H1244.21V125.004H1255.87V101.687Z" fill="#206234"/>
<path fill-rule="evenodd" clip-rule="evenodd" d="M1029.87 274.061H1113.04V265.854H1096.96V260.383H1113.04V235.761H1076V244.652H1056.43V235.761H1029.87V246.704H1046.28V257.647H1029.87V274.061Z" fill="#206234"/>
<path fill-rule="evenodd" clip-rule="evenodd" d="M1082.92 118.203H1107.21V131.805H1117.9V118.203H1188.83V129.862H1171.34V136.663H1188.83V180.383H1164.54V193.984H1188.83V228.96H1082.92V180.383H1113.04V160.951H1082.92V118.203Z" fill="#206234"/>
<rect x="1164.54" y="202.728" width="41.781" height="8.74399" fill="white"/>
<rect x="1009.07" y="263.118" width="24.0765" height="9.84849" fill="white"/>
<rect x="1026.58" y="272.967" width="24.0765" height="9.84849" fill="white"/>
<rect x="1231.58" y="96.8291" width="32.0645" height="8.74399" fill="white"/>
<rect x="1251.98" y="91" width="11.6598" height="8.74399" fill="white"/>
<rect x="943" y="128.891" width="34.0078" height="8.74399" fill="white"/>
<rect x="188.52" y="375" width="34.0078" height="8.74399" fill="white"/>
<rect x="172" y="383.744" width="34.0078" height="8.74399" fill="white"/>
<path fill-rule="evenodd" clip-rule="evenodd" d="M631.531 265.976V275.691H642.22V284.435H631.531V302.895H678.171V274.719H674.283V265.975H678.171V258.203H638.335V265.976H631.531Z" fill="#206234"/>
<rect x="658.734" y="297.065" width="38.8661" height="8.74399" fill="white"/>
<path fill-rule="evenodd" clip-rule="evenodd" d="M605.291 275.691H587.801V267.919H581.001V247.516H588.772V238.772H581.001V231H617.924V239.744H627.641V275.691H617.923V265.004H605.291V275.691Z" fill="#206234"/>
<rect x="617.926" y="244.601" width="19.433" height="6.80088" fill="white"/>
<rect x="631.527" y="247.516" width="19.433" height="6.80088" fill="white"/>
<path fill-rule="evenodd" clip-rule="evenodd" d="M230.133 141H220.418V151.687H211.673V141H193.21V187.635H221.389V183.748H230.134V187.635H237.906V147.801H230.133V141Z" fill="#206234"/>
<rect x="204.867" y="161.402" width="38.8661" height="8.74399" transform="rotate(-180 204.867 161.402)" fill="white"/>
<path fill-rule="evenodd" clip-rule="evenodd" d="M268.018 225.524H250.531V217.752H243.728V197.35H251.502V188.606H243.728V180.833H280.651V189.577H290.367V225.524H280.649V214.837H268.018V225.524Z" fill="#206234"/>
<rect x="253.449" y="211.923" width="19.433" height="6.80088" transform="rotate(-180 253.449 211.923)" fill="white"/>
<rect x="239.848" y="209.008" width="19.433" height="6.80088" transform="rotate(-180 239.848 209.008)" fill="white"/>
<path fill-rule="evenodd" clip-rule="evenodd" d="M174.922 399.288V476.041H200.186V427.463H214.76V476.041H312.896V439.122H272.087V419.691H312.896V386.658H184.637V399.288H174.922Z" fill="#206234"/>
<rect x="338.152" y="479.927" width="44.696" height="11.6587" transform="rotate(-180 338.152 479.927)" fill="white"/>
<rect x="305.117" y="472.155" width="44.696" height="11.6587" transform="rotate(-180 305.117 472.155)" fill="white"/>
<path fill-rule="evenodd" clip-rule="evenodd" d="M722.137 580.018H819.3V592.648H830.766V627.624H819.3V622.766H806.668V627.624H658.976V619.851H632.741V627.624H515.172V622.766H481.164V627.624H432V603.335H454.93V592.648H432V580.018H583.19V609.164H607.481V580.018H704.647V588.761H722.137V580.018Z" fill="#206234"/>
<path fill-rule="evenodd" clip-rule="evenodd" d="M842.039 687.86V718.092H909.083V676.145H903.255V686.889H890.624V676.145H845.926V687.86H842.039Z" fill="#206234"/>
<path fill-rule="evenodd" clip-rule="evenodd" d="M926.569 630.539H913.938V684.634H943.088V689.552H913.938V721.206H992.641V714.14H948.919V701.354H992.641V647.259H972.235V630.539H934.343V652.177H926.569V630.539Z" fill="#206234"/>
<path fill-rule="evenodd" clip-rule="evenodd" d="M557.341 631.51H717.665V652.885H729.325V631.51H749.535V660.657H729.326V668.43H749.535V679.116H683.658V674.259H660.338V679.116H593.292V651.913H584.547V679.116H503.901V673.287H471.837V679.116H439.77V673.287H429.473V652.885H437.826V643.169H429.473V631.51H545.681V643.169H557.341V631.51Z" fill="#206234"/>
<path fill-rule="evenodd" clip-rule="evenodd" d="M318.32 631.51H275.571V652.363H266.826V631.51H259.051V687.813H275.569V698.24H259.051V717.007H337.755V682.6H322.21V672.174H337.755V631.51H325.122V651.321H318.32V631.51Z" fill="#206234"/>
<path fill-rule="evenodd" clip-rule="evenodd" d="M342.801 631.51H415.482V648.027H421.505V683.003H515.56V689.804H562.2V683.003H580.661V699.519H562.202V705.349H580.661V717.007H421.505H342.801V665.515H347.464V644.141H342.801V631.51ZM417.426 701.462H370.787V710.206H417.426V701.462Z" fill="#206234"/>
<path fill-rule="evenodd" clip-rule="evenodd" d="M605.926 683.003H585.715V717.007H664.419V698.548H651.592V692.718H664.419V683.003H614.671V692.718H605.926V683.003Z" fill="#206234"/>
<path fill-rule="evenodd" clip-rule="evenodd" d="M781.793 631.51H830.377V637.476H837.178V672.27H811.913V680.224H837.178V682.212V717.007H669.082V682.212H737.098V688.177H769.162V680.224H753.13V631.51H768.189V639.464H781.793V631.51ZM692.403 699.113H677.828V714.025H692.403V699.113Z" fill="#206234"/>
<path fill-rule="evenodd" clip-rule="evenodd" d="M842.039 630.539H845.924V647.055H855.641V630.539H909.083V644.14H887.705V649.97H909.083V673.287H842.039V630.539Z" fill="#206234"/>
<rect x="444.633" y="676.202" width="44.696" height="11.6587" transform="rotate(-180 444.633 676.202)" fill="white"/>
<rect x="415.48" y="670.373" width="44.696" height="11.6587" transform="rotate(-180 415.48 670.373)" fill="white"/>
<rect x="864.383" y="648.027" width="44.696" height="11.6587" transform="rotate(-180 864.383 648.027)" fill="white"/>
<rect x="838.152" y="656.771" width="44.696" height="11.6587" transform="rotate(-180 838.152 656.771)" fill="white"/>
<rect x="1022.76" y="690.775" width="44.696" height="11.6587" transform="rotate(-180 1022.76 690.775)" fill="white"/>
</svg>
