<svg width="425" height="896" viewBox="0 0 425 896" fill="none" xmlns="http://www.w3.org/2000/svg">
<g clip-path="url(#clip0_437_13047)">
<rect width="425" height="896" fill="#111111"/>
<path fill-rule="evenodd" clip-rule="evenodd" d="M359.727 554.376H412.734V557.503H424.124V576.716H362.355V572.248H359.727V561.525H370.239V557.504H359.727V554.376Z" fill="#206234"/>
<path fill-rule="evenodd" clip-rule="evenodd" d="M424.125 620.081H371.117V617.015H359.728V598.179H421.497V602.56H424.125V613.073H413.612V617.015H424.125V620.081Z" fill="#206234"/>
<path fill-rule="evenodd" clip-rule="evenodd" d="M424.125 793.542H371.117V790.476H359.728V771.64H421.497V776.021H424.125V786.533H413.612V790.476H424.125V793.542Z" fill="#206234"/>
<path fill-rule="evenodd" clip-rule="evenodd" d="M424.123 576.716H424.124V598.179H359.727V589.418H377.688V585.476H359.727V576.716H421.057V586.353H424.123V576.716Z" fill="white"/>
<path fill-rule="evenodd" clip-rule="evenodd" d="M424.123 533H424.124V554.464H359.727V545.703H377.688V541.76H359.727V533H421.057V542.637H424.123V533Z" fill="white"/>
<path fill-rule="evenodd" clip-rule="evenodd" d="M359.728 641.544H359.728V620.08H424.125V628.841H406.163V632.783H424.125V641.544H362.795V631.907H359.728V641.544Z" fill="white"/>
<path fill-rule="evenodd" clip-rule="evenodd" d="M359.728 771.641H359.728V750.177H424.125V758.938H406.163V762.88H424.125V771.641H362.795V762.004H359.728V771.641Z" fill="white"/>
<path fill-rule="evenodd" clip-rule="evenodd" d="M424.133 641.633H371.125V644.699H359.735V663.534H421.505V659.154H424.133V648.641H413.62V644.699H424.133V641.633Z" fill="#206234"/>
<path fill-rule="evenodd" clip-rule="evenodd" d="M424.133 728.362H371.125V731.429H359.735V750.264H421.505V745.884H424.133V735.371H413.62V731.429H424.133V728.362Z" fill="#206234"/>
<path fill-rule="evenodd" clip-rule="evenodd" d="M359.734 706.899H412.742V703.833H424.132V684.998H362.363V689.378H359.734V699.891H370.247V703.833H359.734V706.899Z" fill="#206234"/>
<path fill-rule="evenodd" clip-rule="evenodd" d="M359.736 663.534H359.735V684.998H424.133V676.237H406.171V672.294H424.133V663.534H362.803V673.171H359.736V663.534Z" fill="white"/>
<path fill-rule="evenodd" clip-rule="evenodd" d="M424.131 728.362H424.132V706.899H359.734V715.659H377.696V719.602H359.734V728.362H421.064V718.726H424.131V728.362Z" fill="white"/>
<path fill-rule="evenodd" clip-rule="evenodd" d="M359.727 294.376H412.734V297.503H424.124V316.716H362.355V312.248H359.727V301.525H370.239V297.504H359.727V294.376Z" fill="#206234"/>
<path fill-rule="evenodd" clip-rule="evenodd" d="M424.125 360.081H371.117V357.015H359.728V338.179H421.497V342.56H424.125V353.073H413.612V357.015H424.125V360.081Z" fill="#206234"/>
<path fill-rule="evenodd" clip-rule="evenodd" d="M424.125 533.542H371.117V530.476H359.728V511.64H421.497V516.021H424.125V526.533H413.612V530.476H424.125V533.542Z" fill="#206234"/>
<path fill-rule="evenodd" clip-rule="evenodd" d="M424.123 316.716H424.124V338.179H359.727V329.418H377.688V325.476H359.727V316.716H421.057V326.353H424.123V316.716Z" fill="white"/>
<path fill-rule="evenodd" clip-rule="evenodd" d="M424.123 273H424.124V294.464H359.727V285.703H377.688V281.76H359.727V273H421.057V282.637H424.123V273Z" fill="white"/>
<path fill-rule="evenodd" clip-rule="evenodd" d="M359.728 381.544H359.728V360.08H424.125V368.841H406.163V372.783H424.125V381.544H362.795V371.907H359.728V381.544Z" fill="white"/>
<path fill-rule="evenodd" clip-rule="evenodd" d="M359.728 511.641H359.728V490.177H424.125V498.938H406.163V502.88H424.125V511.641H362.795V502.004H359.728V511.641Z" fill="white"/>
<path fill-rule="evenodd" clip-rule="evenodd" d="M424.133 381.633H371.125V384.699H359.735V403.534H421.505V399.154H424.133V388.641H413.62V384.699H424.133V381.633Z" fill="#206234"/>
<path fill-rule="evenodd" clip-rule="evenodd" d="M424.133 468.362H371.125V471.429H359.735V490.264H421.505V485.884H424.133V475.371H413.62V471.429H424.133V468.362Z" fill="#206234"/>
<path fill-rule="evenodd" clip-rule="evenodd" d="M359.734 446.899H412.742V443.833H424.132V424.998H362.363V429.378H359.734V439.891H370.247V443.833H359.734V446.899Z" fill="#206234"/>
<path fill-rule="evenodd" clip-rule="evenodd" d="M359.736 403.534H359.735V424.998H424.133V416.237H406.171V412.294H424.133V403.534H362.803V413.171H359.736V403.534Z" fill="white"/>
<path fill-rule="evenodd" clip-rule="evenodd" d="M424.131 468.362H424.132V446.899H359.734V455.659H377.696V459.602H359.734V468.362H421.064V458.726H424.131V468.362Z" fill="white"/>
<rect x="293.578" y="775" width="11.8281" height="4.38033" fill="white"/>
<rect x="283.07" y="775" width="8.32346" height="4.38033" fill="white"/>
<rect x="269.484" y="775" width="10.9519" height="4.38033" fill="white"/>
<rect x="258.539" y="775" width="8.76154" height="4.38033" fill="white"/>
<rect x="244.516" y="775" width="11.8281" height="4.38033" fill="white"/>
<rect x="239.258" y="775" width="3.94269" height="4.38033" fill="white"/>
<rect x="307.602" y="775" width="3.50462" height="4.38033" fill="white"/>
<rect x="209.469" y="775" width="5.25693" height="4.38033" fill="white"/>
<rect x="195.016" y="775" width="12.2662" height="4.38033" fill="white"/>
<rect x="183.188" y="775" width="9.6377" height="4.38033" fill="white"/>
<rect x="171.359" y="775" width="9.6377" height="4.38033" fill="white"/>
<rect x="159.531" y="775" width="9.6377" height="4.38033" fill="white"/>
<rect x="145.953" y="775" width="11.39" height="4.38033" fill="white"/>
<rect x="140.258" y="775" width="3.50462" height="4.38033" fill="white"/>
<rect x="112.219" y="775" width="3.50462" height="4.38033" fill="white"/>
<rect x="97.3203" y="775" width="12.7042" height="4.38033" fill="white"/>
<rect x="84.6172" y="775" width="10.5139" height="4.38033" fill="white"/>
<rect x="71.9141" y="775" width="10.5139" height="4.38033" fill="white"/>
<rect x="61.8438" y="775" width="7.88539" height="4.38033" fill="white"/>
<rect x="47.3828" y="775" width="12.2662" height="4.38033" fill="white"/>
<rect x="41.25" y="775" width="3.94269" height="4.38033" fill="white"/>
<rect x="342.328" y="775" width="11.8281" height="4.38033" fill="white"/>
<rect x="331.82" y="775" width="8.32346" height="4.38033" fill="white"/>
<rect x="318.234" y="775" width="10.9519" height="4.38033" fill="white"/>
<rect x="307.289" y="775" width="8.76154" height="4.38033" fill="white"/>
<rect x="356.352" y="775" width="3.50462" height="4.38033" fill="white"/>
<rect x="220.109" y="775" width="9.6377" height="4.38033" fill="white"/>
<rect x="120.664" y="775" width="10.5139" height="4.38033" fill="white"/>
<rect x="11.1328" y="775" width="12.2662" height="4.38033" fill="white"/>
<rect x="5" y="775" width="3.94269" height="4.38033" fill="white"/>
<path d="M48.9766 756.642V740.8H50.3458V744.027H53.7687V747.156H56.8983V753.317H66.3849V750.22H69.3189V756.642H66.3849V769.55H63.2553V756.642H53.5731V769.55H50.5414V756.642H48.9766Z" fill="black" stroke="black" stroke-width="0.239482"/>
<path d="M65.8594 750.058V740.795H69.3124V750.058H65.8594Z" fill="#206234" stroke="#206234" stroke-width="0.239482"/>
<path d="M47.0156 731.216V727.892H61.0988V731.119L47.0156 731.216Z" fill="#26733D" stroke="#26733D" stroke-width="0.239482"/>
<path d="M48.9766 737.473V731.312H69.3189V737.473H48.9766Z" fill="#206234" stroke="#206234" stroke-width="0.239482"/>
<path d="M50.2109 740.796V734.458H67.2767V740.796H50.2109Z" fill="#206234" stroke="#206234" stroke-width="0.239482"/>
<path d="M53.625 743.721V737.87H66.3024V745.671L58.9885 746.402L53.625 743.721Z" fill="#206234" stroke="#206234" stroke-width="0.239482"/>
<path d="M48.9766 740.702V737.475H50.4436V740.702H53.8665V743.721H58.1697V748.033H55.5795H53.8665V743.929H50.4436V740.702H48.9766Z" fill="#26733D"/>
<path d="M50.4436 740.702H48.9766V737.475H50.4436V740.702ZM50.4436 740.702V743.929H53.8665V743.721M50.4436 740.702H53.8665V743.721M53.8665 743.721V748.033H55.5795H58.1697V743.721H53.8665Z" stroke="#26733D" stroke-width="0.239482"/>
<path d="M67.2877 740.308V737.383H69.3249V740.796H67.2877V742.258H69.3249V745.427H67.5315V747.865H66.3125V743.477V740.796H66.8001H67.2877V740.308Z" fill="#26733D"/>
<path d="M67.2877 740.796V737.383H69.3249V740.796H67.2877ZM67.2877 740.796V742.258H69.3249V745.427H67.5315V747.865H66.3125V743.477V740.796H66.8001H67.2877ZM67.2877 740.796V740.308" stroke="#26733D" stroke-width="0.239482"/>
<path d="M66.1953 731.216V727.892H70.6941V731.119L66.1953 731.216Z" fill="#26733D" stroke="#26733D" stroke-width="0.239482"/>
<path d="M73.0342 705.692H44.7702V712.44H39V715.374H79V712.44H73.0342V705.692Z" fill="#26733D" stroke="#26733D" stroke-width="0.239482"/>
<path d="M46.2422 715.472H71.6701V727.891H46.2422V715.472Z" fill="black"/>
<rect x="63.6484" y="727.892" width="2.54279" height="3.32485" fill="black"/>
<rect x="61.1016" y="727.892" width="2.54279" height="3.32485" fill="black"/>
<rect x="68.3438" y="719.286" width="2.73839" height="4.6939" fill="#FAFF15"/>
<rect x="59.7266" y="719.286" width="2.73839" height="4.6939" fill="#FAFF15"/>
<rect x="46.4297" y="708.724" width="1.56479" height="1.76021" fill="#FF9315"/>
<rect x="70.2891" y="706.572" width="1.56479" height="1.76021" fill="#FF9315"/>
<rect x="48" y="710.484" width="3.71638" height="1.76021" fill="#FF9315"/>
<path d="M50.4453 769.647H53.6727V775.613H50.4453V769.647Z" fill="#26733D"/>
<path d="M63.1562 769.647H66.4815V775.613H63.1562V769.647Z" fill="#26733D"/>
<path d="M66.2909 743.627L61.2109 743.623V753.218H66.2909V743.627Z" fill="white"/>
<path d="M57.4364 765.545H59.125V745.548H53.8371V748.101H55.7477V749.856V760.227H57.4364V763.63V765.545Z" fill="#122132" stroke="#122132" stroke-width="0.239482"/>
<path d="M62.5938 765.546L62.5933 741.282H60.94L60.9405 743.149H59.1805V765.546H62.5938Z" fill="#182738" stroke="#182738" stroke-width="0.239482"/>
<rect x="60.9375" y="762.293" width="0.746564" height="2.77323" transform="rotate(90 60.9375 762.293)" fill="#FF9315"/>
<rect x="64.3516" y="762.08" width="1.70643" height="1.7066" transform="rotate(90 64.3516 762.08)" fill="#FF9315"/>
<rect x="60.9375" y="760.585" width="0.746564" height="2.77323" transform="rotate(90 60.9375 760.585)" fill="#FF9315"/>
<rect x="60.9375" y="763.999" width="0.746564" height="2.77323" transform="rotate(90 60.9375 763.999)" fill="#FF9315"/>
<path fill-rule="evenodd" clip-rule="evenodd" d="M185.363 428.157L177.683 429.064L178.102 432.608L175.732 432.888L176.22 437.022L180.946 436.465L180.667 434.102L183.036 433.822L183.664 439.137L181.295 439.417L181.853 444.143L179.489 444.422L179.838 447.375L177.473 447.654L177.822 450.607L174.874 450.955L175.153 453.317L172.785 453.597L173.064 455.961L170.704 456.24L170.983 458.603L168.032 458.951L168.38 461.904L166.015 462.183L166.574 466.909L164.21 467.188L165.116 474.865L162.161 475.214L164.323 493.525L167.279 493.176L168.116 500.265L170.479 499.986L171.177 505.892L173.542 505.613L173.751 507.386L176.702 507.038L177.051 509.991L181.771 509.433L182.085 512.091L187.106 511.498L187.385 513.86L192.702 513.233L192.981 515.595L198.297 514.968L198.611 517.626L203.337 517.068L203.93 522.088L207.179 521.705L207.458 524.068L209.821 523.789L210.135 526.447L211.907 526.237L212.256 529.191L215.209 528.842L215.488 531.205L218.147 530.891L218.426 533.253L221.379 532.905L221.693 535.563L226.419 535.005L226.733 537.663L231.754 537.07L232.033 539.433L234.691 539.119L235.633 547.093L232.975 547.407L233.602 552.723L230.944 553.037L231.537 558.057L228.879 558.371L230.657 573.433L233.315 573.119L234.571 583.751L231.913 584.065L234.563 606.511L237.221 606.197L237.535 608.855L240.194 608.541L240.542 611.494L242.61 611.25L242.889 613.613L248.501 612.95L248.815 615.608L253.836 615.016L253.243 609.995L247.926 610.623L247.578 607.669L245.215 607.948L245.005 606.176L242.052 606.525L241.389 600.913L244.343 600.565L244.029 597.907L254.071 596.721L253.792 594.358L256.451 594.045L256.137 591.387L259.09 591.038L259.369 593.401L266.754 592.529L267.067 595.187L272.384 594.559L272.698 597.217L275.061 596.938L275.375 599.596L278.033 599.282L278.591 604.008L281.249 603.694L282.539 614.621L279.881 614.935L280.753 622.318L278.095 622.632L278.339 624.7L273.318 625.292L273.666 628.246L268.055 628.908L268.368 631.566L263.938 632.089L264.252 634.747L261.594 635.061L261.942 638.015L259.284 638.328L260.47 648.37L263.128 648.056L263.337 649.828L270.426 648.991L269.868 644.266L267.505 644.545L267.191 641.887L269.554 641.608L269.24 638.95L272.194 638.601L271.985 636.829L282.913 635.539L282.53 632.29L286.96 631.767L286.611 628.814L288.974 628.535L288.73 626.467L291.388 626.154L290.795 621.133L293.454 620.819L292.826 615.503L295.484 615.189L294.578 607.51L297.236 607.197L295.457 592.135L292.799 592.448L291.857 584.474L289.199 584.788L288.676 580.358L286.018 580.672L285.041 572.403L287.699 572.089L285.328 552.006L282.67 552.32L282.042 547.004L279.384 547.318L278.791 542.297L276.133 542.611L275.819 539.953L273.456 540.232L273.177 537.869L270.519 538.183L270.205 535.525L267.546 535.839L266.884 530.228L269.542 529.914L268.949 524.893L271.607 524.579L271.294 521.921L273.656 521.642L273.343 518.984L276.001 518.67L275.792 516.898L278.45 516.585L278.101 513.631L280.759 513.317L280.097 507.706L282.164 507.462L281.293 500.079L284.246 499.73L281.84 479.352L279.182 479.666L278.554 474.35L281.507 474.001L281.194 471.343L283.556 471.064L283.277 468.701L285.936 468.387L284.75 458.346L282.092 458.66L281.778 456.002L279.415 456.281L279.066 453.327L276.408 453.641L276.164 451.574L270.847 452.202L270.254 447.181L273.208 446.832L272.894 444.174L275.552 443.86L274.646 436.182L269.034 436.844L269.627 441.865L266.968 442.179L267.282 444.837L264.919 445.116L265.233 447.774L263.166 448.018L264.351 458.059L266.714 457.78L267.028 460.438L266.733 460.473L264.075 460.787L263.796 458.424L261.137 458.738L260.754 455.489L258.095 455.803L257.851 453.736L253.125 454.294L252.812 451.636L244.837 452.577L244.558 450.215L224.178 452.621L224.457 454.984L216.777 455.89L217.021 457.958L212.295 458.515L212.609 461.173L209.656 461.522L209.97 464.18L207.607 464.459L207.99 467.708L205.627 467.987L205.906 470.349L203.248 470.663L203.527 473.026L200.869 473.34L201.183 475.998L198.524 476.312L199.152 481.628L196.789 481.907L197.138 484.86L194.775 485.139L194.984 486.911L186.714 487.887L186.505 486.115L183.847 486.429L183.498 483.476L181.135 483.755L180.507 478.439L178.15 478.717L176.894 468.084L179.254 467.806L178.417 460.718L180.785 460.439L180.506 458.076L183.454 457.728L183.105 454.775L185.47 454.496L185.121 451.542L188.076 451.193L187.518 446.469L189.887 446.189L189.329 441.464L192.284 441.116L191.307 432.846L188.353 433.195L188.004 430.241L185.642 430.52L185.363 428.157Z" fill="black"/>
<rect width="13.0863" height="2.04453" transform="matrix(0.993103 -0.117246 0.11727 0.9931 253.055 494.058)" fill="#FAFF15"/>
<rect width="0.817892" height="2.04453" transform="matrix(0.993103 -0.117246 0.11727 0.9931 259.141 493.338)" fill="black"/>
<rect width="1.63578" height="0.817812" transform="matrix(0.993103 -0.117246 0.11727 0.9931 263.922 491.951)" fill="#FAFF15"/>
<rect width="0.817892" height="0.817812" transform="matrix(0.993103 -0.117246 0.11727 0.9931 256.945 495.656)" fill="#FAFF15"/>
<rect width="13.0863" height="2.04453" transform="matrix(0.993103 -0.117246 0.11727 0.9931 262 575.049)" fill="#FAFF15"/>
<rect width="0.817892" height="2.04453" transform="matrix(0.993103 -0.117246 0.11727 0.9931 268.094 574.329)" fill="black"/>
<rect width="1.63578" height="0.817812" transform="matrix(0.993103 -0.117246 0.11727 0.9931 272.867 572.942)" fill="#FAFF15"/>
<rect width="0.817892" height="0.817812" transform="matrix(0.993103 -0.117246 0.11727 0.9931 265.898 576.647)" fill="#FAFF15"/>
<rect width="18.4397" height="2.88093" transform="matrix(0.993103 -0.117246 0.11727 0.9931 241.344 557.462)" fill="#FAFF15"/>
<rect width="1.15248" height="2.88093" transform="matrix(0.993103 -0.117246 0.11727 0.9931 249.93 556.449)" fill="black"/>
<rect width="2.30497" height="1.15237" transform="matrix(0.993103 -0.117246 0.11727 0.9931 256.648 554.494)" fill="#FAFF15"/>
<rect width="1.15248" height="1.15237" transform="matrix(0.993103 -0.117246 0.11727 0.9931 246.836 559.715)" fill="#FAFF15"/>
<rect width="19.0346" height="2.97386" transform="matrix(0.993103 -0.117246 0.11727 0.9931 215.75 482.664)" fill="#FAFF15"/>
<rect width="19.0346" height="2.97386" transform="matrix(0.993103 -0.117246 0.11727 0.9931 215.75 482.664)" fill="#FAFF15"/>
<rect width="1.18966" height="2.97386" transform="matrix(0.993103 -0.117246 0.11727 0.9931 224.609 481.618)" fill="black"/>
<rect width="1.18966" height="1.18954" transform="matrix(0.993103 -0.117246 0.11727 0.9931 215.609 481.483)" fill="#FAFF15"/>
<rect width="1.18966" height="1.18954" transform="matrix(0.993103 -0.117246 0.11727 0.9931 232.578 483.074)" fill="#FAFF15"/>
<rect width="23.7932" height="3.71733" transform="matrix(0.993103 -0.117246 0.11727 0.9931 220.906 511.101)" fill="#FAFF15"/>
<rect width="23.7932" height="3.71733" transform="matrix(0.993103 -0.117246 0.11727 0.9931 220.906 511.101)" fill="#FAFF15"/>
<rect width="1.48708" height="3.71733" transform="matrix(0.993103 -0.117246 0.11727 0.9931 231.984 509.793)" fill="black"/>
<rect width="1.48708" height="1.48693" transform="matrix(0.993103 -0.117246 0.11727 0.9931 220.727 509.625)" fill="#FAFF15"/>
<rect width="1.48708" height="1.48693" transform="matrix(0.993103 -0.117246 0.11727 0.9931 241.93 511.614)" fill="#FAFF15"/>
<path fill-rule="evenodd" clip-rule="evenodd" d="M22.8438 730.896H16.7109V801.688H26.7891V809.554H16.7109V845.6H41.2433V837.727H35.1117V833.794H41.2433V784.627H38.1742V780.694H41.2433V749.888H34.6742V745.955H41.2433V725H22.8438V730.896Z" fill="#206234"/>
<path fill-rule="evenodd" clip-rule="evenodd" d="M132.812 728.284H122.737V725H115.727V814.146H118.352V833.809H115.727V845.6H140.259V831.196H137.187V827.264H140.259V797.091H135.002V788.57H140.259V725H132.812V728.284Z" fill="#206234"/>
<path fill-rule="evenodd" clip-rule="evenodd" d="M360 778.543H-1V790.291H49.5066V785.183H52.7298V790.291H85.494V788.758H97.8496V790.291H116.106V788.758H124.164V790.291H159.623V785.183H162.309V790.291H187.557V787.738H214.954V790.291H239.205V785.183H241.891V790.291H284.252V788.758H300.905V790.291H360V778.543Z" fill="#206234"/>
<path fill-rule="evenodd" clip-rule="evenodd" d="M214.727 732.201H218.234V725H239.259V736.793H233.123V741.381H239.259V825.918H237.065V840.338H239.259V845.6H214.727V806.271H228.742V802.993H214.727V732.201Z" fill="#206234"/>
<path fill-rule="evenodd" clip-rule="evenodd" d="M348.165 799.377H334.585V790.092H310.93V840.233H315.31V846.423H359.556V822.281H363.499V846.423H401.174V842.709H411.25V846.423H423.954V790.092H348.165V799.377Z" fill="#206234"/>
<rect x="40" y="355" width="69.6543" height="5.69443" fill="white"/>
<rect x="75.9219" y="360.256" width="46.8742" height="5.69443" fill="white"/>
<rect x="67" y="593" width="69.6543" height="5.69443" fill="white"/>
<rect x="102.922" y="598.256" width="46.8742" height="5.69443" fill="white"/>
<rect x="273" y="238" width="69.6543" height="5.69443" fill="white"/>
<rect x="308.922" y="243.256" width="46.8742" height="5.69443" fill="white"/>
<rect x="290.07" y="87.4463" width="47.3123" height="3.9423" transform="rotate(-180 290.07 87.4463)" fill="white"/>
<rect x="265.539" y="83.9424" width="31.5415" height="3.9423" transform="rotate(-180 265.539 83.9424)" fill="white"/>
<rect x="144.07" y="186.446" width="47.3123" height="3.9423" transform="rotate(-180 144.07 186.446)" fill="white"/>
<rect x="119.539" y="182.942" width="31.5415" height="3.9423" transform="rotate(-180 119.539 182.942)" fill="white"/>
<path fill-rule="evenodd" clip-rule="evenodd" d="M149.932 846.423H-37.6094V854.307H364.916V850.365H372.816V854.307H425V846.423H249.035V849.927H242.381V846.423H157.833V850.365H149.932V846.423Z" fill="white"/>
<path fill-rule="evenodd" clip-rule="evenodd" d="M300.593 854.481H399.599V869.375H407.922V854.481H424.13V909.236H424.129V897.847H415.806V909.236H113.97V905.294H40.3731V909.236H-24.4609V891.276H1.82296V883.392H-24.4609V854.481H293.584V865.432H300.593V854.481Z" fill="#206234"/>
</g>
<defs>
<clipPath id="clip0_437_13047">
<rect width="425" height="896" fill="white"/>
</clipPath>
</defs>
</svg>
