<svg width="534" height="694" viewBox="0 0 534 694" fill="none" xmlns="http://www.w3.org/2000/svg">
<path d="M307.732 77.6357H299.094V152.371H308.107V120.074H316.745V161.385H326.134V369.556H334.02V135.847H342.658V125.707H350.169V117.82H358.432V104.3H350.169V112.562H323.505V104.3H318.623H315.618V102.047V85.5224H307.732V77.6357Z" fill="#A80000"/>
<path d="M223.979 77.6357H232.617V152.371H223.604V120.074H214.966V161.385H205.577V367.758H197.691V135.847H189.053V125.707H181.542V117.82H173.279V104.3H181.542V112.562H208.206V104.3H213.088H216.093V102.047V85.5224H223.979V77.6357Z" fill="#A80000"/>
<path d="M257.027 61.1108H249.141V68.2464H257.027V61.1108Z" stroke="black" stroke-width="0.471754"/>
<path d="M282.566 61.1108H274.68V68.2464H282.566V61.1108Z" stroke="black" stroke-width="0.471754"/>
<path d="M342.278 77.6357H323.5V85.1469H342.278V77.6357Z" fill="#A80000"/>
<path d="M208.579 77.6357H189.801V85.1469H208.579V77.6357Z" fill="#A80000"/>
<path d="M248.766 171.524H240.879V178.66H248.766V171.524Z" stroke="black" stroke-width="0.471754"/>
<path d="M291.957 171.524H284.07V178.66H291.957V171.524Z" stroke="black" stroke-width="0.471754"/>
<path d="M173.66 51.3469H181.171V77.6358H173.66V101.671H165.773V61.8625H173.66V51.3469Z" fill="white"/>
<path d="M181.539 42.3335H190.177V50.9713H181.539V42.3335Z" fill="white"/>
<path d="M358.797 50.9709H351.286V77.2598H358.797V101.295H366.684V61.4865H358.797V50.9709Z" fill="white"/>
<path d="M350.918 41.9575H342.28V50.5953H350.918V41.9575Z" fill="white"/>
<path d="M299.09 0.646484H233.367H232.616V7.40649H216.467V16.7954H199.192V25.4332H190.93V41.5821H207.83V35.1976H232.616V152.371H223.603V120.073H214.965V170.022H224.354V179.411H232.616V211.709H240.879V245.509H249.516V203.071H240.879V186.922H249.516V195.184H256.652V245.509H275.054V195.184H283.692V186.922H291.579V203.071H283.692V245.509H291.579V211.709H299.09V179.411H308.103V170.022H316.741V120.073H308.103V152.371H299.09V35.1976H325.754V41.5821H342.279V25.4332H333.641V16.7954H316.741V7.40649H299.09V0.646484Z" fill="white"/>
<path d="M121.375 398.68V388.667H132.441V382.344H144.034V376.811H155.364V371.805H166.43V365.744H177.76V359.948H188.826V354.151H200.156V349.409H211.486V344.402H222.288V336.762H228.612V330.965H244.948V325.695H253.643V318.845H262.074V312.521H272.877V318.845H278.937V325.695H289.74V330.965H300.542V336.762H316.088V344.402H325.046V349.409H334.268V354.151H346.125V359.948H360.88V365.744H370.628V371.805H379.85V376.811H390.916V382.344H403.037V387.613H413.576V398.943H403.037V405.003H390.916V410.536H379.85V415.806H370.628V421.866H360.88V427.399H346.125V432.932H334.795V438.465H323.465V443.998H312.663V449.532H300.542V454.801H289.74V460.861H278.937V466.394H272.877V471.664H262.074V466.394H256.014V460.861H244.948V454.801H233.618V449.532H222.288V443.998H211.486V438.465H200.156V432.932H188.826V427.399H177.76V421.866H166.43V416.069H155.364V410.536H144.034V404.74H132.441V398.68H121.375Z" fill="#2D8647"/>
<path fill-rule="evenodd" clip-rule="evenodd" d="M413.582 590.493V544.121H401.664V509.341H413.582V458.641H394.075V449.794H413.582V393.082H402.747V399.142H390.287V404.675H378.91V409.945H369.43V416.005H359.408V421.538H344.239V427.071H332.591V432.604H320.944V438.138H309.838V443.671H297.378V448.94H286.272V455H275.167V460.13H268.937V465.803H265.145V466.067L270.044 565.051V581.535H279.224V590.493H303.603V600.505H270.044V630.049L265.145 695.168H387.035V671.646H413.582V600.506H368.618V590.493H413.582Z" fill="#26733D"/>
<path fill-rule="evenodd" clip-rule="evenodd" d="M121.371 417.786V392.514H132.623V398.574H144.411V404.371H155.931V409.904H167.183V415.701H178.703V421.234H189.955V426.767H201.475V432.3H212.995V437.833H223.979V443.366H235.499V448.636H247.019V454.696H258.271V460.229H264.433V465.498H271.666V465.762V575.875H226.661V585.887H271.666V701H121.371V685.752H136.637V635.691H121.371V569.551H169.86V559.539H121.371V426.632H144.633V417.786H121.371Z" fill="#206234"/>
<rect x="427.523" y="415.785" width="44.9769" height="11.5643" fill="white"/>
<rect x="405.594" y="425.257" width="45.074" height="13.7182" fill="white"/>
<rect x="97.4141" y="654.573" width="44.9769" height="11.5643" fill="white"/>
<rect x="75.5703" y="666.137" width="44.9769" height="11.5643" fill="white"/>
<rect x="156.703" y="502.993" width="58.7922" height="16.3312" transform="rotate(-180 156.703 502.993)" fill="white"/>
<rect x="113.258" y="492.765" width="59.1125" height="15.4191" transform="rotate(-180 113.258 492.765)" fill="white"/>
<rect width="48.9935" height="15.6779" transform="matrix(1 0 0 -1 254.027 530.429)" fill="white"/>
<rect width="48.4806" height="15.4191" transform="matrix(1 0 0 -1 290.066 520.354)" fill="white"/>
<rect x="387.191" y="658.236" width="65.0925" height="13.6227" fill="white"/>
<path d="M415.953 668.859H481.046V685.482H415.953V668.859Z" fill="white"/>
<rect x="109.812" y="349.323" width="65.0925" height="13.6227" fill="white"/>
<rect x="138.648" y="360.416" width="65.3247" height="16.3312" fill="white"/>
<path d="M255.194 325.586H253.145V321.174H263.629H279.996V325.586H276.217V342.714H272.065V325.586H259.217V342.714H255.194V325.586Z" fill="black" stroke="black" stroke-width="0.489757"/>
<path d="M250.883 291.948V287.419H282.586V291.815L250.883 291.948Z" fill="#26733D" stroke="#26733D" stroke-width="0.489757"/>
<path d="M253.145 300.036V291.948H279.995V300.036H253.145Z" fill="#206234" stroke="#206234" stroke-width="0.489757"/>
<path d="M250.883 291.948V287.419H282.586V291.948H250.883Z" fill="#26733D" stroke="#26733D" stroke-width="0.489757"/>
<path d="M253.145 321.064V300.036H279.995V321.064H253.145Z" fill="#26733D" stroke="#26733D" stroke-width="0.489757"/>
<path d="M285.365 257.98H247.86V266.934H240.203V270.827H293.281V266.934H285.365V257.98Z" fill="#26733D" stroke="#26733D" stroke-width="0.489757"/>
<path d="M249.801 270.956H283.542V287.436H249.801V270.956Z" fill="black"/>
<rect x="250.062" y="262.003" width="2.07639" height="2.33571" fill="#FF9315"/>
<rect x="281.73" y="259.148" width="2.07639" height="2.33571" fill="#FF9315"/>
<rect x="252.145" y="264.339" width="4.93143" height="2.33571" fill="#FF9315"/>
<path d="M255.086 342.738H259.368V350.653H255.086V342.738Z" fill="#26733D"/>
<path d="M271.91 342.738H276.323V350.653H271.91V342.738Z" fill="#26733D"/>
<path d="M250.173 300.062H247.996V325.844H254.459V322.552H252.35V320.29V306.919H250.173V302.53V300.062Z" fill="#122132" stroke="#122132" stroke-width="1.05387"/>
<path d="M243.52 300.062V331.344H245.651V328.937H247.92V300.062H243.52Z" fill="#182738" stroke="#182738" stroke-width="1.05387"/>
<rect x="245.656" y="304.256" width="0.962515" height="3.57542" transform="rotate(-90 245.656 304.256)" fill="#FF9315"/>
<rect x="241.254" y="304.531" width="2.20004" height="2.20026" transform="rotate(-90 241.254 304.531)" fill="#FF9315"/>
<rect x="245.656" y="306.456" width="0.962515" height="3.57542" transform="rotate(-90 245.656 306.456)" fill="#FF9315"/>
<rect x="245.656" y="308.637" width="0.962515" height="3.57542" transform="rotate(-90 245.656 308.637)" fill="#FF9315"/>
<rect x="28.1914" y="586.456" width="14.0178" height="14.0178" fill="white"/>
<path d="M42.1445 572.64H59.194V586.321H42.1445V572.64Z" fill="white"/>
<path d="M9.29297 572.438H28.1942V586.456H9.29297V572.438Z" fill="white"/>
<rect x="0.15625" y="630.666" width="75.4806" height="14.0178" transform="rotate(-90 0.15625 630.666)" fill="white"/>
<rect x="57.3086" y="630.666" width="75.4806" height="14.0178" transform="rotate(-90 57.3086 630.666)" fill="white"/>
<rect x="93.0156" y="630.666" width="75.4806" height="14.1526" transform="rotate(-90 93.0156 630.666)" fill="white"/>
<rect x="156.906" y="586.456" width="14.0178" height="14.0178" fill="white"/>
<path d="M170.93 600.474H188.956V614.491H170.93V600.474Z" fill="white"/>
<path d="M139.961 572.438H156.909V586.456H139.961V572.438Z" fill="white"/>
<rect x="128.871" y="630.666" width="75.4806" height="14.0178" transform="rotate(-90 128.871 630.666)" fill="white"/>
<rect x="186.023" y="630.666" width="75.4806" height="14.0178" transform="rotate(-90 186.023 630.666)" fill="white"/>
<rect x="266.078" y="616.513" width="47.1754" height="14.1526" transform="rotate(-90 266.078 616.513)" fill="white"/>
<path d="M231.008 616.513H266.083V630.666H231.008V616.513Z" fill="white"/>
<path d="M231.008 555.185H266.083V569.338H231.008V555.185Z" fill="white"/>
<rect x="221.734" y="630.666" width="75.4806" height="14.1526" transform="rotate(-90 221.734 630.666)" fill="white"/>
<rect x="346.273" y="583.491" width="14.1526" height="14.1526" transform="rotate(-90 346.273 583.491)" fill="white"/>
<rect x="346.273" y="630.666" width="14.1526" height="14.1526" transform="rotate(-90 346.273 630.666)" fill="white"/>
<path d="M332.117 616.514V592.76H346.27V616.514H332.117Z" fill="white"/>
<path d="M311.203 555.186H346.279V569.338H311.203V555.186Z" fill="white"/>
<path d="M311.203 583.491H346.279V597.643H311.203V583.491Z" fill="white"/>
<rect x="301.93" y="630.666" width="75.4806" height="14.1526" transform="rotate(-90 301.93 630.666)" fill="white"/>
<rect x="426.484" y="629.723" width="30.1922" height="14.1526" transform="rotate(-180 426.484 629.723)" fill="white"/>
<rect x="440.641" y="555.186" width="60.3845" height="14.1526" transform="rotate(90 440.641 555.186)" fill="white"/>
<rect x="396.297" y="555.186" width="60.3845" height="14.1526" transform="rotate(90 396.297 555.186)" fill="white"/>
<rect x="490.367" y="586.456" width="14.0178" height="14.0178" fill="white"/>
<path d="M504.391 600.474H522.417V614.491H504.391V600.474Z" fill="white"/>
<path d="M472.445 572.438H490.37V586.456H472.445V572.438Z" fill="white"/>
<rect x="462.332" y="630.666" width="75.4806" height="14.0178" transform="rotate(-90 462.332 630.666)" fill="white"/>
<rect x="519.484" y="630.666" width="75.4806" height="14.0178" transform="rotate(-90 519.484 630.666)" fill="white"/>
</svg>
