<svg width="1440" height="698" viewBox="0 0 1440 698" fill="none" xmlns="http://www.w3.org/2000/svg">
<rect x="1159.54" y="598.82" width="6.3371" height="6.33647" transform="rotate(180 1159.54 598.82)" fill="white"/>
<rect x="256.508" y="280.94" width="6.3371" height="6.33647" transform="rotate(180 256.508 280.94)" fill="white"/>
<rect x="624.055" y="604.1" width="6.3371" height="6.33647" transform="rotate(180 624.055 604.1)" fill="white"/>
<rect x="1075.27" y="274.334" width="6.3371" height="6.33647" transform="rotate(180 1075.27 274.334)" fill="white"/>
<rect x="1299.34" y="117.983" width="6.3371" height="6.33647" transform="rotate(180 1299.34 117.983)" fill="white"/>
<rect x="672.641" y="423.51" width="6.3371" height="6.33647" transform="rotate(180 672.641 423.51)" fill="white"/>
<rect x="730.734" y="571.362" width="6.3371" height="6.33647" transform="rotate(180 730.734 571.362)" fill="white"/>
<rect x="905.031" y="379.175" width="6.3371" height="6.33647" transform="rotate(180 905.031 379.175)" fill="white"/>
<rect x="427.605" y="196.454" width="6.3371" height="6.33647" transform="rotate(180 427.605 196.454)" fill="white"/>
<rect x="524.25" y="307.369" width="6.3371" height="6.33647" transform="rotate(180 524.25 307.369)" fill="white"/>
<rect x="835.293" y="170.052" width="6.3371" height="6.33647" transform="rotate(180 835.293 170.052)" fill="white"/>
<rect x="915.562" y="236.585" width="6.3371" height="6.33647" transform="rotate(180 915.562 236.585)" fill="white"/>
<rect x="580.016" y="189.962" width="6.3371" height="6.33647" transform="rotate(180 580.016 189.962)" fill="white"/>
<rect x="1192.29" y="35.9304" width="6.3371" height="6.33647" transform="rotate(180 1192.29 35.9304)" fill="white"/>
<rect x="640.957" y="510.109" width="4.22474" height="4.22431" transform="rotate(180 640.957 510.109)" fill="white"/>
<rect x="1017.25" y="179.862" width="4.22474" height="4.22431" transform="rotate(180 1017.25 179.862)" fill="white"/>
<rect x="902.227" y="39.8711" width="4.22474" height="4.22431" transform="rotate(180 902.227 39.8711)" fill="white"/>
<rect x="714.895" y="70.7812" width="4.22474" height="4.22431" transform="rotate(180 714.895 70.7812)" fill="white"/>
<rect x="840.578" y="411.894" width="4.22474" height="4.22431" transform="rotate(180 840.578 411.894)" fill="white"/>
<rect x="1112.02" y="111.968" width="4.22474" height="4.22431" transform="rotate(180 1112.02 111.968)" fill="white"/>
<rect x="1354.23" y="8.87109" width="4.22474" height="4.22431" transform="rotate(180 1354.23 8.87109)" fill="white"/>
<rect x="399.09" y="595.651" width="4.22474" height="4.22431" transform="rotate(180 399.09 595.651)" fill="white"/>
<rect x="311.953" y="520.191" width="4.22474" height="4.22431" transform="rotate(180 311.953 520.191)" fill="white"/>
<rect x="1041.25" y="539.679" width="4.22474" height="4.22431" transform="rotate(180 1041.25 539.679)" fill="white"/>
<rect x="957.227" y="502.871" width="4.22474" height="4.22431" transform="rotate(180 957.227 502.871)" fill="white"/>
<rect x="936.867" y="103.977" width="4.22474" height="4.22431" transform="rotate(180 936.867 103.977)" fill="white"/>
<rect x="1200.73" y="228.136" width="4.22474" height="4.22431" transform="rotate(180 1200.73 228.136)" fill="white"/>
<rect x="1236.23" y="336.871" width="4.22474" height="4.22431" transform="rotate(180 1236.23 336.871)" fill="white"/>
<rect x="895.227" y="536.871" width="4.22474" height="4.22431" transform="rotate(180 895.227 536.871)" fill="white"/>
<rect x="983.156" y="363.314" width="4.22474" height="4.22431" transform="rotate(180 983.156 363.314)" fill="white"/>
<rect x="1068.71" y="42.2668" width="4.22474" height="4.22431" transform="rotate(180 1068.71 42.2668)" fill="white"/>
<rect x="277.625" y="163.716" width="4.22474" height="4.22431" transform="rotate(180 277.625 163.716)" fill="white"/>
<rect x="252.281" y="388.66" width="4.22474" height="4.22431" transform="rotate(180 252.281 388.66)" fill="white"/>
<rect x="1232.23" y="490.871" width="4.22474" height="4.22431" transform="rotate(180 1232.23 490.871)" fill="white"/>
<rect x="259.672" y="61.2761" width="6.3371" height="6.33647" transform="rotate(180 259.672 61.2761)" fill="white"/>
<rect x="455.074" y="58.1099" width="6.3371" height="6.33647" transform="rotate(180 455.074 58.1099)" fill="white"/>
<rect x="253.336" y="626.278" width="6.3371" height="6.33647" transform="rotate(180 253.336 626.278)" fill="white"/>
<rect x="1107.79" y="389.717" width="6.3371" height="6.33647" transform="rotate(180 1107.79 389.717)" fill="white"/>
<rect x="40.2734" y="239.334" width="6.3371" height="6.33647" transform="rotate(180 40.2734 239.334)" fill="white"/>
<rect x="77.0156" y="76.9683" width="4.22474" height="4.22431" transform="rotate(180 77.0156 76.9683)" fill="white"/>
<rect x="165.734" y="193.136" width="4.22474" height="4.22431" transform="rotate(180 165.734 193.136)" fill="white"/>
<rect x="72.793" y="354.717" width="6.3371" height="6.33647" transform="rotate(180 72.793 354.717)" fill="white"/>
<rect x="32.8555" y="582.892" width="4.22474" height="4.22431" transform="rotate(-90 32.8555 582.892)" fill="white"/>
<rect x="172.848" y="467.871" width="4.22474" height="4.22431" transform="rotate(-90 172.848 467.871)" fill="white"/>
<rect x="100.746" y="677.662" width="4.22474" height="4.22431" transform="rotate(-90 100.746 677.662)" fill="white"/>
<rect x="108.738" y="533.513" width="4.22474" height="4.22431" transform="rotate(-90 108.738 533.513)" fill="white"/>
<rect x="1346.42" y="300.236" width="6.3371" height="6.33647" transform="rotate(180 1346.42 300.236)" fill="white"/>
<rect x="1383.16" y="137.871" width="4.22474" height="4.22431" transform="rotate(180 1383.16 137.871)" fill="white"/>
<rect x="1349.34" y="435.983" width="6.3371" height="6.33647" transform="rotate(180 1349.34 435.983)" fill="white"/>
<rect x="1292" y="624.871" width="4.22474" height="4.22431" transform="rotate(-90 1292 624.871)" fill="white"/>
<rect x="1414.88" y="594.416" width="4.22474" height="4.22431" transform="rotate(-90 1414.88 594.416)" fill="white"/>
<rect x="791.992" y="504.828" width="6.3371" height="6.33647" transform="rotate(180 791.992 504.828)" fill="white"/>
<rect x="337.828" y="369.65" width="6.3371" height="6.33647" transform="rotate(180 337.828 369.65)" fill="white"/>
<rect x="448.73" y="426.718" width="6.3371" height="6.33647" transform="rotate(180 448.73 426.718)" fill="white"/>
<path d="M760.732 81.6357H752.094V156.371H761.107V124.074H769.745V165.385H779.134V373.556H787.02V139.847H795.658V129.707H803.169V121.82H811.432V108.3H803.169V116.562H776.505V108.3H771.623H768.618V106.047V89.5224H760.732V81.6357Z" fill="#A80000"/>
<path d="M676.979 81.6357H685.617V156.371H676.604V124.074H667.966V165.385H658.577V371.758H650.691V139.847H642.053V129.707H634.542V121.82H626.279V108.3H634.542V116.562H661.206V108.3H666.088H669.093V106.047V89.5224H676.979V81.6357Z" fill="#A80000"/>
<path d="M710.027 65.1108H702.141V72.2464H710.027V65.1108Z" stroke="black" stroke-width="0.471754"/>
<path d="M735.566 65.1108H727.68V72.2464H735.566V65.1108Z" stroke="black" stroke-width="0.471754"/>
<path d="M795.278 81.6357H776.5V89.1469H795.278V81.6357Z" fill="#A80000"/>
<path d="M661.579 81.6357H642.801V89.1469H661.579V81.6357Z" fill="#A80000"/>
<path d="M701.766 175.524H693.879V182.66H701.766V175.524Z" stroke="black" stroke-width="0.471754"/>
<path d="M744.957 175.524H737.07V182.66H744.957V175.524Z" stroke="black" stroke-width="0.471754"/>
<path d="M626.66 55.3469H634.171V81.6358H626.66V105.671H618.773V65.8625H626.66V55.3469Z" fill="white"/>
<path d="M634.539 46.3335H643.177V54.9713H634.539V46.3335Z" fill="white"/>
<path d="M811.797 54.9709H804.286V81.2598H811.797V105.295H819.684V65.4865H811.797V54.9709Z" fill="white"/>
<path d="M803.918 45.9575H795.28V54.5953H803.918V45.9575Z" fill="white"/>
<path d="M752.09 4.64648H686.367H685.616V11.4065H669.467V20.7954H652.192V29.4332H643.93V45.5821H660.83V39.1976H685.616V156.371H676.603V124.073H667.965V174.022H677.354V183.411H685.616V215.709H693.879V249.509H702.516V207.071H693.879V190.922H702.516V199.184H709.652V249.509H728.054V199.184H736.692V190.922H744.579V207.071H736.692V249.509H744.579V215.709H752.09V183.411H761.103V174.022H769.741V124.073H761.103V156.371H752.09V39.1976H778.754V45.5821H795.279V29.4332H786.641V20.7954H769.741V11.4065H752.09V4.64648Z" fill="white"/>
<path d="M574.375 402.68V392.667H585.441V386.344H597.034V380.811H608.364V375.805H619.43V369.744H630.76V363.948H641.826V358.151H653.156V353.409H664.486V348.402H675.288V340.762H681.612V334.965H697.948V329.695H706.643V322.845H715.074V316.521H725.877V322.845H731.937V329.695H742.74V334.965H753.542V340.762H769.088V348.402H778.046V353.409H787.268V358.151H799.125V363.948H813.88V369.744H823.628V375.805H832.85V380.811H843.916V386.344H856.037V391.613H866.576V402.943H856.037V409.003H843.916V414.536H832.85V419.806H823.628V425.866H813.88V431.399H799.125V436.932H787.795V442.465H776.465V447.998H765.663V453.532H753.542V458.801H742.74V464.861H731.937V470.394H725.877V475.664H715.074V470.394H709.014V464.861H697.948V458.801H686.618V453.532H675.288V447.998H664.486V442.465H653.156V436.932H641.826V431.399H630.76V425.866H619.43V420.069H608.364V414.536H597.034V408.74H585.441V402.68H574.375Z" fill="#2D8647"/>
<path fill-rule="evenodd" clip-rule="evenodd" d="M866.582 594.493V548.121H854.664V513.341H866.582V462.641H847.075V453.794H866.582V397.082H855.747V403.142H843.287V408.675H831.91V413.945H822.43V420.005H812.408V425.538H797.239V431.071H785.591V436.604H773.944V442.138H762.838V447.671H750.378V452.94H739.272V459H728.167V464.13H721.937V469.803H718.145V470.067L721.044 569.051V585.535H732.224V594.493H756.603V604.505H721.044V634.049L718.145 699.168H840.035V675.646H866.582V604.506H821.618V594.493H866.582Z" fill="#26733D"/>
<path fill-rule="evenodd" clip-rule="evenodd" d="M574.371 421.786V396.514H585.623V402.574H597.411V408.371H608.931V413.904H620.183V419.701H631.703V425.234H642.955V430.767H654.475V436.3H665.995V441.833H676.979V447.366H688.499V452.636H700.019V458.696H711.271V464.229H717.433V469.498H721.938V579.875H679.661V589.887H721.938V705H574.371V689.752H589.637V639.691H574.371V573.551H622.86V563.539H574.371V430.632H597.633V421.786H574.371Z" fill="#206234"/>
<rect x="880.523" y="419.785" width="44.9769" height="11.5643" fill="white"/>
<rect x="858.594" y="429.257" width="45.074" height="13.7182" fill="white"/>
<rect x="550.414" y="658.573" width="44.9769" height="11.5643" fill="white"/>
<rect x="528.57" y="670.137" width="44.9769" height="11.5643" fill="white"/>
<rect x="609.703" y="506.993" width="58.7922" height="16.3312" transform="rotate(-180 609.703 506.993)" fill="white"/>
<rect x="566.258" y="496.765" width="59.1125" height="15.4191" transform="rotate(-180 566.258 496.765)" fill="white"/>
<rect width="48.9935" height="15.6779" transform="matrix(1 0 0 -1 707.027 534.429)" fill="white"/>
<rect width="48.4806" height="15.4191" transform="matrix(1 0 0 -1 743.066 524.354)" fill="white"/>
<rect x="840.191" y="662.236" width="65.0925" height="13.6227" fill="white"/>
<path d="M868.953 672.859H934.046V689.482H868.953V672.859Z" fill="white"/>
<rect x="562.812" y="353.323" width="65.0925" height="13.6227" fill="white"/>
<rect x="591.648" y="364.416" width="65.3247" height="16.3312" fill="white"/>
<path d="M708.194 329.586H706.145V325.174H716.629H732.996V329.586H729.217V346.714H725.065V329.586H712.217V346.714H708.194V329.586Z" fill="black" stroke="black" stroke-width="0.489757"/>
<path d="M703.883 295.948V291.419H735.586V295.815L703.883 295.948Z" fill="#26733D" stroke="#26733D" stroke-width="0.489757"/>
<path d="M706.145 304.036V295.948H732.995V304.036H706.145Z" fill="#206234" stroke="#206234" stroke-width="0.489757"/>
<path d="M703.883 295.948V291.419H735.586V295.948H703.883Z" fill="#26733D" stroke="#26733D" stroke-width="0.489757"/>
<path d="M706.145 325.064V304.036H732.995V325.064H706.145Z" fill="#26733D" stroke="#26733D" stroke-width="0.489757"/>
<path d="M738.365 261.98H700.86V270.934H693.203V274.827H746.281V270.934H738.365V261.98Z" fill="#26733D" stroke="#26733D" stroke-width="0.489757"/>
<path d="M702.801 274.956H736.542V291.436H702.801V274.956Z" fill="black"/>
<rect x="703.062" y="266.003" width="2.07639" height="2.33571" fill="#FF9315"/>
<rect x="734.73" y="263.148" width="2.07639" height="2.33571" fill="#FF9315"/>
<rect x="705.145" y="268.339" width="4.93143" height="2.33571" fill="#FF9315"/>
<path d="M708.086 346.738H712.368V354.653H708.086V346.738Z" fill="#26733D"/>
<path d="M724.91 346.738H729.323V354.653H724.91V346.738Z" fill="#26733D"/>
<path d="M703.173 304.062H700.996V329.844H707.459V326.552H705.35V324.29V310.919H703.173V306.53V304.062Z" fill="#122132" stroke="#122132" stroke-width="1.05387"/>
<path d="M696.52 304.062V335.344H698.651V332.937H700.92V304.062H696.52Z" fill="#182738" stroke="#182738" stroke-width="1.05387"/>
<rect x="698.656" y="308.256" width="0.962515" height="3.57542" transform="rotate(-90 698.656 308.256)" fill="#FF9315"/>
<rect x="694.254" y="308.531" width="2.20004" height="2.20026" transform="rotate(-90 694.254 308.531)" fill="#FF9315"/>
<rect x="698.656" y="310.456" width="0.962515" height="3.57542" transform="rotate(-90 698.656 310.456)" fill="#FF9315"/>
<rect x="698.656" y="312.637" width="0.962515" height="3.57542" transform="rotate(-90 698.656 312.637)" fill="#FF9315"/>
<rect x="481.191" y="590.456" width="14.0178" height="14.0178" fill="white"/>
<path d="M495.145 576.64H512.194V590.321H495.145V576.64Z" fill="white"/>
<path d="M462.293 576.438H481.194V590.456H462.293V576.438Z" fill="white"/>
<rect x="453.156" y="634.666" width="75.4806" height="14.0178" transform="rotate(-90 453.156 634.666)" fill="white"/>
<rect x="510.309" y="634.666" width="75.4806" height="14.0178" transform="rotate(-90 510.309 634.666)" fill="white"/>
<rect x="546.016" y="634.666" width="75.4806" height="14.1526" transform="rotate(-90 546.016 634.666)" fill="white"/>
<rect x="609.906" y="590.456" width="14.0178" height="14.0178" fill="white"/>
<path d="M623.93 604.474H641.956V618.491H623.93V604.474Z" fill="white"/>
<path d="M592.961 576.438H609.909V590.456H592.961V576.438Z" fill="white"/>
<rect x="581.871" y="634.666" width="75.4806" height="14.0178" transform="rotate(-90 581.871 634.666)" fill="white"/>
<rect x="639.023" y="634.666" width="75.4806" height="14.0178" transform="rotate(-90 639.023 634.666)" fill="white"/>
<rect x="719.078" y="620.513" width="47.1754" height="14.1526" transform="rotate(-90 719.078 620.513)" fill="white"/>
<path d="M684.008 620.513H719.083V634.666H684.008V620.513Z" fill="white"/>
<path d="M684.008 559.185H719.083V573.338H684.008V559.185Z" fill="white"/>
<rect x="674.734" y="634.666" width="75.4806" height="14.1526" transform="rotate(-90 674.734 634.666)" fill="white"/>
<rect x="799.273" y="587.491" width="14.1526" height="14.1526" transform="rotate(-90 799.273 587.491)" fill="white"/>
<rect x="799.273" y="634.666" width="14.1526" height="14.1526" transform="rotate(-90 799.273 634.666)" fill="white"/>
<path d="M785.117 620.514V596.76H799.27V620.514H785.117Z" fill="white"/>
<path d="M764.203 559.186H799.279V573.338H764.203V559.186Z" fill="white"/>
<path d="M764.203 587.491H799.279V601.643H764.203V587.491Z" fill="white"/>
<rect x="754.93" y="634.666" width="75.4806" height="14.1526" transform="rotate(-90 754.93 634.666)" fill="white"/>
<rect x="879.484" y="633.723" width="30.1922" height="14.1526" transform="rotate(-180 879.484 633.723)" fill="white"/>
<rect x="893.641" y="559.186" width="60.3845" height="14.1526" transform="rotate(90 893.641 559.186)" fill="white"/>
<rect x="849.297" y="559.186" width="60.3845" height="14.1526" transform="rotate(90 849.297 559.186)" fill="white"/>
<rect x="943.367" y="590.456" width="14.0178" height="14.0178" fill="white"/>
<path d="M957.391 604.474H975.417V618.491H957.391V604.474Z" fill="white"/>
<path d="M925.445 576.438H943.37V590.456H925.445V576.438Z" fill="white"/>
<rect x="915.332" y="634.666" width="75.4806" height="14.0178" transform="rotate(-90 915.332 634.666)" fill="white"/>
<rect x="972.484" y="634.666" width="75.4806" height="14.0178" transform="rotate(-90 972.484 634.666)" fill="white"/>
</svg>
