<svg width="1440" height="717" viewBox="0 0 1440 717" fill="none" xmlns="http://www.w3.org/2000/svg">
<rect width="1440" height="717" fill="#111111"/>
<g clip-path="url(#clip0_369_5424)">
<rect width="287.795" height="212.353" transform="translate(865.316 252.323)" fill="#191919"/>
<path fill-rule="evenodd" clip-rule="evenodd" d="M1035.61 285.878H1019.76V278.831H1013.59V260.336H1020.63V252.409H1013.59V245.364H1047.06V253.29H1055.87V285.878H1047.06V276.189H1035.61V285.878Z" fill="#206234"/>
<path fill-rule="evenodd" clip-rule="evenodd" d="M981.66 450.156H991.483V454.521H995.303V465.98H990.937V470.89H995.303V475.256H974.567V470.345H969.109V450.156H974.566V456.158H981.66V450.156Z" fill="#206234"/>
<path d="M779.461 501.318L778.154 495.047L791.418 466.534L792.936 473.816L804.465 471.413L805.73 477.481L812.607 476.047L813.703 481.307L820.176 479.957L821.61 486.835L827.88 485.528L828.808 489.978L833.46 489.008L834.05 491.84L841.13 490.365L842.352 496.231L855.702 493.448L857.051 499.921L875.458 496.085L874.109 489.612L881.189 488.136L878.448 474.989L871.369 476.464L869.935 469.587L844.854 474.814L843.757 469.555L832.026 472L830.761 465.932L824.086 467.323L822.568 460.041L816.298 461.348L812.546 443.346L818.816 442.039L817.383 435.162L824.058 433.771L823.046 428.916L830.733 427.314L831.744 432.169L835.79 431.325L838.699 445.282L852.251 442.458L853.558 448.728L865.087 446.325L862.305 432.975L843.898 436.812L842.465 429.934L840.847 430.272L839.835 425.417L834.778 426.471L833.26 419.189L826.788 420.538L821.644 395.861L828.117 394.512L825.377 381.364L838.929 378.539L837.707 372.674L856.114 368.837L856.746 371.871L868.073 369.51L870.097 379.22L883.447 376.437L879.147 355.805L873.888 356.901L872.834 351.845L853.415 355.892L852.151 349.824L845.273 351.257L842.828 339.525L855.167 336.953L856.263 342.213L875.479 338.208L876.828 344.68L888.762 342.193L890.027 348.261L896.702 346.87L899.4 359.816L905.873 358.466L909.54 376.064L903.068 377.413L904.501 384.291L892.162 386.862L893.554 393.537L862.606 399.987L861.215 393.312L854.337 394.746L852.904 387.868L846.633 389.175L849.458 402.728L855.728 401.421L857.12 408.096L869.458 405.524L870.681 411.39L877.356 409.999L880.054 422.944L886.527 421.595L893.061 452.948L899.736 451.556L901.001 457.625L907.878 456.191L913.148 481.475L906.271 482.909L908.631 494.236L901.956 495.627L903.474 502.909L897.001 504.258L898.308 510.529L886.374 513.016L887.428 518.073L855.266 524.776L854.212 519.719L840.458 522.586L839.868 519.754L833.395 521.103L832.383 516.248L821.46 518.525L820.238 512.659L808.708 515.062L807.697 510.207L800.819 511.641L799.47 505.168L793.2 506.475L791.598 498.788L779.461 501.318Z" fill="black" stroke="black" stroke-width="0.440414"/>
</g>
<g clip-path="url(#clip1_369_5424)">
<rect width="272.427" height="212.353" transform="translate(578.914 252.323)" fill="#191919"/>
<path fill-rule="evenodd" clip-rule="evenodd" d="M616.711 151.555L598.189 151.555L598.189 160.103L592.489 160.103L592.49 170.076L603.888 170.076L603.888 164.377L609.586 164.377L609.586 177.199L603.888 177.199L603.889 188.596L598.191 188.596L598.191 195.72L592.491 195.72L592.491 202.843L585.364 202.843L585.365 208.541L579.667 208.541L579.667 214.24L573.967 214.24L573.968 219.939L566.843 219.939L566.843 227.062L561.145 227.062L561.145 238.46L555.446 238.46L555.446 256.981L548.323 256.981L548.324 301.146L555.447 301.146L555.448 318.241L561.147 318.241L561.148 332.488L566.845 332.488L566.845 336.762L573.97 336.762L573.971 343.885L585.368 343.885L585.368 350.296L597.479 350.296L597.479 355.995L610.302 355.995L610.303 361.694L623.126 361.694L623.126 368.105L634.524 368.105L634.525 380.214L642.361 380.214L642.361 385.913L648.061 385.913L648.061 392.324L652.335 392.324L652.335 399.447L659.459 399.447L659.459 405.146L665.871 405.146L665.871 410.845L672.995 410.845L672.995 417.256L684.394 417.256L684.394 423.667L696.505 423.667L696.505 429.366L702.917 429.366L702.917 448.599L696.506 448.599L696.506 461.421L690.094 461.421L690.094 473.53L683.683 473.53L683.684 509.859L690.095 509.859L690.096 535.503L683.684 535.503L683.686 589.641L690.097 589.641L690.097 596.052L696.509 596.052L696.509 603.175L701.496 603.175L701.496 608.874L715.032 608.874L715.032 615.285L727.143 615.285L727.143 603.175L714.319 603.175L714.319 596.052L708.62 596.052L708.62 591.778L701.496 591.778L701.495 578.244L708.619 578.244L708.619 571.833L732.841 571.833L732.841 566.134L739.253 566.134L739.252 559.723L746.376 559.723L746.377 565.422L764.187 565.422L764.187 571.833L777.01 571.833L777.01 578.244L782.71 578.244L782.71 584.655L789.121 584.655L789.122 596.052L795.533 596.052L795.534 622.408L789.122 622.408L789.123 640.217L782.711 640.217L782.711 645.203L770.6 645.203L770.6 652.326L757.065 652.326L757.065 658.737L746.379 658.737L746.379 665.148L739.967 665.148L739.967 672.272L733.556 672.272L733.556 696.491L739.968 696.491L739.968 700.765L757.066 700.765L757.066 689.368L751.366 689.368L751.366 682.957L757.065 682.957L757.065 676.546L764.189 676.546L764.189 672.272L790.548 672.272L790.548 664.436L801.234 664.436L801.234 657.313L806.933 657.313L806.933 652.326L813.345 652.326L813.344 640.217L819.756 640.217L819.756 627.395L826.167 627.395L826.167 608.874L832.579 608.874L832.578 572.545L826.166 572.545L826.166 553.312L819.754 553.312L819.754 542.627L813.342 542.627L813.342 522.681L819.753 522.681L819.752 474.243L813.341 474.243L813.34 461.421L806.929 461.421L806.928 449.311L800.517 449.311L800.516 442.9L794.817 442.9L794.817 437.201L788.405 437.201L788.405 430.79L781.994 430.79L781.993 417.256L788.405 417.256L788.405 405.146L794.816 405.146L794.816 398.735L800.515 398.735L800.515 392.324L806.927 392.324L806.927 388.05L813.338 388.05L813.338 380.927L819.75 380.927L819.75 367.392L824.737 367.392L824.736 349.584L831.86 349.584L831.859 300.433L825.447 300.433L825.447 287.611L832.571 287.611L832.571 281.2L838.27 281.2L838.27 275.501L844.682 275.501L844.681 251.282L838.269 251.282L838.269 244.871L832.57 244.871L832.57 237.747L826.158 237.747L826.158 232.761L813.335 232.761L813.335 220.651L820.459 220.651L820.458 214.24L826.87 214.24L826.87 195.72L813.334 195.72L813.334 207.829L806.923 207.829L806.923 214.24L801.224 214.24L801.224 220.651L796.237 220.651L796.237 244.871L801.937 244.871L801.937 251.282L801.224 251.282L794.813 251.282L794.813 245.583L788.401 245.583L788.401 237.747L781.989 237.747L781.989 232.761L770.591 232.761L770.59 226.35L751.355 226.35L751.355 220.651L702.199 220.651L702.2 226.35L683.677 226.35L683.677 231.336L672.279 231.336L672.279 237.747L665.155 237.747L665.155 244.158L659.456 244.158L659.456 251.994L653.757 251.994L653.757 257.693L647.345 257.693L647.345 263.391L640.934 263.391L640.934 269.802L634.522 269.802L634.522 282.624L628.823 282.624L628.823 289.748L623.124 289.748L623.124 294.022L603.177 294.022L603.177 289.748L596.765 289.748L596.765 282.624L591.066 282.624L591.065 269.802L585.367 269.802L585.367 244.158L591.066 244.158L591.066 227.063L596.764 227.063L596.763 221.364L603.89 221.364L603.89 214.241L609.59 214.241L609.59 207.117L616.712 207.117L616.712 195.72L622.41 195.72L622.41 184.322L629.536 184.322L629.536 164.377L622.409 164.377L622.409 157.254L616.711 157.254L616.711 151.555Z" fill="black"/>
<rect width="31.3458" height="4.8973" transform="matrix(1 1.0589e-09 2.34236e-05 1 759.195 327.324)" fill="#FAFF15"/>
<rect width="1.95911" height="4.8973" transform="matrix(1 0 2.34214e-05 1 773.891 327.323)" fill="black"/>
<rect width="3.91823" height="1.95892" transform="matrix(1 0 2.34214e-05 1 785.645 325.365)" fill="#FAFF15"/>
<rect width="1.95875" height="1.95856" transform="matrix(1 0 2.34214e-05 1 768.012 332.221)" fill="#FAFF15"/>
<rect width="45.5939" height="7.12335" transform="matrix(1 1.0589e-09 2.34236e-05 1 673.711 289.749)" fill="#FAFF15"/>
<rect width="45.5939" height="7.12335" transform="matrix(1 1.0589e-09 2.34236e-05 1 673.711 289.749)" fill="#FAFF15"/>
<rect width="2.84962" height="7.12335" transform="matrix(1 1.0589e-09 2.34236e-05 1 695.082 289.749)" fill="black"/>
<rect width="2.84962" height="2.84934" transform="matrix(1 1.0589e-09 2.34236e-05 1 673.707 286.899)" fill="#FAFF15"/>
<rect width="2.84962" height="2.84934" transform="matrix(1 1.0589e-09 2.34236e-05 1 713.602 295.447)" fill="#FAFF15"/>
<rect width="56.9924" height="8.90419" transform="matrix(1 1.0589e-09 2.34236e-05 1 677.977 358.844)" fill="#FAFF15"/>
<rect width="56.9924" height="8.90419" transform="matrix(1 1.0589e-09 2.34236e-05 1 677.977 358.844)" fill="#FAFF15"/>
<rect width="3.56202" height="8.90419" transform="matrix(1 1.0589e-09 2.34236e-05 1 704.691 358.844)" fill="black"/>
<rect width="3.56202" height="3.56168" transform="matrix(1 0 2.34214e-05 1 677.977 355.283)" fill="#FAFF15"/>
<rect width="3.56202" height="3.56168" transform="matrix(1 0 2.34214e-05 1 727.848 365.968)" fill="#FAFF15"/>
<path d="M711.194 532.332L710.779 525.94L690.385 502.002L690.867 509.425L679.114 510.187L679.515 516.373L672.505 516.827L672.852 522.188L666.254 522.616L666.709 529.626L660.317 530.041L660.611 534.577L655.869 534.884L656.056 537.771L648.84 538.239L649.227 544.218L635.619 545.101L636.047 551.699L617.284 552.915L616.856 546.318L609.64 546.785L608.77 533.383L615.987 532.915L615.532 525.905L641.1 524.247L640.752 518.886L652.711 518.111L652.31 511.925L659.114 511.484L658.633 504.061L665.024 503.647L663.834 485.296L657.443 485.711L656.988 478.7L650.184 479.141L649.863 474.193L642.028 474.701L642.349 479.65L638.225 479.917L639.148 494.144L625.333 495.04L625.748 501.431L613.995 502.194L613.112 488.585L631.875 487.369L631.421 480.358L633.07 480.251L632.749 475.303L637.904 474.968L637.423 467.546L644.021 467.118L642.39 441.963L635.792 442.391L634.923 428.989L621.108 429.885L620.72 423.905L601.957 425.122L602.158 428.215L590.611 428.963L591.253 438.86L577.645 439.743L576.281 418.712L581.642 418.364L581.308 413.209L601.102 411.926L600.701 405.74L607.711 405.286L606.935 393.327L594.358 394.142L594.706 399.503L575.118 400.774L575.546 407.371L563.381 408.16L563.782 414.346L556.978 414.787L557.833 427.983L551.235 428.411L552.399 446.349L558.997 445.921L559.451 452.932L572.029 452.116L572.47 458.92L604.016 456.875L603.575 450.07L610.585 449.616L610.131 442.606L616.523 442.191L617.418 456.006L611.027 456.42L611.468 463.224L598.891 464.04L599.278 470.019L592.474 470.46L593.33 483.656L586.732 484.084L588.804 516.043L582 516.484L582.401 522.67L575.391 523.125L577.062 548.898L584.072 548.443L584.821 559.99L591.625 559.549L592.107 566.971L598.705 566.543L599.119 572.935L611.284 572.146L611.618 577.301L644.402 575.175L644.068 570.021L658.088 569.111L657.901 566.225L664.499 565.797L664.178 560.848L675.312 560.126L674.925 554.147L686.677 553.385L686.357 548.436L693.367 547.982L692.939 541.384L699.331 540.969L698.823 533.134L711.194 532.332Z" fill="black" stroke="black" stroke-width="0.440414"/>
<path d="M785.875 501.318L784.569 495.047L797.832 466.534L799.35 473.816L810.879 471.413L812.144 477.481L819.021 476.047L820.118 481.307L826.59 479.957L828.024 486.835L834.294 485.528L835.222 489.978L839.874 489.008L840.464 491.84L847.544 490.365L848.766 496.231L862.116 493.448L863.465 499.921L881.872 496.085L880.523 489.612L887.603 488.136L884.862 474.989L877.783 476.464L876.35 469.587L851.268 474.814L850.172 469.555L838.44 472L837.175 465.932L830.5 467.323L828.982 460.041L822.712 461.348L818.96 443.346L825.23 442.039L823.797 435.162L830.472 433.771L829.46 428.916L837.147 427.314L838.158 432.169L842.204 431.325L845.113 445.282L858.665 442.458L859.972 448.728L871.501 446.325L868.719 432.975L850.312 436.812L848.879 429.934L847.261 430.272L846.249 425.417L841.192 426.471L839.674 419.189L833.202 420.538L828.058 395.861L834.531 394.512L831.791 381.364L845.343 378.539L844.121 372.674L862.528 368.837L863.16 371.871L874.487 369.51L876.511 379.22L889.861 376.437L885.561 355.805L880.302 356.901L879.248 351.845L859.83 355.892L858.565 349.824L851.687 351.257L849.242 339.525L861.581 336.953L862.677 342.213L881.893 338.208L883.242 344.68L895.176 342.193L896.441 348.261L903.116 346.87L905.814 359.816L912.287 358.466L915.955 376.064L909.482 377.413L910.915 384.291L898.576 386.862L899.968 393.537L869.02 399.987L867.629 393.312L860.751 394.746L859.318 387.868L853.047 389.175L855.872 402.728L862.143 401.421L863.534 408.096L875.872 405.524L877.095 411.39L883.77 409.999L886.468 422.944L892.941 421.595L899.475 452.948L906.15 451.556L907.415 457.625L914.292 456.191L919.562 481.475L912.685 482.909L915.045 494.236L908.37 495.627L909.888 502.909L903.415 504.258L904.722 510.529L892.788 513.016L893.842 518.073L861.68 524.776L860.627 519.719L846.872 522.586L846.282 519.754L839.809 521.103L838.797 516.248L827.874 518.525L826.652 512.659L815.122 515.062L814.111 510.207L807.233 511.641L805.884 505.168L799.614 506.475L798.012 498.788L785.875 501.318Z" fill="black" stroke="black" stroke-width="0.440414"/>
</g>
<g clip-path="url(#clip2_369_5424)">
<rect width="278.947" height="212.353" transform="translate(286 252.323)" fill="#191919"/>
<path fill-rule="evenodd" clip-rule="evenodd" d="M526.026 446.628H510.172V439.582H504.005V421.087H511.052V413.16H504.005V406.114H537.478V414.041H546.285V446.628H537.477V436.94H526.026V446.628Z" fill="#206234"/>
<path fill-rule="evenodd" clip-rule="evenodd" d="M623.039 151.555L604.517 151.555L604.517 160.103L598.817 160.103L598.818 170.076L610.216 170.076L610.216 164.377L615.914 164.377L615.914 177.199L610.216 177.199L610.217 188.596L604.519 188.596L604.519 195.72L598.819 195.72L598.82 202.843L591.693 202.843L591.693 208.541L585.995 208.541L585.995 214.24L580.296 214.24L580.296 219.939L573.171 219.939L573.171 227.062L567.473 227.062L567.474 238.46L561.774 238.46L561.774 256.981L554.651 256.981L554.652 301.146L561.775 301.146L561.776 318.241L567.475 318.241L567.476 332.488L573.173 332.488L573.174 336.762L580.298 336.762L580.299 343.885L591.696 343.885L591.696 350.296L603.807 350.296L603.807 355.995L616.631 355.995L616.631 361.694L629.454 361.694L629.454 368.105L640.853 368.105L640.853 380.214L648.689 380.214L648.689 385.913L654.389 385.913L654.389 392.324L658.663 392.324L658.663 399.447L665.787 399.447L665.788 405.146L672.199 405.146L672.199 410.845L679.323 410.845L679.324 417.256L690.722 417.256L690.722 423.667L702.833 423.667L702.833 429.366L709.245 429.366L709.245 448.599L702.834 448.599L702.834 461.421L696.422 461.421L696.423 473.53L690.011 473.53L690.012 509.859L696.423 509.859L696.424 535.503L690.012 535.503L690.014 589.641L696.425 589.641L696.425 596.052L702.837 596.052L702.837 603.175L707.824 603.175L707.824 608.874L721.36 608.874L721.36 615.285L733.471 615.285L733.471 603.175L720.647 603.175L720.647 596.052L714.948 596.052L714.948 591.778L707.824 591.778L707.824 578.244L714.948 578.244L714.947 571.833L739.169 571.833L739.169 566.134L745.581 566.134L745.581 559.723L752.705 559.723L752.705 565.422L770.515 565.422L770.515 571.833L783.338 571.833L783.338 578.244L789.038 578.244L789.038 584.655L795.449 584.655L795.45 596.052L801.861 596.052L801.862 622.408L795.45 622.408L795.451 640.217L789.039 640.217L789.039 645.203L776.928 645.203L776.929 652.326L763.393 652.326L763.393 658.737L752.707 658.737L752.707 665.148L746.295 665.148L746.296 672.272L739.884 672.272L739.885 696.491L746.296 696.491L746.296 700.765L763.394 700.765L763.394 689.368L757.694 689.368L757.694 682.957L763.394 682.957L763.393 676.546L770.517 676.546L770.517 672.272L796.876 672.272L796.876 664.436L807.562 664.436L807.562 657.313L813.261 657.313L813.261 652.326L819.673 652.326L819.673 640.217L826.084 640.217L826.084 627.395L832.496 627.395L832.495 608.874L838.907 608.874L838.906 572.545L832.494 572.545L832.494 553.312L826.082 553.312L826.082 542.627L819.67 542.627L819.67 522.681L826.081 522.681L826.08 474.243L819.669 474.243L819.668 461.421L813.257 461.421L813.256 449.311L806.845 449.311L806.845 442.9L801.145 442.9L801.145 437.201L794.734 437.201L794.733 430.79L788.322 430.79L788.322 417.256L794.733 417.256L794.733 405.146L801.145 405.146L801.144 398.735L806.844 398.735L806.843 392.324L813.255 392.324L813.255 388.05L819.667 388.05L819.666 380.927L826.078 380.927L826.078 367.392L831.065 367.392L831.064 349.584L838.188 349.584L838.187 300.433L831.775 300.433L831.775 287.611L838.899 287.611L838.899 281.2L844.598 281.2L844.598 275.501L851.01 275.501L851.009 251.282L844.598 251.282L844.597 244.871L838.898 244.871L838.898 237.747L832.486 237.747L832.486 232.761L819.663 232.761L819.663 220.651L826.787 220.651L826.787 214.24L833.198 214.24L833.198 195.72L819.662 195.72L819.662 207.829L813.251 207.829L813.251 214.24L807.552 214.24L807.552 220.651L802.565 220.651L802.566 244.871L808.265 244.871L808.265 251.282L807.553 251.282L801.141 251.282L801.141 245.583L794.729 245.583L794.729 237.747L788.317 237.747L788.317 232.761L776.919 232.761L776.919 226.35L757.684 226.35L757.683 220.651L708.528 220.651L708.528 226.35L690.005 226.35L690.005 231.336L678.607 231.336L678.607 237.747L671.483 237.747L671.483 244.158L665.784 244.158L665.784 251.994L660.085 251.994L660.085 257.693L653.673 257.693L653.673 263.391L647.262 263.391L647.262 269.802L640.85 269.802L640.851 282.624L635.151 282.624L635.151 289.748L629.452 289.748L629.452 294.022L609.505 294.022L609.505 289.748L603.093 289.748L603.093 282.624L597.394 282.624L597.394 269.802L591.695 269.802L591.695 244.158L597.394 244.158L597.394 227.063L603.092 227.063L603.092 221.364L610.218 221.364L610.218 214.241L615.918 214.241L615.918 207.117L623.04 207.117L623.04 195.72L628.738 195.72L628.738 184.322L635.864 184.322L635.864 164.377L628.737 164.377L628.737 157.254L623.04 157.254L623.039 151.555Z" fill="black"/>
<path d="M717.526 532.332L717.111 525.94L696.717 502.002L697.199 509.425L685.446 510.187L685.847 516.373L678.837 516.827L679.184 522.188L672.586 522.616L673.041 529.626L666.649 530.041L666.943 534.577L662.201 534.884L662.388 537.771L655.172 538.239L655.559 544.218L641.951 545.101L642.379 551.699L623.616 552.915L623.188 546.318L615.972 546.785L615.103 533.383L622.319 532.915L621.864 525.905L647.432 524.247L647.084 518.886L659.043 518.111L658.642 511.925L665.446 511.484L664.965 504.061L671.356 503.647L670.166 485.296L663.775 485.711L663.32 478.7L656.516 479.141L656.195 474.193L648.36 474.701L648.681 479.65L644.557 479.917L645.48 494.144L631.665 495.04L632.08 501.431L620.327 502.194L619.444 488.585L638.207 487.369L637.753 480.358L639.402 480.251L639.081 475.303L644.236 474.968L643.755 467.546L650.353 467.118L648.722 441.963L642.124 442.391L641.255 428.989L627.44 429.885L627.052 423.905L608.289 425.122L608.49 428.215L596.943 428.963L597.585 438.86L583.977 439.743L582.613 418.712L587.974 418.364L587.64 413.209L607.434 411.926L607.033 405.74L614.043 405.286L613.267 393.327L600.69 394.142L601.038 399.503L581.45 400.774L581.878 407.371L569.713 408.16L570.114 414.346L563.31 414.787L564.165 427.983L557.567 428.411L558.731 446.349L565.329 445.921L565.783 452.932L578.361 452.116L578.802 458.92L610.348 456.875L609.907 450.07L616.918 449.616L616.463 442.606L622.855 442.191L623.751 456.006L617.359 456.42L617.8 463.224L605.223 464.04L605.61 470.019L598.806 470.46L599.662 483.656L593.064 484.084L595.136 516.043L588.332 516.484L588.733 522.67L581.723 523.125L583.394 548.898L590.404 548.443L591.153 559.99L597.957 559.549L598.439 566.971L605.037 566.543L605.451 572.935L617.616 572.146L617.95 577.301L650.734 575.175L650.4 570.021L664.421 569.111L664.233 566.225L670.831 565.797L670.51 560.848L681.645 560.126L681.257 554.147L693.009 553.385L692.689 548.436L699.699 547.982L699.271 541.384L705.663 540.969L705.155 533.134L717.526 532.332Z" fill="black" stroke="black" stroke-width="0.440414"/>
</g>
<g clip-path="url(#clip3_369_5424)">
<rect width="287.795" height="212.353" transform="translate(865.316 478.647)" fill="#191919"/>
<path fill-rule="evenodd" clip-rule="evenodd" d="M1105.64 613.41V740.95H1118.22V716.299H1126.61V740.95H1164.37V684.147H1150.73V654.138H1164.37V613.41H1147.59V638.582H1130.81V613.41H1105.64Z" fill="#206234"/>
<path d="M779.461 495.893L778.154 489.622L791.418 461.109L792.936 468.39L804.465 465.988L805.73 472.056L812.607 470.622L813.703 475.881L820.176 474.532L821.61 481.41L827.88 480.103L828.808 484.553L833.46 483.583L834.05 486.415L841.13 484.94L842.352 490.805L855.702 488.023L857.051 494.496L875.458 490.66L874.109 484.187L881.189 482.711L878.448 469.564L871.369 471.039L869.935 464.162L844.854 469.389L843.757 464.13L832.026 466.575L830.761 460.507L824.086 461.898L822.568 454.616L816.298 455.923L812.546 437.921L818.816 436.614L817.383 429.737L824.058 428.346L823.046 423.491L830.733 421.889L831.744 426.744L835.79 425.9L838.699 439.857L852.251 437.033L853.558 443.303L865.087 440.9L862.305 427.55L843.898 431.387L842.465 424.509L840.847 424.847L839.835 419.992L834.778 421.046L833.26 413.764L826.788 415.113L821.644 390.436L828.117 389.087L825.377 375.939L838.929 373.114L837.707 367.248L856.114 363.412L856.746 366.446L868.073 364.085L870.097 373.795L883.447 371.012L879.147 350.38L873.888 351.476L872.834 346.42L853.415 350.467L852.151 344.398L845.273 345.832L842.828 334.1L855.167 331.528L856.263 336.787L875.479 332.783L876.828 339.255L888.762 336.768L890.027 342.836L896.702 341.445L899.4 354.39L905.873 353.041L909.54 370.639L903.068 371.988L904.501 378.866L892.162 381.437L893.554 388.112L862.606 394.562L861.215 387.887L854.337 389.321L852.904 382.443L846.633 383.75L849.458 397.302L855.728 395.996L857.12 402.671L869.458 400.099L870.681 405.965L877.356 404.574L880.054 417.519L886.527 416.17L893.061 447.523L899.736 446.131L901.001 452.2L907.878 450.766L913.148 476.05L906.271 477.484L908.631 488.811L901.956 490.202L903.474 497.484L897.001 498.833L898.308 505.104L886.374 507.591L887.428 512.648L855.266 519.351L854.212 514.294L840.458 517.161L839.868 514.329L833.395 515.678L832.383 510.823L821.46 513.1L820.238 507.234L808.708 509.637L807.697 504.782L800.819 506.216L799.47 499.743L793.2 501.05L791.598 493.363L779.461 495.893Z" fill="black" stroke="black" stroke-width="0.440414"/>
</g>
<g clip-path="url(#clip4_369_5424)">
<rect width="272.427" height="212.353" transform="translate(578.914 478.647)" fill="#191919"/>
<path fill-rule="evenodd" clip-rule="evenodd" d="M616.711 145.63L598.189 145.63L598.189 154.178L592.489 154.178L592.49 164.15L603.888 164.15L603.888 158.452L609.586 158.452L609.586 171.274L603.888 171.274L603.889 182.671L598.191 182.671L598.191 189.795L592.491 189.795L592.491 196.918L585.364 196.918L585.365 202.616L579.667 202.616L579.667 208.315L573.967 208.315L573.968 214.014L566.843 214.014L566.843 221.137L561.145 221.137L561.145 232.534L555.446 232.534L555.446 251.055L548.323 251.055L548.324 295.22L555.447 295.22L555.448 312.316L561.147 312.316L561.148 326.562L566.845 326.562L566.845 330.836L573.97 330.837L573.971 337.96L585.368 337.96L585.368 344.371L597.479 344.371L597.479 350.07L610.302 350.07L610.303 355.768L623.126 355.768L623.126 362.179L634.524 362.179L634.525 374.289L642.361 374.289L642.361 379.988L648.061 379.988L648.061 386.399L652.335 386.399L652.335 393.522L659.459 393.522L659.459 399.221L665.871 399.221L665.871 404.919L672.995 404.919L672.995 411.331L684.394 411.331L684.394 417.742L696.505 417.742L696.505 423.44L702.917 423.44L702.917 442.673L696.506 442.673L696.506 455.495L690.094 455.495L690.094 467.605L683.683 467.605L683.684 503.934L690.095 503.934L690.096 529.578L683.684 529.578L683.686 583.716L690.097 583.716L690.097 590.127L696.509 590.127L696.509 597.25L701.496 597.25L701.496 602.949L715.032 602.949L715.032 609.36L727.143 609.36L727.143 597.25L714.319 597.25L714.319 590.127L708.62 590.127L708.62 585.853L701.496 585.853L701.495 572.318L708.619 572.318L708.619 565.907L732.841 565.907L732.841 560.209L739.253 560.209L739.252 553.798L746.376 553.798L746.377 559.496L764.187 559.496L764.187 565.907L777.01 565.907L777.01 572.318L782.71 572.318L782.71 578.729L789.121 578.729L789.122 590.127L795.533 590.127L795.534 616.483L789.122 616.483L789.123 634.291L782.711 634.291L782.711 639.278L770.6 639.278L770.6 646.401L757.065 646.401L757.065 652.812L746.379 652.812L746.379 659.223L739.967 659.223L739.967 666.346L733.556 666.346L733.556 690.566L739.968 690.566L739.968 694.84L757.066 694.84L757.066 683.443L751.366 683.443L751.366 677.031L757.065 677.031L757.065 670.62L764.189 670.62L764.189 666.346L790.548 666.346L790.548 658.511L801.234 658.511L801.234 651.387L806.933 651.387L806.933 646.401L813.345 646.401L813.344 634.291L819.756 634.291L819.756 621.469L826.167 621.469L826.167 602.949L832.579 602.949L832.578 566.62L826.166 566.62L826.166 547.387L819.754 547.387L819.754 536.701L813.342 536.701L813.342 516.756L819.753 516.756L819.752 468.317L813.341 468.317L813.34 455.495L806.929 455.495L806.928 443.386L800.517 443.386L800.516 436.975L794.817 436.975L794.817 431.276L788.405 431.276L788.405 424.865L781.994 424.865L781.993 411.331L788.405 411.331L788.405 399.221L794.816 399.221L794.816 392.81L800.515 392.81L800.515 386.399L806.927 386.399L806.927 382.125L813.338 382.125L813.338 375.001L819.75 375.001L819.75 361.467L824.737 361.467L824.736 343.659L831.86 343.659L831.859 294.508L825.447 294.508L825.447 281.686L832.571 281.686L832.571 275.275L838.27 275.275L838.27 269.576L844.682 269.576L844.681 245.356L838.269 245.356L838.269 238.945L832.57 238.945L832.57 231.822L826.158 231.822L826.158 226.836L813.335 226.836L813.335 214.726L820.459 214.726L820.458 208.315L826.87 208.315L826.87 189.794L813.334 189.794L813.334 201.904L806.923 201.904L806.923 208.315L801.224 208.315L801.224 214.726L796.237 214.726L796.237 238.945L801.937 238.945L801.937 245.356L801.224 245.356L794.813 245.356L794.813 239.658L788.401 239.658L788.401 231.822L781.989 231.822L781.989 226.836L770.591 226.836L770.59 220.425L751.355 220.425L751.355 214.726L702.199 214.726L702.2 220.425L683.677 220.425L683.677 225.411L672.279 225.411L672.279 231.822L665.155 231.822L665.155 238.233L659.456 238.233L659.456 246.069L653.757 246.069L653.757 251.767L647.345 251.767L647.345 257.466L640.934 257.466L640.934 263.877L634.522 263.877L634.522 276.699L628.823 276.699L628.823 283.823L623.124 283.823L623.124 288.097L603.177 288.097L603.177 283.823L596.765 283.823L596.765 276.699L591.066 276.699L591.065 263.877L585.367 263.877L585.367 238.233L591.066 238.233L591.066 221.138L596.764 221.138L596.763 215.439L603.89 215.439L603.89 208.315L609.59 208.315L609.59 201.192L616.712 201.192L616.712 189.795L622.41 189.795L622.41 178.397L629.536 178.397L629.536 158.452L622.409 158.452L622.409 151.328L616.711 151.328L616.711 145.63Z" fill="black"/>
<rect width="31.3458" height="4.8973" transform="matrix(1 0 2.34214e-05 1 757.773 516.578)" fill="#FAFF15"/>
<rect width="1.95911" height="4.8973" transform="matrix(1 1.0589e-09 2.34236e-05 1 772.469 516.578)" fill="black"/>
<rect width="3.91823" height="1.95892" transform="matrix(1 0 2.34214e-05 1 784.219 514.619)" fill="#FAFF15"/>
<rect width="1.95875" height="1.95856" transform="matrix(1 0 2.34214e-05 1 766.59 521.474)" fill="#FAFF15"/>
<path d="M711.194 526.407L710.779 520.015L690.385 496.077L690.867 503.499L679.114 504.262L679.515 510.447L672.505 510.902L672.852 516.263L666.254 516.69L666.709 523.701L660.317 524.115L660.611 528.651L655.869 528.959L656.056 531.845L648.84 532.313L649.227 538.293L635.619 539.175L636.047 545.773L617.284 546.99L616.856 540.392L609.64 540.86L608.77 527.458L615.987 526.99L615.532 519.979L641.1 518.322L640.752 512.961L652.711 512.185L652.31 506L659.114 505.558L658.633 498.136L665.024 497.721L663.834 479.371L657.443 479.785L656.988 472.775L650.184 473.216L649.863 468.267L642.028 468.776L642.349 473.724L638.225 473.991L639.148 488.218L625.333 489.114L625.748 495.506L613.995 496.268L613.112 482.66L631.875 481.443L631.421 474.433L633.07 474.326L632.749 469.377L637.904 469.043L637.423 461.62L644.021 461.192L642.39 436.038L635.792 436.465L634.923 423.063L621.108 423.959L620.72 417.98L601.957 419.196L602.158 422.289L590.611 423.038L591.253 432.935L577.645 433.817L576.281 412.786L581.642 412.439L581.308 407.284L601.102 406L600.701 399.815L607.711 399.36L606.935 387.401L594.358 388.217L594.706 393.578L575.118 394.848L575.546 401.446L563.381 402.235L563.782 408.42L556.978 408.862L557.833 422.058L551.235 422.485L552.399 440.424L558.997 439.996L559.451 447.006L572.029 446.191L572.47 452.995L604.016 450.949L603.575 444.145L610.585 443.69L610.131 436.68L616.523 436.266L617.418 450.08L611.027 450.495L611.468 457.299L598.891 458.114L599.278 464.094L592.474 464.535L593.33 477.731L586.732 478.159L588.804 510.118L582 510.559L582.401 516.744L575.391 517.199L577.062 542.972L584.072 542.518L584.821 554.064L591.625 553.623L592.107 561.046L598.705 560.618L599.119 567.01L611.284 566.221L611.618 571.376L644.402 569.25L644.068 564.095L658.088 563.186L657.901 560.299L664.499 559.871L664.178 554.923L675.312 554.201L674.925 548.221L686.677 547.459L686.357 542.511L693.367 542.056L692.939 535.458L699.331 535.044L698.823 527.209L711.194 526.407Z" fill="black" stroke="black" stroke-width="0.440414"/>
<path d="M785.875 495.392L784.569 489.122L797.832 460.608L799.35 467.89L810.879 465.487L812.144 471.555L819.021 470.122L820.118 475.381L826.59 474.032L828.024 480.909L834.294 479.602L835.222 484.052L839.874 483.083L840.464 485.915L847.544 484.439L848.766 490.305L862.116 487.523L863.465 493.995L881.872 490.159L880.523 483.686L887.603 482.211L884.862 469.063L877.783 470.539L876.35 463.661L851.268 468.889L850.172 463.63L838.44 466.075L837.175 460.007L830.5 461.398L828.982 454.116L822.712 455.423L818.96 437.42L825.23 436.114L823.797 429.236L830.472 427.845L829.46 422.991L837.147 421.389L838.158 426.243L842.204 425.4L845.113 439.357L858.665 436.532L859.972 442.803L871.501 440.4L868.719 427.05L850.312 430.886L848.879 424.009L847.261 424.346L846.249 419.491L841.192 420.545L839.674 413.264L833.202 414.613L828.058 389.935L834.531 388.586L831.791 375.438L845.343 372.614L844.121 366.748L862.528 362.912L863.16 365.946L874.487 363.585L876.511 373.294L889.861 370.512L885.561 349.88L880.302 350.976L879.248 345.919L859.83 349.966L858.565 343.898L851.687 345.331L849.242 333.599L861.581 331.028L862.677 336.287L881.893 332.282L883.242 338.755L895.176 336.267L896.441 342.336L903.116 340.945L905.814 353.89L912.287 352.541L915.955 370.139L909.482 371.488L910.915 378.365L898.576 380.937L899.968 387.612L869.02 394.062L867.629 387.387L860.751 388.82L859.318 381.943L853.047 383.25L855.872 396.802L862.143 395.495L863.534 402.17L875.872 399.599L877.095 405.464L883.77 404.073L886.468 417.019L892.941 415.67L899.475 447.022L906.15 445.631L907.415 451.699L914.292 450.266L919.562 475.55L912.685 476.983L915.045 488.311L908.37 489.702L909.888 496.984L903.415 498.333L904.722 504.603L892.788 507.09L893.842 512.147L861.68 518.85L860.627 513.793L846.872 516.66L846.282 513.828L839.809 515.177L838.797 510.323L827.874 512.599L826.652 506.733L815.122 509.136L814.111 504.282L807.233 505.715L805.884 499.242L799.614 500.549L798.012 492.863L785.875 495.392Z" fill="black" stroke="black" stroke-width="0.440414"/>
</g>
<g clip-path="url(#clip5_369_5424)">
<rect width="278.947" height="212.353" transform="translate(286 478.647)" fill="#191919"/>
<path fill-rule="evenodd" clip-rule="evenodd" d="M238.875 715.494H439.523V695.695H400.743V682.496H439.523V623.099H350.16V644.548H302.949V623.099H238.875V649.498H278.478V675.896H238.875V715.494Z" fill="#206234"/>
<path fill-rule="evenodd" clip-rule="evenodd" d="M378.148 502.421H368.327V498.056H364.506V486.597H368.872V481.687H364.506V477.321H385.242V482.232H390.699V502.421H385.242V496.419H378.148V502.421Z" fill="#206234"/>
<path fill-rule="evenodd" clip-rule="evenodd" d="M623.039 146.13L604.517 146.13L604.517 154.678L598.817 154.678L598.818 164.651L610.216 164.651L610.216 158.952L615.914 158.952L615.914 171.774L610.216 171.774L610.217 183.171L604.519 183.171L604.519 190.295L598.819 190.295L598.82 197.418L591.693 197.418L591.693 203.116L585.995 203.116L585.995 208.815L580.296 208.815L580.296 214.514L573.171 214.514L573.171 221.637L567.473 221.637L567.474 233.035L561.774 233.035L561.774 251.556L554.651 251.556L554.652 295.72L561.775 295.72L561.776 312.816L567.475 312.816L567.476 327.062L573.173 327.062L573.174 331.337L580.298 331.337L580.299 338.46L591.696 338.46L591.696 344.871L603.807 344.871L603.807 350.57L616.631 350.57L616.631 356.269L629.454 356.269L629.454 362.68L640.853 362.68L640.853 374.789L648.689 374.789L648.689 380.488L654.389 380.488L654.389 386.899L658.663 386.899L658.663 394.022L665.787 394.022L665.788 399.721L672.199 399.721L672.199 405.42L679.323 405.42L679.324 411.831L690.722 411.831L690.722 418.242L702.833 418.242L702.833 423.94L709.245 423.94L709.245 443.173L702.834 443.173L702.834 455.996L696.422 455.996L696.423 468.105L690.011 468.105L690.012 504.434L696.423 504.434L696.424 530.078L690.012 530.078L690.014 584.216L696.425 584.216L696.425 590.627L702.837 590.627L702.837 597.75L707.824 597.75L707.824 603.449L721.36 603.449L721.36 609.86L733.471 609.86L733.471 597.75L720.647 597.75L720.647 590.627L714.948 590.627L714.948 586.353L707.824 586.353L707.824 572.818L714.948 572.818L714.947 566.407L739.169 566.407L739.169 560.709L745.581 560.709L745.581 554.298L752.705 554.298L752.705 559.996L770.515 559.996L770.515 566.407L783.338 566.407L783.338 572.818L789.038 572.818L789.038 579.229L795.449 579.229L795.45 590.627L801.861 590.627L801.862 616.983L795.45 616.983L795.451 634.792L789.039 634.792L789.039 639.778L776.928 639.778L776.929 646.901L763.393 646.901L763.393 653.312L752.707 653.312L752.707 659.723L746.295 659.723L746.296 666.847L739.884 666.847L739.885 691.066L746.296 691.066L746.296 695.34L763.394 695.34L763.394 683.943L757.694 683.943L757.694 677.532L763.394 677.532L763.393 671.121L770.517 671.121L770.517 666.847L796.876 666.847L796.876 659.011L807.562 659.011L807.562 651.888L813.261 651.888L813.261 646.901L819.673 646.901L819.673 634.792L826.084 634.792L826.084 621.97L832.496 621.97L832.495 603.449L838.907 603.449L838.906 567.12L832.494 567.12L832.494 547.887L826.082 547.887L826.082 537.202L819.67 537.202L819.67 517.256L826.081 517.256L826.08 468.818L819.669 468.818L819.668 455.996L813.257 455.996L813.256 443.886L806.845 443.886L806.845 437.475L801.145 437.475L801.145 431.776L794.734 431.776L794.733 425.365L788.322 425.365L788.322 411.831L794.733 411.831L794.733 399.721L801.145 399.721L801.144 393.31L806.844 393.31L806.843 386.899L813.255 386.899L813.255 382.625L819.667 382.625L819.666 375.502L826.078 375.502L826.078 361.967L831.065 361.967L831.064 344.159L838.188 344.159L838.187 295.008L831.775 295.008L831.775 282.186L838.899 282.186L838.899 275.775L844.598 275.775L844.598 270.076L851.01 270.076L851.009 245.857L844.598 245.857L844.597 239.446L838.898 239.446L838.898 232.322L832.486 232.322L832.486 227.336L819.663 227.336L819.663 215.226L826.787 215.226L826.787 208.815L833.198 208.815L833.198 190.295L819.662 190.295L819.662 202.404L813.251 202.404L813.251 208.815L807.552 208.815L807.552 215.226L802.565 215.226L802.566 239.446L808.265 239.446L808.265 245.857L807.553 245.857L801.141 245.857L801.141 240.158L794.729 240.158L794.729 232.322L788.317 232.322L788.317 227.336L776.919 227.336L776.919 220.925L757.684 220.925L757.683 215.226L708.528 215.226L708.528 220.925L690.005 220.925L690.005 225.911L678.607 225.911L678.607 232.322L671.483 232.322L671.483 238.733L665.784 238.733L665.784 246.569L660.085 246.569L660.085 252.268L653.673 252.268L653.673 257.966L647.262 257.966L647.262 264.377L640.85 264.377L640.851 277.199L635.151 277.199L635.151 284.323L629.452 284.323L629.452 288.597L609.505 288.597L609.505 284.323L603.093 284.323L603.093 277.199L597.394 277.199L597.394 264.377L591.695 264.377L591.695 238.733L597.394 238.733L597.394 221.638L603.092 221.638L603.092 215.939L610.218 215.939L610.218 208.816L615.918 208.816L615.918 201.692L623.04 201.692L623.04 190.295L628.738 190.295L628.738 178.897L635.864 178.897L635.864 158.952L628.737 158.952L628.737 151.829L623.04 151.829L623.039 146.13Z" fill="black"/>
<path d="M717.526 526.907L717.111 520.515L696.717 496.577L697.199 504L685.446 504.762L685.847 510.948L678.837 511.402L679.184 516.763L672.586 517.191L673.041 524.201L666.649 524.616L666.943 529.152L662.201 529.459L662.388 532.346L655.172 532.814L655.559 538.793L641.951 539.676L642.379 546.274L623.616 547.49L623.188 540.892L615.972 541.36L615.103 527.958L622.319 527.49L621.864 520.48L647.432 518.822L647.084 513.461L659.043 512.686L658.642 506.5L665.446 506.059L664.965 498.636L671.356 498.222L670.166 479.871L663.775 480.286L663.32 473.275L656.516 473.716L656.195 468.768L648.36 469.276L648.681 474.224L644.557 474.492L645.48 488.719L631.665 489.615L632.08 496.006L620.327 496.768L619.444 483.16L638.207 481.943L637.753 474.933L639.402 474.826L639.081 469.878L644.236 469.543L643.755 462.121L650.353 461.693L648.722 436.538L642.124 436.966L641.255 423.564L627.44 424.46L627.052 418.48L608.289 419.697L608.49 422.79L596.943 423.538L597.585 433.435L583.977 434.318L582.613 413.287L587.974 412.939L587.64 407.784L607.434 406.501L607.033 400.315L614.043 399.861L613.267 387.902L600.69 388.717L601.038 394.078L581.45 395.348L581.878 401.946L569.713 402.735L570.114 408.921L563.31 409.362L564.165 422.558L557.567 422.986L558.731 440.924L565.329 440.496L565.783 447.507L578.361 446.691L578.802 453.495L610.348 451.45L609.907 444.645L616.918 444.191L616.463 437.18L622.855 436.766L623.751 450.581L617.359 450.995L617.8 457.799L605.223 458.615L605.61 464.594L598.806 465.035L599.662 478.231L593.064 478.659L595.136 510.618L588.332 511.059L588.733 517.245L581.723 517.7L583.394 543.473L590.404 543.018L591.153 554.565L597.957 554.124L598.439 561.546L605.037 561.118L605.451 567.51L617.616 566.721L617.95 571.876L650.734 569.75L650.4 564.596L664.421 563.686L664.233 560.8L670.831 560.372L670.51 555.423L681.645 554.701L681.257 548.722L693.009 547.96L692.689 543.011L699.699 542.557L699.271 535.959L705.663 535.544L705.155 527.709L717.526 526.907Z" fill="black" stroke="black" stroke-width="0.440414"/>
</g>
<g clip-path="url(#clip6_369_5424)">
<rect width="287.795" height="212.353" transform="translate(865.316 26)" fill="#191919"/>
<path fill-rule="evenodd" clip-rule="evenodd" d="M1034.73 136.011H1235.38V116.212H1196.6V103.013H1235.38V43.6163H1146.02V65.0649H1098.8V43.6163H1034.73V70.0147H1074.33V96.4132H1034.73V136.011Z" fill="#206234"/>
<path fill-rule="evenodd" clip-rule="evenodd" d="M871.773 136.103H862.965V145.792H855.038V136.103H838.302V178.379H863.847V174.856H871.775V178.379H878.82V142.268H871.773V136.103Z" fill="#206234"/>
</g>
<g clip-path="url(#clip7_369_5424)">
<rect width="272.427" height="212.353" transform="translate(578.914 26)" fill="#191919"/>
<path fill-rule="evenodd" clip-rule="evenodd" d="M878.187 136.103H869.379V145.792H861.452V136.103H844.716V178.379H870.262V174.856H878.189V178.379H885.234V142.268H878.187V136.103Z" fill="#206234"/>
<path fill-rule="evenodd" clip-rule="evenodd" d="M616.711 153.279L598.189 153.279L598.189 161.827L592.489 161.827L592.49 171.8L603.888 171.8L603.888 166.101L609.586 166.101L609.586 178.923L603.888 178.923L603.889 190.321L598.191 190.321L598.191 197.444L592.491 197.444L592.491 204.568L585.364 204.568L585.365 210.266L579.667 210.266L579.667 215.964L573.967 215.964L573.968 221.663L566.843 221.663L566.843 228.786L561.145 228.786L561.145 240.184L555.446 240.184L555.446 258.705L548.323 258.705L548.324 302.87L555.447 302.87L555.448 319.965L561.147 319.965L561.148 334.212L566.845 334.212L566.845 338.486L573.97 338.486L573.971 345.609L585.368 345.609L585.368 352.02L597.479 352.02L597.479 357.719L610.302 357.719L610.303 363.418L623.126 363.418L623.126 369.829L634.524 369.829L634.525 381.939L642.361 381.939L642.361 387.637L648.061 387.637L648.061 394.048L652.335 394.048L652.335 401.172L659.459 401.172L659.459 406.87L665.871 406.87L665.871 412.569L672.995 412.569L672.995 418.98L684.394 418.98L684.394 425.391L696.505 425.391L696.505 431.09L702.917 431.09L702.917 450.323L696.506 450.323L696.506 463.145L690.094 463.145L690.094 475.254L683.683 475.254L683.684 511.583L690.095 511.583L690.096 537.228L683.684 537.228L683.686 591.365L690.097 591.365L690.097 597.776L696.509 597.776L696.509 604.899L701.496 604.899L701.496 610.598L715.032 610.598L715.032 617.009L727.143 617.009L727.143 604.899L714.319 604.899L714.319 597.776L708.62 597.776L708.62 593.502L701.496 593.502L701.495 579.968L708.619 579.968L708.619 573.557L732.841 573.557L732.841 567.858L739.253 567.858L739.252 561.447L746.376 561.447L746.377 567.146L764.187 567.146L764.187 573.557L777.01 573.557L777.01 579.968L782.71 579.968L782.71 586.379L789.121 586.379L789.122 597.776L795.533 597.776L795.534 624.132L789.122 624.132L789.123 641.941L782.711 641.941L782.711 646.927L770.6 646.927L770.6 654.051L757.065 654.051L757.065 660.462L746.379 660.462L746.379 666.873L739.967 666.873L739.967 673.996L733.556 673.996L733.556 698.215L739.968 698.215L739.968 702.489L757.066 702.489L757.066 691.092L751.366 691.092L751.366 684.681L757.065 684.681L757.065 678.27L764.189 678.27L764.189 673.996L790.548 673.996L790.548 666.16L801.234 666.16L801.234 659.037L806.933 659.037L806.933 654.051L813.345 654.051L813.344 641.941L819.756 641.941L819.756 629.119L826.167 629.119L826.167 610.598L832.579 610.598L832.578 574.269L826.166 574.269L826.166 555.036L819.754 555.036L819.754 544.351L813.342 544.351L813.342 524.406L819.753 524.406L819.752 475.967L813.341 475.967L813.34 463.145L806.929 463.145L806.928 451.035L800.517 451.035L800.516 444.624L794.817 444.624L794.817 438.925L788.405 438.925L788.405 432.514L781.994 432.514L781.993 418.98L788.405 418.98L788.405 406.87L794.816 406.87L794.816 400.459L800.515 400.459L800.515 394.048L806.927 394.048L806.927 389.774L813.338 389.774L813.338 382.651L819.75 382.651L819.75 369.116L824.737 369.116L824.736 351.308L831.86 351.308L831.859 302.157L825.447 302.157L825.447 289.335L832.571 289.335L832.571 282.924L838.27 282.924L838.27 277.225L844.682 277.225L844.681 253.006L838.269 253.006L838.269 246.595L832.57 246.595L832.57 239.472L826.158 239.472L826.158 234.485L813.335 234.485L813.335 222.375L820.459 222.375L820.458 215.964L826.87 215.964L826.87 197.444L813.334 197.444L813.334 209.553L806.923 209.553L806.923 215.964L801.224 215.964L801.224 222.375L796.237 222.375L796.237 246.595L801.937 246.595L801.937 253.006L801.224 253.006L794.813 253.006L794.813 247.307L788.401 247.307L788.401 239.472L781.989 239.472L781.989 234.485L770.591 234.485L770.59 228.074L751.355 228.074L751.355 222.375L702.199 222.375L702.2 228.074L683.677 228.074L683.677 233.06L672.279 233.06L672.279 239.472L665.155 239.472L665.155 245.883L659.456 245.883L659.456 253.718L653.757 253.718L653.757 259.417L647.345 259.417L647.345 265.116L640.934 265.116L640.934 271.527L634.522 271.527L634.522 284.349L628.823 284.349L628.823 291.472L623.124 291.472L623.124 295.746L603.177 295.746L603.177 291.472L596.765 291.472L596.765 284.349L591.066 284.349L591.065 271.527L585.367 271.527L585.367 245.882L591.066 245.882L591.066 228.787L596.764 228.787L596.763 223.089L603.89 223.089L603.89 215.965L609.59 215.965L609.59 208.841L616.712 208.841L616.712 197.444L622.41 197.444L622.41 186.046L629.536 186.046L629.536 166.101L622.409 166.101L622.409 158.978L616.711 158.978L616.711 153.279Z" fill="black"/>
</g>
<g clip-path="url(#clip8_369_5424)">
<rect width="278.947" height="212.353" transform="translate(286 26)" fill="#191919"/>
<path fill-rule="evenodd" clip-rule="evenodd" d="M263.98 1.77708L263.98 202.426H283.779V163.645H296.978V202.426L356.375 202.426V113.062H334.926V65.851L356.375 65.851L356.375 1.77708L329.976 1.77708L329.976 41.3792H303.578L303.578 1.77708H263.98Z" fill="#206234"/>
<path fill-rule="evenodd" clip-rule="evenodd" d="M498.904 202.606H492.482V209.67H486.702V202.606H474.5V233.43H493.123V230.862H498.903V233.43H504.043V207.101H498.904V202.606Z" fill="#206234"/>
<path fill-rule="evenodd" clip-rule="evenodd" d="M623.047 153.279L604.525 153.279L604.525 161.827L598.825 161.827L598.825 171.799L610.224 171.799L610.224 166.101L615.922 166.101L615.922 178.923L610.224 178.923L610.224 190.32L604.527 190.32L604.527 197.444L598.827 197.444L598.827 204.567L591.7 204.567L591.701 210.265L586.003 210.265L586.003 215.964L580.303 215.964L580.304 221.663L573.179 221.663L573.179 228.786L567.481 228.786L567.481 240.184L561.782 240.184L561.782 258.705L554.659 258.705L554.66 302.869L561.783 302.869L561.783 319.965L567.483 319.965L567.484 334.211L573.181 334.211L573.181 338.486L580.306 338.486L580.306 345.609L591.704 345.609L591.704 352.02L603.815 352.02L603.815 357.719L616.638 357.719L616.638 363.418L629.462 363.418L629.462 369.829L640.86 369.829L640.861 381.938L648.697 381.938L648.697 387.637L654.396 387.637L654.397 394.048L658.671 394.048L658.671 401.171L665.795 401.171L665.795 406.87L672.207 406.87L672.207 412.569L679.331 412.569L679.331 418.98L690.73 418.98L690.73 425.391L702.841 425.391L702.841 431.089L709.253 431.089L709.253 450.322L702.841 450.322L702.842 463.144L696.43 463.144L696.43 475.254L690.019 475.254L690.02 511.583L696.431 511.583L696.432 537.227L690.02 537.227L690.021 591.365L696.433 591.365L696.433 597.776L702.845 597.776L702.845 604.899L707.832 604.899L707.832 610.598L721.368 610.598L721.368 617.009L733.479 617.009L733.479 604.899L720.655 604.899L720.655 597.776L714.956 597.776L714.956 593.502L707.832 593.502L707.831 579.967L714.955 579.967L714.955 573.556L739.177 573.556L739.177 567.858L745.589 567.858L745.588 561.447L752.712 561.447L752.713 567.145L770.523 567.145L770.523 573.556L783.346 573.556L783.346 579.967L789.045 579.967L789.046 586.378L795.457 586.378L795.458 597.776L801.869 597.776L801.87 624.132L795.458 624.132L795.459 641.941L789.047 641.941L789.047 646.927L776.936 646.927L776.936 654.05L763.401 654.05L763.401 660.461L752.715 660.461L752.715 666.872L746.303 666.872L746.303 673.996L739.892 673.996L739.892 698.215L746.304 698.215L746.304 702.489L763.402 702.489L763.402 691.092L757.702 691.092L757.702 684.681L763.401 684.681L763.401 678.27L770.525 678.27L770.525 673.996L796.884 673.996L796.884 666.16L807.57 666.16L807.57 659.037L813.269 659.037L813.269 654.05L819.681 654.05L819.68 641.941L826.092 641.941L826.092 629.119L832.503 629.119L832.503 610.598L838.915 610.598L838.914 574.269L832.502 574.269L832.502 555.036L826.09 555.036L826.09 544.351L819.678 544.351L819.678 524.405L826.089 524.405L826.088 475.966L819.676 475.966L819.676 463.144L813.265 463.144L813.264 451.035L806.853 451.035L806.852 444.624L801.153 444.624L801.153 438.925L794.741 438.925L794.741 432.514L788.33 432.514L788.329 418.98L794.741 418.98L794.741 406.87L801.152 406.87L801.152 400.459L806.851 400.459L806.851 394.048L813.263 394.048L813.263 389.774L819.674 389.774L819.674 382.651L826.086 382.651L826.086 369.116L831.072 369.116L831.072 351.308L838.196 351.308L838.195 302.157L831.783 302.157L831.783 289.335L838.907 289.335L838.907 282.924L844.606 282.924L844.606 277.225L851.018 277.225L851.017 253.006L844.605 253.006L844.605 246.595L838.906 246.595L838.906 239.471L832.494 239.471L832.494 234.485L819.671 234.485L819.671 222.375L826.795 222.375L826.794 215.964L833.206 215.964L833.206 197.443L819.67 197.443L819.67 209.553L813.259 209.553L813.259 215.964L807.559 215.964L807.56 222.375L802.573 222.375L802.573 246.595L808.273 246.595L808.273 253.006L807.56 253.006L801.149 253.006L801.149 247.307L794.737 247.307L794.737 239.471L788.325 239.471L788.325 234.485L776.927 234.485L776.926 228.074L757.691 228.074L757.691 222.375L708.535 222.375L708.536 228.074L690.013 228.074L690.013 233.06L678.615 233.06L678.615 239.471L671.491 239.471L671.491 245.882L665.792 245.882L665.792 253.718L660.093 253.718L660.093 259.417L653.681 259.417L653.681 265.115L647.27 265.115L647.27 271.526L640.858 271.526L640.858 284.348L635.159 284.348L635.159 291.472L629.46 291.472L629.46 295.746L609.513 295.746L609.513 291.472L603.101 291.472L603.101 284.348L597.402 284.348L597.401 271.526L591.703 271.526L591.703 245.882L597.402 245.882L597.402 228.787L603.099 228.787L603.099 223.088L610.226 223.088L610.226 215.964L615.926 215.964L615.926 208.841L623.048 208.841L623.048 197.444L628.746 197.444L628.746 186.046L635.872 186.046L635.872 166.101L628.745 166.101L628.745 158.978L623.047 158.978L623.047 153.279Z" fill="black"/>
</g>
<defs>
<clipPath id="clip0_369_5424">
<rect width="287.795" height="212.353" fill="white" transform="translate(865.316 252.323)"/>
</clipPath>
<clipPath id="clip1_369_5424">
<rect width="272.427" height="212.353" fill="white" transform="translate(578.914 252.323)"/>
</clipPath>
<clipPath id="clip2_369_5424">
<rect width="278.947" height="212.353" fill="white" transform="translate(286 252.323)"/>
</clipPath>
<clipPath id="clip3_369_5424">
<rect width="287.795" height="212.353" fill="white" transform="translate(865.316 478.647)"/>
</clipPath>
<clipPath id="clip4_369_5424">
<rect width="272.427" height="212.353" fill="white" transform="translate(578.914 478.647)"/>
</clipPath>
<clipPath id="clip5_369_5424">
<rect width="278.947" height="212.353" fill="white" transform="translate(286 478.647)"/>
</clipPath>
<clipPath id="clip6_369_5424">
<rect width="287.795" height="212.353" fill="white" transform="translate(865.316 26)"/>
</clipPath>
<clipPath id="clip7_369_5424">
<rect width="272.427" height="212.353" fill="white" transform="translate(578.914 26)"/>
</clipPath>
<clipPath id="clip8_369_5424">
<rect width="278.947" height="212.353" fill="white" transform="translate(286 26)"/>
</clipPath>
</defs>
</svg>
