<svg width="1440" height="717" viewBox="0 0 1440 717" fill="none" xmlns="http://www.w3.org/2000/svg">
<g clip-path="url(#clip0_245_158)">
<rect width="1440" height="717" fill="#111111"/>
<rect x="872.508" y="349.76" width="6.80157" height="8.74399" fill="white"/>
<rect x="1365" y="82" width="6.80157" height="8.74399" fill="white"/>
<rect x="212.359" y="22.5698" width="7.74772" height="7.74694" fill="white"/>
<rect x="1372" y="429" width="7.74772" height="7.74694" fill="white"/>
<rect x="928" y="64" width="7.74772" height="7.74694" fill="white"/>
<rect x="920" y="229" width="7.74772" height="7.74694" fill="white"/>
<rect x="751" y="181" width="7.74772" height="7.74694" fill="white"/>
<rect x="736.625" y="56.1396" width="7.74772" height="7.74694" fill="white"/>
<rect x="479.656" y="174.926" width="7.74772" height="7.74694" fill="white"/>
<rect x="81" y="346" width="7.74772" height="7.74694" fill="white"/>
<rect x="1158" y="549" width="7.74772" height="7.74694" fill="white"/>
<rect x="582.785" y="546.78" width="7.74772" height="7.74694" fill="white"/>
<rect x="510.648" y="465.437" width="7.74772" height="7.74694" fill="white"/>
<rect x="870.91" y="602.299" width="7.74772" height="7.74694" fill="white"/>
<rect x="172.332" y="710.757" width="7.74772" height="7.74694" fill="white"/>
<rect x="846.383" y="131.027" width="5.16515" height="5.16463" fill="white"/>
<rect x="769" y="396" width="5.16515" height="5.16463" fill="white"/>
<rect x="755.992" y="668.148" width="5.16515" height="5.16463" fill="white"/>
<rect x="580" y="305" width="5.16515" height="5.16463" fill="white"/>
<rect x="270.465" y="617.793" width="5.16515" height="5.16463" fill="white"/>
<rect x="1142.09" y="26.4429" width="5.16515" height="5.16463" fill="white"/>
<rect x="356.984" y="94.875" width="5.16515" height="5.16463" fill="white"/>
<rect x="162" y="475.766" width="5.16515" height="5.16463" fill="white"/>
<rect x="99" y="581" width="5.16515" height="5.16463" fill="white"/>
<rect x="511" y="65" width="5.16515" height="5.16463" fill="white"/>
<rect x="428.004" y="310.498" width="5.16515" height="5.16463" fill="white"/>
<rect x="323.41" y="703.01" width="5.16515" height="5.16463" fill="white"/>
<rect x="1290.58" y="554.527" width="5.16515" height="5.16463" fill="white"/>
<rect x="1275" y="207" width="5.16515" height="5.16463" fill="white"/>
<rect x="167.164" y="205.915" width="5.16515" height="5.16463" fill="white"/>
<rect x="99" y="113" width="5.16515" height="5.16463" fill="white"/>
<rect x="1312.54" y="679.769" width="7.74772" height="7.74694" fill="white"/>
<rect x="654" y="371" width="7.74772" height="7.74694" fill="white"/>
<rect x="275.637" y="278.219" width="7.74772" height="7.74694" fill="white"/>
<rect x="614" y="171" width="7.74772" height="7.74694" fill="white"/>
<rect x="1202" y="371" width="7.74772" height="7.74694" fill="white"/>
<rect x="1264" y="211.473" width="41.781" height="8.74399" fill="white"/>
<path fill-rule="evenodd" clip-rule="evenodd" d="M1043.43 97.8003H1085.21V129.862H1100.75V97.8003H1153.22V140.549H1122.13V159.98H1153.22V208.557H1058V193.984H1043.43V97.8003Z" fill="#206234"/>
<rect x="1040.52" y="120.146" width="34.0078" height="8.74399" fill="white"/>
<path fill-rule="evenodd" clip-rule="evenodd" d="M1336.87 101.687H1279.06V113.345H1290.23V121.118H1279.06V156.094H1304.81V143.464H1318.41V156.094H1336.87V128.89H1325.21V125.004H1336.87V101.687Z" fill="#206234"/>
<path fill-rule="evenodd" clip-rule="evenodd" d="M1110.87 274.061H1194.04V265.854H1177.96V260.383H1194.04V235.761H1157V244.652H1137.43V235.761H1110.87V246.704H1127.28V257.647H1110.87V274.061Z" fill="#206234"/>
<path fill-rule="evenodd" clip-rule="evenodd" d="M1163.92 118.203H1188.21V131.805H1198.9V118.203H1269.83V129.862H1252.34V136.663H1269.83V180.383H1245.54V193.984H1269.83V228.96H1163.92V180.383H1194.04V160.951H1163.92V118.203Z" fill="#206234"/>
<rect x="1245.54" y="202.728" width="41.781" height="8.74399" fill="white"/>
<rect x="1090.07" y="263.118" width="24.0765" height="9.84849" fill="white"/>
<rect x="1107.58" y="272.967" width="24.0765" height="9.84849" fill="white"/>
<rect x="1312.58" y="96.8291" width="32.0645" height="8.74399" fill="white"/>
<rect x="1332.98" y="91" width="11.6598" height="8.74399" fill="white"/>
<rect x="1024" y="128.891" width="34.0078" height="8.74399" fill="white"/>
<rect x="269.52" y="375" width="34.0078" height="8.74399" fill="white"/>
<rect x="253" y="383.744" width="34.0078" height="8.74399" fill="white"/>
<path fill-rule="evenodd" clip-rule="evenodd" d="M712.531 265.976V275.691H723.22V284.435H712.531V302.895H759.171V274.719H755.283V265.975H759.171V258.203H719.335V265.976H712.531Z" fill="#206234"/>
<rect x="739.734" y="297.065" width="38.8661" height="8.74399" fill="white"/>
<path fill-rule="evenodd" clip-rule="evenodd" d="M686.291 275.691H668.801V267.919H662.001V247.516H669.772V238.772H662.001V231H698.924V239.744H708.641V275.691H698.923V265.004H686.291V275.691Z" fill="#206234"/>
<rect x="698.926" y="244.601" width="19.433" height="6.80088" fill="white"/>
<rect x="712.527" y="247.516" width="19.433" height="6.80088" fill="white"/>
<path fill-rule="evenodd" clip-rule="evenodd" d="M311.133 141H301.418V151.687H292.673V141H274.21V187.635H302.389V183.748H311.134V187.635H318.906V147.801H311.133V141Z" fill="#206234"/>
<rect x="285.867" y="161.402" width="38.8661" height="8.74399" transform="rotate(-180 285.867 161.402)" fill="white"/>
<path fill-rule="evenodd" clip-rule="evenodd" d="M349.018 225.524H331.531V217.752H324.728V197.35H332.502V188.606H324.728V180.833H361.651V189.577H371.367V225.524H361.649V214.837H349.018V225.524Z" fill="#206234"/>
<rect x="334.449" y="211.923" width="19.433" height="6.80088" transform="rotate(-180 334.449 211.923)" fill="white"/>
<rect x="320.848" y="209.008" width="19.433" height="6.80088" transform="rotate(-180 320.848 209.008)" fill="white"/>
<path fill-rule="evenodd" clip-rule="evenodd" d="M255.922 399.288V476.041H281.186V427.463H295.76V476.041H393.896V439.122H353.087V419.691H393.896V386.658H265.637V399.288H255.922Z" fill="#206234"/>
<rect x="419.152" y="479.927" width="44.696" height="11.6587" transform="rotate(-180 419.152 479.927)" fill="white"/>
<rect x="386.117" y="472.155" width="44.696" height="11.6587" transform="rotate(-180 386.117 472.155)" fill="white"/>
<path fill-rule="evenodd" clip-rule="evenodd" d="M803.137 580.018H900.3V592.648H911.766V627.624H900.3V622.766H887.668V627.624H739.976V619.851H713.741V627.624H596.172V622.766H562.164V627.624H513V603.335H535.93V592.648H513V580.018H664.19V609.164H688.481V580.018H785.647V588.761H803.137V580.018Z" fill="#206234"/>
<path fill-rule="evenodd" clip-rule="evenodd" d="M923.039 687.86V718.092H990.083V676.145H984.255V686.889H971.624V676.145H926.926V687.86H923.039Z" fill="#206234"/>
<path fill-rule="evenodd" clip-rule="evenodd" d="M1007.57 630.539H994.938V684.634H1024.09V689.552H994.938V721.206H1073.64V714.14H1029.92V701.354H1073.64V647.259H1053.24V630.539H1015.34V652.177H1007.57V630.539Z" fill="#206234"/>
<path fill-rule="evenodd" clip-rule="evenodd" d="M638.341 631.51H798.665V652.885H810.325V631.51H830.535V660.657H810.326V668.43H830.535V679.116H764.658V674.259H741.338V679.116H674.292V651.913H665.547V679.116H584.901V673.287H552.837V679.116H520.77V673.287H510.473V652.885H518.826V643.169H510.473V631.51H626.681V643.169H638.341V631.51Z" fill="#206234"/>
<path fill-rule="evenodd" clip-rule="evenodd" d="M399.32 631.51H356.571V652.363H347.826V631.51H340.051V687.813H356.569V698.24H340.051V717.007H418.755V682.6H403.21V672.174H418.755V631.51H406.122V651.321H399.32V631.51Z" fill="#206234"/>
<path fill-rule="evenodd" clip-rule="evenodd" d="M423.801 631.51H496.482V648.027H502.505V683.003H596.56V689.804H643.2V683.003H661.661V699.519H643.202V705.349H661.661V717.007H502.505H423.801V665.515H428.464V644.141H423.801V631.51ZM498.426 701.462H451.787V710.206H498.426V701.462Z" fill="#206234"/>
<path fill-rule="evenodd" clip-rule="evenodd" d="M686.926 683.003H666.715V717.007H745.419V698.548H732.592V692.718H745.419V683.003H695.671V692.718H686.926V683.003Z" fill="#206234"/>
<path fill-rule="evenodd" clip-rule="evenodd" d="M862.793 631.51H911.377V637.476H918.178V672.27H892.913V680.224H918.178V682.212V717.007H750.082V682.212H818.098V688.177H850.162V680.224H834.13V631.51H849.189V639.464H862.793V631.51ZM773.403 699.113H758.828V714.025H773.403V699.113Z" fill="#206234"/>
<path fill-rule="evenodd" clip-rule="evenodd" d="M923.039 630.539H926.924V647.055H936.641V630.539H990.083V644.14H968.705V649.97H990.083V673.287H923.039V630.539Z" fill="#206234"/>
<rect x="525.633" y="676.202" width="44.696" height="11.6587" transform="rotate(-180 525.633 676.202)" fill="white"/>
<rect x="496.48" y="670.373" width="44.696" height="11.6587" transform="rotate(-180 496.48 670.373)" fill="white"/>
<rect x="945.383" y="648.027" width="44.696" height="11.6587" transform="rotate(-180 945.383 648.027)" fill="white"/>
<rect x="919.152" y="656.771" width="44.696" height="11.6587" transform="rotate(-180 919.152 656.771)" fill="white"/>
<rect x="1103.76" y="690.775" width="44.696" height="11.6587" transform="rotate(-180 1103.76 690.775)" fill="white"/>
<path d="M613.879 546.528V514.958H616.607V521.389H623.429V527.625H629.665V539.902H648.569V533.73H654.416V546.528H648.569V572.25H642.333V546.528H623.039V572.25H616.997V546.528H613.879Z" fill="black" stroke="black" stroke-width="0.389761"/>
<path d="M705.674 527.365V521.194H632.59V539.512H641.92V533.535H648.334H686.236V527.365H698.676H705.674Z" fill="#122132" stroke="#122132" stroke-width="0.389761"/>
<path d="M705.671 508.528H616.996V514.569H623.817V520.999H705.671V508.528Z" fill="#182738" stroke="#182738" stroke-width="0.389761"/>
<path d="M609.98 495.861V489.236H638.045V495.666L609.98 495.861Z" fill="#26733D" stroke="#26733D" stroke-width="0.389761"/>
<path d="M613.879 508.333V496.056H654.416V507.966L613.879 508.333Z" fill="#206234" stroke="#206234" stroke-width="0.389761"/>
<path d="M613.879 514.764V508.333H616.802V514.764H623.623V521.194H632.199V527.43H623.623V521.194H616.802V514.764H613.879Z" fill="#26733D"/>
<path d="M616.802 514.764H613.879V508.333H616.802V514.764ZM616.802 514.764V521.194H623.623M616.802 514.764H623.623V521.194M623.623 521.194V527.43H632.199V521.194H623.623Z" stroke="#26733D" stroke-width="0.389761"/>
<path d="M648.176 495.861V489.236H657.141V495.666L648.176 495.861Z" fill="#26733D" stroke="#26733D" stroke-width="0.389761"/>
<path d="M661.822 445H605.499V458.446H594V464.292H673.71V458.446H661.822V445Z" fill="#26733D" stroke="#26733D" stroke-width="0.389761"/>
<path d="M608.422 464.487H659.093V489.236H608.422V464.487Z" fill="black"/>
<rect x="643.113" y="489.236" width="5.06714" height="6.6256" fill="black"/>
<rect x="638.047" y="489.236" width="5.06714" height="6.6256" fill="black"/>
<rect x="652.469" y="472.087" width="5.45692" height="9.35379" fill="#FAFF15"/>
<rect x="635.316" y="472.087" width="5.45692" height="9.35379" fill="#FAFF15"/>
<rect x="608.812" y="451.041" width="3.11824" height="3.50767" fill="#FF9315"/>
<rect x="656.363" y="446.754" width="3.11824" height="3.50767" fill="#FF9315"/>
<rect x="611.93" y="454.549" width="7.40583" height="3.50767" fill="#FF9315"/>
<rect x="693.781" y="514.569" width="2.72846" height="10.1333" fill="#FF9315"/>
<rect x="693.004" y="502.097" width="6.23649" height="6.23586" fill="#FF9315"/>
<rect x="687.547" y="514.569" width="2.72846" height="10.1333" fill="#FF9315"/>
<rect x="700.02" y="514.569" width="2.72846" height="10.1333" fill="#FF9315"/>
<path d="M616.801 572.446H623.232V584.333H616.801V572.446Z" fill="#26733D"/>
<path d="M642.137 572.446H648.763V584.333H642.137V572.446Z" fill="#26733D"/>
<path d="M632.393 527.625H629.859V539.707H632.393V527.625Z" fill="white"/>
<path d="M648.373 533.733L642.137 533.725V539.707H648.373V533.733Z" fill="white"/>
<rect x="721" y="517" width="8.74487" height="8.74399" fill="#FAFF15"/>
<rect x="744" y="517" width="8.74487" height="8.74399" fill="#FAFF15"/>
<rect x="767" y="516" width="8.74487" height="8.74399" fill="#FAFF15"/>
<rect x="790" y="516" width="8.74487" height="8.74399" fill="#FAFF15"/>
<rect x="813" y="516" width="8.74487" height="8.74399" fill="#FAFF15"/>
<rect x="836" y="516" width="8.74487" height="8.74399" fill="#FAFF15"/>
<rect x="860" y="516" width="8.74487" height="8.74399" fill="#FAFF15"/>
<rect x="883" y="516" width="8.74487" height="8.74399" fill="#FAFF15"/>
<rect x="906" y="516" width="8.74487" height="8.74399" fill="#FAFF15"/>
</g>
<defs>
<clipPath id="clip0_245_158">
<rect width="1440" height="717" fill="white"/>
</clipPath>
</defs>
</svg>
