<svg width="1440" height="1080" viewBox="0 0 1440 1080" fill="none" xmlns="http://www.w3.org/2000/svg">
<g clip-path="url(#clip0_97_12069)">
<rect width="1440" height="1080" fill="#111111"/>
<path fill-rule="evenodd" clip-rule="evenodd" d="M938.066 104.062H998.54V150.469H1021.04V104.062H1096.99V165.937H1051.98V194.062H1096.99V264.375H959.159V243.281H938.066V104.062Z" fill="#206234"/>
<rect x="137.828" y="88.5938" width="8.43835" height="8.4375" fill="white"/>
<rect x="1340.29" y="511.875" width="8.43835" height="8.4375" fill="white"/>
<rect x="850.867" y="81.5625" width="8.43835" height="8.4375" fill="white"/>
<rect x="909.938" y="367.031" width="8.43835" height="8.4375" fill="white"/>
<rect x="786.172" y="322.031" width="8.43835" height="8.4375" fill="white"/>
<rect x="708.82" y="125.156" width="8.43835" height="8.4375" fill="white"/>
<rect x="428.949" y="254.531" width="8.43835" height="8.4375" fill="white"/>
<rect x="1112.45" y="624.375" width="8.43835" height="8.4375" fill="white"/>
<rect x="569.59" y="659.532" width="8.43835" height="8.4375" fill="white"/>
<rect x="462.703" y="570.938" width="8.43835" height="8.4375" fill="white"/>
<rect x="855.09" y="720" width="8.43835" height="8.4375" fill="white"/>
<rect x="94.2266" y="838.125" width="8.43835" height="8.4375" fill="white"/>
<rect x="828.367" y="206.719" width="5.62557" height="5.625" fill="white"/>
<rect x="703.199" y="579.375" width="5.62557" height="5.625" fill="white"/>
<rect x="729.918" y="791.719" width="5.62557" height="5.625" fill="white"/>
<rect x="562.555" y="337.5" width="5.62557" height="5.625" fill="white"/>
<rect x="201.113" y="736.875" width="5.62557" height="5.625" fill="white"/>
<rect x="1150.43" y="92.8125" width="5.62557" height="5.625" fill="white"/>
<rect x="295.34" y="167.344" width="5.62557" height="5.625" fill="white"/>
<rect x="82.9766" y="582.188" width="5.62557" height="5.625" fill="white"/>
<rect x="485.207" y="85.7812" width="5.62557" height="5.625" fill="white"/>
<rect x="372.695" y="402.188" width="5.62557" height="5.625" fill="white"/>
<rect x="258.773" y="829.688" width="5.62557" height="5.625" fill="white"/>
<rect x="1312.16" y="667.969" width="5.62557" height="5.625" fill="white"/>
<rect x="1345.92" y="368.438" width="5.62557" height="5.625" fill="white"/>
<rect x="88.6016" y="288.281" width="5.62557" height="5.625" fill="white"/>
<rect x="1336.07" y="804.375" width="8.43835" height="8.4375" fill="white"/>
<rect x="703.199" y="448.594" width="8.43835" height="8.4375" fill="white"/>
<rect x="1344.51" y="52.0317" width="8.43835" height="8.4375" fill="white"/>
<rect x="206.738" y="367.031" width="8.43835" height="8.4375" fill="white"/>
<rect x="627.254" y="213.75" width="8.43835" height="8.4375" fill="white"/>
<rect x="1232" y="393.75" width="8.43835" height="8.4375" fill="white"/>
<path d="M536.457 843.109V797.272H540.419V806.61H550.323V815.664H559.378V833.489H586.826V824.528H595.315V843.109H586.826V880.457H577.771V843.109H549.757V880.457H540.985V843.109H536.457Z" fill="black" stroke="black" stroke-width="0.565912"/>
<path d="M669.735 815.287V806.328H563.621V832.925H577.167V824.246H586.481H641.513V815.287H659.574H669.735Z" fill="#122132" stroke="#122132" stroke-width="0.565912"/>
<path d="M669.693 787.938H540.941V796.709H550.845V806.046H669.693V787.938Z" fill="#182738" stroke="#182738" stroke-width="0.565912"/>
<path d="M530.777 769.544V759.924H571.525V769.261L530.777 769.544Z" fill="#26733D" stroke="#26733D" stroke-width="0.565912"/>
<path d="M536.457 787.651V769.826H595.315V787.118L536.457 787.651Z" fill="#206234" stroke="#206234" stroke-width="0.565912"/>
<path d="M536.457 796.992V787.655H540.702V796.992H550.606V806.329H563.056V815.384H550.606V806.329H540.702V796.992H536.457Z" fill="#26733D"/>
<path d="M540.702 796.992H536.457V787.655H540.702V796.992ZM540.702 796.992V806.329H550.606M540.702 796.992H550.606V806.329M550.606 806.329V815.384H563.056V806.329H550.606Z" stroke="#26733D" stroke-width="0.565912"/>
<path d="M586.242 769.544V759.924H599.259V769.261L586.242 769.544Z" fill="#26733D" stroke="#26733D" stroke-width="0.565912"/>
<path d="M606.048 695.696H524.269V715.219H507.574V723.708H623.309V715.219H606.048V695.696Z" fill="#26733D" stroke="#26733D" stroke-width="0.565912"/>
<path d="M528.508 723.99H602.08V759.924H528.508V723.99Z" fill="black"/>
<rect x="578.867" y="759.924" width="7.35722" height="9.62002" fill="black"/>
<rect x="571.531" y="759.924" width="7.35722" height="9.62002" fill="black"/>
<rect x="592.461" y="735.024" width="7.92316" height="13.5812" fill="#FAFF15"/>
<rect x="567.574" y="735.024" width="7.92316" height="13.5812" fill="#FAFF15"/>
<rect x="529.078" y="704.47" width="4.52752" height="5.09295" fill="#FF9315"/>
<rect x="598.141" y="698.244" width="4.52752" height="5.09295" fill="#FF9315"/>
<rect x="533.609" y="709.561" width="10.7529" height="5.09295" fill="#FF9315"/>
<rect x="652.453" y="796.708" width="3.96158" height="14.713" fill="#FF9315"/>
<rect x="651.32" y="778.597" width="9.05505" height="9.05413" fill="#FF9315"/>
<rect x="643.41" y="796.708" width="3.96158" height="14.713" fill="#FF9315"/>
<rect x="661.523" y="796.708" width="3.96158" height="14.713" fill="#FF9315"/>
<path d="M540.676 880.741H550.014V898H540.676V880.741Z" fill="#26733D"/>
<path d="M577.449 880.741H587.07V898H577.449V880.741Z" fill="#26733D"/>
<path d="M563.331 815.662H559.652V833.205H563.331V815.662Z" fill="white"/>
<path d="M586.504 824.533L577.449 824.521V833.207H586.504V824.533Z" fill="white"/>
<rect x="691.961" y="800.237" width="12.6971" height="12.6958" fill="#FAFF15"/>
<rect x="725.363" y="800.237" width="12.6971" height="12.6958" fill="#FAFF15"/>
<rect x="758.773" y="798.787" width="12.6971" height="12.6958" fill="#FAFF15"/>
<rect x="792.16" y="798.787" width="12.6971" height="12.6958" fill="#FAFF15"/>
<rect x="825.551" y="798.787" width="12.6971" height="12.6958" fill="#FAFF15"/>
<rect x="858.938" y="798.787" width="12.6971" height="12.6958" fill="#FAFF15"/>
<rect x="893.781" y="798.787" width="12.6971" height="12.6958" fill="#FAFF15"/>
<rect x="927.191" y="798.787" width="12.6971" height="12.6958" fill="#FAFF15"/>
<rect x="960.586" y="798.787" width="12.6971" height="12.6958" fill="#FAFF15"/>
<rect x="933.844" y="136.406" width="49.2237" height="12.6562" fill="white"/>
<path fill-rule="evenodd" clip-rule="evenodd" d="M1362.79 109.687H1279.11V126.562H1295.29V137.812H1279.11V188.437H1316.38V170.156H1336.07V188.437H1362.79V149.062H1345.92V143.437H1362.79V109.687Z" fill="#206234"/>
<path fill-rule="evenodd" clip-rule="evenodd" d="M1035.67 359.186H1156.05V347.307H1132.79V339.387H1156.05V303.75H1102.44V316.619H1074.11V303.75H1035.67V319.589H1059.43V335.428H1035.67V359.186Z" fill="#206234"/>
<path fill-rule="evenodd" clip-rule="evenodd" d="M1112.45 133.594H1147.61V153.281H1163.08V133.594H1265.75V150.469H1240.43V160.313H1265.75V223.594H1230.59V243.281H1265.75V293.906H1112.45V223.594H1156.05V195.469H1112.45V133.594Z" fill="#206234"/>
<rect x="1230.59" y="255.938" width="60.4748" height="12.6562" fill="white"/>
<rect x="1005.57" y="343.347" width="34.8489" height="14.2549" fill="white"/>
<rect x="1030.92" y="357.602" width="34.8489" height="14.2549" fill="white"/>
<rect x="1257.32" y="268.593" width="60.4748" height="12.6562" fill="white"/>
<rect x="1327.63" y="102.656" width="46.4109" height="12.6562" fill="white"/>
<rect x="1357.17" y="94.2192" width="16.8767" height="12.6562" fill="white"/>
<rect x="909.938" y="149.063" width="49.2237" height="12.6562" fill="white"/>
<rect x="198.301" y="478.125" width="49.2237" height="12.6562" fill="white"/>
<rect x="174.395" y="490.781" width="49.2237" height="12.6562" fill="white"/>
<path fill-rule="evenodd" clip-rule="evenodd" d="M869.152 520.313V534.375H884.622V547.031H869.152V573.75H936.659V532.969H931.031V520.313H936.659V509.062H878.996V520.313H869.152Z" fill="#206234"/>
<rect x="908.527" y="565.312" width="56.2557" height="12.6562" fill="white"/>
<rect x="949.316" y="558.281" width="9.84474" height="12.6562" fill="white"/>
<path fill-rule="evenodd" clip-rule="evenodd" d="M831.179 534.375H805.865V523.125H796.021V493.594H807.27V480.937H796.021V469.688H849.463V482.343H863.527V534.375H849.462V518.906H831.179V534.375Z" fill="#206234"/>
<rect x="824.145" y="464.062" width="9.84474" height="12.6562" fill="white"/>
<rect x="849.461" y="489.375" width="28.1278" height="9.84375" fill="white"/>
<rect x="869.148" y="493.594" width="28.1278" height="9.84375" fill="white"/>
<path fill-rule="evenodd" clip-rule="evenodd" d="M535.837 385.312H521.776V400.781H509.118V385.312H482.396V452.812H523.18V447.188H535.838V452.812H547.09V395.156H535.837V385.312Z" fill="#206234"/>
<rect x="499.273" y="414.844" width="56.2557" height="12.6562" transform="rotate(-180 499.273 414.844)" fill="white"/>
<path fill-rule="evenodd" clip-rule="evenodd" d="M590.687 507.657H565.373V496.407H555.528V466.875H566.778V454.219H555.528V442.969H608.971V455.625H623.035V507.657H608.97V492.188H590.687V507.657Z" fill="#206234"/>
<rect x="569.59" y="487.969" width="28.1278" height="9.84375" transform="rotate(-180 569.59 487.969)" fill="white"/>
<rect x="549.902" y="483.75" width="28.1278" height="9.84375" transform="rotate(-180 549.902 483.75)" fill="white"/>
<path fill-rule="evenodd" clip-rule="evenodd" d="M178.609 513.282V624.375H215.175V554.063H236.271V624.375H378.317V570.938H319.247V542.813H378.317V495H192.672V513.282H178.609Z" fill="#206234"/>
<rect x="414.887" y="630" width="64.694" height="16.875" transform="rotate(-180 414.887 630)" fill="white"/>
<rect x="367.07" y="618.75" width="64.694" height="16.875" transform="rotate(-180 367.07 618.75)" fill="white"/>
<path fill-rule="evenodd" clip-rule="evenodd" d="M848.901 891.562H989.542V909.844H1006.14V960.469H989.538V953.437H971.255V960.469H757.487V949.219H719.514V960.469H549.338V953.437H500.114V960.469H428.953V925.312H462.143V909.844H428.953V891.562H647.787V933.75H682.947V891.562H823.586V904.219H848.901V891.562Z" fill="#206234"/>
<path fill-rule="evenodd" clip-rule="evenodd" d="M1022.45 1047.66V1085.62H1119.49V1033.59H1111.05V1046.25H1092.76V1033.59H1028.07V1047.66H1022.45Z" fill="#206234"/>
<path fill-rule="evenodd" clip-rule="evenodd" d="M1144.8 964.688H1126.52V1042.99H1168.71V1050.1H1126.52V1080H1177.15V1067.19H1240.44V988.889H1210.9V964.688H1156.05V996.007H1144.8V964.688Z" fill="#206234"/>
<path fill-rule="evenodd" clip-rule="evenodd" d="M610.372 966.093H842.427V997.031H859.304V966.093H888.558V1008.28H859.305V1019.53H888.558V1035H793.204V1027.97H759.451V1035H662.41V995.625H649.752V1035H533.021V1026.56H486.61V1035H440.199V1026.56H425.293V997.031H437.389V982.968H425.293V966.093H593.495V982.968H610.372V966.093Z" fill="#206234"/>
<path fill-rule="evenodd" clip-rule="evenodd" d="M264.398 966.094H202.519V996.277H189.862V966.094H178.609V1047.59H202.518V1062.68H178.609V1089.84H292.527V1040.04H270.025V1024.95H292.527V966.094H274.243V994.768H264.398V966.094Z" fill="#206234"/>
<path fill-rule="evenodd" clip-rule="evenodd" d="M299.84 966.093H405.041V989.999H413.758V1040.62H549.897V1050.47H617.403V1040.62H644.124V1064.53H617.403V1072.97H644.124V1089.84H413.758H299.84V1015.31H306.592V984.374H299.84V966.093ZM407.851 1067.34H340.344V1080H407.851V1067.34Z" fill="#206234"/>
<path fill-rule="evenodd" clip-rule="evenodd" d="M680.697 1040.62H651.445V1089.84H765.363V1063.12H746.799V1054.69H765.363V1040.62H693.355V1054.69H680.697V1040.62Z" fill="#206234"/>
<path fill-rule="evenodd" clip-rule="evenodd" d="M935.246 966.093H1005.57V974.727H1015.41V1025.09H978.845V1036.6H1015.41V1039.48V1089.84H772.105V1039.48H870.551V1048.11H916.962V1036.6H893.758V966.093H915.557V977.605H935.246V966.093ZM805.858 1063.94H784.762V1085.53H805.858V1063.94Z" fill="#206234"/>
<path fill-rule="evenodd" clip-rule="evenodd" d="M1022.45 964.688H1028.07V988.594H1042.14V964.688H1119.49V984.375H1088.55V992.812H1119.49V1026.56H1022.45V964.688Z" fill="#206234"/>
<rect x="447.23" y="1030.78" width="64.694" height="16.875" transform="rotate(-180 447.23 1030.78)" fill="white"/>
<rect x="405.039" y="1022.34" width="64.694" height="16.875" transform="rotate(-180 405.039 1022.34)" fill="white"/>
<rect x="1054.79" y="990" width="64.694" height="16.875" transform="rotate(-180 1054.79 990)" fill="white"/>
<rect x="1016.82" y="1002.66" width="64.694" height="16.875" transform="rotate(-180 1016.82 1002.66)" fill="white"/>
<rect x="1284.04" y="1051.88" width="64.694" height="16.875" transform="rotate(-180 1284.04 1051.88)" fill="white"/>
</g>
<defs>
<clipPath id="clip0_97_12069">
<rect width="1440" height="1080" fill="white"/>
</clipPath>
</defs>
</svg>
