<svg width="425" height="896" viewBox="0 0 425 896" fill="none" xmlns="http://www.w3.org/2000/svg">
<g clip-path="url(#clip0_435_11845)">
<rect width="425" height="896" fill="#111111"/>
<rect x="142.844" y="677.189" width="4.45117" height="4.45072" transform="rotate(180 142.844 677.189)" fill="white"/>
<rect x="176.977" y="550.344" width="4.45117" height="4.45072" transform="rotate(180 176.977 550.344)" fill="white"/>
<rect x="217.766" y="654.194" width="4.45117" height="4.45072" transform="rotate(180 217.766 654.194)" fill="white"/>
<rect x="4.85938" y="390.859" width="4.45117" height="4.45072" transform="rotate(180 4.85938 390.859)" fill="white"/>
<rect x="72.7344" y="468.767" width="4.45117" height="4.45072" transform="rotate(180 72.7344 468.767)" fill="white"/>
<rect x="291.211" y="372.315" width="4.45117" height="4.45072" transform="rotate(180 291.211 372.315)" fill="white"/>
<rect x="347.602" y="419.047" width="4.45117" height="4.45072" transform="rotate(180 347.602 419.047)" fill="white"/>
<rect x="111.906" y="386.3" width="4.45117" height="4.45072" transform="rotate(180 111.906 386.3)" fill="white"/>
<rect x="154.703" y="611.17" width="2.96745" height="2.96715" transform="rotate(180 154.703 611.17)" fill="white"/>
<rect x="419.016" y="379.205" width="2.96745" height="2.96715" transform="rotate(180 419.016 379.205)" fill="white"/>
<rect x="206.648" y="302.587" width="2.96745" height="2.96715" transform="rotate(180 206.648 302.587)" fill="white"/>
<rect x="294.922" y="542.184" width="2.96745" height="2.96715" transform="rotate(180 294.922 542.184)" fill="white"/>
<rect x="362.547" y="325.904" width="2.96745" height="2.96715" transform="rotate(180 362.547 325.904)" fill="white"/>
<rect x="395.07" y="508.062" width="2.96745" height="2.96715" transform="rotate(180 395.07 508.062)" fill="white"/>
<rect x="24.1484" y="293.688" width="4.45117" height="4.45072" transform="rotate(180 24.1484 293.688)" fill="white"/>
<rect x="260.789" y="607.461" width="4.45117" height="4.45072" transform="rotate(180 260.789 607.461)" fill="white"/>
<rect x="19.6875" y="552.597" width="4.45117" height="4.45072" transform="rotate(180 19.6875 552.597)" fill="white"/>
<rect x="239.562" y="597.668" width="4.45117" height="4.45072" transform="rotate(-90 239.562 597.668)" fill="white"/>
<rect x="40" y="795.451" width="4.45117" height="4.45072" transform="rotate(-90 40 795.451)" fill="white"/>
<rect x="139.422" y="889.973" width="4.45117" height="4.45072" transform="rotate(-90 139.422 889.973)" fill="white"/>
<rect x="298.906" y="717.856" width="4.45117" height="4.45072" transform="rotate(-90 298.906 717.856)" fill="white"/>
<rect x="221" y="785.734" width="4.45117" height="4.45072" transform="rotate(-90 221 785.734)" fill="white"/>
<rect x="303.469" y="824.905" width="4.45117" height="4.45072" transform="rotate(-90 303.469 824.905)" fill="white"/>
<rect x="78.6016" y="867.703" width="2.96745" height="2.96715" transform="rotate(-90 78.6016 867.703)" fill="white"/>
<rect x="18.5156" y="697.816" width="2.96745" height="2.96715" transform="rotate(-90 18.5156 697.816)" fill="white"/>
<rect x="370" y="822.968" width="2.96745" height="2.96715" transform="rotate(-90 370 822.968)" fill="white"/>
<rect x="163.906" y="594.699" width="2.96745" height="2.96715" transform="rotate(-90 163.906 594.699)" fill="white"/>
<rect x="393.859" y="599.897" width="4.45117" height="4.45072" transform="rotate(-90 393.859 599.897)" fill="white"/>
<rect x="396.078" y="737.145" width="4.45117" height="4.45072" transform="rotate(-90 396.078 737.145)" fill="white"/>
<rect x="177.258" y="654.794" width="4.45117" height="4.45072" transform="rotate(-90 177.258 654.794)" fill="white"/>
<rect x="137.172" y="732.686" width="4.45117" height="4.45072" transform="rotate(-90 137.172 732.686)" fill="white"/>
<rect x="51.875" y="106.051" width="9.43543" height="9.43543" fill="white"/>
<rect x="61.2656" y="96.751" width="10.1612" height="9.20862" fill="white"/>
<rect x="42.4375" y="96.6152" width="9.43543" height="9.43543" fill="white"/>
<rect x="33" y="135.809" width="50.8062" height="9.43543" transform="rotate(-90 33 135.809)" fill="white"/>
<rect x="71.4688" y="135.809" width="50.8062" height="9.43543" transform="rotate(-90 71.4688 135.809)" fill="white"/>
<rect x="95.5" y="135.808" width="50.8062" height="9.52616" transform="rotate(-90 95.5 135.808)" fill="white"/>
<rect x="138.516" y="106.051" width="9.43543" height="9.43543" fill="white"/>
<rect x="147.945" y="115.485" width="10.1612" height="9.43543" fill="white"/>
<rect x="129.078" y="96.6152" width="9.43543" height="9.43543" fill="white"/>
<rect x="119.641" y="135.809" width="50.8062" height="9.43543" transform="rotate(-90 119.641 135.809)" fill="white"/>
<rect x="158.109" y="135.809" width="50.8062" height="9.43543" transform="rotate(-90 158.109 135.809)" fill="white"/>
<rect x="211.977" y="126.282" width="31.7539" height="9.52616" transform="rotate(-90 211.977 126.282)" fill="white"/>
<rect x="191.664" y="126.282" width="20.3225" height="9.52616" fill="white"/>
<rect x="191.664" y="85.002" width="20.3225" height="9.52616" fill="white"/>
<rect x="182.141" y="135.809" width="50.8062" height="9.52616" transform="rotate(-90 182.141 135.809)" fill="white"/>
<rect x="265.969" y="104.055" width="9.52616" height="9.52616" transform="rotate(-90 265.969 104.055)" fill="white"/>
<rect x="265.969" y="135.809" width="9.52616" height="9.52616" transform="rotate(-90 265.969 135.809)" fill="white"/>
<rect x="256.453" y="126.282" width="12.7015" height="9.52616" transform="rotate(-90 256.453 126.282)" fill="white"/>
<rect x="245.672" y="85.002" width="20.3225" height="9.52616" fill="white"/>
<rect x="245.672" y="104.055" width="20.3225" height="9.52616" fill="white"/>
<rect x="236.133" y="135.809" width="50.8062" height="9.52616" transform="rotate(-90 236.133 135.809)" fill="white"/>
<rect x="319.938" y="135.172" width="20.3225" height="9.52616" transform="rotate(-180 319.938 135.172)" fill="white"/>
<rect x="329.477" y="85" width="40.6449" height="9.52616" transform="rotate(90 329.477 85)" fill="white"/>
<rect x="299.641" y="85" width="40.6449" height="9.52616" transform="rotate(90 299.641 85)" fill="white"/>
<rect x="362.984" y="106.051" width="9.43543" height="9.43543" fill="white"/>
<rect x="372.414" y="115.485" width="10.1612" height="9.43543" fill="white"/>
<rect x="353.547" y="96.6152" width="9.43543" height="9.43543" fill="white"/>
<rect x="344.109" y="135.809" width="50.8062" height="9.43543" transform="rotate(-90 344.109 135.809)" fill="white"/>
<rect x="382.578" y="135.809" width="50.8062" height="9.43543" transform="rotate(-90 382.578 135.809)" fill="white"/>
<path d="M244.262 271.058H237.523V329.358H244.555V304.163H251.293V336.389H258.617V498.781H264.769V316.467H271.508V308.557H277.367V302.405H283.812V291.858H277.367V298.303H256.566V291.858H252.758H250.414V290.1V277.21H244.262V271.058Z" fill="#A80000"/>
<path d="M178.934 271.058H185.672V329.358H178.641V304.163H171.902V336.389H164.578V497.378H158.426V316.467H151.688V308.557H145.828V302.405H139.383V291.858H145.828V298.303H166.629V291.858H170.438H172.781V290.1V277.21H178.934V271.058Z" fill="#A80000"/>
<path d="M204.715 258.168H198.562V263.734H204.715V258.168Z" stroke="black" stroke-width="0.350668"/>
<path d="M224.637 258.168H218.484V263.734H224.637V258.168Z" stroke="black" stroke-width="0.350668"/>
<path d="M271.219 271.058H256.57V276.917H271.219V271.058Z" fill="#A80000"/>
<path d="M166.914 271.058H152.266V276.917H166.914V271.058Z" fill="#A80000"/>
<path d="M198.262 344.299H192.109V349.865H198.262V344.299Z" stroke="black" stroke-width="0.350668"/>
<path d="M231.957 344.299H225.805V349.865H231.957V344.299Z" stroke="black" stroke-width="0.350668"/>
<path d="M139.676 250.55H145.535V271.057H139.676V289.807H133.523V258.753H139.676V250.55Z" fill="white"/>
<path d="M145.836 243.518H152.574V250.256H145.836V243.518Z" fill="white"/>
<path d="M284.113 250.257H278.254V270.764H284.113V289.514H290.266V258.46H284.113V250.257Z" fill="white"/>
<path d="M277.953 243.227H271.215V249.965H277.953V243.227Z" fill="white"/>
<path d="M237.523 211H186.254H185.668V216.273H173.07V223.598H159.594V230.336H153.148V242.933H166.332V237.953H185.668V329.358H178.636V304.163H171.898V343.128H179.222V350.452H185.668V375.647H192.113V402.014H198.851V368.909H192.113V356.311H198.851V362.756H204.418V402.014H218.773V362.756H225.511V356.311H231.663V368.909H225.511V402.014H231.663V375.647H237.523V350.452H244.554V343.128H251.292V304.163H244.554V329.358H237.523V237.953H258.323V242.933H271.214V230.336H264.476V223.598H251.292V216.273H237.523V211Z" fill="white"/>
<path d="M100 519.044V511.602H111.226V506.901H119.843V502.788H128.265V499.067H136.491V494.562H144.913V490.254H153.138V485.945H161.56V482.419H169.982V478.698H178.012V473.019H182.712V468.71H194.855V464.793H201.318V459.7H207.586V455H215.616V459.7H220.12V464.793H228.15V468.71H236.18V473.019H247.736V478.698H254.395V482.419H261.25V485.945H270.063V490.254H281.031V494.562H288.277V499.067H295.132V502.788H303.358V506.901H312.367V510.818H321V519.24H312.367V523.745H303.358V527.857H295.132V531.775H288.277V536.279H281.031V540.392H270.063V544.505H261.641V548.618H253.22V552.731H245.19V556.844H236.18V560.761H228.15V565.265H220.12V569.378H215.616V573.295H207.586V569.378H203.081V565.265H194.855V560.761H186.434V556.844H178.012V552.731H169.982V548.618H161.56V544.505H153.138V540.392H144.913V536.279H136.491V531.97H128.265V527.857H119.843V523.549H111.226V519.044H100Z" fill="#2D8647"/>
<rect x="330.422" y="536.544" width="33.4326" height="8.5961" fill="white"/>
<rect x="314.18" y="545.14" width="33.4326" height="8.5961" fill="white"/>
<rect x="73.3672" y="879" width="33.4326" height="8.5961" fill="white"/>
<rect x="57.125" y="887.596" width="33.4326" height="8.5961" fill="white"/>
<rect x="85.0391" y="709.187" width="33.4326" height="8.5961" fill="white"/>
<rect x="68.7969" y="717.782" width="33.4326" height="8.5961" fill="white"/>
<rect width="36.0371" height="11.4615" transform="matrix(1 0 0 -1 201.617 617.058)" fill="white"/>
<rect width="36.0371" height="11.4615" transform="matrix(1 0 0 -1 228.25 609.418)" fill="white"/>
<rect x="98.4453" y="484.839" width="48.3852" height="10.1261" fill="white"/>
<rect x="119.828" y="494.965" width="48.3852" height="10.1261" fill="white"/>
<path d="M202.32 464.642H200.797V461.362H208.59H220.756V464.642H217.948V477.374H214.861V464.642H205.311V477.374H202.32V464.642Z" fill="black" stroke="black" stroke-width="0.364051"/>
<path d="M199.109 439.637V436.271H222.675V439.538L199.109 439.637Z" fill="#26733D" stroke="#26733D" stroke-width="0.364051"/>
<path d="M200.797 445.65V439.639H220.756V445.65H200.797Z" fill="#206234" stroke="#206234" stroke-width="0.364051"/>
<path d="M199.109 439.637V436.271H222.675V439.637H199.109Z" fill="#26733D" stroke="#26733D" stroke-width="0.364051"/>
<path d="M200.797 461.28V445.649H220.756V461.28H200.797Z" fill="#26733D" stroke="#26733D" stroke-width="0.364051"/>
<path d="M224.75 414.389H196.871V421.044H191.18V423.938H230.634V421.044H224.75V414.389Z" fill="#26733D" stroke="#26733D" stroke-width="0.364051"/>
<path d="M198.32 424.034H223.401V436.284H198.32V424.034Z" fill="black"/>
<rect x="198.516" y="417.379" width="1.54344" height="1.7362" fill="#FF9315"/>
<rect x="222.055" y="415.256" width="1.54344" height="1.7362" fill="#FF9315"/>
<rect x="200.062" y="419.115" width="3.66568" height="1.7362" fill="#FF9315"/>
<path d="M202.25 477.392H205.433V483.275H202.25V477.392Z" fill="#26733D"/>
<path d="M214.742 477.392H218.022V483.275H214.742V477.392Z" fill="#26733D"/>
<path d="M198.61 445.668H196.992V464.832H201.797V462.386H200.229V460.704V450.765H198.61V447.503V445.668Z" fill="#122132" stroke="#122132" stroke-width="0.783374"/>
<path d="M193.664 445.667V468.92H195.248V467.131H196.935V445.667H193.664Z" fill="#182738" stroke="#182738" stroke-width="0.783374"/>
<rect x="195.25" y="448.784" width="0.715466" height="2.65771" transform="rotate(-90 195.25 448.784)" fill="#FF9315"/>
<rect x="191.977" y="448.988" width="1.63535" height="1.63552" transform="rotate(-90 191.977 448.988)" fill="#FF9315"/>
<rect x="195.25" y="450.42" width="0.715466" height="2.65771" transform="rotate(-90 195.25 450.42)" fill="#FF9315"/>
<rect x="195.25" y="452.041" width="0.715466" height="2.65771" transform="rotate(-90 195.25 452.041)" fill="#FF9315"/>
<path fill-rule="evenodd" clip-rule="evenodd" d="M99.8516 644.442V698.867H110.023V736.079H99.8516V911.467H212.725V569.213V569.017H207.437V565.1H202.933V560.987H194.707V556.482H186.285V552.565H177.863V548.452H169.833V544.339H161.412V540.227H152.99V536.114H144.764V532.001H136.342V527.692H128.117V523.579H119.695V519.27H111.077V514.766H99.8516V533.176H119.856V539.752H99.8516V637H131.617V644.442H99.8516Z" fill="#206234"/>
<path fill-rule="evenodd" clip-rule="evenodd" d="M323.031 563.548V601.235H315.414V627.088H323.031V672H287.52V679.442H323.031V917.365H212.703V573.423V573.227H215.445V569.31H219.95V565.197H227.98V560.693H236.01V556.776H245.019V552.663H253.049V548.55H261.471V544.437H269.892V540.324H280.86V536.211H288.107V531.706H294.962V527.789H303.187V523.677H312.197V519.172H323.031V556.972H305.929V563.548H323.031Z" fill="#26733D"/>
<rect x="302.711" y="711.909" width="48.3852" height="10.1261" fill="white"/>
<rect x="324.094" y="722.035" width="48.3852" height="10.1261" fill="white"/>
<rect x="128.406" y="596.553" width="43.94" height="11.4615" transform="rotate(-180 128.406 596.553)" fill="white"/>
<rect x="95.9375" y="588.911" width="43.94" height="11.4615" transform="rotate(-180 95.9375 588.911)" fill="white"/>
<rect x="372.531" y="888.104" width="43.94" height="11.4615" transform="rotate(-180 372.531 888.104)" fill="white"/>
<rect x="340.062" y="880.462" width="43.94" height="11.4615" transform="rotate(-180 340.062 880.462)" fill="white"/>
<rect x="16.2891" y="233.963" width="4.45117" height="4.45072" transform="rotate(-90 16.2891 233.963)" fill="white"/>
<rect x="244.203" y="174.766" width="4.45117" height="4.45072" transform="rotate(-90 244.203 174.766)" fill="white"/>
<rect x="106" y="67.4512" width="4.45117" height="4.45072" transform="rotate(-90 106 67.4512)" fill="white"/>
<rect x="317.453" y="6.21094" width="4.45117" height="4.45072" transform="rotate(-90 317.453 6.21094)" fill="white"/>
<rect x="257" y="69.4512" width="4.45117" height="4.45072" transform="rotate(-90 257 69.4512)" fill="white"/>
<rect x="411.656" y="256.958" width="4.45117" height="4.45072" transform="rotate(-90 411.656 256.958)" fill="white"/>
<rect x="310.562" y="134.012" width="2.96745" height="2.96715" transform="rotate(-90 310.562 134.012)" fill="white"/>
<rect x="147.586" y="9.91797" width="2.96745" height="2.96715" transform="rotate(-90 147.586 9.91797)" fill="white"/>
<rect x="358.25" y="200.584" width="2.96745" height="2.96715" transform="rotate(-90 358.25 200.584)" fill="white"/>
<rect x="57.8281" y="150.873" width="2.96745" height="2.96715" transform="rotate(-90 57.8281 150.873)" fill="white"/>
<rect x="363.867" y="77.5459" width="2.96745" height="2.96715" transform="rotate(-90 363.867 77.5459)" fill="white"/>
<rect x="14.8047" y="50.7246" width="2.96745" height="2.96715" transform="rotate(-90 14.8047 50.7246)" fill="white"/>
<rect x="181.703" y="110.066" width="2.96745" height="2.96715" transform="rotate(-90 181.703 110.066)" fill="white"/>
<rect x="407.211" y="170.161" width="2.96745" height="2.96715" transform="rotate(-90 407.211 170.161)" fill="white"/>
<rect x="87" y="249.968" width="2.96745" height="2.96715" transform="rotate(-90 87 249.968)" fill="white"/>
<rect x="133" y="177.451" width="4.45117" height="4.45072" transform="rotate(-90 133 177.451)" fill="white"/>
</g>
<defs>
<clipPath id="clip0_435_11845">
<rect width="425" height="896" fill="white"/>
</clipPath>
</defs>
</svg>
