<svg width="1536" height="716" viewBox="0 0 1536 716" fill="none" xmlns="http://www.w3.org/2000/svg">
<g clip-path="url(#clip0_126_2)">
<rect width="1535" height="716" transform="translate(0.996094)" fill="#111111"/>
<g filter="url(#filter0_i_126_2)">
<rect x="147.258" y="340.662" width="8.5077" height="8.50684" transform="rotate(180 147.258 340.662)" fill="white"/>
</g>
<g filter="url(#filter1_i_126_2)">
<rect x="542.559" y="518.252" width="8.5077" height="8.50684" transform="rotate(180 542.559 518.252)" fill="white"/>
</g>
<g filter="url(#filter2_i_126_2)">
<rect x="1246.47" y="331.792" width="8.5077" height="8.50684" transform="rotate(180 1246.47 331.792)" fill="white"/>
</g>
<g filter="url(#filter3_i_126_2)">
<rect x="705.926" y="532.065" width="8.5077" height="8.50684" transform="rotate(180 705.926 532.065)" fill="white"/>
</g>
<g filter="url(#filter4_i_126_2)">
<rect x="1040.51" y="513.507" width="8.5077" height="8.50684" transform="rotate(180 1040.51 513.507)" fill="white"/>
</g>
<g filter="url(#filter5_i_126_2)">
<rect x="376" y="233.507" width="8.5077" height="8.50684" transform="rotate(180 376 233.507)" fill="white"/>
</g>
<g filter="url(#filter6_i_126_2)">
<rect x="506.703" y="376.144" width="8.5077" height="8.50684" transform="rotate(180 506.703 376.144)" fill="white"/>
</g>
<g filter="url(#filter7_i_126_2)">
<rect x="924.289" y="191.791" width="8.5077" height="8.50684" transform="rotate(180 924.289 191.791)" fill="white"/>
</g>
<g filter="url(#filter8_i_126_2)">
<rect x="1032.05" y="281.113" width="8.5077" height="8.50684" transform="rotate(180 1032.05 281.113)" fill="white"/>
</g>
<g filter="url(#filter9_i_126_2)">
<rect x="557" y="186.507" width="8.5077" height="8.50684" transform="rotate(180 557 186.507)" fill="white"/>
</g>
<g filter="url(#filter10_i_126_2)">
<rect x="1480" y="99.73" width="8.5077" height="8.50684" transform="rotate(180 1480 99.73)" fill="white"/>
</g>
<g filter="url(#filter11_i_126_2)">
<rect x="367.164" y="621.894" width="5.6718" height="5.67123" transform="rotate(180 367.164 621.894)" fill="white"/>
</g>
<g filter="url(#filter12_i_126_2)">
<rect x="1168.56" y="204.961" width="5.6718" height="5.67123" transform="rotate(180 1168.56 204.961)" fill="white"/>
</g>
<g filter="url(#filter13_i_126_2)">
<rect x="923.164" y="332.894" width="5.6718" height="5.67123" transform="rotate(180 923.164 332.894)" fill="white"/>
</g>
<g filter="url(#filter14_i_126_2)">
<rect x="1295.8" y="113.813" width="5.6718" height="5.67123" transform="rotate(180 1295.8 113.813)" fill="white"/>
</g>
<g filter="url(#filter15_i_126_2)">
<rect x="221.703" y="661.861" width="5.6718" height="5.67123" transform="rotate(180 221.703 661.861)" fill="white"/>
</g>
<g filter="url(#filter16_i_126_2)">
<rect x="1249.16" y="664.894" width="5.6718" height="5.67123" transform="rotate(180 1249.16 664.894)" fill="white"/>
</g>
<g filter="url(#filter17_i_126_2)">
<rect x="1060.65" y="103.083" width="5.6718" height="5.67123" transform="rotate(180 1060.65 103.083)" fill="white"/>
</g>
<g filter="url(#filter18_i_126_2)">
<rect x="1414.9" y="269.771" width="5.6718" height="5.67123" transform="rotate(180 1414.9 269.771)" fill="white"/>
</g>
<g filter="url(#filter19_i_126_2)">
<rect x="1122.81" y="451.25" width="5.6718" height="5.67123" transform="rotate(180 1122.81 451.25)" fill="white"/>
</g>
<g filter="url(#filter20_i_126_2)">
<rect x="1470.67" y="682.671" width="5.6718" height="5.67123" transform="rotate(180 1470.67 682.671)" fill="white"/>
</g>
<g filter="url(#filter21_i_126_2)">
<rect x="1471.16" y="408.894" width="5.6718" height="5.67123" transform="rotate(180 1471.16 408.894)" fill="white"/>
</g>
<g filter="url(#filter22_i_126_2)">
<rect x="277.164" y="132.671" width="5.6718" height="5.67123" transform="rotate(180 277.164 132.671)" fill="white"/>
</g>
<g filter="url(#filter23_i_126_2)">
<rect x="256.164" y="387.894" width="5.6718" height="5.67123" transform="rotate(180 256.164 387.894)" fill="white"/>
</g>
<g filter="url(#filter24_i_126_2)">
<rect x="601.672" y="59.6713" width="5.6718" height="5.67123" transform="rotate(180 601.672 59.6713)" fill="white"/>
</g>
<g filter="url(#filter25_i_126_2)">
<rect x="64.1641" y="457.894" width="5.6718" height="5.67123" transform="rotate(180 64.1641 457.894)" fill="white"/>
</g>
<g filter="url(#filter26_i_126_2)">
<rect x="1409.23" y="566.093" width="5.6718" height="5.67123" transform="rotate(180 1409.23 566.093)" fill="white"/>
</g>
<g filter="url(#filter27_i_126_2)">
<rect x="151.504" y="45.7573" width="8.5077" height="8.50684" transform="rotate(180 151.504 45.7573)" fill="white"/>
</g>
<g filter="url(#filter28_i_126_2)">
<rect x="463" y="90.5068" width="8.5077" height="8.50684" transform="rotate(180 463 90.5068)" fill="white"/>
</g>
<g filter="url(#filter29_i_126_2)">
<rect x="1290.12" y="486.697" width="8.5077" height="8.50684" transform="rotate(180 1290.12 486.697)" fill="white"/>
</g>
<g filter="url(#filter30_i_126_2)">
<rect x="866.16" y="641.236" width="8.5077" height="8.50684" transform="rotate(180 866.16 641.236)" fill="white"/>
</g>
<g filter="url(#filter31_i_126_2)">
<rect x="160" y="529.73" width="8.5077" height="8.50684" transform="rotate(180 160 529.73)" fill="white"/>
</g>
<g filter="url(#filter32_i_126_2)">
<rect x="335" y="476.73" width="8.5077" height="8.50684" transform="rotate(180 335 476.73)" fill="white"/>
</g>
<rect x="1131.61" y="645.606" width="6.60655" height="6.60588" transform="rotate(180 1131.61 645.606)" fill="white"/>
<rect x="74.6055" y="201.606" width="6.60655" height="6.60588" transform="rotate(180 74.6055 201.606)" fill="white"/>
<rect x="53.6055" y="638.606" width="6.60655" height="6.60588" transform="rotate(180 53.6055 638.606)" fill="white"/>
<path d="M806.709 134.388H798.312V206.598H807.075V175.392H815.471V215.307H824.599V416.444H832.265V190.632H840.662V180.835H847.964V173.214H856.78V157.228H847.964V168.134H822.043V160.151H817.297H814.376V157.974V142.008H806.709V134.388Z" fill="#A80000"/>
<path d="M725.294 134.388H733.691V206.598H724.929V175.392H716.532V215.307H707.405V414.707H699.739V190.632H691.342V180.835H684.04V173.214H676.008V158.026H684.04V168.134H709.961V160.151H714.707H717.628V157.974V142.008H725.294V134.388Z" fill="#A80000"/>
<path d="M757.421 118.422H749.754V125.316H757.421V118.422Z" stroke="black" stroke-width="0.436991"/>
<path d="M782.253 118.422H774.586V125.316H782.253V118.422Z" stroke="black" stroke-width="0.436991"/>
<path d="M840.297 134.388H822.043V141.645H840.297V134.388Z" fill="#A80000"/>
<path d="M710.325 134.388H692.07V141.645H710.325V134.388Z" fill="#A80000"/>
<path d="M749.393 225.104H741.727V231.998H749.393V225.104Z" stroke="black" stroke-width="0.436991"/>
<path d="M791.378 225.104H783.711V231.998H791.378V225.104Z" stroke="black" stroke-width="0.436991"/>
<path d="M676.378 108.987H683.679V134.388H676.008V158.026H668.711V119.147H676.378V108.987Z" fill="white"/>
<path d="M684.039 100.278H692.436V108.624H684.039V100.278Z" fill="white"/>
<path d="M856.357 108.625H849.055V134.026L856.78 134.005V157.228L864.023 157.249V118.785H856.357V108.625Z" fill="white"/>
<path d="M848.695 99.9164H840.298V108.262H848.695V99.9164Z" fill="white"/>
<path d="M798.312 60H734.423H733.692V66.5316H717.994V75.6032H701.2V83.9491H693.168V99.5524H709.597V93.3836H733.692V206.598H724.93V175.391H716.533V223.652H725.661V232.724H733.692V263.931H741.724V296.588H750.121V255.585H741.724V239.981H750.121V247.964H757.058V296.588H774.947V247.964H783.344V239.981H791.011V255.585H783.344V296.588H791.011V263.931H798.312V232.724H807.074V223.652H815.471V175.391H807.074V206.598H798.312V93.3836H824.233V99.5524H840.297V83.9491H831.9V75.6032H815.471V66.5316H798.312V60Z" fill="white"/>
<path d="M757.42 93.0209V66.8945H734.055V77.4176H749.388V85.0378H741.721V108.261H757.42V100.641H749.388V93.0209H757.42Z" fill="#111111"/>
<path d="M774.584 93.0209V66.8945H797.949V77.4176H782.616V85.0378H790.282V108.261H774.584V100.641H782.616V93.0209H774.584Z" fill="#111111"/>
<path fill-rule="evenodd" clip-rule="evenodd" d="M901.163 618.054V575.36H890.263V543.339H901.163V496.66H883.316V488.515H901.163V441.697L891.254 434.259V439.838H879.858V444.932H869.452V449.784H860.782V455.363H851.615V460.457H837.742V465.552H827.089V470.646H816.436V475.74H806.279V480.834H794.883V485.686H784.725V491.265H774.568V496.36H768.87V501.211H767.125L767.529 495.61L765.402 501.211H767.125L763.81 547.202L753.184 571.642L767.529 599.27L767.346 609.808H778.279V618.055H800.573V627.273H767.044L765.404 722L876.881 721.127V692.769H901.163V627.272H860.026V618.054H901.163Z" fill="#26733D"/>
<path fill-rule="evenodd" clip-rule="evenodd" d="M630.477 436.242V720.938H767.398V616.282H726.394V606.936H767.398V504.618V504.372H760.808V499.453H755.194V494.288H744.944V488.631H734.449V483.712H723.954V478.546H713.947V473.381H703.452V468.216H692.957V463.051H682.707V457.886H672.212V452.475H661.961V447.31H651.466V441.899H640.727V436.242H630.477Z" fill="#2D8647"/>
<path fill-rule="evenodd" clip-rule="evenodd" d="M630.473 432.236V441.454H640.723V447.034H651.462V452.37H661.957V457.465H672.208V462.802H682.703V467.896H692.954V472.99H703.448V478.084H713.943V483.178H723.95V488.273H734.445V493.124H744.94V498.704H755.19V503.798H760.804V508.65H770.811V503.798H776.424V498.704H786.431V493.124H796.438V488.273H807.665V483.178H817.671V478.084H828.166V472.99H838.661V467.896H852.329V462.802H861.359V457.222H869.901V452.37H880.152V447.276H891.379V441.697H901.142V431.266H891.379V426.414H880.152V421.32H869.901V416.711H861.359V411.131H852.329V405.795H838.661V400.458H827.678V396.091H819.136V391.482H810.837V384.447H796.438V379.111H786.431V374.259H776.424V367.952H770.811V362.13H760.804V367.952H752.994V374.259H744.94V379.111H729.808V384.447H723.95V391.482H713.943V396.091H703.448V400.458H692.954V405.795H682.703V411.131H672.208V416.711H661.957V421.32H651.462V426.414H640.723V432.236H630.473Z" fill="#206234"/>
<rect x="913.98" y="455.355" width="41.6626" height="10.6471" fill="white"/>
<rect x="893.746" y="466.002" width="41.6626" height="10.6471" fill="white"/>
<rect x="914" y="456" width="21" height="20" fill="white"/>
<rect x="608.285" y="677.051" width="41.6626" height="10.6471" fill="white"/>
<rect x="588.051" y="687.698" width="41.6626" height="10.6471" fill="white"/>
<path d="M608.289 684H629.705V698H608.289V684Z" fill="white"/>
<rect x="663.43" y="537.542" width="54.7566" height="14.1961" transform="rotate(-180 663.43 537.542)" fill="white"/>
<rect x="622.961" y="528.078" width="54.7566" height="14.1961" transform="rotate(-180 622.961 528.078)" fill="white"/>
<rect width="44.9082" height="14.1961" transform="matrix(1 0 0 -1 753.551 562.942)" fill="white"/>
<rect width="44.9082" height="14.1961" transform="matrix(1 0 0 -1 786.75 553.479)" fill="white"/>
<rect x="880.648" y="680.422" width="60.296" height="12.5421" fill="white"/>
<rect x="907.293" y="692.964" width="60.296" height="12.5421" fill="white"/>
<path d="M907.297 685H941V705H907.297V685Z" fill="white"/>
<rect x="624.988" y="399.176" width="60.296" height="12.5421" fill="white"/>
<rect x="651.633" y="411.718" width="60.296" height="12.5421" fill="white"/>
<rect x="652" y="401" width="33" height="23" fill="white"/>
<path d="M754.43 376.409H752.531V372.347H762.243H777.404V376.409H773.904V392.179H770.057V376.409H758.156V392.179H754.43V376.409Z" fill="black" stroke="black" stroke-width="0.453668"/>
<path d="M750.434 345.439V341.27H779.801V345.317L750.434 345.439Z" fill="#26733D" stroke="#26733D" stroke-width="0.453668"/>
<path d="M752.531 352.886V345.44H777.404V352.886H752.531Z" fill="#206234" stroke="#206234" stroke-width="0.453668"/>
<path d="M750.434 345.439V341.27H779.801V345.439H750.434Z" fill="#26733D" stroke="#26733D" stroke-width="0.453668"/>
<path d="M752.531 372.245V352.885H777.404V372.245H752.531Z" fill="#26733D" stroke="#26733D" stroke-width="0.453668"/>
<path d="M749.438 326.113H780.693V341.286H749.438V326.113Z" fill="black"/>
<path d="M782.377 314.166H747.635V322.409H740.543V325.993H789.71V322.409H782.377V314.166Z" fill="#26733D" stroke="#26733D" stroke-width="0.453668"/>
<rect x="749.68" y="317.869" width="1.92339" height="2.15044" fill="#FF9315"/>
<rect x="779.012" y="315.241" width="1.92339" height="2.15044" fill="#FF9315"/>
<rect x="751.609" y="320.02" width="4.56805" height="2.15044" fill="#FF9315"/>
<path d="M754.328 392.201H758.295V399.488H754.328V392.201Z" fill="#26733D"/>
<path d="M769.914 392.201H774.001V399.488H769.914V392.201Z" fill="#26733D"/>
<path d="M751.86 341.451H749.844V365.188H755.831V362.158H753.877V360.075V347.764H751.86V343.724V341.451Z" fill="#122132" stroke="#122132" stroke-width="0.976215"/>
<path d="M745.699 341.452V370.252H747.674V368.037H749.775V341.452H745.699Z" fill="#182738" stroke="#182738" stroke-width="0.976215"/>
<rect x="747.668" y="345.313" width="0.886171" height="3.31195" transform="rotate(-90 747.668 345.313)" fill="#FF9315"/>
<rect x="743.598" y="345.566" width="2.02553" height="2.03813" transform="rotate(-90 743.598 345.566)" fill="#FF9315"/>
<rect x="747.668" y="347.338" width="0.886171" height="3.31195" transform="rotate(-90 747.668 347.338)" fill="#FF9315"/>
<rect x="747.668" y="349.346" width="0.886171" height="3.31195" transform="rotate(-90 747.668 349.346)" fill="#FF9315"/>
<rect x="546.977" y="614.515" width="12.9849" height="12.9849" fill="white"/>
<path d="M559.902 601.717H578.815V614.389H559.902V601.717Z" fill="white"/>
<path d="M528.992 601.529H546.977V614.514H528.992V601.529Z" fill="white"/>
<rect x="521.004" y="655.466" width="69.9186" height="12.9849" transform="rotate(-90 521.004 655.466)" fill="white"/>
<rect x="573.941" y="655.466" width="69.9186" height="12.9849" transform="rotate(-90 573.941 655.466)" fill="white"/>
<rect x="607.031" y="655.465" width="69.9186" height="13.1097" transform="rotate(-90 607.031 655.465)" fill="white"/>
<rect x="666.223" y="614.515" width="12.9849" height="12.9849" fill="white"/>
<path d="M679.211 627.499H698.195V640.484H679.211V627.499Z" fill="white"/>
<path d="M649.238 601.529H666.223V614.514H649.238V601.529Z" fill="white"/>
<rect x="640.25" y="655.466" width="69.9186" height="12.9849" transform="rotate(-90 640.25 655.466)" fill="white"/>
<rect x="693.184" y="655.466" width="69.9186" height="12.9849" transform="rotate(-90 693.184 655.466)" fill="white"/>
<rect x="767.328" y="642.356" width="43.6991" height="13.1097" transform="rotate(-90 767.328 642.356)" fill="white"/>
<path d="M735.375 642.356H767.342V655.465H735.375V642.356Z" fill="white"/>
<path d="M736.375 585.547H767.342V598.656H736.375V585.547Z" fill="white"/>
<rect x="726.258" y="655.466" width="69.9186" height="13.1097" transform="rotate(-90 726.258 655.466)" fill="white"/>
<rect x="841.621" y="611.767" width="13.1097" height="13.1097" transform="rotate(-90 841.621 611.767)" fill="white"/>
<rect x="841.621" y="655.466" width="13.1097" height="13.1097" transform="rotate(-90 841.621 655.466)" fill="white"/>
<path d="M828.523 642.356V620.876H841.633V642.356H828.523Z" fill="white"/>
<rect x="813.668" y="585.547" width="27.9674" height="13.1097" fill="white"/>
<path d="M810.668 611.767H841.635V624.876H810.668V611.767Z" fill="white"/>
<rect x="800.551" y="655.466" width="69.9186" height="13.1097" transform="rotate(-90 800.551 655.466)" fill="white"/>
<path d="M915.91 654.866H887.943V641.482H915.91V654.866Z" fill="white"/>
<rect x="929.027" y="585.547" width="55.9349" height="13.1097" transform="rotate(90 929.027 585.547)" fill="white"/>
<rect x="887.957" y="585.547" width="55.9349" height="13.1097" transform="rotate(90 887.957 585.547)" fill="white"/>
<rect x="975.105" y="614.514" width="12.9849" height="12.9849" fill="white"/>
<path d="M988.094 627.499H1006.08V640.484H988.094V627.499Z" fill="white"/>
<path d="M958.121 601.528H975.106V614.513H958.121V601.528Z" fill="white"/>
<rect x="949.133" y="655.466" width="69.9186" height="12.9849" transform="rotate(-90 949.133 655.466)" fill="white"/>
<rect x="1002.07" y="655.466" width="69.9186" height="12.9849" transform="rotate(-90 1002.07 655.466)" fill="white"/>
<g filter="url(#filter33_b_126_2)">
<rect x="473" y="137" width="590.462" height="442" fill="black" fill-opacity="0.87"/>
</g>
<rect x="473.847" y="137.847" width="588.769" height="440.307" stroke="#206234" stroke-width="1.69349"/>
<path d="M740.883 275.287V240.773H796.111V275.287H740.883Z" fill="#206234" stroke="#206234" stroke-width="1.12893"/>
<path d="M735.77 240.773V232.08H773.866V240.517L735.77 240.773Z" fill="#26733D" stroke="#26733D" stroke-width="1.12893"/>
<path d="M773.867 240.773V232.08H799.436V240.517L773.867 240.773Z" fill="#26733D" stroke="#26733D" stroke-width="1.12893"/>
<path d="M805.845 172H729.604V190.175H714.039V198.077H821.938V190.175H805.845V172Z" fill="#26733D" stroke="#26733D" stroke-width="1.12893"/>
<path d="M733.723 198.588H802.246V232.08H733.723V198.588Z" fill="black"/>
<rect x="767.219" y="232.08" width="6.64779" height="8.69238" fill="black"/>
<rect x="760.062" y="232.08" width="7.15915" height="8.69238" fill="black"/>
<rect x="775.66" y="208.815" width="7.67052" height="12.5273" fill="#FAFF15"/>
<rect x="752.902" y="208.815" width="7.15915" height="12.5273" fill="#FAFF15"/>
<rect x="734.496" y="180.437" width="4.09095" height="4.60185" fill="#FF9315"/>
<rect x="798.672" y="174.301" width="3.83526" height="4.85751" fill="#FF9315"/>
<rect x="738.586" y="185.039" width="9.97168" height="4.60185" fill="#FF9315"/>
<path fill-rule="evenodd" clip-rule="evenodd" d="M723.999 544.568H811.668V534.788H795.853V529.021H811.668V504.198H772.622V509.053H751.994V504.198H723.999V515.732H732.836V527.266H723.999V544.568Z" fill="#206234"/>
<rect x="753.559" y="516.053" width="7.55718" height="3.59866" fill="white"/>
<rect x="753.559" y="531.648" width="7.55718" height="3.59866" fill="white"/>
<rect x="749.961" y="531.407" width="11.7556" height="3.59866" transform="rotate(-90 749.961 531.407)" fill="white"/>
<rect x="761.117" y="531.407" width="11.7556" height="3.59866" transform="rotate(-90 761.117 531.407)" fill="white"/>
<path d="M776.926 516.053H780.886V520.446H776.926V516.053Z" fill="white"/>
<path d="M776.926 523.975H780.886V535.246H776.926V523.975Z" fill="white"/>
<rect x="773.359" y="520.44" width="3.56437" height="3.56437" fill="white"/>
<rect x="769.797" y="535.246" width="19.1928" height="3.56437" transform="rotate(-90 769.797 535.246)" fill="white"/>
</g>
<defs>
<filter id="filter0_i_126_2" x="138.75" y="332.155" width="8.50781" height="12.5068" filterUnits="userSpaceOnUse" color-interpolation-filters="sRGB">
<feFlood flood-opacity="0" result="BackgroundImageFix"/>
<feBlend mode="normal" in="SourceGraphic" in2="BackgroundImageFix" result="shape"/>
<feColorMatrix in="SourceAlpha" type="matrix" values="0 0 0 0 0 0 0 0 0 0 0 0 0 0 0 0 0 0 127 0" result="hardAlpha"/>
<feMorphology radius="110" operator="erode" in="SourceAlpha" result="effect1_innerShadow_126_2"/>
<feOffset dy="4"/>
<feGaussianBlur stdDeviation="7"/>
<feComposite in2="hardAlpha" operator="arithmetic" k2="-1" k3="1"/>
<feColorMatrix type="matrix" values="0 0 0 0 1 0 0 0 0 1 0 0 0 0 1 0 0 0 1 0"/>
<feBlend mode="normal" in2="shape" result="effect1_innerShadow_126_2"/>
</filter>
<filter id="filter1_i_126_2" x="534.051" y="509.745" width="8.50781" height="12.5068" filterUnits="userSpaceOnUse" color-interpolation-filters="sRGB">
<feFlood flood-opacity="0" result="BackgroundImageFix"/>
<feBlend mode="normal" in="SourceGraphic" in2="BackgroundImageFix" result="shape"/>
<feColorMatrix in="SourceAlpha" type="matrix" values="0 0 0 0 0 0 0 0 0 0 0 0 0 0 0 0 0 0 127 0" result="hardAlpha"/>
<feMorphology radius="110" operator="erode" in="SourceAlpha" result="effect1_innerShadow_126_2"/>
<feOffset dy="4"/>
<feGaussianBlur stdDeviation="7"/>
<feComposite in2="hardAlpha" operator="arithmetic" k2="-1" k3="1"/>
<feColorMatrix type="matrix" values="0 0 0 0 1 0 0 0 0 1 0 0 0 0 1 0 0 0 1 0"/>
<feBlend mode="normal" in2="shape" result="effect1_innerShadow_126_2"/>
</filter>
<filter id="filter2_i_126_2" x="1237.96" y="323.285" width="8.50781" height="12.5068" filterUnits="userSpaceOnUse" color-interpolation-filters="sRGB">
<feFlood flood-opacity="0" result="BackgroundImageFix"/>
<feBlend mode="normal" in="SourceGraphic" in2="BackgroundImageFix" result="shape"/>
<feColorMatrix in="SourceAlpha" type="matrix" values="0 0 0 0 0 0 0 0 0 0 0 0 0 0 0 0 0 0 127 0" result="hardAlpha"/>
<feMorphology radius="110" operator="erode" in="SourceAlpha" result="effect1_innerShadow_126_2"/>
<feOffset dy="4"/>
<feGaussianBlur stdDeviation="7"/>
<feComposite in2="hardAlpha" operator="arithmetic" k2="-1" k3="1"/>
<feColorMatrix type="matrix" values="0 0 0 0 1 0 0 0 0 1 0 0 0 0 1 0 0 0 1 0"/>
<feBlend mode="normal" in2="shape" result="effect1_innerShadow_126_2"/>
</filter>
<filter id="filter3_i_126_2" x="697.418" y="523.558" width="8.50781" height="12.5068" filterUnits="userSpaceOnUse" color-interpolation-filters="sRGB">
<feFlood flood-opacity="0" result="BackgroundImageFix"/>
<feBlend mode="normal" in="SourceGraphic" in2="BackgroundImageFix" result="shape"/>
<feColorMatrix in="SourceAlpha" type="matrix" values="0 0 0 0 0 0 0 0 0 0 0 0 0 0 0 0 0 0 127 0" result="hardAlpha"/>
<feMorphology radius="110" operator="erode" in="SourceAlpha" result="effect1_innerShadow_126_2"/>
<feOffset dy="4"/>
<feGaussianBlur stdDeviation="7"/>
<feComposite in2="hardAlpha" operator="arithmetic" k2="-1" k3="1"/>
<feColorMatrix type="matrix" values="0 0 0 0 1 0 0 0 0 1 0 0 0 0 1 0 0 0 1 0"/>
<feBlend mode="normal" in2="shape" result="effect1_innerShadow_126_2"/>
</filter>
<filter id="filter4_i_126_2" x="1032" y="505" width="8.50781" height="12.5068" filterUnits="userSpaceOnUse" color-interpolation-filters="sRGB">
<feFlood flood-opacity="0" result="BackgroundImageFix"/>
<feBlend mode="normal" in="SourceGraphic" in2="BackgroundImageFix" result="shape"/>
<feColorMatrix in="SourceAlpha" type="matrix" values="0 0 0 0 0 0 0 0 0 0 0 0 0 0 0 0 0 0 127 0" result="hardAlpha"/>
<feMorphology radius="110" operator="erode" in="SourceAlpha" result="effect1_innerShadow_126_2"/>
<feOffset dy="4"/>
<feGaussianBlur stdDeviation="7"/>
<feComposite in2="hardAlpha" operator="arithmetic" k2="-1" k3="1"/>
<feColorMatrix type="matrix" values="0 0 0 0 1 0 0 0 0 1 0 0 0 0 1 0 0 0 1 0"/>
<feBlend mode="normal" in2="shape" result="effect1_innerShadow_126_2"/>
</filter>
<filter id="filter5_i_126_2" x="367.492" y="225" width="8.50781" height="12.5068" filterUnits="userSpaceOnUse" color-interpolation-filters="sRGB">
<feFlood flood-opacity="0" result="BackgroundImageFix"/>
<feBlend mode="normal" in="SourceGraphic" in2="BackgroundImageFix" result="shape"/>
<feColorMatrix in="SourceAlpha" type="matrix" values="0 0 0 0 0 0 0 0 0 0 0 0 0 0 0 0 0 0 127 0" result="hardAlpha"/>
<feMorphology radius="110" operator="erode" in="SourceAlpha" result="effect1_innerShadow_126_2"/>
<feOffset dy="4"/>
<feGaussianBlur stdDeviation="7"/>
<feComposite in2="hardAlpha" operator="arithmetic" k2="-1" k3="1"/>
<feColorMatrix type="matrix" values="0 0 0 0 1 0 0 0 0 1 0 0 0 0 1 0 0 0 1 0"/>
<feBlend mode="normal" in2="shape" result="effect1_innerShadow_126_2"/>
</filter>
<filter id="filter6_i_126_2" x="498.195" y="367.637" width="8.50781" height="12.5068" filterUnits="userSpaceOnUse" color-interpolation-filters="sRGB">
<feFlood flood-opacity="0" result="BackgroundImageFix"/>
<feBlend mode="normal" in="SourceGraphic" in2="BackgroundImageFix" result="shape"/>
<feColorMatrix in="SourceAlpha" type="matrix" values="0 0 0 0 0 0 0 0 0 0 0 0 0 0 0 0 0 0 127 0" result="hardAlpha"/>
<feMorphology radius="110" operator="erode" in="SourceAlpha" result="effect1_innerShadow_126_2"/>
<feOffset dy="4"/>
<feGaussianBlur stdDeviation="7"/>
<feComposite in2="hardAlpha" operator="arithmetic" k2="-1" k3="1"/>
<feColorMatrix type="matrix" values="0 0 0 0 1 0 0 0 0 1 0 0 0 0 1 0 0 0 1 0"/>
<feBlend mode="normal" in2="shape" result="effect1_innerShadow_126_2"/>
</filter>
<filter id="filter7_i_126_2" x="915.781" y="183.284" width="8.50781" height="12.5068" filterUnits="userSpaceOnUse" color-interpolation-filters="sRGB">
<feFlood flood-opacity="0" result="BackgroundImageFix"/>
<feBlend mode="normal" in="SourceGraphic" in2="BackgroundImageFix" result="shape"/>
<feColorMatrix in="SourceAlpha" type="matrix" values="0 0 0 0 0 0 0 0 0 0 0 0 0 0 0 0 0 0 127 0" result="hardAlpha"/>
<feMorphology radius="110" operator="erode" in="SourceAlpha" result="effect1_innerShadow_126_2"/>
<feOffset dy="4"/>
<feGaussianBlur stdDeviation="7"/>
<feComposite in2="hardAlpha" operator="arithmetic" k2="-1" k3="1"/>
<feColorMatrix type="matrix" values="0 0 0 0 1 0 0 0 0 1 0 0 0 0 1 0 0 0 1 0"/>
<feBlend mode="normal" in2="shape" result="effect1_innerShadow_126_2"/>
</filter>
<filter id="filter8_i_126_2" x="1023.55" y="272.606" width="8.50781" height="12.5068" filterUnits="userSpaceOnUse" color-interpolation-filters="sRGB">
<feFlood flood-opacity="0" result="BackgroundImageFix"/>
<feBlend mode="normal" in="SourceGraphic" in2="BackgroundImageFix" result="shape"/>
<feColorMatrix in="SourceAlpha" type="matrix" values="0 0 0 0 0 0 0 0 0 0 0 0 0 0 0 0 0 0 127 0" result="hardAlpha"/>
<feMorphology radius="110" operator="erode" in="SourceAlpha" result="effect1_innerShadow_126_2"/>
<feOffset dy="4"/>
<feGaussianBlur stdDeviation="7"/>
<feComposite in2="hardAlpha" operator="arithmetic" k2="-1" k3="1"/>
<feColorMatrix type="matrix" values="0 0 0 0 1 0 0 0 0 1 0 0 0 0 1 0 0 0 1 0"/>
<feBlend mode="normal" in2="shape" result="effect1_innerShadow_126_2"/>
</filter>
<filter id="filter9_i_126_2" x="548.492" y="178" width="8.50781" height="12.5068" filterUnits="userSpaceOnUse" color-interpolation-filters="sRGB">
<feFlood flood-opacity="0" result="BackgroundImageFix"/>
<feBlend mode="normal" in="SourceGraphic" in2="BackgroundImageFix" result="shape"/>
<feColorMatrix in="SourceAlpha" type="matrix" values="0 0 0 0 0 0 0 0 0 0 0 0 0 0 0 0 0 0 127 0" result="hardAlpha"/>
<feMorphology radius="110" operator="erode" in="SourceAlpha" result="effect1_innerShadow_126_2"/>
<feOffset dy="4"/>
<feGaussianBlur stdDeviation="7"/>
<feComposite in2="hardAlpha" operator="arithmetic" k2="-1" k3="1"/>
<feColorMatrix type="matrix" values="0 0 0 0 1 0 0 0 0 1 0 0 0 0 1 0 0 0 1 0"/>
<feBlend mode="normal" in2="shape" result="effect1_innerShadow_126_2"/>
</filter>
<filter id="filter10_i_126_2" x="1471.49" y="91.2231" width="8.50781" height="12.5068" filterUnits="userSpaceOnUse" color-interpolation-filters="sRGB">
<feFlood flood-opacity="0" result="BackgroundImageFix"/>
<feBlend mode="normal" in="SourceGraphic" in2="BackgroundImageFix" result="shape"/>
<feColorMatrix in="SourceAlpha" type="matrix" values="0 0 0 0 0 0 0 0 0 0 0 0 0 0 0 0 0 0 127 0" result="hardAlpha"/>
<feMorphology radius="110" operator="erode" in="SourceAlpha" result="effect1_innerShadow_126_2"/>
<feOffset dy="4"/>
<feGaussianBlur stdDeviation="7"/>
<feComposite in2="hardAlpha" operator="arithmetic" k2="-1" k3="1"/>
<feColorMatrix type="matrix" values="0 0 0 0 1 0 0 0 0 1 0 0 0 0 1 0 0 0 1 0"/>
<feBlend mode="normal" in2="shape" result="effect1_innerShadow_126_2"/>
</filter>
<filter id="filter11_i_126_2" x="361.492" y="616.223" width="5.67188" height="9.67126" filterUnits="userSpaceOnUse" color-interpolation-filters="sRGB">
<feFlood flood-opacity="0" result="BackgroundImageFix"/>
<feBlend mode="normal" in="SourceGraphic" in2="BackgroundImageFix" result="shape"/>
<feColorMatrix in="SourceAlpha" type="matrix" values="0 0 0 0 0 0 0 0 0 0 0 0 0 0 0 0 0 0 127 0" result="hardAlpha"/>
<feMorphology radius="110" operator="erode" in="SourceAlpha" result="effect1_innerShadow_126_2"/>
<feOffset dy="4"/>
<feGaussianBlur stdDeviation="7"/>
<feComposite in2="hardAlpha" operator="arithmetic" k2="-1" k3="1"/>
<feColorMatrix type="matrix" values="0 0 0 0 1 0 0 0 0 1 0 0 0 0 1 0 0 0 1 0"/>
<feBlend mode="normal" in2="shape" result="effect1_innerShadow_126_2"/>
</filter>
<filter id="filter12_i_126_2" x="1162.89" y="199.29" width="5.67188" height="9.67126" filterUnits="userSpaceOnUse" color-interpolation-filters="sRGB">
<feFlood flood-opacity="0" result="BackgroundImageFix"/>
<feBlend mode="normal" in="SourceGraphic" in2="BackgroundImageFix" result="shape"/>
<feColorMatrix in="SourceAlpha" type="matrix" values="0 0 0 0 0 0 0 0 0 0 0 0 0 0 0 0 0 0 127 0" result="hardAlpha"/>
<feMorphology radius="110" operator="erode" in="SourceAlpha" result="effect1_innerShadow_126_2"/>
<feOffset dy="4"/>
<feGaussianBlur stdDeviation="7"/>
<feComposite in2="hardAlpha" operator="arithmetic" k2="-1" k3="1"/>
<feColorMatrix type="matrix" values="0 0 0 0 1 0 0 0 0 1 0 0 0 0 1 0 0 0 1 0"/>
<feBlend mode="normal" in2="shape" result="effect1_innerShadow_126_2"/>
</filter>
<filter id="filter13_i_126_2" x="917.492" y="327.223" width="5.67188" height="9.67126" filterUnits="userSpaceOnUse" color-interpolation-filters="sRGB">
<feFlood flood-opacity="0" result="BackgroundImageFix"/>
<feBlend mode="normal" in="SourceGraphic" in2="BackgroundImageFix" result="shape"/>
<feColorMatrix in="SourceAlpha" type="matrix" values="0 0 0 0 0 0 0 0 0 0 0 0 0 0 0 0 0 0 127 0" result="hardAlpha"/>
<feMorphology radius="110" operator="erode" in="SourceAlpha" result="effect1_innerShadow_126_2"/>
<feOffset dy="4"/>
<feGaussianBlur stdDeviation="7"/>
<feComposite in2="hardAlpha" operator="arithmetic" k2="-1" k3="1"/>
<feColorMatrix type="matrix" values="0 0 0 0 1 0 0 0 0 1 0 0 0 0 1 0 0 0 1 0"/>
<feBlend mode="normal" in2="shape" result="effect1_innerShadow_126_2"/>
</filter>
<filter id="filter14_i_126_2" x="1290.12" y="108.142" width="5.67188" height="9.67126" filterUnits="userSpaceOnUse" color-interpolation-filters="sRGB">
<feFlood flood-opacity="0" result="BackgroundImageFix"/>
<feBlend mode="normal" in="SourceGraphic" in2="BackgroundImageFix" result="shape"/>
<feColorMatrix in="SourceAlpha" type="matrix" values="0 0 0 0 0 0 0 0 0 0 0 0 0 0 0 0 0 0 127 0" result="hardAlpha"/>
<feMorphology radius="110" operator="erode" in="SourceAlpha" result="effect1_innerShadow_126_2"/>
<feOffset dy="4"/>
<feGaussianBlur stdDeviation="7"/>
<feComposite in2="hardAlpha" operator="arithmetic" k2="-1" k3="1"/>
<feColorMatrix type="matrix" values="0 0 0 0 1 0 0 0 0 1 0 0 0 0 1 0 0 0 1 0"/>
<feBlend mode="normal" in2="shape" result="effect1_innerShadow_126_2"/>
</filter>
<filter id="filter15_i_126_2" x="216.031" y="656.189" width="5.67188" height="9.67126" filterUnits="userSpaceOnUse" color-interpolation-filters="sRGB">
<feFlood flood-opacity="0" result="BackgroundImageFix"/>
<feBlend mode="normal" in="SourceGraphic" in2="BackgroundImageFix" result="shape"/>
<feColorMatrix in="SourceAlpha" type="matrix" values="0 0 0 0 0 0 0 0 0 0 0 0 0 0 0 0 0 0 127 0" result="hardAlpha"/>
<feMorphology radius="110" operator="erode" in="SourceAlpha" result="effect1_innerShadow_126_2"/>
<feOffset dy="4"/>
<feGaussianBlur stdDeviation="7"/>
<feComposite in2="hardAlpha" operator="arithmetic" k2="-1" k3="1"/>
<feColorMatrix type="matrix" values="0 0 0 0 1 0 0 0 0 1 0 0 0 0 1 0 0 0 1 0"/>
<feBlend mode="normal" in2="shape" result="effect1_innerShadow_126_2"/>
</filter>
<filter id="filter16_i_126_2" x="1243.49" y="659.223" width="5.67188" height="9.67126" filterUnits="userSpaceOnUse" color-interpolation-filters="sRGB">
<feFlood flood-opacity="0" result="BackgroundImageFix"/>
<feBlend mode="normal" in="SourceGraphic" in2="BackgroundImageFix" result="shape"/>
<feColorMatrix in="SourceAlpha" type="matrix" values="0 0 0 0 0 0 0 0 0 0 0 0 0 0 0 0 0 0 127 0" result="hardAlpha"/>
<feMorphology radius="110" operator="erode" in="SourceAlpha" result="effect1_innerShadow_126_2"/>
<feOffset dy="4"/>
<feGaussianBlur stdDeviation="7"/>
<feComposite in2="hardAlpha" operator="arithmetic" k2="-1" k3="1"/>
<feColorMatrix type="matrix" values="0 0 0 0 1 0 0 0 0 1 0 0 0 0 1 0 0 0 1 0"/>
<feBlend mode="normal" in2="shape" result="effect1_innerShadow_126_2"/>
</filter>
<filter id="filter17_i_126_2" x="1054.98" y="97.4121" width="5.67188" height="9.67126" filterUnits="userSpaceOnUse" color-interpolation-filters="sRGB">
<feFlood flood-opacity="0" result="BackgroundImageFix"/>
<feBlend mode="normal" in="SourceGraphic" in2="BackgroundImageFix" result="shape"/>
<feColorMatrix in="SourceAlpha" type="matrix" values="0 0 0 0 0 0 0 0 0 0 0 0 0 0 0 0 0 0 127 0" result="hardAlpha"/>
<feMorphology radius="110" operator="erode" in="SourceAlpha" result="effect1_innerShadow_126_2"/>
<feOffset dy="4"/>
<feGaussianBlur stdDeviation="7"/>
<feComposite in2="hardAlpha" operator="arithmetic" k2="-1" k3="1"/>
<feColorMatrix type="matrix" values="0 0 0 0 1 0 0 0 0 1 0 0 0 0 1 0 0 0 1 0"/>
<feBlend mode="normal" in2="shape" result="effect1_innerShadow_126_2"/>
</filter>
<filter id="filter18_i_126_2" x="1409.23" y="264.099" width="5.67188" height="9.67126" filterUnits="userSpaceOnUse" color-interpolation-filters="sRGB">
<feFlood flood-opacity="0" result="BackgroundImageFix"/>
<feBlend mode="normal" in="SourceGraphic" in2="BackgroundImageFix" result="shape"/>
<feColorMatrix in="SourceAlpha" type="matrix" values="0 0 0 0 0 0 0 0 0 0 0 0 0 0 0 0 0 0 127 0" result="hardAlpha"/>
<feMorphology radius="110" operator="erode" in="SourceAlpha" result="effect1_innerShadow_126_2"/>
<feOffset dy="4"/>
<feGaussianBlur stdDeviation="7"/>
<feComposite in2="hardAlpha" operator="arithmetic" k2="-1" k3="1"/>
<feColorMatrix type="matrix" values="0 0 0 0 1 0 0 0 0 1 0 0 0 0 1 0 0 0 1 0"/>
<feBlend mode="normal" in2="shape" result="effect1_innerShadow_126_2"/>
</filter>
<filter id="filter19_i_126_2" x="1117.14" y="445.579" width="5.67188" height="9.67126" filterUnits="userSpaceOnUse" color-interpolation-filters="sRGB">
<feFlood flood-opacity="0" result="BackgroundImageFix"/>
<feBlend mode="normal" in="SourceGraphic" in2="BackgroundImageFix" result="shape"/>
<feColorMatrix in="SourceAlpha" type="matrix" values="0 0 0 0 0 0 0 0 0 0 0 0 0 0 0 0 0 0 127 0" result="hardAlpha"/>
<feMorphology radius="110" operator="erode" in="SourceAlpha" result="effect1_innerShadow_126_2"/>
<feOffset dy="4"/>
<feGaussianBlur stdDeviation="7"/>
<feComposite in2="hardAlpha" operator="arithmetic" k2="-1" k3="1"/>
<feColorMatrix type="matrix" values="0 0 0 0 1 0 0 0 0 1 0 0 0 0 1 0 0 0 1 0"/>
<feBlend mode="normal" in2="shape" result="effect1_innerShadow_126_2"/>
</filter>
<filter id="filter20_i_126_2" x="1465" y="677" width="5.67188" height="9.67126" filterUnits="userSpaceOnUse" color-interpolation-filters="sRGB">
<feFlood flood-opacity="0" result="BackgroundImageFix"/>
<feBlend mode="normal" in="SourceGraphic" in2="BackgroundImageFix" result="shape"/>
<feColorMatrix in="SourceAlpha" type="matrix" values="0 0 0 0 0 0 0 0 0 0 0 0 0 0 0 0 0 0 127 0" result="hardAlpha"/>
<feMorphology radius="110" operator="erode" in="SourceAlpha" result="effect1_innerShadow_126_2"/>
<feOffset dy="4"/>
<feGaussianBlur stdDeviation="7"/>
<feComposite in2="hardAlpha" operator="arithmetic" k2="-1" k3="1"/>
<feColorMatrix type="matrix" values="0 0 0 0 1 0 0 0 0 1 0 0 0 0 1 0 0 0 1 0"/>
<feBlend mode="normal" in2="shape" result="effect1_innerShadow_126_2"/>
</filter>
<filter id="filter21_i_126_2" x="1465.49" y="403.223" width="5.67188" height="9.67126" filterUnits="userSpaceOnUse" color-interpolation-filters="sRGB">
<feFlood flood-opacity="0" result="BackgroundImageFix"/>
<feBlend mode="normal" in="SourceGraphic" in2="BackgroundImageFix" result="shape"/>
<feColorMatrix in="SourceAlpha" type="matrix" values="0 0 0 0 0 0 0 0 0 0 0 0 0 0 0 0 0 0 127 0" result="hardAlpha"/>
<feMorphology radius="110" operator="erode" in="SourceAlpha" result="effect1_innerShadow_126_2"/>
<feOffset dy="4"/>
<feGaussianBlur stdDeviation="7"/>
<feComposite in2="hardAlpha" operator="arithmetic" k2="-1" k3="1"/>
<feColorMatrix type="matrix" values="0 0 0 0 1 0 0 0 0 1 0 0 0 0 1 0 0 0 1 0"/>
<feBlend mode="normal" in2="shape" result="effect1_innerShadow_126_2"/>
</filter>
<filter id="filter22_i_126_2" x="271.492" y="127" width="5.67188" height="9.67126" filterUnits="userSpaceOnUse" color-interpolation-filters="sRGB">
<feFlood flood-opacity="0" result="BackgroundImageFix"/>
<feBlend mode="normal" in="SourceGraphic" in2="BackgroundImageFix" result="shape"/>
<feColorMatrix in="SourceAlpha" type="matrix" values="0 0 0 0 0 0 0 0 0 0 0 0 0 0 0 0 0 0 127 0" result="hardAlpha"/>
<feMorphology radius="110" operator="erode" in="SourceAlpha" result="effect1_innerShadow_126_2"/>
<feOffset dy="4"/>
<feGaussianBlur stdDeviation="7"/>
<feComposite in2="hardAlpha" operator="arithmetic" k2="-1" k3="1"/>
<feColorMatrix type="matrix" values="0 0 0 0 1 0 0 0 0 1 0 0 0 0 1 0 0 0 1 0"/>
<feBlend mode="normal" in2="shape" result="effect1_innerShadow_126_2"/>
</filter>
<filter id="filter23_i_126_2" x="250.492" y="382.223" width="5.67188" height="9.67126" filterUnits="userSpaceOnUse" color-interpolation-filters="sRGB">
<feFlood flood-opacity="0" result="BackgroundImageFix"/>
<feBlend mode="normal" in="SourceGraphic" in2="BackgroundImageFix" result="shape"/>
<feColorMatrix in="SourceAlpha" type="matrix" values="0 0 0 0 0 0 0 0 0 0 0 0 0 0 0 0 0 0 127 0" result="hardAlpha"/>
<feMorphology radius="110" operator="erode" in="SourceAlpha" result="effect1_innerShadow_126_2"/>
<feOffset dy="4"/>
<feGaussianBlur stdDeviation="7"/>
<feComposite in2="hardAlpha" operator="arithmetic" k2="-1" k3="1"/>
<feColorMatrix type="matrix" values="0 0 0 0 1 0 0 0 0 1 0 0 0 0 1 0 0 0 1 0"/>
<feBlend mode="normal" in2="shape" result="effect1_innerShadow_126_2"/>
</filter>
<filter id="filter24_i_126_2" x="596" y="54.0001" width="5.67188" height="9.6712" filterUnits="userSpaceOnUse" color-interpolation-filters="sRGB">
<feFlood flood-opacity="0" result="BackgroundImageFix"/>
<feBlend mode="normal" in="SourceGraphic" in2="BackgroundImageFix" result="shape"/>
<feColorMatrix in="SourceAlpha" type="matrix" values="0 0 0 0 0 0 0 0 0 0 0 0 0 0 0 0 0 0 127 0" result="hardAlpha"/>
<feMorphology radius="110" operator="erode" in="SourceAlpha" result="effect1_innerShadow_126_2"/>
<feOffset dy="4"/>
<feGaussianBlur stdDeviation="7"/>
<feComposite in2="hardAlpha" operator="arithmetic" k2="-1" k3="1"/>
<feColorMatrix type="matrix" values="0 0 0 0 1 0 0 0 0 1 0 0 0 0 1 0 0 0 1 0"/>
<feBlend mode="normal" in2="shape" result="effect1_innerShadow_126_2"/>
</filter>
<filter id="filter25_i_126_2" x="58.4922" y="452.223" width="5.67188" height="9.67126" filterUnits="userSpaceOnUse" color-interpolation-filters="sRGB">
<feFlood flood-opacity="0" result="BackgroundImageFix"/>
<feBlend mode="normal" in="SourceGraphic" in2="BackgroundImageFix" result="shape"/>
<feColorMatrix in="SourceAlpha" type="matrix" values="0 0 0 0 0 0 0 0 0 0 0 0 0 0 0 0 0 0 127 0" result="hardAlpha"/>
<feMorphology radius="110" operator="erode" in="SourceAlpha" result="effect1_innerShadow_126_2"/>
<feOffset dy="4"/>
<feGaussianBlur stdDeviation="7"/>
<feComposite in2="hardAlpha" operator="arithmetic" k2="-1" k3="1"/>
<feColorMatrix type="matrix" values="0 0 0 0 1 0 0 0 0 1 0 0 0 0 1 0 0 0 1 0"/>
<feBlend mode="normal" in2="shape" result="effect1_innerShadow_126_2"/>
</filter>
<filter id="filter26_i_126_2" x="1403.55" y="560.421" width="5.67188" height="9.67126" filterUnits="userSpaceOnUse" color-interpolation-filters="sRGB">
<feFlood flood-opacity="0" result="BackgroundImageFix"/>
<feBlend mode="normal" in="SourceGraphic" in2="BackgroundImageFix" result="shape"/>
<feColorMatrix in="SourceAlpha" type="matrix" values="0 0 0 0 0 0 0 0 0 0 0 0 0 0 0 0 0 0 127 0" result="hardAlpha"/>
<feMorphology radius="110" operator="erode" in="SourceAlpha" result="effect1_innerShadow_126_2"/>
<feOffset dy="4"/>
<feGaussianBlur stdDeviation="7"/>
<feComposite in2="hardAlpha" operator="arithmetic" k2="-1" k3="1"/>
<feColorMatrix type="matrix" values="0 0 0 0 1 0 0 0 0 1 0 0 0 0 1 0 0 0 1 0"/>
<feBlend mode="normal" in2="shape" result="effect1_innerShadow_126_2"/>
</filter>
<filter id="filter27_i_126_2" x="142.996" y="37.2504" width="8.50781" height="12.5068" filterUnits="userSpaceOnUse" color-interpolation-filters="sRGB">
<feFlood flood-opacity="0" result="BackgroundImageFix"/>
<feBlend mode="normal" in="SourceGraphic" in2="BackgroundImageFix" result="shape"/>
<feColorMatrix in="SourceAlpha" type="matrix" values="0 0 0 0 0 0 0 0 0 0 0 0 0 0 0 0 0 0 127 0" result="hardAlpha"/>
<feMorphology radius="110" operator="erode" in="SourceAlpha" result="effect1_innerShadow_126_2"/>
<feOffset dy="4"/>
<feGaussianBlur stdDeviation="7"/>
<feComposite in2="hardAlpha" operator="arithmetic" k2="-1" k3="1"/>
<feColorMatrix type="matrix" values="0 0 0 0 1 0 0 0 0 1 0 0 0 0 1 0 0 0 1 0"/>
<feBlend mode="normal" in2="shape" result="effect1_innerShadow_126_2"/>
</filter>
<filter id="filter28_i_126_2" x="454.492" y="82" width="8.50781" height="12.5068" filterUnits="userSpaceOnUse" color-interpolation-filters="sRGB">
<feFlood flood-opacity="0" result="BackgroundImageFix"/>
<feBlend mode="normal" in="SourceGraphic" in2="BackgroundImageFix" result="shape"/>
<feColorMatrix in="SourceAlpha" type="matrix" values="0 0 0 0 0 0 0 0 0 0 0 0 0 0 0 0 0 0 127 0" result="hardAlpha"/>
<feMorphology radius="110" operator="erode" in="SourceAlpha" result="effect1_innerShadow_126_2"/>
<feOffset dy="4"/>
<feGaussianBlur stdDeviation="7"/>
<feComposite in2="hardAlpha" operator="arithmetic" k2="-1" k3="1"/>
<feColorMatrix type="matrix" values="0 0 0 0 1 0 0 0 0 1 0 0 0 0 1 0 0 0 1 0"/>
<feBlend mode="normal" in2="shape" result="effect1_innerShadow_126_2"/>
</filter>
<filter id="filter29_i_126_2" x="1281.61" y="478.19" width="8.50781" height="12.5068" filterUnits="userSpaceOnUse" color-interpolation-filters="sRGB">
<feFlood flood-opacity="0" result="BackgroundImageFix"/>
<feBlend mode="normal" in="SourceGraphic" in2="BackgroundImageFix" result="shape"/>
<feColorMatrix in="SourceAlpha" type="matrix" values="0 0 0 0 0 0 0 0 0 0 0 0 0 0 0 0 0 0 127 0" result="hardAlpha"/>
<feMorphology radius="110" operator="erode" in="SourceAlpha" result="effect1_innerShadow_126_2"/>
<feOffset dy="4"/>
<feGaussianBlur stdDeviation="7"/>
<feComposite in2="hardAlpha" operator="arithmetic" k2="-1" k3="1"/>
<feColorMatrix type="matrix" values="0 0 0 0 1 0 0 0 0 1 0 0 0 0 1 0 0 0 1 0"/>
<feBlend mode="normal" in2="shape" result="effect1_innerShadow_126_2"/>
</filter>
<filter id="filter30_i_126_2" x="857.652" y="632.729" width="8.50781" height="12.5068" filterUnits="userSpaceOnUse" color-interpolation-filters="sRGB">
<feFlood flood-opacity="0" result="BackgroundImageFix"/>
<feBlend mode="normal" in="SourceGraphic" in2="BackgroundImageFix" result="shape"/>
<feColorMatrix in="SourceAlpha" type="matrix" values="0 0 0 0 0 0 0 0 0 0 0 0 0 0 0 0 0 0 127 0" result="hardAlpha"/>
<feMorphology radius="110" operator="erode" in="SourceAlpha" result="effect1_innerShadow_126_2"/>
<feOffset dy="4"/>
<feGaussianBlur stdDeviation="7"/>
<feComposite in2="hardAlpha" operator="arithmetic" k2="-1" k3="1"/>
<feColorMatrix type="matrix" values="0 0 0 0 1 0 0 0 0 1 0 0 0 0 1 0 0 0 1 0"/>
<feBlend mode="normal" in2="shape" result="effect1_innerShadow_126_2"/>
</filter>
<filter id="filter31_i_126_2" x="151.492" y="521.223" width="8.50781" height="12.5068" filterUnits="userSpaceOnUse" color-interpolation-filters="sRGB">
<feFlood flood-opacity="0" result="BackgroundImageFix"/>
<feBlend mode="normal" in="SourceGraphic" in2="BackgroundImageFix" result="shape"/>
<feColorMatrix in="SourceAlpha" type="matrix" values="0 0 0 0 0 0 0 0 0 0 0 0 0 0 0 0 0 0 127 0" result="hardAlpha"/>
<feMorphology radius="110" operator="erode" in="SourceAlpha" result="effect1_innerShadow_126_2"/>
<feOffset dy="4"/>
<feGaussianBlur stdDeviation="7"/>
<feComposite in2="hardAlpha" operator="arithmetic" k2="-1" k3="1"/>
<feColorMatrix type="matrix" values="0 0 0 0 1 0 0 0 0 1 0 0 0 0 1 0 0 0 1 0"/>
<feBlend mode="normal" in2="shape" result="effect1_innerShadow_126_2"/>
</filter>
<filter id="filter32_i_126_2" x="326.492" y="468.223" width="8.50781" height="12.5068" filterUnits="userSpaceOnUse" color-interpolation-filters="sRGB">
<feFlood flood-opacity="0" result="BackgroundImageFix"/>
<feBlend mode="normal" in="SourceGraphic" in2="BackgroundImageFix" result="shape"/>
<feColorMatrix in="SourceAlpha" type="matrix" values="0 0 0 0 0 0 0 0 0 0 0 0 0 0 0 0 0 0 127 0" result="hardAlpha"/>
<feMorphology radius="110" operator="erode" in="SourceAlpha" result="effect1_innerShadow_126_2"/>
<feOffset dy="4"/>
<feGaussianBlur stdDeviation="7"/>
<feComposite in2="hardAlpha" operator="arithmetic" k2="-1" k3="1"/>
<feColorMatrix type="matrix" values="0 0 0 0 1 0 0 0 0 1 0 0 0 0 1 0 0 0 1 0"/>
<feBlend mode="normal" in2="shape" result="effect1_innerShadow_126_2"/>
</filter>
<filter id="filter33_b_126_2" x="470.742" y="134.742" width="594.977" height="446.516" filterUnits="userSpaceOnUse" color-interpolation-filters="sRGB">
<feFlood flood-opacity="0" result="BackgroundImageFix"/>
<feGaussianBlur in="BackgroundImageFix" stdDeviation="1.12899"/>
<feComposite in2="SourceAlpha" operator="in" result="effect1_backgroundBlur_126_2"/>
<feBlend mode="normal" in="SourceGraphic" in2="effect1_backgroundBlur_126_2" result="shape"/>
</filter>
<clipPath id="clip0_126_2">
<rect width="1535" height="716" fill="white" transform="translate(0.996094)"/>
</clipPath>
</defs>
</svg>
