<svg width="1440" height="1080" viewBox="0 0 1440 1080" fill="none" xmlns="http://www.w3.org/2000/svg">
<g clip-path="url(#clip0_97_11858)">
<rect width="1440" height="1080" fill="#111111"/>
<rect x="1332.54" y="874.534" width="8.91884" height="8.91794" transform="rotate(180 1332.54 874.534)" fill="white"/>
<rect x="61.6094" y="427.15" width="8.91884" height="8.91794" transform="rotate(180 61.6094 427.15)" fill="white"/>
<rect x="578.902" y="881.965" width="8.91884" height="8.91794" transform="rotate(180 578.902 881.965)" fill="white"/>
<rect x="1213.94" y="417.853" width="8.91884" height="8.91794" transform="rotate(180 1213.94 417.853)" fill="white"/>
<rect x="647.281" y="627.804" width="8.91884" height="8.91794" transform="rotate(180 647.281 627.804)" fill="white"/>
<rect x="729.035" y="835.889" width="8.91884" height="8.91794" transform="rotate(180 729.035 835.889)" fill="white"/>
<rect x="974.34" y="565.406" width="8.91884" height="8.91794" transform="rotate(180 974.34 565.406)" fill="white"/>
<rect x="302.418" y="308.245" width="8.91884" height="8.91794" transform="rotate(180 302.418 308.245)" fill="white"/>
<rect x="438.43" y="464.347" width="8.91884" height="8.91794" transform="rotate(180 438.43 464.347)" fill="white"/>
<rect x="876.195" y="271.085" width="8.91884" height="8.91794" transform="rotate(180 876.195 271.085)" fill="white"/>
<rect x="989.168" y="364.724" width="8.91884" height="8.91794" transform="rotate(180 989.168 364.724)" fill="white"/>
<rect x="516.926" y="299.106" width="8.91884" height="8.91794" transform="rotate(180 516.926 299.106)" fill="white"/>
<rect x="1378.62" y="82.3232" width="8.91884" height="8.91794" transform="rotate(180 1378.62 82.3232)" fill="white"/>
<rect x="602.684" y="749.683" width="5.94589" height="5.9453" transform="rotate(180 602.684 749.683)" fill="white"/>
<rect x="1132.27" y="284.892" width="5.94589" height="5.9453" transform="rotate(180 1132.27 284.892)" fill="white"/>
<rect x="706.738" y="131.372" width="5.94589" height="5.9453" transform="rotate(180 706.738 131.372)" fill="white"/>
<rect x="883.625" y="611.454" width="5.94589" height="5.9453" transform="rotate(180 883.625 611.454)" fill="white"/>
<rect x="1265.65" y="189.339" width="5.94589" height="5.9453" transform="rotate(180 1265.65 189.339)" fill="white"/>
<rect x="262.281" y="870.075" width="5.94589" height="5.9453" transform="rotate(180 262.281 870.075)" fill="white"/>
<rect x="139.648" y="763.871" width="5.94589" height="5.9453" transform="rotate(180 139.648 763.871)" fill="white"/>
<rect x="1166.06" y="791.3" width="5.94589" height="5.9453" transform="rotate(180 1166.06 791.3)" fill="white"/>
<rect x="1019.14" y="178.091" width="5.94589" height="5.9453" transform="rotate(180 1019.14 178.091)" fill="white"/>
<rect x="1390.52" y="352.834" width="5.94589" height="5.9453" transform="rotate(180 1390.52 352.834)" fill="white"/>
<rect x="1060.38" y="691.945" width="5.94589" height="5.9453" transform="rotate(180 1060.38 691.945)" fill="white"/>
<rect x="1084.3" y="543.083" width="5.94589" height="5.9453" transform="rotate(180 1084.3 543.083)" fill="white"/>
<rect x="1204.71" y="91.2407" width="5.94589" height="5.9453" transform="rotate(180 1204.71 91.2407)" fill="white"/>
<rect x="91.3359" y="262.168" width="5.94589" height="5.9453" transform="rotate(180 91.3359 262.168)" fill="white"/>
<rect x="55.6641" y="578.755" width="5.94589" height="5.9453" transform="rotate(180 55.6641 578.755)" fill="white"/>
<rect x="1384.57" y="663.476" width="5.94589" height="5.9453" transform="rotate(180 1384.57 663.476)" fill="white"/>
<rect x="66.0664" y="117.995" width="8.91884" height="8.91794" transform="rotate(180 66.0664 117.995)" fill="white"/>
<rect x="341.066" y="113.539" width="8.91884" height="8.91794" transform="rotate(180 341.066 113.539)" fill="white"/>
<rect x="57.1484" y="913.178" width="8.91884" height="8.91794" transform="rotate(180 57.1484 913.178)" fill="white"/>
<rect x="1259.71" y="580.242" width="8.91884" height="8.91794" transform="rotate(180 1259.71 580.242)" fill="white"/>
<rect x="815.25" y="742.251" width="8.91884" height="8.91794" transform="rotate(180 815.25 742.251)" fill="white"/>
<rect x="176.066" y="552.001" width="8.91884" height="8.91794" transform="rotate(180 176.066 552.001)" fill="white"/>
<rect x="332.148" y="632.318" width="8.91884" height="8.91794" transform="rotate(180 332.148 632.318)" fill="white"/>
<rect x="75.9727" y="1013.64" width="8.91884" height="8.91794" fill="white"/>
<rect x="829.613" y="977.212" width="8.91884" height="8.91794" fill="white"/>
<rect x="679.48" y="1023.29" width="8.91884" height="8.91794" fill="white"/>
<rect x="1146.23" y="989.103" width="5.94589" height="5.9453" fill="white"/>
<rect x="242.457" y="1067.88" width="5.94589" height="5.9453" fill="white"/>
<rect x="443.133" y="1014.23" width="5.94589" height="5.9453" fill="white"/>
<rect x="1351.37" y="986.992" width="8.91884" height="8.91794" fill="white"/>
<path fill-rule="evenodd" clip-rule="evenodd" d="M907.903 744.971V805.528H850.787V818.603H907.903V911.503H874.184V956.92H907.903V1025H850.787V1038.07H907.903V1085.22H719.352V818.603H768.211V805.528H737.247V793.83H719.352V650.695V650.351H724.169V643.47H732.082V636.244H746.189V628.331H760.296V621.449H776.124V614.224H790.231V606.998H805.026V599.773H819.821V592.547H839.089V585.321H851.82V577.408H863.862V570.526H878.313V563.301H894.141V555.387H907.903V621.794H883.13V633.346H907.903V699.554H892.764V744.971H907.903Z" fill="#26733D"/>
<path fill-rule="evenodd" clip-rule="evenodd" d="M526.332 547.651V579.994H556.207V591.546H526.332V765.105H588.61V778.18H526.332V871.079H545.946V936.453H526.332V1096.92H719.357V799.512H661.553V786.438H719.357V643.304V642.96H710.067V636.078H702.153V628.853H687.702V620.939H672.907V614.057H658.112V606.832H644.005V599.606H629.21V592.381H614.415V585.155H599.964V577.93H585.168V570.36H570.717V563.135H555.922V555.565H540.783V547.651H526.332ZM591.001 1093.42H606.141V1048H591.001V1093.42Z" fill="#206234"/>
<path d="M774.771 119.509H762.934V221.93H775.286V177.668H787.124V234.283H799.99V519.571H810.799V199.285H822.636V185.388H832.93V174.58H844.253V156.051H832.93V167.374H796.388V156.051H789.697H785.579V152.963V130.318H774.771V119.509Z" fill="#A80000"/>
<path d="M659.998 119.509H671.836V221.93H659.484V177.668H647.646V234.283H634.779V517.107H623.971V199.285H612.133V185.388H601.84V174.58H590.517V156.051H601.84V167.374H638.382V156.051H645.073H649.19V152.963V130.318H659.998V119.509Z" fill="#A80000"/>
<path d="M705.289 96.8638H694.48V106.643H705.289V96.8638Z" stroke="black" stroke-width="0.61605"/>
<path d="M740.289 96.8638H729.48V106.643H740.289V96.8638Z" stroke="black" stroke-width="0.61605"/>
<path d="M822.121 119.509H796.387V129.803H822.121V119.509Z" fill="#A80000"/>
<path d="M638.894 119.509H613.16V129.803H638.894V119.509Z" fill="#A80000"/>
<path d="M693.965 248.179H683.156V257.958H693.965V248.179Z" stroke="black" stroke-width="0.61605"/>
<path d="M753.156 248.179H742.348V257.958H753.156V248.179Z" stroke="black" stroke-width="0.61605"/>
<path d="M591.031 83.4814H601.325V119.509H591.031V152.448H580.223V97.8925H591.031V83.4814Z" fill="white"/>
<path d="M601.84 71.1289H613.677V82.9665H601.84V71.1289Z" fill="white"/>
<path d="M844.77 82.9668H834.476V118.994H844.77V151.934H855.578V97.3778H844.77V82.9668Z" fill="white"/>
<path d="M833.961 70.6147H822.123V82.4524H833.961V70.6147Z" fill="white"/>
<path d="M762.935 14H672.866H671.836V23.2642H649.705V36.1312H626.03V47.9688H614.707V70.1H637.868V61.3505H671.836V221.93H659.484V177.668H647.646V246.12H660.513V258.987H671.836V303.25H683.159V349.571H694.997V291.412H683.159V269.281H694.997V280.604H704.776V349.571H729.995V280.604H741.833V269.281H752.641V291.412H741.833V349.571H752.641V303.25H762.935V258.987H775.287V246.12H787.125V177.668H775.287V221.93H762.935V61.3505H799.477V70.1H822.123V47.9688H810.285V36.1312H787.125V23.2642H762.935V14Z" fill="white"/>
<path d="M526.332 555.044V541.969H540.783V533.712H555.922V526.486H570.717V519.949H585.168V512.035H599.964V504.465H614.415V496.896H629.21V490.702H644.005V484.165H658.112V474.187H666.37V466.617H687.702V459.736H699.057V450.79H710.067V442.532H724.174V450.79H732.088V459.736H746.195V466.617H760.302V474.187H780.602V484.165H792.3V490.702H804.343V496.896H819.826V504.465H839.094V512.035H851.825V519.949H863.867V526.486H878.318V533.712H894.146V540.593H907.909V555.388H894.146V563.302H878.318V570.527H863.867V577.409H851.825V585.322H839.094V592.548H819.826V599.773H805.031V606.999H790.236V614.225H776.129V621.45H760.302V628.332H746.195V636.245H732.088V643.471H724.174V650.352H710.067V643.471H702.153V636.245H687.702V628.332H672.907V621.45H658.112V614.225H644.005V606.999H629.21V599.773H614.415V592.548H599.964V585.322H585.168V577.753H570.717V570.527H555.922V562.958H540.783V555.044H526.332Z" fill="#2D8647"/>
<rect x="926.113" y="585.912" width="58.734" height="15.1015" fill="white"/>
<rect x="897.586" y="601.013" width="58.734" height="15.1015" fill="white"/>
<rect x="495.047" y="889.208" width="58.734" height="15.1015" fill="white"/>
<rect x="466.52" y="904.309" width="58.734" height="15.1015" fill="white"/>
<rect x="572.785" y="691.332" width="77.1933" height="20.1353" transform="rotate(-180 572.785 691.332)" fill="white"/>
<rect x="515.727" y="677.907" width="77.1933" height="20.1353" transform="rotate(-180 515.727 677.907)" fill="white"/>
<rect width="63.3094" height="20.1353" transform="matrix(1 0 0 -1 699.836 727.359)" fill="white"/>
<rect width="63.3094" height="20.1353" transform="matrix(1 0 0 -1 746.633 713.935)" fill="white"/>
<rect width="63.3094" height="20.1353" transform="matrix(1 0 0 -1 621 1024.56)" fill="white"/>
<rect width="63.3094" height="20.1353" transform="matrix(1 0 0 -1 667.797 1011.14)" fill="white"/>
<rect x="824" y="941" width="85.0025" height="17.7894" fill="white"/>
<rect x="861.562" y="958.789" width="85.0025" height="17.7894" fill="white"/>
<rect x="518.598" y="495.077" width="85.0025" height="17.7894" fill="white"/>
<rect x="556.16" y="512.866" width="85.0025" height="17.7894" fill="white"/>
<path d="M701.086 459.593H698.41V453.832H712.102H733.474V459.593H728.54V481.961H723.117V459.593H706.34V481.961H701.086V459.593Z" fill="black" stroke="black" stroke-width="0.63956"/>
<path d="M695.449 415.667V409.752H736.85V415.493L695.449 415.667Z" fill="#26733D" stroke="#26733D" stroke-width="0.63956"/>
<path d="M698.41 426.228V415.667H733.474V426.228H698.41Z" fill="#206234" stroke="#206234" stroke-width="0.63956"/>
<path d="M695.449 415.667V409.752H736.85V415.667H695.449Z" fill="#26733D" stroke="#26733D" stroke-width="0.63956"/>
<path d="M698.41 453.688V426.229H733.474V453.688H698.41Z" fill="#26733D" stroke="#26733D" stroke-width="0.63956"/>
<path d="M740.487 371.309H691.51V383.001H681.512V388.085H750.824V383.001H740.487V371.309Z" fill="#26733D" stroke="#26733D" stroke-width="0.63956"/>
<path d="M694.051 388.254H738.113V409.775H694.051V388.254Z" fill="black"/>
<rect x="694.395" y="376.562" width="2.7115" height="3.05013" fill="#FF9315"/>
<rect x="735.742" y="372.834" width="2.7115" height="3.05013" fill="#FF9315"/>
<rect x="697.102" y="379.612" width="6.43982" height="3.05013" fill="#FF9315"/>
<path d="M700.945 481.992H706.538V492.329H700.945V481.992Z" fill="#26733D"/>
<path d="M722.91 481.992H728.672V492.329H722.91V481.992Z" fill="#26733D"/>
<path d="M694.531 426.262H691.688V459.93H700.128V455.632H697.374V452.677V435.216H694.531V429.486V426.262Z" fill="#122132" stroke="#122132" stroke-width="1.37622"/>
<path d="M685.848 426.262V467.112H688.631V463.97H691.594V426.262H685.848Z" fill="#182738" stroke="#182738" stroke-width="1.37622"/>
<rect x="688.633" y="431.738" width="1.25692" height="4.66904" transform="rotate(-90 688.633 431.738)" fill="#FF9315"/>
<rect x="682.887" y="432.098" width="2.87296" height="2.87325" transform="rotate(-90 682.887 432.098)" fill="#FF9315"/>
<rect x="688.633" y="434.612" width="1.25692" height="4.66904" transform="rotate(-90 688.633 434.612)" fill="#FF9315"/>
<rect x="688.633" y="437.459" width="1.25692" height="4.66904" transform="rotate(-90 688.633 437.459)" fill="#FF9315"/>
<rect x="408.609" y="800.256" width="18.3055" height="18.3055" fill="white"/>
<rect x="426.824" y="782.214" width="19.7136" height="17.8654" fill="white"/>
<rect x="390.301" y="781.95" width="18.3055" height="18.3055" fill="white"/>
<rect x="371.996" y="857.988" width="98.568" height="18.3055" transform="rotate(-90 371.996 857.988)" fill="white"/>
<rect x="446.629" y="857.988" width="98.568" height="18.3055" transform="rotate(-90 446.629 857.988)" fill="white"/>
<rect x="493.273" y="857.988" width="98.568" height="18.4815" transform="rotate(-90 493.273 857.988)" fill="white"/>
<rect x="576.707" y="800.256" width="18.3055" height="18.3055" fill="white"/>
<rect x="595.012" y="818.561" width="19.7136" height="18.3055" fill="white"/>
<rect x="558.398" y="781.95" width="18.3055" height="18.3055" fill="white"/>
<rect x="540.094" y="857.988" width="98.568" height="18.3055" transform="rotate(-90 540.094 857.988)" fill="white"/>
<rect x="614.727" y="857.988" width="98.568" height="18.3055" transform="rotate(-90 614.727 857.988)" fill="white"/>
<rect x="719.273" y="839.507" width="61.605" height="18.4815" transform="rotate(-90 719.273 839.507)" fill="white"/>
<rect x="679.848" y="839.507" width="39.4272" height="18.4815" fill="white"/>
<rect x="679.848" y="759.42" width="39.4272" height="18.4815" fill="white"/>
<rect x="661.367" y="857.988" width="98.568" height="18.4815" transform="rotate(-90 661.367 857.988)" fill="white"/>
<rect x="824.004" y="796.383" width="18.4815" height="18.4815" transform="rotate(-90 824.004 796.383)" fill="white"/>
<rect x="824.004" y="857.988" width="18.4815" height="18.4815" transform="rotate(-90 824.004 857.988)" fill="white"/>
<rect x="805.523" y="839.507" width="24.642" height="18.4815" transform="rotate(-90 805.523 839.507)" fill="white"/>
<rect x="784.578" y="759.42" width="39.4272" height="18.4815" fill="white"/>
<rect x="784.578" y="796.383" width="39.4272" height="18.4815" fill="white"/>
<rect x="766.098" y="857.988" width="98.568" height="18.4815" transform="rotate(-90 766.098 857.988)" fill="white"/>
<rect x="928.73" y="856.756" width="39.4272" height="18.4815" transform="rotate(-180 928.73 856.756)" fill="white"/>
<rect x="947.211" y="759.42" width="78.8544" height="18.4815" transform="rotate(90 947.211 759.42)" fill="white"/>
<rect x="889.305" y="759.42" width="78.8544" height="18.4815" transform="rotate(90 889.305 759.42)" fill="white"/>
<rect x="1012.17" y="800.256" width="18.3055" height="18.3055" fill="white"/>
<rect x="1030.47" y="818.561" width="19.7136" height="18.3055" fill="white"/>
<rect x="993.859" y="781.95" width="18.3055" height="18.3055" fill="white"/>
<rect x="975.555" y="857.988" width="98.568" height="18.3055" transform="rotate(-90 975.555 857.988)" fill="white"/>
<rect x="1050.19" y="857.988" width="98.568" height="18.3055" transform="rotate(-90 1050.19 857.988)" fill="white"/>
</g>
<defs>
<clipPath id="clip0_97_11858">
<rect width="1440" height="1080" fill="white"/>
</clipPath>
</defs>
</svg>
