<svg width="1024" height="1024" viewBox="0 0 1024 1024" fill="none" xmlns="http://www.w3.org/2000/svg">
<g clip-path="url(#clip0_425_9426)">
<rect width="1024" height="1024" fill="#111111"/>
<rect x="54" y="379.441" width="7.92786" height="7.92706" transform="rotate(180 54 379.441)" fill="white"/>
<rect x="513.812" y="783.721" width="7.92786" height="7.92706" transform="rotate(180 513.812 783.721)" fill="white"/>
<rect x="574.594" y="557.799" width="7.92786" height="7.92706" transform="rotate(180 574.594 557.799)" fill="white"/>
<rect x="647.266" y="742.764" width="7.92786" height="7.92706" transform="rotate(180 647.266 742.764)" fill="white"/>
<rect x="865.32" y="502.334" width="7.92786" height="7.92706" transform="rotate(180 865.32 502.334)" fill="white"/>
<rect x="268.055" y="273.746" width="7.92786" height="7.92706" transform="rotate(180 268.055 273.746)" fill="white"/>
<rect x="388.953" y="412.504" width="7.92786" height="7.92706" transform="rotate(180 388.953 412.504)" fill="white"/>
<rect x="778.078" y="240.716" width="7.92786" height="7.92706" transform="rotate(180 778.078 240.716)" fill="white"/>
<rect x="878.5" y="323.951" width="7.92786" height="7.92706" transform="rotate(180 878.5 323.951)" fill="white"/>
<rect x="458.727" y="265.624" width="7.92786" height="7.92706" transform="rotate(180 458.727 265.624)" fill="white"/>
<rect x="534.961" y="666.136" width="5.28524" height="5.28471" transform="rotate(180 534.961 666.136)" fill="white"/>
<rect x="1005.7" y="252.989" width="5.28524" height="5.28471" transform="rotate(180 1005.7 252.989)" fill="white"/>
<rect x="627.445" y="116.526" width="5.28524" height="5.28471" transform="rotate(180 627.445 116.526)" fill="white"/>
<rect x="784.68" y="543.266" width="5.28524" height="5.28471" transform="rotate(180 784.68 543.266)" fill="white"/>
<rect x="232.375" y="773.151" width="5.28524" height="5.28471" transform="rotate(180 232.375 773.151)" fill="white"/>
<rect x="123.375" y="678.748" width="5.28524" height="5.28471" transform="rotate(180 123.375 678.748)" fill="white"/>
<rect x="905.141" y="158.054" width="5.28524" height="5.28471" transform="rotate(180 905.141 158.054)" fill="white"/>
<rect x="875.391" y="748.285" width="5.28524" height="5.28471" transform="rotate(180 875.391 748.285)" fill="white"/>
<rect x="963.062" y="482.492" width="5.28524" height="5.28471" transform="rotate(180 963.062 482.492)" fill="white"/>
<rect x="80.4219" y="232.791" width="5.28524" height="5.28471" transform="rotate(180 80.4219 232.791)" fill="white"/>
<rect x="48.7109" y="514.2" width="5.28524" height="5.28471" transform="rotate(180 48.7109 514.2)" fill="white"/>
<rect x="57.9609" y="104.635" width="7.92786" height="7.92706" transform="rotate(180 57.9609 104.635)" fill="white"/>
<rect x="302.406" y="100.675" width="7.92786" height="7.92706" transform="rotate(180 302.406 100.675)" fill="white"/>
<rect x="50.0312" y="811.465" width="7.92786" height="7.92706" transform="rotate(180 50.0312 811.465)" fill="white"/>
<rect x="723.898" y="659.53" width="7.92786" height="7.92706" transform="rotate(180 723.898 659.53)" fill="white"/>
<rect x="155.742" y="490.42" width="7.92786" height="7.92706" transform="rotate(180 155.742 490.42)" fill="white"/>
<rect x="294.477" y="561.813" width="7.92786" height="7.92706" transform="rotate(180 294.477 561.813)" fill="white"/>
<path d="M561.048 235.46H550.562V326.184H561.504V286.977H571.99V337.126H583.387V589.832H592.961V306.124H603.447V293.815H612.565V284.241H623.045V264.072H612.565V277.859H580.196V267.829H574.269H570.622V265.093V245.034H561.048V235.46Z" fill="#A80000"/>
<path d="M459.381 235.46H469.867V326.184H458.926V286.977H448.44V337.126H437.042V587.649H427.468V306.124H416.983V293.815H407.865V284.241H398.291V264.334H407.865V277.859H440.234V267.829H446.16H449.808V265.093V245.034H459.381V235.46Z" fill="#A80000"/>
<path d="M499.504 215.4H489.93V224.062H499.504V215.4Z" stroke="black" stroke-width="0.545693"/>
<path d="M530.511 215.4H520.938V224.062H530.511V215.4Z" stroke="black" stroke-width="0.545693"/>
<path d="M602.998 235.46H580.203V244.578H602.998V235.46Z" fill="#A80000"/>
<path d="M440.693 235.46H417.898V244.578H440.693V235.46Z" fill="#A80000"/>
<path d="M489.48 349.434H479.906V358.096H489.48V349.434Z" stroke="black" stroke-width="0.545693"/>
<path d="M541.91 349.434H532.336V358.096H541.91V349.434Z" stroke="black" stroke-width="0.545693"/>
<path d="M398.293 203.547H407.411V235.46H398.293V264.638H388.719V216.312H398.293V203.547Z" fill="white"/>
<path d="M407.867 192.605H418.353V203.09H407.867V192.605Z" fill="white"/>
<path d="M623.059 203.092H613.941V235.005H623.059V264.182H632.633V215.857H623.059V203.092Z" fill="white"/>
<path d="M613.484 192.15H602.999V202.636H613.484V192.15Z" fill="white"/>
<path d="M550.557 142H470.774H469.863V150.206H450.259V161.604H429.288V172.089H419.258V191.693H439.773V183.943H469.863V326.184H458.921V286.976H448.435V347.611H459.833V359.008H469.863V398.216H479.892V439.247H490.378V387.73H479.892V368.126H490.378V378.156H499.04V439.247H521.379V378.156H531.865V368.126H541.439V387.73H531.865V439.247H541.439V398.216H550.557V359.008H561.499V347.611H571.984V286.976H561.499V326.184H550.557V183.943H582.926V191.693H602.985V172.089H592.5V161.604H571.984V150.206H550.557V142Z" fill="white"/>
<path d="M340.695 623.096V611.515H353.496V604.2H366.906V597.8H380.012V592.009H392.812V584.999H405.918V578.294H418.718V571.589H431.824V566.103H444.929V560.312H457.425V551.473H464.74V544.768H483.636V538.673H493.694V530.749H503.447V523.434H515.943V530.749H522.952V538.673H535.448V544.768H547.944V551.473H565.926V560.312H576.289V566.103H586.956V571.589H600.671V578.294H617.738V584.999H629.015V592.009H639.682V597.8H652.483V604.2H666.503V610.295H678.694V623.401H666.503V630.411H652.483V636.811H639.682V642.907H629.015V649.917H617.738V656.317H600.671V662.717H587.565V669.118H574.46V675.518H561.964V681.918H547.944V688.014H535.448V695.024H522.952V701.424H515.943V707.52H503.447V701.424H496.437V695.024H483.636V688.014H470.531V681.918H457.425V675.518H444.929V669.118H431.824V662.717H418.718V656.317H405.918V649.917H392.812V643.211H380.012V636.811H366.906V630.106H353.496V623.096H340.695Z" fill="#2D8647"/>
<path fill-rule="evenodd" clip-rule="evenodd" d="M678.698 844.973V791.333H665.288V751.102H678.698V692.456H656.754V682.222H678.698V623.4H666.507V630.41H652.487V636.81H639.686V642.906H629.019V649.916H617.742V656.316H600.675V662.716H587.569V669.117H574.464V675.517H561.968V681.917H547.948V688.013H535.452V695.023H522.956V701.423H515.947V707.519H511.68V707.824V834.612H527.531V844.974H554.954V856.556H511.68V1038.05H678.698V979.075H648.825V938.845H678.698V856.555H628.096V844.973H678.698Z" fill="#26733D"/>
<path fill-rule="evenodd" clip-rule="evenodd" d="M340.711 645.195V616.547H353.512V623.557H366.922V630.262H380.027V636.662H392.828V643.367H405.933V649.767H418.734V656.168H431.839V662.568H444.945V668.968H457.441V675.369H470.546V681.464H483.652V688.474H496.452V694.874H503.462V700.97H511.691V701.275V828.063H460.49V839.644H511.691V1067H340.711V1013.37H358.082V955.46H340.711V820.748H395.876V809.167H340.711V655.428H367.177V645.195H340.711Z" fill="#206234"/>
<rect x="646.305" y="690.485" width="52.0263" height="13.3768" fill="white"/>
<rect x="621.039" y="703.862" width="52.0263" height="13.3768" fill="white"/>
<rect x="312.984" y="979.737" width="52.0263" height="13.3768" fill="white"/>
<rect x="287.719" y="993.114" width="52.0263" height="13.3768" fill="white"/>
<path d="M312.992 987.871H339.746V1006.49H312.992V987.871Z" fill="white"/>
<rect x="353.914" y="703.727" width="68.3774" height="17.8358" transform="rotate(-180 353.914 703.727)" fill="white"/>
<rect x="303.375" y="691.836" width="68.3774" height="17.8358" transform="rotate(-180 303.375 691.836)" fill="white"/>
<rect width="56.0791" height="17.8358" transform="matrix(1 0 0 -1 469.891 713.429)" fill="white"/>
<rect width="56.0791" height="17.8358" transform="matrix(1 0 0 -1 511.336 701.539)" fill="white"/>
<rect x="625.406" y="971" width="75.2947" height="15.7578" fill="white"/>
<rect x="658.68" y="986.758" width="75.2947" height="15.7578" fill="white"/>
<path d="M658.688 979.768H700.709V1002.52H658.688V979.768Z" fill="white"/>
<rect x="333.852" y="569.977" width="75.2947" height="15.7578" fill="white"/>
<rect x="367.125" y="585.735" width="75.2947" height="15.7578" fill="white"/>
<path d="M367.133 578.745H409.138V601.492H367.133V578.745Z" fill="white"/>
<path d="M495.488 538.546H493.117V533.442H505.245H524.177V538.546H519.806V558.359H515.003V538.546H500.141V558.359H495.488V538.546Z" fill="black" stroke="black" stroke-width="0.566519"/>
<path d="M490.492 499.636V494.397H527.165V499.482L490.492 499.636Z" fill="#26733D" stroke="#26733D" stroke-width="0.566519"/>
<path d="M493.117 508.992V499.637H524.176V508.992H493.117Z" fill="#206234" stroke="#206234" stroke-width="0.566519"/>
<path d="M490.492 499.636V494.397H527.165V499.636H490.492Z" fill="#26733D" stroke="#26733D" stroke-width="0.566519"/>
<path d="M493.117 533.315V508.991H524.176V533.315H493.117Z" fill="#26733D" stroke="#26733D" stroke-width="0.566519"/>
<path d="M530.388 460.344H487.005V470.701H478.148V475.204H539.545V470.701H530.388V460.344Z" fill="#26733D" stroke="#26733D" stroke-width="0.566519"/>
<path d="M489.258 475.355H528.288V494.417H489.258V475.355Z" fill="black"/>
<rect x="489.555" y="464.998" width="2.40183" height="2.70179" fill="#FF9315"/>
<rect x="526.18" y="461.696" width="2.40183" height="2.70179" fill="#FF9315"/>
<rect x="491.953" y="467.699" width="5.70435" height="2.70179" fill="#FF9315"/>
<path d="M495.359 558.386H500.313V567.543H495.359V558.386Z" fill="#26733D"/>
<path d="M514.828 558.386H519.932V567.543H514.828V558.386Z" fill="#26733D"/>
<path d="M489.698 509.021H487.18V538.843H494.656V535.036H492.216V532.419V516.952H489.698V511.876V509.021Z" fill="#122132" stroke="#122132" stroke-width="1.21905"/>
<path d="M482.008 509.021V545.206H484.473V542.422H487.098V509.021H482.008Z" fill="#182738" stroke="#182738" stroke-width="1.21905"/>
<rect x="484.477" y="513.872" width="1.11337" height="4.13581" transform="rotate(-90 484.477 513.872)" fill="#FF9315"/>
<rect x="479.383" y="514.19" width="2.54485" height="2.54511" transform="rotate(-90 479.383 514.19)" fill="#FF9315"/>
<rect x="484.477" y="516.417" width="1.11337" height="4.13581" transform="rotate(-90 484.477 516.417)" fill="#FF9315"/>
<rect x="484.477" y="518.939" width="1.11337" height="4.13581" transform="rotate(-90 484.477 518.939)" fill="#FF9315"/>
<rect x="236.43" y="889.173" width="16.2149" height="16.2149" fill="white"/>
<path d="M252.562 873.191H273.52V889.017H252.562V873.191Z" fill="white"/>
<path d="M216.727 872.958H236.436V889.173H216.727V872.958Z" fill="white"/>
<rect x="204" y="940.311" width="87.3109" height="16.2149" transform="rotate(-90 204 940.311)" fill="white"/>
<rect x="270.109" y="940.311" width="87.3109" height="16.2149" transform="rotate(-90 270.109 940.311)" fill="white"/>
<rect x="311.43" y="940.311" width="87.3109" height="16.3708" transform="rotate(-90 311.43 940.311)" fill="white"/>
<rect x="385.328" y="889.173" width="16.2149" height="16.2149" fill="white"/>
<path d="M401.547 905.387H422.504V921.602H401.547V905.387Z" fill="white"/>
<path d="M365.625 872.958H385.335V889.173H365.625V872.958Z" fill="white"/>
<rect x="352.898" y="940.312" width="87.3109" height="16.2149" transform="rotate(-90 352.898 940.312)" fill="white"/>
<rect x="419.008" y="940.312" width="87.3109" height="16.2149" transform="rotate(-90 419.008 940.312)" fill="white"/>
<rect x="511.617" y="923.94" width="54.5693" height="16.3708" transform="rotate(-90 511.617 923.94)" fill="white"/>
<rect x="476.695" y="923.94" width="34.9244" height="16.3708" fill="white"/>
<rect x="476.695" y="853" width="34.9244" height="16.3708" fill="white"/>
<rect x="460.32" y="940.311" width="87.3109" height="16.3708" transform="rotate(-90 460.32 940.311)" fill="white"/>
<rect x="604.383" y="885.742" width="16.3708" height="16.3708" transform="rotate(-90 604.383 885.742)" fill="white"/>
<rect x="604.383" y="940.311" width="16.3708" height="16.3708" transform="rotate(-90 604.383 940.311)" fill="white"/>
<rect x="588.008" y="923.94" width="21.8277" height="16.3708" transform="rotate(-90 588.008 923.94)" fill="white"/>
<path d="M565.094 853H603.513V869.371H565.094V853Z" fill="white"/>
<path d="M565.961 885.742H604.38V902.113H565.961V885.742Z" fill="white"/>
<rect x="553.086" y="940.311" width="87.3109" height="16.3708" transform="rotate(-90 553.086 940.311)" fill="white"/>
<rect x="697.156" y="939.22" width="34.9244" height="16.3708" transform="rotate(-180 697.156 939.22)" fill="white"/>
<rect x="713.523" y="853" width="69.8488" height="16.3708" transform="rotate(90 713.523 853)" fill="white"/>
<rect x="662.227" y="853" width="69.8488" height="16.3708" transform="rotate(90 662.227 853)" fill="white"/>
<rect x="771.055" y="889.173" width="16.2149" height="16.2149" fill="white"/>
<path d="M787.273 905.387H809.104V921.602H787.273V905.387Z" fill="white"/>
<path d="M751.352 872.957H771.061V889.172H751.352V872.957Z" fill="white"/>
<rect x="738.625" y="940.312" width="87.3109" height="16.2149" transform="rotate(-90 738.625 940.312)" fill="white"/>
<rect x="804.734" y="940.312" width="87.3109" height="16.2149" transform="rotate(-90 804.734 940.312)" fill="white"/>
</g>
<defs>
<clipPath id="clip0_425_9426">
<rect width="1024" height="1024" fill="white"/>
</clipPath>
</defs>
</svg>
