<svg width="2560" height="1024" viewBox="0 0 2560 1024" fill="none" xmlns="http://www.w3.org/2000/svg">
<g clip-path="url(#clip0_420_7554)">
<rect width="2560" height="1024" fill="#111111"/>
<path fill-rule="evenodd" clip-rule="evenodd" d="M2193.02 0H2369.49V11.1999H2407.41V79.9959H2201.77V63.9971H2193.02V25.599H2228.02V11.1997H2193.02V0Z" fill="#206234"/>
<path fill-rule="evenodd" clip-rule="evenodd" d="M2407.41 235.282L2230.93 235.282V224.302H2193.01V156.854L2398.66 156.854V172.54H2407.41V210.185H2372.4V224.302H2407.41V235.282Z" fill="#206234"/>
<path fill-rule="evenodd" clip-rule="evenodd" d="M2193.02 79.9961H2407.41L2397.2 79.9961V114.504H2407.41V156.855H2193.02V125.484H2252.82V111.367H2193.02V79.9961Z" fill="white"/>
<path fill-rule="evenodd" clip-rule="evenodd" d="M2407.41 312.142H2203.22V277.634H2193.01V235.283L2407.41 235.283V266.653H2347.6V280.77H2407.41V312.142Z" fill="white"/>
<path fill-rule="evenodd" clip-rule="evenodd" d="M2407.41 778H2203.22V743.492H2193.01V701.141H2407.41V732.512L2347.6 732.512V746.629H2407.41V778Z" fill="white"/>
<path fill-rule="evenodd" clip-rule="evenodd" d="M2407.4 312.142H2230.93V323.121H2193V390.569H2398.65V374.883H2407.4V337.238H2372.39V323.121H2407.4V312.142Z" fill="#206234"/>
<path fill-rule="evenodd" clip-rule="evenodd" d="M2407.4 622.716H2230.93V633.695H2193V701.143H2398.65V685.458H2407.4V647.812H2372.39V633.695H2407.4V622.716Z" fill="#206234"/>
<path fill-rule="evenodd" clip-rule="evenodd" d="M2193.01 545.854H2369.48V534.874H2407.4V467.426H2201.76V483.112H2193.01V520.758H2228.02V534.875H2193.01V545.854Z" fill="#206234"/>
<path fill-rule="evenodd" clip-rule="evenodd" d="M2407.4 390.569H2203.21V425.077H2193V467.428H2407.4V436.056L2347.6 436.056V421.939H2407.4V390.569Z" fill="white"/>
<path fill-rule="evenodd" clip-rule="evenodd" d="M2193.01 622.716H2397.2V588.208H2407.4V545.857H2193.01V577.228H2252.81V591.345H2193.01V622.716Z" fill="white"/>
<rect x="1612.64" y="778" width="39.379" height="14.5833" fill="white"/>
<rect x="1577.63" y="778" width="27.7111" height="14.5833" fill="white"/>
<rect x="1532.42" y="778" width="36.462" height="14.5833" fill="white"/>
<rect x="1495.96" y="778" width="29.1696" height="14.5833" fill="white"/>
<rect x="1449.29" y="778" width="39.379" height="14.5833" fill="white"/>
<rect x="1431.79" y="778" width="13.1263" height="14.5833" fill="white"/>
<rect x="1659.31" y="778" width="11.6678" height="14.5833" fill="white"/>
<rect x="1332.61" y="778" width="17.5018" height="14.5833" fill="white"/>
<rect x="1284.48" y="778" width="40.8374" height="14.5833" fill="white"/>
<rect x="1245.1" y="778" width="32.0866" height="14.5833" fill="white"/>
<rect x="1205.72" y="778" width="32.0866" height="14.5833" fill="white"/>
<rect x="1166.34" y="778" width="32.0866" height="14.5833" fill="white"/>
<rect x="1121.13" y="778" width="37.9205" height="14.5833" fill="white"/>
<rect x="1102.17" y="778" width="11.6678" height="14.5833" fill="white"/>
<rect x="1008.83" y="778" width="11.6678" height="14.5833" fill="white"/>
<rect x="959.242" y="778" width="42.2959" height="14.5833" fill="white"/>
<rect x="916.945" y="778" width="35.0035" height="14.5833" fill="white"/>
<rect x="874.648" y="778" width="35.0035" height="14.5833" fill="white"/>
<rect x="841.102" y="778" width="26.2526" height="14.5833" fill="white"/>
<rect x="792.977" y="778" width="40.8374" height="14.5833" fill="white"/>
<rect x="772.555" y="778" width="13.1263" height="14.5833" fill="white"/>
<rect x="679.273" y="778" width="11.6678" height="14.5833" fill="white"/>
<rect x="629.688" y="778" width="42.2959" height="14.5833" fill="white"/>
<rect x="587.391" y="778" width="35.0035" height="14.5833" fill="white"/>
<rect x="545.094" y="778" width="35.0035" height="14.5833" fill="white"/>
<rect x="511.547" y="778" width="26.2526" height="14.5833" fill="white"/>
<rect x="463.422" y="778" width="40.8374" height="14.5833" fill="white"/>
<rect x="443" y="778" width="13.1263" height="14.5833" fill="white"/>
<path d="M808.594 734.174V695.473H811.939V703.356H820.301V711.001H827.946V726.051H851.121V718.485H858.289V734.174H851.121V765.708H843.476V734.174H819.823V765.708H812.416V734.174H808.594Z" fill="black" stroke="black" stroke-width="0.585043"/>
<path d="M849.859 718.094V695.464H858.295V718.094H849.859Z" fill="#206234" stroke="#206234" stroke-width="0.585043"/>
<path d="M803.82 672.061V663.938H838.225V671.822L803.82 672.061Z" fill="#26733D" stroke="#26733D" stroke-width="0.585043"/>
<path d="M808.602 687.35V672.3H858.297V687.35H808.602Z" fill="#206234" stroke="#206234" stroke-width="0.585043"/>
<path d="M811.625 695.464V679.98H853.316V695.464H811.625Z" fill="#206234" stroke="#206234" stroke-width="0.585043"/>
<path d="M819.961 702.611V688.318H850.931V707.375L833.064 709.162L819.961 702.611Z" fill="#206234" stroke="#206234" stroke-width="0.585043"/>
<path d="M808.594 695.233V687.35H812.178V695.233H820.54V702.61H831.052V713.143H824.725H820.54V703.117H812.178V695.233H808.594Z" fill="#26733D"/>
<path d="M812.178 695.233H808.594V687.35H812.178V695.233ZM812.178 695.233V703.117H820.54V702.61M812.178 695.233H820.54V702.61M820.54 702.61V713.143H824.725H831.052V702.61H820.54Z" stroke="#26733D" stroke-width="0.585043"/>
<path d="M853.312 694.274V687.128H858.289V695.465H853.312V699.038H858.289V706.78H853.908V712.735H850.93V702.016V695.465H852.121H853.312V694.274Z" fill="#26733D"/>
<path d="M853.312 695.465V687.128H858.289V695.465H853.312ZM853.312 695.465V699.038H858.289V706.78H853.908V712.735H850.93V702.016V695.465H852.121H853.312ZM853.312 695.465V694.274" stroke="#26733D" stroke-width="0.585043"/>
<path d="M850.648 672.061V663.938H861.639V671.822L850.648 672.061Z" fill="#26733D" stroke="#26733D" stroke-width="0.585043"/>
<path d="M867.371 609.709H798.323V626.193H784.227V633.36H881.945V626.193H867.371V609.709Z" fill="#26733D" stroke="#26733D" stroke-width="0.585043"/>
<path d="M801.906 633.599H864.025V663.938H801.906V633.599Z" fill="black"/>
<rect x="844.438" y="663.938" width="6.21191" height="8.12245" fill="black"/>
<rect x="838.219" y="663.938" width="6.21191" height="8.12245" fill="black"/>
<rect x="855.906" y="642.916" width="6.68975" height="11.467" fill="#FAFF15"/>
<rect x="834.883" y="642.916" width="6.68975" height="11.467" fill="#FAFF15"/>
<rect x="802.383" y="617.115" width="3.82272" height="4.30012" fill="#FF9315"/>
<rect x="860.688" y="611.859" width="3.82272" height="4.30012" fill="#FF9315"/>
<rect x="806.203" y="621.415" width="9.07895" height="4.30012" fill="#FF9315"/>
<path d="M812.18 765.947H820.064V780.52H812.18V765.947Z" fill="#26733D"/>
<path d="M843.242 765.947H851.366V780.52H843.242V765.947Z" fill="#26733D"/>
<path d="M850.887 702.383L838.477 702.373V725.812H850.887V702.383Z" fill="white"/>
<path d="M829.273 755.929H833.398V707.077H820.48V713.314H825.148V717.601V742.937H829.273V751.252V755.929Z" fill="#122132" stroke="#122132" stroke-width="0.585043"/>
<path d="M841.859 755.929L841.858 696.655H837.819L837.821 701.215H833.521V755.929H841.859Z" fill="#182738" stroke="#182738" stroke-width="0.585043"/>
<rect x="837.828" y="747.982" width="1.82382" height="6.77487" transform="rotate(90 837.828 747.982)" fill="#FF9315"/>
<rect x="846.164" y="747.462" width="4.16873" height="4.16915" transform="rotate(90 846.164 747.462)" fill="#FF9315"/>
<rect x="837.828" y="743.813" width="1.82382" height="6.77487" transform="rotate(90 837.828 743.813)" fill="#FF9315"/>
<rect x="837.828" y="752.151" width="1.82382" height="6.77487" transform="rotate(90 837.828 752.151)" fill="#FF9315"/>
<path fill-rule="evenodd" clip-rule="evenodd" d="M1276.33 27.8287L1253.47 30.5281L1254.72 41.0802L1247.68 41.9113L1249.13 54.2219L1263.2 52.5607L1262.37 45.5259L1269.41 44.6946L1271.28 60.5223L1264.23 61.3542L1265.9 75.4253L1258.87 76.2543L1259.91 85.0473L1252.88 85.8779L1253.92 94.6694L1245.11 95.7088L1245.94 102.743L1238.91 103.573L1239.74 110.609L1232.7 111.44L1233.53 118.474L1224.74 119.512L1225.78 128.305L1218.75 129.136L1220.41 143.206L1213.38 144.036L1216.08 166.897L1207.27 167.937L1213.71 222.455L1222.51 221.415L1225.01 242.52L1232.04 241.69L1234.11 259.276L1241.15 258.445L1241.77 263.722L1250.56 262.684L1251.6 271.477L1265.67 269.816L1251.13 146.71L1258.17 145.879L1255.68 124.775L1262.71 123.945L1261.88 116.912L1270.69 115.872L1269.65 107.079L1276.68 106.249L1275.64 97.4537L1284.42 96.4171L1282.76 82.3491L1289.81 81.5172L1288.15 67.4469L1296.94 66.4093L1294.03 41.7882L1285.24 42.8258L1284.2 34.0336L1277.17 34.8644L1276.33 27.8287ZM1254.88 178.365L1261.91 177.535L1263.78 193.363L1270.82 192.532L1271.85 201.325L1279.77 200.391L1280.39 205.667L1305.01 202.76L1304.39 197.484L1311.43 196.653L1310.39 187.86L1317.42 187.029L1315.56 171.201L1323.47 170.267L1322.54 162.353L1330.45 161.419L1329.62 154.384L1337.53 153.45L1336.7 146.415L1343.74 145.584L1342.6 135.912L1349.63 135.081L1348.7 127.167L1357.49 126.129L1356.56 118.215L1370.63 116.554L1369.9 110.399L1392.77 107.699L1391.93 100.665L1452.61 93.5008L1453.44 100.535L1477.19 97.7322L1478.12 105.646L1492.19 103.985L1492.92 110.14L1500.84 109.206L1501.98 118.878L1509.89 117.944L1510.72 124.979L1518.64 124.044L1519.52 123.94L1518.58 116.026L1511.55 116.857L1508.02 86.9599L1514.17 86.2331L1513.24 78.3192L1520.27 77.4886L1519.34 69.5747L1527.25 68.6403L1525.49 53.6917L1542.2 51.7191L1544.9 74.5815L1536.98 75.516L1537.92 83.4299L1529.12 84.4681L1530.89 99.4166L1546.72 97.5478L1547.44 103.703L1555.36 102.769L1556.4 111.562L1563.43 110.731L1564.37 118.645L1572.28 117.711L1575.81 147.608L1567.9 148.542L1568.73 155.577L1561.69 156.408L1562.63 164.321L1553.83 165.36L1555.7 181.188L1563.62 180.253L1570.78 240.927L1561.99 241.965L1564.58 263.948L1558.43 264.675L1560.4 281.382L1552.49 282.316L1553.52 291.11L1545.61 292.044L1546.23 297.32L1538.32 298.254L1539.25 306.168L1532.22 306.999L1533.15 314.913L1525.24 315.847L1527 330.796L1519.09 331.73L1521.06 348.437L1528.98 347.503L1529.91 355.417L1537.82 354.482L1538.65 361.517L1545.69 360.686L1546.62 368.6L1554.54 367.666L1556.3 382.614L1564.22 381.68L1566.09 397.508L1574 396.573L1581.06 456.368L1573.15 457.302L1576.06 481.923L1583.97 480.989L1585.53 494.179L1593.44 493.244L1596.25 516.986L1604.16 516.052L1609.46 560.897L1601.54 561.832L1604.24 584.694L1596.33 585.628L1598.2 601.456L1590.28 602.391L1592.05 617.339L1584.13 618.274L1584.86 624.429L1577.82 625.26L1578.86 634.053L1565.67 635.61L1566.81 645.283L1534.27 649.124L1534.9 654.4L1526.1 655.438L1527.04 663.352L1520 664.183L1520.94 672.097L1527.97 671.266L1529.63 685.335L1508.53 687.827L1507.91 682.551L1499.99 683.486L1496.46 653.589L1504.37 652.654L1503.34 643.861L1511.25 642.927L1510.32 635.013L1523.51 633.455L1522.57 625.541L1539.28 623.569L1538.24 614.775L1553.19 613.01L1552.47 606.855L1560.38 605.921L1557.79 583.938L1565.7 583.003L1561.86 550.468L1553.94 551.403L1552.28 537.333L1544.37 538.268L1543.43 530.354L1536.4 531.184L1535.46 523.271L1519.63 525.139L1518.7 517.225L1496.71 519.821L1495.88 512.786L1487.09 513.825L1488.02 521.739L1480.11 522.673L1480.94 529.708L1451.04 533.238L1451.97 541.152L1443.18 542.19L1445.15 558.897L1453.95 557.859L1454.57 563.135L1461.61 562.304L1462.64 571.097L1478.47 569.229L1480.24 584.177L1465.29 585.942L1464.35 578.028L1447.65 580.001L1446.81 572.966L1440.66 573.693L1439.62 564.9L1431.71 565.834L1430.77 557.92L1422.86 558.855L1414.96 492.026L1422.88 491.091L1419.14 459.436L1411.23 460.37L1405.93 415.525L1413.85 414.59L1412.08 399.642L1420 398.707L1418.13 382.879L1426.04 381.945L1423.24 358.203L1415.32 359.138L1414.49 352.103L1399.54 353.868L1398.61 345.954L1384.54 347.615L1383.6 339.701L1374.81 340.74L1373.98 333.705L1366.06 334.639L1365.23 327.605L1356.44 328.643L1355.4 319.85L1350.12 320.473L1349.19 312.559L1342.15 313.389L1341.32 306.355L1331.65 307.497L1329.88 292.548L1315.81 294.21L1314.88 286.296L1299.05 288.164L1298.22 281.13L1282.39 282.999L1281.56 275.964L1266.61 277.729L1254.88 178.365Z" fill="black"/>
<rect width="38.9629" height="6.08736" transform="matrix(0.993103 -0.117246 0.11727 0.9931 1477.83 224.038)" fill="#FAFF15"/>
<rect width="2.43518" height="6.08736" transform="matrix(0.993103 -0.117246 0.11727 0.9931 1495.97 221.896)" fill="black"/>
<rect width="4.87037" height="2.43495" transform="matrix(0.993103 -0.117246 0.11727 0.9931 1510.2 217.765)" fill="#FAFF15"/>
<rect width="2.43518" height="2.43495" transform="matrix(0.993103 -0.117246 0.11727 0.9931 1489.43 228.798)" fill="#FAFF15"/>
<rect width="38.9629" height="6.08736" transform="matrix(0.993103 -0.117246 0.11727 0.9931 1504.52 465.18)" fill="#FAFF15"/>
<rect width="2.43518" height="6.08736" transform="matrix(0.993103 -0.117246 0.11727 0.9931 1522.66 463.04)" fill="black"/>
<rect width="4.87037" height="2.43495" transform="matrix(0.993103 -0.117246 0.11727 0.9931 1536.88 458.908)" fill="#FAFF15"/>
<rect width="2.43518" height="2.43495" transform="matrix(0.993103 -0.117246 0.11727 0.9931 1516.12 469.942)" fill="#FAFF15"/>
<rect width="54.9023" height="8.57765" transform="matrix(0.993103 -0.117246 0.11727 0.9931 1443.05 412.815)" fill="#FAFF15"/>
<rect width="3.43139" height="8.57765" transform="matrix(0.993103 -0.117246 0.11727 0.9931 1468.62 409.797)" fill="black"/>
<rect width="6.86279" height="3.43106" transform="matrix(0.993103 -0.117246 0.11727 0.9931 1488.66 403.976)" fill="#FAFF15"/>
<rect width="3.43139" height="3.43106" transform="matrix(0.993103 -0.117246 0.11727 0.9931 1459.4 419.522)" fill="#FAFF15"/>
<rect width="56.6734" height="8.85435" transform="matrix(0.993103 -0.117246 0.11727 0.9931 1366.82 190.113)" fill="#FAFF15"/>
<rect width="56.6734" height="8.85435" transform="matrix(0.993103 -0.117246 0.11727 0.9931 1366.82 190.113)" fill="#FAFF15"/>
<rect width="3.54209" height="8.85435" transform="matrix(0.993103 -0.117246 0.11727 0.9931 1393.2 186.998)" fill="black"/>
<rect width="3.54209" height="3.54174" transform="matrix(0.993103 -0.117246 0.11727 0.9931 1366.41 186.595)" fill="#FAFF15"/>
<rect width="3.54209" height="3.54174" transform="matrix(0.993103 -0.117246 0.11727 0.9931 1416.91 191.333)" fill="#FAFF15"/>
<rect width="70.8417" height="11.0679" transform="matrix(0.993103 -0.117246 0.11727 0.9931 1382.17 274.784)" fill="#FAFF15"/>
<rect width="70.8417" height="11.0679" transform="matrix(0.993103 -0.117246 0.11727 0.9931 1382.17 274.784)" fill="#FAFF15"/>
<rect width="4.42761" height="11.0679" transform="matrix(0.993103 -0.117246 0.11727 0.9931 1415.16 270.892)" fill="black"/>
<rect width="4.42761" height="4.42717" transform="matrix(0.993103 -0.117246 0.11727 0.9931 1381.65 270.389)" fill="#FAFF15"/>
<rect width="4.42761" height="4.42717" transform="matrix(0.993103 -0.117246 0.11727 0.9931 1444.77 276.312)" fill="#FAFF15"/>
<path fill-rule="evenodd" clip-rule="evenodd" d="M711.298 656.249H690.875V760H724.422V778H690.875V911.458H772.55V893.958H752.128V885.208H772.55V778H762.342V769.5H772.55V698.541H750.669V689.791H772.55V643.125H711.298V656.249Z" fill="#206234"/>
<path fill-rule="evenodd" clip-rule="evenodd" d="M1077.38 650.416H1043.84V643.124H1020.5V841.458H1029.25V885.208H1020.5V911.457H1102.17V879.374H1091.96V870.624H1102.17V759.958H1084.67V741H1102.17V643.124H1077.38V650.416Z" fill="#206234"/>
<path fill-rule="evenodd" clip-rule="evenodd" d="M417.881 650.416H384.336V643.124H361V841.458H369.75V885.208H361V911.457H442.675V879.374H432.462V870.624H442.675V803.54H425.169V784.582H442.675V643.124H417.881V650.416Z" fill="#206234"/>
<path fill-rule="evenodd" clip-rule="evenodd" d="M361 792.584H1670.97V821.751H1639.77V826.126H1514.4V821.75H1453.97V826.126H1246.01V811.542H1236.27V826.126H1144.65V818.834H1045.23V826.126H953.601V811.542H943.854V826.126H815.192V821.751H785.952V826.126H719.692V821.751H674.856V826.126H555.942V811.542H544.246V826.126H361V792.584Z" fill="#206234"/>
<path fill-rule="evenodd" clip-rule="evenodd" d="M1350.12 659.167H1361.79V643.125H1431.8V669.375H1411.38V679.583H1431.8V867.708H1424.5V899.792H1431.8V911.458H1350.12V823.958H1396.8V816.667H1350.12V659.167Z" fill="#206234"/>
<path fill-rule="evenodd" clip-rule="evenodd" d="M1913.46 799.875H1825.02V778H1670.98V896.125H1699.51V910.708H1987.63V853.834H2013.31V910.708H2258.65V901.958H2324.27V910.708H2407V778H1913.46V799.875Z" fill="#206234"/>
<rect x="120" y="125" width="231.898" height="18.9583" fill="white"/>
<rect x="239.594" y="142.5" width="156.057" height="18.9583" fill="white"/>
<rect x="120" y="657" width="62.7146" height="18.9583" fill="white"/>
<rect x="159.383" y="665.75" width="62.7146" height="18.9583" fill="white"/>
<rect x="1792.03" y="86.0415" width="157.516" height="13.125" transform="rotate(-180 1792.03 86.0415)" fill="white"/>
<rect x="1710.36" y="74.375" width="105.011" height="13.125" transform="rotate(-180 1710.36 74.375)" fill="white"/>
<rect x="601.914" y="316.458" width="62.7146" height="18.9583" fill="white"/>
<rect x="641.297" y="325.208" width="62.7146" height="18.9583" fill="white"/>
<rect x="1102.17" y="370.417" width="62.7146" height="18.9583" fill="white"/>
<rect x="1141.55" y="379.167" width="62.7146" height="18.9583" fill="white"/>
<rect x="1792" y="297" width="62.7146" height="18.9583" fill="white"/>
<rect x="1831.38" y="305.75" width="62.7146" height="18.9583" fill="white"/>
<rect x="952.078" y="106" width="169.184" height="18.9583" fill="white"/>
<rect x="920" y="114.75" width="62.7146" height="18.9583" fill="white"/>
<rect x="1901.08" y="555" width="169.184" height="18.9583" fill="white"/>
<rect x="1869" y="563.75" width="62.7146" height="18.9583" fill="white"/>
<path fill-rule="evenodd" clip-rule="evenodd" d="M892 911.459H-81V937.709H2216.98V924.584H2262.08V937.709H2560V911.459H1555.42V923.126H1517.44V911.459H937.105V924.584H892V911.459Z" fill="white"/>
<path fill-rule="evenodd" clip-rule="evenodd" d="M1886.69 937.709H2463.16V987.292H2511.62V937.709H2606V1120H2606V1082.08H2557.53V1120H800.069V1106.88H371.547V1120H-5.94531V1060.21H147.099V1033.96H-5.94531V937.709H1845.88V974.168H1886.69V937.709Z" fill="#206234"/>
</g>
<defs>
<clipPath id="clip0_420_7554">
<rect width="2560" height="1024" fill="white"/>
</clipPath>
</defs>
</svg>
