<svg width="1281" height="1024" viewBox="0 0 1281 1024" fill="none" xmlns="http://www.w3.org/2000/svg">
<g clip-path="url(#clip0_422_8997)">
<rect width="1280" height="1024" transform="translate(0.898438)" fill="#111111"/>
<path fill-rule="evenodd" clip-rule="evenodd" d="M1097.26 15H1248.52V23.9251H1281.03V78.75H1104.76V66.0004H1097.26V35.4004H1127.26V23.9254H1097.26V15Z" fill="#206234"/>
<path fill-rule="evenodd" clip-rule="evenodd" d="M1281.02 202.5L1129.76 202.5V193.75H1097.25V140L1273.52 140V152.5H1281.02V182.5H1251.02V193.75H1281.02V202.5Z" fill="#206234"/>
<path fill-rule="evenodd" clip-rule="evenodd" d="M1281.02 697.5H1129.76V688.75H1097.25V635H1273.52V647.5H1281.02V677.5H1251.02V688.75H1281.02V697.5Z" fill="#206234"/>
<path fill-rule="evenodd" clip-rule="evenodd" d="M1097.26 78.75H1272.28V106.25H1281.03V140H1097.26V114.999H1148.51V103.749H1097.26V78.75Z" fill="white"/>
<path fill-rule="evenodd" clip-rule="evenodd" d="M1097.26 -46H1272.28V-18.5H1281.03V15.25H1097.26V-9.75065H1148.51V-21.0006H1097.26V-46Z" fill="white"/>
<path fill-rule="evenodd" clip-rule="evenodd" d="M1281.02 263.75H1106.01V236.25H1097.25V202.5L1281.02 202.5V227.5L1229.77 227.5V238.75H1281.02V263.75Z" fill="white"/>
<path fill-rule="evenodd" clip-rule="evenodd" d="M1281.02 635H1106.01V607.5H1097.25V573.75H1281.02V598.75H1229.77V610H1281.02V635Z" fill="white"/>
<path fill-rule="evenodd" clip-rule="evenodd" d="M1281.03 264H1129.77V272.75H1097.26V326.5H1273.53V314H1281.03V284H1251.03V272.75H1281.03V264Z" fill="#206234"/>
<path fill-rule="evenodd" clip-rule="evenodd" d="M1281.03 511.5H1129.77V520.25H1097.26V574H1273.53V561.5H1281.03V531.5H1251.03V520.25H1281.03V511.5Z" fill="#206234"/>
<path fill-rule="evenodd" clip-rule="evenodd" d="M1097.27 450.25H1248.53V441.5H1281.03V387.75H1104.77V400.25H1097.27V430.25H1127.27V441.5H1097.27V450.25Z" fill="#206234"/>
<path fill-rule="evenodd" clip-rule="evenodd" d="M1281.03 326.5H1106.01V354H1097.26V387.75H1281.03V362.749H1229.77V351.499H1281.03V326.5Z" fill="white"/>
<path fill-rule="evenodd" clip-rule="evenodd" d="M1097.27 511.5H1272.28V484H1281.03V450.25H1097.27V475.25L1148.52 475.25V486.5H1097.27V511.5Z" fill="white"/>
<rect x="908.484" y="697.25" width="33.7534" height="12.5" fill="white"/>
<rect x="878.484" y="697.25" width="23.7524" height="12.5" fill="white"/>
<rect x="839.727" y="697.25" width="31.2531" height="12.5" fill="white"/>
<rect x="808.477" y="697.25" width="25.0025" height="12.5" fill="white"/>
<rect x="768.477" y="697.25" width="33.7534" height="12.5" fill="white"/>
<rect x="753.469" y="697.25" width="11.2511" height="12.5" fill="white"/>
<rect x="948.492" y="697.25" width="10.001" height="12.5" fill="white"/>
<rect x="668.461" y="697.25" width="15.0015" height="12.5" fill="white"/>
<rect x="627.211" y="697.25" width="35.0035" height="12.5" fill="white"/>
<rect x="593.453" y="697.25" width="27.5028" height="12.5" fill="white"/>
<rect x="559.703" y="697.25" width="27.5028" height="12.5" fill="white"/>
<rect x="525.945" y="697.25" width="27.5028" height="12.5" fill="white"/>
<rect x="487.195" y="697.25" width="32.5033" height="12.5" fill="white"/>
<rect x="470.945" y="697.25" width="10.001" height="12.5" fill="white"/>
<rect x="390.938" y="697.25" width="10.001" height="12.5" fill="white"/>
<rect x="348.43" y="697.25" width="36.2536" height="12.5" fill="white"/>
<rect x="312.18" y="697.25" width="30.003" height="12.5" fill="white"/>
<rect x="275.922" y="697.25" width="30.003" height="12.5" fill="white"/>
<rect x="247.172" y="697.25" width="22.5023" height="12.5" fill="white"/>
<rect x="205.914" y="697.25" width="35.0035" height="12.5" fill="white"/>
<rect x="188.414" y="697.25" width="11.2511" height="12.5" fill="white"/>
<path d="M219.305 657.684V624.512H222.172V631.269H229.339V637.822H235.893V650.722H255.757V644.237H261.901V657.684H255.757V684.713H249.204V657.684H228.93V684.713H222.581V657.684H219.305Z" fill="black" stroke="black" stroke-width="0.501465"/>
<path d="M254.68 643.902V624.505H261.91V643.902H254.68Z" fill="#206234" stroke="#206234" stroke-width="0.501465"/>
<path d="M215.219 604.445V597.482H244.708V604.24L215.219 604.445Z" fill="#26733D" stroke="#26733D" stroke-width="0.501465"/>
<path d="M219.312 617.55V604.649H261.908V617.55H219.312Z" fill="#206234" stroke="#206234" stroke-width="0.501465"/>
<path d="M221.906 624.504V611.232H257.641V624.504H221.906Z" fill="#206234" stroke="#206234" stroke-width="0.501465"/>
<path d="M229.055 630.63V618.38H255.601V634.714L240.286 636.245L229.055 630.63Z" fill="#206234" stroke="#206234" stroke-width="0.501465"/>
<path d="M219.305 624.307V617.55H222.377V624.307H229.544V630.63H238.555V639.659H233.131H229.544V631.064H222.377V624.307H219.305Z" fill="#26733D"/>
<path d="M222.377 624.307H219.305V617.55H222.377V624.307ZM222.377 624.307V631.064H229.544V630.63M222.377 624.307H229.544V630.63M229.544 630.63V639.659H233.131H238.555V630.63H229.544Z" stroke="#26733D" stroke-width="0.501465"/>
<path d="M257.644 623.484V617.359H261.909V624.505H257.644V627.568H261.909V634.204H258.154V639.308H255.602V630.12V624.505H256.623H257.644V623.484Z" fill="#26733D"/>
<path d="M257.644 624.505V617.359H261.909V624.505H257.644ZM257.644 624.505V627.568H261.909V634.204H258.154V639.308H255.602V630.12V624.505H256.623H257.644ZM257.644 624.505V623.484" stroke="#26733D" stroke-width="0.501465"/>
<path d="M255.352 604.445V597.482H264.772V604.24L255.352 604.445Z" fill="#26733D" stroke="#26733D" stroke-width="0.501465"/>
<path d="M269.688 551H210.504V565.129H198.422V571.272H282.18V565.129H269.688V551Z" fill="#26733D" stroke="#26733D" stroke-width="0.501465"/>
<path d="M213.578 571.477H266.823V597.483H213.578V571.477Z" fill="black"/>
<rect x="250.031" y="597.482" width="5.3245" height="6.9621" fill="black"/>
<rect x="244.703" y="597.482" width="5.3245" height="6.9621" fill="black"/>
<rect x="259.859" y="579.463" width="5.73407" height="9.82885" fill="#FAFF15"/>
<rect x="241.836" y="579.463" width="5.73407" height="9.82885" fill="#FAFF15"/>
<rect x="213.984" y="557.348" width="3.27661" height="3.68582" fill="#FF9315"/>
<rect x="263.953" y="552.843" width="3.27661" height="3.68582" fill="#FF9315"/>
<rect x="217.266" y="561.034" width="7.78196" height="3.68582" fill="#FF9315"/>
<path d="M222.383 684.919H229.141V697.41H222.383V684.919Z" fill="#26733D"/>
<path d="M249.008 684.919H255.971V697.41H249.008V684.919Z" fill="#26733D"/>
<path d="M255.559 630.435L244.922 630.427V650.517H255.559V630.435Z" fill="white"/>
<path d="M237.034 676.332H240.57V634.458H229.498V639.804H233.498V643.479V665.195H237.034V672.323V676.332Z" fill="#122132" stroke="#122132" stroke-width="0.501465"/>
<path d="M247.828 676.332L247.827 625.525H244.365L244.366 629.434H240.681V676.332H247.828Z" fill="#182738" stroke="#182738" stroke-width="0.501465"/>
<rect x="244.367" y="669.52" width="1.56327" height="5.80703" transform="rotate(90 244.367 669.52)" fill="#FF9315"/>
<rect x="251.516" y="669.074" width="3.5732" height="3.57356" transform="rotate(90 251.516 669.074)" fill="#FF9315"/>
<rect x="244.367" y="665.947" width="1.56327" height="5.80703" transform="rotate(90 244.367 665.947)" fill="#FF9315"/>
<rect x="244.367" y="673.094" width="1.56327" height="5.80703" transform="rotate(90 244.367 673.094)" fill="#FF9315"/>
<path fill-rule="evenodd" clip-rule="evenodd" d="M652.378 111.154L635.067 113.198L636.011 121.187L630.682 121.816L631.782 131.137L642.435 129.879L641.806 124.552L647.135 123.923L648.55 135.907L643.221 136.536L644.479 147.189L639.158 147.817L639.944 154.474L634.617 155.103L635.403 161.76L628.742 162.547L629.371 167.872L624.044 168.501L624.673 173.828L619.346 174.457L619.975 179.783L613.317 180.569L614.103 187.225L608.776 187.854L610.033 198.507L604.71 199.135L606.754 216.445L600.096 217.231L604.97 258.507L611.629 257.721L613.515 273.699L618.838 273.07L620.41 286.385L625.738 285.756L626.21 289.751L632.868 288.965L633.654 295.622L644.307 294.365L633.301 201.159L638.628 200.531L636.741 184.553L642.068 183.924L641.439 178.599L648.1 177.812L647.314 171.156L652.642 170.527L651.855 163.868L658.507 163.083L657.25 152.431L662.578 151.802L661.32 141.15L667.98 140.364L665.778 121.723L659.119 122.509L658.333 115.852L653.007 116.48L652.378 111.154ZM636.131 225.127L641.458 224.498L642.873 236.481L648.199 235.852L648.985 242.51L654.978 241.802L655.449 245.797L674.092 243.596L673.62 239.601L678.947 238.972L678.161 232.315L683.487 231.686L682.072 219.703L688.065 218.995L687.357 213.004L693.349 212.296L692.72 206.97L698.713 206.263L698.084 200.937L703.41 200.308L702.546 192.985L707.872 192.356L707.165 186.364L713.823 185.578L713.115 179.586L723.768 178.329L723.218 173.668L740.529 171.625L739.9 166.299L785.841 160.875L786.47 166.201L804.447 164.078L805.155 170.07L815.808 168.812L816.358 173.473L822.35 172.765L823.215 180.088L829.207 179.381L829.836 184.707L835.828 183.999L836.494 183.921L835.787 177.929L830.46 178.558L827.787 155.923L832.448 155.372L831.74 149.381L837.067 148.752L836.359 142.76L842.352 142.053L841.015 130.735L853.666 129.241L855.71 146.551L849.717 147.258L850.425 153.25L843.767 154.036L845.103 165.354L857.088 163.939L857.638 168.599L863.631 167.892L864.417 174.549L869.743 173.92L870.451 179.912L876.443 179.204L879.116 201.84L873.124 202.547L873.752 207.873L868.426 208.502L869.134 214.494L862.475 215.28L863.89 227.263L869.883 226.556L875.307 272.492L868.649 273.278L870.614 289.922L865.954 290.472L867.447 303.121L861.455 303.829L862.241 310.486L856.249 311.194L856.721 315.188L850.728 315.896L851.436 321.887L846.109 322.516L846.817 328.508L840.824 329.215L842.161 340.533L836.169 341.241L837.662 353.89L843.655 353.182L844.362 359.174L850.354 358.467L850.983 363.792L856.31 363.164L857.017 369.155L863.01 368.448L864.346 379.766L870.338 379.058L871.754 391.042L877.746 390.334L883.092 435.605L877.099 436.312L879.3 454.953L885.293 454.246L886.472 464.232L892.464 463.524L894.587 481.5L900.579 480.792L904.589 514.745L898.596 515.453L900.64 532.762L894.648 533.469L896.063 545.453L890.071 546.16L891.407 557.478L885.415 558.185L885.965 562.846L880.639 563.475L881.425 570.132L871.438 571.311L872.302 578.634L847.667 581.543L848.139 585.537L841.481 586.323L842.188 592.315L836.862 592.944L837.569 598.936L842.896 598.307L844.154 608.959L828.174 610.845L827.702 606.851L821.71 607.558L819.037 584.923L825.03 584.215L824.243 577.558L830.236 576.85L829.528 570.859L839.515 569.68L838.808 563.688L851.458 562.194L850.672 555.537L861.991 554.201L861.441 549.54L867.433 548.833L865.468 532.189L871.46 531.482L868.551 506.849L862.559 507.557L861.301 496.905L855.309 497.612L854.601 491.62L849.275 492.249L848.567 486.258L836.583 487.673L835.875 481.681L819.23 483.646L818.601 478.32L811.943 479.106L812.65 485.098L806.658 485.805L807.287 491.131L784.649 493.804L785.357 499.796L778.699 500.582L780.192 513.231L786.85 512.445L787.322 516.439L792.649 515.81L793.435 522.468L805.419 521.053L806.756 532.371L795.437 533.707L794.729 527.715L782.079 529.209L781.45 523.883L776.789 524.433L776.003 517.775L770.011 518.483L769.303 512.491L763.311 513.199L757.336 462.602L763.329 461.895L760.499 437.928L754.506 438.635L750.497 404.682L756.489 403.975L755.153 392.657L761.145 391.95L759.73 379.966L765.722 379.259L763.6 361.284L757.608 361.991L756.979 356.665L745.66 358.001L744.952 352.01L734.299 353.267L733.592 347.276L726.934 348.062L726.305 342.736L720.312 343.443L719.683 338.117L713.025 338.903L712.239 332.246L708.244 332.717L707.537 326.726L702.21 327.355L701.581 322.029L694.257 322.893L692.921 311.576L682.268 312.833L681.56 306.842L669.576 308.257L668.947 302.931L656.962 304.345L656.333 299.019L645.015 300.356L636.131 225.127Z" fill="black"/>
<rect width="29.4992" height="4.6088" transform="matrix(0.993103 -0.117246 0.11727 0.9931 804.938 259.706)" fill="#FAFF15"/>
<rect width="1.8437" height="4.6088" transform="matrix(0.993103 -0.117246 0.11727 0.9931 818.664 258.084)" fill="black"/>
<rect width="3.6874" height="1.84352" transform="matrix(0.993103 -0.117246 0.11727 0.9931 829.438 254.957)" fill="#FAFF15"/>
<rect width="1.8437" height="1.84352" transform="matrix(0.993103 -0.117246 0.11727 0.9931 813.711 263.31)" fill="#FAFF15"/>
<rect width="29.4992" height="4.6088" transform="matrix(0.993103 -0.117246 0.11727 0.9931 825.148 442.276)" fill="#FAFF15"/>
<rect width="1.8437" height="4.6088" transform="matrix(0.993103 -0.117246 0.11727 0.9931 838.883 440.655)" fill="black"/>
<rect width="3.6874" height="1.84352" transform="matrix(0.993103 -0.117246 0.11727 0.9931 849.648 437.528)" fill="#FAFF15"/>
<rect width="1.8437" height="1.84352" transform="matrix(0.993103 -0.117246 0.11727 0.9931 833.93 445.881)" fill="#FAFF15"/>
<rect width="41.5671" height="6.49422" transform="matrix(0.993103 -0.117246 0.11727 0.9931 778.609 402.63)" fill="#FAFF15"/>
<rect width="2.59794" height="6.49422" transform="matrix(0.993103 -0.117246 0.11727 0.9931 797.961 400.345)" fill="black"/>
<rect width="5.19589" height="2.59769" transform="matrix(0.993103 -0.117246 0.11727 0.9931 813.133 395.938)" fill="#FAFF15"/>
<rect width="2.59794" height="2.59769" transform="matrix(0.993103 -0.117246 0.11727 0.9931 790.984 407.708)" fill="#FAFF15"/>
<rect width="42.908" height="6.70371" transform="matrix(0.993103 -0.117246 0.11727 0.9931 720.891 234.021)" fill="#FAFF15"/>
<rect width="42.908" height="6.70371" transform="matrix(0.993103 -0.117246 0.11727 0.9931 720.891 234.021)" fill="#FAFF15"/>
<rect width="2.68175" height="6.70371" transform="matrix(0.993103 -0.117246 0.11727 0.9931 740.867 231.662)" fill="black"/>
<rect width="2.68175" height="2.68149" transform="matrix(0.993103 -0.117246 0.11727 0.9931 720.578 231.358)" fill="#FAFF15"/>
<rect width="2.68175" height="2.68149" transform="matrix(0.993103 -0.117246 0.11727 0.9931 758.812 234.945)" fill="#FAFF15"/>
<rect width="53.635" height="8.37964" transform="matrix(0.993103 -0.117246 0.11727 0.9931 732.516 298.126)" fill="#FAFF15"/>
<rect width="53.635" height="8.37964" transform="matrix(0.993103 -0.117246 0.11727 0.9931 732.516 298.126)" fill="#FAFF15"/>
<rect width="3.35218" height="8.37964" transform="matrix(0.993103 -0.117246 0.11727 0.9931 757.484 295.178)" fill="black"/>
<rect width="3.35218" height="3.35186" transform="matrix(0.993103 -0.117246 0.11727 0.9931 732.117 294.798)" fill="#FAFF15"/>
<rect width="3.35218" height="3.35186" transform="matrix(0.993103 -0.117246 0.11727 0.9931 779.906 299.281)" fill="#FAFF15"/>
<path fill-rule="evenodd" clip-rule="evenodd" d="M135.917 639.749H118.414V774.75H147.167V789.75H118.414V858.5H188.421V843.5H170.919V836H188.421V742.249H179.672V734.749H188.421V675.999H169.669V668.499H188.421V628.5H135.917V639.749Z" fill="#206234"/>
<path fill-rule="evenodd" clip-rule="evenodd" d="M449.698 634.75H420.945V628.5H400.945V798.5H408.445V836H400.945V858.5H470.952V831H462.197V823.5H470.952V765.999H455.95V749.749H470.952V628.5H449.698V634.75Z" fill="#206234"/>
<path fill-rule="evenodd" clip-rule="evenodd" d="M118.414 709.75H958.499V734.75H938.495V738.5H820.984V734.75H782.231V738.5H685.969V726H679.718V738.5H620.966V732.25H557.21V738.5H498.453V726H492.203V738.5H409.693V734.75H390.941V738.5H348.438V734.75H319.685V738.5H243.427V726H235.926V738.5H118.414V709.75Z" fill="#206234"/>
<path fill-rule="evenodd" clip-rule="evenodd" d="M683.469 642.25H693.469V628.5H753.476V651H735.975V659.75H753.476V821H747.225V848.5H753.476V858.5H683.469V783.5H723.471V777.25H683.469V642.25Z" fill="#206234"/>
<path fill-rule="evenodd" clip-rule="evenodd" d="M1064.26 723.747H1025.5V697.25H958V840.335H970.5V858H1096.76V789.107H1108.02V858H1215.53V847.401H1244.28V858H1280.53V697.25H1064.26V723.747Z" fill="#206234"/>
<rect x="53.4062" y="62.5" width="198.77" height="16.25" fill="white"/>
<rect x="155.914" y="77.5" width="133.763" height="16.25" fill="white"/>
<rect x="1062.26" y="73.75" width="135.014" height="11.25" transform="rotate(-180 1062.26 73.75)" fill="white"/>
<rect x="992.25" y="63.75" width="90.009" height="11.25" transform="rotate(-180 992.25 63.75)" fill="white"/>
<rect x="42.1562" y="271.25" width="53.7554" height="16.25" fill="white"/>
<rect x="75.9062" y="278.75" width="53.7554" height="16.25" fill="white"/>
<rect x="470.945" y="317.5" width="53.7554" height="16.25" fill="white"/>
<rect x="504.695" y="325" width="53.7554" height="16.25" fill="white"/>
<rect x="414.688" y="91.25" width="145.015" height="16.25" fill="white"/>
<rect x="387.188" y="98.75" width="53.7554" height="16.25" fill="white"/>
<path fill-rule="evenodd" clip-rule="evenodd" d="M498.568 858H-36.6094V880.5H1112.06V869.25H1134.61V880.5H1283.52V858H781.374V868H762.388V858H521.114V869.25H498.568V858Z" fill="white"/>
<path fill-rule="evenodd" clip-rule="evenodd" d="M928.492 881H1211.02V923.5H1234.77V881H1281.03V1037.25H1281.03V1004.75H1257.27V1037.25H395.939V1026H185.918V1037.25H0.898438V986H75.9065V963.5H0.898438V881H908.49V912.25H928.492V881Z" fill="#206234"/>
</g>
<defs>
<clipPath id="clip0_422_8997">
<rect width="1280" height="1024" fill="white" transform="translate(0.898438)"/>
</clipPath>
</defs>
</svg>
