<svg width="2560" height="1024" viewBox="0 0 2560 1024" fill="none" xmlns="http://www.w3.org/2000/svg">
<g clip-path="url(#clip0_419_6128)">
<rect width="2560" height="1024" fill="#111111"/>
<path d="M1200.46 788.89V743.054H1204.42V752.391H1214.33V761.445H1223.38V779.27H1250.83V770.309H1259.32V788.89H1250.83V826.239H1241.77V788.89H1213.76V826.239H1204.99V788.89H1200.46Z" fill="black" stroke="black" stroke-width="0.565912"/>
<path d="M1333.74 761.068V752.109H1227.62V778.706H1241.17V770.027H1250.48H1305.52V761.068H1323.58H1333.74Z" fill="#122132" stroke="#122132" stroke-width="0.565912"/>
<path d="M1333.7 733.72H1204.95V742.491H1214.85V751.828H1333.7V733.72Z" fill="#182738" stroke="#182738" stroke-width="0.565912"/>
<path d="M1194.78 715.325V705.705H1235.53V715.042L1194.78 715.325Z" fill="#26733D" stroke="#26733D" stroke-width="0.565912"/>
<path d="M1200.46 733.432V715.606H1259.32V732.899L1200.46 733.432Z" fill="#206234" stroke="#206234" stroke-width="0.565912"/>
<path d="M1200.46 742.774V733.437H1204.71V742.774H1214.61V752.111H1227.06V761.165H1214.61V752.111H1204.71V742.774H1200.46Z" fill="#26733D"/>
<path d="M1204.71 742.774H1200.46V733.437H1204.71V742.774ZM1204.71 742.774V752.111H1214.61M1204.71 742.774H1214.61V752.111M1214.61 752.111V761.165H1227.06V752.111H1214.61Z" stroke="#26733D" stroke-width="0.565912"/>
<path d="M1250.25 715.325V705.705H1263.27V715.042L1250.25 715.325Z" fill="#26733D" stroke="#26733D" stroke-width="0.565912"/>
<path d="M1270.05 641.478H1188.27V661.001H1171.58V669.489H1287.31V661.001H1270.05V641.478Z" fill="#26733D" stroke="#26733D" stroke-width="0.565912"/>
<path d="M1192.51 669.771H1266.08V705.705H1192.51V669.771Z" fill="black"/>
<rect x="1242.87" y="705.705" width="7.35722" height="9.62002" fill="black"/>
<rect x="1235.54" y="705.705" width="7.35722" height="9.62002" fill="black"/>
<rect x="1256.47" y="680.806" width="7.92316" height="13.5812" fill="#FAFF15"/>
<rect x="1231.58" y="680.806" width="7.92316" height="13.5812" fill="#FAFF15"/>
<rect x="1193.08" y="650.251" width="4.52752" height="5.09295" fill="#FF9315"/>
<rect x="1262.15" y="644.025" width="4.52752" height="5.09295" fill="#FF9315"/>
<rect x="1197.61" y="655.342" width="10.7529" height="5.09295" fill="#FF9315"/>
<rect x="1316.46" y="742.489" width="3.96158" height="14.713" fill="#FF9315"/>
<rect x="1315.33" y="724.378" width="9.05505" height="9.05413" fill="#FF9315"/>
<rect x="1307.41" y="742.489" width="3.96158" height="14.713" fill="#FF9315"/>
<rect x="1325.53" y="742.489" width="3.96158" height="14.713" fill="#FF9315"/>
<path d="M1204.68 826.522H1214.02V843.782H1204.68V826.522Z" fill="#26733D"/>
<path d="M1241.45 826.522H1251.07V843.782H1241.45V826.522Z" fill="#26733D"/>
<path d="M1227.33 761.443H1223.66V778.986H1227.33V761.443Z" fill="white"/>
<path d="M1250.51 770.315L1241.45 770.303V778.989H1250.51V770.315Z" fill="white"/>
<rect x="1355.97" y="746.019" width="12.6971" height="12.6958" fill="#FAFF15"/>
<rect x="1389.37" y="746.019" width="12.6971" height="12.6958" fill="#FAFF15"/>
<rect x="1422.78" y="744.568" width="12.6971" height="12.6958" fill="#FAFF15"/>
<rect x="1456.16" y="744.568" width="12.6971" height="12.6958" fill="#FAFF15"/>
<rect x="1489.55" y="744.568" width="12.6971" height="12.6958" fill="#FAFF15"/>
<rect x="1522.95" y="744.568" width="12.6971" height="12.6958" fill="#FAFF15"/>
<rect x="1557.78" y="744.568" width="12.6971" height="12.6958" fill="#FAFF15"/>
<rect x="1591.2" y="744.568" width="12.6971" height="12.6958" fill="#FAFF15"/>
<rect x="1624.59" y="744.568" width="12.6971" height="12.6958" fill="#FAFF15"/>
<path fill-rule="evenodd" clip-rule="evenodd" d="M1583.11 50.7163H1642.99V96.6642H1665.27V50.7163H1740.46V111.98H1695.9V139.826H1740.46V209.444H1604V188.559H1583.11V50.7163Z" fill="#206234"/>
<rect x="1578.95" y="79.77" width="48.737" height="12.5311" fill="white"/>
<path fill-rule="evenodd" clip-rule="evenodd" d="M2003.66 53.3145H1920.8V70.0226H1936.82V81.1614H1920.8V131.286H1957.71V113.185H1977.2V131.286H2003.66V92.3002H1986.95V86.7308H2003.66V53.3145Z" fill="#206234"/>
<path fill-rule="evenodd" clip-rule="evenodd" d="M1679.76 300.347H1798.95V288.585H1775.91V280.744H1798.95V245.459H1745.87V258.201H1717.82V245.459H1679.76V261.142H1703.28V276.824H1679.76V300.347Z" fill="#206234"/>
<path fill-rule="evenodd" clip-rule="evenodd" d="M1755.79 76.9849H1790.61V96.4777H1805.92V76.9849H1907.57V93.693H1882.51V103.439H1907.57V166.095H1872.76V185.588H1907.57V235.712H1755.79V166.095H1798.96V138.248H1755.79V76.9849Z" fill="#206234"/>
<rect x="1872.76" y="198.119" width="59.8769" height="12.5311" fill="white"/>
<rect x="1649.96" y="284.664" width="34.5043" height="14.114" fill="white"/>
<rect x="1675.05" y="298.778" width="34.5043" height="14.114" fill="white"/>
<rect x="1899.22" y="210.65" width="59.8769" height="12.5311" fill="white"/>
<rect x="1968.84" y="46.3535" width="45.9521" height="12.5311" fill="white"/>
<rect x="1998.09" y="38" width="16.7098" height="12.5311" fill="white"/>
<rect x="1555.27" y="92.3018" width="48.737" height="12.5311" fill="white"/>
<path fill-rule="evenodd" clip-rule="evenodd" d="M1514.88 459.881V473.804H1530.2V486.336H1514.88V512.79H1581.72V472.412H1576.15V459.881H1581.72V448.742H1524.63V459.881H1514.88Z" fill="#206234"/>
<rect x="1553.88" y="504.436" width="55.6995" height="12.5311" fill="white"/>
<rect x="1594.26" y="497.474" width="9.74741" height="12.5311" fill="white"/>
<path fill-rule="evenodd" clip-rule="evenodd" d="M1477.29 473.804H1452.23V462.665H1442.48V433.426H1453.62V420.895H1442.48V409.756H1495.39V422.287H1509.32V473.804H1495.4V458.488H1477.29V473.804Z" fill="#206234"/>
<rect x="1470.33" y="404.187" width="9.74741" height="12.5311" fill="white"/>
<rect x="1495.4" y="429.249" width="27.8497" height="9.74642" fill="white"/>
<rect x="1514.89" y="433.426" width="27.8497" height="9.74642" fill="white"/>
<path fill-rule="evenodd" clip-rule="evenodd" d="M2267.4 278.694V292.618H2282.72V305.149H2267.4V331.604H2334.24V291.226H2328.66V278.694H2334.24V267.556H2277.15V278.694H2267.4Z" fill="#206234"/>
<rect x="2306.4" y="323.249" width="55.6995" height="12.5311" fill="white"/>
<rect x="2346.77" y="316.287" width="9.74741" height="12.5311" fill="white"/>
<path fill-rule="evenodd" clip-rule="evenodd" d="M2229.81 292.617H2204.74V281.479H2195V252.239H2206.13V239.708H2195V228.569H2247.91V241.1H2261.84V292.617H2247.91V277.301H2229.81V292.617Z" fill="#206234"/>
<rect x="2222.84" y="223" width="9.74741" height="12.5311" fill="white"/>
<rect x="2247.91" y="248.062" width="27.8497" height="9.74642" fill="white"/>
<rect x="2267.41" y="252.239" width="27.8497" height="9.74642" fill="white"/>
<path fill-rule="evenodd" clip-rule="evenodd" d="M1184.88 326.214H1170.95V341.53H1158.42V326.214H1131.96V393.046H1172.34V387.478H1184.87V393.046H1196.02V335.96H1184.88V326.214Z" fill="#206234"/>
<rect x="1148.66" y="355.454" width="55.6995" height="12.5311" transform="rotate(-180 1148.66 355.454)" fill="white"/>
<path fill-rule="evenodd" clip-rule="evenodd" d="M1239.19 447.35H1214.11V436.211H1204.37V406.971H1215.51V394.44H1204.37V383.302H1257.28V395.832H1271.21V447.35H1257.29V432.034H1239.19V447.35Z" fill="#206234"/>
<rect x="1218.29" y="427.856" width="27.8497" height="9.74642" transform="rotate(-180 1218.29 427.856)" fill="white"/>
<rect x="1198.8" y="423.68" width="27.8497" height="9.74642" transform="rotate(-180 1198.8 423.68)" fill="white"/>
<path fill-rule="evenodd" clip-rule="evenodd" d="M754.915 681H740.992V696.316H728.46V681H702V747.833H742.38V742.264H754.912V747.833H766.055V690.746H754.915V681Z" fill="#206234"/>
<rect x="718.703" y="710.24" width="55.6995" height="12.5311" transform="rotate(-180 718.703 710.24)" fill="white"/>
<path fill-rule="evenodd" clip-rule="evenodd" d="M809.224 802.136H784.153V790.997H774.411V761.757H785.546V749.226H774.411V738.088H827.323V750.618H841.25V802.136H827.327V786.82H809.224V802.136Z" fill="#206234"/>
<rect x="788.328" y="782.643" width="27.8497" height="9.74642" transform="rotate(-180 788.328 782.643)" fill="white"/>
<rect x="768.836" y="778.466" width="27.8497" height="9.74642" transform="rotate(-180 768.836 778.466)" fill="white"/>
<rect x="708.5" y="300" width="48.737" height="12.5311" fill="white"/>
<rect x="685" y="312.642" width="48.737" height="12.5311" fill="white"/>
<path fill-rule="evenodd" clip-rule="evenodd" d="M689 334.809V444.804H725.201V375.187H746.088V444.804H886.733V391.895H828.25V364.048H886.733V316.708H702.926V334.809H689Z" fill="#206234"/>
<rect x="922.953" y="450.373" width="64.0544" height="16.7082" transform="rotate(-180 922.953 450.373)" fill="white"/>
<rect x="875.602" y="439.234" width="64.0544" height="16.7082" transform="rotate(-180 875.602 439.234)" fill="white"/>
<rect x="2229.5" y="580" width="48.737" height="12.5311" fill="white"/>
<rect x="2206" y="592.642" width="48.737" height="12.5311" fill="white"/>
<path fill-rule="evenodd" clip-rule="evenodd" d="M2210 614.809V724.804H2246.2V655.187H2267.09V724.804H2407.73V671.895H2349.25V644.048H2407.73V596.708H2223.93V614.809H2210Z" fill="#206234"/>
<rect x="2443.95" y="730.373" width="64.0544" height="16.7082" transform="rotate(-180 2443.95 730.373)" fill="white"/>
<rect x="2396.6" y="719.234" width="64.0544" height="16.7082" transform="rotate(-180 2396.6 719.234)" fill="white"/>
<rect width="48.737" height="12.5311" transform="matrix(-1 0 0 1 462.453 92)" fill="white"/>
<rect width="48.737" height="12.5311" transform="matrix(-1 0 0 1 485.953 104.642)" fill="white"/>
<path fill-rule="evenodd" clip-rule="evenodd" d="M481.953 126.809V236.804H445.752V167.187H424.865V236.804H284.22V183.895H342.703V156.048H284.22V108.708H468.027V126.809H481.953Z" fill="#206234"/>
<rect width="64.0544" height="16.7082" transform="matrix(1 0 0 -1 248 242.373)" fill="white"/>
<rect width="64.0544" height="16.7082" transform="matrix(1 0 0 -1 295.352 231.234)" fill="white"/>
<path fill-rule="evenodd" clip-rule="evenodd" d="M1494.84 843H1634.09V861.1H1650.52V911.225H1634.09V904.263H1615.99V911.225H1404.33V900.086H1366.74V911.225H1198.24V904.263H1149.51V911.225H1079.05V876.416H1111.91V861.101H1079.05V843H1295.72V884.771H1330.53V843H1469.78V855.531H1494.84V843Z" fill="#206234"/>
<path fill-rule="evenodd" clip-rule="evenodd" d="M1666.67 997.55V1035.14H1762.75V983.627H1754.4V996.159H1736.3V983.627H1672.24V997.55H1666.67Z" fill="#206234"/>
<path fill-rule="evenodd" clip-rule="evenodd" d="M1787.82 915.402H1769.72V992.927H1811.49V999.975H1769.72V1029.57H1819.85V1016.89H1882.51V939.364H1853.27V915.402H1798.96V946.412H1787.82V915.402Z" fill="#206234"/>
<path fill-rule="evenodd" clip-rule="evenodd" d="M1258.67 916.794H1488.43V947.426H1505.14V916.794H1534.11V958.564H1505.15V969.703H1534.11V985.019H1439.7V978.057H1406.28V985.019H1310.2V946.034H1297.67V985.019H1182.09V976.665H1136.14V985.019H1090.19V976.665H1075.42V947.426H1087.4V933.502H1075.42V916.794H1241.96V933.502H1258.67V916.794Z" fill="#206234"/>
<path fill-rule="evenodd" clip-rule="evenodd" d="M916.113 916.794H854.843V946.679H842.311V916.794H831.172V997.482H854.846V1012.42H831.172V1039.32H943.963V990.011H921.682V975.069H943.963V916.794H925.86V945.184H916.113V916.794Z" fill="#206234"/>
<path fill-rule="evenodd" clip-rule="evenodd" d="M951.219 916.794H1055.38V940.464H1064.01V990.588H1198.8V1000.33H1265.64V990.588H1292.1V1014.26H1265.64V1022.61H1292.1V1039.32H1064.01H951.219V965.526H957.903V934.894H951.219V916.794ZM1058.17 1017.04H991.326V1029.57H1058.17V1017.04Z" fill="#206234"/>
<path fill-rule="evenodd" clip-rule="evenodd" d="M1328.3 990.588H1299.34V1039.32H1412.14V1012.87H1393.75V1004.51H1412.14V990.588H1340.84V1004.51H1328.3V990.588Z" fill="#206234"/>
<path fill-rule="evenodd" clip-rule="evenodd" d="M1580.33 916.794H1649.96V925.343H1659.7V975.208H1623.5V986.606H1659.7V989.455V1039.32H1418.8V989.455H1516.28V998.003H1562.23V986.606H1539.25V916.794H1560.84V928.192H1580.33V916.794ZM1452.22 1013.68H1431.34V1035.05H1452.22V1013.68Z" fill="#206234"/>
<path fill-rule="evenodd" clip-rule="evenodd" d="M1666.67 915.402H1672.24V939.072H1686.17V915.402H1762.75V934.895H1732.12V943.249H1762.75V976.666H1666.67V915.402Z" fill="#206234"/>
<rect x="1097.15" y="980.842" width="64.0544" height="16.7082" transform="rotate(-180 1097.15 980.842)" fill="white"/>
<rect x="1055.37" y="972.488" width="64.0544" height="16.7082" transform="rotate(-180 1055.37 972.488)" fill="white"/>
<rect x="1698.7" y="926.465" width="64.0544" height="16.7082" transform="rotate(-180 1698.7 926.465)" fill="white"/>
<rect x="1661.1" y="938.995" width="64.0544" height="16.7082" transform="rotate(-180 1661.1 938.995)" fill="white"/>
<rect x="1925.68" y="1001.73" width="64.0544" height="16.7082" transform="rotate(-180 1925.68 1001.73)" fill="white"/>
<path fill-rule="evenodd" clip-rule="evenodd" d="M159.837 922H20.5894V940.1H4.15643V990.225H20.5876V983.263H38.6899V990.225H250.346V979.086H287.943V990.225H456.435V983.263H505.172V990.225H575.633V955.416H542.769V940.101H575.633V922H358.961V963.771H324.148V922H184.902V934.531H159.837V922Z" fill="#206234"/>
<path fill-rule="evenodd" clip-rule="evenodd" d="M396.008 995.794H166.249V1026.43H149.539V995.794H120.573V1037.56H149.533V1048.7H120.573V1064.02H214.982V1057.06H248.402V1064.02H344.48V1025.03H357.013V1064.02H472.588V1055.67H518.54V1064.02H564.493V1055.67H579.258V1026.43H567.282V1012.5H579.258V995.794H412.718V1012.5H396.008V995.794Z" fill="#206234"/>
<path fill-rule="evenodd" clip-rule="evenodd" d="M703.461 995.794H599.298V1019.46H590.67V1069.59H455.879V1079.33H389.039V1069.59H362.58V1093.26H389.038V1101.61H362.58V1118.32H590.67H703.461V1044.53H696.777V1013.89H703.461V995.794ZM596.514 1096.04H663.354V1108.57H596.514V1096.04Z" fill="#206234"/>
<path fill-rule="evenodd" clip-rule="evenodd" d="M74.3454 995.794H4.72229V1004.34H-5.02516V1054.21H31.1769V1065.61H-5.02516V1068.45V1118.32H235.875V1068.45H138.403V1077H92.451V1065.61H115.425V995.794H93.8402V1007.19H74.3454V995.794ZM202.457 1092.68H223.344V1114.05H202.457V1092.68Z" fill="#206234"/>
<rect width="64.0544" height="16.7082" transform="matrix(1 0 0 -1 520 923.708)" fill="white"/>
<rect width="64.0544" height="16.7082" transform="matrix(1 0 0 -1 557.602 936.238)" fill="white"/>
<path fill-rule="evenodd" clip-rule="evenodd" d="M528.984 460H469.103V505.948H446.823V460H371.633V521.263H416.197V549.11H371.633V618.727H508.096V597.842H528.984V460Z" fill="#206234"/>
<rect width="48.737" height="12.5311" transform="matrix(-1 0 0 1 533.148 489.054)" fill="white"/>
<path fill-rule="evenodd" clip-rule="evenodd" d="M432.337 709.631H313.141V697.869H336.182V690.028H313.141V654.743H366.228V667.485H394.274V654.743H432.337V670.426H408.81V686.108H432.337V709.631Z" fill="#206234"/>
<path fill-rule="evenodd" clip-rule="evenodd" d="M356.305 486.269H321.488V505.761H306.171V486.269H204.524V502.977H229.586V512.723H204.524V575.379H239.332V594.872H204.524V644.996H356.305V575.379H313.137V547.532H356.305V486.269Z" fill="#206234"/>
<rect width="59.8769" height="12.5311" transform="matrix(-1 0 0 1 239.336 607.402)" fill="white"/>
<rect width="34.5043" height="14.114" transform="matrix(-1 0 0 1 462.133 693.947)" fill="white"/>
<rect width="34.5043" height="14.114" transform="matrix(-1 0 0 1 437.039 708.062)" fill="white"/>
<rect width="59.8769" height="12.5311" transform="matrix(-1 0 0 1 212.875 619.934)" fill="white"/>
<rect width="48.737" height="12.5311" transform="matrix(-1 0 0 1 556.82 501.585)" fill="white"/>
<path fill-rule="evenodd" clip-rule="evenodd" d="M2277.84 922H2138.59V940.1H2122.16V990.225H2138.59V983.263H2156.69V990.225H2368.35V979.086H2405.94V990.225H2574.44V983.263H2623.17V990.225H2693.63V955.416H2660.77V940.101H2693.63V922H2476.96V963.771H2442.15V922H2302.9V934.531H2277.84V922Z" fill="#206234"/>
<path fill-rule="evenodd" clip-rule="evenodd" d="M2514.01 995.794H2284.25V1026.43H2267.54V995.794H2238.57V1037.56H2267.53V1048.7H2238.57V1064.02H2332.98V1057.06H2366.4V1064.02H2462.48V1025.03H2475.01V1064.02H2590.59V1055.67H2636.54V1064.02H2682.49V1055.67H2697.26V1026.43H2685.28V1012.5H2697.26V995.794H2530.72V1012.5H2514.01V995.794Z" fill="#206234"/>
<path fill-rule="evenodd" clip-rule="evenodd" d="M2821.46 995.794H2717.3V1019.46H2708.67V1069.59H2573.88V1079.33H2507.04V1069.59H2480.58V1093.26H2507.04V1101.61H2480.58V1118.32H2708.67H2821.46V1044.53H2814.78V1013.89H2821.46V995.794ZM2714.51 1096.04H2781.35V1108.57H2714.51V1096.04Z" fill="#206234"/>
<path fill-rule="evenodd" clip-rule="evenodd" d="M2192.35 995.794H2122.72V1004.34H2112.97V1054.21H2149.18V1065.61H2112.97V1068.45V1118.32H2353.88V1068.45H2256.4V1077H2210.45V1065.61H2233.42V995.794H2211.84V1007.19H2192.35V995.794ZM2320.46 1092.68H2341.34V1114.05H2320.46V1092.68Z" fill="#206234"/>
<path fill-rule="evenodd" clip-rule="evenodd" d="M2106.01 994.402H2100.44V1018.07H2086.51V994.402H2009.93V1013.9H2040.56V1022.25H2009.93V1055.67H2106.01V994.402Z" fill="#206234"/>
<rect width="64.0544" height="16.7082" transform="matrix(1 0 0 -1 2073.98 917.708)" fill="white"/>
<rect width="64.0544" height="16.7082" transform="matrix(1 0 0 -1 2111.58 929.238)" fill="white"/>
<rect x="138.852" y="76.5625" width="8.43835" height="8.4375" fill="white"/>
<rect x="1341.31" y="499.844" width="8.43835" height="8.4375" fill="white"/>
<rect x="851.891" y="69.5312" width="8.43835" height="8.4375" fill="white"/>
<rect x="910.961" y="355" width="8.43835" height="8.4375" fill="white"/>
<rect x="787.195" y="310" width="8.43835" height="8.4375" fill="white"/>
<rect x="709.844" y="113.125" width="8.43835" height="8.4375" fill="white"/>
<rect x="429.969" y="242.5" width="8.43835" height="8.4375" fill="white"/>
<rect x="1113.48" y="612.344" width="8.43835" height="8.4375" fill="white"/>
<rect x="570.617" y="647.5" width="8.43835" height="8.4375" fill="white"/>
<rect x="463.727" y="558.906" width="8.43835" height="8.4375" fill="white"/>
<rect x="856.109" y="707.969" width="8.43835" height="8.4375" fill="white"/>
<rect x="95.25" y="826.094" width="8.43835" height="8.4375" fill="white"/>
<rect x="829.391" y="194.688" width="5.62557" height="5.625" fill="white"/>
<rect x="704.219" y="567.344" width="5.62557" height="5.625" fill="white"/>
<rect x="730.938" y="779.688" width="5.62557" height="5.625" fill="white"/>
<rect x="563.578" y="325.469" width="5.62557" height="5.625" fill="white"/>
<rect x="202.133" y="724.844" width="5.62557" height="5.625" fill="white"/>
<rect x="1151.45" y="80.7812" width="5.62557" height="5.625" fill="white"/>
<rect x="84" y="570.156" width="5.62557" height="5.625" fill="white"/>
<rect x="486.227" y="73.75" width="5.62557" height="5.625" fill="white"/>
<rect x="373.719" y="390.156" width="5.62557" height="5.625" fill="white"/>
<rect x="259.797" y="817.656" width="5.62557" height="5.625" fill="white"/>
<rect x="1313.19" y="655.938" width="5.62557" height="5.625" fill="white"/>
<rect x="1346.94" y="356.406" width="5.62557" height="5.625" fill="white"/>
<rect x="89.625" y="276.25" width="5.62557" height="5.625" fill="white"/>
<rect x="1337.09" y="792.344" width="8.43835" height="8.4375" fill="white"/>
<rect x="1345.54" y="40" width="8.43835" height="8.4375" fill="white"/>
<rect x="207.766" y="355" width="8.43835" height="8.4375" fill="white"/>
<rect x="628.273" y="201.719" width="8.43835" height="8.4375" fill="white"/>
<rect x="1233.02" y="381.719" width="8.43835" height="8.4375" fill="white"/>
<rect x="1703.85" y="76.5625" width="8.43835" height="8.4375" fill="white"/>
<rect x="2416.89" y="69.5312" width="8.43835" height="8.4375" fill="white"/>
<rect x="2475.96" y="355" width="8.43835" height="8.4375" fill="white"/>
<rect x="2352.2" y="310" width="8.43835" height="8.4375" fill="white"/>
<rect x="2274.84" y="113.125" width="8.43835" height="8.4375" fill="white"/>
<rect x="1994.97" y="242.5" width="8.43835" height="8.4375" fill="white"/>
<rect x="2135.62" y="647.5" width="8.43835" height="8.4375" fill="white"/>
<rect x="2028.73" y="558.906" width="8.43835" height="8.4375" fill="white"/>
<rect x="2421.11" y="707.969" width="8.43835" height="8.4375" fill="white"/>
<rect x="1660.25" y="826.094" width="8.43835" height="8.4375" fill="white"/>
<rect x="2394.39" y="194.688" width="5.62557" height="5.625" fill="white"/>
<rect x="2295.94" y="779.688" width="5.62557" height="5.625" fill="white"/>
<rect x="2128.58" y="325.469" width="5.62557" height="5.625" fill="white"/>
<rect x="1767.13" y="724.844" width="5.62557" height="5.625" fill="white"/>
<rect x="1649" y="570.156" width="5.62557" height="5.625" fill="white"/>
<rect x="2051.23" y="73.75" width="5.62557" height="5.625" fill="white"/>
<rect x="1938.72" y="390.156" width="5.62557" height="5.625" fill="white"/>
<rect x="1824.8" y="817.656" width="5.62557" height="5.625" fill="white"/>
<rect x="1772.77" y="355" width="8.43835" height="8.4375" fill="white"/>
<rect x="2193.27" y="201.719" width="8.43835" height="8.4375" fill="white"/>
</g>
<defs>
<clipPath id="clip0_419_6128">
<rect width="2560" height="1024" fill="white"/>
</clipPath>
</defs>
</svg>
