<svg width="2560" height="1024" viewBox="0 0 2560 1024" fill="none" xmlns="http://www.w3.org/2000/svg">
<g clip-path="url(#clip0_419_5741)">
<rect width="2560" height="1024" fill="#111111"/>
<rect x="403.125" y="569.534" width="11.8918" height="11.8906" transform="rotate(180 403.125 569.534)" fill="white"/>
<rect x="1939.56" y="557.136" width="11.8918" height="11.8906" transform="rotate(180 1939.56 557.136)" fill="white"/>
<rect x="1184.02" y="837.071" width="11.8918" height="11.8906" transform="rotate(180 1184.02 837.071)" fill="white"/>
<rect x="1620.1" y="753.874" width="11.8918" height="11.8906" transform="rotate(180 1620.1 753.874)" fill="white"/>
<rect x="724.203" y="410.993" width="11.8918" height="11.8906" transform="rotate(180 724.203 410.993)" fill="white"/>
<rect x="905.555" y="619.13" width="11.8918" height="11.8906" transform="rotate(180 905.555 619.13)" fill="white"/>
<rect x="1489.23" y="361.446" width="11.8918" height="11.8906" transform="rotate(180 1489.23 361.446)" fill="white"/>
<rect x="1639.87" y="486.298" width="11.8918" height="11.8906" transform="rotate(180 1639.87 486.298)" fill="white"/>
<rect x="1010.22" y="398.809" width="11.8918" height="11.8906" transform="rotate(180 1010.22 398.809)" fill="white"/>
<rect x="2159.14" y="109.765" width="11.8918" height="11.8906" transform="rotate(180 2159.14 109.765)" fill="white"/>
<rect x="1124.55" y="999.577" width="7.92786" height="7.92706" transform="rotate(180 1124.55 999.577)" fill="white"/>
<rect x="1830.67" y="379.855" width="7.92786" height="7.92706" transform="rotate(180 1830.67 379.855)" fill="white"/>
<rect x="1263.3" y="175.162" width="7.92786" height="7.92706" transform="rotate(180 1263.3 175.162)" fill="white"/>
<rect x="1499.14" y="815.271" width="7.92786" height="7.92706" transform="rotate(180 1499.14 815.271)" fill="white"/>
<rect x="2008.52" y="252.451" width="7.92786" height="7.92706" transform="rotate(180 2008.52 252.451)" fill="white"/>
<rect x="507.18" y="1018.5" width="7.92786" height="7.92706" transform="rotate(180 507.18 1018.5)" fill="white"/>
<rect x="1679.84" y="237.454" width="7.92786" height="7.92706" transform="rotate(180 1679.84 237.454)" fill="white"/>
<rect x="2175" y="470.445" width="7.92786" height="7.92706" transform="rotate(180 2175 470.445)" fill="white"/>
<rect x="1766.72" y="724.111" width="7.92786" height="7.92706" transform="rotate(180 1766.72 724.111)" fill="white"/>
<rect x="1927.25" y="121.654" width="7.92786" height="7.92706" transform="rotate(180 1927.25 121.654)" fill="white"/>
<rect x="442.758" y="349.559" width="7.92786" height="7.92706" transform="rotate(180 442.758 349.559)" fill="white"/>
<rect x="395.195" y="771.674" width="7.92786" height="7.92706" transform="rotate(180 395.195 771.674)" fill="white"/>
<rect x="2167.07" y="884.635" width="7.92786" height="7.92706" transform="rotate(180 2167.07 884.635)" fill="white"/>
<rect x="409.062" y="157.327" width="11.8918" height="11.8906" transform="rotate(180 409.062 157.327)" fill="white"/>
<rect x="775.734" y="151.386" width="11.8918" height="11.8906" transform="rotate(180 775.734 151.386)" fill="white"/>
<rect x="2000.59" y="773.655" width="11.8918" height="11.8906" transform="rotate(180 2000.59 773.655)" fill="white"/>
<rect x="1407.98" y="989.668" width="11.8918" height="11.8906" transform="rotate(180 1407.98 989.668)" fill="white"/>
<rect x="555.734" y="736.002" width="11.8918" height="11.8906" transform="rotate(180 555.734 736.002)" fill="white"/>
<rect x="763.844" y="843.092" width="11.8918" height="11.8906" transform="rotate(180 763.844 843.092)" fill="white"/>
<rect x="2319.89" y="263.891" width="11.8918" height="11.8906" transform="rotate(180 2319.89 263.891)" fill="white"/>
<rect x="2380.93" y="892.927" width="7.92786" height="7.92706" transform="rotate(180 2380.93 892.927)" fill="white"/>
<rect x="2424.93" y="462.927" width="7.92786" height="7.92706" transform="rotate(180 2424.93 462.927)" fill="white"/>
<rect x="2438.93" y="109.927" width="7.92786" height="7.92706" transform="rotate(180 2438.93 109.927)" fill="white"/>
<rect x="2343.89" y="712.891" width="11.8918" height="11.8906" transform="rotate(180 2343.89 712.891)" fill="white"/>
<rect width="11.8918" height="11.8906" transform="matrix(1 0 0 -1 176.039 255.891)" fill="white"/>
<rect width="7.92786" height="7.92706" transform="matrix(1 0 0 -1 115 884.927)" fill="white"/>
<rect width="7.92786" height="7.92706" transform="matrix(1 0 0 -1 71 454.927)" fill="white"/>
<rect width="7.92786" height="7.92706" transform="matrix(1 0 0 -1 57 101.927)" fill="white"/>
<rect width="11.8918" height="11.8906" transform="matrix(1 0 0 -1 152.039 704.891)" fill="white"/>
<path d="M1338.06 147.806H1325.37V257.637H1338.61V210.172H1351.31V270.882H1365.1V576.81H1376.7V233.352H1389.39V218.451H1400.43V206.86H1412.57V186.992H1400.43V199.134H1361.24V186.992H1354.07H1349.65V183.68V159.396H1338.06V147.806Z" fill="#A80000"/>
<path d="M1214.99 147.806H1227.69V257.637H1214.44V210.172H1201.75V270.882H1187.95V574.167H1176.36V233.352H1163.67V218.451H1152.63V206.86H1140.49V186.992H1152.63V199.134H1191.81V186.992H1198.99H1203.4V183.68V159.396H1214.99V147.806Z" fill="#A80000"/>
<path d="M1263.56 123.521H1251.97V134.008H1263.56V123.521Z" stroke="black" stroke-width="0.660618"/>
<path d="M1301.08 123.521H1289.49V134.008H1301.08V123.521Z" stroke="black" stroke-width="0.660618"/>
<path d="M1388.84 147.806H1361.24V158.844H1388.84V147.806Z" fill="#A80000"/>
<path d="M1192.36 147.806H1164.77V158.844H1192.36V147.806Z" fill="#A80000"/>
<path d="M1251.42 285.783H1239.83V296.27H1251.42V285.783Z" stroke="black" stroke-width="0.660618"/>
<path d="M1314.89 285.783H1303.3V296.27H1314.89V285.783Z" stroke="black" stroke-width="0.660618"/>
<path d="M1141.04 109.172H1152.07V147.806H1141.04V183.128H1129.45V124.625H1141.04V109.172Z" fill="white"/>
<path d="M1152.62 95.9253H1165.32V108.619H1152.62V95.9253Z" fill="white"/>
<path d="M1413.13 108.619H1402.09V147.253H1413.13V182.576H1424.72V124.073H1413.13V108.619Z" fill="white"/>
<path d="M1401.54 95.374H1388.85V108.068H1401.54V95.374Z" fill="white"/>
<path d="M1325.37 34.6631H1228.79H1227.68V44.5975H1203.95V58.3954H1178.56V71.0894H1166.42V94.8217H1191.26V85.4392H1227.68V257.636H1214.44V210.172H1201.74V283.576H1215.54V297.374H1227.68V344.839H1239.83V394.511H1252.52V332.145H1239.83V308.412H1252.52V320.555H1263.01V394.511H1290.05V320.555H1302.74V308.412H1314.33V332.145H1302.74V394.511H1314.33V344.839H1325.37V297.374H1338.62V283.576H1351.31V210.172H1338.62V257.636H1325.37V85.4392H1364.56V94.8217H1388.84V71.0894H1376.15V58.3954H1351.31V44.5975H1325.37V34.6631Z" fill="white"/>
<path d="M1071.64 614.85V600.829H1087.14V591.974H1103.37V584.226H1119.24V577.215H1134.73V568.729H1150.6V560.612H1166.1V552.495H1181.96V545.853H1197.83V538.843H1212.95V528.143H1221.81V520.026H1244.69V512.646H1256.86V503.053H1268.67V494.198H1283.8V503.053H1292.28V512.646H1307.41V520.026H1322.54V528.143H1344.31V538.843H1356.85V545.853H1369.76V552.495H1386.37V560.612H1407.03V568.729H1420.68V577.215H1433.6V584.226H1449.09V591.974H1466.06V599.353H1480.82V615.219H1466.06V623.705H1449.09V631.453H1433.6V638.833H1420.68V647.319H1407.03V655.067H1386.37V662.815H1370.5V670.563H1354.64V678.312H1339.51V686.06H1322.54V693.439H1307.41V701.926H1292.28V709.674H1283.8V717.053H1268.67V709.674H1260.18V701.926H1244.69V693.439H1228.82V686.06H1212.95V678.312H1197.83V670.563H1181.96V662.815H1166.1V655.067H1150.6V647.319H1134.73V639.201H1119.24V631.453H1103.37V623.336H1087.14V614.85H1071.64Z" fill="#2D8647"/>
<path fill-rule="evenodd" clip-rule="evenodd" d="M1480.83 883.456V818.519H1464.59V769.815H1480.83V698.817H1454.26V686.429H1480.83V615.219H1466.07V623.705H1449.09V631.453H1433.6V638.833H1420.68V647.319H1407.03V655.067H1386.37V662.815H1370.51V670.563H1354.64V678.312H1339.51V686.06H1322.54V693.439H1307.41V701.925H1292.28V709.674H1283.8V717.053H1278.63V717.422V870.912H1297.82V883.456H1331.02V897.477H1278.63V1030.04H1444.67V997.097H1480.83V897.477H1419.58V883.456H1480.83Z" fill="#26733D"/>
<path fill-rule="evenodd" clip-rule="evenodd" d="M1071.65 641.604V606.922H1087.14V615.408H1103.38V623.525H1119.24V631.274H1134.74V639.391H1150.61V647.139H1166.1V654.887H1181.97V662.636H1197.83V670.384H1212.96V678.132H1228.83V685.511H1244.69V693.998H1260.19V701.746H1268.68V709.125H1278.64V709.494V862.984H1216.65V877.004H1278.64V1034H1071.65V1023.85H1092.68V953.748H1071.65V854.128H1138.43V840.107H1071.65V653.992H1103.68V641.604H1071.65Z" fill="#206234"/>
<rect x="1500.35" y="647.95" width="62.9832" height="16.194" fill="white"/>
<rect x="1469.76" y="664.144" width="62.9832" height="16.194" fill="white"/>
<rect x="1038.09" y="973.188" width="62.9832" height="16.194" fill="white"/>
<rect x="1007.5" y="989.382" width="62.9832" height="16.194" fill="white"/>
<rect x="1121.46" y="760.997" width="82.7779" height="21.5921" transform="rotate(-180 1121.46 760.997)" fill="white"/>
<rect x="1060.28" y="746.602" width="82.7779" height="21.5921" transform="rotate(-180 1060.28 746.602)" fill="white"/>
<rect width="67.8896" height="21.5921" transform="matrix(1 0 0 -1 1257.7 799.631)" fill="white"/>
<rect width="67.8896" height="21.5921" transform="matrix(1 0 0 -1 1307.88 785.235)" fill="white"/>
<rect x="1449.84" y="978.317" width="91.1521" height="19.0764" fill="white"/>
<rect x="1490.11" y="997.394" width="91.1521" height="19.0764" fill="white"/>
<rect x="1063.34" y="550.544" width="91.1521" height="19.0764" fill="white"/>
<rect x="1103.62" y="569.62" width="91.1521" height="19.0764" fill="white"/>
<path d="M1259.03 512.494H1256.16V506.315H1270.85H1293.76V512.494H1288.47V536.479H1282.66V512.494H1264.67V536.479H1259.03V512.494Z" fill="black" stroke="black" stroke-width="0.68583"/>
<path d="M1252.99 465.389V459.047H1297.39V465.203L1252.99 465.389Z" fill="#26733D" stroke="#26733D" stroke-width="0.68583"/>
<path d="M1256.16 476.715V465.39H1293.76V476.715H1256.16Z" fill="#206234" stroke="#206234" stroke-width="0.68583"/>
<path d="M1252.99 465.389V459.047H1297.39V465.389H1252.99Z" fill="#26733D" stroke="#26733D" stroke-width="0.68583"/>
<path d="M1256.16 506.161V476.715H1293.76V506.161H1256.16Z" fill="#26733D" stroke="#26733D" stroke-width="0.68583"/>
<path d="M1301.29 417.822H1248.77V430.36H1238.05V435.812H1312.37V430.36H1301.29V417.822Z" fill="#26733D" stroke="#26733D" stroke-width="0.68583"/>
<path d="M1251.49 435.993H1298.74V459.07H1251.49V435.993Z" fill="black"/>
<rect x="1251.86" y="423.455" width="2.90767" height="3.2708" fill="#FF9315"/>
<rect x="1296.2" y="419.458" width="2.90767" height="3.2708" fill="#FF9315"/>
<rect x="1254.77" y="426.727" width="6.90571" height="3.2708" fill="#FF9315"/>
<path d="M1258.89 536.513H1264.89V547.597H1258.89V536.513Z" fill="#26733D"/>
<path d="M1282.45 536.513H1288.62V547.597H1282.45V536.513Z" fill="#26733D"/>
<path d="M1252.01 476.75H1248.96V512.854H1258.01V508.245H1255.06V505.076V486.352H1252.01V480.207V476.75Z" fill="#122132" stroke="#122132" stroke-width="1.47579"/>
<path d="M1242.7 476.75V520.556H1245.69V517.186H1248.87V476.75H1242.7Z" fill="#182738" stroke="#182738" stroke-width="1.47579"/>
<rect x="1245.69" y="482.623" width="1.34785" height="5.00682" transform="rotate(-90 1245.69 482.623)" fill="#FF9315"/>
<rect x="1239.52" y="483.008" width="3.08081" height="3.08112" transform="rotate(-90 1239.52 483.008)" fill="#FF9315"/>
<rect x="1245.69" y="485.704" width="1.34785" height="5.00682" transform="rotate(-90 1245.69 485.704)" fill="#FF9315"/>
<rect x="1245.69" y="488.758" width="1.34785" height="5.00682" transform="rotate(-90 1245.69 488.758)" fill="#FF9315"/>
<rect x="945.414" y="877.802" width="19.6298" height="19.6298" fill="white"/>
<rect x="964.945" y="858.455" width="21.1398" height="19.1579" fill="white"/>
<rect x="925.781" y="858.172" width="19.6298" height="19.6298" fill="white"/>
<rect x="906.148" y="939.711" width="105.699" height="19.6298" transform="rotate(-90 906.148 939.711)" fill="white"/>
<rect x="986.18" y="939.711" width="105.699" height="19.6298" transform="rotate(-90 986.18 939.711)" fill="white"/>
<rect x="1036.2" y="939.71" width="105.699" height="19.8185" transform="rotate(-90 1036.2 939.71)" fill="white"/>
<rect x="1125.66" y="877.802" width="19.6298" height="19.6298" fill="white"/>
<rect x="1145.29" y="897.432" width="21.1398" height="19.6298" fill="white"/>
<rect x="1106.03" y="858.172" width="19.6298" height="19.6298" fill="white"/>
<rect x="1086.4" y="939.711" width="105.699" height="19.6298" transform="rotate(-90 1086.4 939.711)" fill="white"/>
<rect x="1166.43" y="939.711" width="105.699" height="19.6298" transform="rotate(-90 1166.43 939.711)" fill="white"/>
<rect x="1278.55" y="919.892" width="66.0618" height="19.8185" transform="rotate(-90 1278.55 919.892)" fill="white"/>
<rect x="1236.27" y="919.892" width="42.2796" height="19.8185" fill="white"/>
<rect x="1236.27" y="834.012" width="42.2796" height="19.8185" fill="white"/>
<rect x="1216.45" y="939.711" width="105.699" height="19.8185" transform="rotate(-90 1216.45 939.711)" fill="white"/>
<rect x="1390.84" y="873.649" width="19.8185" height="19.8185" transform="rotate(-90 1390.84 873.649)" fill="white"/>
<rect x="1390.84" y="939.711" width="19.8185" height="19.8185" transform="rotate(-90 1390.84 939.711)" fill="white"/>
<rect x="1371.03" y="919.892" width="26.4247" height="19.8185" transform="rotate(-90 1371.03 919.892)" fill="white"/>
<rect x="1348.57" y="834.012" width="42.2796" height="19.8185" fill="white"/>
<rect x="1348.57" y="873.649" width="42.2796" height="19.8185" fill="white"/>
<rect x="1328.75" y="939.711" width="105.699" height="19.8185" transform="rotate(-90 1328.75 939.711)" fill="white"/>
<rect x="1503.15" y="938.39" width="42.2796" height="19.8185" transform="rotate(-180 1503.15 938.39)" fill="white"/>
<rect x="1522.97" y="834.012" width="84.5591" height="19.8185" transform="rotate(90 1522.97 834.012)" fill="white"/>
<rect x="1460.88" y="834.012" width="84.5591" height="19.8185" transform="rotate(90 1460.88 834.012)" fill="white"/>
<rect x="1592.63" y="877.802" width="19.6298" height="19.6298" fill="white"/>
<rect x="1612.26" y="897.432" width="21.1398" height="19.6298" fill="white"/>
<rect x="1573" y="858.172" width="19.6298" height="19.6298" fill="white"/>
<rect x="1553.37" y="939.711" width="105.699" height="19.6298" transform="rotate(-90 1553.37 939.711)" fill="white"/>
<rect x="1633.4" y="939.711" width="105.699" height="19.6298" transform="rotate(-90 1633.4 939.711)" fill="white"/>
</g>
<defs>
<clipPath id="clip0_419_5741">
<rect width="2560" height="1024" fill="white"/>
</clipPath>
</defs>
</svg>
