<svg width="425" height="896" viewBox="0 0 425 896" fill="none" xmlns="http://www.w3.org/2000/svg">
<g clip-path="url(#clip0_439_19605)">
<rect width="425" height="896" fill="#111111"/>
<g clip-path="url(#clip1_439_19605)">
<rect width="160.992" height="118.79" transform="translate(272.586 529.252) rotate(90)" fill="#191919"/>
<path fill-rule="evenodd" clip-rule="evenodd" d="M255.102 617.88L255.102 609.628L258.779 609.628L258.779 606.42L268.404 606.42L268.404 610.087L272.53 610.087L272.53 606.42L276.187 606.42L276.187 623.84L272.064 623.84L272.064 628.425L255.102 628.425L255.102 623.84L260.153 623.84L260.153 617.88L255.102 617.88Z" fill="#206234"/>
<path fill-rule="evenodd" clip-rule="evenodd" d="M169.625 589.8L169.625 594.914L167.351 594.914L167.351 596.901L161.381 596.901L161.381 594.629L158.826 594.629L158.826 596.901L156.562 596.901L156.562 586.109L159.111 586.109L159.111 583.269L169.625 583.269L169.625 586.108L166.503 586.108L166.503 589.8L169.625 589.8Z" fill="#206234"/>
<path d="M142.987 484.569L146.251 483.888L161.091 490.791L157.301 491.581L158.552 497.582L155.393 498.24L156.139 501.819L153.402 502.39L154.104 505.759L150.525 506.505L151.205 509.768L148.889 510.251L149.394 512.672L147.92 512.979L148.688 516.664L145.635 517.3L147.083 524.248L143.714 524.95L145.711 534.53L149.08 533.828L149.848 537.513L156.69 536.086L155.923 532.402L159.502 531.656L156.781 518.602L159.518 518.032L158.246 511.926L161.404 511.267L160.68 507.793L164.47 507.004L163.79 503.74L173.159 501.787L173.839 505.051L177.418 504.305L178.142 507.779L180.669 507.252L181.503 511.253L178.976 511.779L179.415 513.885L172.151 515.399L173.621 522.452L170.358 523.132L171.608 529.133L178.556 527.685L176.56 518.105L180.139 517.359L179.963 516.517L182.49 515.99L181.941 513.358L185.731 512.568L185.029 509.199L197.873 506.523L198.575 509.891L205.417 508.465L206.887 515.519L209.94 514.882L211.937 524.462L210.358 524.791L211.587 530.687L206.533 531.74L207.982 538.688L218.719 536.45L218.149 533.713L220.781 533.164L218.674 523.058L221.833 522.4L221.087 518.82L227.193 517.548L228.531 523.97L225.794 524.54L227.878 534.541L224.509 535.243L225.804 541.454L222.646 542.112L223.37 545.586L216.632 546.991L217.334 550.359L208.176 552.268L207.474 548.9L203.894 549.646L202.556 543.224L199.082 543.948L195.725 527.841L199.199 527.117L198.453 523.538L202.032 522.792L201.352 519.528L194.299 520.998L194.979 524.262L191.505 524.986L192.843 531.408L189.79 532.044L190.514 535.518L183.777 536.922L184.479 540.291L168.162 543.692L168.886 547.166L165.728 547.824L166.474 551.403L153.314 554.146L152.568 550.566L146.673 551.795L145.949 548.321L142.159 549.111L141.457 545.742L138.194 546.422L136.899 540.211L134.267 540.76L130.779 524.021L133.411 523.473L131.919 516.314L133.392 516.007L132.69 512.638L135.217 512.112L134.032 506.427L137.085 505.791L135.834 499.79L138.361 499.264L137.615 495.684L140.984 494.982L140.303 491.719L144.304 490.885L142.987 484.569Z" fill="black" stroke="black" stroke-width="0.229213"/>
</g>
<g clip-path="url(#clip2_439_19605)">
<rect width="152.395" height="118.79" transform="translate(272.586 368.856) rotate(90)" fill="#191919"/>
<path fill-rule="evenodd" clip-rule="evenodd" d="M325.023 388.527L325.023 378.887L320.571 378.887L320.571 375.919L315.381 375.919L315.381 381.852L318.35 381.852L318.35 384.819L311.676 384.819L311.676 381.853L305.75 381.853L305.75 378.889L302.039 378.889L302.039 375.921L298.328 375.921L298.328 372.213L295.365 372.213L295.365 369.247L292.402 369.247L292.402 366.28L289.432 366.28L289.432 362.573L285.721 362.574L285.721 359.607L279.795 359.607L279.795 356.642L270.151 356.642L270.151 352.934L247.165 352.934L247.165 356.643L238.273 356.643L238.273 359.608L230.852 359.608L230.852 362.575L228.631 362.575L228.631 366.281L224.929 366.281L224.929 372.214L276.828 372.212L276.828 375.18L285.723 375.18L285.723 378.146L288.693 378.146L288.693 381.854L292.404 381.854L292.404 384.822L296.105 384.822L296.105 388.527L302.033 388.527L302.033 391.494L307.969 391.493L307.969 395.203L318.35 395.202L318.35 391.493L322.053 391.493L322.053 388.527L325.023 388.527ZM263.483 372.214L263.483 375.18L256.809 375.18L256.809 378.146L253.102 378.147L253.102 381.483L250.878 381.484L250.878 391.865L253.102 391.865L253.102 394.831L256.809 394.831L256.809 397.797L263.483 397.797L263.483 401.134L266.819 401.134L266.819 404.471L269.785 404.471L269.785 407.808L272.751 407.808L272.751 410.774L276.829 410.774L276.829 413.74L280.166 413.74L280.166 417.448L283.502 417.448L283.502 423.38L286.097 423.38L286.097 433.02L289.063 433.02L289.063 458.603L286.097 458.603L286.097 468.614L282.761 468.614L282.761 474.546L280.166 474.546L280.166 477.883L276.088 477.883L276.088 481.22L273.122 481.22L273.122 484.557L273.122 484.928L276.458 484.928L276.458 481.962L289.063 481.962L289.063 484.557L292.4 484.557L292.4 487.523L295.737 487.523L295.737 490.86L302.039 490.86L302.039 497.904L292.4 497.905L292.4 494.568L289.063 494.568L289.063 490.86L282.761 490.86L282.761 497.534L280.166 497.534L280.166 500.871L276.458 500.871L276.458 503.837L273.122 503.838L273.122 507.174L260.517 507.175L260.517 503.838L257.551 503.838L257.551 500.872L254.214 500.872L254.214 497.164L247.541 497.164L247.541 500.501L221.96 500.502L221.96 496.794L212.692 496.794L212.692 494.199L205.648 494.199L205.648 490.862L201.941 490.862L201.941 487.525L199.716 487.525L199.716 484.188L196.38 484.188L196.38 481.222L193.043 481.222L193.043 477.885L186.74 477.886L186.74 474.549L179.696 474.549L179.696 477.886L176.36 477.886L176.36 481.223L173.394 481.223L173.394 484.189L170.057 484.189L170.057 487.526L163.755 487.526L163.755 490.863L157.082 490.863L157.082 494.2L131.872 494.201L131.872 490.864L121.491 490.864L121.491 494.201L115.93 494.201L115.93 497.538L105.92 497.538L105.92 500.875L87.0127 500.876L87.0127 497.539L77.3736 497.539L77.3736 494.202L70.7004 494.202L70.7004 490.865L64.3979 490.865L64.3979 487.528L61.8028 487.529L61.8028 484.562L58.0954 484.562L58.0954 479.001L54.0173 479.001L54.0173 465.282L51.7929 465.282L51.7929 461.575L48.4563 461.575L48.4563 458.609L45.1197 458.609L45.1197 461.575L39.1879 461.575L39.1879 452.677L41.4123 452.676L41.4123 449.34L54.0173 449.339L54.0173 452.676L57.7247 452.676L57.7247 456.013L61.0613 456.013L61.0613 461.575L64.3979 461.574L64.3979 468.619L68.1052 468.619L68.1052 474.922L70.7004 474.922L70.7004 478.259L79.9688 478.259L79.9688 481.596L93.686 481.595L93.686 478.258L99.6177 478.258L99.6177 474.921L102.954 474.921L102.954 471.955L106.291 471.955L106.291 465.281L109.628 465.281L109.628 456.012L112.593 456.012L112.593 452.304L109.257 452.304L109.257 448.967L106.291 448.967L106.291 436.361L102.954 436.361L102.954 432.653L95.9104 432.654L95.9104 436.361L93.686 436.361L93.686 439.327L89.9786 439.328L89.9786 446.001L83.6761 446.002L83.6761 439.699L87.0127 439.698L87.0127 432.654L89.9786 432.654L89.9786 430.058L93.686 430.058L93.686 426.721L97.0226 426.721L97.0226 423.384L125.198 423.384L125.198 426.721L138.545 426.72L138.545 423.383L157.452 423.383L157.452 426.72L163.755 426.72L163.755 430.057L170.428 430.056L170.428 433.393L180.438 433.393L180.438 430.056L183.404 430.056L183.404 423.753L186.74 423.753L186.74 417.821L190.077 417.821L190.077 414.113L193.043 414.113L193.043 410.776L196.009 410.776L196.009 407.068L199.716 407.068L199.716 404.843L203.053 404.843L203.053 401.877L206.019 401.877L206.019 397.798L212.321 397.798L212.321 391.866L215.658 391.866L215.658 385.192L218.624 385.192L218.624 378.518L221.59 378.518L221.59 372.215L263.483 372.214Z" fill="black"/>
<rect width="16.3139" height="2.5488" transform="matrix(-4.47703e-08 1 -1 2.33799e-05 233.547 462.684)" fill="#FAFF15"/>
<rect width="1.01962" height="2.5488" transform="matrix(-4.37114e-08 1 -1 2.33777e-05 233.547 470.332)" fill="black"/>
<rect width="2.03924" height="1.01952" transform="matrix(-4.37114e-08 1 -1 2.33777e-05 234.57 476.448)" fill="#FAFF15"/>
<rect width="1.01943" height="1.01933" transform="matrix(-4.37114e-08 1 -1 2.33777e-05 230.992 467.272)" fill="#FAFF15"/>
<rect width="22.9878" height="3.5915" transform="matrix(-4.47703e-08 1 -1 2.33799e-05 156.766 438.959)" fill="#FAFF15"/>
<rect width="1.43674" height="3.5915" transform="matrix(-4.37114e-08 1 -1 2.33777e-05 156.766 449.734)" fill="black"/>
<rect width="2.87348" height="1.4366" transform="matrix(-4.37114e-08 1 -1 2.33777e-05 158.195 458.354)" fill="#FAFF15"/>
<rect width="23.7294" height="3.70735" transform="matrix(-4.47703e-08 1 -1 2.33799e-05 253.125 418.192)" fill="#FAFF15"/>
<rect width="23.7294" height="3.70735" transform="matrix(-4.47703e-08 1 -1 2.33799e-05 253.125 418.192)" fill="#FAFF15"/>
<rect width="1.48309" height="3.70735" transform="matrix(-4.47703e-08 1 -1 2.33799e-05 253.125 429.316)" fill="black"/>
<rect width="1.48309" height="1.48294" transform="matrix(-4.47703e-08 1 -1 2.33799e-05 254.594 418.19)" fill="#FAFF15"/>
<rect width="1.48309" height="1.48294" transform="matrix(-4.47703e-08 1 -1 2.33799e-05 250.141 438.955)" fill="#FAFF15"/>
<rect width="29.6617" height="4.63419" transform="matrix(-4.47703e-08 1 -1 2.33799e-05 217.141 420.414)" fill="#FAFF15"/>
<rect width="29.6617" height="4.63419" transform="matrix(-4.47703e-08 1 -1 2.33799e-05 217.141 420.414)" fill="#FAFF15"/>
<rect width="1.85386" height="4.63419" transform="matrix(-4.47703e-08 1 -1 2.33799e-05 217.141 434.318)" fill="black"/>
<rect width="1.85386" height="1.85368" transform="matrix(-4.37114e-08 1 -1 2.33777e-05 219 420.414)" fill="#FAFF15"/>
<rect width="1.85386" height="1.85368" transform="matrix(-4.37114e-08 1 -1 2.33777e-05 213.438 446.369)" fill="#FAFF15"/>
<path d="M126.861 437.701L130.187 437.485L142.646 426.871L138.783 427.121L138.386 421.005L135.167 421.213L134.93 417.565L132.14 417.746L131.918 414.312L128.269 414.549L128.053 411.222L125.693 411.375L125.533 408.907L124.03 409.004L123.787 405.248L120.675 405.45L120.215 398.368L116.782 398.59L116.148 388.825L119.582 388.603L119.339 384.847L126.314 384.394L126.557 388.15L130.206 387.914L131.069 401.22L133.859 401.039L134.262 407.263L137.482 407.054L137.711 410.596L141.574 410.345L141.79 413.672L151.341 413.052L151.125 409.726L154.774 409.489L154.544 405.948L157.119 405.781L156.855 401.703L154.28 401.87L154.14 399.724L146.736 400.204L146.27 393.014L142.943 393.23L142.547 387.113L149.629 386.654L150.262 396.419L153.911 396.183L153.966 397.041L156.542 396.874L156.716 399.557L160.579 399.307L160.802 402.74L173.893 401.892L173.671 398.458L180.646 398.005L180.18 390.816L183.292 390.614L182.658 380.849L181.049 380.953L180.659 374.944L175.508 375.278L175.049 368.195L185.995 367.485L186.176 370.275L188.858 370.101L189.526 380.403L192.746 380.194L192.982 383.843L199.206 383.439L198.782 376.893L195.992 377.074L195.331 366.88L191.897 367.103L191.486 360.771L188.267 360.98L188.037 357.439L181.169 357.884L180.947 354.45L171.611 355.056L171.833 358.49L168.185 358.726L168.609 365.272L165.068 365.502L166.133 381.92L169.674 381.691L169.911 385.339L173.559 385.102L173.775 388.429L166.585 388.895L166.369 385.569L162.828 385.798L162.404 379.252L159.292 379.454L159.062 375.913L152.194 376.358L151.972 372.924L135.338 374.003L135.109 370.462L131.89 370.67L131.653 367.022L118.239 367.892L118.476 371.54L112.466 371.93L112.696 375.471L108.833 375.722L109.056 379.156L105.729 379.371L106.14 385.703L103.457 385.877L104.563 402.939L107.246 402.765L107.719 410.062L109.221 409.965L109.444 413.398L112.02 413.231L112.395 419.026L115.507 418.824L115.904 424.941L118.479 424.774L118.716 428.423L122.15 428.2L122.366 431.527L126.443 431.262L126.861 437.701Z" fill="black" stroke="black" stroke-width="0.229213"/>
<path d="M142.987 476.569L146.251 475.888L161.091 482.791L157.301 483.581L158.552 489.582L155.393 490.24L156.139 493.819L153.402 494.39L154.104 497.759L150.525 498.505L151.205 501.768L148.889 502.251L149.394 504.672L147.92 504.979L148.688 508.664L145.635 509.3L147.083 516.248L143.714 516.95L145.711 526.53L149.08 525.828L149.848 529.513L156.69 528.086L155.923 524.402L159.502 523.656L156.781 510.602L159.518 510.032L158.246 503.926L161.404 503.267L160.68 499.793L164.47 499.004L163.79 495.74L173.159 493.787L173.839 497.051L177.418 496.305L178.142 499.779L180.669 499.252L181.503 503.253L178.976 503.779L179.415 505.885L172.151 507.399L173.621 514.452L170.358 515.132L171.608 521.133L178.556 519.685L176.56 510.105L180.139 509.359L179.963 508.517L182.49 507.99L181.941 505.358L185.731 504.568L185.029 501.199L197.873 498.523L198.575 501.891L205.417 500.465L206.887 507.519L209.94 506.882L211.937 516.462L210.358 516.791L211.587 522.687L206.533 523.74L207.982 530.688L218.719 528.45L218.149 525.713L220.781 525.164L218.674 515.058L221.833 514.4L221.087 510.82L227.193 509.548L228.531 515.97L225.794 516.54L227.878 526.541L224.509 527.243L225.804 533.454L222.646 534.112L223.37 537.586L216.632 538.991L217.334 542.359L208.176 544.268L207.474 540.9L203.894 541.646L202.556 535.224L199.082 535.948L195.725 519.841L199.199 519.117L198.453 515.538L202.032 514.792L201.352 511.528L194.299 512.998L194.979 516.262L191.505 516.986L192.843 523.408L189.79 524.044L190.514 527.518L183.777 528.922L184.479 532.291L168.162 535.692L168.886 539.166L165.728 539.824L166.474 543.403L153.314 546.146L152.568 542.566L146.673 543.795L145.949 540.321L142.159 541.111L141.457 537.742L138.194 538.422L136.899 532.211L134.267 532.76L130.779 516.021L133.411 515.473L131.919 508.314L133.392 508.007L132.69 504.638L135.217 504.112L134.032 498.427L137.085 497.791L135.834 491.79L138.361 491.264L137.615 487.684L140.984 486.982L140.303 483.719L144.304 482.885L142.987 476.569Z" fill="black" stroke="black" stroke-width="0.229213"/>
</g>
<g clip-path="url(#clip3_439_19605)">
<rect width="156.042" height="118.79" transform="translate(272.586 204.814) rotate(90)" fill="#191919"/>
<path fill-rule="evenodd" clip-rule="evenodd" d="M171.445 329.735L171.445 321.484L175.114 321.484L175.114 318.275L184.739 318.275L184.739 321.943L188.865 321.943L188.865 318.275L192.531 318.275L192.531 335.695L188.4 335.695L188.4 340.279L171.445 340.279L171.445 335.694L176.497 335.694L176.497 329.735L171.445 329.735Z" fill="#206234"/>
<path fill-rule="evenodd" clip-rule="evenodd" d="M325.023 380.228L325.023 370.588L320.571 370.588L320.571 367.62L315.381 367.621L315.381 373.553L318.35 373.553L318.35 376.52L311.676 376.521L311.676 373.555L305.75 373.555L305.75 370.59L302.039 370.59L302.039 367.622L298.328 367.623L298.328 363.914L295.365 363.914L295.365 360.949L292.402 360.949L292.402 357.981L289.432 357.981L289.432 354.275L285.721 354.275L285.721 351.309L279.795 351.309L279.795 348.343L270.151 348.344L270.151 344.635L247.165 344.636L247.165 348.344L238.273 348.344L238.273 351.31L230.852 351.31L230.852 354.276L228.631 354.276L228.631 357.982L224.929 357.982L224.929 363.915L276.828 363.914L276.828 366.881L285.723 366.881L285.723 369.847L288.693 369.847L288.693 373.555L292.404 373.555L292.404 376.523L296.105 376.523L296.105 380.229L302.033 380.229L302.033 383.195L307.969 383.195L307.969 386.904L318.35 386.904L318.35 383.194L322.053 383.194L322.053 380.228L325.023 380.228ZM263.483 363.915L263.483 366.881L256.809 366.881L256.809 369.848L253.102 369.848L253.102 373.185L250.878 373.185L250.878 383.566L253.102 383.566L253.102 386.532L256.809 386.532L256.809 389.498L263.483 389.498L263.483 392.835L266.819 392.835L266.819 396.172L269.785 396.172L269.785 399.509L272.751 399.509L272.751 402.475L276.829 402.475L276.829 405.441L280.166 405.441L280.166 409.149L283.502 409.149L283.502 415.081L286.097 415.081L286.097 424.721L289.063 424.721L289.063 450.304L286.097 450.304L286.097 460.315L282.761 460.315L282.761 466.248L280.166 466.248L280.166 469.585L276.088 469.585L276.088 472.922L273.122 472.922L273.122 476.259L273.122 476.629L276.458 476.629L276.458 473.663L289.063 473.663L289.063 476.258L292.4 476.258L292.4 479.224L295.737 479.224L295.737 482.561L302.039 482.561L302.039 489.606L292.4 489.606L292.4 486.269L289.063 486.269L289.063 482.561L282.761 482.561L282.761 489.235L280.166 489.235L280.166 492.572L276.458 492.572L276.458 495.539L273.122 495.539L273.122 498.876L260.517 498.876L260.517 495.539L257.551 495.539L257.551 492.573L254.214 492.573L254.214 488.865L247.541 488.865L247.541 492.202L221.96 492.203L221.96 488.495L212.692 488.495L212.692 485.9L205.648 485.9L205.648 482.563L201.941 482.563L201.941 479.226L199.716 479.226L199.716 475.89L196.38 475.89L196.38 472.923L193.043 472.924L193.043 469.587L186.74 469.587L186.74 466.25L179.696 466.25L179.696 469.587L176.36 469.587L176.36 472.924L173.394 472.924L173.394 475.89L170.057 475.89L170.057 479.227L163.755 479.227L163.755 482.564L157.082 482.564L157.082 485.901L131.872 485.902L131.872 482.565L121.491 482.565L121.491 485.902L115.93 485.902L115.93 489.239L105.92 489.239L105.92 492.576L87.0127 492.577L87.0127 489.24L77.3736 489.24L77.3736 485.903L70.7004 485.903L70.7004 482.566L64.3979 482.567L64.3979 479.23L61.8028 479.23L61.8028 476.264L58.0954 476.264L58.0954 470.702L54.0173 470.702L54.0173 456.984L51.7929 456.984L51.7929 453.276L48.4563 453.276L48.4563 450.31L45.1197 450.31L45.1197 453.276L39.1879 453.276L39.1879 444.378L41.4123 444.378L41.4123 441.041L54.0173 441.04L54.0173 444.377L57.7247 444.377L57.7247 447.714L61.0613 447.714L61.0613 453.276L64.3979 453.276L64.3979 460.32L68.1052 460.32L68.1052 466.623L70.7004 466.623L70.7004 469.96L79.9688 469.96L79.9688 473.297L93.686 473.297L93.686 469.96L99.6177 469.96L99.6177 466.623L102.954 466.622L102.954 463.656L106.291 463.656L106.291 456.982L109.628 456.982L109.628 447.713L112.593 447.713L112.593 444.005L109.257 444.005L109.257 440.668L106.291 440.668L106.291 428.062L102.954 428.062L102.954 424.355L95.9104 424.355L95.9104 428.062L93.686 428.062L93.686 431.029L89.9786 431.029L89.9786 437.703L83.6761 437.703L83.6761 431.4L87.0127 431.4L87.0127 424.355L89.9786 424.355L89.9786 421.759L93.686 421.759L93.686 418.422L97.0226 418.422L97.0226 415.085L125.198 415.085L125.198 418.422L138.545 418.421L138.545 415.084L157.452 415.084L157.452 418.421L163.755 418.421L163.755 421.758L170.428 421.758L170.428 425.095L180.438 425.094L180.438 421.757L183.404 421.757L183.404 415.454L186.74 415.454L186.74 409.522L190.077 409.522L190.077 405.814L193.043 405.814L193.043 402.477L196.009 402.477L196.009 398.769L199.716 398.769L199.716 396.544L203.053 396.544L203.053 393.578L206.019 393.578L206.019 389.5L212.321 389.5L212.321 383.567L215.658 383.567L215.658 376.893L218.624 376.893L218.624 370.219L221.59 370.219L221.59 363.916L263.483 363.915Z" fill="black"/>
<path d="M126.853 429.403L130.18 429.187L142.638 418.573L138.775 418.824L138.378 412.707L135.159 412.916L134.923 409.267L132.133 409.448L131.91 406.014L128.261 406.251L128.046 402.924L125.685 403.077L125.525 400.609L124.022 400.706L123.779 396.951L120.667 397.152L120.208 390.07L116.774 390.293L116.14 380.527L119.574 380.305L119.331 376.549L126.306 376.097L126.55 379.852L130.198 379.616L131.061 392.922L133.851 392.741L134.255 398.965L137.474 398.757L137.704 402.298L141.567 402.047L141.782 405.374L151.333 404.755L151.117 401.428L154.766 401.191L154.536 397.65L157.112 397.483L156.847 393.405L154.272 393.572L154.133 391.426L146.728 391.906L146.262 384.717L142.935 384.932L142.539 378.816L149.621 378.356L150.254 388.122L153.903 387.885L153.959 388.743L156.534 388.576L156.708 391.259L160.571 391.009L160.794 394.443L173.886 393.594L173.663 390.16L180.638 389.707L180.172 382.518L183.284 382.316L182.651 372.551L181.041 372.655L180.651 366.646L175.5 366.98L175.041 359.897L185.987 359.187L186.168 361.978L188.85 361.804L189.519 372.105L192.738 371.897L192.974 375.545L199.198 375.142L198.774 368.596L195.984 368.777L195.323 358.582L191.889 358.805L191.478 352.473L188.259 352.682L188.029 349.141L181.162 349.586L180.939 346.152L171.603 346.758L171.826 350.192L168.177 350.428L168.602 356.974L165.06 357.204L166.125 373.622L169.666 373.393L169.903 377.041L173.551 376.805L173.767 380.131L166.577 380.597L166.362 377.271L162.82 377.5L162.396 370.955L159.284 371.156L159.054 367.615L152.186 368.06L151.964 364.627L135.331 365.705L135.101 362.164L131.882 362.373L131.645 358.724L118.231 359.594L118.468 363.242L112.459 363.632L112.688 367.173L108.825 367.424L109.048 370.858L105.721 371.073L106.132 377.405L103.449 377.579L104.555 394.641L107.238 394.467L107.711 401.764L109.214 401.667L109.436 405.101L112.012 404.934L112.387 410.728L115.499 410.527L115.896 416.643L118.472 416.476L118.708 420.125L122.142 419.902L122.358 423.229L126.436 422.964L126.853 429.403Z" fill="black" stroke="black" stroke-width="0.229213"/>
</g>
<g clip-path="url(#clip4_439_19605)">
<rect width="160.992" height="118.79" transform="translate(145.797 529.252) rotate(90)" fill="#191919"/>
<path fill-rule="evenodd" clip-rule="evenodd" d="M75.6673 654.328L9.28906 654.328L9.28906 660.877L22.1197 660.877L22.1197 665.244L9.28906 665.244L9.28906 684.894L38.8508 684.894L38.8508 677.799L54.4692 677.799L54.4692 684.894L75.6673 684.894L75.6673 676.162L62.5759 676.162L62.5759 667.428L75.6673 667.428L75.6673 654.328Z" fill="#206234"/>
<path d="M136.816 484.569L140.079 483.888L154.919 490.791L151.129 491.581L152.38 497.582L149.222 498.24L149.968 501.819L147.23 502.39L147.933 505.759L144.353 506.505L145.033 509.768L142.717 510.251L143.222 512.672L141.748 512.979L142.516 516.664L139.463 517.3L140.911 524.248L137.543 524.95L139.539 534.53L142.908 533.828L143.676 537.513L150.519 536.086L149.751 532.402L153.33 531.656L150.609 518.602L153.346 518.032L152.074 511.926L155.232 511.267L154.508 507.793L158.298 507.004L157.618 503.74L166.987 501.787L167.667 505.051L171.246 504.305L171.97 507.779L174.497 507.252L175.331 511.253L172.804 511.779L173.243 513.885L165.979 515.399L167.449 522.452L164.186 523.132L165.436 529.133L172.384 527.685L170.388 518.105L173.967 517.359L173.792 516.517L176.318 515.99L175.77 513.358L179.559 512.568L178.857 509.199L191.701 506.523L192.403 509.891L199.246 508.465L200.716 515.519L203.768 514.882L205.765 524.462L204.186 524.791L205.415 530.687L200.362 531.74L201.81 538.688L212.548 536.45L211.977 533.713L214.609 533.164L212.503 523.058L215.661 522.4L214.915 518.82L221.021 517.548L222.359 523.97L219.622 524.54L221.706 534.541L218.338 535.243L219.632 541.454L216.474 542.112L217.198 545.586L210.46 546.991L211.163 550.359L202.004 552.268L201.302 548.9L197.722 549.646L196.384 543.224L192.91 543.948L189.553 527.841L193.027 527.117L192.281 523.538L195.86 522.792L195.18 519.528L188.127 520.998L188.807 524.262L185.333 524.986L186.671 531.408L183.618 532.044L184.343 535.518L177.605 536.922L178.307 540.291L161.99 543.692L162.714 547.166L159.556 547.824L160.302 551.403L147.142 554.146L146.396 550.566L140.501 551.795L139.777 548.321L135.987 549.111L135.285 545.742L132.022 546.422L130.727 540.211L128.095 540.76L124.607 524.021L127.239 523.473L125.747 516.314L127.221 516.007L126.518 512.638L129.045 512.112L127.86 506.427L130.913 505.791L129.662 499.79L132.189 499.264L131.443 495.684L134.812 494.982L134.132 491.719L138.132 490.885L136.816 484.569Z" fill="black" stroke="black" stroke-width="0.229213"/>
</g>
<g clip-path="url(#clip5_439_19605)">
<rect width="152.395" height="118.79" transform="translate(145.797 368.856) rotate(90)" fill="#191919"/>
<path fill-rule="evenodd" clip-rule="evenodd" d="M319.102 388.527L319.102 378.887L314.65 378.887L314.65 375.919L309.459 375.919L309.459 381.852L312.428 381.852L312.428 384.819L305.754 384.819L305.754 381.853L299.828 381.853L299.828 378.889L296.117 378.889L296.117 375.921L292.406 375.921L292.406 372.213L289.443 372.213L289.443 369.247L286.481 369.247L286.481 366.28L283.51 366.28L283.51 362.573L279.799 362.574L279.799 359.607L273.873 359.607L273.873 356.642L264.229 356.642L264.229 352.934L241.243 352.934L241.243 356.643L232.351 356.643L232.351 359.608L224.93 359.608L224.93 362.575L222.709 362.575L222.709 366.281L219.007 366.281L219.007 372.214L270.906 372.212L270.906 375.18L279.801 375.18L279.801 378.146L282.771 378.146L282.771 381.854L286.482 381.854L286.482 384.822L290.183 384.822L290.183 388.527L296.111 388.527L296.111 391.494L302.047 391.493L302.047 395.203L312.428 395.202L312.428 391.493L316.131 391.493L316.131 388.527L319.102 388.527ZM257.561 372.214L257.561 375.18L250.887 375.18L250.887 378.146L247.18 378.147L247.18 381.483L244.956 381.484L244.956 391.865L247.18 391.865L247.18 394.831L250.887 394.831L250.887 397.797L257.561 397.797L257.561 401.134L260.897 401.134L260.897 404.471L263.863 404.471L263.863 407.808L266.829 407.808L266.829 410.774L270.907 410.774L270.907 413.74L274.244 413.74L274.244 417.448L277.58 417.448L277.58 423.38L280.176 423.38L280.176 433.02L283.141 433.02L283.141 458.603L280.176 458.603L280.176 468.614L276.839 468.614L276.839 474.546L274.244 474.546L274.244 477.883L270.166 477.883L270.166 481.22L267.2 481.22L267.2 484.557L267.2 484.928L270.536 484.928L270.536 481.962L283.141 481.962L283.141 484.557L286.478 484.557L286.478 487.523L289.815 487.523L289.815 490.86L296.117 490.86L296.117 497.904L286.478 497.905L286.478 494.568L283.141 494.568L283.141 490.86L276.839 490.86L276.839 497.534L274.244 497.534L274.244 500.871L270.536 500.871L270.536 503.837L267.2 503.838L267.2 507.174L254.595 507.175L254.595 503.838L251.629 503.838L251.629 500.872L248.292 500.872L248.292 497.164L241.619 497.164L241.619 500.501L216.038 500.502L216.038 496.794L206.77 496.794L206.77 494.199L199.726 494.199L199.726 490.862L196.019 490.862L196.019 487.525L193.794 487.525L193.794 484.188L190.458 484.188L190.458 481.222L187.121 481.222L187.121 477.885L180.819 477.886L180.819 474.549L173.775 474.549L173.775 477.886L170.438 477.886L170.438 481.223L167.472 481.223L167.472 484.189L164.135 484.189L164.135 487.526L157.833 487.526L157.833 490.863L151.16 490.863L151.16 494.2L125.95 494.201L125.95 490.864L115.569 490.864L115.569 494.201L110.008 494.201L110.008 497.538L99.9983 497.538L99.9983 500.875L81.0909 500.876L81.0909 497.539L71.4517 497.539L71.4517 494.202L64.7785 494.202L64.7785 490.865L58.476 490.865L58.476 487.528L55.8809 487.529L55.8809 484.562L52.1735 484.562L52.1735 479.001L48.0955 479.001L48.0955 465.282L45.871 465.282L45.871 461.575L42.5344 461.575L42.5344 458.609L39.1978 458.609L39.1978 461.575L33.266 461.575L33.266 452.677L35.4904 452.676L35.4904 449.34L48.0955 449.339L48.0955 452.676L51.8028 452.676L51.8028 456.013L55.1394 456.013L55.1394 461.575L58.476 461.574L58.476 468.619L62.1834 468.619L62.1834 474.922L64.7785 474.922L64.7785 478.259L74.0469 478.259L74.0469 481.596L87.7641 481.595L87.7641 478.258L93.6958 478.258L93.6958 474.921L97.0325 474.921L97.0325 471.955L100.369 471.955L100.369 465.281L103.706 465.281L103.706 456.012L106.672 456.012L106.672 452.304L103.335 452.304L103.335 448.967L100.369 448.967L100.369 436.361L97.0325 436.361L97.0325 432.653L89.9885 432.654L89.9885 436.361L87.7641 436.361L87.7641 439.327L84.0567 439.328L84.0567 446.001L77.7542 446.002L77.7542 439.699L81.0909 439.698L81.0909 432.654L84.0567 432.654L84.0567 430.058L87.7641 430.058L87.7641 426.721L91.1007 426.721L91.1007 423.384L119.277 423.384L119.277 426.721L132.623 426.72L132.623 423.383L151.531 423.383L151.531 426.72L157.833 426.72L157.833 430.057L164.506 430.056L164.506 433.393L174.516 433.393L174.516 430.056L177.482 430.056L177.482 423.753L180.819 423.753L180.819 417.821L184.155 417.821L184.155 414.113L187.121 414.113L187.121 410.776L190.087 410.776L190.087 407.068L193.794 407.068L193.794 404.843L197.131 404.843L197.131 401.877L200.097 401.877L200.097 397.798L206.399 397.798L206.399 391.866L209.736 391.866L209.736 385.192L212.702 385.192L212.702 378.518L215.668 378.518L215.668 372.215L257.561 372.214Z" fill="black"/>
<rect width="16.3139" height="2.5488" transform="matrix(-4.37114e-08 1 -1 2.33777e-05 126.031 461.944)" fill="#FAFF15"/>
<rect width="1.01962" height="2.5488" transform="matrix(-4.47703e-08 1 -1 2.33799e-05 126.031 469.593)" fill="black"/>
<rect width="2.03924" height="1.01952" transform="matrix(-4.37114e-08 1 -1 2.33777e-05 127.055 475.709)" fill="#FAFF15"/>
<rect width="1.01943" height="1.01933" transform="matrix(-4.37114e-08 1 -1 2.33777e-05 123.477 466.533)" fill="#FAFF15"/>
<path d="M120.931 437.701L124.258 437.485L136.716 426.871L132.853 427.121L132.457 421.005L129.237 421.213L129.001 417.565L126.211 417.746L125.988 414.312L122.339 414.549L122.124 411.222L119.763 411.375L119.603 408.907L118.101 409.004L117.857 405.248L114.745 405.45L114.286 398.368L110.852 398.59L110.219 388.825L113.653 388.603L113.409 384.847L120.384 384.394L120.628 388.15L124.276 387.914L125.139 401.22L127.929 401.039L128.333 407.263L131.552 407.054L131.782 410.596L135.645 410.345L135.861 413.672L145.411 413.052L145.195 409.726L148.844 409.489L148.614 405.948L151.19 405.781L150.925 401.703L148.35 401.87L148.211 399.724L140.806 400.204L140.34 393.014L137.013 393.23L136.617 387.113L143.699 386.654L144.333 396.419L147.981 396.183L148.037 397.041L150.612 396.874L150.786 399.557L154.649 399.307L154.872 402.74L167.964 401.892L167.741 398.458L174.716 398.005L174.25 390.816L177.362 390.614L176.729 380.849L175.119 380.953L174.729 374.944L169.579 375.278L169.119 368.195L180.065 367.485L180.246 370.275L182.929 370.101L183.597 380.403L186.816 380.194L187.053 383.843L193.277 383.439L192.852 376.893L190.062 377.074L189.401 366.88L185.967 367.103L185.556 360.771L182.337 360.98L182.108 357.439L175.24 357.884L175.017 354.45L165.681 355.056L165.904 358.49L162.255 358.726L162.68 365.272L159.138 365.502L160.203 381.92L163.744 381.691L163.981 385.339L167.629 385.102L167.845 388.429L160.655 388.895L160.44 385.569L156.898 385.798L156.474 379.252L153.362 379.454L153.132 375.913L146.265 376.358L146.042 372.924L129.409 374.003L129.179 370.462L125.96 370.67L125.723 367.022L112.31 367.892L112.546 371.54L106.537 371.93L106.766 375.471L102.903 375.722L103.126 379.156L99.7993 379.371L100.21 385.703L97.5271 385.877L98.6335 402.939L101.316 402.765L101.789 410.062L103.292 409.965L103.514 413.398L106.09 413.231L106.466 419.026L109.578 418.824L109.974 424.941L112.55 424.774L112.786 428.423L116.22 428.2L116.436 431.527L120.514 431.262L120.931 437.701Z" fill="black" stroke="black" stroke-width="0.229213"/>
<path d="M137.081 476.569L140.345 475.888L155.185 482.791L151.395 483.581L152.645 489.582L149.487 490.24L150.233 493.819L147.496 494.39L148.198 497.759L144.619 498.505L145.299 501.768L142.983 502.251L143.488 504.672L142.014 504.979L142.782 508.664L139.729 509.3L141.177 516.248L137.808 516.95L139.805 526.53L143.174 525.828L143.941 529.513L150.784 528.086L150.016 524.402L153.596 523.656L150.875 510.602L153.612 510.032L152.339 503.926L155.498 503.267L154.774 499.793L158.563 499.004L157.883 495.74L167.253 493.787L167.933 497.051L171.512 496.305L172.236 499.779L174.763 499.252L175.596 503.253L173.07 503.779L173.509 505.885L166.245 507.399L167.715 514.452L164.451 515.132L165.702 521.133L172.65 519.685L170.653 510.105L174.233 509.359L174.057 508.517L176.584 507.99L176.035 505.358L179.825 504.568L179.123 501.199L191.966 498.523L192.668 501.891L199.511 500.465L200.981 507.519L204.034 506.882L206.031 516.462L204.452 516.791L205.68 522.687L200.627 523.74L202.075 530.688L212.813 528.45L212.243 525.713L214.875 525.164L212.768 515.058L215.926 514.4L215.18 510.82L221.286 509.548L222.625 515.97L219.888 516.54L221.972 526.541L218.603 527.243L219.898 533.454L216.739 534.112L217.464 537.586L210.726 538.991L211.428 542.359L202.269 544.268L201.567 540.9L197.988 541.646L196.65 535.224L193.176 535.948L189.819 519.841L193.293 519.117L192.547 515.538L196.126 514.792L195.446 511.528L188.392 512.998L189.073 516.262L185.599 516.986L186.937 523.408L183.884 524.044L184.608 527.518L177.871 528.922L178.573 532.291L162.255 535.692L162.979 539.166L159.821 539.824L160.567 543.403L147.408 546.146L146.662 542.566L140.767 543.795L140.043 540.321L136.253 541.111L135.551 537.742L132.287 538.422L130.993 532.211L128.361 532.76L124.872 516.021L127.504 515.473L126.012 508.314L127.486 508.007L126.784 504.638L129.311 504.112L128.126 498.427L131.179 497.791L129.928 491.79L132.455 491.264L131.709 487.684L135.077 486.982L134.397 483.719L138.398 482.885L137.081 476.569Z" fill="black" stroke="black" stroke-width="0.229213"/>
</g>
<g clip-path="url(#clip6_439_19605)">
<rect width="156.042" height="118.79" transform="translate(145.797 204.814) rotate(90)" fill="#191919"/>
<path fill-rule="evenodd" clip-rule="evenodd" d="M22.5391 180.289L22.5391 284.717L32.8438 284.717L32.8438 264.533L39.7134 264.533L39.7134 284.717L70.6259 284.717L70.6259 238.208L59.4671 238.208L59.4671 213.636L70.6259 213.636L70.6259 180.289L56.8877 180.289L56.8876 200.9L43.1485 200.9L43.1485 180.289L22.5391 180.289Z" fill="#206234"/>
<path fill-rule="evenodd" clip-rule="evenodd" d="M133.438 252.776L133.438 247.663L135.71 247.663L135.71 245.675L141.664 245.675L141.664 247.948L144.22 247.948L144.22 245.675L146.501 245.675L146.501 256.468L143.952 256.468L143.952 259.308L133.438 259.308L133.438 256.468L136.56 256.468L136.56 252.776L133.438 252.776Z" fill="#206234"/>
<path fill-rule="evenodd" clip-rule="evenodd" d="M318.844 380.228L318.844 370.588L314.392 370.588L314.392 367.62L309.201 367.621L309.201 373.553L312.171 373.553L312.171 376.519L305.496 376.52L305.496 373.554L299.571 373.554L299.571 370.59L295.859 370.59L295.859 367.622L292.148 367.623L292.148 363.914L289.185 363.914L289.185 360.949L286.215 360.949L286.215 357.981L283.252 357.981L283.252 354.275L279.541 354.275L279.541 351.308L273.616 351.308L273.616 348.342L263.971 348.343L263.971 344.635L240.985 344.636L240.985 348.343L232.093 348.343L232.093 351.309L224.672 351.309L224.672 354.276L222.452 354.276L222.452 357.982L218.741 357.982L218.741 363.915L270.649 363.914L270.649 366.881L279.543 366.881L279.543 369.847L282.513 369.847L282.513 373.555L286.224 373.555L286.224 376.523L289.925 376.523L289.925 380.228L295.853 380.228L295.853 383.194L301.789 383.194L301.789 386.904L312.17 386.904L312.17 383.193L315.873 383.193L315.873 380.228L318.844 380.228ZM257.303 363.915L257.303 366.881L250.63 366.881L250.63 369.848L246.922 369.848L246.922 373.185L244.698 373.185L244.698 383.566L246.922 383.566L246.922 386.532L250.63 386.532L250.63 389.498L257.303 389.498L257.303 392.835L260.64 392.835L260.64 396.172L263.605 396.172L263.605 399.509L266.571 399.509L266.571 402.475L270.649 402.475L270.649 405.441L273.986 405.441L273.986 409.149L277.323 409.149L277.323 415.081L279.918 415.081L279.918 424.721L282.884 424.721L282.884 450.304L279.918 450.304L279.918 460.315L276.581 460.315L276.581 466.248L273.986 466.248L273.986 469.585L269.908 469.585L269.908 472.922L266.942 472.922L266.942 476.259L266.942 476.629L270.279 476.629L270.279 473.663L282.884 473.663L282.884 476.258L286.22 476.258L286.22 479.224L289.557 479.224L289.557 482.561L295.859 482.561L295.859 489.606L286.22 489.606L286.22 486.269L282.884 486.269L282.884 482.561L276.581 482.561L276.581 489.235L273.986 489.235L273.986 492.572L270.279 492.572L270.279 495.539L266.942 495.539L266.942 498.876L254.337 498.876L254.337 495.539L251.371 495.539L251.371 492.573L248.035 492.573L248.035 488.865L241.361 488.865L241.361 492.202L215.781 492.203L215.781 488.495L206.512 488.495L206.512 485.9L199.468 485.9L199.468 482.563L195.761 482.563L195.761 479.226L193.536 479.226L193.536 475.89L190.2 475.89L190.2 472.923L186.863 472.924L186.863 469.587L180.561 469.587L180.561 466.25L173.517 466.25L173.517 469.587L170.18 469.587L170.18 472.924L167.214 472.924L167.214 475.89L163.878 475.89L163.878 479.227L157.575 479.227L157.575 482.564L150.902 482.564L150.902 485.901L125.692 485.902L125.692 482.565L115.311 482.565L115.311 485.902L109.75 485.902L109.75 489.239L99.7405 489.239L99.7405 492.576L80.833 492.577L80.833 489.24L71.1939 489.24L71.1939 485.903L64.5207 485.903L64.5207 482.566L58.2182 482.567L58.2182 479.23L55.6231 479.23L55.6231 476.264L51.9157 476.264L51.9157 470.702L47.8376 470.702L47.8376 456.984L45.6132 456.984L45.6132 453.276L42.2766 453.276L42.2766 450.31L38.94 450.31L38.94 453.276L33.0082 453.276L33.0082 444.378L35.2326 444.378L35.2326 441.041L47.8376 441.04L47.8376 444.377L51.545 444.377L51.545 447.714L54.8816 447.714L54.8816 453.276L58.2182 453.276L58.2182 460.32L61.9256 460.32L61.9256 466.623L64.5207 466.623L64.5207 469.96L73.7891 469.96L73.7891 473.297L87.5063 473.297L87.5063 469.96L93.438 469.96L93.438 466.623L96.7747 466.622L96.7747 463.656L100.111 463.656L100.111 456.982L103.448 456.982L103.448 447.713L106.414 447.713L106.414 444.005L103.077 444.005L103.077 440.668L100.111 440.668L100.111 428.062L96.7747 428.062L96.7747 424.355L89.7307 424.355L89.7307 428.062L87.5063 428.062L87.5063 431.029L83.7989 431.029L83.7989 437.703L77.4964 437.703L77.4964 431.4L80.833 431.4L80.8331 424.355L83.7989 424.355L83.7989 421.759L87.5063 421.759L87.5063 418.422L90.8429 418.422L90.8429 415.085L119.019 415.085L119.019 418.422L132.365 418.421L132.365 415.084L151.273 415.084L151.273 418.421L157.575 418.421L157.575 421.758L164.248 421.758L164.248 425.095L174.258 425.094L174.258 421.757L177.224 421.757L177.224 415.454L180.561 415.454L180.561 409.522L183.897 409.522L183.897 405.814L186.863 405.814L186.863 402.477L189.829 402.477L189.829 398.769L193.536 398.769L193.536 396.544L196.873 396.544L196.873 393.578L199.839 393.578L199.839 389.5L206.141 389.5L206.141 383.567L209.478 383.567L209.478 376.893L212.444 376.893L212.444 370.219L215.41 370.219L215.41 363.916L257.303 363.915Z" fill="black"/>
<path d="M120.673 429.403L124 429.187L136.459 418.573L132.595 418.824L132.199 412.707L128.979 412.916L128.743 409.267L125.953 409.448L125.73 406.014L122.082 406.251L121.866 402.924L119.505 403.077L119.345 400.609L117.843 400.706L117.599 396.951L114.487 397.152L114.028 390.07L110.594 390.293L109.961 380.527L113.395 380.305L113.151 376.549L120.126 376.097L120.37 379.852L124.018 379.616L124.881 392.922L127.671 392.741L128.075 398.965L131.294 398.757L131.524 402.298L135.387 402.047L135.603 405.374L145.153 404.755L144.938 401.428L148.586 401.191L148.356 397.65L150.932 397.483L150.667 393.405L148.092 393.572L147.953 391.426L140.548 391.906L140.082 384.717L136.756 384.932L136.359 378.816L143.441 378.356L144.075 388.122L147.723 387.885L147.779 388.743L150.354 388.576L150.528 391.259L154.391 391.009L154.614 394.443L167.706 393.594L167.483 390.16L174.458 389.707L173.992 382.518L177.104 382.316L176.471 372.551L174.861 372.655L174.472 366.646L169.321 366.98L168.862 359.897L179.807 359.187L179.988 361.978L182.671 361.804L183.339 372.105L186.558 371.897L186.795 375.545L193.019 375.142L192.594 368.596L189.804 368.777L189.143 358.582L185.709 358.805L185.299 352.473L182.079 352.682L181.85 349.141L174.982 349.586L174.759 346.152L165.423 346.758L165.646 350.192L161.997 350.428L162.422 356.974L158.881 357.204L159.945 373.622L163.486 373.393L163.723 377.041L167.372 376.805L167.587 380.131L160.398 380.597L160.182 377.271L156.641 377.5L156.216 370.955L153.104 371.156L152.875 367.615L146.007 368.06L145.784 364.627L129.151 365.705L128.921 362.164L125.702 362.373L125.465 358.724L112.052 359.594L112.288 363.242L106.279 363.632L106.509 367.173L102.645 367.424L102.868 370.858L99.5415 371.073L99.952 377.405L97.2693 377.579L98.3757 394.641L101.058 394.467L101.532 401.764L103.034 401.667L103.257 405.101L105.832 404.934L106.208 410.728L109.32 410.527L109.716 416.643L112.292 416.476L112.528 420.125L115.962 419.902L116.178 423.229L120.256 422.964L120.673 429.403Z" fill="black" stroke="black" stroke-width="0.229213"/>
</g>
<g clip-path="url(#clip7_439_19605)">
<rect width="160.992" height="118.79" transform="translate(399.375 529.252) rotate(90)" fill="#191919"/>
<path fill-rule="evenodd" clip-rule="evenodd" d="M342.109 617.421L342.109 721.849L352.414 721.849L352.414 701.665L359.284 701.665L359.284 721.849L390.196 721.849L390.196 675.339L379.037 675.339L379.037 650.768L390.196 650.768L390.196 617.421L376.458 617.421L376.458 638.032L362.719 638.032L362.719 617.421L342.109 617.421Z" fill="#206234"/>
<path fill-rule="evenodd" clip-rule="evenodd" d="M263.219 617.88L263.219 609.628L266.884 609.628L266.884 606.42L276.509 606.42L276.509 610.087L280.635 610.087L280.635 606.42L284.304 606.42L284.304 623.84L280.181 623.84L280.181 628.425L263.219 628.425L263.219 623.84L268.27 623.84L268.27 617.88L263.219 617.88Z" fill="#206234"/>
<path fill-rule="evenodd" clip-rule="evenodd" d="M342.055 532.614L342.055 528.03L337.005 528.03L337.005 523.905L342.055 523.905L342.055 515.195L320.052 515.195L320.052 528.489L321.883 528.489L321.883 532.615L320.052 532.615L320.052 536.282L338.849 536.282L338.849 532.614L342.055 532.614Z" fill="#206234"/>
</g>
<g clip-path="url(#clip8_439_19605)">
<rect width="152.395" height="118.79" transform="translate(399.375 368.856) rotate(90)" fill="#191919"/>
<path fill-rule="evenodd" clip-rule="evenodd" d="M342.07 524.614L342.07 520.03L337.021 520.03L337.021 515.905L342.07 515.905L342.07 507.195L320.068 507.195L320.068 520.489L321.905 520.489L321.905 524.615L320.068 524.615L320.068 528.282L338.865 528.282L338.865 524.614L342.07 524.614Z" fill="#206234"/>
<path fill-rule="evenodd" clip-rule="evenodd" d="M333.125 388.527L333.125 378.887L328.673 378.887L328.673 375.919L323.483 375.919L323.483 381.852L326.452 381.852L326.452 384.819L319.777 384.819L319.777 381.853L313.852 381.853L313.852 378.889L310.141 378.889L310.141 375.921L306.429 375.921L306.429 372.213L303.467 372.213L303.467 369.247L300.504 369.247L300.504 366.28L297.533 366.28L297.533 362.573L293.822 362.574L293.822 359.607L287.897 359.607L287.897 356.642L278.252 356.642L278.252 352.934L255.267 352.934L255.267 356.643L246.375 356.643L246.375 359.608L238.953 359.608L238.953 362.575L236.733 362.575L236.733 366.281L233.03 366.281L233.03 372.214L284.93 372.212L284.93 375.18L293.824 375.18L293.824 378.146L296.794 378.146L296.794 381.854L300.505 381.854L300.505 384.822L304.206 384.822L304.206 388.527L310.135 388.527L310.135 391.494L316.07 391.493L316.07 395.203L326.451 395.202L326.451 391.493L330.154 391.493L330.154 388.527L333.125 388.527ZM271.584 372.214L271.584 375.18L264.911 375.18L264.911 378.146L261.204 378.147L261.204 381.483L258.979 381.484L258.979 391.865L261.204 391.865L261.204 394.831L264.911 394.831L264.911 397.797L271.584 397.797L271.584 401.134L274.921 401.134L274.921 404.471L277.887 404.471L277.887 407.808L280.853 407.808L280.853 410.774L284.931 410.774L284.931 413.74L288.267 413.74L288.267 417.448L291.604 417.448L291.604 423.38L294.199 423.38L294.199 433.02L297.165 433.02L297.165 458.603L294.199 458.603L294.199 468.614L290.862 468.614L290.862 474.546L288.267 474.546L288.267 477.883L284.189 477.883L284.189 481.22L281.223 481.22L281.223 484.557L281.223 484.928L284.56 484.928L284.56 481.962L297.165 481.962L297.165 484.557L300.501 484.557L300.501 487.523L303.838 487.523L303.838 490.86L310.141 490.86L310.141 497.904L300.501 497.905L300.501 494.568L297.165 494.568L297.165 490.86L290.862 490.86L290.862 497.534L288.267 497.534L288.267 500.871L284.56 500.871L284.56 503.837L281.223 503.838L281.223 507.174L268.618 507.175L268.618 503.838L265.652 503.838L265.652 500.872L262.316 500.872L262.316 497.164L255.643 497.164L255.643 500.501L230.062 500.502L230.062 496.794L220.793 496.794L220.793 494.199L213.749 494.199L213.749 490.862L210.042 490.862L210.042 487.525L207.818 487.525L207.818 484.188L204.481 484.188L204.481 481.222L201.145 481.222L201.145 477.885L194.842 477.886L194.842 474.549L187.798 474.549L187.798 477.886L184.461 477.886L184.461 481.223L181.496 481.223L181.496 484.189L178.159 484.189L178.159 487.526L171.856 487.526L171.856 490.863L165.183 490.863L165.183 494.2L139.973 494.201L139.973 490.864L129.593 490.864L129.593 494.201L124.032 494.201L124.032 497.538L114.022 497.538L114.022 500.875L95.1143 500.876L95.1143 497.539L85.4752 497.539L85.4752 494.202L78.8019 494.202L78.8019 490.865L72.4995 490.865L72.4995 487.528L69.9043 487.529L69.9043 484.562L66.197 484.562L66.197 479.001L62.1189 479.001L62.1189 465.282L59.8945 465.282L59.8945 461.575L56.5579 461.575L56.5579 458.609L53.2213 458.609L53.2213 461.575L47.2895 461.575L47.2895 452.677L49.5139 452.676L49.5139 449.34L62.1189 449.339L62.1189 452.676L65.8262 452.676L65.8262 456.013L69.1628 456.013L69.1628 461.575L72.4995 461.574L72.4995 468.619L76.2068 468.619L76.2068 474.922L78.8019 474.922L78.8019 478.259L88.0703 478.259L88.0703 481.596L101.788 481.595L101.788 478.258L107.719 478.258L107.719 474.921L111.056 474.921L111.056 471.955L114.393 471.955L114.393 465.281L117.729 465.281L117.729 456.012L120.695 456.012L120.695 452.304L117.358 452.304L117.358 448.967L114.393 448.967L114.393 436.361L111.056 436.361L111.056 432.653L104.012 432.654L104.012 436.361L101.788 436.361L101.788 439.328L98.0802 439.328L98.0802 446.001L91.7777 446.002L91.7777 439.699L95.1143 439.698L95.1143 432.654L98.0802 432.654L98.0802 430.058L101.788 430.058L101.788 426.721L105.124 426.721L105.124 423.384L133.3 423.384L133.3 426.721L146.646 426.72L146.646 423.383L165.554 423.383L165.554 426.72L171.856 426.72L171.856 430.057L178.53 430.056L178.53 433.393L188.54 433.393L188.54 430.056L191.505 430.056L191.505 423.753L194.842 423.753L194.842 417.821L198.179 417.821L198.179 414.113L201.145 414.113L201.145 410.776L204.11 410.776L204.11 407.068L207.818 407.068L207.818 404.843L211.154 404.843L211.154 401.877L214.12 401.877L214.12 397.798L220.423 397.798L220.423 391.866L223.759 391.866L223.759 385.192L226.725 385.192L226.725 378.518L229.691 378.518L229.691 372.215L271.584 372.214Z" fill="black"/>
</g>
<g clip-path="url(#clip9_439_19605)">
<rect width="156.042" height="118.79" transform="translate(399.375 204.814) rotate(90)" fill="#191919"/>
<path fill-rule="evenodd" clip-rule="evenodd" d="M411.99 193.356L307.562 193.356L307.562 203.66L327.746 203.66L327.746 210.53L307.562 210.53L307.562 241.443L354.071 241.443L354.071 230.28L378.642 230.28L378.642 241.443L411.99 241.443L411.99 227.704L391.377 227.704L391.377 213.965L411.99 213.965L411.99 193.356Z" fill="#206234"/>
<path fill-rule="evenodd" clip-rule="evenodd" d="M307.445 315.62L307.445 312.277L303.769 312.277L303.769 309.269L307.445 309.269L307.445 302.918L291.403 302.918L291.403 312.613L292.738 312.613L292.738 315.621L291.403 315.621L291.403 318.294L305.105 318.294L305.105 315.62L307.445 315.62Z" fill="#206234"/>
<path fill-rule="evenodd" clip-rule="evenodd" d="M333.125 380.228L333.125 370.588L328.673 370.588L328.673 367.62L323.483 367.621L323.483 373.553L326.452 373.553L326.452 376.52L319.777 376.521L319.777 373.554L313.852 373.554L313.852 370.59L310.141 370.59L310.141 367.622L306.429 367.623L306.429 363.914L303.467 363.914L303.467 360.949L300.504 360.949L300.504 357.981L297.533 357.981L297.533 354.275L293.822 354.275L293.822 351.308L287.897 351.308L287.897 348.343L278.252 348.344L278.252 344.635L255.267 344.636L255.267 348.344L246.375 348.344L246.375 351.309L238.953 351.309L238.953 354.276L236.733 354.276L236.733 357.982L233.03 357.982L233.03 363.915L284.93 363.914L284.93 366.881L293.824 366.881L293.824 369.847L296.794 369.847L296.794 373.555L300.505 373.555L300.505 376.523L304.206 376.523L304.206 380.228L310.135 380.228L310.135 383.195L316.07 383.195L316.07 386.904L326.451 386.904L326.451 383.194L330.154 383.194L330.154 380.228L333.125 380.228ZM271.584 363.915L271.584 366.881L264.911 366.881L264.911 369.848L261.204 369.848L261.204 373.185L258.979 373.185L258.979 383.566L261.204 383.566L261.204 386.532L264.911 386.532L264.911 389.498L271.584 389.498L271.584 392.835L274.921 392.835L274.921 396.172L277.887 396.172L277.887 399.509L280.853 399.509L280.853 402.475L284.931 402.475L284.931 405.441L288.267 405.441L288.267 409.149L291.604 409.149L291.604 415.081L294.199 415.081L294.199 424.721L297.165 424.721L297.165 450.304L294.199 450.304L294.199 460.315L290.862 460.315L290.862 466.248L288.267 466.248L288.267 469.585L284.189 469.585L284.189 472.922L281.223 472.922L281.223 476.259L281.223 476.629L284.56 476.629L284.56 473.663L297.165 473.663L297.165 476.258L300.501 476.258L300.501 479.224L303.838 479.224L303.838 482.561L310.141 482.561L310.141 489.606L300.501 489.606L300.501 486.269L297.165 486.269L297.165 482.561L290.862 482.561L290.862 489.235L288.267 489.235L288.267 492.572L284.56 492.572L284.56 495.539L281.223 495.539L281.223 498.876L268.618 498.876L268.618 495.539L265.652 495.539L265.652 492.573L262.316 492.573L262.316 488.865L255.643 488.865L255.643 492.202L230.062 492.203L230.062 488.495L220.793 488.495L220.793 485.9L213.749 485.9L213.749 482.563L210.042 482.563L210.042 479.226L207.818 479.226L207.818 475.89L204.481 475.89L204.481 472.923L201.144 472.924L201.144 469.587L194.842 469.587L194.842 466.25L187.798 466.25L187.798 469.587L184.461 469.587L184.461 472.924L181.496 472.924L181.496 475.89L178.159 475.89L178.159 479.227L171.856 479.227L171.856 482.564L165.183 482.564L165.183 485.901L139.973 485.902L139.973 482.565L129.593 482.565L129.593 485.902L124.032 485.902L124.032 489.239L114.022 489.239L114.022 492.576L95.1143 492.577L95.1143 489.24L85.4752 489.24L85.4752 485.903L78.8019 485.903L78.802 482.566L72.4994 482.567L72.4994 479.23L69.9043 479.23L69.9043 476.264L66.197 476.264L66.197 470.702L62.1189 470.702L62.1189 456.984L59.8945 456.984L59.8945 453.276L56.5579 453.276L56.5579 450.31L53.2212 450.31L53.2212 453.276L47.2895 453.276L47.2895 444.378L49.5139 444.378L49.5139 441.041L62.1189 441.04L62.1189 444.377L65.8262 444.377L65.8262 447.714L69.1628 447.714L69.1628 453.276L72.4994 453.276L72.4994 460.32L76.2068 460.32L76.2068 466.623L78.802 466.623L78.802 469.96L88.0703 469.96L88.0703 473.297L101.788 473.297L101.788 469.96L107.719 469.96L107.719 466.623L111.056 466.622L111.056 463.656L114.393 463.656L114.393 456.982L117.729 456.982L117.729 447.713L120.695 447.713L120.695 444.005L117.358 444.005L117.358 440.668L114.393 440.668L114.393 428.062L111.056 428.062L111.056 424.355L104.012 424.355L104.012 428.062L101.788 428.062L101.788 431.029L98.0802 431.029L98.0802 437.703L91.7777 437.703L91.7777 431.4L95.1143 431.4L95.1143 424.355L98.0802 424.355L98.0802 421.759L101.788 421.759L101.788 418.422L105.124 418.422L105.124 415.085L133.3 415.085L133.3 418.422L146.646 418.421L146.646 415.084L165.554 415.084L165.554 418.421L171.856 418.421L171.856 421.758L178.53 421.758L178.53 425.095L188.54 425.094L188.54 421.757L191.505 421.757L191.505 415.454L194.842 415.454L194.842 409.522L198.179 409.522L198.179 405.814L201.144 405.814L201.144 402.477L204.11 402.477L204.11 398.769L207.818 398.769L207.818 396.544L211.154 396.544L211.154 393.578L214.12 393.578L214.12 389.5L220.423 389.5L220.423 383.567L223.759 383.567L223.759 376.893L226.725 376.893L226.725 370.219L229.691 370.219L229.691 363.916L271.584 363.915Z" fill="black"/>
</g>
</g>
<defs>
<clipPath id="clip0_439_19605">
<rect width="425" height="896" fill="white"/>
</clipPath>
<clipPath id="clip1_439_19605">
<rect width="160.992" height="118.79" fill="white" transform="translate(272.586 529.252) rotate(90)"/>
</clipPath>
<clipPath id="clip2_439_19605">
<rect width="152.395" height="118.79" fill="white" transform="translate(272.586 368.856) rotate(90)"/>
</clipPath>
<clipPath id="clip3_439_19605">
<rect width="156.042" height="118.79" fill="white" transform="translate(272.586 204.814) rotate(90)"/>
</clipPath>
<clipPath id="clip4_439_19605">
<rect width="160.992" height="118.79" fill="white" transform="translate(145.797 529.252) rotate(90)"/>
</clipPath>
<clipPath id="clip5_439_19605">
<rect width="152.395" height="118.79" fill="white" transform="translate(145.797 368.856) rotate(90)"/>
</clipPath>
<clipPath id="clip6_439_19605">
<rect width="156.042" height="118.79" fill="white" transform="translate(145.797 204.814) rotate(90)"/>
</clipPath>
<clipPath id="clip7_439_19605">
<rect width="160.992" height="118.79" fill="white" transform="translate(399.375 529.252) rotate(90)"/>
</clipPath>
<clipPath id="clip8_439_19605">
<rect width="152.395" height="118.79" fill="white" transform="translate(399.375 368.856) rotate(90)"/>
</clipPath>
<clipPath id="clip9_439_19605">
<rect width="156.042" height="118.79" fill="white" transform="translate(399.375 204.814) rotate(90)"/>
</clipPath>
</defs>
</svg>
