<svg width="1440" height="717" viewBox="0 0 1440 717" fill="none" xmlns="http://www.w3.org/2000/svg">
<g clip-path="url(#clip0_369_2768)">
<rect width="1440" height="717" fill="#111111"/>
<path fill-rule="evenodd" clip-rule="evenodd" d="M1314.71 16.9631H1418.13V25.7575H1440.36V79.7793H1319.84V67.2162H1314.71V37.0642H1335.22V25.7573H1314.71V16.9631Z" fill="#206234"/>
<path fill-rule="evenodd" clip-rule="evenodd" d="M1440.36 164.391H1336.94V158.408L1314.71 158.408V121.658L1435.23 121.658V130.204H1440.36V150.716H1419.85V158.408H1440.36V164.391Z" fill="#206234"/>
<path fill-rule="evenodd" clip-rule="evenodd" d="M1440.36 79.78H1440.36V121.658H1314.71V104.565H1349.75V96.8731H1314.71V79.78H1434.37V98.5825H1440.36V79.78Z" fill="white"/>
<path fill-rule="evenodd" clip-rule="evenodd" d="M1440.36 -16H1440.36V25.8783H1314.71V8.78497H1349.75V1.09305H1314.71V-16H1434.37V2.80248H1440.36V-16Z" fill="white"/>
<path fill-rule="evenodd" clip-rule="evenodd" d="M1314.71 206.269H1314.71V164.391H1440.36V181.484H1405.32V189.176H1440.36V206.269L1320.7 206.269V187.467H1314.71V206.269Z" fill="white"/>
<path fill-rule="evenodd" clip-rule="evenodd" d="M1314.71 460.103H1314.71V418.225H1440.36V435.318H1405.32V443.01H1440.36V460.103H1320.7V441.301H1314.71V460.103Z" fill="white"/>
<path fill-rule="evenodd" clip-rule="evenodd" d="M1440.36 206.269H1336.94V212.252H1314.71V249.002H1435.23V240.455H1440.36V219.943H1419.85V212.251H1440.36V206.269Z" fill="#206234"/>
<path fill-rule="evenodd" clip-rule="evenodd" d="M1440.36 375.491H1336.94V381.474H1314.71V418.224H1435.23V409.678H1440.36V389.166H1419.85V381.474H1440.36V375.491Z" fill="#206234"/>
<path fill-rule="evenodd" clip-rule="evenodd" d="M1314.71 333.613H1418.13V327.631H1440.36V290.88H1319.84V299.427H1314.71V319.939H1335.22V327.631H1314.71V333.613Z" fill="#206234"/>
<path fill-rule="evenodd" clip-rule="evenodd" d="M1314.71 249.002H1314.71V290.88H1440.36V273.787H1405.32V266.095H1440.36V249.002H1320.7V267.805H1314.71V249.002Z" fill="white"/>
<path fill-rule="evenodd" clip-rule="evenodd" d="M1440.36 375.491H1440.36V333.613H1314.71V350.706H1349.75V358.398H1314.71V375.491H1434.37V356.689H1440.36V375.491Z" fill="white"/>
<path fill-rule="evenodd" clip-rule="evenodd" d="M860.182 79.6403L848.346 81.0377L848.991 86.4997L845.349 86.9297L846.101 93.3024L853.385 92.4425L852.955 88.8012L856.599 88.371L857.566 96.5645L853.922 96.9947L854.782 104.278L851.143 104.707L851.681 109.259L848.039 109.689L848.576 114.241L844.022 114.779L844.452 118.42L840.81 118.85L841.24 122.492L837.598 122.922L838.028 126.563L833.478 127.101L834.015 131.652L830.373 132.082L831.233 139.365L827.59 139.795L828.988 151.63L824.436 152.168L827.768 180.389L832.32 179.852L833.61 190.776L837.253 190.346L838.328 199.45L841.97 199.02L842.293 201.751L846.843 201.214L847.381 205.766L854.664 204.906L847.139 141.179L850.781 140.749L849.491 129.825L853.133 129.395L852.703 125.754L857.257 125.216L856.72 120.664L860.362 120.234L859.824 115.682L864.374 115.145L863.514 107.862L867.158 107.432L866.298 100.149L870.85 99.6114L869.345 86.8661L864.793 87.4036L864.255 82.8519L860.612 83.282L860.182 79.6403ZM849.075 157.566L852.717 157.136L853.685 165.33L857.327 164.9L857.864 169.452L861.961 168.968L862.284 171.699L875.03 170.194L874.708 167.463L878.35 167.033L877.812 162.481L881.454 162.051L880.487 153.858L884.584 153.374L884.1 149.277L888.197 148.794L887.767 145.152L891.864 144.668L891.434 141.027L895.076 140.597L894.485 135.59L898.127 135.16L897.643 131.063L902.195 130.526L901.711 126.429L908.995 125.569L908.619 122.383L920.455 120.986L920.025 117.344L951.436 113.636L951.866 117.277L964.157 115.826L964.641 119.923L971.925 119.063L972.301 122.249L976.398 121.765L976.99 126.772L981.087 126.289L981.517 129.93L985.614 129.447L986.069 129.393L985.585 125.296L981.943 125.726L980.116 110.25L983.302 109.873L982.819 105.777L986.461 105.347L985.977 101.25L990.074 100.766L989.16 93.0282L997.81 92.007L999.207 103.842L995.11 104.326L995.594 108.422L991.041 108.96L991.955 116.698L1000.15 115.731L1000.53 118.917L1004.62 118.433L1005.16 122.985L1008.8 122.555L1009.29 126.652L1013.38 126.168L1015.21 141.644L1011.11 142.128L1011.54 145.77L1007.9 146.2L1008.39 150.296L1003.83 150.834L1004.8 159.027L1008.9 158.543L1012.61 189.951L1008.05 190.489L1009.4 201.869L1006.21 202.245L1007.23 210.893L1003.14 211.377L1003.67 215.929L999.576 216.413L999.898 219.144L995.801 219.628L996.285 223.724L992.643 224.154L993.127 228.251L989.03 228.735L989.943 236.473L985.846 236.956L986.868 245.605L990.965 245.121L991.448 249.218L995.546 248.734L995.976 252.376L999.617 251.946L1000.1 256.043L1004.2 255.559L1005.11 263.297L1009.21 262.813L1010.18 271.007L1014.27 270.523L1017.93 301.476L1013.83 301.96L1015.34 314.705L1019.43 314.221L1020.24 321.049L1024.34 320.565L1025.79 332.855L1029.89 332.372L1032.63 355.586L1028.53 356.07L1029.93 367.905L1025.83 368.388L1026.8 376.582L1022.7 377.066L1023.61 384.804L1019.52 385.287L1019.89 388.474L1016.25 388.904L1016.79 393.456L1009.96 394.262L1010.55 399.269L993.708 401.257L994.031 403.989L989.478 404.526L989.962 408.623L986.32 409.053L986.804 413.149L990.446 412.719L991.306 420.002L980.38 421.292L980.058 418.561L975.961 419.045L974.133 403.568L978.23 403.085L977.693 398.533L981.79 398.049L981.306 393.952L988.135 393.146L987.651 389.05L996.3 388.028L995.763 383.477L1003.5 382.563L1003.13 379.377L1007.22 378.893L1005.88 367.513L1009.98 367.029L1007.99 350.188L1003.89 350.671L1003.03 343.388L998.933 343.872L998.449 339.775L994.807 340.205L994.324 336.108L986.129 337.076L985.646 332.979L974.265 334.323L973.835 330.681L969.282 331.219L969.766 335.315L965.669 335.799L966.099 339.441L950.621 341.268L951.105 345.365L946.553 345.902L947.574 354.551L952.126 354.013L952.449 356.744L956.091 356.314L956.628 360.866L964.822 359.899L965.736 367.637L957.997 368.551L957.513 364.454L948.864 365.475L948.434 361.834L945.247 362.21L944.71 357.658L940.613 358.142L940.129 354.045L936.032 354.529L931.947 319.935L936.044 319.451L934.109 303.064L930.012 303.548L927.27 280.333L931.367 279.849L930.454 272.111L934.551 271.628L933.583 263.434L937.68 262.95L936.229 250.66L932.132 251.144L931.702 247.503L923.963 248.416L923.479 244.32L916.196 245.179L915.712 241.083L911.159 241.62L910.729 237.979L906.632 238.462L906.202 234.821L901.65 235.358L901.112 230.807L898.381 231.129L897.897 227.032L894.255 227.462L893.825 223.821L888.818 224.412L887.904 216.674L880.62 217.534L880.137 213.437L871.942 214.404L871.512 210.763L863.318 211.73L862.888 208.089L855.149 209.002L849.075 157.566Z" fill="black"/>
<rect width="20.1694" height="3.15116" transform="matrix(0.993103 -0.117246 0.11727 0.9931 964.492 181.209)" fill="#FAFF15"/>
<rect width="1.26059" height="3.15116" transform="matrix(0.993103 -0.117246 0.11727 0.9931 973.879 180.1)" fill="black"/>
<rect width="2.52118" height="1.26046" transform="matrix(0.993103 -0.117246 0.11727 0.9931 981.246 177.962)" fill="#FAFF15"/>
<rect width="1.26059" height="1.26046" transform="matrix(0.993103 -0.117246 0.11727 0.9931 970.492 183.673)" fill="#FAFF15"/>
<rect width="20.1694" height="3.15116" transform="matrix(0.993103 -0.117246 0.11727 0.9931 978.309 306.038)" fill="#FAFF15"/>
<rect width="1.26059" height="3.15116" transform="matrix(0.993103 -0.117246 0.11727 0.9931 987.699 304.929)" fill="black"/>
<rect width="2.52118" height="1.26046" transform="matrix(0.993103 -0.117246 0.11727 0.9931 995.062 302.791)" fill="#FAFF15"/>
<rect width="1.26059" height="1.26046" transform="matrix(0.993103 -0.117246 0.11727 0.9931 984.312 308.502)" fill="#FAFF15"/>
<rect width="28.4205" height="4.44027" transform="matrix(0.993103 -0.117246 0.11727 0.9931 946.488 278.929)" fill="#FAFF15"/>
<rect width="1.77628" height="4.44027" transform="matrix(0.993103 -0.117246 0.11727 0.9931 959.719 277.367)" fill="black"/>
<rect width="3.55257" height="1.77611" transform="matrix(0.993103 -0.117246 0.11727 0.9931 970.098 274.354)" fill="#FAFF15"/>
<rect width="1.77628" height="1.77611" transform="matrix(0.993103 -0.117246 0.11727 0.9931 954.949 282.402)" fill="#FAFF15"/>
<rect width="29.3373" height="4.58351" transform="matrix(0.993103 -0.117246 0.11727 0.9931 907.023 163.647)" fill="#FAFF15"/>
<rect width="29.3373" height="4.58351" transform="matrix(0.993103 -0.117246 0.11727 0.9931 907.023 163.647)" fill="#FAFF15"/>
<rect width="1.83358" height="4.58351" transform="matrix(0.993103 -0.117246 0.11727 0.9931 920.68 162.035)" fill="black"/>
<rect width="1.83358" height="1.8334" transform="matrix(0.993103 -0.117246 0.11727 0.9931 906.809 161.826)" fill="#FAFF15"/>
<rect width="1.83358" height="1.8334" transform="matrix(0.993103 -0.117246 0.11727 0.9931 932.949 164.279)" fill="#FAFF15"/>
<rect width="36.6716" height="5.72938" transform="matrix(0.993103 -0.117246 0.11727 0.9931 914.973 207.478)" fill="#FAFF15"/>
<rect width="36.6716" height="5.72938" transform="matrix(0.993103 -0.117246 0.11727 0.9931 914.973 207.478)" fill="#FAFF15"/>
<rect width="2.29198" height="5.72938" transform="matrix(0.993103 -0.117246 0.11727 0.9931 932.043 205.462)" fill="black"/>
<rect width="2.29198" height="2.29175" transform="matrix(0.993103 -0.117246 0.11727 0.9931 914.707 205.202)" fill="#FAFF15"/>
<rect width="2.29198" height="2.29175" transform="matrix(0.993103 -0.117246 0.11727 0.9931 947.379 208.267)" fill="#FAFF15"/>
<path d="M1157.62 449.539H1194.06V459.668H1157.62V449.539Z" fill="white"/>
<rect x="1124.74" y="449.539" width="26.0359" height="10.129" fill="white"/>
<rect x="1082.26" y="449.539" width="34.2578" height="10.129" fill="white"/>
<rect x="1048" y="449.539" width="27.4062" height="10.129" fill="white"/>
<rect x="1004.14" y="449.539" width="36.9984" height="10.129" fill="white"/>
<rect x="946.566" y="449.539" width="36.9984" height="10.129" fill="white"/>
<rect x="905.328" y="449.539" width="36.9984" height="10.129" fill="white"/>
<rect x="987.707" y="449.539" width="12.3328" height="10.129" fill="white"/>
<rect x="894.523" y="449.539" width="16.4437" height="10.129" fill="white"/>
<rect x="849.305" y="449.539" width="38.3687" height="10.129" fill="white"/>
<rect x="812.305" y="449.539" width="30.1468" height="10.129" fill="white"/>
<rect x="775.309" y="449.539" width="30.1468" height="10.129" fill="white"/>
<rect x="738.309" y="449.539" width="30.1468" height="10.129" fill="white"/>
<rect x="695.828" y="449.539" width="35.6281" height="10.129" fill="white"/>
<rect x="678.02" y="449.539" width="10.9625" height="10.129" fill="white"/>
<rect x="652.484" y="449.58" width="18.448" height="9.7666" fill="white"/>
<rect x="590.316" y="449.539" width="10.9625" height="10.129" fill="white"/>
<rect x="543.719" y="449.539" width="39.739" height="10.129" fill="white"/>
<rect x="503.984" y="449.539" width="32.8874" height="10.129" fill="white"/>
<rect x="464.246" y="449.539" width="32.8874" height="10.129" fill="white"/>
<rect x="432.73" y="449.539" width="24.6656" height="10.129" fill="white"/>
<rect x="381.191" y="449.58" width="44.4923" height="10.8518" fill="white"/>
<rect x="368.324" y="449.539" width="12.3328" height="10.129" fill="white"/>
<path d="M393.359 416.563V389.683H395.683V395.158H401.491V400.468H406.801V410.921H422.897V405.666H427.876V416.563H422.897V438.465H417.587V416.563H401.159V438.465H396.014V416.563H393.359Z" fill="black" stroke="black" stroke-width="0.406346"/>
<path d="M422.02 405.395V389.677H427.878V405.395H422.02Z" fill="#206234" stroke="#206234" stroke-width="0.406346"/>
<path d="M390.039 373.422V367.78H413.935V373.256L390.039 373.422Z" fill="#26733D" stroke="#26733D" stroke-width="0.406346"/>
<path d="M393.359 384.041V373.588H427.876V384.041H393.359Z" fill="#206234" stroke="#206234" stroke-width="0.406346"/>
<path d="M395.461 389.677V378.922H424.418V389.677H395.461Z" fill="#206234" stroke="#206234" stroke-width="0.406346"/>
<path d="M401.254 394.641V384.714H422.765V397.95L410.355 399.191L401.254 394.641Z" fill="#206234" stroke="#206234" stroke-width="0.406346"/>
<path d="M393.359 389.517V384.041H395.849V389.517H401.657V394.64H408.958V401.956H404.563H401.657V394.992H395.849V389.517H393.359Z" fill="#26733D"/>
<path d="M395.849 389.517H393.359V384.041H395.849V389.517ZM395.849 389.517V394.992H401.657V394.64M395.849 389.517H401.657V394.64M401.657 394.64V401.956H404.563H408.958V394.64H401.657Z" stroke="#26733D" stroke-width="0.406346"/>
<path d="M424.42 388.849V383.886H427.877V389.677H424.42V392.159H427.877V397.536H424.834V401.672H422.766V394.227V389.677H423.593H424.42V388.849Z" fill="#26733D"/>
<path d="M424.42 389.677V383.886H427.877V389.677H424.42ZM424.42 389.677V392.159H427.877V397.536H424.834V401.672H422.766V394.227V389.677H423.593H424.42ZM424.42 389.677V388.849" stroke="#26733D" stroke-width="0.406346"/>
<path d="M422.566 373.422V367.78H430.2V373.256L422.566 373.422Z" fill="#26733D" stroke="#26733D" stroke-width="0.406346"/>
<path d="M434.182 330.115H386.224V341.564H376.434V346.542H444.305V341.564H434.182V330.115Z" fill="#26733D" stroke="#26733D" stroke-width="0.406346"/>
<path d="M388.711 346.708H431.856V367.78H388.711V346.708Z" fill="black"/>
<rect x="418.25" y="367.78" width="4.31453" height="5.64151" fill="black"/>
<rect x="413.938" y="367.78" width="4.31453" height="5.64151" fill="black"/>
<rect x="426.215" y="353.179" width="4.64642" height="7.96449" fill="#FAFF15"/>
<rect x="411.613" y="353.179" width="4.64642" height="7.96449" fill="#FAFF15"/>
<rect x="389.047" y="335.259" width="2.6551" height="2.98668" fill="#FF9315"/>
<rect x="429.535" y="331.608" width="2.6551" height="2.98668" fill="#FF9315"/>
<rect x="391.699" y="338.245" width="6.30586" height="2.98668" fill="#FF9315"/>
<path d="M395.848 438.631H401.324V448.753H395.848V438.631Z" fill="#26733D"/>
<path d="M417.422 438.631H423.064V448.753H417.422V438.631Z" fill="#26733D"/>
<path d="M422.733 394.483L414.113 394.476V410.755H422.733V394.483Z" fill="white"/>
<path d="M407.721 431.673H410.586V397.742H401.614V402.074H404.855V405.052V422.649H407.721V428.424V431.673Z" fill="#122132" stroke="#122132" stroke-width="0.406346"/>
<path d="M416.465 431.673L416.464 390.504H413.659L413.66 393.671H410.673V431.673H416.465Z" fill="#182738" stroke="#182738" stroke-width="0.406346"/>
<rect x="413.664" y="426.154" width="1.26675" height="4.70554" transform="rotate(90 413.664 426.154)" fill="#FF9315"/>
<rect x="419.453" y="425.792" width="2.89543" height="2.89572" transform="rotate(90 419.453 425.792)" fill="#FF9315"/>
<rect x="413.664" y="423.259" width="1.26675" height="4.70554" transform="rotate(90 413.664 423.259)" fill="#FF9315"/>
<rect x="413.664" y="429.049" width="1.26675" height="4.70554" transform="rotate(90 413.664 429.049)" fill="#FF9315"/>
<path fill-rule="evenodd" clip-rule="evenodd" d="M331.025 390.215H313.906V522.247H342.023V536.918H313.906V604.156H382.374V589.486H365.257V582.151H382.374V495.04H373.816V487.705H382.374V425.668H364.034V418.333H382.374V379.212H331.025V390.215Z" fill="#206234"/>
<path fill-rule="evenodd" clip-rule="evenodd" d="M637.916 385.325H609.795V379.212H590.23V545.475H597.566V582.151H590.23V604.156H658.699V577.261H650.136V569.926H658.699V513.69H644.028V497.797H658.699V379.212H637.916V385.325Z" fill="#206234"/>
<path fill-rule="evenodd" clip-rule="evenodd" d="M313.906 459.221H1140.96V487.711H1137.34V483.994H1113.8V487.711H1004.69V483.994H966.284V487.711H867.232V475.324H861.038V487.711H806.478V481.517H743.298V487.711H685.072V475.324H678.878V487.711H597.117V483.994H578.534V487.711H536.412V483.994H507.919V487.711H432.35V475.324H424.917V487.711H313.906V459.221Z" fill="#206234"/>
<path fill-rule="evenodd" clip-rule="evenodd" d="M866.539 392.66H876.321V379.212H935.007V401.218H917.888V409.776H935.007V567.481H928.891V594.376H935.007V604.156H866.539V530.805H905.665V524.692H866.539V392.66Z" fill="#206234"/>
<path fill-rule="evenodd" clip-rule="evenodd" d="M1231.51 479.447H1194.07V459.222H1128.84V568.435H1140.92V581.918H1262.92V529.334H1273.79V581.918H1377.68V573.828H1405.46V581.918H1440.49V459.222H1231.51V479.447Z" fill="#206234"/>
<path fill-rule="evenodd" clip-rule="evenodd" d="M543.998 560.282H-67V575.666H1227.91V567.974H1253.66V575.666H1440.16V560.282H866.865V567.119H845.188V560.282H569.738V567.974H543.998V560.282Z" fill="white"/>
<path fill-rule="evenodd" clip-rule="evenodd" d="M-67 575.509H1001.55V607.007H1025.1V575.509H1440.16V733H1440.15V700.242H1412.19V733H-67V681.343H21.3099V658.664H-67V575.509ZM508.759 692.177H344.619V710.252H508.759V692.177Z" fill="#206234"/>
<rect x="204" y="74" width="148.424" height="12.1341" fill="white"/>
<rect x="280.547" y="85.2007" width="99.8831" height="12.1341" fill="white"/>
<rect x="1259.48" y="70.8677" width="100.817" height="8.40053" transform="rotate(-180 1259.48 70.8677)" fill="white"/>
<rect x="1207.21" y="63.4006" width="67.211" height="8.40053" transform="rotate(-180 1207.21 63.4006)" fill="white"/>
<rect x="164.484" y="426.868" width="100.817" height="8.40053" transform="rotate(-180 164.484 426.868)" fill="white"/>
<rect x="112.211" y="419.401" width="67.211" height="8.40053" transform="rotate(-180 112.211 419.401)" fill="white"/>
<rect x="171" y="269" width="40.1399" height="12.1341" fill="white"/>
<rect x="196.203" y="274.601" width="40.1399" height="12.1341" fill="white"/>
<rect x="714.113" y="230.082" width="40.1399" height="12.1341" fill="white"/>
<rect x="739.32" y="235.682" width="40.1399" height="12.1341" fill="white"/>
<rect x="569.539" y="121" width="108.284" height="12.1341" fill="white"/>
<rect x="549" y="126.6" width="40.1399" height="12.1341" fill="white"/>
</g>
<defs>
<clipPath id="clip0_369_2768">
<rect width="1440" height="717" fill="white"/>
</clipPath>
</defs>
</svg>
