<svg width="1024" height="1024" viewBox="0 0 1024 1024" fill="none" xmlns="http://www.w3.org/2000/svg">
<g clip-path="url(#clip0_425_9919)">
<rect width="1024" height="1024" fill="#111111"/>
<rect x="1013.22" y="445.259" width="62.5063" height="18.7519" transform="rotate(-90 1013.22 445.259)" fill="white"/>
<rect x="927.312" y="405.433" width="18.5733" height="18.5733" fill="white"/>
<rect x="945.883" y="424.006" width="20.002" height="18.5733" fill="white"/>
<rect x="908.734" y="386.86" width="18.5733" height="18.5733" fill="white"/>
<rect x="890.164" y="464.01" width="100.01" height="18.5733" transform="rotate(-90 890.164 464.01)" fill="white"/>
<rect x="965.883" y="464.01" width="100.01" height="18.5733" transform="rotate(-90 965.883 464.01)" fill="white"/>
<rect x="648.891" y="365.25" width="40.004" height="18.7519" fill="white"/>
<rect x="648.891" y="406.505" width="40.004" height="18.1268" fill="white"/>
<rect x="630.141" y="464.011" width="80.008" height="18.7519" transform="rotate(-90 630.141 464.011)" fill="white"/>
<rect x="688.898" y="464.011" width="80.008" height="18.7519" transform="rotate(-90 688.898 464.011)" fill="white"/>
<rect x="543.25" y="365.25" width="39.379" height="18.7519" fill="white"/>
<rect x="543.25" y="446.509" width="39.379" height="18.7519" fill="white"/>
<rect x="524.5" y="445.259" width="61.2562" height="18.7519" transform="rotate(-90 524.5 445.259)" fill="white"/>
<rect x="582.633" y="445.259" width="61.2562" height="18.7519" transform="rotate(-90 582.633 445.259)" fill="white"/>
<rect x="455.75" y="446.509" width="40.004" height="18.7519" fill="white"/>
<rect x="437" y="465.26" width="100.01" height="18.7519" transform="rotate(-90 437 465.26)" fill="white"/>
<rect x="842.656" y="464.01" width="100.01" height="18.7519" transform="rotate(-90 842.656 464.01)" fill="white"/>
<rect x="795.156" y="445.259" width="62.5063" height="18.7519" transform="rotate(-90 795.156 445.259)" fill="white"/>
<rect x="755.148" y="445.259" width="40.004" height="18.7519" fill="white"/>
<rect x="755.148" y="364" width="40.004" height="18.7519" fill="white"/>
<rect x="736.398" y="464.011" width="100.01" height="18.7519" transform="rotate(-90 736.398 464.011)" fill="white"/>
<rect x="734.117" y="660.28" width="43.7544" height="10.2549" transform="rotate(-90 734.117 660.28)" fill="#206234"/>
<rect x="717.023" y="642.163" width="25.6373" height="10.2549" transform="rotate(-90 717.023 642.163)" fill="#206234"/>
<rect x="750.867" y="642.163" width="25.6373" height="10.2549" transform="rotate(-90 750.867 642.163)" fill="#206234"/>
<rect x="717.023" y="626.78" width="10.2549" height="17.0916" transform="rotate(-90 717.023 626.78)" fill="#206234"/>
<rect x="717.023" y="642.163" width="8.88761" height="17.0916" transform="rotate(-90 717.023 642.163)" fill="#206234"/>
<rect x="751.211" y="642.163" width="8.88761" height="17.0916" transform="rotate(-90 751.211 642.163)" fill="#206234"/>
<rect x="793.25" y="642.847" width="8.88761" height="8.88761" transform="rotate(-90 793.25 642.847)" fill="#206234"/>
<rect x="785.047" y="625.413" width="8.88761" height="8.88761" transform="rotate(-90 785.047 625.413)" fill="#206234"/>
<rect x="801.797" y="633.275" width="16.7497" height="8.88761" transform="rotate(-90 801.797 633.275)" fill="#206234"/>
<rect x="785.047" y="660.28" width="18.1171" height="8.88761" transform="rotate(-90 785.047 660.28)" fill="#206234"/>
<rect x="801.797" y="660.28" width="8.88761" height="8.88761" transform="rotate(-90 801.797 660.28)" fill="#206234"/>
<rect x="750.867" y="626.78" width="10.2549" height="17.0916" transform="rotate(-90 750.867 626.78)" fill="#206234"/>
<rect x="767.961" y="660.28" width="43.7544" height="10.2549" transform="rotate(-90 767.961 660.28)" fill="#206234"/>
<rect width="1237.5" height="928.124" transform="translate(0.421875)" fill="#111111"/>
<path fill-rule="evenodd" clip-rule="evenodd" d="M676.188 116H728.166V155.881H747.504V116H812.761V169.174H774.081V193.344H812.761V253.768H694.306V235.641H676.188V116Z" fill="#206234"/>
<rect x="182" y="66" width="7.2517" height="7.25097" fill="white"/>
<rect x="731.625" y="70.0928" width="7.2517" height="7.25097" fill="white"/>
<rect x="782.391" y="315.417" width="7.2517" height="7.25097" fill="white"/>
<rect x="676.031" y="276.745" width="7.2517" height="7.25097" fill="white"/>
<rect x="609.562" y="107.556" width="7.2517" height="7.25097" fill="white"/>
<rect x="369.055" y="218.738" width="7.2517" height="7.25097" fill="white"/>
<rect x="970" y="457" width="7.2517" height="7.25097" fill="white"/>
<rect x="489.914" y="566.785" width="7.2517" height="7.25097" fill="white"/>
<rect x="398.055" y="490.649" width="7.2517" height="7.25097" fill="white"/>
<rect x="735.258" y="618.749" width="7.2517" height="7.25097" fill="white"/>
<rect x="81.3906" y="720.263" width="7.2517" height="7.25097" fill="white"/>
<rect x="712.281" y="177.65" width="4.83447" height="4.83398" fill="white"/>
<rect x="604.727" y="497.9" width="4.83447" height="4.83398" fill="white"/>
<rect x="326" y="614" width="4.83447" height="4.83398" fill="white"/>
<rect x="483.859" y="290.039" width="4.83447" height="4.83398" fill="white"/>
<rect x="173.258" y="633.25" width="4.83447" height="4.83398" fill="white"/>
<rect x="989.07" y="79.7605" width="4.83447" height="4.83398" fill="white"/>
<rect x="254.227" y="143.811" width="4.83447" height="4.83398" fill="white"/>
<rect x="71.7344" y="500.317" width="4.83447" height="4.83398" fill="white"/>
<rect x="417.398" y="73.7183" width="4.83447" height="4.83398" fill="white"/>
<rect x="320.711" y="345.63" width="4.83447" height="4.83398" fill="white"/>
<rect x="222.805" y="713.012" width="4.83447" height="4.83398" fill="white"/>
<rect x="76.5625" y="247.741" width="4.83447" height="4.83398" fill="white"/>
<rect x="604.727" y="385.51" width="7.2517" height="7.25097" fill="white"/>
<rect x="178.086" y="315.416" width="7.2517" height="7.25097" fill="white"/>
<rect x="539.469" y="183.692" width="7.2517" height="7.25097" fill="white"/>
<rect x="782.391" y="315.417" width="7.2517" height="7.25097" fill="white"/>
<rect x="676.031" y="276.745" width="7.2517" height="7.25097" fill="white"/>
<rect x="609.562" y="107.556" width="7.2517" height="7.25097" fill="white"/>
<rect x="89" y="101" width="4.83447" height="4.83398" fill="white"/>
<rect x="483.859" y="290.039" width="4.83447" height="4.83398" fill="white"/>
<rect x="417.398" y="73.7183" width="4.83447" height="4.83398" fill="white"/>
<rect x="539.469" y="183.692" width="7.2517" height="7.25097" fill="white"/>
<rect x="672.539" y="143.795" width="42.3016" height="10.8765" fill="white"/>
<path fill-rule="evenodd" clip-rule="evenodd" d="M760.035 335.246H863.492V325.037H843.499V318.231H863.492V287.606H817.412V298.665H793.069V287.606H760.035V301.217H780.453V314.829H760.035V335.246Z" fill="#206234"/>
<path fill-rule="evenodd" clip-rule="evenodd" d="M826.039 141.378H856.254V158.297H869.549V141.378H957.778V155.88H936.026V164.34H957.778V218.722H927.575V235.641H957.778V279.147H826.039V218.722H863.511V194.552H826.039V141.378Z" fill="#206234"/>
<rect x="927.57" y="246.518" width="51.9705" height="10.8765" fill="white"/>
<rect x="734.203" y="321.635" width="29.9482" height="12.2503" fill="white"/>
<rect x="755.977" y="333.885" width="29.9482" height="12.2503" fill="white"/>
<rect x="652" y="154.673" width="42.3016" height="10.8765" fill="white"/>
<rect x="170.836" y="410.888" width="42.3016" height="10.8765" fill="white"/>
<rect x="150.289" y="421.765" width="42.3016" height="10.8765" fill="white"/>
<path fill-rule="evenodd" clip-rule="evenodd" d="M747.352 447.143V459.228H760.65V470.104H747.352V493.065H805.365V458.019H800.525V447.143H805.365V437.475H755.815V447.143H747.352Z" fill="#206234"/>
<rect x="781.18" y="485.815" width="48.3447" height="10.8765" fill="white"/>
<rect x="816.234" y="479.772" width="8.46031" height="10.8765" fill="white"/>
<path fill-rule="evenodd" clip-rule="evenodd" d="M714.687 459.228H692.955V449.56H684.479V424.182H694.157V413.305H684.479V403.637H730.411V414.512H742.492V459.228H730.399V445.933H714.687V459.228Z" fill="#206234"/>
<rect x="708.656" y="398.803" width="8.46031" height="10.8765" fill="white"/>
<rect x="730.414" y="420.556" width="24.1723" height="8.45946" fill="white"/>
<rect x="747.344" y="424.182" width="24.1723" height="8.45946" fill="white"/>
<path fill-rule="evenodd" clip-rule="evenodd" d="M460.919 331.128H448.831V344.421H437.953V331.128H414.99V389.136H450.035V384.303H460.913V389.136H470.586V339.587H460.919V331.128Z" fill="#206234"/>
<rect x="429.484" y="356.506" width="48.3447" height="10.8765" transform="rotate(-180 429.484 356.506)" fill="white"/>
<path fill-rule="evenodd" clip-rule="evenodd" d="M508.054 436.267H486.306V426.599H477.846V401.22H487.518V390.344H477.846V380.676H523.779V391.552H535.859V436.267H523.766V422.974H508.054V436.267Z" fill="#206234"/>
<rect x="489.93" y="419.349" width="24.1723" height="8.45946" transform="rotate(-180 489.93 419.349)" fill="white"/>
<rect x="473.008" y="415.723" width="24.1723" height="8.45946" transform="rotate(-180 473.008 415.723)" fill="white"/>
<path fill-rule="evenodd" clip-rule="evenodd" d="M153.906 441.101V536.572H185.332V476.148H203.462V536.572H325.53V490.649H274.775V466.479H325.53V425.39H165.986V441.101H153.906Z" fill="#206234"/>
<rect x="356.961" y="541.406" width="55.5963" height="14.5019" transform="rotate(-180 356.961 541.406)" fill="white"/>
<rect x="315.867" y="531.738" width="55.5963" height="14.5019" transform="rotate(-180 315.867 531.738)" fill="white"/>
<path d="M279.219 827.583V783.269H283.049V792.296H292.624V801.049H301.378V818.283H327.915V809.619H336.122V827.583H327.915V863.692H319.161V827.583H292.077V863.692H283.596V827.583H279.219Z" fill="black" stroke="black" stroke-width="0.547121"/>
<path d="M408.075 800.685V792.024H305.484V817.737H318.581V809.346H327.585H380.79V800.685H398.252H408.075Z" fill="#122132" stroke="#122132" stroke-width="0.547121"/>
<path d="M408.031 774.244H283.555V782.724H293.13V791.751H408.031V774.244Z" fill="#182738" stroke="#182738" stroke-width="0.547121"/>
<path d="M273.742 756.461V747.161H313.137V756.188L273.742 756.461Z" fill="#26733D" stroke="#26733D" stroke-width="0.547121"/>
<path d="M279.219 773.967V756.733H336.122V773.452L279.219 773.967Z" fill="#206234" stroke="#206234" stroke-width="0.547121"/>
<path d="M279.219 782.998V773.971H283.322V782.998H292.897V792.025H304.935V800.779H292.897V792.025H283.322V782.998H279.219Z" fill="#26733D"/>
<path d="M283.322 782.998H279.219V773.971H283.322V782.998ZM283.322 782.998V792.025H292.897M283.322 782.998H292.897V792.025M292.897 792.025V800.779H304.935V792.025H292.897Z" stroke="#26733D" stroke-width="0.547121"/>
<path d="M327.359 756.461V747.161H339.944V756.188L327.359 756.461Z" fill="#26733D" stroke="#26733D" stroke-width="0.547121"/>
<path d="M346.509 685.065H267.446V703.94H251.305V712.147H363.197V703.94H346.509V685.065Z" fill="#26733D" stroke="#26733D" stroke-width="0.547121"/>
<path d="M271.547 712.42H342.676V747.16H271.547V712.42Z" fill="black"/>
<rect x="320.227" y="747.161" width="7.11293" height="9.30059" fill="black"/>
<rect x="313.148" y="747.161" width="7.11293" height="9.30059" fill="black"/>
<rect x="333.375" y="723.088" width="7.66008" height="13.1302" fill="#FAFF15"/>
<rect x="309.312" y="723.088" width="7.66008" height="13.1302" fill="#FAFF15"/>
<rect x="272.086" y="693.548" width="4.37719" height="4.92384" fill="#FF9315"/>
<rect x="338.867" y="687.529" width="4.37719" height="4.92384" fill="#FF9315"/>
<rect x="276.477" y="698.469" width="10.3958" height="4.92384" fill="#FF9315"/>
<rect x="391.375" y="782.723" width="3.83004" height="14.2244" fill="#FF9315"/>
<rect x="390.289" y="765.213" width="8.75438" height="8.7535" fill="#FF9315"/>
<rect x="382.625" y="782.723" width="3.83004" height="14.2244" fill="#FF9315"/>
<rect x="400.148" y="782.723" width="3.83004" height="14.2244" fill="#FF9315"/>
<path d="M283.297 863.966H292.325V880.652H283.297V863.966Z" fill="#26733D"/>
<path d="M318.852 863.966H328.153V880.652H318.852V863.966Z" fill="#26733D"/>
<path d="M305.213 801.048H301.656V818.008H305.213V801.048Z" fill="white"/>
<path d="M327.606 809.624L318.852 809.613V818.01H327.606V809.624Z" fill="white"/>
<rect x="429.57" y="785" width="9.33" height="9.32906" fill="#FAFF15"/>
<rect x="461.852" y="785" width="9.33" height="9.32906" fill="#FAFF15"/>
<rect x="494.156" y="785" width="9.33" height="9.32906" fill="#FAFF15"/>
<rect x="526.438" y="785" width="9.33" height="9.32906" fill="#FAFF15"/>
<rect x="558.719" y="785" width="9.33" height="9.32906" fill="#FAFF15"/>
<rect x="591.008" y="785" width="9.33" height="9.32906" fill="#FAFF15"/>
<rect x="624.672" y="785" width="9.33" height="9.32906" fill="#FAFF15"/>
<rect x="656.977" y="785" width="9.33" height="9.32906" fill="#FAFF15"/>
<rect x="689.273" y="785" width="9.33" height="9.32906" fill="#FAFF15"/>
<path fill-rule="evenodd" clip-rule="evenodd" d="M554.518 880H662.896V894.088H675.691V933.099H662.892V927.681H648.803V933.099H484.087V924.43H454.825V933.099H323.682V927.681H285.75V933.099H230.914V906.008H256.492V894.088H230.914V880H399.542V912.511H426.636V880H535.01V889.753H554.518V880Z" fill="#206234"/>
<path fill-rule="evenodd" clip-rule="evenodd" d="M688.258 1000.29V1029.54H763.038V989.449H756.532V999.203H742.443V989.449H692.593V1000.29H688.258Z" fill="#206234"/>
<path fill-rule="evenodd" clip-rule="evenodd" d="M782.554 936.35H768.461V996.687H800.969V1002.17H768.461V1025.21H807.481V1015.34H856.246V954.999H833.489V936.35H791.224V960.486H782.554V936.35Z" fill="#206234"/>
<path fill-rule="evenodd" clip-rule="evenodd" d="M370.715 937.434H549.534V961.274H562.539V937.434H585.086V969.943H562.546V978.613H585.086V990.533H511.601V985.115H485.591V990.533H410.819V960.19H401.065V990.533H311.114V984.031H275.35V990.533H239.588V984.031H228.094V961.274H237.417V950.438H228.094V937.434H357.71V950.437H370.715V937.434Z" fill="#206234"/>
<path fill-rule="evenodd" clip-rule="evenodd" d="M104.109 937.434H56.4259V960.693H46.672V937.434H38V1000.23H56.4175V1011.86H38V1032.8H125.785V994.418H108.441V982.789H125.785V937.434H111.695V959.53H104.109V937.434Z" fill="#206234"/>
<path fill-rule="evenodd" clip-rule="evenodd" d="M131.422 937.434H212.485V955.856H219.207V994.867H324.115V1002.45H376.136V994.867H396.728V1013.29H376.139V1019.79H396.728V1032.8H219.207H131.422V975.361H136.627V951.521H131.422V937.434ZM214.652 1015.46H162.631V1025.21H214.652V1015.46Z" fill="#206234"/>
<path fill-rule="evenodd" clip-rule="evenodd" d="M424.912 994.868H402.375V1032.8H490.16V1012.21H475.855V1005.7H490.16V994.868H434.666V1005.7H424.912V994.868Z" fill="#206234"/>
<path fill-rule="evenodd" clip-rule="evenodd" d="M621.074 937.434H675.261V944.087H682.843V982.897H654.666V991.768H682.843V993.985V1032.8H495.352V993.985H571.213V1000.64H606.977V991.768H589.097V937.434H605.901V946.304H621.074V937.434ZM521.361 1012.84H505.104V1029.47H521.361V1012.84Z" fill="#206234"/>
<path fill-rule="evenodd" clip-rule="evenodd" d="M688.258 936.35H692.598V954.772H703.435V936.35H763.038V951.521H739.192V958.023H763.038V984.031H688.258V936.35Z" fill="#206234"/>
<rect x="344.969" y="983.282" width="49.8532" height="13.0039" transform="rotate(-180 344.969 983.282)" fill="white"/>
<rect x="312.453" y="976.78" width="49.8532" height="13.0039" transform="rotate(-180 312.453 976.78)" fill="white"/>
<rect x="713.195" y="955.857" width="49.8532" height="13.0039" transform="rotate(-180 713.195 955.857)" fill="white"/>
<rect x="683.938" y="965.609" width="49.8532" height="13.0039" transform="rotate(-180 683.938 965.609)" fill="white"/>
<rect x="889.852" y="1003.54" width="49.8532" height="13.0039" transform="rotate(-180 889.852 1003.54)" fill="white"/>
</g>
<defs>
<clipPath id="clip0_425_9919">
<rect width="1024" height="1024" fill="white"/>
</clipPath>
</defs>
</svg>
