<svg width="425" height="896" viewBox="0 0 425 896" fill="none" xmlns="http://www.w3.org/2000/svg">
<g clip-path="url(#clip0_437_12483)">
<rect width="425" height="896" fill="#111111"/>
<rect x="109.758" y="741.023" width="7.2517" height="7.25097" transform="rotate(-180 109.758 741.023)" fill="white"/>
<rect x="224.586" y="815.95" width="4.83447" height="4.83398" transform="rotate(-180 224.586 815.95)" fill="white"/>
<rect x="61.4141" y="886.042" width="4.83447" height="4.83398" transform="rotate(-180 61.4141 886.042)" fill="white"/>
<rect x="151.836" y="533.834" width="4.83447" height="4.83398" transform="rotate(-180 151.836 533.834)" fill="white"/>
<rect x="402.25" y="712.02" width="4.83447" height="4.83398" transform="rotate(-180 402.25 712.02)" fill="white"/>
<rect x="389.812" y="858.761" width="4.83447" height="4.83398" transform="rotate(-180 389.812 858.761)" fill="white"/>
<rect x="61.4141" y="886.042" width="4.83447" height="4.83398" transform="rotate(-180 61.4141 886.042)" fill="white"/>
<rect x="301.812" y="460.761" width="7.2517" height="7.25097" transform="rotate(-180 301.812 460.761)" fill="white"/>
<rect x="114.758" y="308.023" width="7.2517" height="7.25097" transform="rotate(-180 114.758 308.023)" fill="white"/>
<rect x="229.586" y="382.95" width="4.83447" height="4.83398" transform="rotate(-180 229.586 382.95)" fill="white"/>
<rect x="66.4141" y="453.042" width="4.83447" height="4.83398" transform="rotate(-180 66.4141 453.042)" fill="white"/>
<rect x="163.102" y="181.131" width="4.83447" height="4.83398" transform="rotate(-180 163.102 181.131)" fill="white"/>
<rect x="407.25" y="279.02" width="4.83447" height="4.83398" transform="rotate(-180 407.25 279.02)" fill="white"/>
<rect x="305.727" y="211.345" width="7.2517" height="7.25097" transform="rotate(-180 305.727 211.345)" fill="white"/>
<rect x="394.812" y="425.761" width="4.83447" height="4.83398" transform="rotate(-180 394.812 425.761)" fill="white"/>
<rect x="66.4141" y="453.042" width="4.83447" height="4.83398" transform="rotate(-180 66.4141 453.042)" fill="white"/>
<path fill-rule="evenodd" clip-rule="evenodd" d="M135.537 795H217.135V805.606H226.766V834.977H217.131V830.898H206.524V834.977H82.515V828.451H60.4847V834.977H-38.2516V830.898H-66.8093V834.977H-108.094V814.581H-88.8361V805.606H-108.094V795H18.8592V819.476H39.2576V795H120.85V802.343H135.537V795Z" fill="#206234"/>
<path fill-rule="evenodd" clip-rule="evenodd" d="M236.227 885.56V907.588H292.526V877.401H287.63V884.745H277.023V877.401H239.49V885.56H236.227Z" fill="#206234"/>
<path fill-rule="evenodd" clip-rule="evenodd" d="M307.22 837.425H296.609V882.851H321.081V886.98H296.609V904.325H325.989V896.891H362.7V851.465H345.57V837.425H313.748V855.596H307.22V837.425Z" fill="#206234"/>
<path fill-rule="evenodd" clip-rule="evenodd" d="M-2.84222 838.24H131.783V856.189H141.574V838.24H158.551V862.716H141.582V869.243H158.551V878.217H103.228V874.138H83.6459V878.217H27.3481V855.373H20.0047V878.217H-47.7136V873.322H-74.6395V878.217H-101.565V873.322H-110.219V856.189H-103.198V848.03H-110.219V838.24H-12.6334V848.03H-2.84222V838.24Z" fill="#206234"/>
<path fill-rule="evenodd" clip-rule="evenodd" d="M-183 838.24H-121.97V852.109H-116.909V881.48H-37.9252V887.192H1.2397V881.48H16.7411V895.35H1.24174V900.245H16.7411V910.035H-116.909H-183V866.795H-179.082V848.846H-183V838.24ZM-120.337 896.983H-159.502V904.325H-120.337V896.983Z" fill="#206234"/>
<path fill-rule="evenodd" clip-rule="evenodd" d="M37.9612 881.48H20.9922V910.035H87.083V894.534H76.3106V889.639H87.083V881.48H45.3046V889.639H37.9612V881.48Z" fill="#206234"/>
<path fill-rule="evenodd" clip-rule="evenodd" d="M185.643 838.24H226.439V843.25H232.149V872.468H210.934V879.147H232.149V880.816V910.035H90.9922V880.816H148.105V885.825H175.03V879.147H161.571V838.24H174.22V844.919H185.643V838.24ZM110.572 895.008H98.3327V907.53H110.572V895.008Z" fill="#206234"/>
<path fill-rule="evenodd" clip-rule="evenodd" d="M236.227 837.425H239.497V851.294H247.656V837.425H292.526V848.847H274.576V853.742H292.526V873.322H236.227V837.425Z" fill="#206234"/>
<rect x="255" y="852.11" width="37.533" height="9.79024" transform="rotate(-180 255 852.11)" fill="white"/>
<rect x="232.977" y="859.453" width="37.533" height="9.79024" transform="rotate(-180 232.977 859.453)" fill="white"/>
<rect x="388" y="888.008" width="37.533" height="9.79024" transform="rotate(-180 388 888.008)" fill="white"/>
<rect x="66.3047" y="206" width="25.3353" height="6.51413" fill="white"/>
<rect x="54" y="212.514" width="25.3353" height="6.51413" fill="white"/>
<path fill-rule="evenodd" clip-rule="evenodd" d="M56.1719 224.094V281.273H74.9958V245.084H85.8537V281.273H158.961V253.769H128.562V239.294H158.961V214.685H63.406V224.094H56.1719Z" fill="#206234"/>
<rect x="177.781" y="288.17" width="33.2978" height="8.68551" transform="rotate(-180 177.781 288.17)" fill="white"/>
<rect x="153.172" y="282.379" width="33.2978" height="8.68551" transform="rotate(-180 153.172 282.379)" fill="white"/>
<path fill-rule="evenodd" clip-rule="evenodd" d="M206.492 56H237.619V79.8856H249.201V56H288.289V87.8469H265.121V102.323H288.289V138.512H217.338V127.655H206.492V56Z" fill="#206234"/>
<rect x="270.094" y="175.435" width="4.34319" height="4.34275" fill="white"/>
<rect x="270.094" y="175.435" width="4.34319" height="4.34275" fill="white"/>
<rect x="204.305" y="72.6465" width="25.3353" height="6.51413" fill="white"/>
<path fill-rule="evenodd" clip-rule="evenodd" d="M256.709 187.31H318.672V181.195H306.695V177.119H318.672V158.777H291.075V165.401H276.495V158.777H256.709V166.929H268.938V175.081H256.709V187.31Z" fill="#206234"/>
<path fill-rule="evenodd" clip-rule="evenodd" d="M296.234 71.1992H314.333V81.3323H322.296V71.1992H375.136V79.8847H362.106V84.9513H375.136V117.522H357.048V127.655H375.136V153.712H296.234V117.522H318.677V103.046H296.234V71.1992Z" fill="#206234"/>
<rect x="357.047" y="134.169" width="31.1262" height="6.51413" fill="white"/>
<rect x="241.234" y="179.158" width="17.9366" height="7.33697" fill="white"/>
<rect x="254.273" y="186.495" width="17.9366" height="7.33697" fill="white"/>
<rect x="192" y="79.1621" width="25.3353" height="6.51413" fill="white"/>
<path fill-rule="evenodd" clip-rule="evenodd" d="M333.648 277.951V285.188H341.613V291.703H333.648V305.455H368.394V284.465H365.495V277.951H368.394V272.16H338.717V277.951H333.648Z" fill="#206234"/>
<rect x="353.914" y="301.112" width="28.9546" height="6.51413" fill="white"/>
<rect x="374.906" y="297.494" width="5.06706" height="6.51413" fill="white"/>
<path fill-rule="evenodd" clip-rule="evenodd" d="M314.089 285.188H301.069V279.399H295.997V264.199H301.79V257.685H295.997V251.894H323.508V258.408H330.742V285.188H323.499V277.226H314.089V285.188Z" fill="#206234"/>
<rect x="310.477" y="249" width="5.06706" height="6.51413" fill="white"/>
<rect x="323.508" y="262.028" width="14.4773" height="5.06655" fill="white"/>
<rect x="333.648" y="264.199" width="14.4773" height="5.06655" fill="white"/>
<path fill-rule="evenodd" clip-rule="evenodd" d="M109.07 76.6191H66V85.3047H74.3191V91.095H66V117.152H85.1795V107.742H95.3136V117.152H109.07V96.8854H100.382V93.9902H109.07V76.6191Z" fill="#206234"/>
<rect x="90.9688" y="73" width="23.8876" height="6.51413" fill="white"/>
</g>
<defs>
<clipPath id="clip0_437_12483">
<rect width="425" height="896" fill="white"/>
</clipPath>
</defs>
</svg>
