<svg width="1281" height="1024" viewBox="0 0 1281 1024" fill="none" xmlns="http://www.w3.org/2000/svg">
<g clip-path="url(#clip0_419_3094)">
<rect width="1280" height="1024" transform="translate(0.898438)" fill="#111111"/>
<rect x="908.969" y="364" width="58.7559" height="18.7519" fill="white"/>
<rect x="890.219" y="445.259" width="62.5063" height="18.7519" transform="rotate(-90 890.219 445.259)" fill="white"/>
<rect x="948.977" y="445.259" width="40.004" height="18.7519" transform="rotate(-90 948.977 445.259)" fill="white"/>
<rect x="930.219" y="423.381" width="18.1268" height="18.7519" transform="rotate(-90 930.219 423.381)" fill="white"/>
<rect x="908.969" y="445.259" width="40.004" height="18.7519" fill="white"/>
<rect x="804.312" y="405.433" width="18.5733" height="18.5733" fill="white"/>
<rect x="822.883" y="424.006" width="20.002" height="18.5733" fill="white"/>
<rect x="785.734" y="386.86" width="18.5733" height="18.5733" fill="white"/>
<rect x="767.164" y="464.01" width="100.01" height="18.5733" transform="rotate(-90 767.164 464.01)" fill="white"/>
<rect x="842.883" y="464.01" width="100.01" height="18.5733" transform="rotate(-90 842.883 464.01)" fill="white"/>
<rect x="525.891" y="365.25" width="40.004" height="18.7519" fill="white"/>
<rect x="525.891" y="406.505" width="40.004" height="18.1268" fill="white"/>
<rect x="507.141" y="464.011" width="80.008" height="18.7519" transform="rotate(-90 507.141 464.011)" fill="white"/>
<rect x="565.898" y="464.011" width="80.008" height="18.7519" transform="rotate(-90 565.898 464.011)" fill="white"/>
<rect x="420.25" y="365.25" width="39.379" height="18.7519" fill="white"/>
<rect x="420.25" y="446.509" width="39.379" height="18.7519" fill="white"/>
<rect x="401.5" y="445.259" width="61.2562" height="18.7519" transform="rotate(-90 401.5 445.259)" fill="white"/>
<rect x="459.633" y="445.259" width="61.2562" height="18.7519" transform="rotate(-90 459.633 445.259)" fill="white"/>
<rect x="332.75" y="446.509" width="40.004" height="18.7519" fill="white"/>
<rect x="314" y="465.26" width="100.01" height="18.7519" transform="rotate(-90 314 465.26)" fill="white"/>
<rect x="719.656" y="464.01" width="100.01" height="18.7519" transform="rotate(-90 719.656 464.01)" fill="white"/>
<rect x="672.156" y="445.259" width="62.5063" height="18.7519" transform="rotate(-90 672.156 445.259)" fill="white"/>
<rect x="632.148" y="445.259" width="40.004" height="18.7519" fill="white"/>
<rect x="632.148" y="364" width="40.004" height="18.7519" fill="white"/>
<rect x="613.398" y="464.011" width="100.01" height="18.7519" transform="rotate(-90 613.398 464.011)" fill="white"/>
<rect x="611.117" y="660.28" width="43.7544" height="10.2549" transform="rotate(-90 611.117 660.28)" fill="#206234"/>
<rect x="594.023" y="642.163" width="25.6373" height="10.2549" transform="rotate(-90 594.023 642.163)" fill="#206234"/>
<rect x="627.867" y="642.163" width="25.6373" height="10.2549" transform="rotate(-90 627.867 642.163)" fill="#206234"/>
<rect x="594.023" y="626.78" width="10.2549" height="17.0916" transform="rotate(-90 594.023 626.78)" fill="#206234"/>
<rect x="594.023" y="642.163" width="8.88761" height="17.0916" transform="rotate(-90 594.023 642.163)" fill="#206234"/>
<rect x="628.211" y="642.163" width="8.88761" height="17.0916" transform="rotate(-90 628.211 642.163)" fill="#206234"/>
<rect x="670.25" y="642.847" width="8.88761" height="8.88761" transform="rotate(-90 670.25 642.847)" fill="#206234"/>
<rect x="662.047" y="625.413" width="8.88761" height="8.88761" transform="rotate(-90 662.047 625.413)" fill="#206234"/>
<rect x="678.797" y="633.275" width="16.7497" height="8.88761" transform="rotate(-90 678.797 633.275)" fill="#206234"/>
<rect x="662.047" y="660.28" width="18.1171" height="8.88761" transform="rotate(-90 662.047 660.28)" fill="#206234"/>
<rect x="678.797" y="660.28" width="8.88761" height="8.88761" transform="rotate(-90 678.797 660.28)" fill="#206234"/>
<rect x="627.867" y="626.78" width="10.2549" height="17.0916" transform="rotate(-90 627.867 626.78)" fill="#206234"/>
<rect x="644.961" y="660.28" width="43.7544" height="10.2549" transform="rotate(-90 644.961 660.28)" fill="#206234"/>
<g clip-path="url(#clip1_419_3094)">
<rect width="1365.33" height="1024" transform="translate(-41.668)" fill="#111111"/>
<path fill-rule="evenodd" clip-rule="evenodd" d="M847.758 98.6665H905.099V142.668H926.434V98.6665H998.44V157.333H955.766V184H998.44V250.667H867.753V230.667H847.758V98.6665Z" fill="#206234"/>
<rect x="89.0156" y="84" width="8.0008" height="8" fill="white"/>
<rect x="1229.12" y="485.333" width="8.0008" height="8" fill="white"/>
<rect x="765.078" y="77.3333" width="8.0008" height="8" fill="white"/>
<rect x="821.086" y="348" width="8.0008" height="8" fill="white"/>
<rect x="703.742" y="305.333" width="8.0008" height="8" fill="white"/>
<rect x="630.398" y="118.667" width="8.0008" height="8" fill="white"/>
<rect x="365.039" y="241.333" width="8.0008" height="8" fill="white"/>
<rect x="1013.11" y="592" width="8.0008" height="8" fill="white"/>
<rect x="498.391" y="625.334" width="8.0008" height="8" fill="white"/>
<rect x="397.039" y="541.333" width="8.0008" height="8" fill="white"/>
<rect x="769.086" y="682.667" width="8.0008" height="8" fill="white"/>
<rect x="47.6758" y="794.667" width="8.0008" height="8" fill="white"/>
<rect x="743.742" y="196.001" width="5.33387" height="5.33333" fill="white"/>
<rect x="625.07" y="549.333" width="5.33387" height="5.33333" fill="white"/>
<rect x="650.398" y="750.667" width="5.33387" height="5.33333" fill="white"/>
<rect x="491.719" y="320" width="5.33387" height="5.33333" fill="white"/>
<rect x="149.016" y="698.666" width="5.33387" height="5.33333" fill="white"/>
<rect x="1049.12" y="88" width="5.33387" height="5.33333" fill="white"/>
<rect x="238.359" y="158.667" width="5.33387" height="5.33333" fill="white"/>
<rect x="37.0078" y="552" width="5.33387" height="5.33333" fill="white"/>
<rect x="418.383" y="81.3333" width="5.33387" height="5.33333" fill="white"/>
<rect x="311.703" y="381.333" width="5.33387" height="5.33333" fill="white"/>
<rect x="203.695" y="786.667" width="5.33387" height="5.33333" fill="white"/>
<rect x="1202.46" y="633.333" width="5.33387" height="5.33333" fill="white"/>
<rect x="1234.47" y="349.333" width="5.33387" height="5.33333" fill="white"/>
<rect x="42.3398" y="273.333" width="5.33387" height="5.33333" fill="white"/>
<rect x="1225.13" y="762.667" width="8.0008" height="8" fill="white"/>
<rect x="625.07" y="425.333" width="8.0008" height="8" fill="white"/>
<rect x="1233.13" y="49.3345" width="8.0008" height="8" fill="white"/>
<rect x="154.352" y="347.999" width="8.0008" height="8" fill="white"/>
<rect x="553.07" y="202.668" width="8.0008" height="8" fill="white"/>
<rect x="1126.45" y="373.334" width="8.0008" height="8" fill="white"/>
<rect x="843.75" y="129.333" width="46.6714" height="12" fill="white"/>
<path fill-rule="evenodd" clip-rule="evenodd" d="M1250.47 104H1171.12V120H1186.46V130.667H1171.12V178.667H1206.47V161.333H1225.14V178.667H1250.47V141.333H1234.47V136H1250.47V104Z" fill="#206234"/>
<path fill-rule="evenodd" clip-rule="evenodd" d="M940.293 340.56H1054.44V329.297H1032.37V321.788H1054.44V287.999H1003.6V300.201H976.747V287.999H940.293V303.017H962.813V318.034H940.293V340.56Z" fill="#206234"/>
<path fill-rule="evenodd" clip-rule="evenodd" d="M1013.11 126.667H1046.45V145.333H1061.12V126.667H1158.46V142.667H1134.46V152H1158.46V212H1125.13V230.667H1158.46V278.667H1013.11V212H1054.45V185.333H1013.11V126.667Z" fill="#206234"/>
<rect x="1125.12" y="242.667" width="57.3391" height="12" fill="white"/>
<rect x="911.766" y="325.543" width="33.0419" height="13.5158" fill="white"/>
<rect x="935.797" y="339.059" width="33.0419" height="13.5158" fill="white"/>
<rect x="1150.46" y="254.666" width="57.3391" height="12" fill="white"/>
<rect x="1217.12" y="97.3333" width="44.0044" height="12" fill="white"/>
<rect x="1245.13" y="89.3345" width="16.0016" height="12" fill="white"/>
<rect x="821.086" y="141.334" width="46.6714" height="12" fill="white"/>
<rect x="146.352" y="453.333" width="46.6714" height="12" fill="white"/>
<rect x="123.68" y="465.333" width="46.6714" height="12" fill="white"/>
<path fill-rule="evenodd" clip-rule="evenodd" d="M782.422 493.333V506.667H797.09V518.667H782.422V544H846.428V505.333H841.094V493.333H846.428V482.667H791.757V493.333H782.422Z" fill="#206234"/>
<rect x="819.75" y="536" width="53.3387" height="12" fill="white"/>
<rect x="858.422" y="529.333" width="9.33427" height="12" fill="white"/>
<path fill-rule="evenodd" clip-rule="evenodd" d="M746.401 506.667H722.414V496H713.072V468H723.747V456H713.072V445.333H763.742V457.332H777.078V506.667H763.736V491.999H746.401V506.667Z" fill="#206234"/>
<rect x="739.742" y="440" width="9.33427" height="12" fill="white"/>
<rect x="763.742" y="464" width="26.6693" height="9.33333" fill="white"/>
<rect x="782.406" y="468" width="26.6693" height="9.33333" fill="white"/>
<path fill-rule="evenodd" clip-rule="evenodd" d="M466.395 365.333H453.062V380H441.061V365.333H415.723V429.334H454.392V424.001H466.393V429.334H477.062V374.666H466.395V365.333Z" fill="#206234"/>
<rect x="431.719" y="393.333" width="53.3387" height="12" transform="rotate(-180 431.719 393.333)" fill="white"/>
<path fill-rule="evenodd" clip-rule="evenodd" d="M518.394 481.333H494.4V470.667H485.064V442.667H495.733V430.667H485.064V420H535.734V431.999H549.07V481.333H535.729V466.667H518.394V481.333Z" fill="#206234"/>
<rect x="498.398" y="462.668" width="26.6693" height="9.33333" transform="rotate(-180 498.398 462.668)" fill="white"/>
<rect x="479.727" y="458.668" width="26.6693" height="9.33333" transform="rotate(-180 479.727 458.668)" fill="white"/>
<path fill-rule="evenodd" clip-rule="evenodd" d="M127.688 486.667V592H162.363V525.335H182.365V592H317.04V541.333H261.037V514.667H317.04V469.333H141.015V486.667H127.688Z" fill="#206234"/>
<rect x="351.711" y="597.333" width="61.3395" height="16" transform="rotate(-180 351.711 597.333)" fill="white"/>
<rect x="306.367" y="586.667" width="61.3395" height="16" transform="rotate(-180 306.367 586.667)" fill="white"/>
<path fill-rule="evenodd" clip-rule="evenodd" d="M763.216 845.333H896.564V862.667H912.302V910.667H896.557V904H879.222V910.667H676.551V900H640.547V910.667H479.185V904H432.514V910.667H365.047V877.333H396.518V862.667H365.047V845.333H572.53V885.335H605.867V845.333H739.214V857.333H763.216V845.333Z" fill="#206234"/>
<path fill-rule="evenodd" clip-rule="evenodd" d="M927.758 993.333V1029.33H1019.77V980H1011.77V992.001H994.433V980H933.092V993.333H927.758Z" fill="#206234"/>
<path fill-rule="evenodd" clip-rule="evenodd" d="M1043.77 914.667H1026.44V988.905H1066.44V995.654H1026.44V1024H1074.45V1011.85H1134.45V937.612H1106.45V914.667H1054.44V944.363H1043.77V914.667Z" fill="#206234"/>
<path fill-rule="evenodd" clip-rule="evenodd" d="M537.055 916H757.07V945.333H773.072V916H800.814V956H773.079V966.667H800.814V981.333H710.402V974.667H678.398V981.333H586.391V944H574.39V981.333H463.72V973.333H419.715V981.333H375.709V973.333H361.57V945.333H373.039V932H361.57V916H521.054V932H537.055V916Z" fill="#206234"/>
<path fill-rule="evenodd" clip-rule="evenodd" d="M209.029 916H150.364V944.618H138.362V916H127.688V993.268H150.35V1007.58H127.688V1033.33H235.698V986.114H214.363V971.805H235.698V916H218.363V943.188H209.029V916Z" fill="#206234"/>
<path fill-rule="evenodd" clip-rule="evenodd" d="M242.625 916H342.367V938.667H350.636V986.667H479.717V996H543.723V986.667H569.058V1009.33H543.725V1017.33H569.058V1033.33H350.636H242.625V962.667H249.026V933.333H242.625V916ZM345.031 1012H281.025V1024H345.031V1012Z" fill="#206234"/>
<path fill-rule="evenodd" clip-rule="evenodd" d="M603.733 986.667H576V1033.33H684.011V1008H666.408V1000H684.011V986.667H615.735V1000H603.733V986.667Z" fill="#206234"/>
<path fill-rule="evenodd" clip-rule="evenodd" d="M845.084 916H911.757V924.187H921.088V971.938H886.415V982.853H921.088V985.581V1033.33H690.398V985.581H783.74V993.768H827.745V982.853H805.743V916H826.415V926.914H845.084V916ZM722.4 1008.77H702.398V1029.24H722.4V1008.77Z" fill="#206234"/>
<path fill-rule="evenodd" clip-rule="evenodd" d="M927.758 914.667H933.091V937.333H946.426V914.667H1019.77V933.333H990.433V941.333H1019.77V973.333H927.758V914.667Z" fill="#206234"/>
<rect x="382.375" y="977.333" width="61.3395" height="16" transform="rotate(-180 382.375 977.333)" fill="white"/>
<rect x="342.367" y="969.333" width="61.3395" height="16" transform="rotate(-180 342.367 969.333)" fill="white"/>
<rect x="958.43" y="938.668" width="61.3395" height="16" transform="rotate(-180 958.43 938.668)" fill="white"/>
<rect x="922.43" y="950.667" width="61.3395" height="16" transform="rotate(-180 922.43 950.667)" fill="white"/>
<rect x="1175.79" y="997.333" width="61.3395" height="16" transform="rotate(-180 1175.79 997.333)" fill="white"/>
<path d="M446.852 788.707V739.815H451.077V749.774H461.641V759.432H471.3V778.446H500.578V768.887H509.633V788.707H500.578V828.545H490.919V788.707H461.038V828.545H451.681V788.707H446.852Z" fill="black" stroke="black" stroke-width="0.603639"/>
<path d="M589.016 759.03V749.474H475.828V777.844H490.278V768.586H500.212H558.912V759.03H578.178H589.016Z" fill="#122132" stroke="#122132" stroke-width="0.603639"/>
<path d="M588.975 729.858H451.641V739.214H462.205V749.173H588.975V729.858Z" fill="#182738" stroke="#182738" stroke-width="0.603639"/>
<path d="M440.797 710.238V699.976H484.261V709.936L440.797 710.238Z" fill="#26733D" stroke="#26733D" stroke-width="0.603639"/>
<path d="M446.852 729.552V710.538H509.633V728.984L446.852 729.552Z" fill="#206234" stroke="#206234" stroke-width="0.603639"/>
<path d="M446.852 739.516V729.556H451.379V739.516H461.943V749.475H475.224V759.133H461.943V749.475H451.379V739.516H446.852Z" fill="#26733D"/>
<path d="M451.379 739.516H446.852V729.556H451.379V739.516ZM451.379 739.516V749.475H461.943M451.379 739.516H461.943V749.475M461.943 749.475V759.133H475.224V749.475H461.943Z" stroke="#26733D" stroke-width="0.603639"/>
<path d="M499.961 710.238V699.976H513.845V709.936L499.961 710.238Z" fill="#26733D" stroke="#26733D" stroke-width="0.603639"/>
<path d="M521.085 631.467H433.855V652.291H416.047V661.345H539.497V652.291H521.085V631.467Z" fill="#26733D" stroke="#26733D" stroke-width="0.603639"/>
<path d="M438.375 661.647H516.852V699.976H438.375V661.647Z" fill="black"/>
<rect x="492.086" y="699.976" width="7.84771" height="10.2613" fill="black"/>
<rect x="484.273" y="699.976" width="7.84771" height="10.2613" fill="black"/>
<rect x="506.594" y="673.417" width="8.45137" height="14.4866" fill="#FAFF15"/>
<rect x="480.047" y="673.417" width="8.45137" height="14.4866" fill="#FAFF15"/>
<rect x="438.977" y="640.825" width="4.82936" height="5.43248" fill="#FF9315"/>
<rect x="512.656" y="634.185" width="4.82936" height="5.43248" fill="#FF9315"/>
<rect x="443.812" y="646.255" width="11.4697" height="5.43248" fill="#FF9315"/>
<rect x="570.586" y="739.213" width="4.22569" height="15.6938" fill="#FF9315"/>
<rect x="569.383" y="719.894" width="9.65872" height="9.65774" fill="#FF9315"/>
<rect x="560.938" y="739.213" width="4.22569" height="15.6938" fill="#FF9315"/>
<rect x="580.266" y="739.213" width="4.22569" height="15.6938" fill="#FF9315"/>
<path d="M451.352 828.848H461.312V847.258H451.352V828.848Z" fill="#26733D"/>
<path d="M490.578 828.848H500.841V847.258H490.578V828.848Z" fill="#26733D"/>
<path d="M475.518 759.43H471.594V778.142H475.518V759.43Z" fill="white"/>
<path d="M500.237 768.893L490.578 768.88V778.145H500.237V768.893Z" fill="white"/>
<rect x="612.727" y="742.977" width="13.5436" height="13.5422" fill="#FAFF15"/>
<rect x="648.352" y="742.977" width="13.5436" height="13.5422" fill="#FAFF15"/>
<rect x="683.984" y="741.43" width="13.5436" height="13.5422" fill="#FAFF15"/>
<rect x="719.602" y="741.43" width="13.5436" height="13.5422" fill="#FAFF15"/>
<rect x="755.219" y="741.43" width="13.5436" height="13.5422" fill="#FAFF15"/>
<rect x="790.836" y="741.43" width="13.5436" height="13.5422" fill="#FAFF15"/>
<rect x="827.992" y="741.43" width="13.5436" height="13.5422" fill="#FAFF15"/>
<rect x="863.633" y="741.43" width="13.5436" height="13.5422" fill="#FAFF15"/>
<rect x="899.258" y="741.43" width="13.5436" height="13.5422" fill="#FAFF15"/>
</g>
</g>
<defs>
<clipPath id="clip0_419_3094">
<rect width="1280" height="1024" fill="white" transform="translate(0.898438)"/>
</clipPath>
<clipPath id="clip1_419_3094">
<rect width="1365.33" height="1024" fill="white" transform="translate(-41.668)"/>
</clipPath>
</defs>
</svg>
