<svg width="1440" height="1024" viewBox="0 0 1440 1024" fill="none" xmlns="http://www.w3.org/2000/svg">
<g clip-path="url(#clip0_419_4244)">
<rect width="1440" height="1024" fill="#111111"/>
<rect x="1332.54" y="874.534" width="8.91884" height="8.91794" transform="rotate(180 1332.54 874.534)" fill="white"/>
<rect x="61.6094" y="427.15" width="8.91884" height="8.91794" transform="rotate(180 61.6094 427.15)" fill="white"/>
<rect x="578.898" y="881.965" width="8.91884" height="8.91794" transform="rotate(180 578.898 881.965)" fill="white"/>
<rect x="1213.94" y="417.853" width="8.91884" height="8.91794" transform="rotate(180 1213.94 417.853)" fill="white"/>
<rect x="647.281" y="627.804" width="8.91884" height="8.91794" transform="rotate(180 647.281 627.804)" fill="white"/>
<rect x="729.039" y="835.889" width="8.91884" height="8.91794" transform="rotate(180 729.039 835.889)" fill="white"/>
<rect x="974.344" y="565.406" width="8.91884" height="8.91794" transform="rotate(180 974.344 565.406)" fill="white"/>
<rect x="302.414" y="308.245" width="8.91884" height="8.91794" transform="rotate(180 302.414 308.245)" fill="white"/>
<rect x="438.43" y="464.347" width="8.91884" height="8.91794" transform="rotate(180 438.43 464.347)" fill="white"/>
<rect x="876.195" y="271.085" width="8.91884" height="8.91794" transform="rotate(180 876.195 271.085)" fill="white"/>
<rect x="989.164" y="364.724" width="8.91884" height="8.91794" transform="rotate(180 989.164 364.724)" fill="white"/>
<rect x="516.922" y="299.106" width="8.91884" height="8.91794" transform="rotate(180 516.922 299.106)" fill="white"/>
<rect x="1378.62" y="82.3232" width="8.91884" height="8.91794" transform="rotate(180 1378.62 82.3232)" fill="white"/>
<rect x="602.688" y="749.683" width="5.94589" height="5.9453" transform="rotate(180 602.688 749.683)" fill="white"/>
<rect x="1132.27" y="284.892" width="5.94589" height="5.9453" transform="rotate(180 1132.27 284.892)" fill="white"/>
<rect x="706.734" y="131.372" width="5.94589" height="5.9453" transform="rotate(180 706.734 131.372)" fill="white"/>
<rect x="883.625" y="611.454" width="5.94589" height="5.9453" transform="rotate(180 883.625 611.454)" fill="white"/>
<rect x="1265.65" y="189.339" width="5.94589" height="5.9453" transform="rotate(180 1265.65 189.339)" fill="white"/>
<rect x="262.281" y="870.075" width="5.94589" height="5.9453" transform="rotate(180 262.281 870.075)" fill="white"/>
<rect x="139.648" y="763.871" width="5.94589" height="5.9453" transform="rotate(180 139.648 763.871)" fill="white"/>
<rect x="1166.06" y="791.3" width="5.94589" height="5.9453" transform="rotate(180 1166.06 791.3)" fill="white"/>
<rect x="1019.15" y="178.091" width="5.94589" height="5.9453" transform="rotate(180 1019.15 178.091)" fill="white"/>
<rect x="1390.52" y="352.834" width="5.94589" height="5.9453" transform="rotate(180 1390.52 352.834)" fill="white"/>
<rect x="1060.38" y="691.945" width="5.94589" height="5.9453" transform="rotate(180 1060.38 691.945)" fill="white"/>
<rect x="1084.3" y="543.083" width="5.94589" height="5.9453" transform="rotate(180 1084.3 543.083)" fill="white"/>
<rect x="1204.7" y="91.2407" width="5.94589" height="5.9453" transform="rotate(180 1204.7 91.2407)" fill="white"/>
<rect x="91.3359" y="262.168" width="5.94589" height="5.9453" transform="rotate(180 91.3359 262.168)" fill="white"/>
<rect x="55.6641" y="578.755" width="5.94589" height="5.9453" transform="rotate(180 55.6641 578.755)" fill="white"/>
<rect x="1384.57" y="663.476" width="5.94589" height="5.9453" transform="rotate(180 1384.57 663.476)" fill="white"/>
<rect x="66.0703" y="117.995" width="8.91884" height="8.91794" transform="rotate(180 66.0703 117.995)" fill="white"/>
<rect x="341.062" y="113.539" width="8.91884" height="8.91794" transform="rotate(180 341.062 113.539)" fill="white"/>
<rect x="57.1484" y="913.178" width="8.91884" height="8.91794" transform="rotate(180 57.1484 913.178)" fill="white"/>
<rect x="1259.71" y="580.242" width="8.91884" height="8.91794" transform="rotate(180 1259.71 580.242)" fill="white"/>
<rect x="815.25" y="742.251" width="8.91884" height="8.91794" transform="rotate(180 815.25 742.251)" fill="white"/>
<rect x="176.062" y="552.001" width="8.91884" height="8.91794" transform="rotate(180 176.062 552.001)" fill="white"/>
<rect x="332.148" y="632.318" width="8.91884" height="8.91794" transform="rotate(180 332.148 632.318)" fill="white"/>
<rect x="75.9766" y="1013.64" width="8.91884" height="8.91794" fill="white"/>
<rect x="829.617" y="977.212" width="8.91884" height="8.91794" fill="white"/>
<rect x="679.477" y="1023.29" width="8.91884" height="8.91794" fill="white"/>
<rect x="1146.23" y="989.103" width="5.94589" height="5.9453" fill="white"/>
<rect x="443.133" y="1014.23" width="5.94589" height="5.9453" fill="white"/>
<rect x="1351.37" y="986.992" width="8.91884" height="8.91794" fill="white"/>
<path fill-rule="evenodd" clip-rule="evenodd" d="M907.903 744.971V805.528H850.787V818.603H907.903V911.503H874.184V956.92H907.903V1025H850.787V1038.07H907.903V1085.22H719.352V818.603H768.211V805.528H737.247V793.83H719.352V650.695V650.351H724.169V643.47H732.082V636.244H746.189V628.331H760.296V621.449H776.124V614.224H790.231V606.998H805.026V599.773H819.821V592.547H839.089V585.321H851.82V577.408H863.862V570.526H878.313V563.301H894.141V555.387H907.903V621.794H883.13V633.346H907.903V699.554H892.764V744.971H907.903Z" fill="#26733D"/>
<path fill-rule="evenodd" clip-rule="evenodd" d="M526.328 547.651V579.994H556.203V591.546H526.328V765.105H588.606V778.18H526.328V871.079H545.942V936.453H526.328V1096.92H719.353V799.512H661.549V786.438H719.353V643.304V642.96H710.063V636.078H702.149V628.853H687.698V620.939H672.903V614.057H658.108V606.832H644.001V599.606H629.206V592.381H614.411V585.155H599.96V577.93H585.165V570.36H570.714V563.135H555.918V555.565H540.779V547.651H526.328ZM590.998 1093.42H606.137V1048H590.998V1093.42Z" fill="#206234"/>
<path d="M774.775 118.509H762.938V220.93H775.29V176.668H787.127V233.283H799.994V518.571H810.803V198.285H822.64V184.388H832.934V173.58H844.257V155.051H832.934V166.374H796.392V155.051H789.701H785.583V151.963V129.318H774.775V118.509Z" fill="#A80000"/>
<path d="M659.998 118.509H671.836V220.93H659.484V176.668H647.646V233.283H634.779V516.107H623.971V198.285H612.133V184.388H601.84V173.58H590.517V155.051H601.84V166.374H638.382V155.051H645.073H649.19V151.963V129.318H659.998V118.509Z" fill="#A80000"/>
<path d="M705.293 95.8638H694.484V105.643H705.293V95.8638Z" stroke="black" stroke-width="0.61605"/>
<path d="M740.293 95.8638H729.484V105.643H740.293V95.8638Z" stroke="black" stroke-width="0.61605"/>
<path d="M822.125 118.509H796.391V128.803H822.125V118.509Z" fill="#A80000"/>
<path d="M638.898 118.509H613.164V128.803H638.898V118.509Z" fill="#A80000"/>
<path d="M693.972 247.179H683.164V256.958H693.972V247.179Z" stroke="black" stroke-width="0.61605"/>
<path d="M753.16 247.179H742.352V256.958H753.16V247.179Z" stroke="black" stroke-width="0.61605"/>
<path d="M591.035 82.4814H601.328V118.509H591.035V151.448H580.227V96.8925H591.035V82.4814Z" fill="white"/>
<path d="M601.844 70.1289H613.681V81.9665H601.844V70.1289Z" fill="white"/>
<path d="M844.77 81.9668H834.476V117.994H844.77V150.934H855.578V96.3778H844.77V81.9668Z" fill="white"/>
<path d="M833.961 69.6147H822.123V81.4524H833.961V69.6147Z" fill="white"/>
<path d="M762.939 13H672.87H671.84V22.2642H649.709V35.1312H626.034V46.9688H614.711V69.1H637.872V60.3505H671.84V220.93H659.488V176.668H647.65V245.12H660.517V257.987H671.84V302.25H683.163V348.571H695.001V290.412H683.163V268.281H695.001V279.604H704.78V348.571H729.999V279.604H741.837V268.281H752.645V290.412H741.837V348.571H752.645V302.25H762.939V257.987H775.291V245.12H787.128V176.668H775.291V220.93H762.939V60.3505H799.481V69.1H822.127V46.9688H810.289V35.1312H787.128V22.2642H762.939V13Z" fill="white"/>
<path d="M526.328 554.044V540.969H540.779V532.712H555.918V525.486H570.714V518.949H585.165V511.035H599.96V503.465H614.411V495.896H629.206V489.702H644.001V483.165H658.108V473.187H666.366V465.617H687.698V458.736H699.053V449.79H710.063V441.532H724.17V449.79H732.084V458.736H746.191V465.617H760.298V473.187H780.598V483.165H792.296V489.702H804.339V495.896H819.822V503.465H839.09V511.035H851.821V518.949H863.864V525.486H878.315V532.712H894.142V539.593H907.905V554.388H894.142V562.302H878.315V569.527H863.864V576.409H851.821V584.322H839.09V591.548H819.822V598.773H805.027V605.999H790.232V613.225H776.125V620.45H760.298V627.332H746.191V635.245H732.084V642.471H724.17V649.352H710.063V642.471H702.149V635.245H687.698V627.332H672.903V620.45H658.108V613.225H644.001V605.999H629.206V598.773H614.411V591.548H599.96V584.322H585.165V576.753H570.714V569.527H555.918V561.958H540.779V554.044H526.328Z" fill="#2D8647"/>
<rect x="926.109" y="584.912" width="58.734" height="15.1015" fill="white"/>
<rect x="897.586" y="600.013" width="58.734" height="15.1015" fill="white"/>
<rect x="495.039" y="888.208" width="58.734" height="15.1015" fill="white"/>
<rect x="466.516" y="903.309" width="58.734" height="15.1015" fill="white"/>
<rect x="572.781" y="690.332" width="77.1933" height="20.1353" transform="rotate(-180 572.781 690.332)" fill="white"/>
<rect x="515.727" y="676.907" width="77.1933" height="20.1353" transform="rotate(-180 515.727 676.907)" fill="white"/>
<rect width="63.3094" height="20.1353" transform="matrix(1 0 0 -1 699.828 701.359)" fill="white"/>
<rect width="63.3094" height="20.1353" transform="matrix(1 0 0 -1 746.625 687.935)" fill="white"/>
<rect width="63.3094" height="20.1353" transform="matrix(1 0 0 -1 620.992 1023.56)" fill="white"/>
<rect width="63.3094" height="20.1353" transform="matrix(1 0 0 -1 667.789 1010.14)" fill="white"/>
<rect x="824" y="940" width="85.0025" height="17.7894" fill="white"/>
<rect x="861.562" y="957.789" width="85.0025" height="17.7894" fill="white"/>
<rect x="518.594" y="494.077" width="85.0025" height="17.7894" fill="white"/>
<rect x="556.156" y="511.866" width="85.0025" height="17.7894" fill="white"/>
<path d="M701.082 458.593H698.406V452.832H712.098H733.47V458.593H728.536V480.961H723.113V458.593H706.336V480.961H701.082V458.593Z" fill="black" stroke="black" stroke-width="0.63956"/>
<path d="M695.445 414.667V408.752H736.846V414.493L695.445 414.667Z" fill="#26733D" stroke="#26733D" stroke-width="0.63956"/>
<path d="M698.406 425.228V414.667H733.47V425.228H698.406Z" fill="#206234" stroke="#206234" stroke-width="0.63956"/>
<path d="M695.445 414.667V408.752H736.846V414.667H695.445Z" fill="#26733D" stroke="#26733D" stroke-width="0.63956"/>
<path d="M698.406 452.688V425.229H733.47V452.688H698.406Z" fill="#26733D" stroke="#26733D" stroke-width="0.63956"/>
<path d="M740.483 370.309H691.506V382.001H681.508V387.085H750.821V382.001H740.483V370.309Z" fill="#26733D" stroke="#26733D" stroke-width="0.63956"/>
<path d="M694.047 387.254H738.109V408.775H694.047V387.254Z" fill="black"/>
<rect x="694.391" y="375.562" width="2.7115" height="3.05013" fill="#FF9315"/>
<rect x="735.734" y="371.834" width="2.7115" height="3.05013" fill="#FF9315"/>
<rect x="697.102" y="378.612" width="6.43982" height="3.05013" fill="#FF9315"/>
<path d="M700.938 480.992H706.53V491.329H700.938V480.992Z" fill="#26733D"/>
<path d="M722.906 480.992H728.668V491.329H722.906V480.992Z" fill="#26733D"/>
<path d="M694.531 425.262H691.688V458.93H700.128V454.632H697.374V451.677V434.216H694.531V428.486V425.262Z" fill="#122132" stroke="#122132" stroke-width="1.37622"/>
<path d="M685.844 425.262V466.112H688.627V462.97H691.59V425.262H685.844Z" fill="#182738" stroke="#182738" stroke-width="1.37622"/>
<rect x="688.633" y="430.738" width="1.25692" height="4.66904" transform="rotate(-90 688.633 430.738)" fill="#FF9315"/>
<rect x="682.883" y="431.098" width="2.87296" height="2.87325" transform="rotate(-90 682.883 431.098)" fill="#FF9315"/>
<rect x="688.633" y="433.612" width="1.25692" height="4.66904" transform="rotate(-90 688.633 433.612)" fill="#FF9315"/>
<rect x="688.633" y="436.459" width="1.25692" height="4.66904" transform="rotate(-90 688.633 436.459)" fill="#FF9315"/>
<rect x="408.609" y="784.256" width="18.3055" height="18.3055" fill="white"/>
<rect x="426.828" y="766.214" width="19.7136" height="17.8654" fill="white"/>
<rect x="390.305" y="765.95" width="18.3055" height="18.3055" fill="white"/>
<rect x="372" y="841.988" width="98.568" height="18.3055" transform="rotate(-90 372 841.988)" fill="white"/>
<rect x="446.633" y="841.988" width="98.568" height="18.3055" transform="rotate(-90 446.633 841.988)" fill="white"/>
<rect x="493.273" y="841.988" width="98.568" height="18.4815" transform="rotate(-90 493.273 841.988)" fill="white"/>
<rect x="576.703" y="784.256" width="18.3055" height="18.3055" fill="white"/>
<rect x="595.008" y="802.561" width="19.7136" height="18.3055" fill="white"/>
<rect x="558.398" y="765.95" width="18.3055" height="18.3055" fill="white"/>
<rect x="540.094" y="841.988" width="98.568" height="18.3055" transform="rotate(-90 540.094 841.988)" fill="white"/>
<rect x="614.727" y="841.988" width="98.568" height="18.3055" transform="rotate(-90 614.727 841.988)" fill="white"/>
<rect x="719.273" y="823.507" width="61.605" height="18.4815" transform="rotate(-90 719.273 823.507)" fill="white"/>
<rect x="679.852" y="823.507" width="39.4272" height="18.4815" fill="white"/>
<rect x="679.852" y="743.42" width="39.4272" height="18.4815" fill="white"/>
<rect x="661.367" y="841.988" width="98.568" height="18.4815" transform="rotate(-90 661.367 841.988)" fill="white"/>
<rect x="824" y="780.383" width="18.4815" height="18.4815" transform="rotate(-90 824 780.383)" fill="white"/>
<rect x="824" y="841.988" width="18.4815" height="18.4815" transform="rotate(-90 824 841.988)" fill="white"/>
<rect x="805.523" y="823.507" width="24.642" height="18.4815" transform="rotate(-90 805.523 823.507)" fill="white"/>
<rect x="784.578" y="743.42" width="39.4272" height="18.4815" fill="white"/>
<rect x="784.578" y="780.383" width="39.4272" height="18.4815" fill="white"/>
<rect x="766.094" y="841.988" width="98.568" height="18.4815" transform="rotate(-90 766.094 841.988)" fill="white"/>
<rect x="928.727" y="840.756" width="39.4272" height="18.4815" transform="rotate(-180 928.727 840.756)" fill="white"/>
<rect x="947.211" y="743.42" width="78.8544" height="18.4815" transform="rotate(90 947.211 743.42)" fill="white"/>
<rect x="889.305" y="743.42" width="78.8544" height="18.4815" transform="rotate(90 889.305 743.42)" fill="white"/>
<rect x="1012.16" y="784.256" width="18.3055" height="18.3055" fill="white"/>
<rect x="1030.47" y="802.561" width="19.7136" height="18.3055" fill="white"/>
<rect x="993.859" y="765.95" width="18.3055" height="18.3055" fill="white"/>
<rect x="975.555" y="841.988" width="98.568" height="18.3055" transform="rotate(-90 975.555 841.988)" fill="white"/>
<rect x="1050.19" y="841.988" width="98.568" height="18.3055" transform="rotate(-90 1050.19 841.988)" fill="white"/>
</g>
<defs>
<clipPath id="clip0_419_4244">
<rect width="1440" height="1024" fill="white"/>
</clipPath>
</defs>
</svg>
