<svg width="1440" height="1024" viewBox="0 0 1440 1024" fill="none" xmlns="http://www.w3.org/2000/svg">
<g clip-path="url(#clip0_419_4244)">
<rect width="1440" height="1024" fill="#111111"/>
<rect x="1332.54" y="874.534" width="8.91884" height="8.91794" transform="rotate(180 1332.54 874.534)" fill="white"/>
<rect x="61.6094" y="427.15" width="8.91884" height="8.91794" transform="rotate(180 61.6094 427.15)" fill="white"/>
<rect x="578.898" y="881.965" width="8.91884" height="8.91794" transform="rotate(180 578.898 881.965)" fill="white"/>
<rect x="1213.94" y="417.853" width="8.91884" height="8.91794" transform="rotate(180 1213.94 417.853)" fill="white"/>
<rect x="647.281" y="627.804" width="8.91884" height="8.91794" transform="rotate(180 647.281 627.804)" fill="white"/>
<rect x="729.039" y="835.889" width="8.91884" height="8.91794" transform="rotate(180 729.039 835.889)" fill="white"/>
<rect x="974.344" y="565.406" width="8.91884" height="8.91794" transform="rotate(180 974.344 565.406)" fill="white"/>
<rect x="302.414" y="308.245" width="8.91884" height="8.91794" transform="rotate(180 302.414 308.245)" fill="white"/>
<rect x="438.43" y="464.347" width="8.91884" height="8.91794" transform="rotate(180 438.43 464.347)" fill="white"/>
<rect x="876.195" y="271.085" width="8.91884" height="8.91794" transform="rotate(180 876.195 271.085)" fill="white"/>
<rect x="989.164" y="364.724" width="8.91884" height="8.91794" transform="rotate(180 989.164 364.724)" fill="white"/>
<rect x="516.922" y="299.106" width="8.91884" height="8.91794" transform="rotate(180 516.922 299.106)" fill="white"/>
<rect x="1378.62" y="82.3232" width="8.91884" height="8.91794" transform="rotate(180 1378.62 82.3232)" fill="white"/>
<rect x="602.688" y="749.683" width="5.94589" height="5.9453" transform="rotate(180 602.688 749.683)" fill="white"/>
<rect x="1132.27" y="284.892" width="5.94589" height="5.9453" transform="rotate(180 1132.27 284.892)" fill="white"/>
<rect x="706.734" y="131.372" width="5.94589" height="5.9453" transform="rotate(180 706.734 131.372)" fill="white"/>
<rect x="883.625" y="611.454" width="5.94589" height="5.9453" transform="rotate(180 883.625 611.454)" fill="white"/>
<rect x="1265.65" y="189.339" width="5.94589" height="5.9453" transform="rotate(180 1265.65 189.339)" fill="white"/>
<rect x="262.281" y="870.075" width="5.94589" height="5.9453" transform="rotate(180 262.281 870.075)" fill="white"/>
<rect x="139.648" y="763.871" width="5.94589" height="5.9453" transform="rotate(180 139.648 763.871)" fill="white"/>
<rect x="1166.06" y="791.3" width="5.94589" height="5.9453" transform="rotate(180 1166.06 791.3)" fill="white"/>
<rect x="1019.15" y="178.091" width="5.94589" height="5.9453" transform="rotate(180 1019.15 178.091)" fill="white"/>
<rect x="1390.52" y="352.834" width="5.94589" height="5.9453" transform="rotate(180 1390.52 352.834)" fill="white"/>
<rect x="1060.38" y="691.945" width="5.94589" height="5.9453" transform="rotate(180 1060.38 691.945)" fill="white"/>
<rect x="1084.3" y="543.083" width="5.94589" height="5.9453" transform="rotate(180 1084.3 543.083)" fill="white"/>
<rect x="1204.7" y="91.2407" width="5.94589" height="5.9453" transform="rotate(180 1204.7 91.2407)" fill="white"/>
<rect x="91.3359" y="262.168" width="5.94589" height="5.9453" transform="rotate(180 91.3359 262.168)" fill="white"/>
<rect x="55.6641" y="578.755" width="5.94589" height="5.9453" transform="rotate(180 55.6641 578.755)" fill="white"/>
<rect x="1384.57" y="663.476" width="5.94589" height="5.9453" transform="rotate(180 1384.57 663.476)" fill="white"/>
<rect x="66.0703" y="117.995" width="8.91884" height="8.91794" transform="rotate(180 66.0703 117.995)" fill="white"/>
<rect x="341.062" y="113.539" width="8.91884" height="8.91794" transform="rotate(180 341.062 113.539)" fill="white"/>
<rect x="57.1484" y="913.178" width="8.91884" height="8.91794" transform="rotate(180 57.1484 913.178)" fill="white"/>
<rect x="1259.71" y="580.242" width="8.91884" height="8.91794" transform="rotate(180 1259.71 580.242)" fill="white"/>
<rect x="815.25" y="742.251" width="8.91884" height="8.91794" transform="rotate(180 815.25 742.251)" fill="white"/>
<rect x="176.062" y="552.001" width="8.91884" height="8.91794" transform="rotate(180 176.062 552.001)" fill="white"/>
<rect x="332.148" y="632.318" width="8.91884" height="8.91794" transform="rotate(180 332.148 632.318)" fill="white"/>
<rect x="75.9766" y="1013.64" width="8.91884" height="8.91794" fill="white"/>
<rect x="829.617" y="977.212" width="8.91884" height="8.91794" fill="white"/>
<rect x="679.477" y="1023.29" width="8.91884" height="8.91794" fill="white"/>
<rect x="1146.23" y="989.103" width="5.94589" height="5.9453" fill="white"/>
<rect x="443.133" y="1014.23" width="5.94589" height="5.9453" fill="white"/>
<rect x="1351.37" y="986.992" width="8.91884" height="8.91794" fill="white"/>
<path fill-rule="evenodd" clip-rule="evenodd" d="M907.903 744.971V805.528H850.787V818.603H907.903V911.503H874.184V956.92H907.903V1025H850.787V1038.07H907.903V1085.22H719.352V818.603H768.211V805.528H737.247V793.83H719.352V650.695V650.351H724.169V643.47H732.082V636.244H746.189V628.331H760.296V621.449H776.124V614.224H790.231V606.998H805.026V599.773H819.821V592.547H839.089V585.321H851.82V577.408H863.862V570.526H878.313V563.301H894.141V555.387H907.903V621.794H883.13V633.346H907.903V699.554H892.764V744.971H907.903Z" fill="#26733D"/>
<path fill-rule="evenodd" clip-rule="evenodd" d="M526.328 547.651V579.994H556.203V591.546H526.328V765.105H588.606V778.18H526.328V871.079H545.942V936.453H526.328V1096.92H719.353V799.512H661.549V786.438H719.353V643.304V642.96H710.063V636.078H702.149V628.853H687.698V620.939H672.903V614.057H658.108V606.832H644.001V599.606H629.206V592.381H614.411V585.155H599.96V577.93H585.165V570.36H570.714V563.135H555.918V555.565H540.779V547.651H526.328ZM590.998 1093.42H606.137V1048H590.998V1093.42Z" fill="#206234"/>
<path d="M774.775 118.509H762.938V220.93H775.29V176.668H787.127V233.283H799.994V518.571H810.803V198.285H822.64V184.388H832.934V173.58H844.257V155.051H832.934V166.374H796.392V155.051H789.701H785.583V151.963V129.318H774.775V118.509Z" fill="#A80000"/>
<path d="M659.998 118.509H671.836V220.93H659.484V176.668H647.646V233.283H634.779V516.107H623.971V198.285H612.133V184.388H601.84V173.58H590.517V155.051H601.84V166.374H638.382V155.051H645.073H649.19V151.963V129.318H659.998V118.509Z" fill="#A80000"/>
<path d="M705.293 95.8638H694.484V105.643H705.293V95.8638Z" stroke="black" stroke-width="0.61605"/>
<path d="M740.293 95.8638H729.484V105.643H740.293V95.8638Z" stroke="black" stroke-width="0.61605"/>
<path d="M822.125 118.509H796.391V128.803H822.125V118.509Z" fill="#A80000"/>
<path d="M638.898 118.509H613.164V128.803H638.898V118.509Z" fill="#A80000"/>
<path d="M693.972 247.179H683.164V256.958H693.972V247.179Z" stroke="black" stroke-width="0.61605"/>
<path d="M753.16 247.179H742.352V256.958H753.16V247.179Z" stroke="black" stroke-width="0.61605"/>
<path d="M591.035 82.4814H601.328V118.509H591.035V151.448H580.227V96.8925H591.035V82.4814Z" fill="white"/>
<path d="M601.844 70.1289H613.681V81.9665H601.844V70.1289Z" fill="white"/>
<path d="M844.77 81.9668H834.476V117.994H844.77V150.934H855.578V96.3778H844.77V81.9668Z" fill="white"/>
<path d="M833.961 69.6147H822.123V81.4524H833.961V69.6147Z" fill="white"/>
<path d="M762.939 13H672.87H671.84V22.2642H649.709V35.1312H626.034V46.9688H614.711V69.1H637.872V60.3505H671.84V220.93H659.488V176.668H647.65V245.12H660.517V257.987H671.84V302.25H683.163V348.571H695.001V290.412H683.163V268.281H695.001V279.604H704.78V348.571H729.999V279.604H741.837V268.281H752.645V290.412H741.837V348.571H752.645V302.25H762.939V257.987H775.291V245.12H787.128V176.668H775.291V220.93H762.939V60.3505H799.481V69.1H822.127V46.9688H810.289V35.1312H787.128V22.2642H762.939V13Z" fill="white"/>
<path d="M526.328 554.044V540.969H540.779V532.712H555.918V525.486H570.714V518.949H585.165V511.035H599.96V503.465H614.411V495.896H629.206V489.702H644.001V483.165H658.108V473.187H666.366V465.617H687.698V458.736H699.053V449.79H710.063V441.532H724.17V449.79H732.084V458.736H746.191V465.617H760.298V473.187H780.598V483.165H792.296V489.702H804.339V495.896H819.822V503.465H839.09V511.035H851.821V518.949H863.864V525.486H878.315V532.712H894.142V539.593H907.905V554.388H894.142V562.302H878.315V569.527H863.864V576.409H851.821V584.322H839.09V591.548H819.822V598.773H805.027V605.999H790.232V613.225H776.125V620.45H760.298V627.332H746.191V635.245H732.084V642.471H724.17V649.352H710.063V642.471H702.149V635.245H687.698V627.332H672.903V620.45H658.108V613.225H644.001V605.999H629.206V598.773H614.411V591.548H599.96V584.322H585.165V576.753H570.714V569.527H555.918V561.958H540.779V554.044H526.328Z" fill="#2D8647"/>
<rect x="926.109" y="584.912" width="58.734" height="15.1015" fill="white"/>
<rect x="897.586" y="600.013" width="58.734" height="15.1015" fill="white"/>
<rect x="495.039" y="888.208" width="58.734" height="15.1015" fill="white"/>
<rect x="466.516" y="903.309" width="58.734" height="15.1015" fill="white"/>
<rect x="572.781" y="690.332" width="77.1933" height="20.1353" transform="rotate(-180 572.781 690.332)" fill="white"/>
<rect x="515.727" y="676.907" width="77.1933" height="20.1353" transform="rotate(-180 515.727 676.907)" fill="white"/>
<rect width="63.3094" height="20.1353" transform="matrix(1 0 0 -1 699.828 701.359)" fill="white"/>
<rect width="63.3094" height="20.1353" transform="matrix(1 0 0 -1 746.625 687.935)" fill="white"/>
<rect width="63.3094" height="20.1353" transform="matrix(1 0 0 -1 620.992 1023.56)" fill="white"/>
<rect width="63.3094" height="20.1353" transform="matrix(1 0 0 -1 667.789 1010.14)" fill="white"/>
<rect x="824" y="940" width="85.0025" height="17.7894" fill="white"/>
<rect x="861.562" y="957.789" width="85.0025" height="17.7894" fill="white"/>
<rect x="518.594" y="494.077" width="85.0025" height="17.7894" fill="white"/>
<rect x="556.156" y="511.866" width="85.0025" height="17.7894" fill="white"/>
<path d="M701.082 458.593H698.406V452.832H712.098H733.47V458.593H728.536V480.961H723.113V458.593H706.336V480.961H701.082V458.593Z" fill="black" stroke="black" stroke-width="0.63956"/>
<path d="M695.445 414.667V408.752H736.846V414.493L695.445 414.667Z" fill="#26733D" stroke="#26733D" stroke-width="0.63956"/>
<path d="M698.406 425.228V414.667H733.47V425.228H698.406Z" fill="#206234" stroke="#206234" stroke-width="0.63956"/>
<path d="M695.445 414.667V408.752H736.846V414.667H695.445Z" fill="#26733D" stroke="#26733D" stroke-width="0.63956"/>
<path d="M698.406 452.688V425.229H733.47V452.688H698.406Z" fill="#26733D" stroke="#26733D" stroke-width="0.63956"/>
<path d="M740.483 370.309H691.506V382.001H681.508V387.085H750.821V382.001H740.483V370.309Z" fill="#26733D" stroke="#26733D" stroke-width="0.63956"/>
<path d="M694.047 387.254H738.109V408.775H694.047V387.254Z" fill="black"/>
<rect x="694.391" y="375.562" width="2.7115" height="3.05013" fill="#FF9315"/>
<rect x="735.734" y="371.834" width="2.7115" height="3.05013" fill="#FF9315"/>
<rect x="697.102" y="378.612" width="6.43982" height="3.05013" fill="#FF9315"/>
<path d="M700.938 480.992H706.53V491.329H700.938V480.992Z" fill="#26733D"/>
<path d="M722.906 480.992H728.668V491.329H722.906V480.992Z" fill="#26733D"/>
<path d="M694.531 425.262H691.688V458.93H700.128V454.632H697.374V451.677V434.216H694.531V428.486V425.262Z" fill="#122132" stroke="#122132" stroke-width="1.37622"/>
<path d="M685.844 425.262V466.112H688.627V462.97H691.59V425.262H685.844Z" fill="#182738" stroke="#182738" stroke-width="1.37622"/>
<rect x="688.633" y="430.738" width="1.25692" height="4.66904" transform="rotate(-90 688.633 430.738)" fill="#FF9315"/>
<rect x="682.883" y="431.098" width="2.87296" height="2.87325" transform="rotate(-90 682.883 431.098)" fill="#FF9315"/>
<rect x="688.633" y="433.612" width="1.25692" height="4.66904" transform="rotate(-90 688.633 433.612)" fill="#FF9315"/>
<rect x="688.633" y="436.459" width="1.25692" height="4.66904" transform="rotate(-90 688.633 436.459)" fill="#FF9315"/>
<rect x="408.609" y="784.256" width="18.3055" height="18.3055" fill="white"/>
<rect x="426.828" y="766.214" width="19.7136" height="17.8654" fill="white"/>
<rect x="390.305" y="765.95" width="18.3055" height="18.3055" fill="white"/>
<rect x="372" y="841.988" width="98.568" height="18.3055" transform="rotate(-90 372 841.988)" fill="white"/>
<rect x="446.633" y="841.988" width="98.568" height="18.3055" transform="rotate(-90 446.633 841.988)" fill="white"/>
<rect x="493.273" y="841.988" width="98.568" height="18.4815" transform="rotate(-90 493.273 841.988)" fill="white"/>
<rect x="576.703" y="784.256" width="18.3055" height="18.3055" fill="white"/>
<rect x="595.008" y="802.561" width="19.7136" height="18.3055" fill="white"/>
<rect x="558.398" y="765.95" width="18.3055" height="18.3055" fill="white"/>
<rect x="540.094" y="841.988" width="98.568" height="18.3055" transform="rotate(-90 540.094 841.988)" fill="white"/>
<rect x="614.727" y="841.988" width="98.568" height="18.3055" transform="rotate(-90 614.727 841.988)" fill="white"/>
<rect x="719.273" y="823.507" width="61.605" height="18.4815" transform="rotate(-90 719.273 823.507)" fill="white"/>
<rect x="679.852" y="823.507" width="39.4272" height="18.4815" fill="white"/>
<rect x="679.852" y="743.42" width="39.4272" height="18.4815" fill="white"/>
<rect x="661.367" y="841.988" width="98.568" height="18.4815" transform="rotate(-90 661.367 841.988)" fill="white"/>
<rect x="824" y="780.383" width="18.4815" height="18.4815" transform="rotate(-90 824 780.383)" fill="white"/>
<rect x="824" y="841.988" width="18.4815" height="18.4815" transform="rotate(-90 824 841.988)" fill="white"/>
<rect x="805.523" y="823.507" width="24.642" height="18.4815" transform="rotate(-90 805.523 823.507)" fill="white"/>
<rect x="784.578" y="743.42" width="39.4272" height="18.4815" fill="white"/>
<rect x="784.578" y="780.383" width="39.4272" height="18.4815" fill="white"/>
<rect x="766.094" y="841.988" width="98.568" height="18.4815" transform="rotate(-90 766.094 841.988)" fill="white"/>
<rect x="928.727" y="840.756" width="39.4272" height="18.4815" transform="rotate(-180 928.727 840.756)" fill="white"/>
<rect x="947.211" y="743.42" width="78.8544" height="18.4815" transform="rotate(90 947.211 743.42)" fill="white"/>
<rect x="889.305" y="743.42" width="78.8544" height="18.4815" transform="rotate(90 889.305 743.42)" fill="white"/>
<rect x="1012.16" y="784.256" width="18.3055" height="18.3055" fill="white"/>
<rect x="1030.47" y="802.561" width="19.7136" height="18.3055" fill="white"/>
<rect x="993.859" y="765.95" width="18.3055" height="18.3055" fill="white"/>
<rect x="975.555" y="841.988" width="98.568" height="18.3055" transform="rotate(-90 975.555 841.988)" fill="white"/>
<rect x="1050.19" y="841.988" width="98.568" height="18.3055" transform="rotate(-90 1050.19 841.988)" fill="white"/>
<g clip-path="url(#clip1_419_4244)">
<rect width="1440" height="1024" fill="#111111"/>
<rect x="137.828" y="88.5938" width="8.43835" height="8.4375" fill="white"/>
<rect x="1340.29" y="511.875" width="8.43835" height="8.4375" fill="white"/>
<rect x="850.867" y="81.5625" width="8.43835" height="8.4375" fill="white"/>
<rect x="909.938" y="367.031" width="8.43835" height="8.4375" fill="white"/>
<rect x="786.172" y="322.031" width="8.43835" height="8.4375" fill="white"/>
<rect x="708.82" y="125.156" width="8.43835" height="8.4375" fill="white"/>
<rect x="428.945" y="254.531" width="8.43835" height="8.4375" fill="white"/>
<rect x="1112.45" y="624.375" width="8.43835" height="8.4375" fill="white"/>
<rect x="569.594" y="659.532" width="8.43835" height="8.4375" fill="white"/>
<rect x="462.703" y="570.938" width="8.43835" height="8.4375" fill="white"/>
<rect x="855.086" y="720" width="8.43835" height="8.4375" fill="white"/>
<rect x="94.2266" y="838.125" width="8.43835" height="8.4375" fill="white"/>
<rect x="828.367" y="206.719" width="5.62557" height="5.625" fill="white"/>
<rect x="703.195" y="579.375" width="5.62557" height="5.625" fill="white"/>
<rect x="729.914" y="791.719" width="5.62557" height="5.625" fill="white"/>
<rect x="562.555" y="337.5" width="5.62557" height="5.625" fill="white"/>
<rect x="201.109" y="736.875" width="5.62557" height="5.625" fill="white"/>
<rect x="1150.43" y="92.8125" width="5.62557" height="5.625" fill="white"/>
<rect x="295.344" y="167.344" width="5.62557" height="5.625" fill="white"/>
<rect x="82.9766" y="582.188" width="5.62557" height="5.625" fill="white"/>
<rect x="485.203" y="85.7812" width="5.62557" height="5.625" fill="white"/>
<rect x="372.695" y="402.188" width="5.62557" height="5.625" fill="white"/>
<rect x="258.773" y="829.688" width="5.62557" height="5.625" fill="white"/>
<rect x="1312.16" y="667.969" width="5.62557" height="5.625" fill="white"/>
<rect x="1345.91" y="368.438" width="5.62557" height="5.625" fill="white"/>
<rect x="88.6016" y="288.281" width="5.62557" height="5.625" fill="white"/>
<rect x="1336.07" y="804.375" width="8.43835" height="8.4375" fill="white"/>
<rect x="703.195" y="448.594" width="8.43835" height="8.4375" fill="white"/>
<rect x="1344.52" y="52.0317" width="8.43835" height="8.4375" fill="white"/>
<rect x="206.742" y="367.031" width="8.43835" height="8.4375" fill="white"/>
<rect x="627.25" y="213.75" width="8.43835" height="8.4375" fill="white"/>
<rect x="1232" y="393.75" width="8.43835" height="8.4375" fill="white"/>
<path d="M536.461 795.109V749.272H540.423V758.61H550.326V767.664H559.382V785.489H586.83V776.528H595.319V795.109H586.83V832.457H577.775V795.109H549.761V832.457H540.988V795.109H536.461Z" fill="black" stroke="black" stroke-width="0.565912"/>
<path d="M669.739 767.287V758.328H563.625V784.925H577.171V776.246H586.484H641.517V767.287H659.578H669.739Z" fill="#122132" stroke="#122132" stroke-width="0.565912"/>
<path d="M669.697 739.938H540.945V748.709H550.849V758.046H669.697V739.938Z" fill="#182738" stroke="#182738" stroke-width="0.565912"/>
<path d="M530.781 721.544V711.924H571.529V721.261L530.781 721.544Z" fill="#26733D" stroke="#26733D" stroke-width="0.565912"/>
<path d="M536.461 739.651V721.826H595.319V739.118L536.461 739.651Z" fill="#206234" stroke="#206234" stroke-width="0.565912"/>
<path d="M536.461 748.992V739.655H540.705V748.992H550.609V758.329H563.06V767.384H550.609V758.329H540.705V748.992H536.461Z" fill="#26733D"/>
<path d="M540.705 748.992H536.461V739.655H540.705V748.992ZM540.705 748.992V758.329H550.609M540.705 748.992H550.609V758.329M550.609 758.329V767.384H563.06V758.329H550.609Z" stroke="#26733D" stroke-width="0.565912"/>
<path d="M586.25 721.544V711.924H599.267V721.261L586.25 721.544Z" fill="#26733D" stroke="#26733D" stroke-width="0.565912"/>
<path d="M606.052 647.696H524.273V667.219H507.578V675.708H623.313V667.219H606.052V647.696Z" fill="#26733D" stroke="#26733D" stroke-width="0.565912"/>
<path d="M528.508 675.99H602.08V711.924H528.508V675.99Z" fill="black"/>
<rect x="578.867" y="711.924" width="7.35722" height="9.62002" fill="black"/>
<rect x="571.539" y="711.924" width="7.35722" height="9.62002" fill="black"/>
<rect x="592.469" y="687.024" width="7.92316" height="13.5812" fill="#FAFF15"/>
<rect x="567.578" y="687.024" width="7.92316" height="13.5812" fill="#FAFF15"/>
<rect x="529.078" y="656.47" width="4.52752" height="5.09295" fill="#FF9315"/>
<rect x="598.148" y="650.244" width="4.52752" height="5.09295" fill="#FF9315"/>
<rect x="533.609" y="661.561" width="10.7529" height="5.09295" fill="#FF9315"/>
<rect x="652.461" y="748.708" width="3.96158" height="14.713" fill="#FF9315"/>
<rect x="651.328" y="730.597" width="9.05505" height="9.05413" fill="#FF9315"/>
<rect x="643.414" y="748.708" width="3.96158" height="14.713" fill="#FF9315"/>
<rect x="661.531" y="748.708" width="3.96158" height="14.713" fill="#FF9315"/>
<path d="M540.68 832.741H550.018V850H540.68V832.741Z" fill="#26733D"/>
<path d="M577.453 832.741H587.074V850H577.453V832.741Z" fill="#26733D"/>
<path d="M563.335 767.662H559.656V785.205H563.335V767.662Z" fill="white"/>
<path d="M586.508 776.533L577.453 776.521V785.207H586.508V776.533Z" fill="white"/>
<rect x="691.969" y="752.237" width="12.6971" height="12.6958" fill="#FAFF15"/>
<rect x="725.367" y="752.237" width="12.6971" height="12.6958" fill="#FAFF15"/>
<rect x="758.781" y="750.787" width="12.6971" height="12.6958" fill="#FAFF15"/>
<rect x="792.164" y="750.787" width="12.6971" height="12.6958" fill="#FAFF15"/>
<rect x="825.555" y="750.787" width="12.6971" height="12.6958" fill="#FAFF15"/>
<rect x="858.945" y="750.787" width="12.6971" height="12.6958" fill="#FAFF15"/>
<rect x="893.781" y="750.787" width="12.6971" height="12.6958" fill="#FAFF15"/>
<rect x="927.195" y="750.787" width="12.6971" height="12.6958" fill="#FAFF15"/>
<rect x="960.594" y="750.787" width="12.6971" height="12.6958" fill="#FAFF15"/>
<path fill-rule="evenodd" clip-rule="evenodd" d="M919.109 66.9355H978.991V112.883H1001.27V66.9355H1076.46V128.199H1031.9V156.046H1076.46V225.663H939.997V204.778H919.109V66.9355Z" fill="#206234"/>
<rect x="914.945" y="95.9893" width="48.737" height="12.5311" fill="white"/>
<path fill-rule="evenodd" clip-rule="evenodd" d="M1339.66 69.5337H1256.8V86.2418H1272.82V97.3806H1256.8V147.505H1293.71V129.405H1313.2V147.505H1339.66V108.519H1322.95V102.95H1339.66V69.5337Z" fill="#206234"/>
<path fill-rule="evenodd" clip-rule="evenodd" d="M1015.76 316.566H1134.95V304.804H1111.91V296.963H1134.95V261.678H1081.87V274.42H1053.82V261.678H1015.76V277.361H1039.28V293.043H1015.76V316.566Z" fill="#206234"/>
<path fill-rule="evenodd" clip-rule="evenodd" d="M1091.79 93.2041H1126.61V112.697H1141.92V93.2041H1243.57V109.912H1218.51V119.659H1243.57V182.314H1208.76V201.807H1243.57V251.932H1091.79V182.314H1134.96V154.467H1091.79V93.2041Z" fill="#206234"/>
<rect x="1208.76" y="214.338" width="59.8769" height="12.5311" fill="white"/>
<rect x="985.961" y="300.884" width="34.5043" height="14.114" fill="white"/>
<rect x="1011.05" y="314.998" width="34.5043" height="14.114" fill="white"/>
<rect x="1235.22" y="226.869" width="59.8769" height="12.5311" fill="white"/>
<rect x="1304.84" y="62.5728" width="45.9521" height="12.5311" fill="white"/>
<rect x="1334.09" y="54.2192" width="16.7098" height="12.5311" fill="white"/>
<rect x="891.273" y="108.521" width="48.737" height="12.5311" fill="white"/>
<rect x="186.672" y="434.329" width="48.737" height="12.5311" fill="white"/>
<rect x="163" y="446.86" width="48.737" height="12.5311" fill="white"/>
<path fill-rule="evenodd" clip-rule="evenodd" d="M850.883 476.1V490.023H866.2V502.554H850.883V529.009H917.722V488.631H912.147V476.1H917.722V464.961H860.631V476.1H850.883Z" fill="#206234"/>
<rect x="889.883" y="520.655" width="55.6995" height="12.5311" fill="white"/>
<rect x="930.258" y="513.693" width="9.74741" height="12.5311" fill="white"/>
<path fill-rule="evenodd" clip-rule="evenodd" d="M813.294 490.023H788.226V478.884H778.481V449.645H789.619V437.114H778.481V425.975H831.393V438.506H845.32V490.023H831.397V474.707H813.294V490.023Z" fill="#206234"/>
<rect x="806.328" y="420.406" width="9.74741" height="12.5311" fill="white"/>
<rect x="831.398" y="445.468" width="27.8497" height="9.74642" fill="white"/>
<rect x="850.891" y="449.645" width="27.8497" height="9.74642" fill="white"/>
<path fill-rule="evenodd" clip-rule="evenodd" d="M520.876 342.434H506.953V357.75H494.421V342.434H467.961V409.267H508.341V403.698H520.873V409.267H532.016V352.18H520.876V342.434Z" fill="#206234"/>
<rect x="484.664" y="371.674" width="55.6995" height="12.5311" transform="rotate(-180 484.664 371.674)" fill="white"/>
<path fill-rule="evenodd" clip-rule="evenodd" d="M575.185 463.569H550.114V452.43H540.372V423.191H551.507V410.66H540.372V399.521H593.284V412.052H607.211V463.569H593.287V448.254H575.185V463.569Z" fill="#206234"/>
<rect x="554.289" y="444.076" width="27.8497" height="9.74642" transform="rotate(-180 554.289 444.076)" fill="white"/>
<rect x="534.797" y="439.899" width="27.8497" height="9.74642" transform="rotate(-180 534.797 439.899)" fill="white"/>
<path fill-rule="evenodd" clip-rule="evenodd" d="M167.172 469.139V579.134H203.373V509.517H224.26V579.134H364.905V526.225H306.422V498.378H364.905V451.038H181.098V469.139H167.172Z" fill="#206234"/>
<rect x="401.125" y="584.703" width="64.0544" height="16.7082" transform="rotate(-180 401.125 584.703)" fill="white"/>
<rect x="353.773" y="573.564" width="64.0544" height="16.7082" transform="rotate(-180 353.773 573.564)" fill="white"/>
<path fill-rule="evenodd" clip-rule="evenodd" d="M830.843 843.679H970.09V861.78H986.523V911.904H970.092V904.942H951.99V911.904H740.334V900.765H702.737V911.904H534.244V904.942H485.507V911.904H415.047V877.096H447.911V861.78H415.047V843.679H631.719V885.45H666.531V843.679H805.778V856.21H830.843V843.679Z" fill="#206234"/>
<path fill-rule="evenodd" clip-rule="evenodd" d="M1002.67 998.23V1035.82H1098.75V984.306H1090.4V996.838H1072.3V984.306H1008.24V998.23H1002.67Z" fill="#206234"/>
<path fill-rule="evenodd" clip-rule="evenodd" d="M1123.82 916.081H1105.72V993.606H1147.49V1000.65H1105.72V1030.25H1155.85V1017.57H1218.51V940.043H1189.27V916.081H1134.96V947.091H1123.82V916.081Z" fill="#206234"/>
<path fill-rule="evenodd" clip-rule="evenodd" d="M594.672 917.473H824.43V948.104H841.14V917.473H870.107V959.243H841.146V970.382H870.107V985.698H775.697V978.736H742.278V985.698H646.199V946.713H633.667V985.698H518.091V977.344H472.139V985.698H426.186V977.344H411.422V948.104H423.398V934.181H411.422V917.473H577.962V934.181H594.672V917.473Z" fill="#206234"/>
<path fill-rule="evenodd" clip-rule="evenodd" d="M252.113 917.474H190.843V947.358H178.311V917.474H167.172V998.162H190.846V1013.1H167.172V1040H279.963V990.691H257.682V975.749H279.963V917.474H261.86V945.864H252.113V917.474Z" fill="#206234"/>
<path fill-rule="evenodd" clip-rule="evenodd" d="M287.219 917.473H391.382V941.143H400.01V991.267H534.801V1001.01H601.64V991.267H628.099V1014.94H601.642V1023.29H628.099V1040H400.01H287.219V966.205H293.903V935.573H287.219V917.473ZM394.165 1017.72H327.326V1030.25H394.165V1017.72Z" fill="#206234"/>
<path fill-rule="evenodd" clip-rule="evenodd" d="M664.305 991.267H635.344V1040H748.135V1013.54H729.753V1005.19H748.135V991.267H676.837V1005.19H664.305V991.267Z" fill="#206234"/>
<path fill-rule="evenodd" clip-rule="evenodd" d="M916.334 917.473H985.957V926.021H995.705V975.886H959.503V987.284H995.705V990.134V1040H754.805V990.134H852.277V998.682H898.229V987.284H875.255V917.473H896.839V928.87H916.334V917.473ZM788.223 1014.35H767.336V1035.72H788.223V1014.35Z" fill="#206234"/>
<path fill-rule="evenodd" clip-rule="evenodd" d="M1002.67 916.081H1008.24V939.751H1022.17V916.081H1098.75V935.574H1068.12V943.928H1098.75V977.344H1002.67V916.081Z" fill="#206234"/>
<rect x="433.148" y="981.521" width="64.0544" height="16.7082" transform="rotate(-180 433.148 981.521)" fill="white"/>
<rect x="391.367" y="973.167" width="64.0544" height="16.7082" transform="rotate(-180 391.367 973.167)" fill="white"/>
<rect x="1034.7" y="941.144" width="64.0544" height="16.7082" transform="rotate(-180 1034.7 941.144)" fill="white"/>
<rect x="997.102" y="953.674" width="64.0544" height="16.7082" transform="rotate(-180 997.102 953.674)" fill="white"/>
<rect x="1261.68" y="1002.41" width="64.0544" height="16.7082" transform="rotate(-180 1261.68 1002.41)" fill="white"/>
</g>
</g>
<defs>
<clipPath id="clip0_419_4244">
<rect width="1440" height="1024" fill="white"/>
</clipPath>
<clipPath id="clip1_419_4244">
<rect width="1440" height="1024" fill="white"/>
</clipPath>
</defs>
</svg>
