<svg width="1440" height="717" viewBox="0 0 1440 717" fill="none" xmlns="http://www.w3.org/2000/svg">
<g clip-path="url(#clip0_429_11562)">
<rect width="1440" height="717" fill="#111111"/>
<path fill-rule="evenodd" clip-rule="evenodd" d="M1311.99 6.99854H1352.69V73.6694H1429.76V83.1938H1352.69V146.401H1340.57V153.328H1352.69V259.828H1344.9V307.451H1352.69V480.622H1321.52V475.427H1311.99V374.987H1337.1V368.926H1311.99V218.267H1326.71V209.608H1311.99V182.767H1256.57V176.706H1251.38V173.243V90.9866H1260.9V173.243H1281.68V176.706H1289.47V173.243H1311.99V118.694H1333.64V107.438H1311.99V66.7423H1318.92V32.1081H1311.99V6.99854Z" fill="white"/>
<path d="M1190.26 409.719H1192.48V412.472H1204.1V414.675H1206.04V419.08V421.007H1208.53V419.08H1210.75V408.342H1212.96V400.082H1206.04V403.661H1202.72V396.778H1206.04V392.097H1212.96V387.692H1210.75V383.011V375.853H1216.84V380.258H1222.93V377.78H1227.63V383.011H1231.78V375.853H1242.3V384.663H1246.73V387.692H1242.3V394.3H1238.7V400.082H1242.3V403.661H1245.07V406.139H1249.5V421.007H1251.44V424.036H1254.21V413.573H1256.14V408.342H1253.37V401.734H1251.99V396.778H1254.21H1255.59V401.183H1262.79V405.589H1267.22V409.994H1272.2V419.08H1279.95V424.036H1282.99V428.166H1279.39V430.92H1283.55V434.224H1285.76V437.528H1290.47V435.05H1287.98V430.369H1297.66V428.166H1299.6V425.964H1307.91V428.166H1310.95V437.528H1313.72V443.585H1308.46V451.019H1304.58V457.902H1299.6V453.222H1295.73V461.206H1290.47H1281.06V457.902H1273.58V464.51H1267.22V466.988H1261.13V461.206H1255.04V466.988H1251.44V473.046H1247.01V479.379H1242.3V474.973H1236.21V480.755H1232.34V487.914H1236.21V494.247H1232.34V498.927H1225.19V503.883H1222.93V500.855H1215.45V507.463H1210.75V502.231H1206.04V497.826H1201.33V494.247H1194.97V487.914H1190.26V490.943H1185V486.537H1177.81V480.755H1171.99V484.61H1165.07V476.901H1167.84V470.568H1171.99V464.51H1185H1185.06H1190.26V459.83H1194.97V466.988H1199.95V464.51H1206.04V466.988H1210.75V464.51H1212.96L1217.6 464.603V454.874H1212.96V457.902H1206.04V453.222H1199.95V457.902H1196.63V451.019H1190.26V453.222H1185V453.184H1180.3V446.063L1174.76 446.105V435.05H1170.89V437.528H1165.07V434.224H1158.43V430.369H1154.55V428.166H1150.96V434.224H1143.76V430.92H1131.86V435.05H1126.32V430.92H1122.72V434.224H1118.02V425.964H1122.72V424.036H1126.32V425.964H1128.53V421.558H1133.24H1135.45V419.08H1139.88V421.558H1142.37V419.08H1149.02V409.719H1152.62V413.573H1158.43V408.342H1160.92V403.661H1166.73V406.139H1169.5V396.778H1174.76V400.082H1177.81V390.996H1181.4V394.3H1185V389.619H1190.26V409.719Z" fill="#26733D"/>
<path d="M-23.5387 643.866H-25.7531V623.767H-31.0125V628.447H-34.611V625.143H-38.2095V634.229H-41.2544V630.925H-46.5137V640.287H-49.2818V637.809H-55.0948V642.49H-57.586V647.721H-63.399V643.866H-66.9975V653.228H-73.6409V655.706H-76.1322V653.228H-80.5611V655.706H-82.7756H-87.4813V660.111H-89.6958V658.184H-93.2943V660.111H-98V668.371H-93.2943V665.067H-89.6958V669.197H-84.1596V665.067H-72.2569V668.371H-65.0599V662.314H-61.4614V664.516H-57.586V668.371H-50.9427V671.675H-45.1297V669.197H-41.2544V676.356H-32.9501V680.21H-35.7182V685.166H-31.0125V687.369H-25.7531V685.166H-19.3866V692.05H-16.0649V687.369H-9.97508V692.05H-3.05489V689.021H1.58348V698.75L-3.05489 698.658H-5.26935V701.136H-9.97508V698.658H-16.0649V701.136H-21.0474V693.977H-25.7531V698.658H-31.0125V701.136H-35.7182V698.658H-44.0225V704.715H-48.1746V711.048H-50.9427V718.757H-44.0225V714.903H-38.2095V720.685H-31.0125V725.09H-25.7531V722.061H-21.0474V728.394H-14.6808V731.973H-9.97508V736.379H-5.26935V741.61H-0.563622V735.002H6.91019V738.031H11.3391V733.075H16.3217V728.394H20.197V722.061H16.3217V714.903H20.197V709.121H26.2868V713.526H30.9925V707.193H35.4214V701.136H39.0199V695.354H45.1097V701.136H51.1995V698.658H57.5661V692.05H65.0399V695.354H74.4513H79.7107V687.369H83.586V692.05H88.5685V685.166H92.4438V677.732H97.7032V671.675H94.9351V662.314H91.8902V660.111H83.586V662.314H81.6483V664.516H71.9601V669.197H74.4513V671.675H69.7456V668.371H67.5311V665.067H63.379V662.314H66.9775V658.184H63.9326V653.228H56.182V644.142H51.1995V639.736H46.7705V635.331H39.5735V630.925H38.1895H35.975V635.881H37.3591V642.49H40.1271V647.721H38.1895V658.184H35.4214V655.155H33.4838V640.287H29.0548V637.809H26.2868V634.229H22.6882V628.447H26.2868V621.839H30.7157V618.811H26.2868V610H15.768V617.159H11.6159V611.927H6.91019V614.405H0.820419V610H-5.26935V617.159V621.839H-3.05489V626.245H-9.97508V630.925H-13.2968V637.809H-9.97508V634.229H-3.05489V642.49H-5.26935V653.228H-7.48381V655.155H-9.97508V653.228V648.822H-11.9127V646.62H-23.5387V643.866Z" fill="#26733D"/>
<path fill-rule="evenodd" clip-rule="evenodd" d="M77.3154 -7.72266H36.616V32.1072H43.5484V66.7414H36.616V107.437H58.2695V118.693H36.616V173.241H14.1063V176.705H6.31286V173.241H-14.4746V90.9849H-24V173.241V176.705H-18.7995V182.766H36.616V209.608H51.3419V218.266H36.616V368.925H61.73V374.986H36.616V475.425H46.1446V480.62H77.3154V307.449H69.5235V259.827H77.3154V153.327H65.1938V146.4H77.3154V-7.72266Z" fill="white"/>
<path d="M1179.06 22.1504H1175.6V-9.45333H1167.37V-2.09356H1161.74V-7.28869H1156.12V6.99793H1151.35V1.8028H1143.13V16.5224H1138.8V12.626H1129.7V19.9858H1125.81V28.2114H1116.72V22.1504H1111.09V36.87H1100.7V40.7663H1096.8V36.87H1089.87V40.7663H1086.41H1079.05V47.6932H1075.58V44.6627H1069.95V47.6932H1062.59V60.681H1069.95V55.4859H1075.58V61.9798H1084.24V55.4859H1102.86V60.681H1114.12V51.1566H1119.75V54.62H1125.81V60.681H1136.2V65.8762H1145.29V61.9798H1151.35V73.2359H1164.34V79.2969H1160.01V87.0896H1167.37V90.5531H1175.6V87.0896H1185.56V97.9128H1190.75V90.5531H1200.28V97.9128H1211.1V93.1506H1217.16V115.23H1221.06V108.303H1224.53V90.5531H1230.15V117.828H1226.69V121.724H1217.16V133.846H1215V136.876H1211.1V108.303H1207.64V112.199H1200.28V108.303H1190.75V112.199H1182.96V100.943H1175.6V108.303H1167.37V112.199H1160.01V108.303H1147.02V117.828H1140.53V127.785H1136.2V139.907H1147.02V133.846H1156.12V142.937H1167.37V149.864H1175.6V145.102H1182.96V155.059H1192.92V160.687H1200.28V167.614H1207.64V175.84H1215V165.45H1226.69V170.212H1233.62V162.419H1241.41V155.059H1247.47V145.102H1241.41V133.846H1247.47V124.754H1257V131.681H1264.36V121.724H1271.29V112.199H1276.91V103.108H1286.44V112.199H1295.97V108.303H1305.92V97.9128H1317.61V103.108H1332.34H1340.56V90.5531H1346.62V97.9128H1354.42V87.0896H1360.48V75.4006H1368.7V65.8762H1364.38V51.1566H1359.61V47.6932H1346.62V51.1566H1343.59V54.62H1328.44V61.9798H1332.34V65.8762H1324.97V60.681H1321.51V55.4859H1315.02V51.1566H1320.64V44.6627H1315.88V36.87H1303.76V22.5833H1295.97V15.6565H1289.04V8.72964H1277.78V1.8028H1275.62H1272.15V9.5955H1274.32V19.9858H1278.65V28.2114H1275.62V44.6627H1271.29V39.9005H1268.26V16.5224H1261.33V12.626H1257V-19.8436V-31.0997H1207.64V-19.8436V-12.4838H1211.1V-5.55698H1200.28V1.8028H1195.08V12.626H1200.28V6.99793H1211.1V19.9858H1207.64V36.87H1204.18V39.9005H1200.28V36.87V29.9431H1197.25V26.4797H1179.06V22.1504Z" fill="#206234"/>
<path d="M1432.78 34.2724H1440.15V7.2144V-19.8436V-34.9961H1282.11V-19.8436V-15.9473H1276.91V-9.45333H1286.44V-5.55698H1282.11V1.8028H1289.04V-2.09356H1294.23V4.40036H1299.86V1.8028H1303.76V8.72964H1310.25V0.936939H1313.28V4.40036H1317.61V8.72964H1315.02V15.6565H1317.61V19.9858H1315.02V25.6138H1321.51V31.6748H1324.97V41.6322H1332.34V36.87H1336.66V43.3639H1343.59V40.7663H1349.65V36.87H1354.42V43.3639H1360.48V36.87H1364.38V39.9005H1370.87V36.87H1374.77V43.3639H1380.83V47.6932H1377.36V54.62H1385.16V51.1566H1388.62V55.4859H1393.82V50.2907H1399.45V44.6627H1406.81V50.2907H1414.17V40.7663H1418.06V43.3639H1424.13V36.87H1419.8V32.5407H1426.72V25.6138H1432.78V34.2724Z" fill="#206234"/>
<path d="M1301.82 662.902H1304.99V634.067H1312.53V640.782H1317.69V636.042H1322.85V649.077H1327.21V644.337H1334.75V657.767H1338.72V654.212H1347.06V660.927H1350.63V668.432H1358.96V662.902H1364.12V676.332H1373.64V679.887H1377.22V676.332H1383.57V679.887H1386.74H1393.49V686.207H1396.66V683.442H1401.82V686.207H1408.57V698.057H1401.82V693.317H1396.66V699.242H1388.72V693.317H1371.66V698.057H1361.34V689.367H1356.18V692.527H1350.63V698.057H1341.1V702.797H1332.77V699.242H1327.21V709.512H1315.31V715.042H1319.28V722.152H1312.53V725.312H1304.99V722.152H1295.86V732.027H1291.1V725.312H1282.37V732.027H1272.45V727.682H1265.8H1258.16V732.027H1249.04V740.397H1240.97V727.682H1230.39V734.807H1224.04V729.838H1212.13V736.766H1203.4V745.061H1194.67V741.506H1185.54V732.027H1174.83V736.766H1161.34H1153.8V725.312H1148.24V732.027H1141.1V722.152H1135.54V711.487H1128V702.797H1131.97V686.769H1136.33V683.609H1148.24V686.769H1151.02V688.63H1164.91V699.242H1161.34V702.797H1168.08V698.057H1171.26V693.317H1177.21V690.233H1172.05V683.442H1176.42V676.332H1187.53V663.297H1194.67V656.977H1201.02V650.657H1211.34V644.337H1213.32H1216.5V651.447H1214.51V660.927H1210.54V668.432H1213.32V683.442H1217.29V679.097H1220.07V657.767H1226.42V654.212H1230.39V649.077H1235.54V640.782H1230.39V631.302H1224.04V626.957H1230.39V614.317H1245.47V624.587H1251.42V617.082H1258.16V620.637H1266.89V614.317H1275.63V624.587V631.302H1272.45V637.622H1282.37V644.337H1287.13V654.212H1282.37V649.077H1272.45V660.927H1275.63V676.332H1278.8V679.097H1282.37V676.332V670.012H1285.15V666.852H1301.82V662.902Z" fill="white"/>
<path d="M547.817 662.585H550.991V633.75H558.531V640.465H563.69V635.725H568.849V648.76H573.214V644.02H580.754V657.45H584.723V653.895H593.056V660.61H596.628V668.115H604.961V662.585H610.12V676.015H619.645V679.57H623.216V676.015H629.566V679.57H632.74H639.486V685.89H642.661V683.125H647.82V685.89H654.566V697.74H647.82V693H642.661V698.925H634.724V693H617.66V697.74H607.342V689.05H602.184V692.21H596.628V697.74H587.104V702.48H578.77V698.925H573.214V709.194H561.309V714.724H565.277V721.834H558.531V724.994H550.991V721.834H541.864V731.709H537.102V724.994H528.371V731.709H518.45V727.364H511.801H504.164V731.709H495.041V740.08H486.972V727.364H476.385V734.49H470.036V729.521H458.131V736.449H449.4V744.744H440.67V741.189H431.542V731.709H420.828V736.449H407.335H399.795V724.994H394.24V731.709H387.096V721.834H381.541V711.169H374.001V702.48H377.969V686.452H382.334V683.292H394.24V686.452H397.017V688.313H410.907V698.925H407.335V702.48H414.082V697.74H417.256V693H423.209V689.916H418.05V683.125H422.415V676.015H433.527V662.98H440.67V656.66H447.019V650.34H457.337V644.02H459.321H462.496V651.13H460.512V660.61H456.543V668.115H459.321V683.125H463.29V678.78H466.068V657.45H472.417V653.895H476.385V648.76H481.544V640.465H476.385V630.985H470.036V626.64H476.385V614H491.465V624.27H497.418V616.765H504.164V620.32H512.895V614H521.625V624.27V630.985H518.45V637.305H528.371V644.02H533.133V653.895H528.371V648.76H518.45V660.61H521.625V676.015H524.8V678.78H528.371V676.015V669.695H531.149V666.535H547.817V662.585Z" fill="white"/>
<path d="M340.817 662.585H343.991V633.75H351.531V640.465H356.69V635.725H361.849V648.76H366.214V644.02H373.754V657.45H377.723V653.895H386.056V660.61H389.628V668.115H397.961V662.585H403.12V676.015H412.645V679.57H416.216V676.015H422.566V679.57H425.74H432.486V685.89H435.661V683.125H440.82V685.89H447.566V697.74H440.82V693H435.661V698.925H427.724V693H410.66V697.74H400.342V689.05H395.184V692.21H389.628V697.74H380.104V702.48H371.77V698.925H366.214V709.194H354.309V714.724H358.277V721.834H351.531V724.994H343.991V721.834H334.864V731.709H330.102V724.994H321.371V731.709H311.45V727.364H304.801H297.164V731.709H288.041V740.08H279.972V727.364H269.385V734.49H263.036V729.521H251.131V736.449H242.4V744.744H233.67V741.189H224.542V731.709H213.828V736.449H200.335H192.795V724.994H187.24V731.709H180.096V721.834H174.541V711.169H167.001V702.48H170.969V686.452H175.334V683.292H187.24V686.452H190.017V688.313H203.907V698.925H200.335V702.48H207.082V697.74H210.256V693H216.209V689.916H211.05V683.125H215.415V676.015H226.527V662.98H233.67V656.66H240.019V650.34H250.337V644.02H252.321H255.496V651.13H253.512V660.61H249.543V668.115H252.321V683.125H256.29V678.78H259.068V657.45H265.417V653.895H269.385V648.76H274.544V640.465H269.385V630.985H263.036V626.64H269.385V614H284.465V624.27H290.418V616.765H297.164V620.32H305.895V614H314.625V624.27V630.985H311.45V637.305H321.371V644.02H326.133V653.895H321.371V648.76H311.45V660.61H314.625V676.015H317.8V678.78H321.371V676.015V669.695H324.149V666.535H340.817V662.585Z" fill="white"/>
<path d="M1326.7 443.487H1324.48V423.388H1319.22V428.069H1315.62V424.765H1312.02V433.851H1308.98V430.547H1303.72V439.908H1300.95V437.43H1295.14V442.111H1292.65V447.342H1286.84V443.487H1283.24V452.849H1276.59V455.327H1274.1V452.849H1269.67V455.327H1267.46H1262.75V459.732H1260.54V457.805H1256.94V459.732H1252.23V467.992H1256.94V464.688H1260.54V468.818H1266.07V464.688H1277.98V467.992H1285.17V465.399H1288.77V467.601H1292.65V467.992H1299.29V473.028H1305.97V470.55H1308.98V475.977H1313.39V479.832H1310.62V484.788H1319.22V486.99H1324.48V484.788H1330.85V491.671H1334.17V486.99H1340.26V491.671H1347.18V488.642H1351.82V498.371L1347.18 498.279H1344.97V500.757H1340.26V498.279H1334.17V500.757H1329.19V493.598H1324.48V498.279H1319.22V500.757H1314.52V498.279H1306.21V504.336H1302.06V510.669H1299.29V518.378H1306.21V514.524H1312.02V520.306H1319.22V524.711H1324.48V521.682H1329.19V528.015H1335.55V531.595H1340.26V536H1344.97V541.231H1349.67V534.623H1357.14V537.652H1361.57V532.696H1366.56V528.015H1370.43V521.682H1366.56V514.524H1370.43V508.742H1376.52V513.147H1381.23V506.814H1385.66V500.757H1389.25V494.975H1395.34V500.757H1401.43V498.279H1407.8V491.671H1415.27V494.975H1424.69H1429.95V486.99H1433.82V491.671H1438.8V484.788H1442.68V477.354H1447.94V471.296H1445.17V461.935H1442.12V459.732H1433.82V461.935H1431.88V464.137H1422.19V468.818H1424.69V471.296H1419.98V467.992H1417.77V464.688H1413.61V461.935H1417.21V457.805H1414.17V452.849H1406.42V443.763H1401.43V439.357H1397V434.952H1389.81V430.547H1388.42H1386.21V435.503H1387.59V442.111H1390.36V447.342H1388.42V457.805H1385.66V454.776H1383.72V439.908H1379.29V437.43H1376.52V433.851H1372.92V428.069H1376.52V421.461H1380.95V418.432H1376.52V409.621H1366V416.78H1361.85V411.548H1357.14V414.026H1351.05V409.621H1344.97V416.78V421.461H1347.18V425.866H1340.26V430.547H1336.94V437.43H1340.26V433.851H1347.18V442.111H1344.97V452.849H1342.75V454.776H1340.26V452.849V448.443H1338.32V446.241H1326.7V443.487Z" fill="#206234"/>
<path d="M1348.97 639.333H1346.2V614.208H1339.61V620.059H1335.11V615.929H1330.6V627.287H1326.79V623.157H1320.2V634.859H1316.74V631.761H1309.46V637.612H1306.34V644.151H1299.06V639.333H1294.55V651.035H1286.23V654.132H1283.11V651.035H1277.57V654.132H1274.79H1268.9V659.639H1266.13V657.23H1261.62V659.639H1255.73V669.964H1261.62V665.834H1266.13V670.996H1273.06V665.834H1287.97V669.964H1296.98V662.392H1301.82V665.145H1306.34V669.964H1314.66V674.094H1321.94V670.996H1326.79V679.945H1337.19V684.763H1333.72V690.958H1339.61V693.711H1346.2V690.958H1354.17V699.562H1358.33V693.711H1365.96V699.562H1374.62V695.776H1380.43V707.938L1374.62 707.822H1371.85V710.92H1365.96V707.822H1358.33V710.92H1352.09V701.971H1346.2V707.822H1339.61V710.92H1333.72V707.822H1323.32V715.394H1318.12V723.31H1314.66V732.947H1323.32V728.128H1330.6V735.356H1339.61V740.863H1346.2V737.077H1352.09V744.993H1360.06V749.467H1365.96V754.973H1371.85V761.513H1377.74V753.253H1387.1V757.039H1392.65V750.843H1398.89V744.993H1403.74V737.077H1398.89V728.128H1403.74V720.901H1411.36V726.407H1417.26V718.492H1422.8V710.92H1427.31V703.692H1434.93V710.92H1442.56V707.822H1450.53V699.562H1459.89V703.692H1471.68H1478.26V693.711H1483.11V699.562H1489.35V690.958H1494.21V681.666H1500.79V674.094H1497.33V662.392H1493.51V659.639H1483.11V662.392H1480.69V665.145H1468.56V670.996H1471.68V674.094H1465.78V669.964H1463.01V665.834H1457.81V662.392H1462.32V657.23H1458.5V651.035H1448.8V639.677H1442.56V634.17H1437.01V628.664H1428V623.157H1426.27H1423.5V629.352H1425.23V637.612H1428.7V644.151H1426.27V657.23H1422.8V653.444H1420.38V634.859H1414.83V631.761H1411.36V627.287H1406.86V620.059H1411.36V611.799H1416.91V608.013H1411.36V597H1398.19V605.948H1392.99V599.409H1387.1V602.507H1379.47V597H1371.85V605.948V611.799H1374.62V617.306H1365.96V623.157H1361.8V631.761H1365.96V627.287H1374.62V637.612H1371.85V651.035H1369.08V653.444H1365.96V651.035V645.528H1363.53V642.774H1348.97V639.333Z" fill="#206234"/>
<path d="M327.241 639.333H324.468V614.208H317.883V620.059H313.377V615.929H308.87V627.287H305.058V623.157H298.472V634.859H295.006V631.761H287.726V637.612H284.607V644.151H277.328V639.333H272.822V651.035H264.503V654.132H261.383V651.035H255.837V654.132H253.064H247.172V659.639H244.399V657.23H239.893V659.639H234V669.964H239.893V665.834H244.399V670.996H251.331V665.834H266.236V669.964H275.248V662.392H280.089V665.145H284.607V669.964H292.926V674.094H300.205V670.996H305.058V679.945H315.456V684.763H311.99V690.958H317.883V693.711H324.468V690.958H332.441V699.562H336.6V693.711H344.226V699.562H352.891V695.776H358.7V707.938L352.891 707.822H350.118V710.92H344.226V707.822H336.6V710.92H330.361V701.971H324.468V707.822H317.883V710.92H311.99V707.822H301.591V715.394H296.392V723.31H292.926V732.947H301.591V728.128H308.87V735.356H317.883V740.863H324.468V737.077H330.361V744.993H338.333V749.467H344.226V754.973H350.118V761.513H356.011V753.253H365.37V757.039H370.916V750.843H377.155V744.993H382.008V737.077H377.155V728.128H382.008V720.901H389.633V726.407H395.526V718.492H401.072V710.92H405.578V703.692H413.204V710.92H420.829V707.822H428.802V699.562H438.161V703.692H449.946H456.532V693.711H461.384V699.562H467.623V690.958H472.476V681.666H479.062V674.094H475.596V662.392H471.783V659.639H461.384V662.392H458.958V665.145H446.826V670.996H449.946V674.094H444.053V669.964H441.28V665.834H436.081V662.392H440.587V657.23H436.774V651.035H427.069V639.677H420.829V634.17H415.283V628.664H406.271V623.157H404.538H401.765V629.352H403.498V637.612H406.965V644.151H404.538V657.23H401.072V653.444H398.646V634.859H393.1V631.761H389.633V627.287H385.127V620.059H389.633V611.799H395.179V608.013H389.633V597H376.462V605.948H371.262V599.409H365.37V602.507H357.744V597H350.118V605.948V611.799H352.891V617.306H344.226V623.157H340.066V631.761H344.226V627.287H352.891V637.612H350.118V651.035H347.345V653.444H344.226V651.035V645.528H341.8V642.774H327.241V639.333Z" fill="#206234"/>
<path d="M117.648 443.487H115.433V446.241H103.807V448.443H101.87V452.849V454.776H99.3783V452.849H97.1639V442.111H94.9494V433.851H101.87V437.43H105.191V430.547H101.87V425.866H94.9494V421.461H97.1639V416.78V409.621H91.0741V414.026H84.9843V411.548H80.2786V416.78H76.1265V409.621H65.6078V418.432H61.1788V421.461H65.6078V428.069H69.2063V433.851H65.6078V437.43H62.8397V439.908H58.4108V454.776H56.4731V457.805H53.705V447.342H51.7674V442.111H54.5355V435.503H55.9195V430.547H53.705H52.321V434.952H45.124V439.357H40.6951V443.763H35.7125V452.849H27.9619V457.805H24.917V461.935H28.5155V464.688H24.3634V467.992H22.1489V471.296H17.4432V468.818H19.9345V464.137H10.2462V461.935H8.30855V459.732H0.00430298V461.935H-3.04059V471.296H-5.80865V477.354H-0.549316V484.788H3.326V491.671H8.30855V486.99H12.1839V494.975H17.4432H26.8547V491.671H34.3285V498.279H40.6951V500.757H46.7849V494.975H52.8746V500.757H56.4731V506.814H60.9021V513.147H65.6078V508.742H71.6975V514.524H75.5729V521.682H71.6975V528.015H75.5729V532.696H80.5554V537.652H84.9843V534.623H92.4582V541.231H97.1639V536H101.87V531.595H106.575V528.015H112.942V521.682H117.648V524.711H122.907V520.306H130.104V514.524H135.917V518.378H142.837V510.669H140.069V504.336H135.917V494.746H136.272V479.832H129.174V475.977H134.015V468.818H137.024V471.296H142.837V467.992H149.481V465.869H153.356V461.935H156.954V467.992H164.151V464.688H176.054V468.818H181.59V464.688H185.189V467.992H189.895V459.732H185.189V457.805H181.59V459.732H179.376V455.327H174.67H172.456V452.849H168.027V455.327H165.535V452.849H158.892V443.487H155.294V447.342H149.481V442.111H146.989V437.43H141.176V439.908H138.408V430.547H133.149V433.851H130.104V424.765H126.506V428.069H122.907V423.388H117.648V443.487Z" fill="#206234"/>
<path d="M1239.26 455.609H1241.47V435.51H1246.73V440.191H1250.33V436.887H1253.93V445.973H1256.97V442.669H1262.23V452.03H1265V449.552H1270.81V454.233H1273.3V459.464H1279.12V455.609H1282.72V464.971H1289.36V467.449H1291.85V464.971H1296.28V467.449H1298.49H1303.2V471.854H1305.41V469.927H1309.01V471.854H1313.72V480.114H1309.01V476.81H1305.41V480.94H1299.88V476.81H1287.98V480.114H1280.78V474.057H1277.18V476.26H1273.3V480.114H1266.66V483.418H1260.85V480.94H1256.97V488.099H1248.67V491.954H1251.44V496.91H1246.73V499.112H1241.47V496.91H1235.11V503.793H1231.78V499.112H1225.69V503.793H1218.77V500.764H1214.14H1208.81V503.793H1202.45V509.628H1196.82V500.764H1189.43V505.731H1185V502.268H1176.7V507.097H1170.61V512.879H1164.52V510.401H1158.15V503.793H1150.68V507.097H1141.27H1136.01V499.112H1132.13V503.793H1127.15V496.91H1123.27V489.476H1118.02V483.418H1120.78V474.057H1123.83V471.854H1132.13V474.057H1134.07V476.26H1143.76V480.94H1141.27V483.418H1145.97V480.114H1148.19V476.81H1152.34V474.057H1148.74V469.927H1151.79V464.971H1159.54V455.885H1164.52V451.479H1168.95V447.074H1176.15V442.669H1177.53H1180.61V447.625H1178.36V454.233H1175.59V459.464H1177.53V469.927H1180.3V466.898H1182.23V452.03H1186.66V449.552H1189.43V445.973H1193.03V440.191H1189.43V433.583H1185V430.554H1189.43V421.743H1199.95V428.902H1204.1V423.671H1208.81V426.149H1214.9V421.743H1220.99V428.902V433.583H1218.77V437.988H1225.69V442.669H1229.02V449.552H1225.69V445.973H1218.77V454.233H1220.99V464.971H1223.2V466.898H1225.69V464.971V460.565H1227.63V458.363H1239.26V455.609Z" fill="white"/>
<path d="M422.247 409.719H424.461V412.472H436.087V414.675H438.025V419.08V421.007H440.516V419.08H442.731V408.342H444.945V400.082H438.025V403.661H434.703V396.778H438.025V392.097H444.945V387.692H442.731V383.011V375.853H448.82V380.258H454.91V377.78H459.616V383.011H463.768V375.853H474.287V384.663H478.716V387.692H474.287V394.3H470.688V400.082H474.287V403.661H477.055V406.139H481.484V421.007H483.421V424.036H486.189V413.573H488.127V408.342H485.359V401.734H483.975V396.778H486.189H487.574V401.183H494.771V405.589H499.199V409.994H504.182V419.08H511.933V424.036H514.978V428.166H511.379V430.92H515.531V434.224H517.746V437.528H522.451V435.05H519.96V430.369H529.648V428.166H531.586V425.964H539.89V428.166H542.935V437.528H545.703V443.585H540.444V451.019H536.569V457.902H531.586V453.222H527.711V461.206H522.451H513.04V457.902H505.566V464.51H499.199V466.988H493.11V461.206H487.02V466.988H483.421V473.046H478.992V479.379H474.287V474.973H468.197V480.755H464.322V487.914H468.197V494.247H464.322V498.927H457.174V503.883H454.91V500.855H447.436V507.463H442.731V502.231H438.025V497.826H433.319V494.247H426.953V487.914H422.247V490.943H416.988V486.537H409.791V480.755H403.978V484.61H397.057V476.901H399.825V470.568H403.978V464.51H416.988H417.044H422.247V459.83H426.953V466.988H431.935V464.51H438.025V466.988H442.731V464.51H444.945L449.583 464.603V454.874H444.945V457.902H438.025V453.222H431.935V457.902H428.613V451.019H422.247V453.222H416.988V453.184H412.282V446.063L406.746 446.105V435.05H402.87V437.528H397.057V434.224H390.414V430.369H386.539V428.166H382.94V434.224H375.743V430.92H363.84V435.05H358.304V430.92H354.706V434.224H350V425.964H354.706V424.036H358.304V425.964H360.519V421.558H365.224H367.439V419.08H371.868V421.558H374.359V419.08H381.002V409.719H384.601V413.573H390.414V408.342H392.905V403.661H398.718V406.139H401.486V396.778H406.746V400.082H409.791V390.996H413.389V394.3H416.988V389.619H422.247V409.719Z" fill="#26733D"/>
<path d="M478.242 455.866H480.456V435.767H485.716V440.447H489.314V437.143H492.913V446.229H495.958V442.925H501.217V452.287H503.985V449.809H509.798V454.49H512.289V459.721H518.102V455.866H521.701V465.228H528.344V467.706H530.835V465.228H535.264V467.706H537.479H542.184V472.111H544.399V470.184H547.997V472.111H552.703V480.371H547.997V477.067H544.399V481.197H538.863V477.067H526.96V480.371H519.763V474.314H516.164V476.516H512.289V480.371H505.646V483.675H499.833V481.197H495.958V488.356H487.653V492.21H490.421V497.166H485.716V499.369H480.456V497.166H474.09V504.05H470.768V499.369H464.678V504.05H457.758V501.021H453.12H447.793V504.05H441.429V509.884H435.801V501.021H428.416V505.988H423.987V502.525H415.683V507.354H409.593V513.136H403.504V510.658H397.137V504.05H389.663V507.354H380.252H374.992V499.369H371.117V504.05H366.135V497.166H362.259V489.732H357V483.675H359.768V474.314H362.813V472.111H371.117V474.314H373.055V476.516H382.743V481.197H380.252V483.675H384.958V480.371H387.172V477.067H391.324V474.314H387.726V470.184H390.77V465.228H398.521V456.142H403.504V451.736H407.933V447.331H415.13V442.925H416.514H419.594V447.881H417.344V454.49H414.576V459.721H416.514V470.184H419.282V467.155H421.219V452.287H425.648V449.809H428.416V446.229H432.015V440.447H428.416V433.839H423.987V430.811H428.416V422H438.935V429.159H443.087V423.927H447.793V426.405H453.883V422H459.972V429.159V433.839H457.758V438.245H464.678V442.925H468V449.809H464.678V446.229H457.758V454.49H459.972V465.228H462.187V467.155H464.678V465.228V460.822H466.616V458.62H478.242V455.866Z" fill="white"/>
<path d="M113.25 491.884H111.036V471.785H105.777V476.465H102.178V473.161H98.5796V482.247H95.5347V478.943H90.2753V488.305H87.5073V485.827H81.6943V490.507H79.203V495.739H73.3901V491.884H69.7915V501.245H63.1482V503.723H60.6569V501.245H56.228V503.723H54.0135H49.3078V508.129H47.0933V506.201H43.4948V508.129H38.7891V516.389H43.4948V513.085H47.0933V517.215H52.6295V513.085H64.5322V516.389H71.7292V510.331H75.3277V512.534H79.203V516.389H85.8464V519.693H91.6594V517.215H95.5347V524.374H103.839V528.228H101.071V533.184H105.777V535.387H111.036V533.184H117.403V540.068H120.724V535.387H126.814V540.068H133.734V537.039H138.373H143.699V540.068H150.063V545.902H155.691V537.039H163.076V542.006H167.505V538.542H175.809V543.372H181.899V549.154H187.989V546.676H194.355V540.068H201.829V543.372H211.24H216.5V535.387H220.375V540.068H225.358V533.184H229.233V525.75H234.492V519.693H231.724V510.331H228.679V508.129H220.375V510.331H218.437V512.534H208.749V517.215H211.24V519.693H206.535V516.389H204.32V513.085H200.168V510.331H203.767V506.201H200.722V501.245H192.971V492.159H187.989V487.754H183.56V483.349H176.363V478.943H174.979H172.764V483.899H174.148V490.507H176.916V495.739H174.979V506.201H172.21V503.173H170.273V488.305H165.844V485.827H163.076V482.247H159.477V476.465H163.076V469.857H167.505V466.829H163.076V458.018H152.557V465.177H148.405V459.945H143.699V462.423H137.609V458.018H131.52V465.177V469.857H133.734V474.263H126.814V478.943H123.492V485.827H126.814V482.247H133.734V490.507H131.52V501.245H129.305V503.173H126.814V501.245V496.84H124.876V494.637H113.25V491.884Z" fill="white"/>
<path d="M0.0616035 4.83301H-6V114.797H-2.9692V108.736H3.95835V116.961H14.7826V113.065H21.2772V97.9126H26.0399V102.675H34.2664V108.736H42.0599V106.138H50.7193H64.1414V97.9126H72.3679V88.8211H78.8624V79.2966H87.0889V68.4734H78.8624V58.0832H46.8225V65.01H50.7193V68.4734H42.0599V65.01H39.462V58.0832H36.4312V54.6197H39.462V48.9917H34.2664V39.9002H21.2772V26.9123H14.7826V19.9855H7.42212V11.3269H0.0616035V4.83301Z" fill="#206234"/>
<path d="M1415.47 54.187H1404.64V101.376H1401.61V96.614H1397.28V65.4431H1390.36V61.9797H1385.16V65.4431H1379.96V70.2054H1373.9V90.12H1364.81V96.614H1360.48V110.035H1368.71V117.395H1378.23V125.187H1386.46V133.413H1395.12V128.651H1401.61V133.413H1408.54V140.773H1415.47V133.413H1422.83V136.01H1428.02V127.352H1434.09V133.413H1439.71V65.4431H1422.83V60.6809H1415.47V54.187Z" fill="#206234"/>
<path fill-rule="evenodd" clip-rule="evenodd" d="M493.397 6.99854H534.097V73.6694H611.166V83.1938H534.097V146.401H521.973V153.328H534.097V259.828H526.303V307.451H534.097V480.622H502.922V475.427H493.397V374.987H518.509V368.926H493.397V218.267H508.117V209.608H493.397V182.767H437.975V176.706H432.781V173.243V90.9866H442.307V173.243H463.088V176.706H470.881V173.243H493.397V118.694H515.042V107.438H493.397V66.7423H500.321V32.1081H493.397V6.99854Z" fill="white"/>
<path d="M360.469 22.1504H357.006V-9.45333H348.779V-2.09356H343.151V-7.28869H337.522V6.99793H332.759V1.8028H324.533V16.5224H320.203V12.626H311.111V19.9858H307.214V28.2114H298.121V22.1504H292.493V36.87H282.102V40.7663H278.205V36.87H271.277V40.7663H267.813H260.453V47.6932H256.989V44.6627H251.361V47.6932H244V60.681H251.361V55.4859H256.989V61.9798H265.649V55.4859H284.266V60.681H295.524V51.1566H301.152V54.62H307.214V60.681H317.605V65.8762H326.698V61.9798H332.759V73.2359H345.748V79.2969H341.419V87.0896H348.779V90.5531H357.006V87.0896H366.964V97.9128H372.16V90.5531H381.685V97.9128H392.509V93.1506H398.571V115.23H402.468V108.303H405.931V90.5531H411.56V117.828H408.096V121.724H398.571V133.846H396.406V136.876H392.509V108.303H389.046V112.199H381.685V108.303H372.16V112.199H364.366V100.943H357.006V108.303H348.779V112.199H341.419V108.303H328.429V117.828H321.935V127.785H317.605V139.907H328.429V133.846H337.522V142.937H348.779V149.864H357.006V145.102H364.366V155.059H374.324V160.687H381.685V167.614H389.046V175.84H396.406V165.45H408.096V170.212H415.024V162.419H422.817V155.059H428.879V145.102H422.817V133.846H428.879V124.754H438.404V131.681H445.765V121.724H452.692V112.199H458.321V103.108H467.846V112.199H477.372V108.303H487.33V97.9128H499.02V103.108H513.741H521.968V90.5531H528.029V97.9128H535.823V87.0896H541.885V75.4006H550.111V65.8762H545.781V51.1566H541.019V47.6932H528.029V51.1566H524.999V54.62H509.845V61.9798H513.741V65.8762H506.381V60.681H502.917V55.4859H496.423V51.1566H502.051V44.6627H497.288V36.87H485.165V22.5833H477.372V15.6565H470.444V8.72964H459.187V1.8028H457.022H453.558V9.5955H455.723V19.9858H460.053V28.2114H457.022V44.6627H452.692V39.9005H449.662V16.5224H442.734V12.626H438.404V-19.8436V-31.0997H389.046V-19.8436V-12.4838H392.509V-5.55698H381.685V1.8028H376.489V12.626H381.685V6.99793H392.509V19.9858H389.046V36.87H385.582V39.9005H381.685V36.87V29.9431H378.654V26.4797H360.469V22.1504Z" fill="#206234"/>
<path d="M614.191 34.2724H621.551V7.2144V-19.8436V-34.9961H463.517V-19.8436V-15.9473H458.321V-9.45333H467.846V-5.55698H463.517V1.8028H470.444V-2.09356H475.64V4.40036H481.268V1.8028H485.165V8.72964H491.66V0.936939H494.691V4.40036H499.02V8.72964H496.423V15.6565H499.02V19.9858H496.423V25.6138H502.917V31.6748H506.381V41.6322H513.741V36.87H518.071V43.3639H524.999V40.7663H531.06V36.87H535.823V43.3639H541.885V36.87H545.781V39.9005H552.276V36.87H556.173V43.3639H562.234V47.6932H558.77V54.62H566.564V51.1566H570.028V55.4859H575.223V50.2907H580.852V44.6627H588.212V50.2907H595.573V40.7663H599.47V43.3639H605.531V36.87H601.202V32.5407H608.129V25.6138H614.191V34.2724Z" fill="#206234"/>
<path d="M860.081 1.14651H863.545V-30.4572H871.772V-23.0975H877.4V-28.2926H883.029V-14.006H887.792V-19.2011H896.018V-4.48156H900.348V-8.37791H909.44V-1.01813H913.337V7.2075H922.429V1.14651H928.058V15.8661H938.449V19.7624H942.346V15.8661H949.274V19.7624H952.737H960.098V26.6893H963.562V23.6588H969.19V26.6893H976.551V39.6771H969.19V34.482H963.562V40.9759H954.902V34.482H936.284V39.6771H925.027V30.1527H919.399V33.6161H913.337V39.6771H902.946V44.8723H893.853V40.9759H887.792V52.232H874.802V58.293H879.132V66.0857H871.772V69.5492H863.545V66.0857H853.587V76.9089H848.391V69.5492H838.866V76.9089H828.041V72.1467H821.98V94.2261H818.083V87.2992H814.619V69.5492H808.991V96.8236H812.455V100.72H821.98V112.842H824.145V115.872H828.041V87.2992H831.505V91.1956H838.866V87.2992H848.391V91.1956H856.185V79.9394H863.545V87.2992H871.772V91.1956H879.132V87.2992H892.121V96.8236H898.616V106.781H902.946V118.903H892.121V112.842H883.029V121.933H871.772V128.86H863.545V124.098H856.185V134.055H846.226V139.684H838.866V146.61H831.505V154.836H824.145V144.446H812.455V149.208H805.527V141.415H797.733V134.055H791.672V124.098H797.733V112.842H791.672V103.75H782.146V110.677H774.786V100.72H767.858V91.1956H762.23V82.1041H752.704V91.1956H743.179V87.2992H733.221V76.9089H721.53V82.1041H706.809H698.583V69.5492H692.521V76.9089H684.728V66.0857H678.666V54.3967H670.44V44.8723H674.77V30.1527H679.532V26.6893H692.521V30.1527H695.552V33.6161H710.706V40.9759H706.809V44.8723H714.17V39.6771H717.634V34.482H724.128V30.1527H718.5V23.6588H723.262V15.8661H735.386V1.57944H743.179V-5.34741H750.107V-12.2743H761.364V-19.2011H763.529H766.992V-11.4084H764.828V-1.01813H760.498V7.2075H763.529V23.6588H767.858V18.8966H770.889V-4.48156H777.817V-8.37791H782.146V-40.8475V-52.1036H831.505V-40.8475V-33.4877H828.041V-26.5609H838.866V-19.2011H844.061V-8.37791H838.866V-14.006H828.041V-1.01813H831.505V15.8661H834.969V18.8966H838.866V15.8661V8.93922H841.897V5.47579H860.081V1.14651Z" fill="#206234"/>
<path d="M606.36 13.2685H598.999V-13.7895V-40.8475V-56H757.034V-40.8475V-36.9512H762.23V-30.4572H752.704V-26.5609H757.034V-19.2011H750.107V-23.0975H744.911V-16.6035H739.282V-19.2011H735.386V-12.2743H728.891V-20.067H725.86V-16.6035H721.53V-12.2743H724.128V-5.34741H721.53V-1.01813H724.128V4.60994H717.634V10.6709H714.17V20.6283H706.809V15.8661H702.48V22.36H695.552V19.7624H689.491V15.8661H684.728V22.36H678.666V15.8661H674.77V18.8966H668.275V15.8661H664.378V22.36H658.317V26.6893H661.78V33.6161H653.987V30.1527H650.523V34.482H645.327V29.2868H639.699V23.6588H632.338V29.2868H624.978V19.7624H621.081V22.36H615.019V15.8661H619.349V11.5368H612.422V4.60994H606.36V13.2685Z" fill="#206234"/>
<path d="M596.874 54.187H586.05V101.376H583.019V96.614H578.689V65.4431H571.762V61.9797H566.566V65.4431H561.37V70.2054H555.309V90.12H546.216V96.614H541.887V110.035H550.113V117.395H559.639V125.187H567.865V133.413H576.524V128.651H583.019V133.413H589.947V140.773H596.874V133.413H604.235V136.01H609.43V127.352H615.492V133.413H621.121V65.4431H604.235V60.6809H596.874V54.187Z" fill="#206234"/>
<path d="M617.247 54.187H628.071V101.376H631.102V96.614H635.432V65.4431H642.359V61.9797H647.555V65.4431H652.751V70.2054H658.812V90.12H667.905V96.614H672.234V110.035H664.008V117.395H654.483V125.187H646.256V133.413H637.597V128.651H631.102V133.413H624.175V140.773H617.247V133.413H609.886V136.01H604.691V127.352H598.629V133.413H593.001V65.4431H609.886V60.6809H617.247V54.187Z" fill="#206234"/>
<path d="M30.5614 -18.1123V-21.5757H275.19V-14.2159H266.964V-18.5452H262.201V-14.2159H256.14V6.13172H245.748V2.66829H241.852V6.13172H234.491V-0.362206H237.955V-3.82563H230.594V2.66829H224.1V-0.362206H220.203V7.4305H224.1V12.6256H216.306V10.0281H212.41V17.8208H216.306V25.6135H209.379V21.2842H202.884V28.211H195.091V24.3147H188.596V30.3757H182.534V24.3147H176.906V30.3757H170.411V35.5708H173.442V41.6318H167.813V39.0343H163.484V48.9916H157.855V40.766H148.33V48.9916H134.042V41.6318H124.083V35.5708H119.321V38.1684H113.692V35.5708H110.228V41.6318H102.868V35.5708H99.8369V38.1684H95.0742V35.5708H92.4764V41.6318H84.6829V35.5708H81.2191V38.1684H75.5905V31.6745H70.3948V22.583H60.0035V6.56464H53.5089V-0.795134H49.6122V-4.25856H39.2209V0.936579H31.8603V-6.85613H35.3241V-11.1854H27.0977V-18.1123H30.5614Z" fill="#206234"/>
<path d="M855.738 213.153H849.25V225.218H876.284V235.09H866.552V241.671H889.26V229.605H907.643V216.992H898.992H892.504V208.766H887.097V216.443H880.609V210.959H874.121V219.734H869.796V213.153H865.47V208.766H860.064V216.443H855.738V213.153Z" fill="#A80000"/>
<path d="M815.562 209.94V247.546V338.035H974.463V247.546V229.918H968.283V222.867H960.422V209.94H899.783V215.816H908.767V229.918H889.677V242.845H866.095V235.794H876.201V225.218H848.128V209.94H832.407H815.562Z" fill="black" stroke="black" stroke-width="2.97762"/>
<path d="M972.772 219.342V228.743H969.404V221.692H961.543V209.94H969.404V219.342H972.772Z" fill="#A80000"/>
<path d="M844.758 260.474V282.858V296.289H849V307.481H865.969V296.289H882.938V291.028H871.708V280.452H882.938V271.666H859.606V260.474H844.758Z" fill="white"/>
<path d="M943.578 307.481V285.097V271.666H939.336V260.474H922.367V271.666H905.398V276.926H916.628V287.503H905.398V296.289H928.73V307.481H943.578Z" fill="white"/>
<rect x="876.199" y="283.977" width="4.49177" height="4.70072" fill="#A80000"/>
<rect x="907.645" y="279.276" width="4.49177" height="4.70072" fill="#A80000"/>
<path d="M865.094 346.83V338.104H924.436V346.83H928.85V352.475H919.041V357.608H948.467V373.519H945.525V379.678H952.881V424.33H948.467V429.463H952.881V477.708H945.525V466.93H932.283V484.38H923.455V527.493H914.627V484.894H899.914V503.37H885.201V543.404H876.374V446.913H865.094V484.894H857.247V466.93H844.005V477.708H836.648V461.284V429.463H841.062V424.33H836.648V407.393V379.678H841.062H844.005V373.519H841.062V357.608H870.488V352.475H860.68V346.83H865.094Z" fill="black"/>
<path d="M865.094 446.913H868.53V517.741H865.094V446.913Z" fill="#A80000"/>
<path d="M910.708 484.893H914.632V530.059H910.708V490.539H902.371V484.893H910.708Z" fill="#A80000"/>
<path d="M936.211 512.609H932.287V466.93H936.211V506.963V512.609Z" fill="#A80000"/>
<path d="M794.27 511.588L793.351 507.396L726.281 527.33L729.012 539.776L737.574 537.232L736.683 533.17L742.569 531.421L777.352 521.083L776.432 516.89L787.848 513.497L794.27 511.588Z" fill="#122132" stroke="#122132" stroke-width="0.347358"/>
<path d="M791.463 498.789L710.086 522.975L710.986 527.08L717.246 525.219L718.205 529.589L793.322 507.263L791.463 498.789Z" fill="#182738" stroke="#182738" stroke-width="0.347358"/>
<rect width="2.37514" height="8.12382" transform="matrix(1.05422 -0.313328 0.18592 0.847562 781.453 506.136)" fill="#FF9315"/>
<rect width="5.42889" height="4.99927" transform="matrix(1.05422 -0.313328 0.18592 0.847562 778.879 497.875)" fill="#FF9315"/>
<rect width="2.37514" height="8.12382" transform="matrix(1.05422 -0.313328 0.18592 0.847562 775.73 507.837)" fill="#FF9315"/>
<rect width="2.37514" height="8.12382" transform="matrix(1.05422 -0.313328 0.18592 0.847562 787.176 504.435)" fill="#FF9315"/>
<path d="M713.24 570.771H710.062V563.931H726.319H751.694V570.771H745.836V597.328H739.397V570.771H719.478V597.328H713.24V570.771Z" fill="black" stroke="black" stroke-width="0.402402"/>
<path d="M706.551 518.617V511.594H755.706V518.41L706.551 518.617Z" fill="#26733D" stroke="#26733D" stroke-width="0.402402"/>
<path d="M710.062 531.156V518.617H751.694V531.156H710.062Z" fill="#206234" stroke="#206234" stroke-width="0.402402"/>
<path d="M706.551 518.617V511.594H755.706V518.617H706.551Z" fill="#26733D" stroke="#26733D" stroke-width="0.402402"/>
<path d="M710.062 563.759V531.156H751.694V563.759H710.062Z" fill="#26733D" stroke="#26733D" stroke-width="0.402402"/>
<path d="M760.022 465.95H701.871V479.833H690V485.868H772.295V479.833H760.022V465.95Z" fill="#26733D" stroke="#26733D" stroke-width="0.402402"/>
<path d="M704.891 486.07H757.206V511.621H704.891V486.07Z" fill="black"/>
<rect x="705.293" y="472.188" width="3.21938" height="3.62144" fill="#FF9315"/>
<rect x="754.387" y="467.761" width="3.21938" height="3.62144" fill="#FF9315"/>
<rect x="708.512" y="475.809" width="7.64603" height="3.62144" fill="#FF9315"/>
<path d="M713.074 597.365H719.714V609.638H713.074V597.365Z" fill="#26733D"/>
<path d="M739.156 597.365H745.997V609.638H739.156V597.365Z" fill="#26733D"/>
</g>
<defs>
<clipPath id="clip0_429_11562">
<rect width="1440" height="717" fill="white"/>
</clipPath>
</defs>
</svg>
