<svg width="1408" height="717" viewBox="0 0 1408 717" fill="none" xmlns="http://www.w3.org/2000/svg">
<rect x="1398.61" y="422.307" width="8.39351" height="8.39267" fill="white"/>
<rect x="917.602" y="26.8833" width="8.39351" height="8.39267" fill="white"/>
<rect x="1064.93" y="174.219" width="8.39351" height="8.39267" fill="white"/>
<rect x="1073" y="300" width="8.39351" height="8.39267" fill="white"/>
<rect x="725.848" y="153.635" width="8.39351" height="8.39267" fill="white"/>
<rect x="710.273" y="18.3677" width="8.39351" height="8.39267" fill="white"/>
<rect x="431.883" y="147.055" width="8.39351" height="8.39267" fill="white"/>
<rect y="332.389" width="8.39351" height="8.39267" fill="white"/>
<rect x="1095.27" y="609.727" width="8.39351" height="8.39267" fill="white"/>
<rect x="381.336" y="525.225" width="8.39351" height="8.39267" fill="white"/>
<rect x="855.75" y="610.051" width="8.39351" height="8.39267" fill="white"/>
<rect x="900.266" y="150.386" width="5.59567" height="5.59511" fill="white"/>
<rect x="995.598" y="403.89" width="5.59567" height="5.59511" fill="white"/>
<rect x="491.844" y="632.477" width="5.59567" height="5.59511" fill="white"/>
<rect x="526" y="238" width="5.59567" height="5.59511" fill="white"/>
<rect x="205.262" y="626.836" width="5.59567" height="5.59511" fill="white"/>
<rect x="298.988" y="60.3315" width="5.59567" height="5.59511" fill="white"/>
<rect x="87.7539" y="472.971" width="5.59567" height="5.59511" fill="white"/>
<rect x="19.5" y="586.976" width="5.59567" height="5.59511" fill="white"/>
<rect x="465.84" y="27.9663" width="5.59567" height="5.59511" fill="white"/>
<rect x="309" y="331" width="5.59567" height="5.59511" fill="white"/>
<rect x="1244.77" y="533.892" width="5.59567" height="5.59511" fill="white"/>
<rect x="1293.52" y="181.802" width="5.59567" height="5.59511" fill="white"/>
<rect x="1092" y="66" width="5.59567" height="5.59511" fill="white"/>
<rect x="93.3477" y="180.626" width="5.59567" height="5.59511" fill="white"/>
<rect x="19.5" y="79.9673" width="5.59567" height="5.59511" fill="white"/>
<rect x="1334.19" y="693.977" width="8.39351" height="8.39267" fill="white"/>
<rect x="240.504" y="426.64" width="8.39351" height="8.39267" fill="white"/>
<rect x="210.859" y="258.958" width="8.39351" height="8.39267" fill="white"/>
<rect x="577.426" y="142.802" width="8.39351" height="8.39267" fill="white"/>
<rect x="1214.43" y="359.472" width="8.39351" height="8.39267" fill="white"/>
<rect x="1227" y="101" width="7.74772" height="7.74694" fill="white"/>
</svg>
