<svg width="1440" height="1024" viewBox="0 0 1440 1024" fill="none" xmlns="http://www.w3.org/2000/svg">
<g clip-path="url(#clip0_419_4999)">
<rect width="1440" height="1024" fill="#111111"/>
<rect x="552.898" y="572.812" width="19.9597" height="9.3561" fill="white"/>
<rect x="443" y="572.812" width="26.7187" height="9.14062" fill="white"/>
<rect x="443" y="591.094" width="26.7187" height="9.14062" fill="white"/>
<rect x="469.719" y="581.953" width="9.14062" height="9.14062" fill="white"/>
<rect x="628.625" y="581.953" width="9.14062" height="9.14062" fill="white"/>
<rect x="775.578" y="593.203" width="9.14062" height="9.14062" fill="white"/>
<rect x="914.797" y="593.203" width="9.14062" height="9.14062" fill="white"/>
<rect x="971.047" y="612.891" width="9.14062" height="9.14062" fill="white"/>
<rect x="970.344" y="591.094" width="18.2812" height="9.14062" fill="white"/>
<rect x="988.625" y="581.953" width="9.14062" height="9.14062" fill="white"/>
<rect x="923.938" y="602.344" width="9.84375" height="9.14062" fill="white"/>
<rect x="905.656" y="584.062" width="9.14062" height="9.14062" fill="white"/>
<rect x="610.344" y="581.953" width="9.14062" height="9.14062" fill="white"/>
<rect x="637.766" y="572.812" width="9.14062" height="9.14062" fill="white"/>
<rect x="601.203" y="572.812" width="9.14062" height="9.14062" fill="white"/>
<rect x="504.172" y="612.891" width="19.9597" height="9.3561" fill="white"/>
<rect x="552.898" y="593.396" width="19.9597" height="9.04423" fill="white"/>
<rect x="543.547" y="622.088" width="39.9193" height="9.3561" transform="rotate(-90 543.547 622.088)" fill="white"/>
<rect x="497.141" y="622.031" width="49.2187" height="9.14062" transform="rotate(-90 497.141 622.031)" fill="white"/>
<rect x="443" y="622.031" width="49.2187" height="9.14062" transform="rotate(-90 443 622.031)" fill="white"/>
<rect x="572.867" y="622.088" width="39.9193" height="9.3561" transform="rotate(-90 572.867 622.088)" fill="white"/>
<rect x="709.695" y="572.812" width="19.9597" height="9.3561" fill="white"/>
<rect x="765.734" y="572.812" width="28.125" height="9.14062" fill="white"/>
<rect x="765.734" y="612.891" width="18.9844" height="9.14062" fill="white"/>
<rect x="709.695" y="593.396" width="19.9597" height="9.04423" fill="white"/>
<rect x="700.344" y="622.088" width="39.9193" height="9.3561" transform="rotate(-90 700.344 622.088)" fill="white"/>
<rect x="729.664" y="622.088" width="39.9193" height="9.3561" transform="rotate(-90 729.664 622.088)" fill="white"/>
<rect x="756.594" y="612.891" width="30.9375" height="9.14062" transform="rotate(-90 756.594 612.891)" fill="white"/>
<rect x="784.719" y="612.891" width="19.6875" height="9.14062" transform="rotate(-90 784.719 612.891)" fill="white"/>
<rect x="822.195" y="572.812" width="19.9597" height="9.3561" fill="white"/>
<rect x="960.5" y="572.812" width="28.125" height="9.14062" fill="white"/>
<rect x="822.195" y="593.396" width="19.9597" height="9.04423" fill="white"/>
<rect x="812.844" y="622.088" width="39.9193" height="9.3561" transform="rotate(-90 812.844 622.088)" fill="white"/>
<rect x="869.797" y="622.031" width="49.2187" height="9.14062" transform="rotate(-90 869.797 622.031)" fill="white"/>
<rect x="896.516" y="622.031" width="49.2187" height="9.14062" transform="rotate(-90 896.516 622.031)" fill="white"/>
<rect x="933.781" y="622.031" width="49.2187" height="9.14062" transform="rotate(-90 933.781 622.031)" fill="white"/>
<rect x="842.164" y="622.088" width="39.9193" height="9.3561" transform="rotate(-90 842.164 622.088)" fill="white"/>
<rect x="619.484" y="622.031" width="30.9375" height="9.14062" transform="rotate(-90 619.484 622.031)" fill="white"/>
<rect x="789.5" y="390" width="44.2969" height="21.0937" fill="white"/>
<rect x="789.5" y="481.406" width="44.2969" height="21.0937" fill="white"/>
<rect x="768.406" y="480" width="68.9062" height="21.0937" transform="rotate(-90 768.406 480)" fill="white"/>
<rect x="833.797" y="480" width="68.9062" height="21.0937" transform="rotate(-90 833.797 480)" fill="white"/>
<rect x="908.328" y="480" width="44.2969" height="21.0937" transform="rotate(-90 908.328 480)" fill="white"/>
<rect x="887.234" y="435.703" width="45.7031" height="21.0937" transform="rotate(-90 887.234 435.703)" fill="white"/>
<rect x="974.422" y="435.703" width="45.7031" height="21.0937" transform="rotate(-90 974.422 435.703)" fill="white"/>
<rect x="953.328" y="480" width="44.2969" height="21.0937" transform="rotate(-90 953.328 480)" fill="white"/>
<rect x="929.422" y="502.5" width="21.0937" height="23.9062" transform="rotate(-90 929.422 502.5)" fill="white"/>
<rect x="367.625" y="390" width="45" height="21.0937" fill="white"/>
<rect x="367.625" y="436.406" width="45" height="20.3906" fill="white"/>
<rect x="346.531" y="501.094" width="90" height="21.0937" transform="rotate(-90 346.531 501.094)" fill="white"/>
<rect x="412.625" y="501.094" width="90" height="21.0937" transform="rotate(-90 412.625 501.094)" fill="white"/>
<rect x="487.156" y="436.406" width="25.3125" height="23.9062" transform="rotate(-90 487.156 436.406)" fill="white"/>
<rect x="531.453" y="436.406" width="25.3125" height="23.9062" transform="rotate(-90 531.453 436.406)" fill="white"/>
<rect x="511.062" y="456.797" width="20.3906" height="20.3906" transform="rotate(-90 511.062 456.797)" fill="white"/>
<rect x="466.062" y="501.094" width="111.094" height="21.0937" transform="rotate(-90 466.062 501.094)" fill="white"/>
<rect x="555.359" y="501.094" width="111.094" height="21.0937" transform="rotate(-90 555.359 501.094)" fill="white"/>
<rect x="629.891" y="390" width="45" height="21.0937" fill="white"/>
<rect x="629.891" y="435.703" width="45" height="21.0937" fill="white"/>
<rect x="629.891" y="481.406" width="45" height="21.0937" fill="white"/>
<rect x="608.797" y="502.5" width="112.5" height="21.0937" transform="rotate(-90 608.797 502.5)" fill="white"/>
<rect x="1048.95" y="390" width="45" height="21.0937" fill="white"/>
<rect x="1048.95" y="435.703" width="45" height="21.0937" fill="white"/>
<rect x="1048.95" y="481.406" width="45" height="21.0937" fill="white"/>
<rect x="1027.86" y="502.5" width="112.5" height="21.0937" transform="rotate(-90 1027.86 502.5)" fill="white"/>
<rect x="1192.39" y="432.188" width="21.0937" height="21.0937" transform="rotate(-90 1192.39 432.188)" fill="white"/>
<rect x="1192.39" y="502.5" width="21.0937" height="21.0937" transform="rotate(-90 1192.39 502.5)" fill="white"/>
<rect x="1171.3" y="481.406" width="28.125" height="21.0937" transform="rotate(-90 1171.3 481.406)" fill="white"/>
<rect x="1147.39" y="390" width="45" height="21.0937" fill="white"/>
<rect x="1147.39" y="432.188" width="45" height="21.0937" fill="white"/>
<rect x="1126.3" y="502.5" width="112.5" height="21.0937" transform="rotate(-90 1126.3 502.5)" fill="white"/>
<rect x="248.094" y="390" width="66.0937" height="21.0937" fill="white"/>
<rect x="227" y="480" width="68.9062" height="21.0937" transform="rotate(-90 227 480)" fill="white"/>
<rect x="293.094" y="480" width="43.5937" height="21.0937" transform="rotate(-90 293.094 480)" fill="white"/>
<rect x="272" y="456.797" width="20.3906" height="21.0937" transform="rotate(-90 272 456.797)" fill="white"/>
<rect x="248.094" y="480" width="45" height="21.0937" fill="white"/>
<path d="M112.391 982.157V872.652H121.855V894.959H145.516V916.589H167.149V959.175H232.723V937.766H253.004V982.157H232.723V1071.38H211.09V982.157H144.164V1071.38H123.207V982.157H112.391Z" fill="black" stroke="black" stroke-width="1.35198"/>
<path d="M430.798 915.687V894.284H177.289V957.824H209.652V937.09H231.901H363.374V915.687H406.524H430.798Z" fill="#122132" stroke="#122132" stroke-width="1.35198"/>
<path d="M430.802 850.346H123.211V871.301H146.872V893.607H430.802V850.346Z" fill="#182738" stroke="#182738" stroke-width="1.35198"/>
<path d="M98.8672 806.409V783.426H196.215V805.733L98.8672 806.409Z" fill="#26733D" stroke="#26733D" stroke-width="1.35198"/>
<path d="M112.391 849.671V807.085H253.004V848.398L112.391 849.671Z" fill="#206234" stroke="#206234" stroke-width="1.35198"/>
<path d="M112.391 871.976V849.67H122.531V871.976H146.192V894.283H175.937V915.914H146.192V894.283H122.531V871.976H112.391Z" fill="#26733D"/>
<path d="M122.531 871.976H112.391V849.67H122.531V871.976ZM122.531 871.976V894.283H146.192M122.531 871.976H146.192V894.283M146.192 894.283V915.914H175.937V894.283H146.192Z" stroke="#26733D" stroke-width="1.35198"/>
<path d="M231.375 806.409V783.426H262.472V805.733L231.375 806.409Z" fill="#26733D" stroke="#26733D" stroke-width="1.35198"/>
<path d="M278.694 629.984H83.3229V676.625H43.4375V696.904H319.931V676.625H278.694V629.984Z" fill="#26733D" stroke="#26733D" stroke-width="1.35198"/>
<path d="M93.4531 697.58H269.219V783.426H93.4531V697.58Z" fill="black"/>
<rect x="213.781" y="783.426" width="17.5766" height="22.9825" fill="black"/>
<rect x="196.219" y="783.426" width="17.5766" height="22.9825" fill="black"/>
<rect x="246.242" y="723.942" width="18.9287" height="32.4459" fill="#FAFF15"/>
<rect x="186.75" y="723.942" width="18.9287" height="32.4459" fill="#FAFF15"/>
<rect x="94.7969" y="650.939" width="10.8164" height="12.1672" fill="#FF9315"/>
<rect x="259.758" y="636.068" width="10.8164" height="12.1672" fill="#FF9315"/>
<rect x="105.648" y="663.106" width="25.6889" height="12.1672" fill="#FF9315"/>
<rect x="389.555" y="871.301" width="9.46433" height="35.1497" fill="#FF9315"/>
<rect x="386.859" y="828.04" width="21.6328" height="21.6306" fill="#FF9315"/>
<rect x="367.922" y="871.301" width="9.46433" height="35.1497" fill="#FF9315"/>
<rect x="411.203" y="871.301" width="9.46433" height="35.1497" fill="#FF9315"/>
<path d="M176.616 916.59H167.828V958.5H176.616V916.59Z" fill="white"/>
<path d="M232.047 937.777L210.414 937.748V958.499H232.047V937.777Z" fill="white"/>
<rect x="43.5391" y="162.165" width="9.8394" height="9.83841" fill="white"/>
<rect x="1028.67" y="134.297" width="9.8394" height="9.83841" fill="white"/>
<rect x="1089.14" y="609.609" width="9.8394" height="9.83841" fill="white"/>
<rect x="1089.14" y="936.562" width="9.8394" height="9.83841" fill="white"/>
<rect x="729.141" y="129.375" width="9.8394" height="9.83841" fill="white"/>
<rect x="1098.98" y="260.859" width="9.8394" height="9.83841" fill="white"/>
<rect x="942.188" y="741.094" width="9.8394" height="9.83841" fill="white"/>
<rect x="546.992" y="827.896" width="9.8394" height="9.83841" fill="white"/>
<rect x="422.359" y="724.594" width="9.8394" height="9.83841" fill="white"/>
<rect x="1193.2" y="761.484" width="9.8394" height="9.83841" fill="white"/>
<rect x="848.734" y="299.902" width="6.5596" height="6.55894" fill="white"/>
<rect x="702.781" y="734.432" width="6.5596" height="6.55894" fill="white"/>
<rect x="733.945" y="982.032" width="6.5596" height="6.55894" fill="white"/>
<rect x="249.609" y="78.0469" width="6.5596" height="6.55894" fill="white"/>
<rect x="102.656" y="319.922" width="6.5596" height="6.55894" fill="white"/>
<rect x="1312.73" y="203.906" width="6.5596" height="6.55894" fill="white"/>
<rect x="227.211" y="253.989" width="6.5596" height="6.55894" fill="white"/>
<rect x="428.906" y="172.266" width="6.5596" height="6.55894" fill="white"/>
<rect x="317.398" y="527.825" width="6.5596" height="6.55894" fill="white"/>
<rect x="808.594" y="847.266" width="6.5596" height="6.55894" fill="white"/>
<rect x="1412.86" y="837.735" width="6.5596" height="6.55894" fill="white"/>
<rect x="702.781" y="581.937" width="9.8394" height="9.83841" fill="white"/>
<rect x="123.898" y="486.832" width="9.8394" height="9.83841" fill="white"/>
<rect x="604.688" y="226.406" width="9.8394" height="9.83841" fill="white"/>
<rect x="1319.38" y="517.987" width="9.8394" height="9.83841" fill="white"/>
<rect x="43.5938" y="960.469" width="9.8394" height="9.83841" fill="white"/>
</g>
<defs>
<clipPath id="clip0_419_4999">
<rect width="1440" height="1024" fill="white"/>
</clipPath>
</defs>
</svg>
