<svg width="1024" height="1024" viewBox="0 0 1024 1024" fill="none" xmlns="http://www.w3.org/2000/svg">
<g clip-path="url(#clip0_426_10753)">
<rect width="1024" height="1024" fill="#111111"/>
<rect x="2.13281" y="144.001" width="7.87209" height="7.8713" fill="white"/>
<rect x="729" y="205" width="7.87209" height="7.8713" fill="white"/>
<rect x="744" y="416" width="7.87209" height="7.8713" fill="white"/>
<rect x="808.711" y="824.501" width="7.87209" height="7.8713" fill="white"/>
<rect x="496" y="128" width="7.87209" height="7.8713" fill="white"/>
<rect x="858" y="320" width="7.87209" height="7.8713" fill="white"/>
<rect x="691.133" y="668.114" width="7.87209" height="7.8713" fill="white"/>
<rect x="266.953" y="828.051" width="7.87209" height="7.8713" fill="white"/>
<rect x="275.242" y="654.914" width="7.87209" height="7.8713" fill="white"/>
<rect x="891.961" y="684.428" width="7.87209" height="7.8713" fill="white"/>
<rect x="891.961" y="684.428" width="7.87209" height="7.8713" fill="white"/>
<rect x="616.375" y="315.136" width="5.24806" height="5.24753" fill="white"/>
<rect x="414.164" y="726.444" width="5.24806" height="5.24753" fill="white"/>
<rect x="524.531" y="860.879" width="5.24806" height="5.24753" fill="white"/>
<rect x="124.547" y="199.206" width="5.24806" height="5.24753" fill="white"/>
<rect x="134.953" y="358.417" width="5.24806" height="5.24753" fill="white"/>
<rect x="987.594" y="238.333" width="5.24806" height="5.24753" fill="white"/>
<rect x="116.547" y="548.831" width="5.24806" height="5.24753" fill="white"/>
<rect x="280.492" y="213.019" width="5.24806" height="5.24753" fill="white"/>
<rect x="562.18" y="742.445" width="5.24806" height="5.24753" fill="white"/>
<rect x="20.5312" y="445.623" width="7.87209" height="7.8713" fill="white"/>
<rect x="421.117" y="256.335" width="7.87209" height="7.8713" fill="white"/>
<rect x="992.922" y="489.616" width="7.87209" height="7.8713" fill="white"/>
<rect x="315.422" y="100.916" width="7.87209" height="7.8713" transform="rotate(-180 315.422 100.916)" fill="white"/>
<rect x="951.203" y="84.3518" width="5.24806" height="5.24753" transform="rotate(-180 951.203 84.3518)" fill="white"/>
<rect x="88.1562" y="45.2241" width="5.24806" height="5.24753" transform="rotate(-180 88.1562 45.2241)" fill="white"/>
<rect x="795.258" y="70.5383" width="5.24806" height="5.24753" transform="rotate(-180 795.258 70.5383)" fill="white"/>
<rect x="625.875" y="64.8713" width="7.87209" height="7.8713" transform="rotate(-180 625.875 64.8713)" fill="white"/>
<rect x="644.039" y="918.056" width="7.87209" height="7.8713" transform="rotate(-180 644.039 918.056)" fill="white"/>
<rect x="721.875" y="972.871" width="7.87209" height="7.8713" transform="rotate(-180 721.875 972.871)" fill="white"/>
<rect x="928.219" y="881.678" width="5.24806" height="5.24753" transform="rotate(-180 928.219 881.678)" fill="white"/>
<rect x="890.57" y="1000.11" width="5.24806" height="5.24753" transform="rotate(-180 890.57 1000.11)" fill="white"/>
<rect x="385.047" y="997.124" width="5.24806" height="5.24753" transform="rotate(-180 385.047 997.124)" fill="white"/>
<rect x="362.742" y="869.871" width="7.87209" height="7.8713" transform="rotate(-180 362.742 869.871)" fill="white"/>
<path d="M102.641 975.103V888.318H110.141V905.997H128.893V923.139H146.037V956.889H198.006V939.922H214.079V975.103H198.006V1045.82H180.862V975.103H127.821V1045.82H111.213V975.103H102.641Z" fill="black" stroke="black" stroke-width="1.07147"/>
<path d="M354.988 922.424V905.462H154.078V955.818H179.726V939.386H197.359H301.554V922.424H335.751H354.988Z" fill="#122132" stroke="#122132" stroke-width="1.07147"/>
<path d="M355.005 870.64H111.234V887.247H129.986V904.925H355.005V870.64Z" fill="#182738" stroke="#182738" stroke-width="1.07147"/>
<path d="M91.9297 835.819V817.605H169.079V835.284L91.9297 835.819Z" fill="#26733D" stroke="#26733D" stroke-width="1.07147"/>
<path d="M102.641 870.105V836.356H214.079V869.097L102.641 870.105Z" fill="#206234" stroke="#206234" stroke-width="1.07147"/>
<path d="M102.641 887.783V870.104H110.677V887.783H129.429V905.461H153.002V922.604H129.429V905.461H110.677V887.783H102.641Z" fill="#26733D"/>
<path d="M110.677 887.783H102.641V870.104H110.677V887.783ZM110.677 887.783V905.461H129.429M110.677 887.783H129.429V905.461M129.429 905.461V922.604H153.002V905.461H129.429Z" stroke="#26733D" stroke-width="1.07147"/>
<path d="M196.945 835.819V817.605H221.59V835.284L196.945 835.819Z" fill="#26733D" stroke="#26733D" stroke-width="1.07147"/>
<path d="M234.445 696H79.6099V732.964H48V749.035H267.126V732.964H234.445V696Z" fill="#26733D" stroke="#26733D" stroke-width="1.07147"/>
<path d="M87.6406 749.57H226.938V817.605H87.6406V749.57Z" fill="black"/>
<rect x="183" y="817.605" width="13.9298" height="18.214" fill="black"/>
<rect x="169.086" y="817.605" width="13.9298" height="18.214" fill="black"/>
<rect x="208.727" y="770.463" width="15.0013" height="25.7139" fill="#FAFF15"/>
<rect x="161.594" y="770.463" width="15.0013" height="25.7139" fill="#FAFF15"/>
<rect x="88.7031" y="712.607" width="8.57217" height="9.64272" fill="#FF9315"/>
<rect x="219.445" y="700.822" width="8.57217" height="9.64272" fill="#FF9315"/>
<rect x="97.2969" y="722.25" width="20.3589" height="9.64272" fill="#FF9315"/>
<rect x="322.312" y="887.247" width="7.50065" height="27.8568" fill="#FF9315"/>
<rect x="320.172" y="852.962" width="17.1443" height="17.1426" fill="#FF9315"/>
<rect x="305.164" y="887.247" width="7.50065" height="27.8568" fill="#FF9315"/>
<rect x="339.461" y="887.247" width="7.50065" height="27.8568" fill="#FF9315"/>
<path d="M153.543 923.14H146.578V956.354H153.543V923.14Z" fill="white"/>
<path d="M197.48 939.931L180.336 939.908V956.353H197.48V939.931Z" fill="white"/>
<rect x="403.492" y="506.072" width="12.8912" height="6.04277" fill="white"/>
<rect x="332.508" y="506.072" width="17.2567" height="5.9036" fill="white"/>
<rect x="332.508" y="517.88" width="17.2567" height="5.9036" fill="white"/>
<rect x="349.766" y="511.976" width="5.9036" height="5.9036" fill="white"/>
<rect x="452.398" y="511.976" width="5.9036" height="5.9036" fill="white"/>
<rect x="547.305" y="519.242" width="5.9036" height="5.9036" fill="white"/>
<rect x="637.219" y="519.242" width="5.9036" height="5.9036" fill="white"/>
<rect x="673.555" y="531.957" width="5.9036" height="5.9036" fill="white"/>
<rect x="673.102" y="517.88" width="11.8072" height="5.9036" fill="white"/>
<rect x="684.906" y="511.976" width="5.9036" height="5.9036" fill="white"/>
<rect x="643.133" y="525.146" width="6.35773" height="5.9036" fill="white"/>
<rect x="631.32" y="513.338" width="5.9036" height="5.9036" fill="white"/>
<rect x="440.594" y="511.976" width="5.9036" height="5.9036" fill="white"/>
<rect x="458.297" y="506.072" width="5.9036" height="5.9036" fill="white"/>
<rect x="434.688" y="506.072" width="5.9036" height="5.9036" fill="white"/>
<rect x="372.016" y="531.957" width="12.8912" height="6.04277" fill="white"/>
<rect x="403.492" y="519.366" width="12.8912" height="5.84135" fill="white"/>
<rect x="397.445" y="537.897" width="25.7825" height="6.04277" transform="rotate(-90 397.445 537.897)" fill="white"/>
<rect x="367.469" y="537.861" width="31.7886" height="5.9036" transform="rotate(-90 367.469 537.861)" fill="white"/>
<rect x="332.508" y="537.861" width="31.7886" height="5.9036" transform="rotate(-90 332.508 537.861)" fill="white"/>
<rect x="416.383" y="537.897" width="25.7825" height="6.04277" transform="rotate(-90 416.383 537.897)" fill="white"/>
<rect x="504.758" y="506.072" width="12.8912" height="6.04277" fill="white"/>
<rect x="540.945" y="506.072" width="18.1649" height="5.9036" fill="white"/>
<rect x="540.945" y="531.957" width="12.2613" height="5.9036" fill="white"/>
<rect x="504.758" y="519.366" width="12.8912" height="5.84135" fill="white"/>
<rect x="498.719" y="537.897" width="25.7825" height="6.04277" transform="rotate(-90 498.719 537.897)" fill="white"/>
<rect x="517.648" y="537.897" width="25.7825" height="6.04277" transform="rotate(-90 517.648 537.897)" fill="white"/>
<rect x="535.047" y="531.957" width="19.9814" height="5.9036" transform="rotate(-90 535.047 531.957)" fill="white"/>
<rect x="553.211" y="531.957" width="12.7155" height="5.9036" transform="rotate(-90 553.211 531.957)" fill="white"/>
<rect x="577.414" y="506.072" width="12.8912" height="6.04277" fill="white"/>
<rect x="666.742" y="506.072" width="18.1649" height="5.9036" fill="white"/>
<rect x="577.414" y="519.366" width="12.8912" height="5.84135" fill="white"/>
<rect x="571.383" y="537.897" width="25.7825" height="6.04277" transform="rotate(-90 571.383 537.897)" fill="white"/>
<rect x="608.156" y="537.861" width="31.7886" height="5.9036" transform="rotate(-90 608.156 537.861)" fill="white"/>
<rect x="625.422" y="537.861" width="31.7886" height="5.9036" transform="rotate(-90 625.422 537.861)" fill="white"/>
<rect x="649.484" y="537.861" width="31.7886" height="5.9036" transform="rotate(-90 649.484 537.861)" fill="white"/>
<rect x="590.312" y="537.897" width="25.7825" height="6.04277" transform="rotate(-90 590.312 537.897)" fill="white"/>
<rect x="446.492" y="537.861" width="19.9814" height="5.9036" transform="rotate(-90 446.492 537.861)" fill="white"/>
<rect x="556.297" y="388" width="28.6098" height="13.6237" fill="white"/>
<rect x="556.297" y="447.036" width="28.6098" height="13.6237" fill="white"/>
<rect x="542.672" y="446.128" width="44.5041" height="13.6237" transform="rotate(-90 542.672 446.128)" fill="white"/>
<rect x="584.906" y="446.128" width="44.5041" height="13.6237" transform="rotate(-90 584.906 446.128)" fill="white"/>
<rect x="633.047" y="446.128" width="28.6098" height="13.6237" transform="rotate(-90 633.047 446.128)" fill="white"/>
<rect x="619.422" y="417.518" width="29.518" height="13.6237" transform="rotate(-90 619.422 417.518)" fill="white"/>
<rect x="675.734" y="417.518" width="29.518" height="13.6237" transform="rotate(-90 675.734 417.518)" fill="white"/>
<rect x="662.109" y="446.128" width="28.6098" height="13.6237" transform="rotate(-90 662.109 446.128)" fill="white"/>
<rect x="646.672" y="460.66" width="13.6237" height="15.4402" transform="rotate(-90 646.672 460.66)" fill="white"/>
<rect x="283.82" y="388" width="29.0639" height="13.6237" fill="white"/>
<rect x="283.82" y="417.972" width="29.0639" height="13.1696" fill="white"/>
<rect x="270.195" y="459.751" width="58.1278" height="13.6237" transform="rotate(-90 270.195 459.751)" fill="white"/>
<rect x="312.883" y="459.751" width="58.1278" height="13.6237" transform="rotate(-90 312.883 459.751)" fill="white"/>
<rect x="361.023" y="417.972" width="16.3484" height="15.4402" transform="rotate(-90 361.023 417.972)" fill="white"/>
<rect x="389.633" y="417.972" width="16.3484" height="15.4402" transform="rotate(-90 389.633 417.972)" fill="white"/>
<rect x="376.461" y="431.142" width="13.1696" height="13.1696" transform="rotate(-90 376.461 431.142)" fill="white"/>
<rect x="347.398" y="459.751" width="71.7515" height="13.6237" transform="rotate(-90 347.398 459.751)" fill="white"/>
<rect x="405.07" y="459.751" width="71.7515" height="13.6237" transform="rotate(-90 405.07 459.751)" fill="white"/>
<rect x="453.203" y="388" width="29.0639" height="13.6237" fill="white"/>
<rect x="453.203" y="417.518" width="29.0639" height="13.6237" fill="white"/>
<rect x="453.203" y="447.036" width="29.0639" height="13.6237" fill="white"/>
<rect x="439.578" y="460.66" width="72.6598" height="13.6237" transform="rotate(-90 439.578 460.66)" fill="white"/>
<rect x="723.867" y="388" width="29.0639" height="13.6237" fill="white"/>
<rect x="723.867" y="417.518" width="29.0639" height="13.6237" fill="white"/>
<rect x="723.867" y="447.036" width="29.0639" height="13.6237" fill="white"/>
<rect x="710.242" y="460.66" width="72.6598" height="13.6237" transform="rotate(-90 710.242 460.66)" fill="white"/>
<rect x="816.508" y="415.247" width="13.6237" height="13.6237" transform="rotate(-90 816.508 415.247)" fill="white"/>
<rect x="816.508" y="460.66" width="13.6237" height="13.6237" transform="rotate(-90 816.508 460.66)" fill="white"/>
<rect x="802.883" y="447.036" width="18.1649" height="13.6237" transform="rotate(-90 802.883 447.036)" fill="white"/>
<rect x="787.445" y="388" width="29.0639" height="13.6237" fill="white"/>
<rect x="787.445" y="415.247" width="29.0639" height="13.6237" fill="white"/>
<rect x="773.82" y="460.66" width="72.6598" height="13.6237" transform="rotate(-90 773.82 460.66)" fill="white"/>
<rect x="206.625" y="388" width="42.6876" height="13.6237" fill="white"/>
<rect x="193" y="446.128" width="44.5041" height="13.6237" transform="rotate(-90 193 446.128)" fill="white"/>
<rect x="235.688" y="446.128" width="28.1557" height="13.6237" transform="rotate(-90 235.688 446.128)" fill="white"/>
<rect x="222.062" y="431.142" width="13.1696" height="13.6237" transform="rotate(-90 222.062 431.142)" fill="white"/>
<rect x="206.625" y="446.128" width="29.0639" height="13.6237" fill="white"/>
</g>
<defs>
<clipPath id="clip0_426_10753">
<rect width="1024" height="1024" fill="white"/>
</clipPath>
</defs>
</svg>
