<svg width="2560" height="1024" viewBox="0 0 2560 1024" fill="none" xmlns="http://www.w3.org/2000/svg">
<g clip-path="url(#clip0_421_8290)">
<rect width="2560" height="1024" fill="#111111"/>
<rect x="641.414" y="52" width="9.8394" height="9.83841" fill="white"/>
<rect x="2006.07" y="621.725" width="9.8394" height="9.83841" fill="white"/>
<rect x="1589.09" y="100.297" width="9.8394" height="9.83841" fill="white"/>
<rect x="1773" y="548" width="9.8394" height="9.83841" fill="white"/>
<rect x="1649.55" y="902.562" width="9.8394" height="9.83841" fill="white"/>
<rect x="1289.55" y="95.375" width="9.8394" height="9.83841" fill="white"/>
<rect x="1659.4" y="226.859" width="9.8394" height="9.83841" fill="white"/>
<rect x="1630" y="380" width="9.8394" height="9.83841" fill="white"/>
<rect x="1502.6" y="707.094" width="9.8394" height="9.83841" fill="white"/>
<rect x="972.414" y="907" width="9.8394" height="9.83841" fill="white"/>
<rect x="982.773" y="690.594" width="9.8394" height="9.83841" fill="white"/>
<rect x="1753.62" y="727.484" width="9.8394" height="9.83841" fill="white"/>
<rect x="1409.15" y="265.902" width="6.5596" height="6.55894" fill="white"/>
<rect x="1156.41" y="780" width="6.5596" height="6.55894" fill="white"/>
<rect x="1294.36" y="948.031" width="6.5596" height="6.55894" fill="white"/>
<rect x="794.414" y="121" width="6.5596" height="6.55894" fill="white"/>
<rect x="807.414" y="320" width="6.5596" height="6.55894" fill="white"/>
<rect x="1873.15" y="169.906" width="6.5596" height="6.55894" fill="white"/>
<rect x="784.414" y="558" width="6.5596" height="6.55894" fill="white"/>
<rect x="989.32" y="138.266" width="6.5596" height="6.55894" fill="white"/>
<rect x="984.414" y="453" width="6.5596" height="6.55894" fill="white"/>
<rect x="1341.41" y="800" width="6.5596" height="6.55894" fill="white"/>
<rect x="1973.27" y="803.735" width="6.5596" height="6.55894" fill="white"/>
<rect x="2012.62" y="454.472" width="6.5596" height="6.55894" fill="white"/>
<rect x="546.562" y="361.007" width="6.5596" height="6.55894" fill="white"/>
<rect x="2001.16" y="962.789" width="9.8394" height="9.83841" fill="white"/>
<rect x="2010.99" y="85.5312" width="9.8394" height="9.83841" fill="white"/>
<rect x="664.414" y="429" width="9.8394" height="9.83841" fill="white"/>
<rect x="1165.1" y="192.406" width="9.8394" height="9.83841" fill="white"/>
<rect x="1863" y="406" width="9.8394" height="9.83841" fill="white"/>
<rect x="2372" y="816" width="9.8394" height="9.83841" fill="white"/>
<rect x="1659.4" y="226.859" width="9.8394" height="9.83841" fill="white"/>
<rect x="381.07" y="621.725" width="9.8394" height="9.83841" fill="white"/>
<rect x="148" y="548" width="9.8394" height="9.83841" fill="white"/>
<rect x="24.5547" y="902.562" width="9.8394" height="9.83841" fill="white"/>
<rect x="34.3984" y="226.859" width="9.8394" height="9.83841" fill="white"/>
<rect x="5" y="380" width="9.8394" height="9.83841" fill="white"/>
<rect x="128.617" y="727.484" width="9.8394" height="9.83841" fill="white"/>
<rect x="248.148" y="169.906" width="6.5596" height="6.55894" fill="white"/>
<rect x="348.273" y="803.735" width="6.5596" height="6.55894" fill="white"/>
<rect x="387.625" y="454.472" width="6.5596" height="6.55894" fill="white"/>
<rect x="376.156" y="962.789" width="9.8394" height="9.83841" fill="white"/>
<rect x="385.992" y="85.5312" width="9.8394" height="9.83841" fill="white"/>
<rect x="238" y="406" width="9.8394" height="9.83841" fill="white"/>
<rect x="34.3984" y="226.859" width="9.8394" height="9.83841" fill="white"/>
<rect x="2262.41" y="52" width="9.8394" height="9.83841" fill="white"/>
<rect x="2415.41" y="121" width="6.5596" height="6.55894" fill="white"/>
<rect x="2428.41" y="320" width="6.5596" height="6.55894" fill="white"/>
<rect x="2405.41" y="558" width="6.5596" height="6.55894" fill="white"/>
<rect x="2161" y="703.711" width="6.5596" height="6.55894" fill="white"/>
<rect x="2167.56" y="361.007" width="6.5596" height="6.55894" fill="white"/>
<rect x="2285.41" y="429" width="9.8394" height="9.83841" fill="white"/>
<rect x="2225.01" y="926.469" width="9.8394" height="9.83841" fill="white"/>
<rect x="1112.9" y="573.812" width="19.9597" height="9.3561" fill="white"/>
<rect x="1003" y="573.812" width="26.7187" height="9.14062" fill="white"/>
<rect x="1003" y="592.094" width="26.7187" height="9.14062" fill="white"/>
<rect x="1029.72" y="582.953" width="9.14062" height="9.14062" fill="white"/>
<rect x="1188.62" y="582.953" width="9.14062" height="9.14062" fill="white"/>
<rect x="1335.58" y="594.203" width="9.14062" height="9.14062" fill="white"/>
<rect x="1474.8" y="594.203" width="9.14062" height="9.14062" fill="white"/>
<rect x="1531.05" y="613.891" width="9.14062" height="9.14062" fill="white"/>
<rect x="1530.34" y="592.094" width="18.2812" height="9.14062" fill="white"/>
<rect x="1548.62" y="582.953" width="9.14062" height="9.14062" fill="white"/>
<rect x="1483.94" y="603.344" width="9.84375" height="9.14062" fill="white"/>
<rect x="1465.66" y="585.062" width="9.14062" height="9.14062" fill="white"/>
<rect x="1170.34" y="582.953" width="9.14062" height="9.14062" fill="white"/>
<rect x="1197.77" y="573.812" width="9.14062" height="9.14062" fill="white"/>
<rect x="1161.2" y="573.812" width="9.14062" height="9.14062" fill="white"/>
<rect x="1064.17" y="613.891" width="19.9597" height="9.3561" fill="white"/>
<rect x="1112.9" y="594.396" width="19.9597" height="9.04423" fill="white"/>
<rect x="1103.55" y="623.088" width="39.9193" height="9.3561" transform="rotate(-90 1103.55 623.088)" fill="white"/>
<rect x="1057.14" y="623.031" width="49.2187" height="9.14062" transform="rotate(-90 1057.14 623.031)" fill="white"/>
<rect x="1003" y="623.031" width="49.2187" height="9.14062" transform="rotate(-90 1003 623.031)" fill="white"/>
<rect x="1132.87" y="623.088" width="39.9193" height="9.3561" transform="rotate(-90 1132.87 623.088)" fill="white"/>
<rect x="1269.7" y="573.812" width="19.9597" height="9.3561" fill="white"/>
<rect x="1325.73" y="573.812" width="28.125" height="9.14062" fill="white"/>
<rect x="1325.73" y="613.891" width="18.9844" height="9.14062" fill="white"/>
<rect x="1269.7" y="594.396" width="19.9597" height="9.04423" fill="white"/>
<rect x="1260.34" y="623.088" width="39.9193" height="9.3561" transform="rotate(-90 1260.34 623.088)" fill="white"/>
<rect x="1289.66" y="623.088" width="39.9193" height="9.3561" transform="rotate(-90 1289.66 623.088)" fill="white"/>
<rect x="1316.59" y="613.891" width="30.9375" height="9.14062" transform="rotate(-90 1316.59 613.891)" fill="white"/>
<rect x="1344.72" y="613.891" width="19.6875" height="9.14062" transform="rotate(-90 1344.72 613.891)" fill="white"/>
<rect x="1382.2" y="573.812" width="19.9597" height="9.3561" fill="white"/>
<rect x="1520.5" y="573.812" width="28.125" height="9.14062" fill="white"/>
<rect x="1382.2" y="594.396" width="19.9597" height="9.04423" fill="white"/>
<rect x="1372.84" y="623.088" width="39.9193" height="9.3561" transform="rotate(-90 1372.84 623.088)" fill="white"/>
<rect x="1429.8" y="623.031" width="49.2187" height="9.14062" transform="rotate(-90 1429.8 623.031)" fill="white"/>
<rect x="1456.52" y="623.031" width="49.2187" height="9.14062" transform="rotate(-90 1456.52 623.031)" fill="white"/>
<rect x="1493.78" y="623.031" width="49.2187" height="9.14062" transform="rotate(-90 1493.78 623.031)" fill="white"/>
<rect x="1402.16" y="623.088" width="39.9193" height="9.3561" transform="rotate(-90 1402.16 623.088)" fill="white"/>
<rect x="1179.48" y="623.031" width="30.9375" height="9.14062" transform="rotate(-90 1179.48 623.031)" fill="white"/>
<rect x="1349.5" y="391" width="44.2969" height="21.0937" fill="white"/>
<rect x="1349.5" y="482.406" width="44.2969" height="21.0937" fill="white"/>
<rect x="1328.41" y="481" width="68.9062" height="21.0937" transform="rotate(-90 1328.41 481)" fill="white"/>
<rect x="1393.8" y="481" width="68.9062" height="21.0937" transform="rotate(-90 1393.8 481)" fill="white"/>
<rect x="1468.33" y="481" width="44.2969" height="21.0937" transform="rotate(-90 1468.33 481)" fill="white"/>
<rect x="1447.23" y="436.703" width="45.7031" height="21.0937" transform="rotate(-90 1447.23 436.703)" fill="white"/>
<rect x="1534.42" y="436.703" width="45.7031" height="21.0937" transform="rotate(-90 1534.42 436.703)" fill="white"/>
<rect x="1513.33" y="481" width="44.2969" height="21.0937" transform="rotate(-90 1513.33 481)" fill="white"/>
<rect x="1489.42" y="503.5" width="21.0937" height="23.9062" transform="rotate(-90 1489.42 503.5)" fill="white"/>
<rect x="927.625" y="391" width="45" height="21.0937" fill="white"/>
<rect x="927.625" y="437.406" width="45" height="20.3906" fill="white"/>
<rect x="906.531" y="502.094" width="90" height="21.0937" transform="rotate(-90 906.531 502.094)" fill="white"/>
<rect x="972.625" y="502.094" width="90" height="21.0937" transform="rotate(-90 972.625 502.094)" fill="white"/>
<rect x="1047.16" y="437.406" width="25.3125" height="23.9062" transform="rotate(-90 1047.16 437.406)" fill="white"/>
<rect x="1091.45" y="437.406" width="25.3125" height="23.9062" transform="rotate(-90 1091.45 437.406)" fill="white"/>
<rect x="1071.06" y="457.797" width="20.3906" height="20.3906" transform="rotate(-90 1071.06 457.797)" fill="white"/>
<rect x="1026.06" y="502.094" width="111.094" height="21.0937" transform="rotate(-90 1026.06 502.094)" fill="white"/>
<rect x="1115.36" y="502.094" width="111.094" height="21.0937" transform="rotate(-90 1115.36 502.094)" fill="white"/>
<rect x="1189.89" y="391" width="45" height="21.0937" fill="white"/>
<rect x="1189.89" y="436.703" width="45" height="21.0937" fill="white"/>
<rect x="1189.89" y="482.406" width="45" height="21.0937" fill="white"/>
<rect x="1168.8" y="503.5" width="112.5" height="21.0937" transform="rotate(-90 1168.8 503.5)" fill="white"/>
<rect x="1608.95" y="391" width="45" height="21.0937" fill="white"/>
<rect x="1608.95" y="436.703" width="45" height="21.0937" fill="white"/>
<rect x="1608.95" y="482.406" width="45" height="21.0937" fill="white"/>
<rect x="1587.86" y="503.5" width="112.5" height="21.0937" transform="rotate(-90 1587.86 503.5)" fill="white"/>
<rect x="1752.39" y="433.188" width="21.0937" height="21.0937" transform="rotate(-90 1752.39 433.188)" fill="white"/>
<rect x="1752.39" y="503.5" width="21.0937" height="21.0937" transform="rotate(-90 1752.39 503.5)" fill="white"/>
<rect x="1731.3" y="482.406" width="28.125" height="21.0937" transform="rotate(-90 1731.3 482.406)" fill="white"/>
<rect x="1707.39" y="391" width="45" height="21.0937" fill="white"/>
<rect x="1707.39" y="433.188" width="45" height="21.0937" fill="white"/>
<rect x="1686.3" y="503.5" width="112.5" height="21.0937" transform="rotate(-90 1686.3 503.5)" fill="white"/>
<rect x="808.094" y="391" width="66.0937" height="21.0937" fill="white"/>
<rect x="787" y="481" width="68.9062" height="21.0937" transform="rotate(-90 787 481)" fill="white"/>
<rect x="853.094" y="481" width="43.5937" height="21.0937" transform="rotate(-90 853.094 481)" fill="white"/>
<rect x="832" y="457.797" width="20.3906" height="21.0937" transform="rotate(-90 832 457.797)" fill="white"/>
<rect x="808.094" y="481" width="45" height="21.0937" fill="white"/>
<path d="M605.953 983.157V873.652H615.417V895.959H639.078V917.589H660.711V960.175H726.285V938.766H746.566V983.157H726.285V1072.38H704.653V983.157H637.726V1072.38H616.77V983.157H605.953Z" fill="black" stroke="black" stroke-width="1.35198"/>
<path d="M924.36 916.686V895.283H670.852V958.823H703.214V938.089H725.463H856.937V916.686H900.087H924.36Z" fill="#122132" stroke="#122132" stroke-width="1.35198"/>
<path d="M924.364 851.346H616.773V872.3H640.434V894.607H924.364V851.346Z" fill="#182738" stroke="#182738" stroke-width="1.35198"/>
<path d="M592.43 807.408V784.426H689.777V806.732L592.43 807.408Z" fill="#26733D" stroke="#26733D" stroke-width="1.35198"/>
<path d="M605.953 850.67V808.085H746.566V849.398L605.953 850.67Z" fill="#206234" stroke="#206234" stroke-width="1.35198"/>
<path d="M605.953 872.976V850.67H616.093V872.976H639.754V895.283H669.499V916.914H639.754V895.283H616.093V872.976H605.953Z" fill="#26733D"/>
<path d="M616.093 872.976H605.953V850.67H616.093V872.976ZM616.093 872.976V895.283H639.754M616.093 872.976H639.754V895.283M639.754 895.283V916.914H669.499V895.283H639.754Z" stroke="#26733D" stroke-width="1.35198"/>
<path d="M724.938 807.408V784.426H756.035V806.732L724.938 807.408Z" fill="#26733D" stroke="#26733D" stroke-width="1.35198"/>
<path d="M772.256 630.984H576.885V677.625H537V697.904H813.494V677.625H772.256V630.984Z" fill="#26733D" stroke="#26733D" stroke-width="1.35198"/>
<path d="M587.016 698.58H762.782V784.426H587.016V698.58Z" fill="black"/>
<rect x="707.344" y="784.426" width="17.5766" height="22.9825" fill="black"/>
<rect x="689.781" y="784.426" width="17.5766" height="22.9825" fill="black"/>
<rect x="739.805" y="724.942" width="18.9287" height="32.4459" fill="#FAFF15"/>
<rect x="680.312" y="724.942" width="18.9287" height="32.4459" fill="#FAFF15"/>
<rect x="588.359" y="651.939" width="10.8164" height="12.1672" fill="#FF9315"/>
<rect x="753.32" y="637.068" width="10.8164" height="12.1672" fill="#FF9315"/>
<rect x="599.211" y="664.106" width="25.6889" height="12.1672" fill="#FF9315"/>
<rect x="883.117" y="872.301" width="9.46433" height="35.1497" fill="#FF9315"/>
<rect x="880.422" y="829.039" width="21.6328" height="21.6306" fill="#FF9315"/>
<rect x="861.484" y="872.301" width="9.46433" height="35.1497" fill="#FF9315"/>
<rect x="904.766" y="872.301" width="9.46433" height="35.1497" fill="#FF9315"/>
<path d="M670.179 917.59H661.391V959.499H670.179V917.59Z" fill="white"/>
<path d="M725.609 938.777L703.977 938.748V959.499H725.609V938.777Z" fill="white"/>
</g>
<defs>
<clipPath id="clip0_421_8290">
<rect width="2560" height="1024" fill="white"/>
</clipPath>
</defs>
</svg>
