<svg width="1440" height="717" viewBox="0 0 1440 717" fill="none" xmlns="http://www.w3.org/2000/svg">
<g clip-path="url(#clip0_372_8073)">
<rect width="1440" height="717" fill="#111111"/>
<rect x="1415.61" y="422.307" width="8.39351" height="8.39267" fill="white"/>
<rect x="934.602" y="26.8833" width="8.39351" height="8.39267" fill="white"/>
<rect x="1081.93" y="174.219" width="8.39351" height="8.39267" fill="white"/>
<rect x="1090" y="300" width="8.39351" height="8.39267" fill="white"/>
<rect x="742.848" y="153.635" width="8.39351" height="8.39267" fill="white"/>
<rect x="727.273" y="18.3677" width="8.39351" height="8.39267" fill="white"/>
<rect x="448.883" y="147.055" width="8.39351" height="8.39267" fill="white"/>
<rect x="17" y="332.389" width="8.39351" height="8.39267" fill="white"/>
<rect x="1112.27" y="609.727" width="8.39351" height="8.39267" fill="white"/>
<rect x="647.508" y="516.558" width="8.39351" height="8.39267" fill="white"/>
<rect x="398.336" y="525.225" width="8.39351" height="8.39267" fill="white"/>
<rect x="872.75" y="610.051" width="8.39351" height="8.39267" fill="white"/>
<rect x="917.266" y="150.386" width="5.59567" height="5.59511" fill="white"/>
<rect x="1012.6" y="403.89" width="5.59567" height="5.59511" fill="white"/>
<rect x="550" y="632.477" width="5.59567" height="5.59511" fill="white"/>
<rect x="543" y="238" width="5.59567" height="5.59511" fill="white"/>
<rect x="222.262" y="626.836" width="5.59567" height="5.59511" fill="white"/>
<rect x="315.988" y="60.3315" width="5.59567" height="5.59511" fill="white"/>
<rect x="104.754" y="472.971" width="5.59567" height="5.59511" fill="white"/>
<rect x="36.5" y="586.976" width="5.59567" height="5.59511" fill="white"/>
<rect x="482.84" y="27.9663" width="5.59567" height="5.59511" fill="white"/>
<rect x="326" y="331" width="5.59567" height="5.59511" fill="white"/>
<rect x="1261.77" y="533.892" width="5.59567" height="5.59511" fill="white"/>
<rect x="1310.52" y="181.802" width="5.59567" height="5.59511" fill="white"/>
<rect x="1109" y="66" width="5.59567" height="5.59511" fill="white"/>
<rect x="110.348" y="180.626" width="5.59567" height="5.59511" fill="white"/>
<rect x="36.5" y="79.9673" width="5.59567" height="5.59511" fill="white"/>
<rect x="1351.19" y="693.977" width="8.39351" height="8.39267" fill="white"/>
<rect x="257.504" y="426.64" width="8.39351" height="8.39267" fill="white"/>
<rect x="227.859" y="258.958" width="8.39351" height="8.39267" fill="white"/>
<rect x="594.426" y="142.802" width="8.39351" height="8.39267" fill="white"/>
<rect x="1231.43" y="359.472" width="8.39351" height="8.39267" fill="white"/>
<rect x="1244" y="101" width="7.74772" height="7.74694" fill="white"/>
<rect x="616.344" y="375.673" width="12.3018" height="5.76645" fill="white"/>
<rect x="548.609" y="375.673" width="16.4676" height="5.63364" fill="white"/>
<rect x="548.609" y="386.94" width="16.4676" height="5.63364" fill="white"/>
<rect x="565.078" y="381.306" width="5.63364" height="5.63364" fill="white"/>
<rect x="663.016" y="381.306" width="5.63364" height="5.63364" fill="white"/>
<rect x="753.59" y="388.24" width="5.63364" height="5.63364" fill="white"/>
<rect x="839.391" y="388.24" width="5.63364" height="5.63364" fill="white"/>
<rect x="874.062" y="400.374" width="5.63364" height="5.63364" fill="white"/>
<rect x="873.629" y="386.94" width="11.2673" height="5.63364" fill="white"/>
<rect x="884.895" y="381.306" width="5.63364" height="5.63364" fill="white"/>
<rect x="845.023" y="393.874" width="6.067" height="5.63364" fill="white"/>
<rect x="833.758" y="382.606" width="5.63364" height="5.63364" fill="white"/>
<rect x="651.75" y="381.306" width="5.63364" height="5.63364" fill="white"/>
<rect x="668.648" y="375.673" width="5.63364" height="5.63364" fill="white"/>
<rect x="646.117" y="375.673" width="5.63364" height="5.63364" fill="white"/>
<rect x="586.312" y="400.374" width="12.3018" height="5.76645" fill="white"/>
<rect x="616.344" y="388.359" width="12.3018" height="5.57423" fill="white"/>
<rect x="610.582" y="406.043" width="24.6035" height="5.76645" transform="rotate(-90 610.582 406.043)" fill="white"/>
<rect x="581.977" y="406.008" width="30.335" height="5.63364" transform="rotate(-90 581.977 406.008)" fill="white"/>
<rect x="548.609" y="406.008" width="30.335" height="5.63364" transform="rotate(-90 548.609 406.008)" fill="white"/>
<rect x="628.648" y="406.043" width="24.6035" height="5.76645" transform="rotate(-90 628.648 406.043)" fill="white"/>
<rect x="712.984" y="375.673" width="12.3018" height="5.76645" fill="white"/>
<rect x="747.52" y="375.673" width="17.3343" height="5.63364" fill="white"/>
<rect x="747.52" y="400.374" width="11.7006" height="5.63364" fill="white"/>
<rect x="712.984" y="388.359" width="12.3018" height="5.57423" fill="white"/>
<rect x="707.219" y="406.043" width="24.6035" height="5.76645" transform="rotate(-90 707.219 406.043)" fill="white"/>
<rect x="725.285" y="406.043" width="24.6035" height="5.76645" transform="rotate(-90 725.285 406.043)" fill="white"/>
<rect x="741.887" y="400.374" width="19.0677" height="5.63364" transform="rotate(-90 741.887 400.374)" fill="white"/>
<rect x="759.223" y="400.374" width="12.134" height="5.63364" transform="rotate(-90 759.223 400.374)" fill="white"/>
<rect x="782.324" y="375.673" width="12.3018" height="5.76645" fill="white"/>
<rect x="867.559" y="375.673" width="17.3343" height="5.63364" fill="white"/>
<rect x="782.324" y="388.359" width="12.3018" height="5.57423" fill="white"/>
<rect x="776.555" y="406.043" width="24.6035" height="5.76645" transform="rotate(-90 776.555 406.043)" fill="white"/>
<rect x="811.656" y="406.008" width="30.335" height="5.63364" transform="rotate(-90 811.656 406.008)" fill="white"/>
<rect x="828.125" y="406.008" width="30.335" height="5.63364" transform="rotate(-90 828.125 406.008)" fill="white"/>
<rect x="851.094" y="406.008" width="30.335" height="5.63364" transform="rotate(-90 851.094 406.008)" fill="white"/>
<rect x="794.625" y="406.043" width="24.6035" height="5.76645" transform="rotate(-90 794.625 406.043)" fill="white"/>
<rect x="657.383" y="406.008" width="19.0677" height="5.63364" transform="rotate(-90 657.383 406.008)" fill="white"/>
<rect x="762.684" y="263" width="27.3015" height="13.0007" fill="white"/>
<rect x="762.684" y="319.336" width="27.3015" height="13.0007" fill="white"/>
<rect x="749.684" y="318.47" width="42.469" height="13.0007" transform="rotate(-90 749.684 318.47)" fill="white"/>
<rect x="789.988" y="318.47" width="42.469" height="13.0007" transform="rotate(-90 789.988 318.47)" fill="white"/>
<rect x="835.922" y="318.47" width="27.3015" height="13.0007" transform="rotate(-90 835.922 318.47)" fill="white"/>
<rect x="822.922" y="291.168" width="28.1682" height="13.0007" transform="rotate(-90 822.922 291.168)" fill="white"/>
<rect x="876.66" y="291.168" width="28.1682" height="13.0007" transform="rotate(-90 876.66 291.168)" fill="white"/>
<rect x="863.656" y="318.47" width="27.3015" height="13.0007" transform="rotate(-90 863.656 318.47)" fill="white"/>
<rect x="848.922" y="332.337" width="13.0007" height="14.7341" transform="rotate(-90 848.922 332.337)" fill="white"/>
<rect x="502.672" y="263" width="27.7349" height="13.0007" fill="white"/>
<rect x="502.672" y="291.602" width="27.7349" height="12.5674" fill="white"/>
<rect x="489.672" y="331.47" width="55.4697" height="13.0007" transform="rotate(-90 489.672 331.47)" fill="white"/>
<rect x="530.406" y="331.47" width="55.4697" height="13.0007" transform="rotate(-90 530.406 331.47)" fill="white"/>
<rect x="576.34" y="291.602" width="15.6009" height="14.7341" transform="rotate(-90 576.34 291.602)" fill="white"/>
<rect x="603.645" y="291.602" width="15.6009" height="14.7341" transform="rotate(-90 603.645 291.602)" fill="white"/>
<rect x="591.074" y="304.169" width="12.5674" height="12.5674" transform="rotate(-90 591.074 304.169)" fill="white"/>
<rect x="563.34" y="331.47" width="68.4704" height="13.0007" transform="rotate(-90 563.34 331.47)" fill="white"/>
<rect x="618.375" y="331.47" width="68.4704" height="13.0007" transform="rotate(-90 618.375 331.47)" fill="white"/>
<rect x="664.312" y="263" width="27.7349" height="13.0007" fill="white"/>
<rect x="664.312" y="291.168" width="27.7349" height="13.0007" fill="white"/>
<rect x="664.312" y="319.336" width="27.7349" height="13.0007" fill="white"/>
<rect x="651.312" y="332.337" width="69.3372" height="13.0007" transform="rotate(-90 651.312 332.337)" fill="white"/>
<rect x="922.594" y="263" width="27.7349" height="13.0007" fill="white"/>
<rect x="922.594" y="291.168" width="27.7349" height="13.0007" fill="white"/>
<rect x="922.594" y="319.336" width="27.7349" height="13.0007" fill="white"/>
<rect x="909.594" y="332.337" width="69.3372" height="13.0007" transform="rotate(-90 909.594 332.337)" fill="white"/>
<rect x="1011" y="289.001" width="13.0007" height="13.0007" transform="rotate(-90 1011 289.001)" fill="white"/>
<rect x="1011" y="332.337" width="13.0007" height="13.0007" transform="rotate(-90 1011 332.337)" fill="white"/>
<rect x="998" y="319.336" width="17.3343" height="13.0007" transform="rotate(-90 998 319.336)" fill="white"/>
<rect x="983.266" y="263" width="27.7349" height="13.0007" fill="white"/>
<rect x="983.266" y="289.001" width="27.7349" height="13.0007" fill="white"/>
<rect x="970.266" y="332.337" width="69.3372" height="13.0007" transform="rotate(-90 970.266 332.337)" fill="white"/>
<rect x="429" y="263" width="40.7356" height="13.0007" fill="white"/>
<rect x="416" y="318.47" width="42.469" height="13.0007" transform="rotate(-90 416 318.47)" fill="white"/>
<rect x="456.734" y="318.47" width="26.8681" height="13.0007" transform="rotate(-90 456.734 318.47)" fill="white"/>
<rect x="443.734" y="304.168" width="12.5674" height="13.0007" transform="rotate(-90 443.734 304.168)" fill="white"/>
<rect x="429" y="318.47" width="27.7349" height="13.0007" fill="white"/>
<path d="M261.977 691.47V608.925H269.111V625.74H286.947V642.045H303.254V674.146H352.684V658.008H367.972V691.47H352.684V758.73H336.377V691.47H285.927V758.73H270.13V691.47H261.977Z" fill="black" stroke="black" stroke-width="1.01913"/>
<path d="M502.003 641.363V625.23H310.906V673.127H335.301V657.497H352.073H451.179V641.363H483.706H502.003Z" fill="#122132" stroke="#122132" stroke-width="1.01913"/>
<path d="M501.993 592.109H270.129V607.905H287.965V624.72H501.993V592.109Z" fill="#182738" stroke="#182738" stroke-width="1.01913"/>
<path d="M251.781 558.99V541.665H325.162V558.48L251.781 558.99Z" fill="#26733D" stroke="#26733D" stroke-width="1.01913"/>
<path d="M261.977 591.601V559.5H367.972V590.641L261.977 591.601Z" fill="#206234" stroke="#206234" stroke-width="1.01913"/>
<path d="M261.977 608.415V591.601H269.62V608.415H287.456V625.23H309.878V641.536H287.456V625.23H269.62V608.415H261.977Z" fill="#26733D"/>
<path d="M269.62 608.415H261.977V591.601H269.62V608.415ZM269.62 608.415V625.23H287.456M269.62 608.415H287.456V625.23M287.456 625.23V641.536H309.878V625.23H287.456Z" stroke="#26733D" stroke-width="1.01913"/>
<path d="M351.66 558.99V541.665H375.101V558.48L351.66 558.99Z" fill="#26733D" stroke="#26733D" stroke-width="1.01913"/>
<path d="M387.338 426H240.066V461.158H210V476.445H418.423V461.158H387.338V426Z" fill="#26733D" stroke="#26733D" stroke-width="1.01913"/>
<path d="M247.715 476.954H380.209V541.665H247.715V476.954Z" fill="black"/>
<rect x="338.422" y="541.665" width="13.2494" height="17.3244" fill="black"/>
<rect x="325.172" y="541.665" width="13.2494" height="17.3244" fill="black"/>
<rect x="362.883" y="496.826" width="14.2686" height="24.458" fill="#FAFF15"/>
<rect x="318.035" y="496.826" width="14.2686" height="24.458" fill="#FAFF15"/>
<rect x="248.734" y="441.795" width="8.15347" height="9.17173" fill="#FF9315"/>
<rect x="373.066" y="430.585" width="8.15347" height="9.17173" fill="#FF9315"/>
<rect x="256.879" y="450.968" width="19.3645" height="9.17173" fill="#FF9315"/>
<rect x="470.902" y="607.906" width="7.13429" height="26.4961" fill="#FF9315"/>
<rect x="468.871" y="575.295" width="16.3069" height="16.3053" fill="#FF9315"/>
<rect x="454.598" y="607.906" width="7.13429" height="26.4961" fill="#FF9315"/>
<rect x="487.215" y="607.906" width="7.13429" height="26.4961" fill="#FF9315"/>
<path d="M310.39 642.045H303.766V673.637H310.39V642.045Z" fill="white"/>
<path d="M352.182 658.016L335.875 657.994V673.636H352.182V658.016Z" fill="white"/>
</g>
<defs>
<clipPath id="clip0_372_8073">
<rect width="1440" height="717" fill="white"/>
</clipPath>
</defs>
</svg>
