<svg width="425" height="896" viewBox="0 0 425 896" fill="none" xmlns="http://www.w3.org/2000/svg">
<g clip-path="url(#clip0_442_22201)">
<rect width="425" height="896" fill="#111111"/>
<rect x="142.844" y="822.189" width="4.45117" height="4.45072" transform="rotate(180 142.844 822.189)" fill="white"/>
<rect x="176.977" y="695.344" width="4.45117" height="4.45072" transform="rotate(180 176.977 695.344)" fill="white"/>
<rect x="217.766" y="799.194" width="4.45117" height="4.45072" transform="rotate(180 217.766 799.194)" fill="white"/>
<rect x="4.85938" y="535.859" width="4.45117" height="4.45072" transform="rotate(180 4.85938 535.859)" fill="white"/>
<rect x="65.4531" y="776.451" width="4.45117" height="4.45072" transform="rotate(180 65.4531 776.451)" fill="white"/>
<rect x="291.211" y="517.315" width="4.45117" height="4.45072" transform="rotate(180 291.211 517.315)" fill="white"/>
<rect x="347.602" y="564.047" width="4.45117" height="4.45072" transform="rotate(180 347.602 564.047)" fill="white"/>
<rect x="111.906" y="531.3" width="4.45117" height="4.45072" transform="rotate(180 111.906 531.3)" fill="white"/>
<rect x="154.703" y="756.17" width="2.96745" height="2.96715" transform="rotate(180 154.703 756.17)" fill="white"/>
<rect x="419.016" y="524.205" width="2.96745" height="2.96715" transform="rotate(180 419.016 524.205)" fill="white"/>
<rect x="92.9688" y="469.967" width="2.96745" height="2.96715" transform="rotate(180 92.9688 469.967)" fill="white"/>
<rect x="312.969" y="735.967" width="2.96745" height="2.96715" transform="rotate(180 312.969 735.967)" fill="white"/>
<rect x="362.547" y="470.904" width="2.96745" height="2.96715" transform="rotate(180 362.547 470.904)" fill="white"/>
<rect x="395.07" y="653.062" width="2.96745" height="2.96715" transform="rotate(180 395.07 653.062)" fill="white"/>
<rect x="24.1484" y="438.688" width="4.45117" height="4.45072" transform="rotate(180 24.1484 438.688)" fill="white"/>
<rect x="260.789" y="752.461" width="4.45117" height="4.45072" transform="rotate(180 260.789 752.461)" fill="white"/>
<rect x="19.6875" y="697.597" width="4.45117" height="4.45072" transform="rotate(180 19.6875 697.597)" fill="white"/>
<rect x="239.562" y="742.668" width="4.45117" height="4.45072" transform="rotate(-90 239.562 742.668)" fill="white"/>
<rect x="298.906" y="862.856" width="4.45117" height="4.45072" transform="rotate(-90 298.906 862.856)" fill="white"/>
<rect x="18.5156" y="842.816" width="2.96745" height="2.96715" transform="rotate(-90 18.5156 842.816)" fill="white"/>
<rect x="163.906" y="739.699" width="2.96745" height="2.96715" transform="rotate(-90 163.906 739.699)" fill="white"/>
<rect x="393.859" y="744.897" width="4.45117" height="4.45072" transform="rotate(-90 393.859 744.897)" fill="white"/>
<rect x="396.078" y="882.145" width="4.45117" height="4.45072" transform="rotate(-90 396.078 882.145)" fill="white"/>
<rect x="177.258" y="799.794" width="4.45117" height="4.45072" transform="rotate(-90 177.258 799.794)" fill="white"/>
<rect x="16.2891" y="378.963" width="4.45117" height="4.45072" transform="rotate(-90 16.2891 378.963)" fill="white"/>
<rect x="281" y="49.4512" width="4.45117" height="4.45072" transform="rotate(-90 281 49.4512)" fill="white"/>
<rect x="222" y="121.451" width="4.45117" height="4.45072" transform="rotate(-90 222 121.451)" fill="white"/>
<rect x="168" y="53.4512" width="4.45117" height="4.45072" transform="rotate(-90 168 53.4512)" fill="white"/>
<rect x="35.5703" y="77.7656" width="4.45117" height="4.45072" transform="rotate(-90 35.5703 77.7656)" fill="white"/>
<rect x="106" y="212.451" width="4.45117" height="4.45072" transform="rotate(-90 106 212.451)" fill="white"/>
<rect x="317.453" y="151.211" width="4.45117" height="4.45072" transform="rotate(-90 317.453 151.211)" fill="white"/>
<rect x="257" y="214.451" width="4.45117" height="4.45072" transform="rotate(-90 257 214.451)" fill="white"/>
<rect x="411.656" y="401.958" width="4.45117" height="4.45072" transform="rotate(-90 411.656 401.958)" fill="white"/>
<rect x="78.5938" y="14.7031" width="2.96745" height="2.96715" transform="rotate(-90 78.5938 14.7031)" fill="white"/>
<rect x="310.562" y="279.012" width="2.96745" height="2.96715" transform="rotate(-90 310.562 279.012)" fill="white"/>
<rect x="387.18" y="66.6436" width="2.96745" height="2.96715" transform="rotate(-90 387.18 66.6436)" fill="white"/>
<rect x="147.586" y="154.918" width="2.96745" height="2.96715" transform="rotate(-90 147.586 154.918)" fill="white"/>
<rect x="358.25" y="345.584" width="2.96745" height="2.96715" transform="rotate(-90 358.25 345.584)" fill="white"/>
<rect x="57.8281" y="295.873" width="2.96745" height="2.96715" transform="rotate(-90 57.8281 295.873)" fill="white"/>
<rect x="363.867" y="222.546" width="2.96745" height="2.96715" transform="rotate(-90 363.867 222.546)" fill="white"/>
<rect x="14.8047" y="195.725" width="2.96745" height="2.96715" transform="rotate(-90 14.8047 195.725)" fill="white"/>
<rect x="181.703" y="255.066" width="2.96745" height="2.96715" transform="rotate(-90 181.703 255.066)" fill="white"/>
<rect x="407.211" y="315.161" width="2.96745" height="2.96715" transform="rotate(-90 407.211 315.161)" fill="white"/>
<rect x="87" y="394.968" width="2.96745" height="2.96715" transform="rotate(-90 87 394.968)" fill="white"/>
<rect x="188" y="494.451" width="4.45117" height="4.45072" transform="rotate(-90 188 494.451)" fill="white"/>
<rect x="82.3047" y="120.788" width="4.45117" height="4.45072" transform="rotate(-90 82.3047 120.788)" fill="white"/>
<path d="M113.641 827.103V740.318H121.141V757.997H139.893V775.139H157.037V808.889H209.006V791.922H225.079V827.103H209.006V897.816H191.862V827.103H138.821V897.816H122.213V827.103H113.641Z" fill="black" stroke="black" stroke-width="1.07147"/>
<path d="M365.988 774.424V757.462H165.078V807.818H190.726V791.386H208.359H312.554V774.424H346.751H365.988Z" fill="#122132" stroke="#122132" stroke-width="1.07147"/>
<path d="M366.005 722.641H122.234V739.248H140.986V756.926H366.005V722.641Z" fill="#182738" stroke="#182738" stroke-width="1.07147"/>
<path d="M102.93 687.819V669.605H180.079V687.284L102.93 687.819Z" fill="#26733D" stroke="#26733D" stroke-width="1.07147"/>
<path d="M113.641 722.105V688.355H225.079V721.097L113.641 722.105Z" fill="#206234" stroke="#206234" stroke-width="1.07147"/>
<path d="M113.641 739.783V722.104H121.677V739.783H140.429V757.461H164.002V774.604H140.429V757.461H121.677V739.783H113.641Z" fill="#26733D"/>
<path d="M121.677 739.783H113.641V722.104H121.677V739.783ZM121.677 739.783V757.461H140.429M121.677 739.783H140.429V757.461M140.429 757.461V774.604H164.002V757.461H140.429Z" stroke="#26733D" stroke-width="1.07147"/>
<path d="M207.945 687.819V669.605H232.59V687.284L207.945 687.819Z" fill="#26733D" stroke="#26733D" stroke-width="1.07147"/>
<path d="M245.445 548H90.6099V584.964H59V601.035H278.126V584.964H245.445V548Z" fill="#26733D" stroke="#26733D" stroke-width="1.07147"/>
<path d="M98.6406 601.57H237.938V669.605H98.6406V601.57Z" fill="black"/>
<rect x="194" y="669.605" width="13.9298" height="18.214" fill="black"/>
<rect x="180.086" y="669.605" width="13.9298" height="18.214" fill="black"/>
<rect x="219.727" y="622.464" width="15.0013" height="25.7139" fill="#FAFF15"/>
<rect x="172.594" y="622.464" width="15.0013" height="25.7139" fill="#FAFF15"/>
<rect x="99.7031" y="564.607" width="8.57217" height="9.64272" fill="#FF9315"/>
<rect x="230.445" y="552.821" width="8.57217" height="9.64272" fill="#FF9315"/>
<rect x="108.297" y="574.25" width="20.3589" height="9.64272" fill="#FF9315"/>
<rect x="333.312" y="739.247" width="7.50065" height="27.8568" fill="#FF9315"/>
<rect x="331.172" y="704.962" width="17.1443" height="17.1426" fill="#FF9315"/>
<rect x="316.164" y="739.247" width="7.50065" height="27.8568" fill="#FF9315"/>
<rect x="350.461" y="739.247" width="7.50065" height="27.8568" fill="#FF9315"/>
<path d="M164.543 775.14H157.578V808.353H164.543V775.14Z" fill="white"/>
<path d="M208.48 791.931L191.336 791.908V808.354H208.48V791.931Z" fill="white"/>
<rect x="154.633" y="383.752" width="6.96028" height="3.26263" fill="white"/>
<rect x="116.312" y="383.752" width="9.31728" height="3.18749" fill="white"/>
<rect x="116.312" y="390.128" width="9.31728" height="3.18749" fill="white"/>
<rect x="125.633" y="386.939" width="3.18749" height="3.18749" fill="white"/>
<rect x="181.047" y="386.939" width="3.18749" height="3.18749" fill="white"/>
<rect x="232.281" y="390.863" width="3.18749" height="3.18749" fill="white"/>
<rect x="280.836" y="390.863" width="3.18749" height="3.18749" fill="white"/>
<rect x="300.453" y="397.727" width="3.18749" height="3.18749" fill="white"/>
<rect x="300.203" y="390.128" width="6.37498" height="3.18749" fill="white"/>
<rect x="306.578" y="386.939" width="3.18749" height="3.18749" fill="white"/>
<rect x="284.023" y="394.051" width="3.43268" height="3.18749" fill="white"/>
<rect x="277.648" y="387.675" width="3.18749" height="3.18749" fill="white"/>
<rect x="174.672" y="386.939" width="3.18749" height="3.18749" fill="white"/>
<rect x="184.227" y="383.752" width="3.18749" height="3.18749" fill="white"/>
<rect x="171.477" y="383.752" width="3.18749" height="3.18749" fill="white"/>
<rect x="137.641" y="397.727" width="6.96028" height="3.26263" fill="white"/>
<rect x="154.633" y="390.931" width="6.96028" height="3.15388" fill="white"/>
<rect x="151.375" y="400.936" width="13.9206" height="3.26263" transform="rotate(-90 151.375 400.936)" fill="white"/>
<rect x="135.188" y="400.916" width="17.1634" height="3.18749" transform="rotate(-90 135.188 400.916)" fill="white"/>
<rect x="116.312" y="400.916" width="17.1634" height="3.18749" transform="rotate(-90 116.312 400.916)" fill="white"/>
<rect x="161.594" y="400.936" width="13.9206" height="3.26263" transform="rotate(-90 161.594 400.936)" fill="white"/>
<rect x="209.32" y="383.752" width="6.96028" height="3.26263" fill="white"/>
<rect x="228.852" y="383.752" width="9.80767" height="3.18749" fill="white"/>
<rect x="228.852" y="397.727" width="6.62018" height="3.18749" fill="white"/>
<rect x="209.32" y="390.931" width="6.96028" height="3.15388" fill="white"/>
<rect x="206.055" y="400.936" width="13.9206" height="3.26263" transform="rotate(-90 206.055 400.936)" fill="white"/>
<rect x="216.266" y="400.936" width="13.9206" height="3.26263" transform="rotate(-90 216.266 400.936)" fill="white"/>
<rect x="225.672" y="397.727" width="10.7884" height="3.18749" transform="rotate(-90 225.672 397.727)" fill="white"/>
<rect x="235.477" y="397.727" width="6.86537" height="3.18749" transform="rotate(-90 235.477 397.727)" fill="white"/>
<rect x="248.547" y="383.752" width="6.96028" height="3.26263" fill="white"/>
<rect x="296.773" y="383.752" width="9.80767" height="3.18749" fill="white"/>
<rect x="248.547" y="390.931" width="6.96028" height="3.15388" fill="white"/>
<rect x="245.281" y="400.936" width="13.9206" height="3.26263" transform="rotate(-90 245.281 400.936)" fill="white"/>
<rect x="265.133" y="400.916" width="17.1634" height="3.18749" transform="rotate(-90 265.133 400.916)" fill="white"/>
<rect x="274.461" y="400.916" width="17.1634" height="3.18749" transform="rotate(-90 274.461 400.916)" fill="white"/>
<rect x="287.453" y="400.916" width="17.1634" height="3.18749" transform="rotate(-90 287.453 400.916)" fill="white"/>
<rect x="255.508" y="400.936" width="13.9206" height="3.26263" transform="rotate(-90 255.508 400.936)" fill="white"/>
<rect x="177.852" y="400.916" width="10.7884" height="3.18749" transform="rotate(-90 177.852 400.916)" fill="white"/>
<rect x="237.148" y="320" width="15.4471" height="7.35575" fill="white"/>
<rect x="237.148" y="351.875" width="15.4471" height="7.35575" fill="white"/>
<rect x="229.797" y="351.385" width="24.0288" height="7.35575" transform="rotate(-90 229.797 351.385)" fill="white"/>
<rect x="252.602" y="351.385" width="24.0288" height="7.35575" transform="rotate(-90 252.602 351.385)" fill="white"/>
<rect x="278.586" y="351.385" width="15.4471" height="7.35575" transform="rotate(-90 278.586 351.385)" fill="white"/>
<rect x="271.234" y="335.938" width="15.9375" height="7.35575" transform="rotate(-90 271.234 335.938)" fill="white"/>
<rect x="301.633" y="335.938" width="15.9375" height="7.35575" transform="rotate(-90 301.633 335.938)" fill="white"/>
<rect x="294.281" y="351.385" width="15.4471" height="7.35575" transform="rotate(-90 294.281 351.385)" fill="white"/>
<rect x="285.945" y="359.231" width="7.35575" height="8.33652" transform="rotate(-90 285.945 359.231)" fill="white"/>
<rect x="90.0469" y="320" width="15.6923" height="7.35575" fill="white"/>
<rect x="90.0469" y="336.182" width="15.6923" height="7.11056" fill="white"/>
<rect x="82.6953" y="358.74" width="31.3845" height="7.35575" transform="rotate(-90 82.6953 358.74)" fill="white"/>
<rect x="105.742" y="358.74" width="31.3845" height="7.35575" transform="rotate(-90 105.742 358.74)" fill="white"/>
<rect x="131.711" y="336.185" width="8.8269" height="8.33652" transform="rotate(-90 131.711 336.185)" fill="white"/>
<rect x="147.164" y="336.185" width="8.8269" height="8.33652" transform="rotate(-90 147.164 336.185)" fill="white"/>
<rect x="140.047" y="343.296" width="7.11056" height="7.11056" transform="rotate(-90 140.047 343.296)" fill="white"/>
<rect x="124.359" y="358.743" width="38.7403" height="7.35575" transform="rotate(-90 124.359 358.743)" fill="white"/>
<rect x="155.5" y="358.743" width="38.7403" height="7.35575" transform="rotate(-90 155.5 358.743)" fill="white"/>
<rect x="181.484" y="320" width="15.6923" height="7.35575" fill="white"/>
<rect x="181.484" y="335.938" width="15.6923" height="7.35575" fill="white"/>
<rect x="181.484" y="351.875" width="15.6923" height="7.35575" fill="white"/>
<rect x="174.133" y="359.23" width="39.2307" height="7.35575" transform="rotate(-90 174.133 359.23)" fill="white"/>
<rect x="327.633" y="320" width="15.6923" height="7.35575" fill="white"/>
<rect x="327.633" y="335.938" width="15.6923" height="7.35575" fill="white"/>
<rect x="327.633" y="351.875" width="15.6923" height="7.35575" fill="white"/>
<rect x="320.281" y="359.23" width="39.2307" height="7.35575" transform="rotate(-90 320.281 359.23)" fill="white"/>
<rect x="377.633" y="334.711" width="7.35575" height="7.35575" transform="rotate(-90 377.633 334.711)" fill="white"/>
<rect x="377.633" y="359.23" width="7.35575" height="7.35575" transform="rotate(-90 377.633 359.23)" fill="white"/>
<rect x="370.273" y="351.875" width="9.80767" height="7.35575" transform="rotate(-90 370.273 351.875)" fill="white"/>
<rect x="361.938" y="320" width="15.6923" height="7.35575" fill="white"/>
<rect x="361.938" y="334.711" width="15.6923" height="7.35575" fill="white"/>
<rect x="354.586" y="359.23" width="39.2307" height="7.35575" transform="rotate(-90 354.586 359.23)" fill="white"/>
<rect x="48.3516" y="320" width="23.048" height="7.35575" fill="white"/>
<rect x="41" y="351.385" width="24.0288" height="7.35575" transform="rotate(-90 41 351.385)" fill="white"/>
<rect x="64.0469" y="351.385" width="15.2019" height="7.35575" transform="rotate(-90 64.0469 351.385)" fill="white"/>
<rect x="56.6875" y="343.293" width="7.11056" height="7.35575" transform="rotate(-90 56.6875 343.293)" fill="white"/>
<rect x="48.3516" y="351.385" width="15.6923" height="7.35575" fill="white"/>
</g>
<defs>
<clipPath id="clip0_442_22201">
<rect width="425" height="896" fill="white"/>
</clipPath>
</defs>
</svg>
