<svg width="1280" height="1024" viewBox="0 0 1280 1024" fill="none" xmlns="http://www.w3.org/2000/svg">
<g clip-path="url(#clip0_419_3869)">
<rect width="1280" height="1024" fill="#111111"/>
<rect x="481.211" y="518.052" width="18.9266" height="8.87186" fill="white"/>
<rect x="377" y="518.052" width="25.3359" height="8.66754" fill="white"/>
<rect x="377" y="535.387" width="25.3359" height="8.66754" fill="white"/>
<rect x="402.336" y="526.72" width="8.66754" height="8.66754" fill="white"/>
<rect x="553.016" y="526.72" width="8.66754" height="8.66754" fill="white"/>
<rect x="692.367" y="537.388" width="8.66754" height="8.66754" fill="white"/>
<rect x="824.375" y="537.388" width="8.66754" height="8.66754" fill="white"/>
<rect x="877.719" y="556.056" width="8.66754" height="8.66754" fill="white"/>
<rect x="877.047" y="535.387" width="17.3351" height="8.66754" fill="white"/>
<rect x="894.383" y="526.72" width="8.66754" height="8.66754" fill="white"/>
<rect x="833.047" y="546.055" width="9.33427" height="8.66754" fill="white"/>
<rect x="815.711" y="528.72" width="8.66754" height="8.66754" fill="white"/>
<rect x="535.68" y="526.72" width="8.66754" height="8.66754" fill="white"/>
<rect x="561.688" y="518.052" width="8.66754" height="8.66754" fill="white"/>
<rect x="527.016" y="518.052" width="8.66754" height="8.66754" fill="white"/>
<rect x="435.008" y="556.056" width="18.9266" height="8.87186" fill="white"/>
<rect x="481.211" y="537.57" width="18.9266" height="8.57613" fill="white"/>
<rect x="472.344" y="564.777" width="37.8533" height="8.87186" transform="rotate(-90 472.344 564.777)" fill="white"/>
<rect x="428.336" y="564.724" width="46.6714" height="8.66754" transform="rotate(-90 428.336 564.724)" fill="white"/>
<rect x="377" y="564.724" width="46.6714" height="8.66754" transform="rotate(-90 377 564.724)" fill="white"/>
<rect x="500.148" y="564.777" width="37.8533" height="8.87186" transform="rotate(-90 500.148 564.777)" fill="white"/>
<rect x="629.891" y="518.052" width="18.9266" height="8.87186" fill="white"/>
<rect x="683.031" y="518.052" width="26.6693" height="8.66754" fill="white"/>
<rect x="683.031" y="556.056" width="18.0018" height="8.66754" fill="white"/>
<rect x="629.891" y="537.57" width="18.9266" height="8.57613" fill="white"/>
<rect x="621.023" y="564.777" width="37.8533" height="8.87186" transform="rotate(-90 621.023 564.777)" fill="white"/>
<rect x="648.828" y="564.777" width="37.8533" height="8.87186" transform="rotate(-90 648.828 564.777)" fill="white"/>
<rect x="674.359" y="556.056" width="29.3363" height="8.66754" transform="rotate(-90 674.359 556.056)" fill="white"/>
<rect x="701.031" y="556.056" width="18.6685" height="8.66754" transform="rotate(-90 701.031 556.056)" fill="white"/>
<rect x="736.57" y="518.052" width="18.9266" height="8.87186" fill="white"/>
<rect x="867.719" y="518.052" width="26.6693" height="8.66754" fill="white"/>
<rect x="736.57" y="537.57" width="18.9266" height="8.57613" fill="white"/>
<rect x="727.703" y="564.777" width="37.8533" height="8.87186" transform="rotate(-90 727.703 564.777)" fill="white"/>
<rect x="781.711" y="564.724" width="46.6714" height="8.66754" transform="rotate(-90 781.711 564.724)" fill="white"/>
<rect x="807.047" y="564.724" width="46.6714" height="8.66754" transform="rotate(-90 807.047 564.724)" fill="white"/>
<rect x="842.383" y="564.724" width="46.6714" height="8.66754" transform="rotate(-90 842.383 564.724)" fill="white"/>
<rect x="755.508" y="564.777" width="37.8533" height="8.87186" transform="rotate(-90 755.508 564.777)" fill="white"/>
<rect x="544.352" y="564.724" width="29.3363" height="8.66754" transform="rotate(-90 544.352 564.724)" fill="white"/>
<rect x="705.383" y="344.701" width="42.0042" height="20.002" fill="white"/>
<rect x="705.383" y="431.376" width="42.0042" height="20.002" fill="white"/>
<rect x="685.383" y="430.043" width="65.3399" height="20.002" transform="rotate(-90 685.383 430.043)" fill="white"/>
<rect x="747.391" y="430.043" width="65.3399" height="20.002" transform="rotate(-90 747.391 430.043)" fill="white"/>
<rect x="818.062" y="430.043" width="42.0042" height="20.002" transform="rotate(-90 818.062 430.043)" fill="white"/>
<rect x="798.062" y="388.039" width="43.3377" height="20.002" transform="rotate(-90 798.062 388.039)" fill="white"/>
<rect x="880.734" y="388.039" width="43.3377" height="20.002" transform="rotate(-90 880.734 388.039)" fill="white"/>
<rect x="860.734" y="430.043" width="42.0042" height="20.002" transform="rotate(-90 860.734 430.043)" fill="white"/>
<rect x="838.07" y="451.378" width="20.002" height="22.6689" transform="rotate(-90 838.07 451.378)" fill="white"/>
<rect x="305.344" y="344.701" width="42.671" height="20.002" fill="white"/>
<rect x="305.344" y="388.706" width="42.671" height="19.3353" fill="white"/>
<rect x="285.344" y="450.045" width="85.3419" height="20.002" transform="rotate(-90 285.344 450.045)" fill="white"/>
<rect x="348.016" y="450.045" width="85.3419" height="20.002" transform="rotate(-90 348.016 450.045)" fill="white"/>
<rect x="418.688" y="388.706" width="24.0024" height="22.6689" transform="rotate(-90 418.688 388.706)" fill="white"/>
<rect x="460.695" y="388.706" width="24.0024" height="22.6689" transform="rotate(-90 460.695 388.706)" fill="white"/>
<rect x="441.359" y="408.041" width="19.3353" height="19.3353" transform="rotate(-90 441.359 408.041)" fill="white"/>
<rect x="398.688" y="450.045" width="105.344" height="20.002" transform="rotate(-90 398.688 450.045)" fill="white"/>
<rect x="483.359" y="450.045" width="105.344" height="20.002" transform="rotate(-90 483.359 450.045)" fill="white"/>
<rect x="554.031" y="344.701" width="42.671" height="20.002" fill="white"/>
<rect x="554.031" y="388.039" width="42.671" height="20.002" fill="white"/>
<rect x="554.031" y="431.376" width="42.671" height="20.002" fill="white"/>
<rect x="534.031" y="451.378" width="106.677" height="20.002" transform="rotate(-90 534.031 451.378)" fill="white"/>
<rect x="951.406" y="344.701" width="42.671" height="20.002" fill="white"/>
<rect x="951.406" y="388.039" width="42.671" height="20.002" fill="white"/>
<rect x="951.406" y="431.376" width="42.671" height="20.002" fill="white"/>
<rect x="931.406" y="451.378" width="106.677" height="20.002" transform="rotate(-90 931.406 451.378)" fill="white"/>
<rect x="1087.42" y="384.705" width="20.002" height="20.002" transform="rotate(-90 1087.42 384.705)" fill="white"/>
<rect x="1087.42" y="451.378" width="20.002" height="20.002" transform="rotate(-90 1087.42 451.378)" fill="white"/>
<rect x="1067.42" y="431.376" width="26.6693" height="20.002" transform="rotate(-90 1067.42 431.376)" fill="white"/>
<rect x="1044.75" y="344.701" width="42.671" height="20.002" fill="white"/>
<rect x="1044.75" y="384.705" width="42.671" height="20.002" fill="white"/>
<rect x="1024.75" y="451.378" width="106.677" height="20.002" transform="rotate(-90 1024.75 451.378)" fill="white"/>
<rect x="192" y="344.701" width="62.673" height="20.002" fill="white"/>
<rect x="172" y="430.043" width="65.3399" height="20.002" transform="rotate(-90 172 430.043)" fill="white"/>
<rect x="234.672" y="430.043" width="41.3375" height="20.002" transform="rotate(-90 234.672 430.043)" fill="white"/>
<rect x="214.672" y="408.041" width="19.3353" height="20.002" transform="rotate(-90 214.672 408.041)" fill="white"/>
<rect x="192" y="430.043" width="42.671" height="20.002" fill="white"/>
<path d="M106.57 992.012V888.175H115.545V909.327H137.981V929.838H158.494V970.219H220.675V949.919H239.906V992.012H220.675V1076.62H200.161V992.012H136.699V1076.62H116.827V992.012H106.57Z" fill="black" stroke="black" stroke-width="1.28201"/>
<path d="M408.498 928.982V908.687H168.109V968.938H198.797V949.277H219.895H344.563V928.982H385.48H408.498Z" fill="#122132" stroke="#122132" stroke-width="1.28201"/>
<path d="M408.507 867.023H116.836V886.893H139.272V908.045H408.507V867.023Z" fill="#182738" stroke="#182738" stroke-width="1.28201"/>
<path d="M93.75 825.36V803.567H186.059V824.719L93.75 825.36Z" fill="#26733D" stroke="#26733D" stroke-width="1.28201"/>
<path d="M106.57 866.383V826.001H239.906V865.176L106.57 866.383Z" fill="#206234" stroke="#206234" stroke-width="1.28201"/>
<path d="M106.57 887.534V866.382H116.186V887.534H138.622V908.686H166.828V929.197H138.622V908.686H116.186V887.534H106.57Z" fill="#26733D"/>
<path d="M116.186 887.534H106.57V866.382H116.186V887.534ZM116.186 887.534V908.686H138.622M116.186 887.534H138.622V908.686M138.622 908.686V929.197H166.828V908.686H138.622Z" stroke="#26733D" stroke-width="1.28201"/>
<path d="M219.398 825.36V803.567H248.886V824.719L219.398 825.36Z" fill="#26733D" stroke="#26733D" stroke-width="1.28201"/>
<path d="M264.268 658.066H79.0086V702.293H41.1875V721.523H303.371V702.293H264.268V658.066Z" fill="#26733D" stroke="#26733D" stroke-width="1.28201"/>
<path d="M88.6172 722.164H255.286V803.567H88.6172V722.164Z" fill="black"/>
<rect x="202.719" y="803.567" width="16.6669" height="21.793" fill="black"/>
<rect x="186.07" y="803.567" width="16.6669" height="21.793" fill="black"/>
<rect x="233.492" y="747.161" width="17.949" height="30.7666" fill="#FAFF15"/>
<rect x="177.086" y="747.161" width="17.949" height="30.7666" fill="#FAFF15"/>
<rect x="89.8906" y="677.937" width="10.2566" height="11.5375" fill="#FF9315"/>
<rect x="246.32" y="663.835" width="10.2566" height="11.5375" fill="#FF9315"/>
<rect x="100.18" y="689.474" width="24.3593" height="11.5375" fill="#FF9315"/>
<rect x="369.391" y="886.893" width="8.97449" height="33.3305" fill="#FF9315"/>
<rect x="366.828" y="845.871" width="20.5131" height="20.5111" fill="#FF9315"/>
<rect x="348.883" y="886.893" width="8.97449" height="33.3305" fill="#FF9315"/>
<rect x="389.922" y="886.893" width="8.97449" height="33.3305" fill="#FF9315"/>
<path d="M167.474 929.838H159.141V969.579H167.474V929.838Z" fill="white"/>
<path d="M220.037 949.929L199.523 949.901V969.578H220.037V949.929Z" fill="white"/>
<rect x="41.2734" y="153.771" width="9.33015" height="9.32921" fill="white"/>
<rect x="975.422" y="127.346" width="9.33015" height="9.32921" fill="white"/>
<rect x="1032.77" y="578.058" width="9.33015" height="9.32921" fill="white"/>
<rect x="1032.77" y="888.09" width="9.33015" height="9.32921" fill="white"/>
<rect x="691.398" y="122.679" width="9.33015" height="9.32921" fill="white"/>
<rect x="1042.1" y="247.358" width="9.33015" height="9.32921" fill="white"/>
<rect x="893.414" y="702.737" width="9.33015" height="9.32921" fill="white"/>
<rect x="518.672" y="785.048" width="9.33015" height="9.32921" fill="white"/>
<rect x="400.492" y="687.091" width="9.33015" height="9.32921" fill="white"/>
<rect x="1131.44" y="722.073" width="9.33015" height="9.32921" fill="white"/>
<rect x="804.797" y="284.381" width="6.2201" height="6.21947" fill="white"/>
<rect x="666.398" y="696.42" width="6.2201" height="6.21947" fill="white"/>
<rect x="695.945" y="931.206" width="6.2201" height="6.21947" fill="white"/>
<rect x="236.688" y="74.0076" width="6.2201" height="6.21947" fill="white"/>
<rect x="97.3359" y="303.364" width="6.2201" height="6.21947" fill="white"/>
<rect x="1244.78" y="193.353" width="6.2201" height="6.21947" fill="white"/>
<rect x="215.438" y="240.844" width="6.2201" height="6.21947" fill="white"/>
<rect x="406.703" y="163.35" width="6.2201" height="6.21947" fill="white"/>
<rect x="300.969" y="500.507" width="6.2201" height="6.21947" fill="white"/>
<rect x="766.734" y="803.415" width="6.2201" height="6.21947" fill="white"/>
<rect x="666.398" y="551.818" width="9.33015" height="9.32921" fill="white"/>
<rect x="117.477" y="461.635" width="9.33015" height="9.32921" fill="white"/>
<rect x="573.383" y="214.688" width="9.33015" height="9.32921" fill="white"/>
<rect x="1251.09" y="491.178" width="9.33015" height="9.32921" fill="white"/>
<rect x="41.3359" y="910.758" width="9.33015" height="9.32921" fill="white"/>
</g>
<defs>
<clipPath id="clip0_419_3869">
<rect width="1280" height="1024" fill="white"/>
</clipPath>
</defs>
</svg>
