<svg width="1440" height="717" viewBox="0 0 1440 717" fill="none" xmlns="http://www.w3.org/2000/svg">
<g clip-path="url(#clip0_372_8576)">
<rect width="1440" height="717" fill="#111111"/>
<path d="M668.375 625.593V558.897H775.099V625.593H668.375Z" fill="#A80000" stroke="#A80000" stroke-width="0.494068"/>
<path d="M668.375 691.503V609.29H675.558V626.037H693.517V642.276H775.099V658.175V674.248V691.503H759.706V758.491H743.287V691.503H692.491V758.491H676.585V691.503H668.375Z" fill="#A80000"/>
<path d="M775.099 658.175V691.503H759.706V758.491H743.287V691.503H692.491V758.491H676.585V691.503H668.375V609.29H675.558V626.037H693.517V642.276H775.099V674.248" stroke="#A80000" stroke-width="0.494068"/>
<path d="M658.492 558.898V542.1H732.112V558.404L658.492 558.898Z" fill="#A80000" stroke="#A80000" stroke-width="0.494068"/>
<path d="M668.375 609.29V591.504H741.501V609.29H668.375Z" fill="#A80000" stroke="#A80000" stroke-width="0.494068"/>
<path d="M741.992 606.82V592.492H775.096V606.82H741.992Z" fill="#A80000" stroke="#A80000" stroke-width="0.494068"/>
<path d="M750.887 643.65V603.361H775.097V643.65H750.887Z" fill="#A80000" stroke="#A80000" stroke-width="0.494068"/>
<path d="M694.064 643.65L693.57 609.784L752.861 609.043V643.65H694.064Z" fill="#A80000" stroke="#A80000" stroke-width="0.494068"/>
<path d="M732.109 558.898V542.1H781.519V558.404L732.109 558.898Z" fill="#A80000" stroke="#A80000" stroke-width="0.494068"/>
<path d="M793.902 426H646.57V461.122H616.492V476.392H824.999V461.122H793.902V426Z" fill="#A80000" stroke="#A80000" stroke-width="0.494068"/>
<path d="M654.539 475.38H786.956V542.1H654.539V475.38Z" fill="#A80000"/>
<rect x="719.262" y="542.1" width="12.8464" height="16.7975" fill="#A80000"/>
<rect x="705.43" y="542.1" width="13.8346" height="16.7975" fill="#A80000"/>
<rect x="735.57" y="497.142" width="14.8228" height="24.2081" fill="#A80000"/>
<path d="M701.477 625.593V607.808H775.096V625.593H701.477Z" fill="#A80000" stroke="#A80000" stroke-width="0.494068"/>
<rect x="691.594" y="497.142" width="13.8346" height="24.2081" fill="#A80000"/>
<rect x="656.02" y="442.303" width="7.90548" height="8.89277" fill="#A80000"/>
<rect x="780.035" y="430.446" width="7.41139" height="9.38681" fill="#A80000"/>
<rect x="663.926" y="451.196" width="19.2696" height="8.89277" fill="#A80000"/>
<rect x="721" y="529" width="3" height="3" transform="rotate(-90 721 529)" fill="#A80000"/>
<path d="M658.895 525.619H647.664V646.778H678.037V631.311H668.126V620.677V557.843H658.895V537.22V525.619Z" fill="#A80000" stroke="#A80000" stroke-width="0.494068"/>
<path d="M626.664 525.619V672.625H636.681V661.317H647.344V525.619H626.664Z" fill="#A80000" stroke="#A80000" stroke-width="0.494068"/>
<rect x="636.68" y="545.328" width="4.52324" height="16.8023" transform="rotate(-90 636.68 545.328)" fill="#A80000"/>
<path d="M616 546.62V536.281H628.34V546.62H616Z" fill="#A80000"/>
<rect x="636.68" y="555.667" width="4.52324" height="16.8023" transform="rotate(-90 636.68 555.667)" fill="#A80000"/>
<rect x="636.68" y="565.915" width="4.52324" height="16.8023" transform="rotate(-90 636.68 565.915)" fill="#A80000"/>
<path d="M646.012 538V525.288H654.551V538H646.012Z" fill="white"/>
<path d="M646 545V533H650V545H646Z" fill="white"/>
<path d="M785.012 438V425.752H794.15V438H785.012Z" fill="white"/>
<path d="M785 465V433H789V465H785Z" fill="white"/>
<path d="M683 487V425.746H687.315L687.34 487H683Z" fill="white"/>
<path d="M702 433.5V425.746H706.315L706.34 433.5H702Z" fill="white"/>
<path d="M686 443V425.746H690.315L690.34 443H686Z" fill="white"/>
<path d="M640.012 470.564V460.872L644.012 460.871V470.564H640.012Z" fill="white"/>
</g>
<defs>
<clipPath id="clip0_372_8576">
<rect width="1440" height="717" fill="white"/>
</clipPath>
</defs>
</svg>
