<svg width="1281" height="1024" viewBox="0 0 1281 1024" fill="none" xmlns="http://www.w3.org/2000/svg">
<g clip-path="url(#clip0_419_3094)">
<rect width="1280" height="1024" transform="translate(0.898438)" fill="#111111"/>
<rect x="908.969" y="364" width="58.7559" height="18.7519" fill="white"/>
<rect x="890.219" y="445.259" width="62.5063" height="18.7519" transform="rotate(-90 890.219 445.259)" fill="white"/>
<rect x="948.977" y="445.259" width="40.004" height="18.7519" transform="rotate(-90 948.977 445.259)" fill="white"/>
<rect x="930.219" y="423.381" width="18.1268" height="18.7519" transform="rotate(-90 930.219 423.381)" fill="white"/>
<rect x="908.969" y="445.259" width="40.004" height="18.7519" fill="white"/>
<rect x="804.312" y="405.433" width="18.5733" height="18.5733" fill="white"/>
<rect x="822.883" y="424.006" width="20.002" height="18.5733" fill="white"/>
<rect x="785.734" y="386.86" width="18.5733" height="18.5733" fill="white"/>
<rect x="767.164" y="464.01" width="100.01" height="18.5733" transform="rotate(-90 767.164 464.01)" fill="white"/>
<rect x="842.883" y="464.01" width="100.01" height="18.5733" transform="rotate(-90 842.883 464.01)" fill="white"/>
<rect x="525.891" y="365.25" width="40.004" height="18.7519" fill="white"/>
<rect x="525.891" y="406.505" width="40.004" height="18.1268" fill="white"/>
<rect x="507.141" y="464.011" width="80.008" height="18.7519" transform="rotate(-90 507.141 464.011)" fill="white"/>
<rect x="565.898" y="464.011" width="80.008" height="18.7519" transform="rotate(-90 565.898 464.011)" fill="white"/>
<rect x="420.25" y="365.25" width="39.379" height="18.7519" fill="white"/>
<rect x="420.25" y="446.509" width="39.379" height="18.7519" fill="white"/>
<rect x="401.5" y="445.259" width="61.2562" height="18.7519" transform="rotate(-90 401.5 445.259)" fill="white"/>
<rect x="459.633" y="445.259" width="61.2562" height="18.7519" transform="rotate(-90 459.633 445.259)" fill="white"/>
<rect x="332.75" y="446.509" width="40.004" height="18.7519" fill="white"/>
<rect x="314" y="465.26" width="100.01" height="18.7519" transform="rotate(-90 314 465.26)" fill="white"/>
<rect x="719.656" y="464.01" width="100.01" height="18.7519" transform="rotate(-90 719.656 464.01)" fill="white"/>
<rect x="672.156" y="445.259" width="62.5063" height="18.7519" transform="rotate(-90 672.156 445.259)" fill="white"/>
<rect x="632.148" y="445.259" width="40.004" height="18.7519" fill="white"/>
<rect x="632.148" y="364" width="40.004" height="18.7519" fill="white"/>
<rect x="613.398" y="464.011" width="100.01" height="18.7519" transform="rotate(-90 613.398 464.011)" fill="white"/>
<rect x="611.117" y="660.28" width="43.7544" height="10.2549" transform="rotate(-90 611.117 660.28)" fill="#206234"/>
<rect x="594.023" y="642.163" width="25.6373" height="10.2549" transform="rotate(-90 594.023 642.163)" fill="#206234"/>
<rect x="627.867" y="642.163" width="25.6373" height="10.2549" transform="rotate(-90 627.867 642.163)" fill="#206234"/>
<rect x="594.023" y="626.78" width="10.2549" height="17.0916" transform="rotate(-90 594.023 626.78)" fill="#206234"/>
<rect x="594.023" y="642.163" width="8.88761" height="17.0916" transform="rotate(-90 594.023 642.163)" fill="#206234"/>
<rect x="628.211" y="642.163" width="8.88761" height="17.0916" transform="rotate(-90 628.211 642.163)" fill="#206234"/>
<rect x="670.25" y="642.847" width="8.88761" height="8.88761" transform="rotate(-90 670.25 642.847)" fill="#206234"/>
<rect x="662.047" y="625.413" width="8.88761" height="8.88761" transform="rotate(-90 662.047 625.413)" fill="#206234"/>
<rect x="678.797" y="633.275" width="16.7497" height="8.88761" transform="rotate(-90 678.797 633.275)" fill="#206234"/>
<rect x="662.047" y="660.28" width="18.1171" height="8.88761" transform="rotate(-90 662.047 660.28)" fill="#206234"/>
<rect x="678.797" y="660.28" width="8.88761" height="8.88761" transform="rotate(-90 678.797 660.28)" fill="#206234"/>
<rect x="627.867" y="626.78" width="10.2549" height="17.0916" transform="rotate(-90 627.867 626.78)" fill="#206234"/>
<rect x="644.961" y="660.28" width="43.7544" height="10.2549" transform="rotate(-90 644.961 660.28)" fill="#206234"/>
</g>
<defs>
<clipPath id="clip0_419_3094">
<rect width="1280" height="1024" fill="white" transform="translate(0.898438)"/>
</clipPath>
</defs>
</svg>
