<svg width="2560" height="1024" viewBox="0 0 2560 1024" fill="none" xmlns="http://www.w3.org/2000/svg">
<g clip-path="url(#clip0_419_6176)">
<rect width="2560" height="1024" fill="#111111"/>
<rect x="1569.64" y="352.001" width="63.3637" height="20.2225" fill="white"/>
<rect x="1549.41" y="439.632" width="67.4082" height="20.2225" transform="rotate(-90 1549.41 439.632)" fill="white"/>
<rect x="1612.77" y="439.632" width="43.1412" height="20.2225" transform="rotate(-90 1612.77 439.632)" fill="white"/>
<rect x="1592.55" y="416.039" width="19.5484" height="20.2225" transform="rotate(-90 1592.55 416.039)" fill="white"/>
<rect x="1569.64" y="439.632" width="43.1412" height="20.2225" fill="white"/>
<rect x="1456.77" y="396.683" width="20.0299" height="20.0299" fill="white"/>
<rect x="1476.8" y="416.713" width="21.5706" height="20.0299" fill="white"/>
<rect x="1436.74" y="376.652" width="20.0299" height="20.0299" fill="white"/>
<rect x="1416.71" y="459.854" width="107.853" height="20.0299" transform="rotate(-90 1416.71 459.854)" fill="white"/>
<rect x="1498.38" y="459.854" width="107.853" height="20.0299" transform="rotate(-90 1498.38 459.854)" fill="white"/>
<rect x="1156.52" y="353.35" width="43.1412" height="20.2225" fill="white"/>
<rect x="1156.52" y="397.84" width="43.1412" height="19.5484" fill="white"/>
<rect x="1136.3" y="459.854" width="86.2825" height="20.2225" transform="rotate(-90 1136.3 459.854)" fill="white"/>
<rect x="1199.66" y="459.854" width="86.2825" height="20.2225" transform="rotate(-90 1199.66 459.854)" fill="white"/>
<rect x="1042.6" y="353.35" width="42.4672" height="20.2225" fill="white"/>
<rect x="1042.6" y="440.98" width="42.4672" height="20.2225" fill="white"/>
<rect x="1022.38" y="439.633" width="66.06" height="20.2225" transform="rotate(-90 1022.38 439.633)" fill="white"/>
<rect x="1085.06" y="439.633" width="66.06" height="20.2225" transform="rotate(-90 1085.06 439.633)" fill="white"/>
<rect x="948.227" y="440.979" width="43.1412" height="20.2225" fill="white"/>
<rect x="928" y="461.202" width="107.853" height="20.2225" transform="rotate(-90 928 461.202)" fill="white"/>
<rect x="1365.48" y="459.854" width="107.853" height="20.2225" transform="rotate(-90 1365.48 459.854)" fill="white"/>
<rect x="1314.25" y="439.631" width="67.4082" height="20.2225" transform="rotate(-90 1314.25 439.631)" fill="white"/>
<rect x="1271.12" y="439.631" width="43.1412" height="20.2225" fill="white"/>
<rect x="1271.12" y="352" width="43.1412" height="20.2225" fill="white"/>
<rect x="1250.89" y="459.854" width="107.853" height="20.2225" transform="rotate(-90 1250.89 459.854)" fill="white"/>
<rect x="1248.42" y="671.515" width="47.1857" height="11.0592" transform="rotate(-90 1248.42 671.515)" fill="#206234"/>
<rect x="1229.99" y="651.977" width="27.6479" height="11.0592" transform="rotate(-90 1229.99 651.977)" fill="#206234"/>
<rect x="1266.48" y="651.977" width="27.6479" height="11.0592" transform="rotate(-90 1266.48 651.977)" fill="#206234"/>
<rect x="1229.99" y="635.389" width="11.0592" height="18.4319" transform="rotate(-90 1229.99 635.389)" fill="#206234"/>
<rect x="1229.99" y="651.977" width="9.5846" height="18.4319" transform="rotate(-90 1229.99 651.977)" fill="#206234"/>
<rect x="1266.85" y="651.977" width="9.5846" height="18.4319" transform="rotate(-90 1266.85 651.977)" fill="#206234"/>
<rect x="1312.2" y="652.715" width="9.5846" height="9.5846" transform="rotate(-90 1312.2 652.715)" fill="#206234"/>
<rect x="1303.35" y="633.914" width="9.5846" height="9.5846" transform="rotate(-90 1303.35 633.914)" fill="#206234"/>
<rect x="1321.41" y="642.393" width="18.0633" height="9.5846" transform="rotate(-90 1321.41 642.393)" fill="#206234"/>
<rect x="1303.35" y="671.515" width="19.5378" height="9.5846" transform="rotate(-90 1303.35 671.515)" fill="#206234"/>
<rect x="1321.41" y="671.515" width="9.5846" height="9.5846" transform="rotate(-90 1321.41 671.515)" fill="#206234"/>
<rect x="1266.48" y="635.389" width="11.0592" height="18.4319" transform="rotate(-90 1266.48 635.389)" fill="#206234"/>
<rect x="1284.92" y="671.515" width="47.1857" height="11.0592" transform="rotate(-90 1284.92 671.515)" fill="#206234"/>
</g>
<defs>
<clipPath id="clip0_419_6176">
<rect width="2560" height="1024" fill="white"/>
</clipPath>
</defs>
</svg>
