<svg width="1440" height="1024" viewBox="0 0 1440 1024" fill="none" xmlns="http://www.w3.org/2000/svg">
<g clip-path="url(#clip0_419_4658)">
<rect width="1440" height="1024" fill="#111111"/>
<rect x="985.023" y="365" width="58.1679" height="18.5642" fill="white"/>
<rect x="966.461" y="445.445" width="61.8808" height="18.5642" transform="rotate(-90 966.461 445.445)" fill="white"/>
<rect x="1024.63" y="445.445" width="39.6037" height="18.5642" transform="rotate(-90 1024.63 445.445)" fill="white"/>
<rect x="1006.07" y="423.787" width="17.9454" height="18.5642" transform="rotate(-90 1006.07 423.787)" fill="white"/>
<rect x="985.023" y="445.445" width="39.6037" height="18.5642" fill="white"/>
<rect x="881.414" y="406.018" width="18.3874" height="18.3874" fill="white"/>
<rect x="899.805" y="424.406" width="19.8018" height="18.3874" fill="white"/>
<rect x="863.031" y="387.631" width="18.3874" height="18.3874" fill="white"/>
<rect x="844.641" y="464.009" width="99.0092" height="18.3874" transform="rotate(-90 844.641 464.009)" fill="white"/>
<rect x="919.602" y="464.009" width="99.0092" height="18.3874" transform="rotate(-90 919.602 464.009)" fill="white"/>
<rect x="605.781" y="366.238" width="39.6037" height="18.5642" fill="white"/>
<rect x="605.781" y="407.08" width="39.6037" height="17.9454" fill="white"/>
<rect x="587.219" y="464.01" width="79.2074" height="18.5642" transform="rotate(-90 587.219 464.01)" fill="white"/>
<rect x="645.391" y="464.01" width="79.2074" height="18.5642" transform="rotate(-90 645.391 464.01)" fill="white"/>
<rect x="501.203" y="366.238" width="38.9849" height="18.5642" fill="white"/>
<rect x="501.203" y="446.683" width="38.9849" height="18.5642" fill="white"/>
<rect x="482.641" y="445.446" width="60.6431" height="18.5642" transform="rotate(-90 482.641 445.446)" fill="white"/>
<rect x="540.188" y="445.446" width="60.6431" height="18.5642" transform="rotate(-90 540.188 445.446)" fill="white"/>
<rect x="414.562" y="446.684" width="39.6037" height="18.5642" fill="white"/>
<rect x="396" y="465.248" width="99.0092" height="18.5642" transform="rotate(-90 396 465.248)" fill="white"/>
<rect x="797.609" y="464.009" width="99.0092" height="18.5642" transform="rotate(-90 797.609 464.009)" fill="white"/>
<rect x="750.594" y="445.445" width="61.8808" height="18.5642" transform="rotate(-90 750.594 445.445)" fill="white"/>
<rect x="710.984" y="445.445" width="39.6037" height="18.5642" fill="white"/>
<rect x="710.984" y="365" width="39.6037" height="18.5642" fill="white"/>
<rect x="692.422" y="464.009" width="99.0092" height="18.5642" transform="rotate(-90 692.422 464.009)" fill="white"/>
<rect x="690.156" y="658.315" width="43.3165" height="10.1523" transform="rotate(-90 690.156 658.315)" fill="#206234"/>
<rect x="673.234" y="640.379" width="25.3808" height="10.1523" transform="rotate(-90 673.234 640.379)" fill="#206234"/>
<rect x="706.734" y="640.379" width="25.3808" height="10.1523" transform="rotate(-90 706.734 640.379)" fill="#206234"/>
<rect x="673.234" y="625.151" width="10.1523" height="16.9205" transform="rotate(-90 673.234 625.151)" fill="#206234"/>
<rect x="673.234" y="640.379" width="8.79867" height="16.9205" transform="rotate(-90 673.234 640.379)" fill="#206234"/>
<rect x="707.07" y="640.379" width="8.79867" height="16.9205" transform="rotate(-90 707.07 640.379)" fill="#206234"/>
<rect x="748.703" y="641.057" width="8.79867" height="8.79867" transform="rotate(-90 748.703 641.057)" fill="#206234"/>
<rect x="740.578" y="623.797" width="8.79867" height="8.79867" transform="rotate(-90 740.578 623.797)" fill="#206234"/>
<rect x="757.156" y="631.581" width="16.5821" height="8.79867" transform="rotate(-90 757.156 631.581)" fill="#206234"/>
<rect x="740.578" y="658.315" width="17.9358" height="8.79867" transform="rotate(-90 740.578 658.315)" fill="#206234"/>
<rect x="757.156" y="658.315" width="8.79867" height="8.79867" transform="rotate(-90 757.156 658.315)" fill="#206234"/>
<rect x="706.734" y="625.151" width="10.1523" height="16.9205" transform="rotate(-90 706.734 625.151)" fill="#206234"/>
<rect x="723.656" y="658.315" width="43.3165" height="10.1523" transform="rotate(-90 723.656 658.315)" fill="#206234"/>
</g>
<defs>
<clipPath id="clip0_419_4658">
<rect width="1440" height="1024" fill="white"/>
</clipPath>
</defs>
</svg>
