<svg width="1024" height="1024" viewBox="0 0 1024 1024" fill="none" xmlns="http://www.w3.org/2000/svg">
<g clip-path="url(#clip0_425_10196)">
<rect width="1024" height="1024" fill="#111111"/>
<rect x="717.039" y="398" width="45.0351" height="14.3729" fill="white"/>
<rect x="702.664" y="460.283" width="47.9096" height="14.3729" transform="rotate(-90 702.664 460.283)" fill="white"/>
<rect x="747.703" y="460.283" width="30.6622" height="14.3729" transform="rotate(-90 747.703 460.283)" fill="white"/>
<rect x="733.32" y="443.514" width="13.8938" height="14.3729" transform="rotate(-90 733.32 443.514)" fill="white"/>
<rect x="717.039" y="460.283" width="30.6622" height="14.3729" fill="white"/>
<rect x="636.82" y="429.758" width="14.236" height="14.236" fill="white"/>
<rect x="651.055" y="443.993" width="15.3311" height="14.236" fill="white"/>
<rect x="622.578" y="415.521" width="14.236" height="14.236" fill="white"/>
<rect x="608.344" y="474.656" width="76.6554" height="14.236" transform="rotate(-90 608.344 474.656)" fill="white"/>
<rect x="666.383" y="474.656" width="76.6554" height="14.236" transform="rotate(-90 666.383 474.656)" fill="white"/>
<rect x="423.414" y="398.959" width="30.6622" height="14.3729" fill="white"/>
<rect x="423.414" y="430.579" width="30.6622" height="13.8938" fill="white"/>
<rect x="409.039" y="474.656" width="61.3243" height="14.3729" transform="rotate(-90 409.039 474.656)" fill="white"/>
<rect x="454.078" y="474.656" width="61.3243" height="14.3729" transform="rotate(-90 454.078 474.656)" fill="white"/>
<rect x="342.453" y="398.958" width="30.1831" height="14.3729" fill="white"/>
<rect x="342.453" y="461.241" width="30.1831" height="14.3729" fill="white"/>
<rect x="328.078" y="460.283" width="46.9515" height="14.3729" transform="rotate(-90 328.078 460.283)" fill="white"/>
<rect x="372.633" y="460.283" width="46.9515" height="14.3729" transform="rotate(-90 372.633 460.283)" fill="white"/>
<rect x="275.375" y="461.241" width="30.6622" height="14.3729" fill="white"/>
<rect x="261" y="475.614" width="76.6554" height="14.3729" transform="rotate(-90 261 475.614)" fill="white"/>
<rect x="571.938" y="474.656" width="76.6554" height="14.3729" transform="rotate(-90 571.938 474.656)" fill="white"/>
<rect x="535.523" y="460.283" width="47.9096" height="14.3729" transform="rotate(-90 535.523 460.283)" fill="white"/>
<rect x="504.859" y="460.283" width="30.6622" height="14.3729" fill="white"/>
<rect x="504.859" y="398" width="30.6622" height="14.3729" fill="white"/>
<rect x="490.484" y="474.656" width="76.6554" height="14.3729" transform="rotate(-90 490.484 474.656)" fill="white"/>
<rect x="488.734" y="625.092" width="33.5367" height="7.86018" transform="rotate(-90 488.734 625.092)" fill="#206234"/>
<rect x="475.633" y="611.206" width="19.6504" height="7.86018" transform="rotate(-90 475.633 611.206)" fill="#206234"/>
<rect x="501.57" y="611.206" width="19.6504" height="7.86018" transform="rotate(-90 501.57 611.206)" fill="#206234"/>
<rect x="475.633" y="599.416" width="7.86018" height="13.1003" transform="rotate(-90 475.633 599.416)" fill="#206234"/>
<rect x="475.633" y="611.206" width="6.81215" height="13.1003" transform="rotate(-90 475.633 611.206)" fill="#206234"/>
<rect x="501.836" y="611.206" width="6.81215" height="13.1003" transform="rotate(-90 501.836 611.206)" fill="#206234"/>
<rect x="534.055" y="611.73" width="6.81215" height="6.81215" transform="rotate(-90 534.055 611.73)" fill="#206234"/>
<rect x="527.773" y="598.367" width="6.81215" height="6.81215" transform="rotate(-90 527.773 598.367)" fill="#206234"/>
<rect x="540.609" y="604.394" width="12.8383" height="6.81215" transform="rotate(-90 540.609 604.394)" fill="#206234"/>
<rect x="527.773" y="625.092" width="13.8863" height="6.81215" transform="rotate(-90 527.773 625.092)" fill="#206234"/>
<rect x="540.609" y="625.092" width="6.81215" height="6.81215" transform="rotate(-90 540.609 625.092)" fill="#206234"/>
<rect x="501.57" y="599.416" width="7.86018" height="13.1003" transform="rotate(-90 501.57 599.416)" fill="#206234"/>
<rect x="514.672" y="625.092" width="33.5367" height="7.86018" transform="rotate(-90 514.672 625.092)" fill="#206234"/>
</g>
<defs>
<clipPath id="clip0_425_10196">
<rect width="1024" height="1024" fill="white"/>
</clipPath>
</defs>
</svg>
