<svg width="425" height="896" viewBox="0 0 425 896" fill="none" xmlns="http://www.w3.org/2000/svg">
<g clip-path="url(#clip0_437_12775)">
<rect width="425" height="896" fill="#111111"/>
<rect x="323.734" y="387.001" width="24.2668" height="7.74472" fill="white"/>
<rect x="315.992" y="420.562" width="25.8157" height="7.74472" transform="rotate(-90 315.992 420.562)" fill="white"/>
<rect x="340.258" y="420.562" width="16.5221" height="7.74472" transform="rotate(-90 340.258 420.562)" fill="white"/>
<rect x="332.508" y="411.525" width="7.48656" height="7.74472" transform="rotate(-90 332.508 411.525)" fill="white"/>
<rect x="323.734" y="420.562" width="16.5221" height="7.74472" fill="white"/>
<rect x="280.508" y="404.113" width="7.67096" height="7.67096" fill="white"/>
<rect x="288.18" y="411.784" width="8.26103" height="7.67096" fill="white"/>
<rect x="272.836" y="396.442" width="7.67096" height="7.67096" fill="white"/>
<rect x="265.164" y="428.307" width="41.3052" height="7.67096" transform="rotate(-90 265.164 428.307)" fill="white"/>
<rect x="296.438" y="428.307" width="41.3052" height="7.67096" transform="rotate(-90 296.438 428.307)" fill="white"/>
<rect x="165.508" y="387.518" width="16.5221" height="7.74472" fill="white"/>
<rect x="165.508" y="404.557" width="16.5221" height="7.48656" fill="white"/>
<rect x="157.766" y="428.307" width="33.0441" height="7.74472" transform="rotate(-90 157.766 428.307)" fill="white"/>
<rect x="182.031" y="428.307" width="33.0441" height="7.74472" transform="rotate(-90 182.031 428.307)" fill="white"/>
<rect x="121.891" y="387.518" width="16.2639" height="7.74472" fill="white"/>
<rect x="121.891" y="421.078" width="16.2639" height="7.74472" fill="white"/>
<rect x="114.148" y="420.562" width="25.2994" height="7.74472" transform="rotate(-90 114.148 420.562)" fill="white"/>
<rect x="138.156" y="420.562" width="25.2994" height="7.74472" transform="rotate(-90 138.156 420.562)" fill="white"/>
<rect x="85.7422" y="421.077" width="16.5221" height="7.74472" fill="white"/>
<rect x="78" y="428.821" width="41.3052" height="7.74472" transform="rotate(-90 78 428.821)" fill="white"/>
<rect x="245.547" y="428.306" width="41.3052" height="7.74472" transform="rotate(-90 245.547 428.306)" fill="white"/>
<rect x="225.922" y="420.562" width="25.8157" height="7.74472" transform="rotate(-90 225.922 420.562)" fill="white"/>
<rect x="209.398" y="420.562" width="16.5221" height="7.74472" fill="white"/>
<rect x="209.398" y="387.001" width="16.5221" height="7.74472" fill="white"/>
<rect x="201.656" y="428.307" width="41.3052" height="7.74472" transform="rotate(-90 201.656 428.307)" fill="white"/>
<rect x="200.711" y="509.366" width="18.071" height="4.23539" transform="rotate(-90 200.711 509.366)" fill="#206234"/>
<rect x="193.648" y="501.884" width="10.5885" height="4.23539" transform="rotate(-90 193.648 501.884)" fill="#206234"/>
<rect x="207.625" y="501.884" width="10.5885" height="4.23539" transform="rotate(-90 207.625 501.884)" fill="#206234"/>
<rect x="193.648" y="495.53" width="4.23539" height="7.05899" transform="rotate(-90 193.648 495.53)" fill="#206234"/>
<rect x="193.648" y="501.884" width="3.67067" height="7.05899" transform="rotate(-90 193.648 501.884)" fill="#206234"/>
<rect x="207.766" y="501.884" width="3.67067" height="7.05899" transform="rotate(-90 207.766 501.884)" fill="#206234"/>
<rect x="225.125" y="502.166" width="3.67067" height="3.67067" transform="rotate(-90 225.125 502.166)" fill="#206234"/>
<rect x="221.742" y="494.966" width="3.67067" height="3.67067" transform="rotate(-90 221.742 494.966)" fill="#206234"/>
<rect x="228.664" y="498.213" width="6.91781" height="3.67067" transform="rotate(-90 228.664 498.213)" fill="#206234"/>
<rect x="221.742" y="509.366" width="7.48253" height="3.67067" transform="rotate(-90 221.742 509.366)" fill="#206234"/>
<rect x="228.664" y="509.366" width="3.67067" height="3.67067" transform="rotate(-90 228.664 509.366)" fill="#206234"/>
<rect x="207.625" y="495.53" width="4.23539" height="7.05899" transform="rotate(-90 207.625 495.53)" fill="#206234"/>
<rect x="214.688" y="509.366" width="18.071" height="4.23539" transform="rotate(-90 214.688 509.366)" fill="#206234"/>
</g>
<defs>
<clipPath id="clip0_437_12775">
<rect width="425" height="896" fill="white"/>
</clipPath>
</defs>
</svg>
