<svg width="1536" height="716" viewBox="0 0 1536 716" fill="none" xmlns="http://www.w3.org/2000/svg">
<g clip-path="url(#clip0_357_721)">
<rect width="1535" height="716" transform="translate(0.996094)" fill="#111111"/>
<rect x="932.957" y="267" width="36.0411" height="11.5025" fill="white"/>
<rect x="921.453" y="316.845" width="38.3416" height="11.5025" transform="rotate(-90 921.453 316.845)" fill="white"/>
<rect x="957.496" y="316.845" width="24.5387" height="11.5025" transform="rotate(-90 957.496 316.845)" fill="white"/>
<rect x="945.992" y="303.425" width="11.1191" height="11.5025" transform="rotate(-90 945.992 303.425)" fill="white"/>
<rect x="932.957" y="316.845" width="24.5387" height="11.5025" fill="white"/>
<rect x="868.762" y="292.415" width="11.3929" height="11.3929" fill="white"/>
<rect x="880.156" y="303.808" width="12.2693" height="11.3929" fill="white"/>
<rect x="857.371" y="281.022" width="11.3929" height="11.3929" fill="white"/>
<rect x="845.977" y="328.347" width="61.3466" height="11.3929" transform="rotate(-90 845.977 328.347)" fill="white"/>
<rect x="892.426" y="328.347" width="61.3466" height="11.3929" transform="rotate(-90 892.426 328.347)" fill="white"/>
<rect x="697.977" y="267.767" width="24.5387" height="11.5025" fill="white"/>
<rect x="697.977" y="293.073" width="24.5387" height="11.1191" fill="white"/>
<rect x="686.473" y="328.347" width="49.0773" height="11.5025" transform="rotate(-90 686.473 328.347)" fill="white"/>
<rect x="722.516" y="328.347" width="49.0773" height="11.5025" transform="rotate(-90 722.516 328.347)" fill="white"/>
<rect x="633.18" y="267.767" width="24.1552" height="11.5025" fill="white"/>
<rect x="633.18" y="317.611" width="24.1552" height="11.5025" fill="white"/>
<rect x="621.676" y="316.845" width="37.5748" height="11.5025" transform="rotate(-90 621.676 316.845)" fill="white"/>
<rect x="657.336" y="316.845" width="37.5748" height="11.5025" transform="rotate(-90 657.336 316.845)" fill="white"/>
<rect x="579.504" y="317.612" width="24.5387" height="11.5025" fill="white"/>
<rect x="568" y="329.114" width="61.3466" height="11.5025" transform="rotate(-90 568 329.114)" fill="white"/>
<rect x="816.832" y="328.347" width="61.3466" height="11.5025" transform="rotate(-90 816.832 328.347)" fill="white"/>
<rect x="787.695" y="316.844" width="38.3416" height="11.5025" transform="rotate(-90 787.695 316.844)" fill="white"/>
<rect x="763.156" y="316.844" width="24.5387" height="11.5025" fill="white"/>
<rect x="763.156" y="267" width="24.5387" height="11.5025" fill="white"/>
<rect x="751.652" y="328.347" width="61.3466" height="11.5025" transform="rotate(-90 751.652 328.347)" fill="white"/>
<rect x="750.246" y="448.74" width="26.8391" height="6.29042" transform="rotate(-90 750.246 448.74)" fill="#206234"/>
<rect x="739.766" y="437.626" width="15.7261" height="6.29042" transform="rotate(-90 739.766 437.626)" fill="#206234"/>
<rect x="760.523" y="437.626" width="15.7261" height="6.29042" transform="rotate(-90 760.523 437.626)" fill="#206234"/>
<rect x="739.766" y="428.191" width="6.29042" height="10.484" transform="rotate(-90 739.766 428.191)" fill="#206234"/>
<rect x="739.766" y="437.626" width="5.4517" height="10.484" transform="rotate(-90 739.766 437.626)" fill="#206234"/>
<rect x="760.734" y="437.626" width="5.4517" height="10.484" transform="rotate(-90 760.734 437.626)" fill="#206234"/>
<rect x="786.527" y="438.046" width="5.4517" height="5.4517" transform="rotate(-90 786.527 438.046)" fill="#206234"/>
<rect x="781.492" y="427.352" width="5.4517" height="5.4517" transform="rotate(-90 781.492 427.352)" fill="#206234"/>
<rect x="791.766" y="432.175" width="10.2744" height="5.4517" transform="rotate(-90 791.766 432.175)" fill="#206234"/>
<rect x="781.492" y="448.74" width="11.1131" height="5.4517" transform="rotate(-90 781.492 448.74)" fill="#206234"/>
<rect x="791.766" y="448.74" width="5.4517" height="5.4517" transform="rotate(-90 791.766 448.74)" fill="#206234"/>
<rect x="760.523" y="428.191" width="6.29042" height="10.484" transform="rotate(-90 760.523 428.191)" fill="#206234"/>
<rect x="771.008" y="448.74" width="26.8391" height="6.29042" transform="rotate(-90 771.008 448.74)" fill="#206234"/>
</g>
<defs>
<clipPath id="clip0_357_721">
<rect width="1535" height="716" fill="white" transform="translate(0.996094)"/>
</clipPath>
</defs>
</svg>
