<svg width="8132" height="350" viewBox="0 0 8132 350" fill="none" xmlns="http://www.w3.org/2000/svg">
<g clip-path="url(#clip0_364_1047)">
<path d="M19.8789 263.777V232.208H22.6074V238.638H29.4285V244.874H35.665V257.151H54.5694V250.979H60.4161V263.777H54.5694V289.499H48.3329V263.777H29.0387V289.499H22.9971V263.777H19.8789Z" fill="black" stroke="black" stroke-width="0.389761"/>
<path d="M111.674 244.614V238.443H38.5898V256.761H47.9196V250.784H54.3339H92.2361V244.614H104.676H111.674Z" fill="#122132" stroke="#122132" stroke-width="0.389761"/>
<path d="M111.671 225.777H22.9961V231.818H29.8172V238.249H111.671V225.777Z" fill="#182738" stroke="#182738" stroke-width="0.389761"/>
<path d="M15.9805 213.11V206.484H44.0446V212.915L15.9805 213.11Z" fill="#26733D" stroke="#26733D" stroke-width="0.389761"/>
<path d="M19.8789 225.582V213.305H60.4161V225.215L19.8789 225.582Z" fill="#206234" stroke="#206234" stroke-width="0.389761"/>
<path d="M19.8789 232.013V225.582H22.8023V232.013H29.6234V238.443H38.1986V244.679H29.6234V238.443H22.8023V232.013H19.8789Z" fill="#26733D"/>
<path d="M22.8023 232.013H19.8789V225.582H22.8023V232.013ZM22.8023 232.013V238.443H29.6234M22.8023 232.013H29.6234V238.443M29.6234 238.443V244.679H38.1986V238.443H29.6234Z" stroke="#26733D" stroke-width="0.389761"/>
<path d="M54.1758 213.11V206.484H63.1407V212.915L54.1758 213.11Z" fill="#26733D" stroke="#26733D" stroke-width="0.389761"/>
<path d="M67.8218 162.249H11.4985V175.695H0V181.541H79.7101V175.695H67.8218V162.249Z" fill="#26733D" stroke="#26733D" stroke-width="0.389761"/>
<path d="M14.4219 181.736H65.0933V206.484H14.4219V181.736Z" fill="black"/>
<rect x="49.1133" y="206.484" width="5.06714" height="6.6256" fill="black"/>
<rect x="44.0469" y="206.484" width="5.06714" height="6.6256" fill="black"/>
<rect x="58.4688" y="189.336" width="5.45692" height="9.35379" fill="#FAFF15"/>
<rect x="41.3164" y="189.336" width="5.45692" height="9.35379" fill="#FAFF15"/>
<rect x="14.8125" y="168.29" width="3.11824" height="3.50767" fill="#FF9315"/>
<rect x="62.3633" y="164.003" width="3.11824" height="3.50767" fill="#FF9315"/>
<rect x="17.9297" y="171.798" width="7.40583" height="3.50767" fill="#FF9315"/>
<rect x="99.7812" y="231.818" width="2.72846" height="10.1333" fill="#FF9315"/>
<rect x="99.0039" y="219.346" width="6.23649" height="6.23586" fill="#FF9315"/>
<rect x="93.5469" y="231.818" width="2.72846" height="10.1333" fill="#FF9315"/>
<rect x="106.02" y="231.818" width="2.72846" height="10.1333" fill="#FF9315"/>
<path d="M22.8008 289.694H29.2321V301.581H22.8008V289.694Z" fill="#26733D"/>
<path d="M48.1367 289.694H54.763V301.581H48.1367V289.694Z" fill="#26733D"/>
<path d="M38.3929 244.874H35.8594V256.956H38.3929V244.874Z" fill="white"/>
<path d="M54.3732 250.982L48.1367 250.974V256.956H54.3732V250.982Z" fill="white"/>
<path d="M443.126 0H390.865V17.488H382.12V34.976H373.375V61.2079H417.099V104.72H425.844V61.2079H452.079V26.232H443.126V0Z" fill="#314A46" stroke="#314A46" stroke-width="0.971603"/>
<rect x="373.375" y="61.208" width="8.74487" height="8.74399" fill="white"/>
<rect x="408.355" y="61.2075" width="8.74487" height="8.74399" fill="white"/>
<rect x="443.332" y="61.2075" width="8.74487" height="8.74399" fill="white"/>
<rect x="443.332" y="96.6001" width="8.74487" height="16.6552" fill="white"/>
<rect x="399.609" y="92.4365" width="8.74487" height="20.819" fill="white"/>
<rect x="373.375" y="104.511" width="8.74487" height="8.74399" fill="white"/>
<rect x="425.844" y="104.511" width="8.74487" height="8.74399" fill="white"/>
<rect x="408.355" y="104.511" width="17.4897" height="8.74399" fill="#6F1E27"/>
<rect x="434.586" y="104.511" width="8.74487" height="8.74399" fill="#6F1E27"/>
<rect x="452.078" y="104.511" width="17.4897" height="8.74399" fill="#6F1E27"/>
<rect x="469.57" y="96.6001" width="8.74487" height="8.74399" fill="#6F1E27"/>
<rect x="425.844" y="61.208" width="8.74487" height="15.8225" fill="white"/>
<rect x="390.863" y="61.208" width="8.74487" height="22.0682" fill="white"/>
<path d="M373.375 113.255L452.079 113.464V174.671H443.271V270.647H443.334H452.079V349.135H443.334V270.647H443.271H434.589V200.903H425.844V183.415H417.099V165.928H408.354V174.671H399.61V192.159H390.865V200.903H382.12V349.135H373.375V113.255Z" fill="#314A46"/>
<path d="M443.334 270.647H443.271V174.671H452.079V113.464L373.375 113.255V349.135H382.12V200.903H390.865V192.159H399.61V174.671H408.354V165.927H417.099V183.415H425.844V200.903H434.589V270.647H443.334ZM443.334 270.647H452.079V349.135H443.334V270.647Z" stroke="#314A46" stroke-width="0.971603"/>
<path d="M498.191 263.777V232.208H500.92V238.638H507.741V244.874H513.978V257.151H532.882V250.979H538.729V263.777H532.882V289.499H526.645V263.777H507.351V289.499H501.31V263.777H498.191Z" fill="black" stroke="black" stroke-width="0.389761"/>
<path d="M589.986 244.614V238.443H516.902V256.761H526.232V250.784H532.646H570.549V244.614H582.988H589.986Z" fill="#122132" stroke="#122132" stroke-width="0.389761"/>
<path d="M589.984 225.777H501.309V231.818H508.13V238.249H589.984V225.777Z" fill="#182738" stroke="#182738" stroke-width="0.389761"/>
<path d="M494.293 213.11V206.484H522.357V212.915L494.293 213.11Z" fill="#26733D" stroke="#26733D" stroke-width="0.389761"/>
<path d="M498.191 225.582V213.305H538.729V225.215L498.191 225.582Z" fill="#206234" stroke="#206234" stroke-width="0.389761"/>
<path d="M498.191 232.013V225.582H501.115V232.013H507.936V238.443H516.511V244.679H507.936V238.443H501.115V232.013H498.191Z" fill="#26733D"/>
<path d="M501.115 232.013H498.191V225.582H501.115V232.013ZM501.115 232.013V238.443H507.936M501.115 232.013H507.936V238.443M507.936 238.443V244.679H516.511V238.443H507.936Z" stroke="#26733D" stroke-width="0.389761"/>
<path d="M532.488 213.11V206.484H541.453V212.915L532.488 213.11Z" fill="#26733D" stroke="#26733D" stroke-width="0.389761"/>
<path d="M546.134 162.249H489.811V175.695H478.312V181.541H558.023V175.695H546.134V162.249Z" fill="#26733D" stroke="#26733D" stroke-width="0.389761"/>
<path d="M492.734 181.736H543.406V206.484H492.734V181.736Z" fill="black"/>
<rect x="527.426" y="206.484" width="5.06714" height="6.6256" fill="black"/>
<rect x="522.359" y="206.484" width="5.06714" height="6.6256" fill="black"/>
<rect x="536.781" y="189.336" width="5.45692" height="9.35379" fill="#FAFF15"/>
<rect x="519.629" y="189.336" width="5.45692" height="9.35379" fill="#FAFF15"/>
<rect x="493.125" y="168.29" width="3.11824" height="3.50767" fill="#FF9315"/>
<rect x="540.676" y="164.003" width="3.11824" height="3.50767" fill="#FF9315"/>
<rect x="496.242" y="171.798" width="7.40583" height="3.50767" fill="#FF9315"/>
<rect x="578.094" y="231.818" width="2.72846" height="10.1333" fill="#FF9315"/>
<rect x="577.316" y="219.346" width="6.23649" height="6.23586" fill="#FF9315"/>
<rect x="571.859" y="231.818" width="2.72846" height="10.1333" fill="#FF9315"/>
<rect x="584.332" y="231.818" width="2.72846" height="10.1333" fill="#FF9315"/>
<path d="M501.113 289.694H507.545V301.581H501.113V289.694Z" fill="#26733D"/>
<path d="M526.449 289.694H533.076V301.581H526.449V289.694Z" fill="#26733D"/>
<path d="M516.705 244.874H514.172V256.956H516.705V244.874Z" fill="white"/>
<path d="M532.686 250.982L526.449 250.974V256.956H532.686V250.982Z" fill="white"/>
<path d="M921.438 0H869.177V17.488H860.432V34.976H851.688V61.2079H895.412V104.72H904.157V61.2079H930.391V26.232H921.438V0Z" fill="#314A46" stroke="#314A46" stroke-width="0.971603"/>
<rect x="851.688" y="61.208" width="8.74487" height="8.74399" fill="white"/>
<rect x="886.668" y="61.2075" width="8.74487" height="8.74399" fill="white"/>
<rect x="921.645" y="61.2075" width="8.74487" height="8.74399" fill="white"/>
<rect x="921.645" y="96.6001" width="8.74487" height="16.6552" fill="white"/>
<rect x="877.922" y="92.4365" width="8.74487" height="20.819" fill="white"/>
<rect x="851.688" y="104.511" width="8.74487" height="8.74399" fill="white"/>
<rect x="904.156" y="104.511" width="8.74487" height="8.74399" fill="white"/>
<rect x="886.668" y="104.511" width="17.4897" height="8.74399" fill="#6F1E27"/>
<rect x="912.898" y="104.511" width="8.74487" height="8.74399" fill="#6F1E27"/>
<rect x="930.391" y="104.511" width="17.4897" height="8.74399" fill="#6F1E27"/>
<rect x="947.883" y="96.6001" width="8.74487" height="8.74399" fill="#6F1E27"/>
<rect x="904.156" y="61.208" width="8.74487" height="15.8225" fill="white"/>
<rect x="869.176" y="61.208" width="8.74487" height="22.0682" fill="white"/>
<path d="M851.688 113.255L930.391 113.464V174.671H921.583V270.647H921.646H930.391V349.135H921.646V270.647H921.583H912.902V200.903H904.157V183.415H895.412V165.928H886.667V174.671H877.922V192.159H869.177V200.903H860.432V349.135H851.688V113.255Z" fill="#314A46"/>
<path d="M921.646 270.647H921.583V174.671H930.391V113.464L851.688 113.255V349.135H860.432V200.903H869.177V192.159H877.922V174.671H886.667V165.927H895.412V183.415H904.157V200.903H912.902V270.647H921.646ZM921.646 270.647H930.391V349.135H921.646V270.647Z" stroke="#314A46" stroke-width="0.971603"/>
<rect x="629.312" y="231" width="8.74487" height="8.74399" fill="#FAFF15"/>
<path d="M976.504 263.777V232.208H979.232V238.638H986.054V244.874H992.29V257.151H1011.19V250.979H1017.04V263.777H1011.19V289.499H1004.96V263.777H985.664V289.499H979.622V263.777H976.504Z" fill="black" stroke="black" stroke-width="0.389761"/>
<path d="M1068.3 244.614V238.443H995.215V256.761H1004.54V250.784H1010.96H1048.86V244.614H1061.3H1068.3Z" fill="#122132" stroke="#122132" stroke-width="0.389761"/>
<path d="M1068.3 225.777H979.621V231.818H986.442V238.249H1068.3V225.777Z" fill="#182738" stroke="#182738" stroke-width="0.389761"/>
<path d="M972.605 213.11V206.484H1000.67V212.915L972.605 213.11Z" fill="#26733D" stroke="#26733D" stroke-width="0.389761"/>
<path d="M976.504 225.582V213.305H1017.04V225.215L976.504 225.582Z" fill="#206234" stroke="#206234" stroke-width="0.389761"/>
<path d="M976.504 232.013V225.582H979.427V232.013H986.248V238.443H994.824V244.679H986.248V238.443H979.427V232.013H976.504Z" fill="#26733D"/>
<path d="M979.427 232.013H976.504V225.582H979.427V232.013ZM979.427 232.013V238.443H986.248M979.427 232.013H986.248V238.443M986.248 238.443V244.679H994.824V238.443H986.248Z" stroke="#26733D" stroke-width="0.389761"/>
<path d="M1010.8 213.11V206.484H1019.77V212.915L1010.8 213.11Z" fill="#26733D" stroke="#26733D" stroke-width="0.389761"/>
<path d="M1024.45 162.249H968.124V175.695H956.625V181.541H1036.34V175.695H1024.45V162.249Z" fill="#26733D" stroke="#26733D" stroke-width="0.389761"/>
<path d="M971.047 181.736H1021.72V206.484H971.047V181.736Z" fill="black"/>
<rect x="1005.74" y="206.484" width="5.06714" height="6.6256" fill="black"/>
<rect x="1000.67" y="206.484" width="5.06714" height="6.6256" fill="black"/>
<rect x="1015.09" y="189.336" width="5.45692" height="9.35379" fill="#FAFF15"/>
<rect x="997.941" y="189.336" width="5.45692" height="9.35379" fill="#FAFF15"/>
<rect x="971.438" y="168.29" width="3.11824" height="3.50767" fill="#FF9315"/>
<rect x="1018.99" y="164.003" width="3.11824" height="3.50767" fill="#FF9315"/>
<rect x="974.555" y="171.798" width="7.40583" height="3.50767" fill="#FF9315"/>
<rect x="1056.41" y="231.818" width="2.72846" height="10.1333" fill="#FF9315"/>
<rect x="1055.63" y="219.346" width="6.23649" height="6.23586" fill="#FF9315"/>
<rect x="1050.17" y="231.818" width="2.72846" height="10.1333" fill="#FF9315"/>
<rect x="1062.64" y="231.818" width="2.72846" height="10.1333" fill="#FF9315"/>
<path d="M979.426 289.694H985.857V301.581H979.426V289.694Z" fill="#26733D"/>
<path d="M1004.76 289.694H1011.39V301.581H1004.76V289.694Z" fill="#26733D"/>
<path d="M995.018 244.874H992.484V256.956H995.018V244.874Z" fill="white"/>
<path d="M1011 250.982L1004.76 250.974V256.956H1011V250.982Z" fill="white"/>
<path d="M1399.75 0H1347.49V17.488H1338.74V34.976H1330V61.2079H1373.72V104.72H1382.47V61.2079H1408.7V26.232H1399.75V0Z" fill="#314A46" stroke="#314A46" stroke-width="0.971603"/>
<rect x="1330" y="61.208" width="8.74487" height="8.74399" fill="white"/>
<rect x="1364.98" y="61.2075" width="8.74487" height="8.74399" fill="white"/>
<rect x="1399.96" y="61.2075" width="8.74487" height="8.74399" fill="white"/>
<rect x="1399.96" y="96.6001" width="8.74487" height="16.6552" fill="white"/>
<rect x="1356.23" y="92.4365" width="8.74487" height="20.819" fill="white"/>
<rect x="1330" y="104.511" width="8.74487" height="8.74399" fill="white"/>
<rect x="1382.47" y="104.511" width="8.74487" height="8.74399" fill="white"/>
<rect x="1364.98" y="104.511" width="17.4897" height="8.74399" fill="#6F1E27"/>
<rect x="1391.21" y="104.511" width="8.74487" height="8.74399" fill="#6F1E27"/>
<rect x="1408.7" y="104.511" width="17.4897" height="8.74399" fill="#6F1E27"/>
<rect x="1426.2" y="96.6001" width="8.74487" height="8.74399" fill="#6F1E27"/>
<rect x="1382.47" y="61.208" width="8.74487" height="15.8225" fill="white"/>
<rect x="1347.49" y="61.208" width="8.74487" height="22.0682" fill="white"/>
<path d="M1330 113.255L1408.7 113.464V174.671H1399.9V270.647H1399.96H1408.7V349.135H1399.96V270.647H1399.9H1391.21V200.903H1382.47V183.415H1373.72V165.928H1364.98V174.671H1356.23V192.159H1347.49V200.903H1338.74V349.135H1330V113.255Z" fill="#314A46"/>
<path d="M1399.96 270.647H1399.9V174.671H1408.7V113.464L1330 113.255V349.135H1338.74V200.903H1347.49V192.159H1356.23V174.671H1364.98V165.927H1373.72V183.415H1382.47V200.903H1391.21V270.647H1399.96ZM1399.96 270.647H1408.7V349.135H1399.96V270.647Z" stroke="#314A46" stroke-width="0.971603"/>
<rect x="1140.62" y="231" width="8.74487" height="8.74399" fill="#FAFF15"/>
<path d="M1454.82 263.777V232.208H1457.55V238.638H1464.37V244.874H1470.61V257.151H1489.51V250.979H1495.36V263.777H1489.51V289.499H1483.27V263.777H1463.98V289.499H1457.94V263.777H1454.82Z" fill="black" stroke="black" stroke-width="0.389761"/>
<path d="M1546.62 244.614V238.443H1473.53V256.761H1482.86V250.784H1489.28H1527.18V244.614H1539.62H1546.62Z" fill="#122132" stroke="#122132" stroke-width="0.389761"/>
<path d="M1546.61 225.777H1457.94V231.818H1464.76V238.249H1546.61V225.777Z" fill="#182738" stroke="#182738" stroke-width="0.389761"/>
<path d="M1450.92 213.11V206.484H1478.99V212.915L1450.92 213.11Z" fill="#26733D" stroke="#26733D" stroke-width="0.389761"/>
<path d="M1454.82 225.582V213.305H1495.36V225.215L1454.82 225.582Z" fill="#206234" stroke="#206234" stroke-width="0.389761"/>
<path d="M1454.82 232.013V225.582H1457.74V232.013H1464.56V238.443H1473.14V244.679H1464.56V238.443H1457.74V232.013H1454.82Z" fill="#26733D"/>
<path d="M1457.74 232.013H1454.82V225.582H1457.74V232.013ZM1457.74 232.013V238.443H1464.56M1457.74 232.013H1464.56V238.443M1464.56 238.443V244.679H1473.14V238.443H1464.56Z" stroke="#26733D" stroke-width="0.389761"/>
<path d="M1489.12 213.11V206.484H1498.08V212.915L1489.12 213.11Z" fill="#26733D" stroke="#26733D" stroke-width="0.389761"/>
<path d="M1502.76 162.249H1446.44V175.695H1434.94V181.541H1514.65V175.695H1502.76V162.249Z" fill="#26733D" stroke="#26733D" stroke-width="0.389761"/>
<path d="M1449.36 181.736H1500.03V206.484H1449.36V181.736Z" fill="black"/>
<rect x="1484.05" y="206.484" width="5.06714" height="6.6256" fill="black"/>
<rect x="1478.99" y="206.484" width="5.06714" height="6.6256" fill="black"/>
<rect x="1493.41" y="189.336" width="5.45692" height="9.35379" fill="#FAFF15"/>
<rect x="1476.26" y="189.336" width="5.45692" height="9.35379" fill="#FAFF15"/>
<rect x="1449.75" y="168.29" width="3.11824" height="3.50767" fill="#FF9315"/>
<rect x="1497.3" y="164.003" width="3.11824" height="3.50767" fill="#FF9315"/>
<rect x="1452.87" y="171.798" width="7.40583" height="3.50767" fill="#FF9315"/>
<rect x="1534.72" y="231.818" width="2.72846" height="10.1333" fill="#FF9315"/>
<rect x="1533.95" y="219.346" width="6.23649" height="6.23586" fill="#FF9315"/>
<rect x="1528.49" y="231.818" width="2.72846" height="10.1333" fill="#FF9315"/>
<rect x="1540.96" y="231.818" width="2.72846" height="10.1333" fill="#FF9315"/>
<path d="M1457.74 289.694H1464.17V301.581H1457.74V289.694Z" fill="#26733D"/>
<path d="M1483.08 289.694H1489.7V301.581H1483.08V289.694Z" fill="#26733D"/>
<path d="M1473.33 244.874H1470.8V256.956H1473.33V244.874Z" fill="white"/>
<path d="M1489.31 250.982L1483.08 250.974V256.956H1489.31V250.982Z" fill="white"/>
<path d="M1878.07 0H1825.81V17.488H1817.06V34.976H1808.32V61.2079H1852.04V104.72H1860.79V61.2079H1887.02V26.232H1878.07V0Z" fill="#314A46" stroke="#314A46" stroke-width="0.971603"/>
<rect x="1808.32" y="61.208" width="8.74487" height="8.74399" fill="white"/>
<rect x="1843.3" y="61.2075" width="8.74487" height="8.74399" fill="white"/>
<rect x="1878.27" y="61.2075" width="8.74487" height="8.74399" fill="white"/>
<rect x="1878.27" y="96.6001" width="8.74487" height="16.6552" fill="white"/>
<rect x="1834.55" y="92.4365" width="8.74487" height="20.819" fill="white"/>
<rect x="1808.32" y="104.511" width="8.74487" height="8.74399" fill="white"/>
<rect x="1860.79" y="104.511" width="8.74487" height="8.74399" fill="white"/>
<rect x="1843.3" y="104.511" width="17.4897" height="8.74399" fill="#6F1E27"/>
<rect x="1869.53" y="104.511" width="8.74487" height="8.74399" fill="#6F1E27"/>
<rect x="1887.02" y="104.511" width="17.4897" height="8.74399" fill="#6F1E27"/>
<rect x="1904.51" y="96.6001" width="8.74487" height="8.74399" fill="#6F1E27"/>
<rect x="1860.79" y="61.208" width="8.74487" height="15.8225" fill="white"/>
<rect x="1825.8" y="61.208" width="8.74487" height="22.0682" fill="white"/>
<path d="M1808.32 113.255L1887.02 113.464V174.671H1878.21V270.647H1878.28H1887.02V349.135H1878.28V270.647H1878.21H1869.53V200.903H1860.79V183.415H1852.04V165.928H1843.3V174.671H1834.55V192.159H1825.81V200.903H1817.06V349.135H1808.32V113.255Z" fill="#314A46"/>
<path d="M1878.28 270.647H1878.21V174.671H1887.02V113.464L1808.32 113.255V349.135H1817.06V200.903H1825.81V192.159H1834.55V174.671H1843.3V165.927H1852.04V183.415H1860.79V200.903H1869.53V270.647H1878.28ZM1878.28 270.647H1887.02V349.135H1878.28V270.647Z" stroke="#314A46" stroke-width="0.971603"/>
<rect x="1653.94" y="231" width="8.74487" height="8.74399" fill="#FAFF15"/>
<path d="M1933.13 263.777V232.208H1935.86V238.638H1942.68V244.874H1948.92V257.151H1967.82V250.979H1973.67V263.777H1967.82V289.499H1961.59V263.777H1942.29V289.499H1936.25V263.777H1933.13Z" fill="black" stroke="black" stroke-width="0.389761"/>
<path d="M2024.93 244.614V238.443H1951.84V256.761H1961.17V250.784H1967.59H2005.49V244.614H2017.93H2024.93Z" fill="#122132" stroke="#122132" stroke-width="0.389761"/>
<path d="M2024.93 225.777H1936.25V231.818H1943.07V238.249H2024.93V225.777Z" fill="#182738" stroke="#182738" stroke-width="0.389761"/>
<path d="M1929.23 213.11V206.484H1957.3V212.915L1929.23 213.11Z" fill="#26733D" stroke="#26733D" stroke-width="0.389761"/>
<path d="M1933.13 225.582V213.305H1973.67V225.215L1933.13 225.582Z" fill="#206234" stroke="#206234" stroke-width="0.389761"/>
<path d="M1933.13 232.013V225.582H1936.06V232.013H1942.88V238.443H1951.45V244.679H1942.88V238.443H1936.06V232.013H1933.13Z" fill="#26733D"/>
<path d="M1936.06 232.013H1933.13V225.582H1936.06V232.013ZM1936.06 232.013V238.443H1942.88M1936.06 232.013H1942.88V238.443M1942.88 238.443V244.679H1951.45V238.443H1942.88Z" stroke="#26733D" stroke-width="0.389761"/>
<path d="M1967.43 213.11V206.484H1976.39V212.915L1967.43 213.11Z" fill="#26733D" stroke="#26733D" stroke-width="0.389761"/>
<path d="M1981.08 162.249H1924.75V175.695H1913.25V181.541H1992.96V175.695H1981.08V162.249Z" fill="#26733D" stroke="#26733D" stroke-width="0.389761"/>
<path d="M1927.68 181.736H1978.35V206.484H1927.68V181.736Z" fill="black"/>
<rect x="1962.37" y="206.484" width="5.06714" height="6.6256" fill="black"/>
<rect x="1957.3" y="206.484" width="5.06714" height="6.6256" fill="black"/>
<rect x="1971.72" y="189.336" width="5.45692" height="9.35379" fill="#FAFF15"/>
<rect x="1954.57" y="189.336" width="5.45692" height="9.35379" fill="#FAFF15"/>
<rect x="1928.07" y="168.29" width="3.11824" height="3.50767" fill="#FF9315"/>
<rect x="1975.62" y="164.003" width="3.11824" height="3.50767" fill="#FF9315"/>
<rect x="1931.18" y="171.798" width="7.40583" height="3.50767" fill="#FF9315"/>
<rect x="2013.04" y="231.818" width="2.72846" height="10.1333" fill="#FF9315"/>
<rect x="2012.26" y="219.346" width="6.23649" height="6.23586" fill="#FF9315"/>
<rect x="2006.8" y="231.818" width="2.72846" height="10.1333" fill="#FF9315"/>
<rect x="2019.27" y="231.818" width="2.72846" height="10.1333" fill="#FF9315"/>
<path d="M1936.05 289.694H1942.49V301.581H1936.05V289.694Z" fill="#26733D"/>
<path d="M1961.39 289.694H1968.02V301.581H1961.39V289.694Z" fill="#26733D"/>
<path d="M1951.65 244.874H1949.11V256.956H1951.65V244.874Z" fill="white"/>
<path d="M1967.63 250.982L1961.39 250.974V256.956H1967.63V250.982Z" fill="white"/>
<path d="M2356.38 0H2304.12V17.488H2295.37V34.976H2286.63V61.2079H2330.35V104.72H2339.1V61.2079H2365.33V26.232H2356.38V0Z" fill="#314A46" stroke="#314A46" stroke-width="0.971603"/>
<rect x="2286.63" y="61.208" width="8.74487" height="8.74399" fill="white"/>
<rect x="2321.61" y="61.2075" width="8.74487" height="8.74399" fill="white"/>
<rect x="2356.59" y="61.2075" width="8.74487" height="8.74399" fill="white"/>
<rect x="2356.59" y="96.6001" width="8.74487" height="16.6552" fill="white"/>
<rect x="2312.86" y="92.4365" width="8.74487" height="20.819" fill="white"/>
<rect x="2286.63" y="104.511" width="8.74487" height="8.74399" fill="white"/>
<rect x="2339.1" y="104.511" width="8.74487" height="8.74399" fill="white"/>
<rect x="2321.61" y="104.511" width="17.4897" height="8.74399" fill="#6F1E27"/>
<rect x="2347.84" y="104.511" width="8.74487" height="8.74399" fill="#6F1E27"/>
<rect x="2365.33" y="104.511" width="17.4897" height="8.74399" fill="#6F1E27"/>
<rect x="2382.82" y="96.6001" width="8.74487" height="8.74399" fill="#6F1E27"/>
<rect x="2339.1" y="61.208" width="8.74487" height="15.8225" fill="white"/>
<rect x="2304.12" y="61.208" width="8.74487" height="22.0682" fill="white"/>
<path d="M2286.63 113.255L2365.33 113.464V174.671H2356.52V270.647H2356.59H2365.33V349.135H2356.59V270.647H2356.52H2347.84V200.903H2339.1V183.415H2330.35V165.928H2321.61V174.671H2312.86V192.159H2304.12V200.903H2295.37V349.135H2286.63V113.255Z" fill="#314A46"/>
<path d="M2356.59 270.647H2356.52V174.671H2365.33V113.464L2286.63 113.255V349.135H2295.37V200.903H2304.12V192.159H2312.86V174.671H2321.61V165.927H2330.35V183.415H2339.1V200.903H2347.84V270.647H2356.59ZM2356.59 270.647H2365.33V349.135H2356.59V270.647Z" stroke="#314A46" stroke-width="0.971603"/>
<rect x="2188.25" y="231" width="8.74487" height="8.74399" fill="#FAFF15"/>
<path d="M2411.45 263.777V232.208H2414.17V238.638H2420.99V244.874H2427.23V257.151H2446.14V250.979H2451.98V263.777H2446.14V289.499H2439.9V263.777H2420.61V289.499H2414.56V263.777H2411.45Z" fill="black" stroke="black" stroke-width="0.389761"/>
<path d="M2503.24 244.614V238.443H2430.16V256.761H2439.49V250.784H2445.9H2483.8V244.614H2496.24H2503.24Z" fill="#122132" stroke="#122132" stroke-width="0.389761"/>
<path d="M2503.24 225.777H2414.56V231.818H2421.38V238.249H2503.24V225.777Z" fill="#182738" stroke="#182738" stroke-width="0.389761"/>
<path d="M2407.55 213.11V206.484H2435.61V212.915L2407.55 213.11Z" fill="#26733D" stroke="#26733D" stroke-width="0.389761"/>
<path d="M2411.45 225.582V213.305H2451.98V225.215L2411.45 225.582Z" fill="#206234" stroke="#206234" stroke-width="0.389761"/>
<path d="M2411.45 232.013V225.582H2414.37V232.013H2421.19V238.443H2429.76V244.679H2421.19V238.443H2414.37V232.013H2411.45Z" fill="#26733D"/>
<path d="M2414.37 232.013H2411.45V225.582H2414.37V232.013ZM2414.37 232.013V238.443H2421.19M2414.37 232.013H2421.19V238.443M2421.19 238.443V244.679H2429.76V238.443H2421.19Z" stroke="#26733D" stroke-width="0.389761"/>
<path d="M2445.74 213.11V206.484H2454.71V212.915L2445.74 213.11Z" fill="#26733D" stroke="#26733D" stroke-width="0.389761"/>
<path d="M2459.39 162.249H2403.06V175.695H2391.57V181.541H2471.28V175.695H2459.39V162.249Z" fill="#26733D" stroke="#26733D" stroke-width="0.389761"/>
<path d="M2405.99 181.736H2456.66V206.484H2405.99V181.736Z" fill="black"/>
<rect x="2440.68" y="206.484" width="5.06714" height="6.6256" fill="black"/>
<rect x="2435.61" y="206.484" width="5.06714" height="6.6256" fill="black"/>
<rect x="2450.04" y="189.336" width="5.45692" height="9.35379" fill="#FAFF15"/>
<rect x="2432.88" y="189.336" width="5.45692" height="9.35379" fill="#FAFF15"/>
<rect x="2406.38" y="168.29" width="3.11824" height="3.50767" fill="#FF9315"/>
<rect x="2453.93" y="164.003" width="3.11824" height="3.50767" fill="#FF9315"/>
<rect x="2409.5" y="171.798" width="7.40583" height="3.50767" fill="#FF9315"/>
<rect x="2491.35" y="231.818" width="2.72846" height="10.1333" fill="#FF9315"/>
<rect x="2490.57" y="219.346" width="6.23649" height="6.23586" fill="#FF9315"/>
<rect x="2485.11" y="231.818" width="2.72846" height="10.1333" fill="#FF9315"/>
<rect x="2497.59" y="231.818" width="2.72846" height="10.1333" fill="#FF9315"/>
<path d="M2414.37 289.694H2420.8V301.581H2414.37V289.694Z" fill="#26733D"/>
<path d="M2439.7 289.694H2446.33V301.581H2439.7V289.694Z" fill="#26733D"/>
<path d="M2429.96 244.874H2427.43V256.956H2429.96V244.874Z" fill="white"/>
<path d="M2445.94 250.982L2439.7 250.974V256.956H2445.94V250.982Z" fill="white"/>
<path d="M2834.69 0H2782.43V17.488H2773.69V34.976H2764.94V61.2079H2808.67V104.72H2817.41V61.2079H2843.65V26.232H2834.69V0Z" fill="#314A46" stroke="#314A46" stroke-width="0.971603"/>
<rect x="2764.94" y="61.208" width="8.74487" height="8.74399" fill="white"/>
<rect x="2799.92" y="61.2075" width="8.74487" height="8.74399" fill="white"/>
<rect x="2834.9" y="61.2075" width="8.74487" height="8.74399" fill="white"/>
<rect x="2834.9" y="96.6001" width="8.74487" height="16.6552" fill="white"/>
<rect x="2791.18" y="92.4365" width="8.74487" height="20.819" fill="white"/>
<rect x="2764.94" y="104.511" width="8.74487" height="8.74399" fill="white"/>
<rect x="2817.41" y="104.511" width="8.74487" height="8.74399" fill="white"/>
<rect x="2799.92" y="104.511" width="17.4897" height="8.74399" fill="#6F1E27"/>
<rect x="2826.15" y="104.511" width="8.74487" height="8.74399" fill="#6F1E27"/>
<rect x="2843.64" y="104.511" width="17.4897" height="8.74399" fill="#6F1E27"/>
<rect x="2861.14" y="96.6001" width="8.74487" height="8.74399" fill="#6F1E27"/>
<rect x="2817.41" y="61.208" width="8.74487" height="15.8225" fill="white"/>
<rect x="2782.43" y="61.208" width="8.74487" height="22.0682" fill="white"/>
<path d="M2764.94 113.255L2843.65 113.464V174.671H2834.84V270.647H2834.9H2843.65V349.135H2834.9V270.647H2834.84H2826.16V200.903H2817.41V183.415H2808.67V165.928H2799.92V174.671H2791.18V192.159H2782.43V200.903H2773.69V349.135H2764.94V113.255Z" fill="#314A46"/>
<path d="M2834.9 270.647H2834.84V174.671H2843.65V113.464L2764.94 113.255V349.135H2773.69V200.903H2782.43V192.159H2791.18V174.671H2799.92V165.927H2808.67V183.415H2817.41V200.903H2826.16V270.647H2834.9ZM2834.9 270.647H2843.65V349.135H2834.9V270.647Z" stroke="#314A46" stroke-width="0.971603"/>
<rect x="2710.57" y="231" width="8.74487" height="8.74399" fill="#FAFF15"/>
<path d="M2889.76 263.777V232.208H2892.49V238.638H2899.31V244.874H2905.54V257.151H2924.45V250.979H2930.29V263.777H2924.45V289.499H2918.21V263.777H2898.92V289.499H2892.88V263.777H2889.76Z" fill="black" stroke="black" stroke-width="0.389761"/>
<path d="M2981.55 244.614V238.443H2908.47V256.761H2917.8V250.784H2924.21H2962.11V244.614H2974.55H2981.55Z" fill="#122132" stroke="#122132" stroke-width="0.389761"/>
<path d="M2981.55 225.777H2892.88V231.818H2899.7V238.249H2981.55V225.777Z" fill="#182738" stroke="#182738" stroke-width="0.389761"/>
<path d="M2885.86 213.11V206.484H2913.92V212.915L2885.86 213.11Z" fill="#26733D" stroke="#26733D" stroke-width="0.389761"/>
<path d="M2889.76 225.582V213.305H2930.29V225.215L2889.76 225.582Z" fill="#206234" stroke="#206234" stroke-width="0.389761"/>
<path d="M2889.76 232.013V225.582H2892.68V232.013H2899.5V238.443H2908.08V244.679H2899.5V238.443H2892.68V232.013H2889.76Z" fill="#26733D"/>
<path d="M2892.68 232.013H2889.76V225.582H2892.68V232.013ZM2892.68 232.013V238.443H2899.5M2892.68 232.013H2899.5V238.443M2899.5 238.443V244.679H2908.08V238.443H2899.5Z" stroke="#26733D" stroke-width="0.389761"/>
<path d="M2924.05 213.11V206.484H2933.02V212.915L2924.05 213.11Z" fill="#26733D" stroke="#26733D" stroke-width="0.389761"/>
<path d="M2937.7 162.249H2881.38V175.695H2869.88V181.541H2949.59V175.695H2937.7V162.249Z" fill="#26733D" stroke="#26733D" stroke-width="0.389761"/>
<path d="M2884.3 181.736H2934.97V206.484H2884.3V181.736Z" fill="black"/>
<rect x="2918.99" y="206.484" width="5.06714" height="6.6256" fill="black"/>
<rect x="2913.93" y="206.484" width="5.06714" height="6.6256" fill="black"/>
<rect x="2928.35" y="189.336" width="5.45692" height="9.35379" fill="#FAFF15"/>
<rect x="2911.2" y="189.336" width="5.45692" height="9.35379" fill="#FAFF15"/>
<rect x="2884.69" y="168.29" width="3.11824" height="3.50767" fill="#FF9315"/>
<rect x="2932.24" y="164.003" width="3.11824" height="3.50767" fill="#FF9315"/>
<rect x="2887.81" y="171.798" width="7.40583" height="3.50767" fill="#FF9315"/>
<rect x="2969.66" y="231.818" width="2.72846" height="10.1333" fill="#FF9315"/>
<rect x="2968.88" y="219.346" width="6.23649" height="6.23586" fill="#FF9315"/>
<rect x="2963.43" y="231.818" width="2.72846" height="10.1333" fill="#FF9315"/>
<rect x="2975.9" y="231.818" width="2.72846" height="10.1333" fill="#FF9315"/>
<path d="M2892.68 289.694H2899.11V301.581H2892.68V289.694Z" fill="#26733D"/>
<path d="M2918.02 289.694H2924.64V301.581H2918.02V289.694Z" fill="#26733D"/>
<path d="M2908.27 244.874H2905.74V256.956H2908.27V244.874Z" fill="white"/>
<path d="M2924.25 250.982L2918.02 250.974V256.956H2924.25V250.982Z" fill="white"/>
<path d="M3313 0H3260.74V17.488H3252V34.976H3243.25V61.2079H3286.98V104.72H3295.72V61.2079H3321.96V26.232H3313V0Z" fill="#314A46" stroke="#314A46" stroke-width="0.971603"/>
<rect x="3243.25" y="61.208" width="8.74487" height="8.74399" fill="white"/>
<rect x="3278.23" y="61.2075" width="8.74487" height="8.74399" fill="white"/>
<rect x="3313.21" y="61.2075" width="8.74487" height="8.74399" fill="white"/>
<rect x="3313.21" y="96.6001" width="8.74487" height="16.6552" fill="white"/>
<rect x="3269.49" y="92.4365" width="8.74487" height="20.819" fill="white"/>
<rect x="3243.25" y="104.511" width="8.74487" height="8.74399" fill="white"/>
<rect x="3295.72" y="104.511" width="8.74487" height="8.74399" fill="white"/>
<rect x="3278.23" y="104.511" width="17.4897" height="8.74399" fill="#6F1E27"/>
<rect x="3304.46" y="104.511" width="8.74487" height="8.74399" fill="#6F1E27"/>
<rect x="3321.96" y="104.511" width="17.4897" height="8.74399" fill="#6F1E27"/>
<rect x="3339.45" y="96.6001" width="8.74487" height="8.74399" fill="#6F1E27"/>
<rect x="3295.72" y="61.208" width="8.74487" height="15.8225" fill="white"/>
<rect x="3260.74" y="61.208" width="8.74487" height="22.0682" fill="white"/>
<path d="M3243.25 113.255L3321.96 113.464V174.671H3313.15V270.647H3313.21H3321.96V349.135H3313.21V270.647H3313.15H3304.47V200.903H3295.72V183.415H3286.98V165.928H3278.23V174.671H3269.49V192.159H3260.74V200.903H3252V349.135H3243.25V113.255Z" fill="#314A46"/>
<path d="M3313.21 270.647H3313.15V174.671H3321.96V113.464L3243.25 113.255V349.135H3252V200.903H3260.74V192.159H3269.49V174.671H3278.23V165.927H3286.98V183.415H3295.72V200.903H3304.47V270.647H3313.21ZM3313.21 270.647H3321.96V349.135H3313.21V270.647Z" stroke="#314A46" stroke-width="0.971603"/>
<rect x="3238.88" y="231" width="8.74487" height="8.74399" fill="#FAFF15"/>
<path d="M3368.07 263.777V232.208H3370.8V238.638H3377.62V244.874H3383.86V257.151H3402.76V250.979H3408.61V263.777H3402.76V289.499H3396.53V263.777H3377.23V289.499H3371.19V263.777H3368.07Z" fill="black" stroke="black" stroke-width="0.389761"/>
<path d="M3459.87 244.614V238.443H3386.79V256.761H3396.11V250.784H3402.53H3440.43V244.614H3452.87H3459.87Z" fill="#122132" stroke="#122132" stroke-width="0.389761"/>
<path d="M3459.87 225.777H3371.19V231.818H3378.01V238.249H3459.87V225.777Z" fill="#182738" stroke="#182738" stroke-width="0.389761"/>
<path d="M3364.18 213.11V206.484H3392.24V212.915L3364.18 213.11Z" fill="#26733D" stroke="#26733D" stroke-width="0.389761"/>
<path d="M3368.07 225.582V213.305H3408.61V225.215L3368.07 225.582Z" fill="#206234" stroke="#206234" stroke-width="0.389761"/>
<path d="M3368.07 232.013V225.582H3371V232.013H3377.82V238.443H3386.39V244.679H3377.82V238.443H3371V232.013H3368.07Z" fill="#26733D"/>
<path d="M3371 232.013H3368.07V225.582H3371V232.013ZM3371 232.013V238.443H3377.82M3371 232.013H3377.82V238.443M3377.82 238.443V244.679H3386.39V238.443H3377.82Z" stroke="#26733D" stroke-width="0.389761"/>
<path d="M3402.37 213.11V206.484H3411.34V212.915L3402.37 213.11Z" fill="#26733D" stroke="#26733D" stroke-width="0.389761"/>
<path d="M3416.02 162.249H3359.69V175.695H3348.2V181.541H3427.91V175.695H3416.02V162.249Z" fill="#26733D" stroke="#26733D" stroke-width="0.389761"/>
<path d="M3362.62 181.736H3413.29V206.484H3362.62V181.736Z" fill="black"/>
<rect x="3397.31" y="206.484" width="5.06714" height="6.6256" fill="black"/>
<rect x="3392.24" y="206.484" width="5.06714" height="6.6256" fill="black"/>
<rect x="3406.66" y="189.336" width="5.45692" height="9.35379" fill="#FAFF15"/>
<rect x="3389.51" y="189.336" width="5.45692" height="9.35379" fill="#FAFF15"/>
<rect x="3363.01" y="168.29" width="3.11824" height="3.50767" fill="#FF9315"/>
<rect x="3410.56" y="164.003" width="3.11824" height="3.50767" fill="#FF9315"/>
<rect x="3366.12" y="171.798" width="7.40583" height="3.50767" fill="#FF9315"/>
<rect x="3447.98" y="231.818" width="2.72846" height="10.1333" fill="#FF9315"/>
<rect x="3447.2" y="219.346" width="6.23649" height="6.23586" fill="#FF9315"/>
<rect x="3441.74" y="231.818" width="2.72846" height="10.1333" fill="#FF9315"/>
<rect x="3454.21" y="231.818" width="2.72846" height="10.1333" fill="#FF9315"/>
<path d="M3371 289.694H3377.43V301.581H3371V289.694Z" fill="#26733D"/>
<path d="M3396.33 289.694H3402.96V301.581H3396.33V289.694Z" fill="#26733D"/>
<path d="M3386.59 244.874H3384.05V256.956H3386.59V244.874Z" fill="white"/>
<path d="M3402.57 250.982L3396.33 250.974V256.956H3402.57V250.982Z" fill="white"/>
<path d="M3791.32 0H3739.06V17.488H3730.32V34.976H3721.57V61.2079H3765.29V104.72H3774.04V61.2079H3800.27V26.232H3791.32V0Z" fill="#314A46" stroke="#314A46" stroke-width="0.971603"/>
<rect x="3721.57" y="61.208" width="8.74487" height="8.74399" fill="white"/>
<rect x="3756.55" y="61.2075" width="8.74487" height="8.74399" fill="white"/>
<rect x="3791.53" y="61.2075" width="8.74487" height="8.74399" fill="white"/>
<rect x="3791.53" y="96.6001" width="8.74487" height="16.6552" fill="white"/>
<rect x="3747.8" y="92.4365" width="8.74487" height="20.819" fill="white"/>
<rect x="3721.57" y="104.511" width="8.74487" height="8.74399" fill="white"/>
<rect x="3774.04" y="104.511" width="8.74487" height="8.74399" fill="white"/>
<rect x="3756.55" y="104.511" width="17.4897" height="8.74399" fill="#6F1E27"/>
<rect x="3782.78" y="104.511" width="8.74487" height="8.74399" fill="#6F1E27"/>
<rect x="3800.27" y="104.511" width="17.4897" height="8.74399" fill="#6F1E27"/>
<rect x="3817.77" y="96.6001" width="8.74487" height="8.74399" fill="#6F1E27"/>
<rect x="3774.04" y="61.208" width="8.74487" height="15.8225" fill="white"/>
<rect x="3739.06" y="61.208" width="8.74487" height="22.0682" fill="white"/>
<path d="M3721.57 113.255L3800.27 113.464V174.671H3791.47V270.647H3791.53H3800.27V349.135H3791.53V270.647H3791.47H3782.78V200.903H3774.04V183.415H3765.29V165.928H3756.55V174.671H3747.8V192.159H3739.06V200.903H3730.32V349.135H3721.57V113.255Z" fill="#314A46"/>
<path d="M3791.53 270.647H3791.47V174.671H3800.27V113.464L3721.57 113.255V349.135H3730.32V200.903H3739.06V192.159H3747.8V174.671H3756.55V165.927H3765.29V183.415H3774.04V200.903H3782.78V270.647H3791.53ZM3791.53 270.647H3800.27V349.135H3791.53V270.647Z" stroke="#314A46" stroke-width="0.971603"/>
<rect x="3717.2" y="231" width="8.74487" height="8.74399" fill="#111111"/>
<path d="M3846.4 263.78V232.211H3849.13V238.642H3855.96V244.878H3862.2V257.154H3881.12V250.983H3886.97V263.78H3881.12V289.503H3874.88V263.78H3855.57V289.503H3849.52V263.78H3846.4Z" fill="black" stroke="black" stroke-width="0.389761"/>
<path d="M3938.27 244.617V238.447H3865.13V256.765H3874.47V250.787H3880.89H3918.82V244.617H3931.27H3938.27Z" fill="#122132" stroke="#122132" stroke-width="0.389761"/>
<path d="M3938.27 225.78H3849.52V231.821H3856.35V238.252H3938.27V225.78Z" fill="#182738" stroke="#182738" stroke-width="0.389761"/>
<path d="M3842.5 213.113V206.487H3870.59V212.918L3842.5 213.113Z" fill="#26733D" stroke="#26733D" stroke-width="0.389761"/>
<path d="M3846.4 225.585V213.308H3886.97V225.218L3846.4 225.585Z" fill="#206234" stroke="#206234" stroke-width="0.389761"/>
<path d="M3846.4 232.016V225.585H3849.33V232.016H3856.15V238.447H3864.74V244.683H3856.15V238.447H3849.33V232.016H3846.4Z" fill="#26733D"/>
<path d="M3849.33 232.016H3846.4V225.585H3849.33V232.016ZM3849.33 232.016V238.447H3856.15M3849.33 232.016H3856.15V238.447M3856.15 238.447V244.683H3864.74V238.447H3856.15Z" stroke="#26733D" stroke-width="0.389761"/>
<path d="M3880.73 213.113V206.487H3889.7V212.918L3880.73 213.113Z" fill="#26733D" stroke="#26733D" stroke-width="0.389761"/>
<path d="M3894.38 162.251H3838.02V175.698H3826.51V181.544H3906.28V175.698H3894.38V162.251Z" fill="#26733D" stroke="#26733D" stroke-width="0.389761"/>
<path d="M3840.94 181.738H3891.65V206.487H3840.94V181.738Z" fill="black"/>
<rect x="3875.66" y="206.487" width="5.07106" height="6.6256" fill="black"/>
<rect x="3870.59" y="206.487" width="5.07106" height="6.6256" fill="black"/>
<rect x="3885.02" y="189.339" width="5.46115" height="9.35379" fill="#FAFF15"/>
<rect x="3867.86" y="189.339" width="5.46115" height="9.35379" fill="#FAFF15"/>
<rect x="3841.33" y="168.292" width="3.12066" height="3.50767" fill="#FF9315"/>
<rect x="3888.92" y="164.005" width="3.12066" height="3.50767" fill="#FF9315"/>
<rect x="3844.45" y="171.8" width="7.41156" height="3.50767" fill="#FF9315"/>
<rect x="3926.37" y="231.821" width="2.73057" height="10.1333" fill="#FF9315"/>
<rect x="3925.59" y="219.349" width="6.24131" height="6.23586" fill="#FF9315"/>
<rect x="3920.13" y="231.821" width="2.73057" height="10.1333" fill="#FF9315"/>
<rect x="3932.61" y="231.821" width="2.73057" height="10.1333" fill="#FF9315"/>
<path d="M3849.33 289.699H3855.76V301.586H3849.33V289.699Z" fill="#26733D"/>
<path d="M3874.68 289.699H3881.32V301.586H3874.68V289.699Z" fill="#26733D"/>
<path d="M3864.93 244.877H3862.39V256.959H3864.93V244.877Z" fill="white"/>
<path d="M3880.92 250.986L3874.68 250.978V256.96H3880.92V250.986Z" fill="white"/>
<path d="M4269.6 0H4217.3V17.4882H4208.55V34.9765H4199.8V61.2088H4243.56V104.721H4252.31V61.2088H4278.56V26.2324H4269.6V0Z" fill="#314A46" stroke="#314A46" stroke-width="0.971603"/>
<rect x="4199.8" y="61.209" width="8.75164" height="8.74399" fill="white"/>
<rect x="4234.8" y="61.2085" width="8.75164" height="8.74399" fill="white"/>
<rect x="4269.81" y="61.2085" width="8.75164" height="8.74399" fill="white"/>
<rect x="4269.81" y="96.6016" width="8.75164" height="16.6552" fill="white"/>
<rect x="4226.05" y="92.438" width="8.75164" height="20.819" fill="white"/>
<rect x="4199.8" y="104.513" width="8.75164" height="8.74399" fill="white"/>
<rect x="4252.3" y="104.513" width="8.75164" height="8.74399" fill="white"/>
<rect x="4234.8" y="104.513" width="17.5033" height="8.74399" fill="#6F1E27"/>
<rect x="4261.05" y="104.513" width="8.75164" height="8.74399" fill="#6F1E27"/>
<rect x="4278.56" y="104.513" width="17.5033" height="8.74399" fill="#6F1E27"/>
<rect x="4296.07" y="96.6016" width="8.75164" height="8.74399" fill="#6F1E27"/>
<rect x="4252.3" y="61.209" width="8.75164" height="15.8225" fill="white"/>
<rect x="4217.3" y="61.209" width="8.75164" height="22.0682" fill="white"/>
<path d="M4199.8 113.257L4278.56 113.465V174.674H4269.75V270.651H4269.81H4278.56V349.14H4269.81V270.651H4269.75H4261.06V200.906H4252.31V183.418H4243.56V165.93H4234.8V174.674H4226.05V192.162H4217.3V200.906H4208.55V349.14H4199.8V113.257Z" fill="#314A46"/>
<path d="M4269.81 270.651H4269.75V174.674H4278.56V113.465L4199.8 113.257V349.14H4208.55V200.906H4217.3V192.162H4226.05V174.674H4234.8V165.93H4243.56V183.418H4252.31V200.906H4261.06V270.651H4269.81ZM4269.81 270.651H4278.56V349.14H4269.81V270.651Z" stroke="#314A46" stroke-width="0.971603"/>
<rect x="4195.79" y="208.003" width="8.75164" height="8.74399" fill="#111111"/>
<rect x="4252.84" y="145.002" width="8.75164" height="8.74399" fill="#111111"/>
<rect x="4234.82" y="130.002" width="8.75164" height="8.74399" fill="#111111"/>
<rect x="4208.8" y="171.002" width="8.75164" height="8.74399" fill="#111111"/>
<rect x="4270.85" y="116.001" width="8.75164" height="8.74399" fill="#111111"/>
<path d="M4207.8 17.0005H4216.81V25.7445H4207.8V17.0005Z" fill="#111111"/>
<rect x="4243.83" y="38.0005" width="8.75164" height="8.74399" fill="#111111"/>
<rect x="4225.82" width="8.75164" height="8.74399" fill="#111111"/>
<rect x="4207.8" y="143.002" width="8.75164" height="8.74399" fill="#111111"/>
<rect x="4261.84" y="190.003" width="8.75164" height="8.74399" fill="#111111"/>
<rect x="4195.79" y="231.003" width="8.75164" height="8.74399" fill="#111111"/>
<rect x="4195.2" y="231" width="8.74487" height="8.74399" fill="#111111"/>
<path d="M4324.71 263.777V232.208H4327.45V238.638H4334.27V244.874H4340.51V257.151H4359.43V250.979H4365.28V263.777H4359.43V289.499H4353.19V263.777H4333.88V289.499H4327.84V263.777H4324.71Z" fill="black" stroke="black" stroke-width="0.389761"/>
<path d="M4416.58 244.614V238.443H4343.44V256.761H4352.78V250.784H4359.2H4397.13V244.614H4409.58H4416.58Z" fill="#122132" stroke="#122132" stroke-width="0.389761"/>
<path d="M4416.58 225.777H4327.84V231.818H4334.66V238.249H4416.58V225.777Z" fill="#182738" stroke="#182738" stroke-width="0.389761"/>
<path d="M4320.81 213.11V206.484H4348.9V212.915L4320.81 213.11Z" fill="#26733D" stroke="#26733D" stroke-width="0.389761"/>
<path d="M4324.71 225.582V213.305H4365.28V225.215L4324.71 225.582Z" fill="#206234" stroke="#206234" stroke-width="0.389761"/>
<path d="M4324.71 232.013V225.582H4327.64V232.013H4334.47V238.443H4343.05V244.679H4334.47V238.443H4327.64V232.013H4324.71Z" fill="#26733D"/>
<path d="M4327.64 232.013H4324.71V225.582H4327.64V232.013ZM4327.64 232.013V238.443H4334.47M4327.64 232.013H4334.47V238.443M4334.47 238.443V244.679H4343.05V238.443H4334.47Z" stroke="#26733D" stroke-width="0.389761"/>
<path d="M4359.04 213.11V206.484H4368.01V212.915L4359.04 213.11Z" fill="#26733D" stroke="#26733D" stroke-width="0.389761"/>
<path d="M4372.69 162.249H4316.33V175.695H4304.82V181.541H4384.59V175.695H4372.69V162.249Z" fill="#26733D" stroke="#26733D" stroke-width="0.389761"/>
<path d="M4319.25 181.736H4369.96V206.484H4319.25V181.736Z" fill="black"/>
<rect x="4353.97" y="206.484" width="5.07106" height="6.6256" fill="black"/>
<rect x="4348.9" y="206.484" width="5.07106" height="6.6256" fill="black"/>
<rect x="4363.34" y="189.336" width="5.46115" height="9.35379" fill="#FAFF15"/>
<rect x="4346.17" y="189.336" width="5.46115" height="9.35379" fill="#FAFF15"/>
<rect x="4319.64" y="168.29" width="3.12066" height="3.50767" fill="#FF9315"/>
<rect x="4367.23" y="164.003" width="3.12066" height="3.50767" fill="#FF9315"/>
<rect x="4322.77" y="171.798" width="7.41156" height="3.50767" fill="#FF9315"/>
<rect x="4404.68" y="231.818" width="2.73057" height="10.1333" fill="#FF9315"/>
<rect x="4403.9" y="219.346" width="6.24131" height="6.23586" fill="#FF9315"/>
<rect x="4398.44" y="231.818" width="2.73057" height="10.1333" fill="#FF9315"/>
<rect x="4410.92" y="231.818" width="2.73057" height="10.1333" fill="#FF9315"/>
<path d="M4327.64 289.694H4334.08V301.581H4327.64V289.694Z" fill="#26733D"/>
<path d="M4353 289.694H4359.63V301.581H4353V289.694Z" fill="#26733D"/>
<path d="M4343.24 244.874H4340.71V256.956H4343.24V244.874Z" fill="white"/>
<path d="M4359.24 250.982L4353 250.974V256.956H4359.24V250.982Z" fill="white"/>
<path d="M4747.91 0H4695.61V17.488H4686.86V34.976H4678.11V61.2079H4721.87V104.72H4730.62V61.2079H4756.87V26.232H4747.91V0Z" fill="#314A46" stroke="#314A46" stroke-width="0.971603"/>
<rect x="4678.11" y="61.208" width="8.75164" height="8.74399" fill="white"/>
<rect x="4713.12" y="61.2075" width="8.75164" height="8.74399" fill="white"/>
<rect x="4748.12" y="61.2075" width="8.75164" height="8.74399" fill="white"/>
<rect x="4748.12" y="96.6001" width="8.75164" height="16.6552" fill="white"/>
<rect x="4704.36" y="92.4365" width="8.75164" height="20.819" fill="white"/>
<rect x="4678.11" y="104.511" width="8.75164" height="8.74399" fill="white"/>
<rect x="4730.62" y="104.511" width="8.75164" height="8.74399" fill="white"/>
<rect x="4713.12" y="104.511" width="17.5033" height="8.74399" fill="#6F1E27"/>
<rect x="4739.37" y="104.511" width="8.75164" height="8.74399" fill="#6F1E27"/>
<rect x="4756.87" y="104.511" width="17.5033" height="8.74399" fill="#6F1E27"/>
<rect x="4774.38" y="96.6001" width="8.75164" height="8.74399" fill="#6F1E27"/>
<rect x="4730.62" y="61.208" width="8.75164" height="15.8225" fill="white"/>
<rect x="4695.61" y="61.208" width="8.75164" height="22.0682" fill="white"/>
<path d="M4678.11 113.255L4756.87 113.464V174.671H4748.06V270.647H4748.12H4756.87V349.135H4748.12V270.647H4748.06H4739.37V200.903H4730.62V183.415H4721.87V165.928H4713.12V174.671H4704.36V192.159H4695.61V200.903H4686.86V349.135H4678.11V113.255Z" fill="#314A46"/>
<path d="M4748.12 270.647H4748.06V174.671H4756.87V113.464L4678.11 113.255V349.135H4686.86V200.903H4695.61V192.159H4704.36V174.671H4713.12V165.927H4721.87V183.415H4730.62V200.903H4739.37V270.647H4748.12ZM4748.12 270.647H4756.87V349.135H4748.12V270.647Z" stroke="#314A46" stroke-width="0.971603"/>
<rect x="4674.11" y="208" width="8.75164" height="8.74399" fill="#111111"/>
<rect x="4731.15" y="145" width="8.75164" height="8.74399" fill="#111111"/>
<rect x="4713.14" y="130" width="8.75164" height="8.74399" fill="#111111"/>
<rect x="4687.12" y="171" width="8.75164" height="8.74399" fill="#111111"/>
<rect x="4749.16" y="116" width="8.75164" height="8.74399" fill="#111111"/>
<path d="M4686.11 17H4695.12V25.744H4686.11V17Z" fill="#111111"/>
<rect x="4722.14" y="38" width="8.75164" height="8.74399" fill="#111111"/>
<rect x="4704.13" width="8.75164" height="8.74399" fill="#111111"/>
<rect x="4686.11" y="143" width="8.75164" height="8.74399" fill="#111111"/>
<rect x="4740.16" y="190" width="8.75164" height="8.74399" fill="#111111"/>
<rect x="4674.11" y="231" width="8.75164" height="8.74399" fill="#111111"/>
<rect x="4674.2" y="231" width="8.74487" height="8.74399" fill="#111111"/>
<path d="M4803.02 263.777V232.208H4805.75V238.638H4812.58V244.874H4818.82V257.151H4837.74V250.979H4843.59V263.777H4837.74V289.499H4831.5V263.777H4812.19V289.499H4806.14V263.777H4803.02Z" fill="black" stroke="black" stroke-width="0.389761"/>
<path d="M4894.89 244.614V238.443H4821.75V256.761H4831.09V250.784H4837.51H4875.44V244.614H4887.89H4894.89Z" fill="#122132" stroke="#122132" stroke-width="0.389761"/>
<path d="M4894.89 225.777H4806.14V231.818H4812.97V238.249H4894.89V225.777Z" fill="#182738" stroke="#182738" stroke-width="0.389761"/>
<path d="M4799.12 213.11V206.484H4827.21V212.915L4799.12 213.11Z" fill="#26733D" stroke="#26733D" stroke-width="0.389761"/>
<path d="M4803.02 225.582V213.305H4843.59V225.215L4803.02 225.582Z" fill="#206234" stroke="#206234" stroke-width="0.389761"/>
<path d="M4803.02 232.013V225.582H4805.95V232.013H4812.78V238.443H4821.36V244.679H4812.78V238.443H4805.95V232.013H4803.02Z" fill="#26733D"/>
<path d="M4805.95 232.013H4803.02V225.582H4805.95V232.013ZM4805.95 232.013V238.443H4812.78M4805.95 232.013H4812.78V238.443M4812.78 238.443V244.679H4821.36V238.443H4812.78Z" stroke="#26733D" stroke-width="0.389761"/>
<path d="M4837.35 213.11V206.484H4846.32V212.915L4837.35 213.11Z" fill="#26733D" stroke="#26733D" stroke-width="0.389761"/>
<path d="M4851 162.249H4794.64V175.695H4783.13V181.541H4862.9V175.695H4851V162.249Z" fill="#26733D" stroke="#26733D" stroke-width="0.389761"/>
<path d="M4797.56 181.736H4848.27V206.484H4797.56V181.736Z" fill="black"/>
<rect x="4832.28" y="206.484" width="5.07106" height="6.6256" fill="black"/>
<rect x="4827.21" y="206.484" width="5.07106" height="6.6256" fill="black"/>
<rect x="4841.64" y="189.336" width="5.46115" height="9.35379" fill="#FAFF15"/>
<rect x="4824.48" y="189.336" width="5.46115" height="9.35379" fill="#FAFF15"/>
<rect x="4797.95" y="168.29" width="3.12066" height="3.50767" fill="#FF9315"/>
<rect x="4845.54" y="164.003" width="3.12066" height="3.50767" fill="#FF9315"/>
<rect x="4801.07" y="171.798" width="7.41156" height="3.50767" fill="#FF9315"/>
<rect x="4882.99" y="231.818" width="2.73057" height="10.1333" fill="#FF9315"/>
<rect x="4882.21" y="219.346" width="6.24131" height="6.23586" fill="#FF9315"/>
<rect x="4876.75" y="231.818" width="2.73057" height="10.1333" fill="#FF9315"/>
<rect x="4889.23" y="231.818" width="2.73057" height="10.1333" fill="#FF9315"/>
<path d="M4805.95 289.694H4812.39V301.581H4805.95V289.694Z" fill="#26733D"/>
<path d="M4831.3 289.694H4837.94V301.581H4831.3V289.694Z" fill="#26733D"/>
<path d="M4821.55 244.874H4819.02V256.956H4821.55V244.874Z" fill="white"/>
<path d="M4837.55 250.982L4831.3 250.974V256.956H4837.55V250.982Z" fill="white"/>
<path d="M5226.22 0H5173.92V17.488H5165.17V34.976H5156.41V61.2079H5200.17V104.72H5208.92V61.2079H5235.18V26.232H5226.22V0Z" fill="#314A46" stroke="#314A46" stroke-width="0.971603"/>
<rect x="5156.41" y="61.208" width="8.75164" height="8.74399" fill="white"/>
<rect x="5191.42" y="61.2075" width="8.75164" height="8.74399" fill="white"/>
<rect x="5226.43" y="61.2075" width="8.75164" height="8.74399" fill="white"/>
<rect x="5226.43" y="96.6001" width="8.75164" height="16.6552" fill="white"/>
<rect x="5182.67" y="92.4365" width="8.75164" height="20.819" fill="white"/>
<rect x="5156.41" y="104.511" width="8.75164" height="8.74399" fill="white"/>
<rect x="5208.93" y="104.511" width="8.75164" height="8.74399" fill="white"/>
<rect x="5191.42" y="104.511" width="17.5033" height="8.74399" fill="#6F1E27"/>
<rect x="5217.67" y="104.511" width="8.75164" height="8.74399" fill="#6F1E27"/>
<rect x="5235.18" y="104.511" width="17.5033" height="8.74399" fill="#6F1E27"/>
<rect x="5252.68" y="96.6001" width="8.75164" height="8.74399" fill="#6F1E27"/>
<rect x="5208.93" y="61.208" width="8.75164" height="15.8225" fill="white"/>
<rect x="5173.92" y="61.208" width="8.75164" height="22.0682" fill="white"/>
<path d="M5156.41 113.255L5235.18 113.464V174.671H5226.36V270.647H5226.43H5235.18V349.135H5226.43V270.647H5226.36H5217.68V200.903H5208.92V183.415H5200.17V165.928H5191.42V174.671H5182.67V192.159H5173.92V200.903H5165.17V349.135H5156.41V113.255Z" fill="#314A46"/>
<path d="M5226.43 270.647H5226.36V174.671H5235.18V113.464L5156.41 113.255V349.135H5165.17V200.903H5173.92V192.159H5182.67V174.671H5191.42V165.927H5200.17V183.415H5208.92V200.903H5217.68V270.647H5226.43ZM5226.43 270.647H5235.18V349.135H5226.43V270.647Z" stroke="#314A46" stroke-width="0.971603"/>
<rect x="5155.41" y="121" width="8.75164" height="8.74399" fill="#111111"/>
<rect x="5209.46" y="145" width="8.75164" height="8.74399" fill="#111111"/>
<rect x="5191.44" y="130" width="8.75164" height="8.74399" fill="#111111"/>
<rect x="5183.44" y="158" width="8.75164" height="8.74399" fill="#111111"/>
<rect x="5218.46" y="125" width="8.75164" height="8.74399" fill="#111111"/>
<rect x="5160.42" y="216" width="8.75164" height="8.74399" fill="#111111"/>
<rect x="5213.46" y="241" width="8.75164" height="8.74399" fill="#111111"/>
<rect x="5221.46" y="265" width="8.75164" height="8.74399" fill="#111111"/>
<rect x="5165.42" y="171" width="8.75164" height="8.74399" fill="#111111"/>
<rect x="5227.47" y="116" width="8.75164" height="8.74399" fill="#111111"/>
<path d="M5164.42 17H5173.43V25.744H5164.42V17Z" fill="#111111"/>
<rect x="5200.45" y="38" width="8.75164" height="8.74399" fill="#111111"/>
<path d="M5155.41 52.5H5164.17V61.244H5155.41V52.5Z" fill="#111111"/>
<path d="M5218.46 8H5227.21V16.744H5218.46V8Z" fill="#111111"/>
<rect x="5182.43" width="8.75164" height="8.74399" fill="#111111"/>
<rect x="5164.42" y="143" width="8.75164" height="8.74399" fill="#111111"/>
<rect x="5218.46" y="190" width="8.75164" height="8.74399" fill="#111111"/>
<rect x="5152.41" y="231" width="8.75164" height="8.74399" fill="#111111"/>
<rect x="5152.2" y="231" width="8.74487" height="8.74399" fill="#111111"/>
<path d="M5281.33 263.777V232.208H5284.06V238.638H5290.89V244.874H5297.13V257.151H5316.05V250.979H5321.9V263.777H5316.05V289.499H5309.81V263.777H5290.5V289.499H5284.45V263.777H5281.33Z" fill="black" stroke="black" stroke-width="0.389761"/>
<path d="M5373.2 244.614V238.443H5300.06V256.761H5309.4V250.784H5315.81H5353.75V244.614H5366.2H5373.2Z" fill="#122132" stroke="#122132" stroke-width="0.389761"/>
<path d="M5373.2 225.777H5284.45V231.818H5291.28V238.249H5373.2V225.777Z" fill="#182738" stroke="#182738" stroke-width="0.389761"/>
<path d="M5277.43 213.11V206.484H5305.52V212.915L5277.43 213.11Z" fill="#26733D" stroke="#26733D" stroke-width="0.389761"/>
<path d="M5281.33 225.582V213.305H5321.9V225.215L5281.33 225.582Z" fill="#206234" stroke="#206234" stroke-width="0.389761"/>
<path d="M5281.33 232.013V225.582H5284.26V232.013H5291.08V238.443H5299.67V244.679H5291.08V238.443H5284.26V232.013H5281.33Z" fill="#26733D"/>
<path d="M5284.26 232.013H5281.33V225.582H5284.26V232.013ZM5284.26 232.013V238.443H5291.08M5284.26 232.013H5291.08V238.443M5291.08 238.443V244.679H5299.67V238.443H5291.08Z" stroke="#26733D" stroke-width="0.389761"/>
<path d="M5315.66 213.11V206.484H5324.63V212.915L5315.66 213.11Z" fill="#26733D" stroke="#26733D" stroke-width="0.389761"/>
<path d="M5329.31 162.249H5272.94V175.695H5261.44V181.541H5341.21V175.695H5329.31V162.249Z" fill="#26733D" stroke="#26733D" stroke-width="0.389761"/>
<path d="M5275.87 181.736H5326.58V206.484H5275.87V181.736Z" fill="black"/>
<rect x="5310.59" y="206.484" width="5.07106" height="6.6256" fill="black"/>
<rect x="5305.52" y="206.484" width="5.07106" height="6.6256" fill="black"/>
<rect x="5319.95" y="189.336" width="5.46115" height="9.35379" fill="#FAFF15"/>
<rect x="5302.79" y="189.336" width="5.46115" height="9.35379" fill="#FAFF15"/>
<rect x="5276.26" y="168.29" width="3.12066" height="3.50767" fill="#FF9315"/>
<rect x="5323.85" y="164.003" width="3.12066" height="3.50767" fill="#FF9315"/>
<rect x="5279.38" y="171.798" width="7.41156" height="3.50767" fill="#FF9315"/>
<rect x="5361.3" y="231.818" width="2.73057" height="10.1333" fill="#FF9315"/>
<rect x="5360.52" y="219.346" width="6.24131" height="6.23586" fill="#FF9315"/>
<rect x="5355.06" y="231.818" width="2.73057" height="10.1333" fill="#FF9315"/>
<rect x="5367.54" y="231.818" width="2.73057" height="10.1333" fill="#FF9315"/>
<path d="M5284.26 289.694H5290.69V301.581H5284.26V289.694Z" fill="#26733D"/>
<path d="M5309.61 289.694H5316.24V301.581H5309.61V289.694Z" fill="#26733D"/>
<path d="M5299.86 244.874H5297.32V256.956H5299.86V244.874Z" fill="white"/>
<path d="M5315.85 250.982L5309.61 250.974V256.956H5315.85V250.982Z" fill="white"/>
<path d="M5704.53 0H5652.23V17.488H5643.48V34.976H5634.73V61.2079H5678.48V104.72H5687.24V61.2079H5713.49V26.232H5704.53V0Z" fill="#314A46" stroke="#314A46" stroke-width="0.971603"/>
<rect x="5634.73" y="61.208" width="8.75164" height="8.74399" fill="white"/>
<rect x="5669.73" y="61.2075" width="8.75164" height="8.74399" fill="white"/>
<rect x="5704.74" y="61.2075" width="8.75164" height="8.74399" fill="white"/>
<rect x="5704.74" y="96.6001" width="8.75164" height="16.6552" fill="white"/>
<rect x="5660.98" y="92.4365" width="8.75164" height="20.819" fill="white"/>
<rect x="5634.73" y="104.511" width="8.75164" height="8.74399" fill="white"/>
<rect x="5687.23" y="104.511" width="8.75164" height="8.74399" fill="white"/>
<rect x="5669.73" y="104.511" width="17.5033" height="8.74399" fill="#6F1E27"/>
<rect x="5695.98" y="104.511" width="8.75164" height="8.74399" fill="#6F1E27"/>
<rect x="5713.49" y="104.511" width="17.5033" height="8.74399" fill="#6F1E27"/>
<rect x="5731" y="96.6001" width="8.75164" height="8.74399" fill="#6F1E27"/>
<rect x="5687.23" y="61.208" width="8.75164" height="15.8225" fill="white"/>
<rect x="5652.23" y="61.208" width="8.75164" height="22.0682" fill="white"/>
<path d="M5634.73 113.255L5713.49 113.464V174.671H5704.68V270.647H5704.74H5713.49V349.135H5704.74V270.647H5704.68H5695.99V200.903H5687.24V183.415H5678.48V165.928H5669.73V174.671H5660.98V192.159H5652.23V200.903H5643.48V349.135H5634.73V113.255Z" fill="#314A46"/>
<path d="M5704.74 270.647H5704.68V174.671H5713.49V113.464L5634.73 113.255V349.135H5643.48V200.903H5652.23V192.159H5660.98V174.671H5669.73V165.927H5678.48V183.415H5687.24V200.903H5695.99V270.647H5704.74ZM5704.74 270.647H5713.49V349.135H5704.74V270.647Z" stroke="#314A46" stroke-width="0.971603"/>
<rect x="5633.73" y="121" width="8.75164" height="8.74399" fill="#111111"/>
<rect x="5687.77" y="145" width="8.75164" height="8.74399" fill="#111111"/>
<rect x="5696.77" y="171" width="8.75164" height="8.74399" fill="#111111"/>
<rect x="5705.78" y="158" width="8.75164" height="8.74399" fill="#111111"/>
<rect x="5669.75" y="130" width="8.75164" height="8.74399" fill="#111111"/>
<rect x="5661.75" y="158" width="8.75164" height="8.74399" fill="#111111"/>
<rect x="5696.77" y="125" width="8.75164" height="8.74399" fill="#111111"/>
<rect x="5638.73" y="216" width="8.75164" height="8.74399" fill="#111111"/>
<rect x="5691.77" y="241" width="8.75164" height="8.74399" fill="#111111"/>
<rect x="5699.78" y="265" width="8.75164" height="8.74399" fill="#111111"/>
<rect x="5629.72" y="290" width="8.75164" height="8.74399" fill="#111111"/>
<rect x="5700.78" y="337" width="8.75164" height="8.74399" fill="#111111"/>
<rect x="5709.79" y="306" width="8.75164" height="8.74399" fill="#111111"/>
<rect x="5629.72" y="326" width="8.75164" height="8.74399" fill="#111111"/>
<rect x="5643.73" y="171" width="8.75164" height="8.74399" fill="#111111"/>
<rect x="5705.78" y="116" width="8.75164" height="8.74399" fill="#111111"/>
<path d="M5642.73 17H5651.74V25.744H5642.73V17Z" fill="#111111"/>
<rect x="5678.76" y="38" width="8.75164" height="8.74399" fill="#111111"/>
<rect x="5674.76" y="83" width="8.75164" height="8.74399" fill="#111111"/>
<rect x="5665.75" y="109" width="8.75164" height="8.74399" fill="#111111"/>
<rect x="5718.79" y="101" width="8.75164" height="8.74399" fill="#111111"/>
<rect x="5655.74" y="31" width="8.75164" height="8.74399" fill="#111111"/>
<rect x="5639.73" y="22" width="8.75164" height="8.74399" fill="#111111"/>
<rect x="5709.79" y="57" width="8.75164" height="8.74399" fill="#111111"/>
<rect x="5690.77" y="69" width="8.75164" height="8.74399" fill="#111111"/>
<rect x="5664.75" y="57" width="8.75164" height="8.74399" fill="#111111"/>
<path d="M5633.73 52.5H5642.48V61.244H5633.73V52.5Z" fill="#111111"/>
<path d="M5696.77 8H5705.53V16.744H5696.77V8Z" fill="#111111"/>
<rect x="5660.75" width="8.75164" height="8.74399" fill="#111111"/>
<rect x="5642.73" y="143" width="8.75164" height="8.74399" fill="#111111"/>
<rect x="5696.77" y="190" width="8.75164" height="8.74399" fill="#111111"/>
<rect x="5630.72" y="231" width="8.75164" height="8.74399" fill="#111111"/>
<rect x="5630.2" y="231" width="8.74487" height="8.74399" fill="#111111"/>
<path d="M5759.64 263.777V232.208H5762.37V238.638H5769.2V244.874H5775.44V257.151H5794.36V250.979H5800.21V263.777H5794.36V289.499H5788.12V263.777H5768.81V289.499H5762.76V263.777H5759.64Z" fill="black" stroke="black" stroke-width="0.389761"/>
<path d="M5851.51 244.614V238.443H5778.37V256.761H5787.7V250.784H5794.12H5832.05V244.614H5844.5H5851.51Z" fill="#122132" stroke="#122132" stroke-width="0.389761"/>
<path d="M5851.51 225.777H5762.76V231.818H5769.59V238.249H5851.51V225.777Z" fill="#182738" stroke="#182738" stroke-width="0.389761"/>
<path d="M5755.74 213.11V206.484H5783.82V212.915L5755.74 213.11Z" fill="#26733D" stroke="#26733D" stroke-width="0.389761"/>
<path d="M5759.64 225.582V213.305H5800.21V225.215L5759.64 225.582Z" fill="#206234" stroke="#206234" stroke-width="0.389761"/>
<path d="M5759.64 232.013V225.582H5762.57V232.013H5769.39V238.443H5777.97V244.679H5769.39V238.443H5762.57V232.013H5759.64Z" fill="#26733D"/>
<path d="M5762.57 232.013H5759.64V225.582H5762.57V232.013ZM5762.57 232.013V238.443H5769.39M5762.57 232.013H5769.39V238.443M5769.39 238.443V244.679H5777.97V238.443H5769.39Z" stroke="#26733D" stroke-width="0.389761"/>
<path d="M5793.96 213.11V206.484H5802.94V212.915L5793.96 213.11Z" fill="#26733D" stroke="#26733D" stroke-width="0.389761"/>
<path d="M5807.62 162.249H5751.25V175.695H5739.75V181.541H5819.52V175.695H5807.62V162.249Z" fill="#26733D" stroke="#26733D" stroke-width="0.389761"/>
<path d="M5754.18 181.736H5804.89V206.484H5754.18V181.736Z" fill="black"/>
<rect x="5788.9" y="206.484" width="5.07106" height="6.6256" fill="black"/>
<rect x="5783.83" y="206.484" width="5.07106" height="6.6256" fill="black"/>
<rect x="5798.26" y="189.336" width="5.46115" height="9.35379" fill="#FAFF15"/>
<rect x="5781.09" y="189.336" width="5.46115" height="9.35379" fill="#FAFF15"/>
<rect x="5754.57" y="168.29" width="3.12066" height="3.50767" fill="#FF9315"/>
<rect x="5802.16" y="164.003" width="3.12066" height="3.50767" fill="#FF9315"/>
<rect x="5757.69" y="171.798" width="7.41156" height="3.50767" fill="#FF9315"/>
<rect x="5839.61" y="231.818" width="2.73057" height="10.1333" fill="#FF9315"/>
<rect x="5838.83" y="219.346" width="6.24131" height="6.23586" fill="#FF9315"/>
<rect x="5833.37" y="231.818" width="2.73057" height="10.1333" fill="#FF9315"/>
<rect x="5845.85" y="231.818" width="2.73057" height="10.1333" fill="#FF9315"/>
<path d="M5762.57 289.694H5769V301.581H5762.57V289.694Z" fill="#26733D"/>
<path d="M5787.92 289.694H5794.55V301.581H5787.92V289.694Z" fill="#26733D"/>
<path d="M5778.17 244.874H5775.63V256.956H5778.17V244.874Z" fill="white"/>
<path d="M5794.16 250.982L5787.92 250.974V256.956H5794.16V250.982Z" fill="white"/>
<rect x="6109.03" y="231" width="8.75164" height="8.74399" fill="#111111"/>
<g opacity="0.8">
<path d="M6182.84 0H6130.54V17.488H6121.79V34.976H6113.04V61.2079H6156.79V104.72H6165.54V61.2079H6191.8V26.232H6182.84V0Z" fill="#314A46" stroke="#314A46" stroke-width="0.971603"/>
<rect x="6113.04" y="61.208" width="8.75164" height="8.74399" fill="white"/>
<rect x="6148.04" y="61.2075" width="8.75164" height="8.74399" fill="white"/>
<rect x="6183.05" y="61.2075" width="8.75164" height="8.74399" fill="white"/>
<rect x="6183.05" y="96.6001" width="8.75164" height="16.6552" fill="white"/>
<rect x="6139.29" y="92.4365" width="8.75164" height="20.819" fill="white"/>
<rect x="6113.04" y="104.511" width="8.75164" height="8.74399" fill="white"/>
<rect x="6165.54" y="104.511" width="8.75164" height="8.74399" fill="white"/>
<rect x="6148.04" y="104.511" width="17.5033" height="8.74399" fill="#6F1E27"/>
<rect x="6174.29" y="104.511" width="8.75164" height="8.74399" fill="#6F1E27"/>
<rect x="6191.8" y="104.511" width="17.5033" height="8.74399" fill="#6F1E27"/>
<rect x="6209.3" y="96.6001" width="8.75164" height="8.74399" fill="#6F1E27"/>
<rect x="6165.54" y="61.208" width="8.75164" height="15.8225" fill="white"/>
<rect x="6130.54" y="61.208" width="8.75164" height="22.0682" fill="white"/>
<path d="M6113.04 113.255L6191.8 113.464V174.671H6182.98V270.647H6183.05H6191.8V349.135H6183.05V270.647H6182.98H6174.3V200.903H6165.54V183.415H6156.79V165.928H6148.04V174.671H6139.29V192.159H6130.54V200.903H6121.79V349.135H6113.04V113.255Z" fill="#314A46"/>
<path d="M6183.05 270.647H6182.98V174.671H6191.8V113.464L6113.04 113.255V349.135H6121.79V200.903H6130.54V192.159H6139.29V174.671H6148.04V165.927H6156.79V183.415H6165.54V200.903H6174.3V270.647H6183.05ZM6183.05 270.647H6191.8V349.135H6183.05V270.647Z" stroke="#314A46" stroke-width="0.971603"/>
<rect x="6112.04" y="121" width="8.75164" height="8.74399" fill="#111111"/>
<rect x="6166.07" y="145" width="8.75164" height="8.74399" fill="#111111"/>
<rect x="6175.08" y="171" width="8.75164" height="8.74399" fill="#111111"/>
<rect x="6184.09" y="158" width="8.75164" height="8.74399" fill="#111111"/>
<rect x="6148.06" y="130" width="8.75164" height="8.74399" fill="#111111"/>
<rect x="6140.05" y="158" width="8.75164" height="8.74399" fill="#111111"/>
<rect x="6175.08" y="125" width="8.75164" height="8.74399" fill="#111111"/>
<rect x="6117.04" y="216" width="8.75164" height="8.74399" fill="#111111"/>
<rect x="6170.08" y="241" width="8.75164" height="8.74399" fill="#111111"/>
<rect x="6178.09" y="265" width="8.75164" height="8.74399" fill="#111111"/>
<rect x="6108.03" y="290" width="8.75164" height="8.74399" fill="#111111"/>
<rect x="6179.09" y="337" width="8.75164" height="8.74399" fill="#111111"/>
<rect x="6188.09" y="306" width="8.75164" height="8.74399" fill="#111111"/>
<rect x="6108.03" y="326" width="8.75164" height="8.74399" fill="#111111"/>
<rect x="6122.04" y="171" width="8.75164" height="8.74399" fill="#111111"/>
<rect x="6184.09" y="116" width="8.75164" height="8.74399" fill="#111111"/>
<path d="M6121.04 17H6130.05V25.744H6121.04V17Z" fill="#111111"/>
<rect x="6157.07" y="38" width="8.75164" height="8.74399" fill="#111111"/>
<rect x="6153.07" y="83" width="8.75164" height="8.74399" fill="#111111"/>
<rect x="6144.06" y="109" width="8.75164" height="8.74399" fill="#111111"/>
<rect x="6197.1" y="101" width="8.75164" height="8.74399" fill="#111111"/>
<rect x="6134.05" y="31" width="8.75164" height="8.74399" fill="#111111"/>
<rect x="6118.04" y="22" width="8.75164" height="8.74399" fill="#111111"/>
<rect x="6188.09" y="57" width="8.75164" height="8.74399" fill="#111111"/>
<rect x="6169.08" y="69" width="8.75164" height="8.74399" fill="#111111"/>
<rect x="6143.06" y="57" width="8.75164" height="8.74399" fill="#111111"/>
<path d="M6112.04 52.5H6120.79V61.244H6112.04V52.5Z" fill="#111111"/>
<path d="M6175.08 8H6183.83V16.744H6175.08V8Z" fill="#111111"/>
<rect x="6139.05" width="8.75164" height="8.74399" fill="#111111"/>
<rect x="6121.04" y="143" width="8.75164" height="8.74399" fill="#111111"/>
<rect x="6175.08" y="190" width="8.75164" height="8.74399" fill="#111111"/>
</g>
<rect x="6109.2" y="231" width="8.74487" height="8.74399" fill="#111111"/>
<path d="M6237.95 263.777V232.208H6240.68V238.638H6247.51V244.874H6253.75V257.151H6272.67V250.979H6278.52V263.777H6272.67V289.499H6266.43V263.777H6247.12V289.499H6241.07V263.777H6237.95Z" fill="black" stroke="black" stroke-width="0.389761"/>
<path d="M6329.82 244.614V238.443H6256.68V256.761H6266.01V250.784H6272.43H6310.36V244.614H6322.81H6329.82Z" fill="#122132" stroke="#122132" stroke-width="0.389761"/>
<path d="M6329.81 225.777H6241.07V231.818H6247.9V238.249H6329.81V225.777Z" fill="#182738" stroke="#182738" stroke-width="0.389761"/>
<path d="M6234.05 213.11V206.484H6262.13V212.915L6234.05 213.11Z" fill="#26733D" stroke="#26733D" stroke-width="0.389761"/>
<path d="M6237.95 225.582V213.305H6278.52V225.215L6237.95 225.582Z" fill="#206234" stroke="#206234" stroke-width="0.389761"/>
<path d="M6237.95 232.013V225.582H6240.87V232.013H6247.7V238.443H6256.28V244.679H6247.7V238.443H6240.87V232.013H6237.95Z" fill="#26733D"/>
<path d="M6240.87 232.013H6237.95V225.582H6240.87V232.013ZM6240.87 232.013V238.443H6247.7M6240.87 232.013H6247.7V238.443M6247.7 238.443V244.679H6256.28V238.443H6247.7Z" stroke="#26733D" stroke-width="0.389761"/>
<path d="M6272.27 213.11V206.484H6281.25V212.915L6272.27 213.11Z" fill="#26733D" stroke="#26733D" stroke-width="0.389761"/>
<path d="M6285.93 162.249H6229.56V175.695H6218.05V181.541H6297.83V175.695H6285.93V162.249Z" fill="#26733D" stroke="#26733D" stroke-width="0.389761"/>
<path d="M6232.49 181.736H6283.2V206.484H6232.49V181.736Z" fill="black"/>
<rect x="6267.21" y="206.484" width="5.07106" height="6.6256" fill="black"/>
<rect x="6262.14" y="206.484" width="5.07106" height="6.6256" fill="black"/>
<rect x="6276.57" y="189.336" width="5.46115" height="9.35379" fill="#FAFF15"/>
<rect x="6259.4" y="189.336" width="5.46115" height="9.35379" fill="#FAFF15"/>
<rect x="6232.88" y="168.29" width="3.12066" height="3.50767" fill="#FF9315"/>
<rect x="6280.46" y="164.003" width="3.12066" height="3.50767" fill="#FF9315"/>
<rect x="6236" y="171.798" width="7.41156" height="3.50767" fill="#FF9315"/>
<rect x="6317.91" y="231.818" width="2.73057" height="10.1333" fill="#FF9315"/>
<rect x="6317.14" y="219.346" width="6.24131" height="6.23586" fill="#FF9315"/>
<rect x="6311.68" y="231.818" width="2.73057" height="10.1333" fill="#FF9315"/>
<rect x="6324.16" y="231.818" width="2.73057" height="10.1333" fill="#FF9315"/>
<path d="M6240.88 289.694H6247.31V301.581H6240.88V289.694Z" fill="#26733D"/>
<path d="M6266.23 289.694H6272.86V301.581H6266.23V289.694Z" fill="#26733D"/>
<path d="M6256.48 244.874H6253.94V256.956H6256.48V244.874Z" fill="white"/>
<path d="M6272.47 250.982L6266.23 250.974V256.956H6272.47V250.982Z" fill="white"/>
<rect x="6587.34" y="231" width="8.75164" height="8.74399" fill="#111111"/>
<g opacity="0.6">
<path d="M6661.15 0H6608.85V17.488H6600.1V34.976H6591.34V61.2079H6635.1V104.72H6643.85V61.2079H6670.11V26.232H6661.15V0Z" fill="#314A46" stroke="#314A46" stroke-width="0.971603"/>
<rect x="6591.34" y="61.208" width="8.75164" height="8.74399" fill="white"/>
<rect x="6626.35" y="61.2075" width="8.75164" height="8.74399" fill="white"/>
<rect x="6661.36" y="61.2075" width="8.75164" height="8.74399" fill="white"/>
<rect x="6661.36" y="96.6001" width="8.75164" height="16.6552" fill="white"/>
<rect x="6617.6" y="92.4365" width="8.75164" height="20.819" fill="white"/>
<rect x="6591.34" y="104.511" width="8.75164" height="8.74399" fill="white"/>
<rect x="6643.85" y="104.511" width="8.75164" height="8.74399" fill="white"/>
<rect x="6626.35" y="104.511" width="17.5033" height="8.74399" fill="#6F1E27"/>
<rect x="6652.6" y="104.511" width="8.75164" height="8.74399" fill="#6F1E27"/>
<rect x="6670.11" y="104.511" width="17.5033" height="8.74399" fill="#6F1E27"/>
<rect x="6687.61" y="96.6001" width="8.75164" height="8.74399" fill="#6F1E27"/>
<rect x="6643.85" y="61.208" width="8.75164" height="15.8225" fill="white"/>
<rect x="6608.84" y="61.208" width="8.75164" height="22.0682" fill="white"/>
<path d="M6591.34 113.255L6670.11 113.464V174.671H6661.29V270.647H6661.36H6670.11V349.135H6661.36V270.647H6661.29H6652.61V200.903H6643.85V183.415H6635.1V165.928H6626.35V174.671H6617.6V192.159H6608.85V200.903H6600.1V349.135H6591.34V113.255Z" fill="#314A46"/>
<path d="M6661.36 270.647H6661.29V174.671H6670.11V113.464L6591.34 113.255V349.135H6600.1V200.903H6608.85V192.159H6617.6V174.671H6626.35V165.927H6635.1V183.415H6643.85V200.903H6652.61V270.647H6661.36ZM6661.36 270.647H6670.11V349.135H6661.36V270.647Z" stroke="#314A46" stroke-width="0.971603"/>
<rect x="6590.34" y="121" width="8.75164" height="8.74399" fill="#111111"/>
<rect x="6644.38" y="145" width="8.75164" height="8.74399" fill="#111111"/>
<rect x="6653.39" y="171" width="8.75164" height="8.74399" fill="#111111"/>
<rect x="6662.4" y="158" width="8.75164" height="8.74399" fill="#111111"/>
<rect x="6626.37" y="130" width="8.75164" height="8.74399" fill="#111111"/>
<rect x="6618.36" y="158" width="8.75164" height="8.74399" fill="#111111"/>
<rect x="6653.39" y="125" width="8.75164" height="8.74399" fill="#111111"/>
<rect x="6595.35" y="216" width="8.75164" height="8.74399" fill="#111111"/>
<rect x="6648.39" y="241" width="8.75164" height="8.74399" fill="#111111"/>
<rect x="6656.39" y="265" width="8.75164" height="8.74399" fill="#111111"/>
<rect x="6586.34" y="290" width="8.75164" height="8.74399" fill="#111111"/>
<rect x="6657.39" y="337" width="8.75164" height="8.74399" fill="#111111"/>
<rect x="6666.4" y="306" width="8.75164" height="8.74399" fill="#111111"/>
<rect x="6586.34" y="326" width="8.75164" height="8.74399" fill="#111111"/>
<rect x="6600.35" y="171" width="8.75164" height="8.74399" fill="#111111"/>
<rect x="6662.4" y="116" width="8.75164" height="8.74399" fill="#111111"/>
<path d="M6599.35 17H6608.36V25.744H6599.35V17Z" fill="#111111"/>
<rect x="6635.38" y="38" width="8.75164" height="8.74399" fill="#111111"/>
<rect x="6631.38" y="83" width="8.75164" height="8.74399" fill="#111111"/>
<rect x="6622.37" y="109" width="8.75164" height="8.74399" fill="#111111"/>
<rect x="6675.41" y="101" width="8.75164" height="8.74399" fill="#111111"/>
<rect x="6612.36" y="31" width="8.75164" height="8.74399" fill="#111111"/>
<rect x="6596.35" y="22" width="8.75164" height="8.74399" fill="#111111"/>
<rect x="6666.4" y="57" width="8.75164" height="8.74399" fill="#111111"/>
<rect x="6647.39" y="69" width="8.75164" height="8.74399" fill="#111111"/>
<rect x="6621.37" y="57" width="8.75164" height="8.74399" fill="#111111"/>
<path d="M6590.34 52.5H6599.1V61.244H6590.34V52.5Z" fill="#111111"/>
<path d="M6653.39 8H6662.14V16.744H6653.39V8Z" fill="#111111"/>
<rect x="6617.36" width="8.75164" height="8.74399" fill="#111111"/>
<rect x="6599.35" y="143" width="8.75164" height="8.74399" fill="#111111"/>
<rect x="6653.39" y="190" width="8.75164" height="8.74399" fill="#111111"/>
</g>
<rect x="6587.2" y="231" width="8.74487" height="8.74399" fill="#111111"/>
<path d="M6716.26 263.777V232.208H6718.99V238.638H6725.81V244.874H6732.06V257.151H6750.98V250.979H6756.83V263.777H6750.98V289.499H6744.73V263.777H6725.42V289.499H6719.38V263.777H6716.26Z" fill="black" stroke="black" stroke-width="0.389761"/>
<path d="M6808.12 244.614V238.443H6734.98V256.761H6744.32V250.784H6750.74H6788.67V244.614H6801.12H6808.12Z" fill="#122132" stroke="#122132" stroke-width="0.389761"/>
<path d="M6808.12 225.777H6719.38V231.818H6726.21V238.249H6808.12V225.777Z" fill="#182738" stroke="#182738" stroke-width="0.389761"/>
<path d="M6712.36 213.11V206.484H6740.44V212.915L6712.36 213.11Z" fill="#26733D" stroke="#26733D" stroke-width="0.389761"/>
<path d="M6716.26 225.582V213.305H6756.83V225.215L6716.26 225.582Z" fill="#206234" stroke="#206234" stroke-width="0.389761"/>
<path d="M6716.26 232.013V225.582H6719.18V232.013H6726.01V238.443H6734.59V244.679H6726.01V238.443H6719.18V232.013H6716.26Z" fill="#26733D"/>
<path d="M6719.18 232.013H6716.26V225.582H6719.18V232.013ZM6719.18 232.013V238.443H6726.01M6719.18 232.013H6726.01V238.443M6726.01 238.443V244.679H6734.59V238.443H6726.01Z" stroke="#26733D" stroke-width="0.389761"/>
<path d="M6750.58 213.11V206.484H6759.55V212.915L6750.58 213.11Z" fill="#26733D" stroke="#26733D" stroke-width="0.389761"/>
<path d="M6764.24 162.249H6707.87V175.695H6696.36V181.541H6776.14V175.695H6764.24V162.249Z" fill="#26733D" stroke="#26733D" stroke-width="0.389761"/>
<path d="M6710.8 181.736H6761.51V206.484H6710.8V181.736Z" fill="black"/>
<rect x="6745.52" y="206.484" width="5.07106" height="6.6256" fill="black"/>
<rect x="6740.45" y="206.484" width="5.07106" height="6.6256" fill="black"/>
<rect x="6754.88" y="189.336" width="5.46115" height="9.35379" fill="#FAFF15"/>
<rect x="6737.71" y="189.336" width="5.46115" height="9.35379" fill="#FAFF15"/>
<rect x="6711.19" y="168.29" width="3.12066" height="3.50767" fill="#FF9315"/>
<rect x="6758.77" y="164.003" width="3.12066" height="3.50767" fill="#FF9315"/>
<rect x="6714.31" y="171.798" width="7.41156" height="3.50767" fill="#FF9315"/>
<rect x="6796.22" y="231.818" width="2.73057" height="10.1333" fill="#FF9315"/>
<rect x="6795.45" y="219.346" width="6.24131" height="6.23586" fill="#FF9315"/>
<rect x="6789.98" y="231.818" width="2.73057" height="10.1333" fill="#FF9315"/>
<rect x="6802.46" y="231.818" width="2.73057" height="10.1333" fill="#FF9315"/>
<path d="M6719.18 289.694H6725.62V301.581H6719.18V289.694Z" fill="#26733D"/>
<path d="M6744.54 289.694H6751.17V301.581H6744.54V289.694Z" fill="#26733D"/>
<path d="M6734.79 244.874H6732.25V256.956H6734.79V244.874Z" fill="white"/>
<path d="M6750.78 250.982L6744.54 250.974V256.956H6750.78V250.982Z" fill="white"/>
<rect x="7065.65" y="231" width="8.75164" height="8.74399" fill="#111111"/>
<g opacity="0.4">
<path d="M7139.46 0H7087.16V17.488H7078.4V34.976H7069.65V61.2079H7113.41V104.72H7122.16V61.2079H7148.42V26.232H7139.46V0Z" fill="#314A46" stroke="#314A46" stroke-width="0.971603"/>
<rect x="7069.65" y="61.208" width="8.75164" height="8.74399" fill="white"/>
<rect x="7104.66" y="61.2075" width="8.75164" height="8.74399" fill="white"/>
<rect x="7139.66" y="61.2075" width="8.75164" height="8.74399" fill="white"/>
<rect x="7139.66" y="96.6001" width="8.75164" height="16.6552" fill="white"/>
<rect x="7095.91" y="92.4365" width="8.75164" height="20.819" fill="white"/>
<rect x="7069.65" y="104.511" width="8.75164" height="8.74399" fill="white"/>
<rect x="7122.16" y="104.511" width="8.75164" height="8.74399" fill="white"/>
<rect x="7104.66" y="104.511" width="17.5033" height="8.74399" fill="#6F1E27"/>
<rect x="7130.91" y="104.511" width="8.75164" height="8.74399" fill="#6F1E27"/>
<rect x="7148.42" y="104.511" width="17.5033" height="8.74399" fill="#6F1E27"/>
<rect x="7165.92" y="96.6001" width="8.75164" height="8.74399" fill="#6F1E27"/>
<rect x="7122.16" y="61.208" width="8.75164" height="15.8225" fill="white"/>
<rect x="7087.15" y="61.208" width="8.75164" height="22.0682" fill="white"/>
<path d="M7069.65 113.255L7148.42 113.464V174.671H7139.6V270.647H7139.67H7148.42V349.135H7139.67V270.647H7139.6H7130.91V200.903H7122.16V183.415H7113.41V165.928H7104.66V174.671H7095.91V192.159H7087.16V200.903H7078.4V349.135H7069.65V113.255Z" fill="#314A46"/>
<path d="M7139.67 270.647H7139.6V174.671H7148.42V113.464L7069.65 113.255V349.135H7078.4V200.903H7087.16V192.159H7095.91V174.671H7104.66V165.927H7113.41V183.415H7122.16V200.903H7130.91V270.647H7139.67ZM7139.67 270.647H7148.42V349.135H7139.67V270.647Z" stroke="#314A46" stroke-width="0.971603"/>
<rect x="7068.65" y="121" width="8.75164" height="8.74399" fill="#111111"/>
<rect x="7122.69" y="145" width="8.75164" height="8.74399" fill="#111111"/>
<rect x="7131.7" y="171" width="8.75164" height="8.74399" fill="#111111"/>
<rect x="7140.71" y="158" width="8.75164" height="8.74399" fill="#111111"/>
<rect x="7104.68" y="130" width="8.75164" height="8.74399" fill="#111111"/>
<rect x="7096.67" y="158" width="8.75164" height="8.74399" fill="#111111"/>
<rect x="7131.7" y="125" width="8.75164" height="8.74399" fill="#111111"/>
<rect x="7073.66" y="216" width="8.75164" height="8.74399" fill="#111111"/>
<rect x="7126.7" y="241" width="8.75164" height="8.74399" fill="#111111"/>
<rect x="7134.7" y="265" width="8.75164" height="8.74399" fill="#111111"/>
<rect x="7064.65" y="290" width="8.75164" height="8.74399" fill="#111111"/>
<rect x="7135.7" y="337" width="8.75164" height="8.74399" fill="#111111"/>
<rect x="7144.71" y="306" width="8.75164" height="8.74399" fill="#111111"/>
<rect x="7064.65" y="326" width="8.75164" height="8.74399" fill="#111111"/>
<rect x="7078.66" y="171" width="8.75164" height="8.74399" fill="#111111"/>
<rect x="7140.71" y="116" width="8.75164" height="8.74399" fill="#111111"/>
<path d="M7077.66 17H7086.67V25.744H7077.66V17Z" fill="#111111"/>
<rect x="7113.69" y="38" width="8.75164" height="8.74399" fill="#111111"/>
<rect x="7109.68" y="83" width="8.75164" height="8.74399" fill="#111111"/>
<rect x="7100.68" y="109" width="8.75164" height="8.74399" fill="#111111"/>
<rect x="7153.72" y="101" width="8.75164" height="8.74399" fill="#111111"/>
<rect x="7090.67" y="31" width="8.75164" height="8.74399" fill="#111111"/>
<rect x="7074.66" y="22" width="8.75164" height="8.74399" fill="#111111"/>
<rect x="7144.71" y="57" width="8.75164" height="8.74399" fill="#111111"/>
<rect x="7125.7" y="69" width="8.75164" height="8.74399" fill="#111111"/>
<rect x="7099.68" y="57" width="8.75164" height="8.74399" fill="#111111"/>
<path d="M7068.65 52.5H7077.4V61.244H7068.65V52.5Z" fill="#111111"/>
<path d="M7131.7 8H7140.45V16.744H7131.7V8Z" fill="#111111"/>
<rect x="7095.67" width="8.75164" height="8.74399" fill="#111111"/>
<rect x="7077.66" y="143" width="8.75164" height="8.74399" fill="#111111"/>
<rect x="7131.7" y="190" width="8.75164" height="8.74399" fill="#111111"/>
</g>
<rect x="7065.2" y="231" width="8.74487" height="8.74399" fill="#111111"/>
<path d="M7194.57 263.777V232.208H7197.3V238.638H7204.13V244.874H7210.37V257.151H7229.29V250.979H7235.14V263.777H7229.29V289.499H7223.05V263.777H7203.74V289.499H7197.69V263.777H7194.57Z" fill="black" stroke="black" stroke-width="0.389761"/>
<path d="M7286.44 244.614V238.443H7213.3V256.761H7222.63V250.784H7229.05H7266.98V244.614H7279.43H7286.44Z" fill="#122132" stroke="#122132" stroke-width="0.389761"/>
<path d="M7286.44 225.777H7197.69V231.818H7204.52V238.249H7286.44V225.777Z" fill="#182738" stroke="#182738" stroke-width="0.389761"/>
<path d="M7190.67 213.11V206.484H7218.75V212.915L7190.67 213.11Z" fill="#26733D" stroke="#26733D" stroke-width="0.389761"/>
<path d="M7194.57 225.582V213.305H7235.14V225.215L7194.57 225.582Z" fill="#206234" stroke="#206234" stroke-width="0.389761"/>
<path d="M7194.57 232.013V225.582H7197.5V232.013H7204.32V238.443H7212.9V244.679H7204.32V238.443H7197.5V232.013H7194.57Z" fill="#26733D"/>
<path d="M7197.5 232.013H7194.57V225.582H7197.5V232.013ZM7197.5 232.013V238.443H7204.32M7197.5 232.013H7204.32V238.443M7204.32 238.443V244.679H7212.9V238.443H7204.32Z" stroke="#26733D" stroke-width="0.389761"/>
<path d="M7228.89 213.11V206.484H7237.87V212.915L7228.89 213.11Z" fill="#26733D" stroke="#26733D" stroke-width="0.389761"/>
<path d="M7242.55 162.249H7186.18V175.695H7174.68V181.541H7254.45V175.695H7242.55V162.249Z" fill="#26733D" stroke="#26733D" stroke-width="0.389761"/>
<path d="M7189.11 181.736H7239.82V206.484H7189.11V181.736Z" fill="black"/>
<rect x="7223.83" y="206.484" width="5.07106" height="6.6256" fill="black"/>
<rect x="7218.76" y="206.484" width="5.07106" height="6.6256" fill="black"/>
<rect x="7233.19" y="189.336" width="5.46115" height="9.35379" fill="#FAFF15"/>
<rect x="7216.02" y="189.336" width="5.46115" height="9.35379" fill="#FAFF15"/>
<rect x="7189.5" y="168.29" width="3.12066" height="3.50767" fill="#FF9315"/>
<rect x="7237.09" y="164.003" width="3.12066" height="3.50767" fill="#FF9315"/>
<rect x="7192.62" y="171.798" width="7.41156" height="3.50767" fill="#FF9315"/>
<rect x="7274.54" y="231.818" width="2.73057" height="10.1333" fill="#FF9315"/>
<rect x="7273.76" y="219.346" width="6.24131" height="6.23586" fill="#FF9315"/>
<rect x="7268.3" y="231.818" width="2.73057" height="10.1333" fill="#FF9315"/>
<rect x="7280.78" y="231.818" width="2.73057" height="10.1333" fill="#FF9315"/>
<path d="M7197.5 289.694H7203.93V301.581H7197.5V289.694Z" fill="#26733D"/>
<path d="M7222.85 289.694H7229.48V301.581H7222.85V289.694Z" fill="#26733D"/>
<path d="M7213.1 244.874H7210.56V256.956H7213.1V244.874Z" fill="white"/>
<path d="M7229.09 250.982L7222.85 250.974V256.956H7229.09V250.982Z" fill="white"/>
<rect x="7543.96" y="231" width="8.75164" height="8.74399" fill="#111111"/>
<g opacity="0.2">
<path d="M7617.77 0H7565.47V17.488H7556.72V34.976H7547.96V61.2079H7591.72V104.72H7600.47V61.2079H7626.73V26.232H7617.77V0Z" fill="#314A46" stroke="#314A46" stroke-width="0.971603"/>
<rect x="7547.96" y="61.208" width="8.75164" height="8.74399" fill="white"/>
<rect x="7582.97" y="61.2075" width="8.75164" height="8.74399" fill="white"/>
<rect x="7617.98" y="61.2075" width="8.75164" height="8.74399" fill="white"/>
<rect x="7617.98" y="96.6001" width="8.75164" height="16.6552" fill="white"/>
<rect x="7574.22" y="92.4365" width="8.75164" height="20.819" fill="white"/>
<rect x="7547.96" y="104.511" width="8.75164" height="8.74399" fill="white"/>
<rect x="7600.47" y="104.511" width="8.75164" height="8.74399" fill="white"/>
<rect x="7582.97" y="104.511" width="17.5033" height="8.74399" fill="#6F1E27"/>
<rect x="7609.22" y="104.511" width="8.75164" height="8.74399" fill="#6F1E27"/>
<rect x="7626.73" y="104.511" width="17.5033" height="8.74399" fill="#6F1E27"/>
<rect x="7644.23" y="96.6001" width="8.75164" height="8.74399" fill="#6F1E27"/>
<rect x="7600.47" y="61.208" width="8.75164" height="15.8225" fill="white"/>
<rect x="7565.46" y="61.208" width="8.75164" height="22.0682" fill="white"/>
<path d="M7547.96 113.255L7626.73 113.464V174.671H7617.91V270.647H7617.98H7626.73V349.135H7617.98V270.647H7617.91H7609.23V200.903H7600.47V183.415H7591.72V165.928H7582.97V174.671H7574.22V192.159H7565.47V200.903H7556.72V349.135H7547.96V113.255Z" fill="#314A46"/>
<path d="M7617.98 270.647H7617.91V174.671H7626.73V113.464L7547.96 113.255V349.135H7556.72V200.903H7565.47V192.159H7574.22V174.671H7582.97V165.927H7591.72V183.415H7600.47V200.903H7609.23V270.647H7617.98ZM7617.98 270.647H7626.73V349.135H7617.98V270.647Z" stroke="#314A46" stroke-width="0.971603"/>
<rect x="7546.96" y="121" width="8.75164" height="8.74399" fill="#111111"/>
<rect x="7601" y="145" width="8.75164" height="8.74399" fill="#111111"/>
<rect x="7610.01" y="171" width="8.75164" height="8.74399" fill="#111111"/>
<rect x="7619.02" y="158" width="8.75164" height="8.74399" fill="#111111"/>
<rect x="7582.99" y="130" width="8.75164" height="8.74399" fill="#111111"/>
<rect x="7574.98" y="158" width="8.75164" height="8.74399" fill="#111111"/>
<rect x="7610.01" y="125" width="8.75164" height="8.74399" fill="#111111"/>
<rect x="7551.97" y="216" width="8.75164" height="8.74399" fill="#111111"/>
<rect x="7605.01" y="241" width="8.75164" height="8.74399" fill="#111111"/>
<rect x="7613.02" y="265" width="8.75164" height="8.74399" fill="#111111"/>
<rect x="7542.96" y="290" width="8.75164" height="8.74399" fill="#111111"/>
<rect x="7614.02" y="337" width="8.75164" height="8.74399" fill="#111111"/>
<rect x="7623.02" y="306" width="8.75164" height="8.74399" fill="#111111"/>
<rect x="7542.96" y="326" width="8.75164" height="8.74399" fill="#111111"/>
<rect x="7556.97" y="171" width="8.75164" height="8.74399" fill="#111111"/>
<rect x="7619.02" y="116" width="8.75164" height="8.74399" fill="#111111"/>
<path d="M7555.97 17H7564.98V25.744H7555.97V17Z" fill="#111111"/>
<rect x="7592" y="38" width="8.75164" height="8.74399" fill="#111111"/>
<rect x="7588" y="83" width="8.75164" height="8.74399" fill="#111111"/>
<rect x="7578.99" y="109" width="8.75164" height="8.74399" fill="#111111"/>
<rect x="7632.03" y="101" width="8.75164" height="8.74399" fill="#111111"/>
<rect x="7568.98" y="31" width="8.75164" height="8.74399" fill="#111111"/>
<rect x="7552.97" y="22" width="8.75164" height="8.74399" fill="#111111"/>
<rect x="7623.02" y="57" width="8.75164" height="8.74399" fill="#111111"/>
<rect x="7604.01" y="69" width="8.75164" height="8.74399" fill="#111111"/>
<rect x="7577.99" y="57" width="8.75164" height="8.74399" fill="#111111"/>
<path d="M7546.96 52.5H7555.72V61.244H7546.96V52.5Z" fill="#111111"/>
<path d="M7610.01 8H7618.76V16.744H7610.01V8Z" fill="#111111"/>
<rect x="7573.98" width="8.75164" height="8.74399" fill="#111111"/>
<rect x="7555.97" y="143" width="8.75164" height="8.74399" fill="#111111"/>
<rect x="7610.01" y="190" width="8.75164" height="8.74399" fill="#111111"/>
</g>
<rect x="7543.2" y="231" width="8.74487" height="8.74399" fill="#111111"/>
<path d="M7672.88 263.777V232.208H7675.61V238.638H7682.44V244.874H7688.68V257.151H7707.6V250.979H7713.45V263.777H7707.6V289.499H7701.35V263.777H7682.05V289.499H7676V263.777H7672.88Z" fill="black" stroke="black" stroke-width="0.389761"/>
<path d="M7764.75 244.614V238.443H7691.61V256.761H7700.94V250.784H7707.36H7745.29V244.614H7757.74H7764.75Z" fill="#122132" stroke="#122132" stroke-width="0.389761"/>
<path d="M7764.74 225.777H7676V231.818H7682.83V238.249H7764.74V225.777Z" fill="#182738" stroke="#182738" stroke-width="0.389761"/>
<path d="M7668.98 213.11V206.484H7697.06V212.915L7668.98 213.11Z" fill="#26733D" stroke="#26733D" stroke-width="0.389761"/>
<path d="M7672.88 225.582V213.305H7713.45V225.215L7672.88 225.582Z" fill="#206234" stroke="#206234" stroke-width="0.389761"/>
<path d="M7672.88 232.013V225.582H7675.8V232.013H7682.63V238.443H7691.21V244.679H7682.63V238.443H7675.8V232.013H7672.88Z" fill="#26733D"/>
<path d="M7675.8 232.013H7672.88V225.582H7675.8V232.013ZM7675.8 232.013V238.443H7682.63M7675.8 232.013H7682.63V238.443M7682.63 238.443V244.679H7691.21V238.443H7682.63Z" stroke="#26733D" stroke-width="0.389761"/>
<path d="M7707.2 213.11V206.484H7716.18V212.915L7707.2 213.11Z" fill="#26733D" stroke="#26733D" stroke-width="0.389761"/>
<path d="M7720.86 162.249H7664.49V175.695H7652.98V181.541H7732.76V175.695H7720.86V162.249Z" fill="#26733D" stroke="#26733D" stroke-width="0.389761"/>
<path d="M7667.42 181.736H7718.13V206.484H7667.42V181.736Z" fill="black"/>
<rect x="7702.14" y="206.484" width="5.07106" height="6.6256" fill="black"/>
<rect x="7697.07" y="206.484" width="5.07106" height="6.6256" fill="black"/>
<rect x="7711.5" y="189.336" width="5.46115" height="9.35379" fill="#FAFF15"/>
<rect x="7694.33" y="189.336" width="5.46115" height="9.35379" fill="#FAFF15"/>
<rect x="7667.81" y="168.29" width="3.12066" height="3.50767" fill="#FF9315"/>
<rect x="7715.39" y="164.003" width="3.12066" height="3.50767" fill="#FF9315"/>
<rect x="7670.93" y="171.798" width="7.41156" height="3.50767" fill="#FF9315"/>
<rect x="7752.84" y="231.818" width="2.73057" height="10.1333" fill="#FF9315"/>
<rect x="7752.07" y="219.346" width="6.24131" height="6.23586" fill="#FF9315"/>
<rect x="7746.61" y="231.818" width="2.73057" height="10.1333" fill="#FF9315"/>
<rect x="7759.09" y="231.818" width="2.73057" height="10.1333" fill="#FF9315"/>
<path d="M7675.8 289.694H7682.24V301.581H7675.8V289.694Z" fill="#26733D"/>
<path d="M7701.16 289.694H7707.79V301.581H7701.16V289.694Z" fill="#26733D"/>
<path d="M7691.41 244.874H7688.87V256.956H7691.41V244.874Z" fill="white"/>
<path d="M7707.4 250.982L7701.16 250.974V256.956H7707.4V250.982Z" fill="white"/>
<rect x="8022.27" y="231" width="8.75164" height="8.74399" fill="#111111"/>
</g>
<defs>
<clipPath id="clip0_364_1047">
<rect width="8131.29" height="349.14" fill="white"/>
</clipPath>
</defs>
</svg>
