<svg width="1486" height="505" viewBox="0 0 1486 505" fill="none" xmlns="http://www.w3.org/2000/svg">
<g clip-path="url(#clip0_401_70)">
<path d="M106.983 0H31.1718V25.2586H18.4863V50.5171H5.80078V88.405H69.2283V151.251H81.9138V88.405H119.97V37.8878H106.983V0Z" fill="#314A46" stroke="#314A46" stroke-width="1.40332"/>
<rect x="5.80078" y="88.4053" width="12.6855" height="12.6293" fill="white"/>
<rect x="56.5391" y="88.4048" width="12.6855" height="12.6293" fill="white"/>
<rect x="107.281" y="88.4048" width="12.6855" height="12.6293" fill="white"/>
<rect x="107.281" y="139.523" width="12.6855" height="24.0558" fill="white"/>
<rect x="43.8555" y="133.509" width="12.6855" height="30.0697" fill="white"/>
<rect x="5.80078" y="150.95" width="12.6855" height="12.6293" fill="white"/>
<rect x="81.918" y="150.95" width="12.6855" height="12.6293" fill="white"/>
<rect x="56.5391" y="150.95" width="25.371" height="12.6293" fill="#6F1E27"/>
<rect x="94.5938" y="150.95" width="12.6855" height="12.6293" fill="#6F1E27"/>
<rect x="119.969" y="150.95" width="25.371" height="12.6293" fill="#6F1E27"/>
<path d="M145.344 139.523H152.227V152.152H145.344V139.523Z" fill="#6F1E27"/>
<rect x="81.918" y="88.4053" width="12.6855" height="22.853" fill="white"/>
<rect x="31.1719" y="88.4053" width="12.6855" height="31.8739" fill="white"/>
<path d="M5.80078 163.579L119.97 163.88V252.285H107.193V390.906H107.285H119.97V504.269H107.285V390.906H107.193H94.5993V290.173H81.9138V264.914H69.2283V239.656H56.5428V252.285H43.8573V277.543H31.1718V290.173H18.4863V504.269H5.80078V163.579Z" fill="#314A46"/>
<path d="M107.285 390.906H107.193V252.285H119.97V163.88L5.80078 163.579V504.269H18.4863V290.173H31.1718V277.543H43.8573V252.285H56.5428V239.656H69.2283V264.914H81.9138V290.173H94.5993V390.906H107.285ZM107.285 390.906H119.97V504.269H107.285V390.906Z" stroke="#314A46" stroke-width="1.40332"/>
<path d="M0.0013628 337.795H12.6869L12.6855 350.5H0L0.0013628 337.795Z" fill="#FAFF15"/>
<rect x="152.316" y="335.087" width="12.6855" height="12.6293" fill="#111111"/>
<path d="M271.876 0H195.908V25.2586H183.196V50.5171H170.484V88.405H234.043V151.251H246.755V88.405H284.89V37.8878H271.876V0Z" fill="#314A46" stroke="#314A46" stroke-width="1.40332"/>
<rect x="170.484" y="88.4053" width="12.7117" height="12.6293" fill="white"/>
<rect x="221.328" y="88.4048" width="12.7117" height="12.6293" fill="white"/>
<rect x="272.172" y="88.4048" width="12.7117" height="12.6293" fill="white"/>
<rect x="272.172" y="139.523" width="12.7117" height="24.0558" fill="white"/>
<rect x="208.621" y="133.509" width="12.7117" height="30.0697" fill="white"/>
<rect x="170.484" y="150.95" width="12.7117" height="12.6293" fill="white"/>
<rect x="246.758" y="150.95" width="12.7117" height="12.6293" fill="white"/>
<rect x="221.328" y="150.95" width="25.4235" height="12.6293" fill="#6F1E27"/>
<rect x="259.461" y="150.95" width="12.7117" height="12.6293" fill="#6F1E27"/>
<rect x="284.891" y="150.95" width="25.4235" height="12.6293" fill="#6F1E27"/>
<path d="M310.312 139.523H317.21V152.152H310.312V139.523Z" fill="#6F1E27"/>
<rect x="246.758" y="88.4053" width="12.7117" height="22.853" fill="white"/>
<rect x="195.906" y="88.4053" width="12.7117" height="31.8739" fill="white"/>
<path d="M170.484 163.579L284.89 163.88V252.285H272.086V390.906H272.178H284.89V504.269H272.178V390.906H272.086H259.467V290.173H246.755V264.914H234.043V239.656H221.331V252.285H208.62V277.543H195.908V290.173H183.196V504.269H170.484V163.579Z" fill="#314A46"/>
<path d="M272.178 390.906H272.086V252.285H284.89V163.88L170.484 163.579V504.269H183.196V290.173H195.908V277.543H208.62V252.285H221.331V239.656H234.043V264.914H246.755V290.173H259.467V390.906H272.178ZM272.178 390.906H284.89V504.269H272.178V390.906Z" stroke="#314A46" stroke-width="1.40332"/>
<rect x="317.289" y="335.086" width="12.7117" height="12.6293" fill="#111111"/>
<rect x="274.055" y="167.543" width="12.7117" height="12.6293" fill="#111111"/>
<rect x="208.633" width="12.7117" height="12.6293" fill="#111111"/>
<rect x="242.238" y="209.43" width="12.6833" height="12.6293" fill="#111111"/>
<rect x="216.125" y="187.764" width="12.6833" height="12.6293" fill="#111111"/>
<rect x="178.418" y="246.982" width="12.6833" height="12.6293" fill="#111111"/>
<rect x="229.18" y="54.8848" width="12.6833" height="12.6293" fill="#111111"/>
<rect x="203.078" width="12.6833" height="12.6293" fill="#111111"/>
<rect x="176.969" y="206.541" width="12.6833" height="12.6293" fill="#111111"/>
<rect x="255.289" y="274.425" width="12.6833" height="12.6293" fill="#111111"/>
<path d="M165.001 337.795H177.713L177.712 350.5H165L165.001 337.795Z" fill="#111111"/>
<path d="M437.106 0H361.437V25.2586H348.775V50.5171H336.113V88.405H399.422V151.251H412.084V88.405H450.069V37.8878H437.106V0Z" fill="#314A46" stroke="#314A46" stroke-width="1.40332"/>
<rect x="336.113" y="88.4053" width="12.6618" height="12.6293" fill="white"/>
<rect x="386.762" y="88.4048" width="12.6618" height="12.6293" fill="white"/>
<rect x="437.402" y="88.4048" width="12.6618" height="12.6293" fill="white"/>
<rect x="437.402" y="139.523" width="12.6618" height="24.0558" fill="white"/>
<rect x="374.098" y="133.509" width="12.6618" height="30.0697" fill="white"/>
<rect x="336.113" y="150.95" width="12.6618" height="12.6293" fill="white"/>
<rect x="412.086" y="150.95" width="12.6618" height="12.6293" fill="white"/>
<rect x="386.762" y="150.95" width="25.3235" height="12.6293" fill="#6F1E27"/>
<rect x="424.738" y="150.95" width="12.6618" height="12.6293" fill="#6F1E27"/>
<rect x="450.07" y="150.95" width="25.3235" height="12.6293" fill="#6F1E27"/>
<path d="M475.391 139.523H482.261V152.152H475.391V139.523Z" fill="#6F1E27"/>
<rect x="412.086" y="88.4053" width="12.6618" height="22.853" fill="white"/>
<rect x="361.434" y="88.4053" width="12.6618" height="31.8739" fill="white"/>
<path d="M336.113 163.579L450.069 163.88V252.285H437.316V390.906H437.407H450.069V504.269H437.407V390.906H437.316H424.746V290.173H412.084V264.914H399.422V239.656H386.76V252.285H374.099V277.543H361.437V290.173H348.775V504.269H336.113V163.579Z" fill="#314A46"/>
<path d="M437.407 390.906H437.316V252.285H450.069V163.88L336.113 163.579V504.269H348.775V290.173H361.437V277.543H374.099V252.285H386.76V239.656H399.422V264.914H412.084V290.173H424.746V390.906H437.407ZM437.407 390.906H450.069V504.269H437.407V390.906Z" stroke="#314A46" stroke-width="1.40332"/>
<rect x="482.344" y="335.086" width="12.6618" height="12.6293" fill="#111111"/>
<path d="M334.641 174.765H346.537V187.394H334.641V174.765Z" fill="#111111"/>
<rect x="407.59" y="209.43" width="12.6334" height="12.6293" fill="#111111"/>
<rect x="381.578" y="187.764" width="12.6334" height="12.6293" fill="#111111"/>
<rect x="370.023" y="228.206" width="12.6334" height="12.6293" fill="#111111"/>
<rect x="419.879" y="180.542" width="12.6334" height="12.6293" fill="#111111"/>
<rect x="341.133" y="311.977" width="12.6334" height="12.6293" fill="#111111"/>
<rect x="419.141" y="348.086" width="12.6334" height="12.6293" fill="#111111"/>
<rect x="432.887" y="381.306" width="12.6334" height="12.6293" fill="#111111"/>
<rect x="344.02" y="246.982" width="12.6334" height="12.6293" fill="#111111"/>
<rect x="394.582" y="54.8848" width="12.6334" height="12.6293" fill="#111111"/>
<path d="M333.203 77.272H345.095V89.9013H333.203V77.272Z" fill="#111111"/>
<path d="M427.809 11.5552H440.442V24.1845H427.809V11.5552Z" fill="#111111"/>
<rect x="368.578" width="12.6334" height="12.6293" fill="#111111"/>
<rect x="342.574" y="206.541" width="12.6334" height="12.6293" fill="#111111"/>
<rect x="420.586" y="274.425" width="12.6334" height="12.6293" fill="#111111"/>
<rect x="439.277" y="167.543" width="12.6618" height="12.6293" fill="#111111"/>
<path d="M330.005 337.795H342.667L342.666 350.5H330.004L330.005 337.795Z" fill="#111111"/>
<path d="M601.981 0H526.154V25.2586H513.466V50.5171H500.777V88.405H564.218V151.251H576.907V88.405H614.971V37.8878H601.981V0Z" fill="#314A46" stroke="#314A46" stroke-width="1.40332"/>
<rect x="500.777" y="88.4053" width="12.6882" height="12.6293" fill="white"/>
<rect x="551.531" y="88.4048" width="12.6882" height="12.6293" fill="white"/>
<rect x="602.277" y="88.4048" width="12.6882" height="12.6293" fill="white"/>
<rect x="602.277" y="139.523" width="12.6882" height="24.0558" fill="white"/>
<rect x="538.844" y="133.509" width="12.6882" height="30.0697" fill="white"/>
<rect x="500.777" y="150.95" width="12.6882" height="12.6293" fill="white"/>
<rect x="576.91" y="150.95" width="12.6882" height="12.6293" fill="white"/>
<rect x="551.531" y="150.95" width="25.3764" height="12.6293" fill="#6F1E27"/>
<rect x="589.59" y="150.95" width="12.6882" height="12.6293" fill="#6F1E27"/>
<rect x="614.973" y="150.95" width="25.3764" height="12.6293" fill="#6F1E27"/>
<path d="M640.348 139.523H647.232V152.152H640.348V139.523Z" fill="#6F1E27"/>
<rect x="576.91" y="88.4053" width="12.6882" height="22.853" fill="white"/>
<rect x="526.152" y="88.4053" width="12.6882" height="31.8739" fill="white"/>
<path d="M500.777 163.579L614.971 163.88V252.285H602.191V390.906H602.283H614.971V504.269H602.283V390.906H602.191H589.595V290.173H576.907V264.914H564.218V239.656H551.53V252.285H538.842V277.543H526.154V290.173H513.466V504.269H500.777V163.579Z" fill="#314A46"/>
<path d="M602.283 390.906H602.191V252.285H614.971V163.88L500.777 163.579V504.269H513.466V290.173H526.154V277.543H538.842V252.285H551.53V239.656H564.218V264.914H576.907V290.173H589.595V390.906H602.283ZM602.283 390.906H614.971V504.269H602.283V390.906Z" stroke="#314A46" stroke-width="1.40332"/>
<rect x="647.316" y="335.086" width="12.6882" height="12.6293" fill="#111111"/>
<path d="M499.309 174.765H511.23V187.394H499.309V174.765Z" fill="#111111"/>
<rect x="572.406" y="209.43" width="12.6598" height="12.6293" fill="#111111"/>
<rect x="546.34" y="187.764" width="12.6598" height="12.6293" fill="#111111"/>
<rect x="534.766" y="228.206" width="12.6598" height="12.6293" fill="#111111"/>
<rect x="584.723" y="180.542" width="12.6598" height="12.6293" fill="#111111"/>
<rect x="505.809" y="311.977" width="12.6598" height="12.6293" fill="#111111"/>
<rect x="583.984" y="348.086" width="12.6598" height="12.6293" fill="#111111"/>
<rect x="597.758" y="381.306" width="12.6598" height="12.6293" fill="#111111"/>
<rect x="508.703" y="246.982" width="12.6598" height="12.6293" fill="#111111"/>
<rect x="559.371" y="54.8848" width="12.6598" height="12.6293" fill="#111111"/>
<path d="M497.867 77.272H509.784V89.9013H497.867V77.272Z" fill="#111111"/>
<path d="M592.668 11.5552H605.328V24.1845H592.668V11.5552Z" fill="#111111"/>
<rect x="533.316" width="12.6598" height="12.6293" fill="#111111"/>
<rect x="507.254" y="206.541" width="12.6598" height="12.6293" fill="#111111"/>
<rect x="585.434" y="274.425" width="12.6598" height="12.6293" fill="#111111"/>
<rect x="593.41" y="246.982" width="12.6598" height="12.6293" fill="#111111"/>
<path d="M606.441 228.206H618.32V240.835H606.441V228.206Z" fill="#111111"/>
<path d="M500.031 418.858H506.176V431.488H500.031V418.858Z" fill="#111111"/>
<rect x="599.203" y="486.742" width="12.6598" height="12.6293" fill="#111111"/>
<path d="M612.23 441.967H618.293V454.597H612.23V441.967Z" fill="#111111"/>
<path d="M500.031 470.854H506.175V483.483H500.031V470.854Z" fill="#111111"/>
<rect x="561.562" y="119.88" width="12.6598" height="12.6293" fill="#111111"/>
<rect x="548.539" y="157.433" width="12.6598" height="12.6293" fill="#111111"/>
<path d="M612.23 82.3276H618.299V94.9569H612.23V82.3276Z" fill="#111111"/>
<rect x="584.723" y="99.6597" width="12.6598" height="12.6293" fill="#111111"/>
<rect x="547.09" y="82.3276" width="12.6598" height="12.6293" fill="#111111"/>
<rect x="604.164" y="167.543" width="12.6882" height="12.6293" fill="#111111"/>
<path d="M495.005 337.795H507.693L507.692 350.5H495.004L495.005 337.795Z" fill="#111111"/>
<path d="M766.862 0H690.872V25.2586H678.157V50.5171H665.441V88.405H729.018V151.251H741.734V88.405H779.88V37.8878H766.862V0Z" fill="#314A46" stroke="#314A46" stroke-width="1.40332"/>
<rect x="665.441" y="88.4053" width="12.7154" height="12.6293" fill="white"/>
<rect x="716.305" y="88.4048" width="12.7154" height="12.6293" fill="white"/>
<rect x="767.16" y="88.4048" width="12.7154" height="12.6293" fill="white"/>
<rect x="767.16" y="139.523" width="12.7154" height="24.0558" fill="white"/>
<rect x="703.586" y="133.509" width="12.7154" height="30.0697" fill="white"/>
<rect x="665.441" y="150.95" width="12.7154" height="12.6293" fill="white"/>
<rect x="741.738" y="150.95" width="12.7154" height="12.6293" fill="white"/>
<rect x="716.305" y="150.95" width="25.4307" height="12.6293" fill="#6F1E27"/>
<rect x="754.441" y="150.95" width="12.7154" height="12.6293" fill="#6F1E27"/>
<rect x="779.879" y="150.95" width="25.4307" height="12.6293" fill="#6F1E27"/>
<path d="M805.309 139.523H812.208V152.152H805.309V139.523Z" fill="#6F1E27"/>
<rect x="741.738" y="88.4053" width="12.7154" height="22.853" fill="white"/>
<rect x="690.871" y="88.4053" width="12.7154" height="31.8739" fill="white"/>
<path d="M665.441 163.579L779.88 163.88V252.285H767.072V390.906H767.164H779.88V504.269H767.164V390.906H767.072H754.449V290.173H741.734V264.914H729.018V239.656H716.303V252.285H703.587V277.543H690.872V290.173H678.157V504.269H665.441V163.579Z" fill="#314A46"/>
<path d="M767.164 390.906H767.072V252.285H779.88V163.88L665.441 163.579V504.269H678.157V290.173H690.872V277.543H703.587V252.285H716.303V239.656H729.018V264.914H741.734V290.173H754.449V390.906H767.164ZM767.164 390.906H779.88V504.269H767.164V390.906Z" stroke="#314A46" stroke-width="1.40332"/>
<rect x="812.289" y="335.086" width="12.7154" height="12.6293" fill="#111111"/>
<path d="M663.965 174.765H675.912V187.394H663.965V174.765Z" fill="#111111"/>
<rect x="737.219" y="209.43" width="12.6869" height="12.6293" fill="#111111"/>
<rect x="711.098" y="187.764" width="12.6869" height="12.6293" fill="#111111"/>
<rect x="699.496" y="228.206" width="12.6869" height="12.6293" fill="#111111"/>
<rect x="749.562" y="180.542" width="12.6869" height="12.6293" fill="#111111"/>
<rect x="670.484" y="311.977" width="12.6869" height="12.6293" fill="#111111"/>
<rect x="748.82" y="348.086" width="12.6869" height="12.6293" fill="#111111"/>
<rect x="762.625" y="381.306" width="12.6869" height="12.6293" fill="#111111"/>
<rect x="673.379" y="246.982" width="12.6869" height="12.6293" fill="#111111"/>
<rect x="724.156" y="54.8848" width="12.6869" height="12.6293" fill="#111111"/>
<path d="M662.52 77.272H674.461V89.9013H662.52V77.272Z" fill="#111111"/>
<path d="M757.523 11.5552H770.21V24.1845H757.523V11.5552Z" fill="#111111"/>
<rect x="698.043" width="12.6869" height="12.6293" fill="#111111"/>
<rect x="671.93" y="206.541" width="12.6869" height="12.6293" fill="#111111"/>
<rect x="750.273" y="274.425" width="12.6869" height="12.6293" fill="#111111"/>
<rect x="758.27" y="246.982" width="12.6869" height="12.6293" fill="#111111"/>
<path d="M771.328 228.206H783.232V240.835H771.328V228.206Z" fill="#111111"/>
<path d="M664.688 418.858H670.846V431.488H664.688V418.858Z" fill="#111111"/>
<rect x="764.07" y="486.742" width="12.6869" height="12.6293" fill="#111111"/>
<path d="M777.129 441.967H783.204V454.597H777.129V441.967Z" fill="#111111"/>
<path d="M664.688 470.854H670.844V483.483H664.688V470.854Z" fill="#111111"/>
<rect x="726.352" y="119.88" width="12.6869" height="12.6293" fill="#111111"/>
<rect x="713.301" y="157.433" width="12.6869" height="12.6293" fill="#111111"/>
<path d="M777.129 82.3276H783.211V94.9569H777.129V82.3276Z" fill="#111111"/>
<rect x="749.562" y="99.6597" width="12.6869" height="12.6293" fill="#111111"/>
<rect x="711.848" y="82.3276" width="12.6869" height="12.6293" fill="#111111"/>
<rect x="788.73" y="145.878" width="12.6869" height="12.6293" fill="#111111"/>
<rect x="769.043" y="167.543" width="12.7154" height="12.6293" fill="#111111"/>
<path d="M660.005 337.795H672.721L672.719 350.5H660.004L660.005 337.795Z" fill="#111111"/>
<g opacity="0.8">
<path d="M932.088 0H856.403V25.2586H843.739V50.5171H831.074V88.405H894.397V151.251H907.061V88.405H945.054V37.8878H932.088V0Z" fill="#6F1E27" stroke="#6F1E27" stroke-width="1.40332"/>
<rect x="831.074" y="88.4053" width="12.6645" height="12.6293" fill="#6F1E27"/>
<rect x="881.734" y="88.4048" width="12.6645" height="12.6293" fill="#6F1E27"/>
<rect x="932.383" y="88.4048" width="12.6645" height="12.6293" fill="#6F1E27"/>
<rect x="932.383" y="139.523" width="12.6645" height="24.0558" fill="#6F1E27"/>
<rect x="869.066" y="133.509" width="12.6645" height="30.0697" fill="#6F1E27"/>
<rect x="831.074" y="150.95" width="12.6645" height="12.6293" fill="#6F1E27"/>
<rect x="907.066" y="150.95" width="12.6645" height="12.6293" fill="#6F1E27"/>
<rect x="881.734" y="150.95" width="25.3289" height="12.6293" fill="#6F1E27"/>
<rect x="919.719" y="150.95" width="12.6645" height="12.6293" fill="#6F1E27"/>
<rect x="945.055" y="150.95" width="25.3289" height="12.6293" fill="#6F1E27"/>
<path d="M970.383 139.523H977.254V152.152H970.383V139.523Z" fill="#6F1E27"/>
<rect x="907.066" y="88.4053" width="12.6645" height="22.853" fill="#6F1E27"/>
<rect x="856.402" y="88.4053" width="12.6645" height="31.8739" fill="#6F1E27"/>
<path d="M831.074 163.579L945.054 163.88V252.285H932.298V390.906H932.39H945.054V504.269H932.39V390.906H932.298H919.725V290.173H907.061V264.914H894.397V239.656H881.732V252.285H869.068V277.543H856.403V290.173H843.739V504.269H831.074V163.579Z" fill="#6F1E27"/>
<path d="M932.39 390.906H932.298V252.285H945.054V163.88L831.074 163.579V504.269H843.739V290.173H856.403V277.543H869.068V252.285H881.732V239.656H894.397V264.914H907.061V290.173H919.725V390.906H932.39ZM932.39 390.906H945.054V504.269H932.39V390.906Z" stroke="#6F1E27" stroke-width="1.40332"/>
<rect x="977.344" y="335.087" width="12.6645" height="12.6293" fill="#111111"/>
<path d="M829.613 174.765H841.512V187.394H829.613V174.765Z" fill="#111111"/>
<rect x="902.574" y="209.43" width="12.6361" height="12.6293" fill="#111111"/>
<rect x="876.559" y="187.764" width="12.6361" height="12.6293" fill="#111111"/>
<rect x="865.004" y="228.206" width="12.6361" height="12.6293" fill="#111111"/>
<rect x="914.867" y="180.542" width="12.6361" height="12.6293" fill="#111111"/>
<rect x="836.102" y="311.977" width="12.6361" height="12.6293" fill="#111111"/>
<rect x="914.129" y="348.086" width="12.6361" height="12.6293" fill="#111111"/>
<rect x="927.879" y="381.306" width="12.6361" height="12.6293" fill="#111111"/>
<rect x="838.992" y="246.982" width="12.6361" height="12.6293" fill="#111111"/>
<rect x="889.562" y="54.8857" width="12.6361" height="12.6293" fill="#111111"/>
<path d="M828.172 77.272H840.066V89.9013H828.172V77.272Z" fill="#111111"/>
<path d="M922.797 11.5552H935.433V24.1845H922.797V11.5552Z" fill="#111111"/>
<rect x="863.555" width="12.6361" height="12.6293" fill="#111111"/>
<rect x="837.543" y="206.541" width="12.6361" height="12.6293" fill="#111111"/>
<rect x="915.574" y="274.425" width="12.6361" height="12.6293" fill="#111111"/>
<rect x="923.539" y="246.982" width="12.6361" height="12.6293" fill="#111111"/>
<path d="M936.547 228.206H948.403V240.835H936.547V228.206Z" fill="#111111"/>
<path d="M830.336 418.858H836.47V431.488H830.336V418.858Z" fill="#111111"/>
<rect x="929.32" y="486.742" width="12.6361" height="12.6293" fill="#111111"/>
<path d="M942.324 441.967H948.375V454.597H942.324V441.967Z" fill="#111111"/>
<path d="M830.336 470.855H836.468V483.485H830.336V470.855Z" fill="#111111"/>
<rect x="891.754" y="119.88" width="12.6361" height="12.6293" fill="#111111"/>
<rect x="878.75" y="157.433" width="12.6361" height="12.6293" fill="#111111"/>
<path d="M942.324 82.3276H948.382V94.9569H942.324V82.3276Z" fill="#111111"/>
<rect x="914.867" y="99.6597" width="12.6361" height="12.6293" fill="#111111"/>
<rect x="877.305" y="82.3276" width="12.6361" height="12.6293" fill="#111111"/>
<rect x="953.883" y="145.878" width="12.6361" height="12.6293" fill="#111111"/>
<rect x="934.27" y="167.543" width="12.6645" height="12.6293" fill="#111111"/>
<path d="M825.009 337.795H837.674L837.672 350.5H825.008L825.009 337.795Z" fill="#111111"/>
</g>
<g opacity="0.6">
<path d="M1096.96 0H1021.12V25.2586H1008.43V50.5171H995.742V88.405H1059.2V151.251H1071.89V88.405H1109.96V37.8878H1096.96V0Z" fill="#6F1E27" stroke="#6F1E27" stroke-width="1.40332"/>
<rect x="995.742" y="88.4053" width="12.6906" height="12.6293" fill="#6F1E27"/>
<rect x="1046.5" y="88.4048" width="12.6906" height="12.6293" fill="#6F1E27"/>
<rect x="1097.26" y="88.4048" width="12.6906" height="12.6293" fill="#6F1E27"/>
<rect x="1097.26" y="139.523" width="12.6906" height="24.0558" fill="#6F1E27"/>
<rect x="1033.81" y="133.509" width="12.6906" height="30.0697" fill="#6F1E27"/>
<rect x="995.742" y="150.95" width="12.6906" height="12.6293" fill="#6F1E27"/>
<rect x="1071.89" y="150.95" width="12.6906" height="12.6293" fill="#6F1E27"/>
<rect x="1046.5" y="150.95" width="25.3812" height="12.6293" fill="#6F1E27"/>
<rect x="1084.57" y="150.95" width="12.6906" height="12.6293" fill="#6F1E27"/>
<rect x="1109.96" y="150.95" width="25.3812" height="12.6293" fill="#6F1E27"/>
<path d="M1135.34 139.523H1142.22V152.152H1135.34V139.523Z" fill="#6F1E27"/>
<rect x="1071.89" y="88.4053" width="12.6906" height="22.853" fill="#6F1E27"/>
<rect x="1021.12" y="88.4053" width="12.6906" height="31.8739" fill="#6F1E27"/>
<path d="M995.742 163.579L1109.96 163.88V252.285H1097.18V390.906H1097.27H1109.96V504.269H1097.27V390.906H1097.18H1084.58V290.173H1071.89V264.914H1059.2V239.656H1046.5V252.285H1033.81V277.543H1021.12V290.173H1008.43V504.269H995.742V163.579Z" fill="#6F1E27"/>
<path d="M1097.27 390.906H1097.18V252.285H1109.96V163.88L995.742 163.579V504.269H1008.43V290.173H1021.12V277.543H1033.81V252.285H1046.5V239.656H1059.2V264.914H1071.89V290.173H1084.58V390.906H1097.27ZM1097.27 390.906H1109.96V504.269H1097.27V390.906Z" stroke="#6F1E27" stroke-width="1.40332"/>
<rect x="1142.32" y="335.086" width="12.6906" height="12.6293" fill="#111111"/>
<path d="M994.281 174.765H1006.2V187.394H994.281V174.765Z" fill="#111111"/>
<rect x="1067.39" y="209.43" width="12.6622" height="12.6293" fill="#111111"/>
<rect x="1041.32" y="187.764" width="12.6622" height="12.6293" fill="#111111"/>
<rect x="1029.74" y="228.206" width="12.6622" height="12.6293" fill="#111111"/>
<rect x="1079.71" y="180.542" width="12.6622" height="12.6293" fill="#111111"/>
<rect x="1000.79" y="311.977" width="12.6622" height="12.6293" fill="#111111"/>
<rect x="1078.97" y="348.086" width="12.6622" height="12.6293" fill="#111111"/>
<rect x="1092.75" y="381.306" width="12.6622" height="12.6293" fill="#111111"/>
<rect x="1003.68" y="246.982" width="12.6622" height="12.6293" fill="#111111"/>
<rect x="1054.36" y="54.8848" width="12.6622" height="12.6293" fill="#111111"/>
<path d="M992.84 77.272H1004.76V89.9013H992.84V77.272Z" fill="#111111"/>
<path d="M1087.66 11.5552H1100.32V24.1845H1087.66V11.5552Z" fill="#111111"/>
<rect x="1028.3" width="12.6622" height="12.6293" fill="#111111"/>
<rect x="1002.23" y="206.541" width="12.6622" height="12.6293" fill="#111111"/>
<rect x="1080.42" y="274.425" width="12.6622" height="12.6293" fill="#111111"/>
<rect x="1088.4" y="246.982" width="12.6622" height="12.6293" fill="#111111"/>
<path d="M1101.43 228.206H1113.31V240.835H1101.43V228.206Z" fill="#111111"/>
<path d="M995.004 418.858H1001.15V431.488H995.004V418.858Z" fill="#111111"/>
<rect x="1094.2" y="486.742" width="12.6622" height="12.6293" fill="#111111"/>
<path d="M1107.23 441.967H1113.29V454.597H1107.23V441.967Z" fill="#111111"/>
<path d="M995.004 470.854H1001.15V483.483H995.004V470.854Z" fill="#111111"/>
<rect x="1056.55" y="119.88" width="12.6622" height="12.6293" fill="#111111"/>
<rect x="1043.52" y="157.433" width="12.6622" height="12.6293" fill="#111111"/>
<path d="M1107.23 82.3276H1113.3V94.9569H1107.23V82.3276Z" fill="#111111"/>
<rect x="1079.71" y="99.6597" width="12.6622" height="12.6293" fill="#111111"/>
<rect x="1042.07" y="82.3276" width="12.6622" height="12.6293" fill="#111111"/>
<rect x="1118.8" y="145.878" width="12.6622" height="12.6293" fill="#111111"/>
<rect x="1099.15" y="167.543" width="12.6906" height="12.6293" fill="#111111"/>
<path d="M990.009 337.795H1002.7L1002.7 350.5H990.008L990.009 337.795Z" fill="#111111"/>
</g>
<g opacity="0.4">
<path d="M1261.85 0H1185.84V25.2586H1173.12V50.5171H1160.41V88.405H1224V151.251H1236.71V88.405H1274.87V37.8878H1261.85V0Z" fill="#6F1E27" stroke="#6F1E27" stroke-width="1.40332"/>
<rect x="1160.41" y="88.4053" width="12.7178" height="12.6293" fill="#6F1E27"/>
<rect x="1211.28" y="88.4048" width="12.7178" height="12.6293" fill="#6F1E27"/>
<rect x="1262.14" y="88.4048" width="12.7178" height="12.6293" fill="#6F1E27"/>
<rect x="1262.14" y="139.523" width="12.7178" height="24.0558" fill="#6F1E27"/>
<rect x="1198.56" y="133.509" width="12.7178" height="30.0697" fill="#6F1E27"/>
<rect x="1160.41" y="150.95" width="12.7178" height="12.6293" fill="#6F1E27"/>
<rect x="1236.71" y="150.95" width="12.7178" height="12.6293" fill="#6F1E27"/>
<rect x="1211.28" y="150.95" width="25.4356" height="12.6293" fill="#6F1E27"/>
<rect x="1249.43" y="150.95" width="12.7178" height="12.6293" fill="#6F1E27"/>
<rect x="1274.87" y="150.95" width="25.4356" height="12.6293" fill="#6F1E27"/>
<path d="M1300.3 139.523H1307.21V152.152H1300.3V139.523Z" fill="#6F1E27"/>
<rect x="1236.71" y="88.4053" width="12.7178" height="22.853" fill="#6F1E27"/>
<rect x="1185.84" y="88.4053" width="12.7178" height="31.8739" fill="#6F1E27"/>
<path d="M1160.41 163.579L1274.87 163.88V252.285H1262.06V390.906H1262.15H1274.87V504.269H1262.15V390.906H1262.06H1249.43V290.173H1236.71V264.914H1224V239.656H1211.28V252.285H1198.56V277.543H1185.84V290.173H1173.12V504.269H1160.41V163.579Z" fill="#6F1E27"/>
<path d="M1262.15 390.906H1262.06V252.285H1274.87V163.88L1160.41 163.579V504.269H1173.12V290.173H1185.84V277.543H1198.56V252.285H1211.28V239.656H1224V264.914H1236.71V290.173H1249.43V390.906H1262.15ZM1262.15 390.906H1274.87V504.269H1262.15V390.906Z" stroke="#6F1E27" stroke-width="1.40332"/>
<rect x="1307.29" y="335.086" width="12.7178" height="12.6293" fill="#111111"/>
<path d="M1158.94 174.765H1170.89V187.394H1158.94V174.765Z" fill="#111111"/>
<rect x="1232.21" y="209.43" width="12.6893" height="12.6293" fill="#111111"/>
<rect x="1206.08" y="187.764" width="12.6893" height="12.6293" fill="#111111"/>
<rect x="1194.48" y="228.206" width="12.6893" height="12.6293" fill="#111111"/>
<rect x="1244.55" y="180.542" width="12.6893" height="12.6293" fill="#111111"/>
<rect x="1165.45" y="311.977" width="12.6893" height="12.6293" fill="#111111"/>
<rect x="1243.81" y="348.086" width="12.6893" height="12.6293" fill="#111111"/>
<rect x="1257.62" y="381.306" width="12.6893" height="12.6293" fill="#111111"/>
<rect x="1168.36" y="246.982" width="12.6893" height="12.6293" fill="#111111"/>
<rect x="1219.14" y="54.8848" width="12.6893" height="12.6293" fill="#111111"/>
<path d="M1157.49 77.272H1169.44V89.9013H1157.49V77.272Z" fill="#111111"/>
<path d="M1252.52 11.5552H1265.2V24.1845H1252.52V11.5552Z" fill="#111111"/>
<rect x="1193.02" width="12.6893" height="12.6293" fill="#111111"/>
<rect x="1166.9" y="206.541" width="12.6893" height="12.6293" fill="#111111"/>
<rect x="1245.26" y="274.425" width="12.6893" height="12.6293" fill="#111111"/>
<rect x="1253.26" y="246.982" width="12.6893" height="12.6293" fill="#111111"/>
<path d="M1266.32 228.206H1278.23V240.835H1266.32V228.206Z" fill="#111111"/>
<path d="M1159.66 418.858H1165.82V431.488H1159.66V418.858Z" fill="#111111"/>
<rect x="1259.06" y="486.742" width="12.6893" height="12.6293" fill="#111111"/>
<path d="M1272.12 441.967H1278.2V454.597H1272.12V441.967Z" fill="#111111"/>
<path d="M1159.66 470.854H1165.82V483.483H1159.66V470.854Z" fill="#111111"/>
<rect x="1221.34" y="119.88" width="12.6893" height="12.6293" fill="#111111"/>
<rect x="1208.28" y="157.433" width="12.6893" height="12.6293" fill="#111111"/>
<path d="M1272.12 82.3276H1278.21V94.9569H1272.12V82.3276Z" fill="#111111"/>
<rect x="1244.55" y="99.6597" width="12.6893" height="12.6293" fill="#111111"/>
<rect x="1206.83" y="82.3276" width="12.6893" height="12.6293" fill="#111111"/>
<rect x="1283.73" y="145.878" width="12.6893" height="12.6293" fill="#111111"/>
<rect x="1264.04" y="167.543" width="12.7178" height="12.6293" fill="#111111"/>
<path d="M1155.01 337.795H1167.73L1167.73 350.5H1155.01L1155.01 337.795Z" fill="#111111"/>
</g>
<g opacity="0.2">
<path d="M1426.99 0H1351.18V25.2586H1338.49V50.5171H1325.81V88.405H1389.24V151.251H1401.92V88.405H1439.98V37.8878H1426.99V0Z" fill="#6F1E27" stroke="#6F1E27" stroke-width="1.40332"/>
<rect x="1325.81" y="88.4053" width="12.6855" height="12.6293" fill="#6F1E27"/>
<rect x="1376.55" y="88.4048" width="12.6855" height="12.6293" fill="#6F1E27"/>
<rect x="1427.29" y="88.4048" width="12.6855" height="12.6293" fill="#6F1E27"/>
<rect x="1427.29" y="139.523" width="12.6855" height="24.0558" fill="#6F1E27"/>
<rect x="1363.86" y="133.509" width="12.6855" height="30.0697" fill="#6F1E27"/>
<rect x="1325.81" y="150.95" width="12.6855" height="12.6293" fill="#6F1E27"/>
<rect x="1401.93" y="150.95" width="12.6855" height="12.6293" fill="#6F1E27"/>
<rect x="1376.55" y="150.95" width="25.371" height="12.6293" fill="#6F1E27"/>
<rect x="1414.6" y="150.95" width="12.6855" height="12.6293" fill="#6F1E27"/>
<rect x="1439.98" y="150.95" width="25.371" height="12.6293" fill="#6F1E27"/>
<path d="M1465.35 139.523H1472.23V152.152H1465.35V139.523Z" fill="#6F1E27"/>
<rect x="1401.93" y="88.4053" width="12.6855" height="22.853" fill="#6F1E27"/>
<rect x="1351.18" y="88.4053" width="12.6855" height="31.8739" fill="#6F1E27"/>
<path d="M1325.81 163.579L1439.98 163.88V252.285H1427.2V390.906H1427.29H1439.98V504.269H1427.29V390.906H1427.2H1414.61V290.173H1401.92V264.914H1389.24V239.656H1376.55V252.285H1363.87V277.543H1351.18V290.173H1338.49V504.269H1325.81V163.579Z" fill="#6F1E27"/>
<path d="M1427.29 390.906H1427.2V252.285H1439.98V163.88L1325.81 163.579V504.269H1338.49V290.173H1351.18V277.543H1363.87V252.285H1376.55V239.656H1389.24V264.914H1401.92V290.173H1414.61V390.906H1427.29ZM1427.29 390.906H1439.98V504.269H1427.29V390.906Z" stroke="#6F1E27" stroke-width="1.40332"/>
<rect x="1472.32" y="335.086" width="12.6855" height="12.6293" fill="#111111"/>
<path d="M1324.34 174.765H1336.26V187.394H1324.34V174.765Z" fill="#111111"/>
<rect x="1397.43" y="209.43" width="12.6571" height="12.6293" fill="#111111"/>
<rect x="1371.37" y="187.764" width="12.6571" height="12.6293" fill="#111111"/>
<rect x="1359.79" y="228.206" width="12.6571" height="12.6293" fill="#111111"/>
<rect x="1409.74" y="180.542" width="12.6571" height="12.6293" fill="#111111"/>
<rect x="1330.85" y="311.977" width="12.6571" height="12.6293" fill="#111111"/>
<rect x="1409" y="348.086" width="12.6571" height="12.6293" fill="#111111"/>
<rect x="1422.77" y="381.306" width="12.6571" height="12.6293" fill="#111111"/>
<rect x="1333.74" y="246.982" width="12.6571" height="12.6293" fill="#111111"/>
<rect x="1384.4" y="54.8848" width="12.6571" height="12.6293" fill="#111111"/>
<path d="M1322.91 77.272H1334.82V89.9013H1322.91V77.272Z" fill="#111111"/>
<path d="M1417.68 11.5552H1430.34V24.1845H1417.68V11.5552Z" fill="#111111"/>
<rect x="1358.35" width="12.6571" height="12.6293" fill="#111111"/>
<rect x="1332.29" y="206.541" width="12.6571" height="12.6293" fill="#111111"/>
<rect x="1410.45" y="274.425" width="12.6571" height="12.6293" fill="#111111"/>
<rect x="1418.43" y="246.982" width="12.6571" height="12.6293" fill="#111111"/>
<path d="M1431.46 228.206H1443.33V240.835H1431.46V228.206Z" fill="#111111"/>
<path d="M1325.07 418.858H1331.21V431.488H1325.07V418.858Z" fill="#111111"/>
<rect x="1424.22" y="486.742" width="12.6571" height="12.6293" fill="#111111"/>
<path d="M1437.25 441.967H1443.31V454.597H1437.25V441.967Z" fill="#111111"/>
<path d="M1325.07 470.854H1331.21V483.483H1325.07V470.854Z" fill="#111111"/>
<rect x="1386.59" y="119.88" width="12.6571" height="12.6293" fill="#111111"/>
<rect x="1373.57" y="157.433" width="12.6571" height="12.6293" fill="#111111"/>
<path d="M1437.25 82.3276H1443.31V94.9569H1437.25V82.3276Z" fill="#111111"/>
<rect x="1409.74" y="99.6597" width="12.6571" height="12.6293" fill="#111111"/>
<rect x="1372.12" y="82.3276" width="12.6571" height="12.6293" fill="#111111"/>
<rect x="1448.82" y="145.878" width="12.6571" height="12.6293" fill="#111111"/>
<rect x="1429.18" y="167.543" width="12.6855" height="12.6293" fill="#111111"/>
<path d="M1320.01 337.795H1332.73L1332.73 350.5H1320.01L1320.01 337.795Z" fill="#111111"/>
</g>
</g>
<defs>
<clipPath id="clip0_401_70">
<rect width="1485.01" height="504.269" fill="white"/>
</clipPath>
</defs>
</svg>
