<svg width="109" height="349" viewBox="0 0 109 349" fill="none" xmlns="http://www.w3.org/2000/svg">
<path d="M73.7507 0H21.4897V17.488H12.7449V34.976H4V61.2079H47.7243V104.72H56.4692V61.2079H82.7038V26.232H73.7507V0Z" fill="#314A46" stroke="#314A46" stroke-width="0.971603"/>
<rect x="4" y="61.208" width="8.74487" height="8.74399" fill="white"/>
<rect x="38.9805" y="61.2075" width="8.74487" height="8.74399" fill="white"/>
<rect x="73.957" y="61.2075" width="8.74487" height="8.74399" fill="white"/>
<rect x="73.957" y="96.6001" width="8.74487" height="16.6552" fill="white"/>
<rect x="30.2344" y="92.4365" width="8.74487" height="20.819" fill="white"/>
<rect x="4" y="104.511" width="8.74487" height="8.74399" fill="white"/>
<rect x="56.4688" y="104.511" width="8.74487" height="8.74399" fill="white"/>
<rect x="38.9805" y="104.511" width="17.4897" height="8.74399" fill="#6F1E27"/>
<rect x="65.2109" y="104.511" width="8.74487" height="8.74399" fill="#6F1E27"/>
<rect x="82.7031" y="104.511" width="17.4897" height="8.74399" fill="#6F1E27"/>
<rect x="100.195" y="96.6001" width="8.74487" height="8.74399" fill="#6F1E27"/>
<rect x="56.4688" y="61.208" width="8.74487" height="15.8225" fill="white"/>
<rect x="21.4883" y="61.208" width="8.74487" height="22.0682" fill="white"/>
<path d="M4 113.255L82.7038 113.464V174.671H73.8955V270.647H73.9589H82.7038V349.135H73.9589V270.647H73.8955H65.2141V200.903H56.4692V183.415H47.7243V165.928H38.9795V174.671H30.2346V192.159H21.4897V200.903H12.7449V349.135H4V113.255Z" fill="#314A46"/>
<path d="M73.9589 270.647H73.8955V174.671H82.7038V113.464L4 113.255V349.135H12.7449V200.903H21.4897V192.159H30.2346V174.671H38.9795V165.927H47.7243V183.415H56.4692V200.903H65.2141V270.647H73.9589ZM73.9589 270.647H82.7038V349.135H73.9589V270.647Z" stroke="#314A46" stroke-width="0.971603"/>
<rect y="208" width="8.74487" height="8.74399" fill="#111111"/>
<rect x="57" y="145" width="8.74487" height="8.74399" fill="#111111"/>
<rect x="39" y="130" width="8.74487" height="8.74399" fill="#111111"/>
<rect x="13" y="171" width="8.74487" height="8.74399" fill="#111111"/>
<rect x="75" y="116" width="8.74487" height="8.74399" fill="#111111"/>
<path d="M12 17H21V25.744H12V17Z" fill="#111111"/>
<rect x="48" y="38" width="8.74487" height="8.74399" fill="#111111"/>
<rect x="30" width="8.74487" height="8.74399" fill="#111111"/>
<rect x="12" y="143" width="8.74487" height="8.74399" fill="#111111"/>
<rect x="66" y="190" width="8.74487" height="8.74399" fill="#111111"/>
</svg>
