<svg width="1089" height="371" viewBox="0 0 1089 371" fill="none" xmlns="http://www.w3.org/2000/svg">
<g clip-path="url(#clip0_401_70)">
<path d="M78.4531 0.0673828H22.8591V18.6072H13.5565V37.147H4.25391V64.9568H50.7669V111.086H60.0694V64.9568H87.9772V27.8771H78.4531V0.0673828Z" fill="#314A46" stroke="#314A46" stroke-width="1.03004"/>
<rect x="4.25391" y="64.957" width="9.30259" height="9.26991" fill="white"/>
<rect x="41.4609" y="64.9565" width="9.30259" height="9.26991" fill="white"/>
<rect x="78.6719" y="64.9565" width="9.30259" height="9.26991" fill="white"/>
<rect x="78.6719" y="102.478" width="9.30259" height="17.657" fill="white"/>
<rect x="32.1602" y="98.0635" width="9.30259" height="22.0712" fill="white"/>
<rect x="4.25391" y="110.865" width="9.30259" height="9.26991" fill="white"/>
<rect x="60.0742" y="110.865" width="9.30259" height="9.26991" fill="white"/>
<rect x="41.4609" y="110.865" width="18.6052" height="9.26991" fill="#6F1E27"/>
<rect x="69.3711" y="110.865" width="9.30259" height="9.26991" fill="#6F1E27"/>
<rect x="87.9766" y="110.865" width="18.6052" height="9.26991" fill="#6F1E27"/>
<path d="M106.586 102.478H111.633V111.747H106.586V102.478Z" fill="#6F1E27"/>
<rect x="60.0742" y="64.957" width="9.30259" height="16.7741" fill="white"/>
<rect x="22.8594" y="64.957" width="9.30259" height="23.3955" fill="white"/>
<path d="M4.25391 120.135L87.9772 120.355V185.245H78.6071V286.993H78.6746H87.9772V370.202H78.6746V286.993H78.6071H69.372V213.055H60.0694V194.515H50.7669V175.975H41.4643V185.245H32.1617V203.785H22.8591V213.055H13.5565V370.202H4.25391V120.135Z" fill="#314A46"/>
<path d="M78.6746 286.993H78.6071V185.245H87.9772V120.355L4.25391 120.135V370.202H13.5565V213.055H22.8591V203.785H32.1617V185.245H41.4643V175.975H50.7669V194.515H60.0694V213.055H69.372V286.993H78.6746ZM78.6746 286.993H87.9772V370.202H78.6746V286.993Z" stroke="#314A46" stroke-width="1.03004"/>
<path d="M0.000999374 248.009H9.30359L9.30259 257.335H0L0.000999374 248.009Z" fill="#FAFF15"/>
<rect x="111.699" y="246.022" width="9.30259" height="9.26991" fill="#111111"/>
<path d="M199.373 0.0673828H143.663V18.6072H134.341V37.147H125.02V64.9568H171.629V111.086H180.951V64.9568H208.917V27.8771H199.373V0.0673828Z" fill="#314A46" stroke="#314A46" stroke-width="1.03004"/>
<rect x="125.02" y="64.957" width="9.32189" height="9.26991" fill="white"/>
<rect x="162.305" y="64.9565" width="9.32189" height="9.26991" fill="white"/>
<rect x="199.594" y="64.9565" width="9.32189" height="9.26991" fill="white"/>
<rect x="199.594" y="102.478" width="9.32189" height="17.657" fill="white"/>
<rect x="152.984" y="98.0635" width="9.32189" height="22.0712" fill="white"/>
<rect x="125.02" y="110.865" width="9.32189" height="9.26991" fill="white"/>
<rect x="180.953" y="110.865" width="9.32189" height="9.26991" fill="white"/>
<rect x="162.305" y="110.865" width="18.6438" height="9.26991" fill="#6F1E27"/>
<rect x="190.27" y="110.865" width="9.32189" height="9.26991" fill="#6F1E27"/>
<rect x="208.914" y="110.865" width="18.6438" height="9.26991" fill="#6F1E27"/>
<path d="M227.559 102.478H232.617V111.747H227.559V102.478Z" fill="#6F1E27"/>
<rect x="180.953" y="64.957" width="9.32189" height="16.7741" fill="white"/>
<rect x="143.664" y="64.957" width="9.32189" height="23.3955" fill="white"/>
<path d="M125.02 120.135L208.917 120.355V185.245H199.527V286.993H199.595H208.917V370.202H199.595V286.993H199.527H190.273V213.055H180.951V194.515H171.629V175.975H162.307V185.245H152.985V203.785H143.663V213.055H134.341V370.202H125.02V120.135Z" fill="#314A46"/>
<path d="M199.595 286.993H199.527V185.245H208.917V120.355L125.02 120.135V370.202H134.341V213.055H143.663V203.785H152.985V185.245H162.307V175.975H171.629V194.515H180.951V213.055H190.273V286.993H199.595ZM199.595 286.993H208.917V370.202H199.595V286.993Z" stroke="#314A46" stroke-width="1.03004"/>
<rect x="232.68" y="246.021" width="9.32189" height="9.26991" fill="#111111"/>
<rect x="200.973" y="123.044" width="9.32189" height="9.26991" fill="#111111"/>
<rect x="152.996" y="0.0673828" width="9.32189" height="9.26991" fill="#111111"/>
<rect x="177.641" y="153.789" width="9.30103" height="9.26991" fill="#111111"/>
<rect x="158.492" y="137.886" width="9.30103" height="9.26991" fill="#111111"/>
<rect x="130.84" y="181.353" width="9.30103" height="9.26991" fill="#111111"/>
<rect x="168.066" y="40.353" width="9.30103" height="9.26991" fill="#111111"/>
<rect x="148.922" y="0.0673828" width="9.30103" height="9.26991" fill="#111111"/>
<rect x="129.777" y="151.668" width="9.30103" height="9.26991" fill="#111111"/>
<rect x="187.211" y="201.496" width="9.30103" height="9.26991" fill="#111111"/>
<path d="M121.001 248.009H130.323L130.322 257.335H121L121.001 248.009Z" fill="#111111"/>
<path d="M320.541 0.0673828H265.051V18.6072H255.766V37.147H246.48V64.9568H292.906V111.086H302.192V64.9568H330.047V27.8771H320.541V0.0673828Z" fill="#314A46" stroke="#314A46" stroke-width="1.03004"/>
<rect x="246.48" y="64.957" width="9.28521" height="9.26991" fill="white"/>
<rect x="283.621" y="64.9565" width="9.28521" height="9.26991" fill="white"/>
<rect x="320.758" y="64.9565" width="9.28521" height="9.26991" fill="white"/>
<rect x="320.758" y="102.478" width="9.28521" height="17.657" fill="white"/>
<rect x="274.332" y="98.0635" width="9.28521" height="22.0712" fill="white"/>
<rect x="246.48" y="110.865" width="9.28521" height="9.26991" fill="white"/>
<rect x="302.195" y="110.865" width="9.28521" height="9.26991" fill="white"/>
<rect x="283.621" y="110.865" width="18.5704" height="9.26991" fill="#6F1E27"/>
<rect x="311.473" y="110.865" width="9.28521" height="9.26991" fill="#6F1E27"/>
<rect x="330.047" y="110.865" width="18.5704" height="9.26991" fill="#6F1E27"/>
<path d="M348.617 102.478H353.655V111.747H348.617V102.478Z" fill="#6F1E27"/>
<rect x="302.195" y="64.957" width="9.28521" height="16.7741" fill="white"/>
<rect x="265.051" y="64.957" width="9.28521" height="23.3955" fill="white"/>
<path d="M246.48 120.135L330.047 120.355V185.245H320.695V286.993H320.762H330.047V370.202H320.762V286.993H320.695H311.477V213.055H302.192V194.515H292.906V175.975H283.621V185.245H274.336V203.785H265.051V213.055H255.766V370.202H246.48V120.135Z" fill="#314A46"/>
<path d="M320.762 286.993H320.695V185.245H330.047V120.355L246.48 120.135V370.202H255.766V213.055H265.051V203.785H274.336V185.245H283.621V175.975H292.906V194.515H302.192V213.055H311.477V286.993H320.762ZM320.762 286.993H330.047V370.202H320.762V286.993Z" stroke="#314A46" stroke-width="1.03004"/>
<rect x="353.715" y="246.021" width="9.28521" height="9.26991" fill="#111111"/>
<path d="M245.398 128.345H254.122V137.615H245.398V128.345Z" fill="#111111"/>
<rect x="298.898" y="153.789" width="9.26443" height="9.26991" fill="#111111"/>
<rect x="279.82" y="137.886" width="9.26443" height="9.26991" fill="#111111"/>
<rect x="271.348" y="167.571" width="9.26443" height="9.26991" fill="#111111"/>
<rect x="307.906" y="132.585" width="9.26443" height="9.26991" fill="#111111"/>
<rect x="250.16" y="229.059" width="9.26443" height="9.26991" fill="#111111"/>
<rect x="307.367" y="255.563" width="9.26443" height="9.26991" fill="#111111"/>
<rect x="317.445" y="279.946" width="9.26443" height="9.26991" fill="#111111"/>
<rect x="252.281" y="181.353" width="9.26443" height="9.26991" fill="#111111"/>
<rect x="289.359" y="40.353" width="9.26443" height="9.26991" fill="#111111"/>
<path d="M244.344 56.7852H253.064V66.0551H244.344V56.7852Z" fill="#111111"/>
<path d="M313.723 8.54883H322.987V17.8187H313.723V8.54883Z" fill="#111111"/>
<rect x="270.285" y="0.0673828" width="9.26443" height="9.26991" fill="#111111"/>
<rect x="251.219" y="151.668" width="9.26443" height="9.26991" fill="#111111"/>
<rect x="308.426" y="201.496" width="9.26443" height="9.26991" fill="#111111"/>
<rect x="322.133" y="123.044" width="9.28521" height="9.26991" fill="#111111"/>
<path d="M242.001 248.009H251.286L251.285 257.335H242L242.001 248.009Z" fill="#111111"/>
<path d="M441.45 0.0673828H385.844V18.6072H376.539V37.147H367.234V64.9568H413.758V111.086H423.062V64.9568H450.976V27.8771H441.45V0.0673828Z" fill="#314A46" stroke="#314A46" stroke-width="1.03004"/>
<rect x="367.234" y="64.957" width="9.30465" height="9.26991" fill="white"/>
<rect x="404.453" y="64.9565" width="9.30465" height="9.26991" fill="white"/>
<rect x="441.668" y="64.9565" width="9.30465" height="9.26991" fill="white"/>
<rect x="441.668" y="102.478" width="9.30465" height="17.657" fill="white"/>
<rect x="395.148" y="98.0635" width="9.30465" height="22.0712" fill="white"/>
<rect x="367.234" y="110.865" width="9.30465" height="9.26991" fill="white"/>
<rect x="423.066" y="110.865" width="9.30465" height="9.26991" fill="white"/>
<rect x="404.453" y="110.865" width="18.6093" height="9.26991" fill="#6F1E27"/>
<rect x="432.363" y="110.865" width="9.30465" height="9.26991" fill="#6F1E27"/>
<rect x="450.977" y="110.865" width="18.6093" height="9.26991" fill="#6F1E27"/>
<path d="M469.586 102.478H474.635V111.747H469.586V102.478Z" fill="#6F1E27"/>
<rect x="423.066" y="64.957" width="9.30465" height="16.7741" fill="white"/>
<rect x="385.844" y="64.957" width="9.30465" height="23.3955" fill="white"/>
<path d="M367.234 120.135L450.976 120.355V185.245H441.604V286.993H441.672H450.976V370.202H441.672V286.993H441.604H432.367V213.055H423.062V194.515H413.758V175.975H404.453V185.245H395.148V203.785H385.844V213.055H376.539V370.202H367.234V120.135Z" fill="#314A46"/>
<path d="M441.672 286.993H441.604V185.245H450.976V120.355L367.234 120.135V370.202H376.539V213.055H385.844V203.785H395.148V185.245H404.453V175.975H413.758V194.515H423.062V213.055H432.367V286.993H441.672ZM441.672 286.993H450.976V370.202H441.672V286.993Z" stroke="#314A46" stroke-width="1.03004"/>
<rect x="474.695" y="246.021" width="9.30465" height="9.26991" fill="#111111"/>
<path d="M366.156 128.345H374.899V137.615H366.156V128.345Z" fill="#111111"/>
<rect x="419.762" y="153.789" width="9.28382" height="9.26991" fill="#111111"/>
<rect x="400.645" y="137.886" width="9.28382" height="9.26991" fill="#111111"/>
<rect x="392.156" y="167.571" width="9.28382" height="9.26991" fill="#111111"/>
<rect x="428.797" y="132.585" width="9.28382" height="9.26991" fill="#111111"/>
<rect x="370.922" y="229.059" width="9.28382" height="9.26991" fill="#111111"/>
<rect x="428.254" y="255.563" width="9.28382" height="9.26991" fill="#111111"/>
<rect x="438.352" y="279.946" width="9.28382" height="9.26991" fill="#111111"/>
<rect x="373.047" y="181.353" width="9.28382" height="9.26991" fill="#111111"/>
<rect x="410.203" y="40.353" width="9.28382" height="9.26991" fill="#111111"/>
<path d="M365.102 56.7852H373.84V66.0551H365.102V56.7852Z" fill="#111111"/>
<path d="M434.621 8.54883H443.905V17.8187H434.621V8.54883Z" fill="#111111"/>
<rect x="391.094" y="0.0673828" width="9.28382" height="9.26991" fill="#111111"/>
<rect x="371.984" y="151.668" width="9.28382" height="9.26991" fill="#111111"/>
<rect x="429.312" y="201.496" width="9.28382" height="9.26991" fill="#111111"/>
<rect x="435.164" y="181.353" width="9.28382" height="9.26991" fill="#111111"/>
<path d="M444.723 167.571H453.433V176.841H444.723V167.571Z" fill="#111111"/>
<path d="M366.688 307.51H371.194V316.78H366.688V307.51Z" fill="#111111"/>
<rect x="439.41" y="357.337" width="9.28382" height="9.26991" fill="#111111"/>
<path d="M448.965 324.472H453.41V333.742H448.965V324.472Z" fill="#111111"/>
<path d="M366.688 345.675H371.193V354.945H366.688V345.675Z" fill="#111111"/>
<rect x="411.812" y="88.0596" width="9.28382" height="9.26991" fill="#111111"/>
<rect x="402.258" y="115.624" width="9.28382" height="9.26991" fill="#111111"/>
<path d="M448.965 60.4961H453.415V69.766H448.965V60.4961Z" fill="#111111"/>
<rect x="428.797" y="73.2178" width="9.28382" height="9.26991" fill="#111111"/>
<rect x="401.195" y="60.4961" width="9.28382" height="9.26991" fill="#111111"/>
<rect x="443.051" y="123.044" width="9.30465" height="9.26991" fill="#111111"/>
<path d="M363.001 248.009H372.306L372.305 257.335H363L363.001 248.009Z" fill="#111111"/>
<path d="M562.363 0.0673828H506.637V18.6072H497.313V37.147H487.988V64.9568H534.611V111.086H543.936V64.9568H571.909V27.8771H562.363V0.0673828Z" fill="#314A46" stroke="#314A46" stroke-width="1.03004"/>
<rect x="487.988" y="64.957" width="9.32457" height="9.26991" fill="white"/>
<rect x="525.285" y="64.9565" width="9.32457" height="9.26991" fill="white"/>
<rect x="562.582" y="64.9565" width="9.32457" height="9.26991" fill="white"/>
<rect x="562.582" y="102.478" width="9.32457" height="17.657" fill="white"/>
<rect x="515.961" y="98.0635" width="9.32457" height="22.0712" fill="white"/>
<rect x="487.988" y="110.865" width="9.32457" height="9.26991" fill="white"/>
<rect x="543.941" y="110.865" width="9.32457" height="9.26991" fill="white"/>
<rect x="525.285" y="110.865" width="18.6491" height="9.26991" fill="#6F1E27"/>
<rect x="553.254" y="110.865" width="9.32457" height="9.26991" fill="#6F1E27"/>
<rect x="571.906" y="110.865" width="18.6491" height="9.26991" fill="#6F1E27"/>
<path d="M590.559 102.478H595.618V111.747H590.559V102.478Z" fill="#6F1E27"/>
<rect x="543.941" y="64.957" width="9.32457" height="16.7741" fill="white"/>
<rect x="506.637" y="64.957" width="9.32457" height="23.3955" fill="white"/>
<path d="M487.988 120.135L571.909 120.355V185.245H562.517V286.993H562.585H571.909V370.202H562.585V286.993H562.517H553.26V213.055H543.936V194.515H534.611V175.975H525.287V185.245H515.962V203.785H506.637V213.055H497.313V370.202H487.988V120.135Z" fill="#314A46"/>
<path d="M562.585 286.993H562.517V185.245H571.909V120.355L487.988 120.135V370.202H497.313V213.055H506.637V203.785H515.962V185.245H525.287V175.975H534.611V194.515H543.936V213.055H553.26V286.993H562.585ZM562.585 286.993H571.909V370.202H562.585V286.993Z" stroke="#314A46" stroke-width="1.03004"/>
<rect x="595.676" y="246.021" width="9.32457" height="9.26991" fill="#111111"/>
<path d="M486.902 128.345H495.663V137.615H486.902V128.345Z" fill="#111111"/>
<rect x="540.625" y="153.789" width="9.3037" height="9.26991" fill="#111111"/>
<rect x="521.469" y="137.886" width="9.3037" height="9.26991" fill="#111111"/>
<rect x="512.961" y="167.571" width="9.3037" height="9.26991" fill="#111111"/>
<rect x="549.676" y="132.585" width="9.3037" height="9.26991" fill="#111111"/>
<rect x="491.684" y="229.059" width="9.3037" height="9.26991" fill="#111111"/>
<rect x="549.133" y="255.563" width="9.3037" height="9.26991" fill="#111111"/>
<rect x="559.254" y="279.946" width="9.3037" height="9.26991" fill="#111111"/>
<rect x="493.809" y="181.353" width="9.3037" height="9.26991" fill="#111111"/>
<rect x="531.047" y="40.353" width="9.3037" height="9.26991" fill="#111111"/>
<path d="M485.848 56.7852H494.605V66.0551H485.848V56.7852Z" fill="#111111"/>
<path d="M555.512 8.54883H564.815V17.8187H555.512V8.54883Z" fill="#111111"/>
<rect x="511.895" y="0.0673828" width="9.3037" height="9.26991" fill="#111111"/>
<rect x="492.746" y="151.668" width="9.3037" height="9.26991" fill="#111111"/>
<rect x="550.199" y="201.496" width="9.3037" height="9.26991" fill="#111111"/>
<rect x="556.062" y="181.353" width="9.3037" height="9.26991" fill="#111111"/>
<path d="M565.637 167.571H574.366V176.841H565.637V167.571Z" fill="#111111"/>
<path d="M487.434 307.51H491.95V316.78H487.434V307.51Z" fill="#111111"/>
<rect x="560.316" y="357.337" width="9.3037" height="9.26991" fill="#111111"/>
<path d="M569.891 324.472H574.346V333.742H569.891V324.472Z" fill="#111111"/>
<path d="M487.434 345.675H491.949V354.945H487.434V345.675Z" fill="#111111"/>
<rect x="532.656" y="88.0596" width="9.3037" height="9.26991" fill="#111111"/>
<rect x="523.086" y="115.624" width="9.3037" height="9.26991" fill="#111111"/>
<path d="M569.891 60.4961H574.351V69.766H569.891V60.4961Z" fill="#111111"/>
<rect x="549.676" y="73.2178" width="9.3037" height="9.26991" fill="#111111"/>
<rect x="522.02" y="60.4961" width="9.3037" height="9.26991" fill="#111111"/>
<rect x="578.398" y="107.142" width="9.3037" height="9.26991" fill="#111111"/>
<rect x="563.961" y="123.044" width="9.32457" height="9.26991" fill="#111111"/>
<path d="M484.001 248.009H493.326L493.325 257.335H484L484.001 248.009Z" fill="#111111"/>
<g opacity="0.8">
<path d="M683.526 0.0673828H628.024V18.6072H618.736V37.147H609.449V64.9568H655.885V111.086H665.173V64.9568H693.034V27.8771H683.526V0.0673828Z" fill="#6F1E27" stroke="#6F1E27" stroke-width="1.03004"/>
<rect x="609.449" y="64.957" width="9.28725" height="9.26991" fill="#6F1E27"/>
<rect x="646.598" y="64.9565" width="9.28725" height="9.26991" fill="#6F1E27"/>
<rect x="683.742" y="64.9565" width="9.28725" height="9.26991" fill="#6F1E27"/>
<rect x="683.742" y="102.478" width="9.28725" height="17.657" fill="#6F1E27"/>
<rect x="637.309" y="98.0635" width="9.28725" height="22.0712" fill="#6F1E27"/>
<rect x="609.449" y="110.865" width="9.28725" height="9.26991" fill="#6F1E27"/>
<rect x="665.176" y="110.865" width="9.28725" height="9.26991" fill="#6F1E27"/>
<rect x="646.598" y="110.865" width="18.5745" height="9.26991" fill="#6F1E27"/>
<rect x="674.457" y="110.865" width="9.28725" height="9.26991" fill="#6F1E27"/>
<rect x="693.031" y="110.865" width="18.5745" height="9.26991" fill="#6F1E27"/>
<path d="M711.609 102.478H716.649V111.747H711.609V102.478Z" fill="#6F1E27"/>
<rect x="665.176" y="64.957" width="9.28725" height="16.7741" fill="#6F1E27"/>
<rect x="628.023" y="64.957" width="9.28725" height="23.3955" fill="#6F1E27"/>
<path d="M609.449 120.135L693.034 120.355V185.245H683.68V286.993H683.747H693.034V370.202H683.747V286.993H683.68H674.46V213.055H665.173V194.515H655.885V175.975H646.598V185.245H637.311V203.785H628.024V213.055H618.736V370.202H609.449V120.135Z" fill="#6F1E27"/>
<path d="M683.747 286.993H683.68V185.245H693.034V120.355L609.449 120.135V370.202H618.736V213.055H628.024V203.785H637.311V185.245H646.598V175.975H655.885V194.515H665.173V213.055H674.46V286.993H683.747ZM683.747 286.993H693.034V370.202H683.747V286.993Z" stroke="#6F1E27" stroke-width="1.03004"/>
<rect x="716.715" y="246.022" width="9.28725" height="9.26991" fill="#111111"/>
<path d="M608.375 128.345H617.101V137.615H608.375V128.345Z" fill="#111111"/>
<rect x="661.883" y="153.789" width="9.26647" height="9.26991" fill="#111111"/>
<rect x="642.805" y="137.886" width="9.26647" height="9.26991" fill="#111111"/>
<rect x="634.328" y="167.571" width="9.26647" height="9.26991" fill="#111111"/>
<rect x="670.898" y="132.585" width="9.26647" height="9.26991" fill="#111111"/>
<rect x="613.137" y="229.059" width="9.26647" height="9.26991" fill="#111111"/>
<rect x="670.355" y="255.563" width="9.26647" height="9.26991" fill="#111111"/>
<rect x="680.438" y="279.946" width="9.26647" height="9.26991" fill="#111111"/>
<rect x="615.258" y="181.353" width="9.26647" height="9.26991" fill="#111111"/>
<rect x="652.34" y="40.3535" width="9.26647" height="9.26991" fill="#111111"/>
<path d="M607.32 56.7852H616.043V66.0551H607.32V56.7852Z" fill="#111111"/>
<path d="M676.711 8.54883H685.977V17.8187H676.711V8.54883Z" fill="#111111"/>
<rect x="633.266" y="0.0673828" width="9.26647" height="9.26991" fill="#111111"/>
<rect x="614.191" y="151.668" width="9.26647" height="9.26991" fill="#111111"/>
<rect x="671.414" y="201.496" width="9.26647" height="9.26991" fill="#111111"/>
<rect x="677.254" y="181.353" width="9.26647" height="9.26991" fill="#111111"/>
<path d="M686.797 167.571H695.491V176.841H686.797V167.571Z" fill="#111111"/>
<path d="M608.906 307.51H613.404V316.78H608.906V307.51Z" fill="#111111"/>
<rect x="681.496" y="357.337" width="9.26647" height="9.26991" fill="#111111"/>
<path d="M691.031 324.472H695.469V333.742H691.031V324.472Z" fill="#111111"/>
<path d="M608.906 345.676H613.403V354.946H608.906V345.676Z" fill="#111111"/>
<rect x="653.949" y="88.0596" width="9.26647" height="9.26991" fill="#111111"/>
<rect x="644.41" y="115.624" width="9.26647" height="9.26991" fill="#111111"/>
<path d="M691.031 60.4961H695.473V69.766H691.031V60.4961Z" fill="#111111"/>
<rect x="670.898" y="73.2178" width="9.26647" height="9.26991" fill="#111111"/>
<rect x="643.352" y="60.4961" width="9.26647" height="9.26991" fill="#111111"/>
<rect x="699.508" y="107.142" width="9.26647" height="9.26991" fill="#111111"/>
<rect x="685.125" y="123.044" width="9.28725" height="9.26991" fill="#111111"/>
<path d="M605.001 248.009H614.288L614.287 257.335H605L605.001 248.009Z" fill="#111111"/>
</g>
<g opacity="0.6">
<path d="M804.436 0.0673828H748.82V18.6072H739.513V37.147H730.207V64.9568H776.738V111.086H786.045V64.9568H813.964V27.8771H804.436V0.0673828Z" fill="#6F1E27" stroke="#6F1E27" stroke-width="1.03004"/>
<rect x="730.207" y="64.957" width="9.30628" height="9.26991" fill="#6F1E27"/>
<rect x="767.43" y="64.9565" width="9.30628" height="9.26991" fill="#6F1E27"/>
<rect x="804.652" y="64.9565" width="9.30628" height="9.26991" fill="#6F1E27"/>
<rect x="804.652" y="102.478" width="9.30628" height="17.657" fill="#6F1E27"/>
<rect x="758.125" y="98.0635" width="9.30628" height="22.0712" fill="#6F1E27"/>
<rect x="730.207" y="110.865" width="9.30628" height="9.26991" fill="#6F1E27"/>
<rect x="786.051" y="110.865" width="9.30628" height="9.26991" fill="#6F1E27"/>
<rect x="767.43" y="110.865" width="18.6126" height="9.26991" fill="#6F1E27"/>
<rect x="795.344" y="110.865" width="9.30628" height="9.26991" fill="#6F1E27"/>
<rect x="813.961" y="110.865" width="18.6126" height="9.26991" fill="#6F1E27"/>
<path d="M832.574 102.478H837.624V111.747H832.574V102.478Z" fill="#6F1E27"/>
<rect x="786.051" y="64.957" width="9.30628" height="16.7741" fill="#6F1E27"/>
<rect x="748.82" y="64.957" width="9.30628" height="23.3955" fill="#6F1E27"/>
<path d="M730.207 120.135L813.964 120.355V185.245H804.59V286.993H804.657H813.964V370.202H804.657V286.993H804.59H795.351V213.055H786.045V194.515H776.738V175.975H767.432V185.245H758.126V203.785H748.82V213.055H739.513V370.202H730.207V120.135Z" fill="#6F1E27"/>
<path d="M804.657 286.993H804.59V185.245H813.963V120.355L730.207 120.135V370.202H739.513V213.055H748.82V203.785H758.126V185.245H767.432V175.975H776.738V194.515H786.045V213.055H795.351V286.993H804.657ZM804.657 286.993H813.963V370.202H804.657V286.993Z" stroke="#6F1E27" stroke-width="1.03004"/>
<rect x="837.691" y="246.021" width="9.30628" height="9.26991" fill="#111111"/>
<path d="M729.133 128.345H737.877V137.615H729.133V128.345Z" fill="#111111"/>
<rect x="782.746" y="153.789" width="9.28545" height="9.26991" fill="#111111"/>
<rect x="763.633" y="137.886" width="9.28545" height="9.26991" fill="#111111"/>
<rect x="755.137" y="167.571" width="9.28545" height="9.26991" fill="#111111"/>
<rect x="791.781" y="132.585" width="9.28545" height="9.26991" fill="#111111"/>
<rect x="733.902" y="229.059" width="9.28545" height="9.26991" fill="#111111"/>
<rect x="791.238" y="255.563" width="9.28545" height="9.26991" fill="#111111"/>
<rect x="801.344" y="279.946" width="9.28545" height="9.26991" fill="#111111"/>
<rect x="736.027" y="181.353" width="9.28545" height="9.26991" fill="#111111"/>
<rect x="773.188" y="40.353" width="9.28545" height="9.26991" fill="#111111"/>
<path d="M728.078 56.7852H736.818V66.0551H728.078V56.7852Z" fill="#111111"/>
<path d="M797.609 8.54883H806.895V17.8187H797.609V8.54883Z" fill="#111111"/>
<rect x="754.078" y="0.0673828" width="9.28545" height="9.26991" fill="#111111"/>
<rect x="734.965" y="151.668" width="9.28545" height="9.26991" fill="#111111"/>
<rect x="792.301" y="201.496" width="9.28545" height="9.26991" fill="#111111"/>
<rect x="798.156" y="181.353" width="9.28545" height="9.26991" fill="#111111"/>
<path d="M807.711 167.571H816.423V176.841H807.711V167.571Z" fill="#111111"/>
<path d="M729.664 307.51H734.171V316.78H729.664V307.51Z" fill="#111111"/>
<rect x="802.402" y="357.337" width="9.28545" height="9.26991" fill="#111111"/>
<path d="M811.961 324.472H816.407V333.742H811.961V324.472Z" fill="#111111"/>
<path d="M729.664 345.675H734.17V354.945H729.664V345.675Z" fill="#111111"/>
<rect x="774.797" y="88.0596" width="9.28545" height="9.26991" fill="#111111"/>
<rect x="765.242" y="115.624" width="9.28545" height="9.26991" fill="#111111"/>
<path d="M811.961 60.4961H816.412V69.766H811.961V60.4961Z" fill="#111111"/>
<rect x="791.781" y="73.2178" width="9.28545" height="9.26991" fill="#111111"/>
<rect x="764.18" y="60.4961" width="9.28545" height="9.26991" fill="#111111"/>
<rect x="820.449" y="107.142" width="9.28545" height="9.26991" fill="#111111"/>
<rect x="806.039" y="123.044" width="9.30628" height="9.26991" fill="#111111"/>
<path d="M726.001 248.009H735.307L735.306 257.335H726L726.001 248.009Z" fill="#111111"/>
</g>
<g opacity="0.4">
<path d="M925.349 0.0673828H869.613V18.6072H860.287V37.147H850.961V64.9568H897.592V111.086H906.918V64.9568H934.897V27.8771H925.349V0.0673828Z" fill="#6F1E27" stroke="#6F1E27" stroke-width="1.03004"/>
<rect x="850.961" y="64.957" width="9.32621" height="9.26991" fill="#6F1E27"/>
<rect x="888.266" y="64.9565" width="9.32621" height="9.26991" fill="#6F1E27"/>
<rect x="925.566" y="64.9565" width="9.32621" height="9.26991" fill="#6F1E27"/>
<rect x="925.566" y="102.478" width="9.32621" height="17.657" fill="#6F1E27"/>
<rect x="878.938" y="98.0635" width="9.32621" height="22.0712" fill="#6F1E27"/>
<rect x="850.961" y="110.865" width="9.32621" height="9.26991" fill="#6F1E27"/>
<rect x="906.922" y="110.865" width="9.32621" height="9.26991" fill="#6F1E27"/>
<rect x="888.266" y="110.865" width="18.6524" height="9.26991" fill="#6F1E27"/>
<rect x="916.242" y="110.865" width="9.32621" height="9.26991" fill="#6F1E27"/>
<rect x="934.898" y="110.865" width="18.6524" height="9.26991" fill="#6F1E27"/>
<path d="M953.555 102.478H958.615V111.747H953.555V102.478Z" fill="#6F1E27"/>
<rect x="906.922" y="64.957" width="9.32621" height="16.7741" fill="#6F1E27"/>
<rect x="869.613" y="64.957" width="9.32621" height="23.3955" fill="#6F1E27"/>
<path d="M850.961 120.135L934.897 120.355V185.245H925.503V286.993H925.571H934.897V370.202H925.571V286.993H925.503H916.244V213.055H906.918V194.515H897.592V175.975H888.266V185.245H878.94V203.785H869.613V213.055H860.287V370.202H850.961V120.135Z" fill="#6F1E27"/>
<path d="M925.571 286.993H925.503V185.245H934.897V120.355L850.961 120.135V370.202H860.287V213.055H869.613V203.785H878.94V185.245H888.266V175.975H897.592V194.515H906.918V213.055H916.244V286.993H925.571ZM925.571 286.993H934.897V370.202H925.571V286.993Z" stroke="#6F1E27" stroke-width="1.03004"/>
<rect x="958.672" y="246.021" width="9.32621" height="9.26991" fill="#111111"/>
<path d="M849.879 128.345H858.641V137.615H849.879V128.345Z" fill="#111111"/>
<rect x="903.613" y="153.789" width="9.30534" height="9.26991" fill="#111111"/>
<rect x="884.453" y="137.886" width="9.30534" height="9.26991" fill="#111111"/>
<rect x="875.941" y="167.571" width="9.30534" height="9.26991" fill="#111111"/>
<rect x="912.664" y="132.585" width="9.30534" height="9.26991" fill="#111111"/>
<rect x="854.66" y="229.059" width="9.30534" height="9.26991" fill="#111111"/>
<rect x="912.121" y="255.563" width="9.30534" height="9.26991" fill="#111111"/>
<rect x="922.246" y="279.946" width="9.30534" height="9.26991" fill="#111111"/>
<rect x="856.789" y="181.353" width="9.30534" height="9.26991" fill="#111111"/>
<rect x="894.031" y="40.353" width="9.30534" height="9.26991" fill="#111111"/>
<path d="M848.824 56.7852H857.583V66.0551H848.824V56.7852Z" fill="#111111"/>
<path d="M918.504 8.54883H927.809V17.8187H918.504V8.54883Z" fill="#111111"/>
<rect x="874.875" y="0.0673828" width="9.30534" height="9.26991" fill="#111111"/>
<rect x="855.723" y="151.668" width="9.30534" height="9.26991" fill="#111111"/>
<rect x="913.184" y="201.496" width="9.30534" height="9.26991" fill="#111111"/>
<rect x="919.051" y="181.353" width="9.30534" height="9.26991" fill="#111111"/>
<path d="M928.629 167.571H937.36V176.841H928.629V167.571Z" fill="#111111"/>
<path d="M850.414 307.51H854.931V316.78H850.414V307.51Z" fill="#111111"/>
<rect x="923.305" y="357.337" width="9.30534" height="9.26991" fill="#111111"/>
<path d="M932.887 324.472H937.343V333.742H932.887V324.472Z" fill="#111111"/>
<path d="M850.414 345.675H854.93V354.945H850.414V345.675Z" fill="#111111"/>
<rect x="895.641" y="88.0596" width="9.30534" height="9.26991" fill="#111111"/>
<rect x="886.066" y="115.624" width="9.30534" height="9.26991" fill="#111111"/>
<path d="M932.887 60.4961H937.348V69.766H932.887V60.4961Z" fill="#111111"/>
<rect x="912.664" y="73.2178" width="9.30534" height="9.26991" fill="#111111"/>
<rect x="885" y="60.4961" width="9.30534" height="9.26991" fill="#111111"/>
<rect x="941.398" y="107.142" width="9.30534" height="9.26991" fill="#111111"/>
<rect x="926.953" y="123.044" width="9.32621" height="9.26991" fill="#111111"/>
<path d="M847.001 248.009H856.327L856.326 257.335H847L847.001 248.009Z" fill="#111111"/>
</g>
<g opacity="0.2">
<path d="M1046.45 0.0673828H990.859V18.6072H981.556V37.147H972.254V64.9568H1018.77V111.086H1028.07V64.9568H1055.98V27.8771H1046.45V0.0673828Z" fill="#6F1E27" stroke="#6F1E27" stroke-width="1.03004"/>
<rect x="972.254" y="64.957" width="9.30259" height="9.26991" fill="#6F1E27"/>
<rect x="1009.46" y="64.9565" width="9.30259" height="9.26991" fill="#6F1E27"/>
<rect x="1046.67" y="64.9565" width="9.30259" height="9.26991" fill="#6F1E27"/>
<rect x="1046.67" y="102.478" width="9.30259" height="17.657" fill="#6F1E27"/>
<rect x="1000.16" y="98.0635" width="9.30259" height="22.0712" fill="#6F1E27"/>
<rect x="972.254" y="110.865" width="9.30259" height="9.26991" fill="#6F1E27"/>
<rect x="1028.07" y="110.865" width="9.30259" height="9.26991" fill="#6F1E27"/>
<rect x="1009.46" y="110.865" width="18.6052" height="9.26991" fill="#6F1E27"/>
<rect x="1037.37" y="110.865" width="9.30259" height="9.26991" fill="#6F1E27"/>
<rect x="1055.98" y="110.865" width="18.6052" height="9.26991" fill="#6F1E27"/>
<path d="M1074.58 102.478H1079.63V111.747H1074.58V102.478Z" fill="#6F1E27"/>
<rect x="1028.07" y="64.957" width="9.30259" height="16.7741" fill="#6F1E27"/>
<rect x="990.859" y="64.957" width="9.30259" height="23.3955" fill="#6F1E27"/>
<path d="M972.254 120.135L1055.98 120.355V185.245H1046.61V286.993H1046.67H1055.98V370.202H1046.67V286.993H1046.61H1037.37V213.055H1028.07V194.515H1018.77V175.975H1009.46V185.245H1000.16V203.785H990.859V213.055H981.556V370.202H972.254V120.135Z" fill="#6F1E27"/>
<path d="M1046.67 286.993H1046.61V185.245H1055.98V120.355L972.254 120.135V370.202H981.556V213.055H990.859V203.785H1000.16V185.245H1009.46V175.975H1018.77V194.515H1028.07V213.055H1037.37V286.993H1046.67ZM1046.67 286.993H1055.98V370.202H1046.67V286.993Z" stroke="#6F1E27" stroke-width="1.03004"/>
<rect x="1079.7" y="246.021" width="9.30259" height="9.26991" fill="#111111"/>
<path d="M971.18 128.345H979.92V137.615H971.18V128.345Z" fill="#111111"/>
<rect x="1024.78" y="153.789" width="9.28177" height="9.26991" fill="#111111"/>
<rect x="1005.66" y="137.886" width="9.28177" height="9.26991" fill="#111111"/>
<rect x="997.176" y="167.571" width="9.28177" height="9.26991" fill="#111111"/>
<rect x="1033.8" y="132.585" width="9.28177" height="9.26991" fill="#111111"/>
<rect x="975.949" y="229.059" width="9.28177" height="9.26991" fill="#111111"/>
<rect x="1033.27" y="255.563" width="9.28177" height="9.26991" fill="#111111"/>
<rect x="1043.36" y="279.946" width="9.28177" height="9.26991" fill="#111111"/>
<rect x="978.07" y="181.353" width="9.28177" height="9.26991" fill="#111111"/>
<rect x="1015.22" y="40.353" width="9.28177" height="9.26991" fill="#111111"/>
<path d="M970.125 56.7852H978.862V66.0551H970.125V56.7852Z" fill="#111111"/>
<path d="M1039.63 8.54883H1048.91V17.8187H1039.63V8.54883Z" fill="#111111"/>
<rect x="996.113" y="0.0673828" width="9.28177" height="9.26991" fill="#111111"/>
<rect x="977.008" y="151.668" width="9.28177" height="9.26991" fill="#111111"/>
<rect x="1034.32" y="201.496" width="9.28177" height="9.26991" fill="#111111"/>
<rect x="1040.18" y="181.353" width="9.28177" height="9.26991" fill="#111111"/>
<path d="M1049.73 167.571H1058.44V176.841H1049.73V167.571Z" fill="#111111"/>
<path d="M971.711 307.51H976.216V316.78H971.711V307.51Z" fill="#111111"/>
<rect x="1044.42" y="357.337" width="9.28177" height="9.26991" fill="#111111"/>
<path d="M1053.98 324.472H1058.42V333.742H1053.98V324.472Z" fill="#111111"/>
<path d="M971.711 345.675H976.215V354.945H971.711V345.675Z" fill="#111111"/>
<rect x="1016.82" y="88.0596" width="9.28177" height="9.26991" fill="#111111"/>
<rect x="1007.28" y="115.624" width="9.28177" height="9.26991" fill="#111111"/>
<path d="M1053.98 60.4961H1058.43V69.766H1053.98V60.4961Z" fill="#111111"/>
<rect x="1033.8" y="73.2178" width="9.28177" height="9.26991" fill="#111111"/>
<rect x="1006.21" y="60.4961" width="9.28177" height="9.26991" fill="#111111"/>
<rect x="1062.46" y="107.142" width="9.28177" height="9.26991" fill="#111111"/>
<rect x="1048.06" y="123.044" width="9.30259" height="9.26991" fill="#111111"/>
<path d="M968.001 248.009H977.327L977.326 257.335H968L968.001 248.009Z" fill="#111111"/>
</g>
</g>
<defs>
<clipPath id="clip0_401_70">
<rect width="1089" height="370.134" fill="white" transform="translate(0 0.0673828)"/>
</clipPath>
</defs>
</svg>
