<svg width="1140" height="350" viewBox="0 0 1140 350" fill="none" xmlns="http://www.w3.org/2000/svg">
<g clip-path="url(#clip0_401_70)">
<path d="M73.9189 0H21.5407V17.488H12.7762V34.976H4.01172V61.2079H47.8341V104.72H56.5986V61.2079H82.8921V26.232H73.9189V0Z" fill="#314A46" stroke="#314A46" stroke-width="0.971603"/>
<rect x="4.01172" y="61.208" width="8.76448" height="8.74399" fill="white"/>
<rect x="39.0703" y="61.2075" width="8.76448" height="8.74399" fill="white"/>
<rect x="74.125" y="61.2075" width="8.76448" height="8.74399" fill="white"/>
<rect x="74.125" y="96.6001" width="8.76448" height="16.6552" fill="white"/>
<rect x="30.3047" y="92.4365" width="8.76448" height="20.819" fill="white"/>
<rect x="4.01172" y="104.511" width="8.76448" height="8.74399" fill="white"/>
<rect x="56.5977" y="104.511" width="8.76448" height="8.74399" fill="white"/>
<rect x="39.0703" y="104.511" width="17.529" height="8.74399" fill="#6F1E27"/>
<rect x="65.3594" y="104.511" width="8.76448" height="8.74399" fill="#6F1E27"/>
<rect x="82.8906" y="104.511" width="17.529" height="8.74399" fill="#6F1E27"/>
<path d="M100.422 96.6001H105.177V105.344H100.422V96.6001Z" fill="#6F1E27"/>
<rect x="56.5977" y="61.208" width="8.76448" height="15.8225" fill="white"/>
<rect x="21.5391" y="61.208" width="8.76448" height="22.0682" fill="white"/>
<path d="M4.01172 113.255L82.8921 113.464V174.671H74.064V270.647H74.1276H82.8921V349.135H74.1276V270.647H74.064H65.3631V200.903H56.5986V183.415H47.8341V165.928H39.0696V174.671H30.3052V192.159H21.5407V200.903H12.7762V349.135H4.01172V113.255Z" fill="#314A46"/>
<path d="M74.1276 270.647H74.064V174.671H82.8921V113.464L4.01172 113.255V349.135H12.7762V200.903H21.5407V192.159H30.3052V174.671H39.0696V165.927H47.8341V183.415H56.5986V200.903H65.3631V270.647H74.1276ZM74.1276 270.647H82.8921V349.135H74.1276V270.647Z" stroke="#314A46" stroke-width="0.971603"/>
<rect y="232" width="8.76448" height="8.74399" fill="#FAFF15"/>
<rect x="105.234" y="232" width="8.76448" height="8.74399" fill="#111111"/>
<path d="M187.919 0H135.541V17.488H126.776V34.976H118.012V61.2079H161.834V104.72H170.599V61.2079H196.892V26.232H187.919V0Z" fill="#314A46" stroke="#314A46" stroke-width="0.971603"/>
<rect x="118.012" y="61.208" width="8.76448" height="8.74399" fill="white"/>
<rect x="153.07" y="61.2075" width="8.76448" height="8.74399" fill="white"/>
<rect x="188.125" y="61.2075" width="8.76448" height="8.74399" fill="white"/>
<rect x="188.125" y="96.6001" width="8.76448" height="16.6552" fill="white"/>
<rect x="144.305" y="92.4365" width="8.76448" height="20.819" fill="white"/>
<rect x="118.012" y="104.511" width="8.76448" height="8.74399" fill="white"/>
<rect x="170.598" y="104.511" width="8.76448" height="8.74399" fill="white"/>
<rect x="153.07" y="104.511" width="17.529" height="8.74399" fill="#6F1E27"/>
<rect x="179.359" y="104.511" width="8.76448" height="8.74399" fill="#6F1E27"/>
<rect x="196.891" y="104.511" width="17.529" height="8.74399" fill="#6F1E27"/>
<path d="M214.422 96.6001H219.177V105.344H214.422V96.6001Z" fill="#6F1E27"/>
<rect x="170.598" y="61.208" width="8.76448" height="15.8225" fill="white"/>
<rect x="135.539" y="61.208" width="8.76448" height="22.0682" fill="white"/>
<path d="M118.012 113.255L196.892 113.464V174.671H188.064V270.647H188.128H196.892V349.135H188.128V270.647H188.064H179.363V200.903H170.599V183.415H161.834V165.928H153.07V174.671H144.305V192.159H135.541V200.903H126.776V349.135H118.012V113.255Z" fill="#314A46"/>
<path d="M188.128 270.647H188.064V174.671H196.892V113.464L118.012 113.255V349.135H126.776V200.903H135.541V192.159H144.305V174.671H153.07V165.927H161.834V183.415H170.599V200.903H179.363V270.647H188.128ZM188.128 270.647H196.892V349.135H188.128V270.647Z" stroke="#314A46" stroke-width="0.971603"/>
<rect x="114" y="232" width="8.76448" height="8.74399" fill="#111111"/>
<rect x="219.234" y="232" width="8.76448" height="8.74399" fill="#111111"/>
<rect x="189.422" y="116" width="8.76448" height="8.74399" fill="#111111"/>
<rect x="144.32" width="8.76448" height="8.74399" fill="#111111"/>
<rect x="167.488" y="145" width="8.74487" height="8.74399" fill="#111111"/>
<rect x="149.488" y="130" width="8.74487" height="8.74399" fill="#111111"/>
<rect x="123.488" y="171" width="8.74487" height="8.74399" fill="#111111"/>
<rect x="158.488" y="38" width="8.74487" height="8.74399" fill="#111111"/>
<rect x="140.488" width="8.74487" height="8.74399" fill="#111111"/>
<rect x="122.488" y="143" width="8.74487" height="8.74399" fill="#111111"/>
<rect x="176.488" y="190" width="8.74487" height="8.74399" fill="#111111"/>
<path d="M301.919 0H249.541V17.488H240.776V34.976H232.012V61.2079H275.834V104.72H284.599V61.2079H310.892V26.232H301.919V0Z" fill="#314A46" stroke="#314A46" stroke-width="0.971603"/>
<rect x="232.012" y="61.208" width="8.76448" height="8.74399" fill="white"/>
<rect x="267.07" y="61.2075" width="8.76448" height="8.74399" fill="white"/>
<rect x="302.125" y="61.2075" width="8.76448" height="8.74399" fill="white"/>
<rect x="302.125" y="96.6001" width="8.76448" height="16.6552" fill="white"/>
<rect x="258.305" y="92.4365" width="8.76448" height="20.819" fill="white"/>
<rect x="232.012" y="104.511" width="8.76448" height="8.74399" fill="white"/>
<rect x="284.598" y="104.511" width="8.76448" height="8.74399" fill="white"/>
<rect x="267.07" y="104.511" width="17.529" height="8.74399" fill="#6F1E27"/>
<rect x="293.359" y="104.511" width="8.76448" height="8.74399" fill="#6F1E27"/>
<rect x="310.891" y="104.511" width="17.529" height="8.74399" fill="#6F1E27"/>
<path d="M328.422 96.6001H333.177V105.344H328.422V96.6001Z" fill="#6F1E27"/>
<rect x="284.598" y="61.208" width="8.76448" height="15.8225" fill="white"/>
<rect x="249.539" y="61.208" width="8.76448" height="22.0682" fill="white"/>
<path d="M232.012 113.255L310.892 113.464V174.671H302.064V270.647H302.128H310.892V349.135H302.128V270.647H302.064H293.363V200.903H284.599V183.415H275.834V165.928H267.07V174.671H258.305V192.159H249.541V200.903H240.776V349.135H232.012V113.255Z" fill="#314A46"/>
<path d="M302.128 270.647H302.064V174.671H310.892V113.464L232.012 113.255V349.135H240.776V200.903H249.541V192.159H258.305V174.671H267.07V165.927H275.834V183.415H284.599V200.903H293.363V270.647H302.128ZM302.128 270.647H310.892V349.135H302.128V270.647Z" stroke="#314A46" stroke-width="0.971603"/>
<rect x="228" y="232" width="8.76448" height="8.74399" fill="#111111"/>
<rect x="333.234" y="232" width="8.76448" height="8.74399" fill="#111111"/>
<path d="M231 121H239.235V129.744H231V121Z" fill="#111111"/>
<rect x="281.488" y="145" width="8.74487" height="8.74399" fill="#111111"/>
<rect x="263.488" y="130" width="8.74487" height="8.74399" fill="#111111"/>
<rect x="255.488" y="158" width="8.74487" height="8.74399" fill="#111111"/>
<rect x="290" y="125" width="8.74487" height="8.74399" fill="#111111"/>
<rect x="235.488" y="216" width="8.74487" height="8.74399" fill="#111111"/>
<rect x="289.488" y="241" width="8.74487" height="8.74399" fill="#111111"/>
<rect x="299" y="264" width="8.74487" height="8.74399" fill="#111111"/>
<rect x="237.488" y="171" width="8.74487" height="8.74399" fill="#111111"/>
<rect x="272.488" y="38" width="8.74487" height="8.74399" fill="#111111"/>
<path d="M230.004 53.5H238.235V62.244H230.004V53.5Z" fill="#111111"/>
<path d="M295.488 8H304.233V16.744H295.488V8Z" fill="#111111"/>
<rect x="254.488" width="8.74487" height="8.74399" fill="#111111"/>
<rect x="236.488" y="143" width="8.74487" height="8.74399" fill="#111111"/>
<rect x="290.488" y="190" width="8.74487" height="8.74399" fill="#111111"/>
<rect x="303.422" y="116" width="8.76448" height="8.74399" fill="#111111"/>
<path d="M415.919 0H363.541V17.488H354.776V34.976H346.012V61.2079H389.834V104.72H398.599V61.2079H424.892V26.232H415.919V0Z" fill="#314A46" stroke="#314A46" stroke-width="0.971603"/>
<rect x="346.012" y="61.208" width="8.76448" height="8.74399" fill="white"/>
<rect x="381.07" y="61.2075" width="8.76448" height="8.74399" fill="white"/>
<rect x="416.125" y="61.2075" width="8.76448" height="8.74399" fill="white"/>
<rect x="416.125" y="96.6001" width="8.76448" height="16.6552" fill="white"/>
<rect x="372.305" y="92.4365" width="8.76448" height="20.819" fill="white"/>
<rect x="346.012" y="104.511" width="8.76448" height="8.74399" fill="white"/>
<rect x="398.598" y="104.511" width="8.76448" height="8.74399" fill="white"/>
<rect x="381.07" y="104.511" width="17.529" height="8.74399" fill="#6F1E27"/>
<rect x="407.359" y="104.511" width="8.76448" height="8.74399" fill="#6F1E27"/>
<rect x="424.891" y="104.511" width="17.529" height="8.74399" fill="#6F1E27"/>
<path d="M442.422 96.6001H447.177V105.344H442.422V96.6001Z" fill="#6F1E27"/>
<rect x="398.598" y="61.208" width="8.76448" height="15.8225" fill="white"/>
<rect x="363.539" y="61.208" width="8.76448" height="22.0682" fill="white"/>
<path d="M346.012 113.255L424.892 113.464V174.671H416.064V270.647H416.128H424.892V349.135H416.128V270.647H416.064H407.363V200.903H398.599V183.415H389.834V165.928H381.07V174.671H372.305V192.159H363.541V200.903H354.776V349.135H346.012V113.255Z" fill="#314A46"/>
<path d="M416.128 270.647H416.064V174.671H424.892V113.464L346.012 113.255V349.135H354.776V200.903H363.541V192.159H372.305V174.671H381.07V165.927H389.834V183.415H398.599V200.903H407.363V270.647H416.128ZM416.128 270.647H424.892V349.135H416.128V270.647Z" stroke="#314A46" stroke-width="0.971603"/>
<rect x="342" y="232" width="8.76448" height="8.74399" fill="#111111"/>
<rect x="447.234" y="232" width="8.76448" height="8.74399" fill="#111111"/>
<path d="M345 121H353.235V129.744H345V121Z" fill="#111111"/>
<rect x="395.488" y="145" width="8.74487" height="8.74399" fill="#111111"/>
<rect x="377.488" y="130" width="8.74487" height="8.74399" fill="#111111"/>
<rect x="369.488" y="158" width="8.74487" height="8.74399" fill="#111111"/>
<rect x="404" y="125" width="8.74487" height="8.74399" fill="#111111"/>
<rect x="349.488" y="216" width="8.74487" height="8.74399" fill="#111111"/>
<rect x="403.488" y="241" width="8.74487" height="8.74399" fill="#111111"/>
<rect x="413" y="264" width="8.74487" height="8.74399" fill="#111111"/>
<rect x="351.488" y="171" width="8.74487" height="8.74399" fill="#111111"/>
<rect x="386.488" y="38" width="8.74487" height="8.74399" fill="#111111"/>
<path d="M344.004 53.5H352.235V62.244H344.004V53.5Z" fill="#111111"/>
<path d="M409.488 8H418.233V16.744H409.488V8Z" fill="#111111"/>
<rect x="368.488" width="8.74487" height="8.74399" fill="#111111"/>
<rect x="350.488" y="143" width="8.74487" height="8.74399" fill="#111111"/>
<rect x="404.488" y="190" width="8.74487" height="8.74399" fill="#111111"/>
<rect x="410" y="171" width="8.74487" height="8.74399" fill="#111111"/>
<path d="M419 158H427.205V166.744H419V158Z" fill="#111111"/>
<path d="M345.5 290H349.745V298.744H345.5V290Z" fill="#111111"/>
<rect x="414" y="337" width="8.74487" height="8.74399" fill="#111111"/>
<path d="M423 306H427.188V314.744H423V306Z" fill="#111111"/>
<path d="M345.5 326H349.744V334.744H345.5V326Z" fill="#111111"/>
<rect x="388" y="83" width="8.74487" height="8.74399" fill="#111111"/>
<rect x="379" y="109" width="8.74487" height="8.74399" fill="#111111"/>
<path d="M423 57H427.192V65.744H423V57Z" fill="#111111"/>
<rect x="404" y="69" width="8.74487" height="8.74399" fill="#111111"/>
<rect x="378" y="57" width="8.74487" height="8.74399" fill="#111111"/>
<rect x="417.422" y="116" width="8.76448" height="8.74399" fill="#111111"/>
<path d="M529.919 0H477.541V17.488H468.776V34.976H460.012V61.2079H503.834V104.72H512.599V61.2079H538.892V26.232H529.919V0Z" fill="#314A46" stroke="#314A46" stroke-width="0.971603"/>
<rect x="460.012" y="61.208" width="8.76448" height="8.74399" fill="white"/>
<rect x="495.07" y="61.2075" width="8.76448" height="8.74399" fill="white"/>
<rect x="530.125" y="61.2075" width="8.76448" height="8.74399" fill="white"/>
<rect x="530.125" y="96.6001" width="8.76448" height="16.6552" fill="white"/>
<rect x="486.305" y="92.4365" width="8.76448" height="20.819" fill="white"/>
<rect x="460.012" y="104.511" width="8.76448" height="8.74399" fill="white"/>
<rect x="512.598" y="104.511" width="8.76448" height="8.74399" fill="white"/>
<rect x="495.07" y="104.511" width="17.529" height="8.74399" fill="#6F1E27"/>
<rect x="521.359" y="104.511" width="8.76448" height="8.74399" fill="#6F1E27"/>
<rect x="538.891" y="104.511" width="17.529" height="8.74399" fill="#6F1E27"/>
<path d="M556.422 96.6001H561.177V105.344H556.422V96.6001Z" fill="#6F1E27"/>
<rect x="512.598" y="61.208" width="8.76448" height="15.8225" fill="white"/>
<rect x="477.539" y="61.208" width="8.76448" height="22.0682" fill="white"/>
<path d="M460.012 113.255L538.892 113.464V174.671H530.064V270.647H530.128H538.892V349.135H530.128V270.647H530.064H521.363V200.903H512.599V183.415H503.834V165.928H495.07V174.671H486.305V192.159H477.541V200.903H468.776V349.135H460.012V113.255Z" fill="#314A46"/>
<path d="M530.128 270.647H530.064V174.671H538.892V113.464L460.012 113.255V349.135H468.776V200.903H477.541V192.159H486.305V174.671H495.07V165.927H503.834V183.415H512.599V200.903H521.363V270.647H530.128ZM530.128 270.647H538.892V349.135H530.128V270.647Z" stroke="#314A46" stroke-width="0.971603"/>
<rect x="456" y="232" width="8.76448" height="8.74399" fill="#111111"/>
<rect x="561.234" y="232" width="8.76448" height="8.74399" fill="#111111"/>
<path d="M459 121H467.235V129.744H459V121Z" fill="#111111"/>
<rect x="509.488" y="145" width="8.74487" height="8.74399" fill="#111111"/>
<rect x="491.488" y="130" width="8.74487" height="8.74399" fill="#111111"/>
<rect x="483.488" y="158" width="8.74487" height="8.74399" fill="#111111"/>
<rect x="518" y="125" width="8.74487" height="8.74399" fill="#111111"/>
<rect x="463.488" y="216" width="8.74487" height="8.74399" fill="#111111"/>
<rect x="517.488" y="241" width="8.74487" height="8.74399" fill="#111111"/>
<rect x="527" y="264" width="8.74487" height="8.74399" fill="#111111"/>
<rect x="465.488" y="171" width="8.74487" height="8.74399" fill="#111111"/>
<rect x="500.488" y="38" width="8.74487" height="8.74399" fill="#111111"/>
<path d="M458.004 53.5H466.235V62.244H458.004V53.5Z" fill="#111111"/>
<path d="M523.488 8H532.233V16.744H523.488V8Z" fill="#111111"/>
<rect x="482.488" width="8.74487" height="8.74399" fill="#111111"/>
<rect x="464.488" y="143" width="8.74487" height="8.74399" fill="#111111"/>
<rect x="518.488" y="190" width="8.74487" height="8.74399" fill="#111111"/>
<rect x="524" y="171" width="8.74487" height="8.74399" fill="#111111"/>
<path d="M533 158H541.205V166.744H533V158Z" fill="#111111"/>
<path d="M459.5 290H463.745V298.744H459.5V290Z" fill="#111111"/>
<rect x="528" y="337" width="8.74487" height="8.74399" fill="#111111"/>
<path d="M537 306H541.188V314.744H537V306Z" fill="#111111"/>
<path d="M459.5 326H463.744V334.744H459.5V326Z" fill="#111111"/>
<rect x="502" y="83" width="8.74487" height="8.74399" fill="#111111"/>
<rect x="493" y="109" width="8.74487" height="8.74399" fill="#111111"/>
<path d="M537 57H541.192V65.744H537V57Z" fill="#111111"/>
<rect x="518" y="69" width="8.74487" height="8.74399" fill="#111111"/>
<rect x="492" y="57" width="8.74487" height="8.74399" fill="#111111"/>
<rect x="545" y="101" width="8.74487" height="8.74399" fill="#111111"/>
<rect x="531.422" y="116" width="8.76448" height="8.74399" fill="#111111"/>
<g opacity="0.8">
<path d="M643.919 0H591.541V17.488H582.776V34.976H574.012V61.2079H617.834V104.72H626.599V61.2079H652.892V26.232H643.919V0Z" fill="#6F1E27" stroke="#6F1E27" stroke-width="0.971603"/>
<rect x="574.012" y="61.208" width="8.76448" height="8.74399" fill="#6F1E27"/>
<rect x="609.07" y="61.2075" width="8.76448" height="8.74399" fill="#6F1E27"/>
<rect x="644.125" y="61.2075" width="8.76448" height="8.74399" fill="#6F1E27"/>
<rect x="644.125" y="96.6001" width="8.76448" height="16.6552" fill="#6F1E27"/>
<rect x="600.305" y="92.4365" width="8.76448" height="20.819" fill="#6F1E27"/>
<rect x="574.012" y="104.511" width="8.76448" height="8.74399" fill="#6F1E27"/>
<rect x="626.598" y="104.511" width="8.76448" height="8.74399" fill="#6F1E27"/>
<rect x="609.07" y="104.511" width="17.529" height="8.74399" fill="#6F1E27"/>
<rect x="635.359" y="104.511" width="8.76448" height="8.74399" fill="#6F1E27"/>
<rect x="652.891" y="104.511" width="17.529" height="8.74399" fill="#6F1E27"/>
<path d="M670.422 96.6001H675.177V105.344H670.422V96.6001Z" fill="#6F1E27"/>
<rect x="626.598" y="61.208" width="8.76448" height="15.8225" fill="#6F1E27"/>
<rect x="591.539" y="61.208" width="8.76448" height="22.0682" fill="#6F1E27"/>
<path d="M574.012 113.255L652.892 113.464V174.671H644.064V270.647H644.128H652.892V349.135H644.128V270.647H644.064H635.363V200.903H626.599V183.415H617.834V165.928H609.07V174.671H600.305V192.159H591.541V200.903H582.776V349.135H574.012V113.255Z" fill="#6F1E27"/>
<path d="M644.128 270.647H644.064V174.671H652.892V113.464L574.012 113.255V349.135H582.776V200.903H591.541V192.159H600.305V174.671H609.07V165.927H617.834V183.415H626.599V200.903H635.363V270.647H644.128ZM644.128 270.647H652.892V349.135H644.128V270.647Z" stroke="#6F1E27" stroke-width="0.971603"/>
<rect x="570" y="232" width="8.76448" height="8.74399" fill="#111111"/>
<rect x="675.234" y="232" width="8.76448" height="8.74399" fill="#111111"/>
<path d="M573 121H581.235V129.744H573V121Z" fill="#111111"/>
<rect x="623.488" y="145" width="8.74487" height="8.74399" fill="#111111"/>
<rect x="605.488" y="130" width="8.74487" height="8.74399" fill="#111111"/>
<rect x="597.488" y="158" width="8.74487" height="8.74399" fill="#111111"/>
<rect x="632" y="125" width="8.74487" height="8.74399" fill="#111111"/>
<rect x="577.488" y="216" width="8.74487" height="8.74399" fill="#111111"/>
<rect x="631.488" y="241" width="8.74487" height="8.74399" fill="#111111"/>
<rect x="641" y="264" width="8.74487" height="8.74399" fill="#111111"/>
<rect x="579.488" y="171" width="8.74487" height="8.74399" fill="#111111"/>
<rect x="614.488" y="38" width="8.74487" height="8.74399" fill="#111111"/>
<path d="M572.004 53.5H580.235V62.244H572.004V53.5Z" fill="#111111"/>
<path d="M637.488 8H646.233V16.744H637.488V8Z" fill="#111111"/>
<rect x="596.488" width="8.74487" height="8.74399" fill="#111111"/>
<rect x="578.488" y="143" width="8.74487" height="8.74399" fill="#111111"/>
<rect x="632.488" y="190" width="8.74487" height="8.74399" fill="#111111"/>
<rect x="638" y="171" width="8.74487" height="8.74399" fill="#111111"/>
<path d="M647 158H655.205V166.744H647V158Z" fill="#111111"/>
<path d="M573.5 290H577.745V298.744H573.5V290Z" fill="#111111"/>
<rect x="642" y="337" width="8.74487" height="8.74399" fill="#111111"/>
<path d="M651 306H655.188V314.744H651V306Z" fill="#111111"/>
<path d="M573.5 326H577.744V334.744H573.5V326Z" fill="#111111"/>
<rect x="616" y="83" width="8.74487" height="8.74399" fill="#111111"/>
<rect x="607" y="109" width="8.74487" height="8.74399" fill="#111111"/>
<path d="M651 57H655.192V65.744H651V57Z" fill="#111111"/>
<rect x="632" y="69" width="8.74487" height="8.74399" fill="#111111"/>
<rect x="606" y="57" width="8.74487" height="8.74399" fill="#111111"/>
<rect x="659" y="101" width="8.74487" height="8.74399" fill="#111111"/>
<rect x="645.422" y="116" width="8.76448" height="8.74399" fill="#111111"/>
</g>
<g opacity="0.6">
<path d="M757.919 0H705.541V17.488H696.776V34.976H688.012V61.2079H731.834V104.72H740.599V61.2079H766.892V26.232H757.919V0Z" fill="#6F1E27" stroke="#6F1E27" stroke-width="0.971603"/>
<rect x="688.012" y="61.208" width="8.76448" height="8.74399" fill="#6F1E27"/>
<rect x="723.07" y="61.2075" width="8.76448" height="8.74399" fill="#6F1E27"/>
<rect x="758.125" y="61.2075" width="8.76448" height="8.74399" fill="#6F1E27"/>
<rect x="758.125" y="96.6001" width="8.76448" height="16.6552" fill="#6F1E27"/>
<rect x="714.305" y="92.4365" width="8.76448" height="20.819" fill="#6F1E27"/>
<rect x="688.012" y="104.511" width="8.76448" height="8.74399" fill="#6F1E27"/>
<rect x="740.598" y="104.511" width="8.76448" height="8.74399" fill="#6F1E27"/>
<rect x="723.07" y="104.511" width="17.529" height="8.74399" fill="#6F1E27"/>
<rect x="749.359" y="104.511" width="8.76448" height="8.74399" fill="#6F1E27"/>
<rect x="766.891" y="104.511" width="17.529" height="8.74399" fill="#6F1E27"/>
<path d="M784.422 96.6001H789.177V105.344H784.422V96.6001Z" fill="#6F1E27"/>
<rect x="740.598" y="61.208" width="8.76448" height="15.8225" fill="#6F1E27"/>
<rect x="705.539" y="61.208" width="8.76448" height="22.0682" fill="#6F1E27"/>
<path d="M688.012 113.255L766.892 113.464V174.671H758.064V270.647H758.128H766.892V349.135H758.128V270.647H758.064H749.363V200.903H740.599V183.415H731.834V165.928H723.07V174.671H714.305V192.159H705.541V200.903H696.776V349.135H688.012V113.255Z" fill="#6F1E27"/>
<path d="M758.128 270.647H758.064V174.671H766.892V113.464L688.012 113.255V349.135H696.776V200.903H705.541V192.159H714.305V174.671H723.07V165.927H731.834V183.415H740.599V200.903H749.363V270.647H758.128ZM758.128 270.647H766.892V349.135H758.128V270.647Z" stroke="#6F1E27" stroke-width="0.971603"/>
<rect x="684" y="232" width="8.76448" height="8.74399" fill="#111111"/>
<rect x="789.234" y="232" width="8.76448" height="8.74399" fill="#111111"/>
<path d="M687 121H695.235V129.744H687V121Z" fill="#111111"/>
<rect x="737.488" y="145" width="8.74487" height="8.74399" fill="#111111"/>
<rect x="719.488" y="130" width="8.74487" height="8.74399" fill="#111111"/>
<rect x="711.488" y="158" width="8.74487" height="8.74399" fill="#111111"/>
<rect x="746" y="125" width="8.74487" height="8.74399" fill="#111111"/>
<rect x="691.488" y="216" width="8.74487" height="8.74399" fill="#111111"/>
<rect x="745.488" y="241" width="8.74487" height="8.74399" fill="#111111"/>
<rect x="755" y="264" width="8.74487" height="8.74399" fill="#111111"/>
<rect x="693.488" y="171" width="8.74487" height="8.74399" fill="#111111"/>
<rect x="728.488" y="38" width="8.74487" height="8.74399" fill="#111111"/>
<path d="M686.004 53.5H694.235V62.244H686.004V53.5Z" fill="#111111"/>
<path d="M751.488 8H760.233V16.744H751.488V8Z" fill="#111111"/>
<rect x="710.488" width="8.74487" height="8.74399" fill="#111111"/>
<rect x="692.488" y="143" width="8.74487" height="8.74399" fill="#111111"/>
<rect x="746.488" y="190" width="8.74487" height="8.74399" fill="#111111"/>
<rect x="752" y="171" width="8.74487" height="8.74399" fill="#111111"/>
<path d="M761 158H769.205V166.744H761V158Z" fill="#111111"/>
<path d="M687.5 290H691.745V298.744H687.5V290Z" fill="#111111"/>
<rect x="756" y="337" width="8.74487" height="8.74399" fill="#111111"/>
<path d="M765 306H769.188V314.744H765V306Z" fill="#111111"/>
<path d="M687.5 326H691.744V334.744H687.5V326Z" fill="#111111"/>
<rect x="730" y="83" width="8.74487" height="8.74399" fill="#111111"/>
<rect x="721" y="109" width="8.74487" height="8.74399" fill="#111111"/>
<path d="M765 57H769.192V65.744H765V57Z" fill="#111111"/>
<rect x="746" y="69" width="8.74487" height="8.74399" fill="#111111"/>
<rect x="720" y="57" width="8.74487" height="8.74399" fill="#111111"/>
<rect x="773" y="101" width="8.74487" height="8.74399" fill="#111111"/>
<rect x="759.422" y="116" width="8.76448" height="8.74399" fill="#111111"/>
</g>
<g opacity="0.4">
<path d="M871.919 0H819.541V17.488H810.776V34.976H802.012V61.2079H845.834V104.72H854.599V61.2079H880.892V26.232H871.919V0Z" fill="#6F1E27" stroke="#6F1E27" stroke-width="0.971603"/>
<rect x="802.012" y="61.208" width="8.76448" height="8.74399" fill="#6F1E27"/>
<rect x="837.07" y="61.2075" width="8.76448" height="8.74399" fill="#6F1E27"/>
<rect x="872.125" y="61.2075" width="8.76448" height="8.74399" fill="#6F1E27"/>
<rect x="872.125" y="96.6001" width="8.76448" height="16.6552" fill="#6F1E27"/>
<rect x="828.305" y="92.4365" width="8.76448" height="20.819" fill="#6F1E27"/>
<rect x="802.012" y="104.511" width="8.76448" height="8.74399" fill="#6F1E27"/>
<rect x="854.598" y="104.511" width="8.76448" height="8.74399" fill="#6F1E27"/>
<rect x="837.07" y="104.511" width="17.529" height="8.74399" fill="#6F1E27"/>
<rect x="863.359" y="104.511" width="8.76448" height="8.74399" fill="#6F1E27"/>
<rect x="880.891" y="104.511" width="17.529" height="8.74399" fill="#6F1E27"/>
<path d="M898.422 96.6001H903.177V105.344H898.422V96.6001Z" fill="#6F1E27"/>
<rect x="854.598" y="61.208" width="8.76448" height="15.8225" fill="#6F1E27"/>
<rect x="819.539" y="61.208" width="8.76448" height="22.0682" fill="#6F1E27"/>
<path d="M802.012 113.255L880.892 113.464V174.671H872.064V270.647H872.128H880.892V349.135H872.128V270.647H872.064H863.363V200.903H854.599V183.415H845.834V165.928H837.07V174.671H828.305V192.159H819.541V200.903H810.776V349.135H802.012V113.255Z" fill="#6F1E27"/>
<path d="M872.128 270.647H872.064V174.671H880.892V113.464L802.012 113.255V349.135H810.776V200.903H819.541V192.159H828.305V174.671H837.07V165.927H845.834V183.415H854.599V200.903H863.363V270.647H872.128ZM872.128 270.647H880.892V349.135H872.128V270.647Z" stroke="#6F1E27" stroke-width="0.971603"/>
<rect x="798" y="232" width="8.76448" height="8.74399" fill="#111111"/>
<rect x="903.234" y="232" width="8.76448" height="8.74399" fill="#111111"/>
<path d="M801 121H809.235V129.744H801V121Z" fill="#111111"/>
<rect x="851.488" y="145" width="8.74487" height="8.74399" fill="#111111"/>
<rect x="833.488" y="130" width="8.74487" height="8.74399" fill="#111111"/>
<rect x="825.488" y="158" width="8.74487" height="8.74399" fill="#111111"/>
<rect x="860" y="125" width="8.74487" height="8.74399" fill="#111111"/>
<rect x="805.488" y="216" width="8.74487" height="8.74399" fill="#111111"/>
<rect x="859.488" y="241" width="8.74487" height="8.74399" fill="#111111"/>
<rect x="869" y="264" width="8.74487" height="8.74399" fill="#111111"/>
<rect x="807.488" y="171" width="8.74487" height="8.74399" fill="#111111"/>
<rect x="842.488" y="38" width="8.74487" height="8.74399" fill="#111111"/>
<path d="M800.004 53.5H808.235V62.244H800.004V53.5Z" fill="#111111"/>
<path d="M865.488 8H874.233V16.744H865.488V8Z" fill="#111111"/>
<rect x="824.488" width="8.74487" height="8.74399" fill="#111111"/>
<rect x="806.488" y="143" width="8.74487" height="8.74399" fill="#111111"/>
<rect x="860.488" y="190" width="8.74487" height="8.74399" fill="#111111"/>
<rect x="866" y="171" width="8.74487" height="8.74399" fill="#111111"/>
<path d="M875 158H883.205V166.744H875V158Z" fill="#111111"/>
<path d="M801.5 290H805.745V298.744H801.5V290Z" fill="#111111"/>
<rect x="870" y="337" width="8.74487" height="8.74399" fill="#111111"/>
<path d="M879 306H883.188V314.744H879V306Z" fill="#111111"/>
<path d="M801.5 326H805.744V334.744H801.5V326Z" fill="#111111"/>
<rect x="844" y="83" width="8.74487" height="8.74399" fill="#111111"/>
<rect x="835" y="109" width="8.74487" height="8.74399" fill="#111111"/>
<path d="M879 57H883.192V65.744H879V57Z" fill="#111111"/>
<rect x="860" y="69" width="8.74487" height="8.74399" fill="#111111"/>
<rect x="834" y="57" width="8.74487" height="8.74399" fill="#111111"/>
<rect x="887" y="101" width="8.74487" height="8.74399" fill="#111111"/>
<rect x="873.422" y="116" width="8.76448" height="8.74399" fill="#111111"/>
</g>
<g opacity="0.2">
<path d="M985.919 0H933.541V17.488H924.776V34.976H916.012V61.2079H959.834V104.72H968.599V61.2079H994.892V26.232H985.919V0Z" fill="#6F1E27" stroke="#6F1E27" stroke-width="0.971603"/>
<rect x="916.012" y="61.208" width="8.76448" height="8.74399" fill="#6F1E27"/>
<rect x="951.07" y="61.2075" width="8.76448" height="8.74399" fill="#6F1E27"/>
<rect x="986.125" y="61.2075" width="8.76448" height="8.74399" fill="#6F1E27"/>
<rect x="986.125" y="96.6001" width="8.76448" height="16.6552" fill="#6F1E27"/>
<rect x="942.305" y="92.4365" width="8.76448" height="20.819" fill="#6F1E27"/>
<rect x="916.012" y="104.511" width="8.76448" height="8.74399" fill="#6F1E27"/>
<rect x="968.598" y="104.511" width="8.76448" height="8.74399" fill="#6F1E27"/>
<rect x="951.07" y="104.511" width="17.529" height="8.74399" fill="#6F1E27"/>
<rect x="977.359" y="104.511" width="8.76448" height="8.74399" fill="#6F1E27"/>
<rect x="994.891" y="104.511" width="17.529" height="8.74399" fill="#6F1E27"/>
<path d="M1012.42 96.6001H1017.18V105.344H1012.42V96.6001Z" fill="#6F1E27"/>
<rect x="968.598" y="61.208" width="8.76448" height="15.8225" fill="#6F1E27"/>
<rect x="933.539" y="61.208" width="8.76448" height="22.0682" fill="#6F1E27"/>
<path d="M916.012 113.255L994.892 113.464V174.671H986.064V270.647H986.128H994.892V349.135H986.128V270.647H986.064H977.363V200.903H968.599V183.415H959.834V165.928H951.07V174.671H942.305V192.159H933.541V200.903H924.776V349.135H916.012V113.255Z" fill="#6F1E27"/>
<path d="M986.128 270.647H986.064V174.671H994.892V113.464L916.012 113.255V349.135H924.776V200.903H933.541V192.159H942.305V174.671H951.07V165.927H959.834V183.415H968.599V200.903H977.363V270.647H986.128ZM986.128 270.647H994.892V349.135H986.128V270.647Z" stroke="#6F1E27" stroke-width="0.971603"/>
<rect x="912" y="232" width="8.76448" height="8.74399" fill="#111111"/>
<rect x="1017.23" y="232" width="8.76448" height="8.74399" fill="#111111"/>
<path d="M915 121H923.235V129.744H915V121Z" fill="#111111"/>
<rect x="965.488" y="145" width="8.74487" height="8.74399" fill="#111111"/>
<rect x="947.488" y="130" width="8.74487" height="8.74399" fill="#111111"/>
<rect x="939.488" y="158" width="8.74487" height="8.74399" fill="#111111"/>
<rect x="974" y="125" width="8.74487" height="8.74399" fill="#111111"/>
<rect x="919.488" y="216" width="8.74487" height="8.74399" fill="#111111"/>
<rect x="973.488" y="241" width="8.74487" height="8.74399" fill="#111111"/>
<rect x="983" y="264" width="8.74487" height="8.74399" fill="#111111"/>
<rect x="921.488" y="171" width="8.74487" height="8.74399" fill="#111111"/>
<rect x="956.488" y="38" width="8.74487" height="8.74399" fill="#111111"/>
<path d="M914.004 53.5H922.235V62.244H914.004V53.5Z" fill="#111111"/>
<path d="M979.488 8H988.233V16.744H979.488V8Z" fill="#111111"/>
<rect x="938.488" width="8.74487" height="8.74399" fill="#111111"/>
<rect x="920.488" y="143" width="8.74487" height="8.74399" fill="#111111"/>
<rect x="974.488" y="190" width="8.74487" height="8.74399" fill="#111111"/>
<rect x="980" y="171" width="8.74487" height="8.74399" fill="#111111"/>
<path d="M989 158H997.205V166.744H989V158Z" fill="#111111"/>
<path d="M915.5 290H919.745V298.744H915.5V290Z" fill="#111111"/>
<rect x="984" y="337" width="8.74487" height="8.74399" fill="#111111"/>
<path d="M993 306H997.188V314.744H993V306Z" fill="#111111"/>
<path d="M915.5 326H919.744V334.744H915.5V326Z" fill="#111111"/>
<rect x="958" y="83" width="8.74487" height="8.74399" fill="#111111"/>
<rect x="949" y="109" width="8.74487" height="8.74399" fill="#111111"/>
<path d="M993 57H997.192V65.744H993V57Z" fill="#111111"/>
<rect x="974" y="69" width="8.74487" height="8.74399" fill="#111111"/>
<rect x="948" y="57" width="8.74487" height="8.74399" fill="#111111"/>
<rect x="1001" y="101" width="8.74487" height="8.74399" fill="#111111"/>
<rect x="987.422" y="116" width="8.76448" height="8.74399" fill="#111111"/>
</g>
<g opacity="0.2">
<path d="M1099.92 0H1047.54V17.488H1038.78V34.976H1030.01V61.2079H1073.83V104.72H1082.6V61.2079H1108.89V26.232H1099.92V0Z" fill="#6F1E27" stroke="#6F1E27" stroke-width="0.971603"/>
<rect x="1030.01" y="61.208" width="8.76448" height="8.74399" fill="#6F1E27"/>
<rect x="1065.07" y="61.2075" width="8.76448" height="8.74399" fill="#6F1E27"/>
<rect x="1100.12" y="61.2075" width="8.76448" height="8.74399" fill="#6F1E27"/>
<rect x="1100.12" y="96.6001" width="8.76448" height="16.6552" fill="#6F1E27"/>
<rect x="1056.3" y="92.4365" width="8.76448" height="20.819" fill="#6F1E27"/>
<rect x="1030.01" y="104.511" width="8.76448" height="8.74399" fill="#6F1E27"/>
<rect x="1082.6" y="104.511" width="8.76448" height="8.74399" fill="#6F1E27"/>
<rect x="1065.07" y="104.511" width="17.529" height="8.74399" fill="#6F1E27"/>
<rect x="1091.36" y="104.511" width="8.76448" height="8.74399" fill="#6F1E27"/>
<rect x="1108.89" y="104.511" width="17.529" height="8.74399" fill="#6F1E27"/>
<path d="M1126.42 96.6001H1131.18V105.344H1126.42V96.6001Z" fill="#6F1E27"/>
<rect x="1082.6" y="61.208" width="8.76448" height="15.8225" fill="#6F1E27"/>
<rect x="1047.54" y="61.208" width="8.76448" height="22.0682" fill="#6F1E27"/>
<path d="M1030.01 113.255L1108.89 113.464V174.671H1100.06V270.647H1100.13H1108.89V349.135H1100.13V270.647H1100.06H1091.36V200.903H1082.6V183.415H1073.83V165.928H1065.07V174.671H1056.31V192.159H1047.54V200.903H1038.78V349.135H1030.01V113.255Z" fill="#6F1E27"/>
<path d="M1100.13 270.647H1100.06V174.671H1108.89V113.464L1030.01 113.255V349.135H1038.78V200.903H1047.54V192.159H1056.31V174.671H1065.07V165.927H1073.83V183.415H1082.6V200.903H1091.36V270.647H1100.13ZM1100.13 270.647H1108.89V349.135H1100.13V270.647Z" stroke="#6F1E27" stroke-width="0.971603"/>
<rect x="1026" y="232" width="8.76448" height="8.74399" fill="#111111"/>
<rect x="1131.23" y="232" width="8.76448" height="8.74399" fill="#111111"/>
<path d="M1029 121H1037.23V129.744H1029V121Z" fill="#111111"/>
<rect x="1079.49" y="145" width="8.74487" height="8.74399" fill="#111111"/>
<rect x="1061.49" y="130" width="8.74487" height="8.74399" fill="#111111"/>
<rect x="1053.49" y="158" width="8.74487" height="8.74399" fill="#111111"/>
<rect x="1088" y="125" width="8.74487" height="8.74399" fill="#111111"/>
<rect x="1033.49" y="216" width="8.74487" height="8.74399" fill="#111111"/>
<rect x="1087.49" y="241" width="8.74487" height="8.74399" fill="#111111"/>
<rect x="1097" y="264" width="8.74487" height="8.74399" fill="#111111"/>
<rect x="1035.49" y="171" width="8.74487" height="8.74399" fill="#111111"/>
<rect x="1070.49" y="38" width="8.74487" height="8.74399" fill="#111111"/>
<path d="M1028 53.5H1036.24V62.244H1028V53.5Z" fill="#111111"/>
<path d="M1093.49 8H1102.23V16.744H1093.49V8Z" fill="#111111"/>
<rect x="1052.49" width="8.74487" height="8.74399" fill="#111111"/>
<rect x="1034.49" y="143" width="8.74487" height="8.74399" fill="#111111"/>
<rect x="1088.49" y="190" width="8.74487" height="8.74399" fill="#111111"/>
<rect x="1094" y="171" width="8.74487" height="8.74399" fill="#111111"/>
<path d="M1103 158H1111.2V166.744H1103V158Z" fill="#111111"/>
<path d="M1029.5 290H1033.74V298.744H1029.5V290Z" fill="#111111"/>
<rect x="1098" y="337" width="8.74487" height="8.74399" fill="#111111"/>
<path d="M1107 306H1111.19V314.744H1107V306Z" fill="#111111"/>
<path d="M1029.5 326H1033.74V334.744H1029.5V326Z" fill="#111111"/>
<rect x="1072" y="83" width="8.74487" height="8.74399" fill="#111111"/>
<rect x="1063" y="109" width="8.74487" height="8.74399" fill="#111111"/>
<path d="M1107 57H1111.19V65.744H1107V57Z" fill="#111111"/>
<rect x="1088" y="69" width="8.74487" height="8.74399" fill="#111111"/>
<rect x="1062" y="57" width="8.74487" height="8.74399" fill="#111111"/>
<rect x="1115" y="101" width="8.74487" height="8.74399" fill="#111111"/>
<rect x="1101.42" y="116" width="8.76448" height="8.74399" fill="#111111"/>
</g>
</g>
<defs>
<clipPath id="clip0_401_70">
<rect width="1140" height="349.135" fill="white"/>
</clipPath>
</defs>
</svg>
