<svg width="4438" height="191" viewBox="0 0 4438 191" fill="none" xmlns="http://www.w3.org/2000/svg">
<g clip-path="url(#clip0_437_18634)">
<path d="M10.8438 128.301V111.031H12.3325V114.549H16.0545V117.961H19.4575V124.677H29.7727V121.3H32.963V128.301H29.7727V142.373H26.3697V128.301H15.8418V142.373H12.5452V128.301H10.8438Z" fill="black" stroke="black" stroke-width="0.213222"/>
<path d="M60.9409 117.819V114.443H21.0625V124.464H26.1533V121.194H29.6533H50.3347V117.819H57.1225H60.9409Z" fill="#122132" stroke="#122132" stroke-width="0.213222"/>
<path d="M60.9314 107.513H12.5469V110.817H16.2688V114.335H60.9314V107.513Z" fill="#182738" stroke="#182738" stroke-width="0.213222"/>
<path d="M8.72656 100.584V96.959H24.0399V100.477L8.72656 100.584Z" fill="#26733D" stroke="#26733D" stroke-width="0.213222"/>
<path d="M10.8438 107.407V100.69H32.963V107.206L10.8438 107.407Z" fill="#206234" stroke="#206234" stroke-width="0.213222"/>
<path d="M10.8438 110.924V107.406H12.4389V110.924H16.1609V114.442H20.8399V117.854H16.1609V114.442H12.4389V110.924H10.8438Z" fill="#26733D"/>
<path d="M12.4389 110.924H10.8438V107.406H12.4389V110.924ZM12.4389 110.924V114.442H16.1609M12.4389 110.924H16.1609V114.442M16.1609 114.442V117.854H20.8399V114.442H16.1609Z" stroke="#26733D" stroke-width="0.213222"/>
<path d="M29.5625 100.584V96.959H34.4542V100.477L29.5625 100.584Z" fill="#26733D" stroke="#26733D" stroke-width="0.213222"/>
<path d="M37.0062 72.7598H6.27404V80.1156H0V83.3137H43.4929V80.1156H37.0062V72.7598Z" fill="#26733D" stroke="#26733D" stroke-width="0.213222"/>
<path d="M7.86719 83.4209H35.5162V96.9598H7.86719V83.4209Z" fill="black"/>
<rect x="26.7969" y="96.959" width="2.7649" height="3.6246" fill="black"/>
<rect x="24.0391" y="96.959" width="2.7649" height="3.6246" fill="black"/>
<rect x="31.8984" y="87.5791" width="2.97759" height="5.11708" fill="#FAFF15"/>
<rect x="22.5547" y="87.5791" width="2.97759" height="5.11708" fill="#FAFF15"/>
<rect x="8.08594" y="76.0645" width="1.70148" height="1.9189" fill="#FF9315"/>
<rect x="34.0234" y="73.7197" width="1.70148" height="1.9189" fill="#FF9315"/>
<rect x="9.78906" y="77.9834" width="4.04101" height="1.9189" fill="#FF9315"/>
<rect x="54.4531" y="110.818" width="1.48879" height="5.5435" fill="#FF9315"/>
<rect x="54.0156" y="103.994" width="3.40296" height="3.41139" fill="#FF9315"/>
<rect x="51.0391" y="110.818" width="1.48879" height="5.5435" fill="#FF9315"/>
<rect x="57.8594" y="110.818" width="1.48879" height="5.5435" fill="#FF9315"/>
<path d="M12.4375 142.479H15.9467V148.981H12.4375V142.479Z" fill="#26733D"/>
<path d="M26.2656 142.479H29.8813V148.981H26.2656V142.479Z" fill="#26733D"/>
<path d="M20.9606 117.961H19.5781V124.57H20.9606V117.961Z" fill="white"/>
<path d="M29.6686 121.301L26.2656 121.297V124.57H29.6686V121.301Z" fill="white"/>
<path d="M241.801 0H213.285V9.56697H208.514V19.1339H203.742V33.4844H227.6V57.2879H232.371V33.4844H246.686V14.3505H241.801V0Z" fill="#314A46" stroke="#314A46" stroke-width="0.531525"/>
<rect x="203.742" y="33.4834" width="4.77166" height="4.78348" fill="white"/>
<rect x="222.836" y="33.4834" width="4.77166" height="4.78348" fill="white"/>
<rect x="241.914" y="33.4834" width="4.77166" height="4.78348" fill="white"/>
<rect x="241.914" y="52.8467" width="4.77166" height="9.1114" fill="white"/>
<rect x="218.055" y="50.5684" width="4.77166" height="11.3892" fill="white"/>
<rect x="203.742" y="57.1729" width="4.77166" height="4.78348" fill="white"/>
<rect x="232.375" y="57.1729" width="4.77166" height="4.78348" fill="white"/>
<rect x="222.836" y="57.1729" width="9.54333" height="4.78348" fill="#6F1E27"/>
<rect x="237.148" y="57.1729" width="4.77166" height="4.78348" fill="#6F1E27"/>
<rect x="246.68" y="57.1729" width="9.54333" height="4.78348" fill="#6F1E27"/>
<rect x="256.234" y="52.8467" width="4.77166" height="4.78348" fill="#6F1E27"/>
<rect x="232.375" y="33.4834" width="4.77166" height="8.65583" fill="white"/>
<rect x="213.281" y="33.4834" width="4.77166" height="12.0726" fill="white"/>
<path d="M203.742 61.957L246.686 62.0709V95.5553H241.88V148.06H241.915H246.686V190.997H241.915V148.06H241.88H237.143V109.906H232.371V100.339H227.6V90.7718H222.828V95.5553H218.057V105.122H213.285V109.906H208.514V190.997H203.742V61.957Z" fill="#314A46"/>
<path d="M241.915 148.06H241.88V95.5553H246.686V62.0709L203.742 61.957V190.997H208.514V109.906H213.285V105.122H218.057V95.5553H222.828V90.7718H227.6V100.339H232.371V109.906H237.143V148.06H241.915ZM241.915 148.06H246.686V190.997H241.915V148.06Z" stroke="#314A46" stroke-width="0.531525"/>
<path d="M271.844 128.301V111.031H273.333V114.549H277.055V117.961H280.458V124.677H290.773V121.3H293.964V128.301H290.773V142.373H287.37V128.301H276.842V142.373H273.545V128.301H271.844Z" fill="black" stroke="black" stroke-width="0.213222"/>
<path d="M321.942 117.819V114.443H282.062V124.464H287.154V121.194H290.654H311.336V117.819H318.124H321.942Z" fill="#122132" stroke="#122132" stroke-width="0.213222"/>
<path d="M321.934 107.513H273.547V110.817H277.269V114.335H321.934V107.513Z" fill="#182738" stroke="#182738" stroke-width="0.213222"/>
<path d="M269.727 100.584V96.959H285.04V100.477L269.727 100.584Z" fill="#26733D" stroke="#26733D" stroke-width="0.213222"/>
<path d="M271.844 107.407V100.69H293.964V107.206L271.844 107.407Z" fill="#206234" stroke="#206234" stroke-width="0.213222"/>
<path d="M271.844 110.924V107.406H273.439V110.924H277.161V114.442H281.84V117.854H277.161V114.442H273.439V110.924H271.844Z" fill="#26733D"/>
<path d="M273.439 110.924H271.844V107.406H273.439V110.924ZM273.439 110.924V114.442H277.161M273.439 110.924H277.161V114.442M277.161 114.442V117.854H281.84V114.442H277.161Z" stroke="#26733D" stroke-width="0.213222"/>
<path d="M290.562 100.584V96.959H295.454V100.477L290.562 100.584Z" fill="#26733D" stroke="#26733D" stroke-width="0.213222"/>
<path d="M298.008 72.7598H267.274V80.1156H261V83.3137H304.496V80.1156H298.008V72.7598Z" fill="#26733D" stroke="#26733D" stroke-width="0.213222"/>
<path d="M268.867 83.4209H296.517V96.9598H268.867V83.4209Z" fill="black"/>
<rect x="287.797" y="96.959" width="2.765" height="3.6246" fill="black"/>
<rect x="285.039" y="96.959" width="2.765" height="3.6246" fill="black"/>
<rect x="292.906" y="87.5791" width="2.97769" height="5.11708" fill="#FAFF15"/>
<rect x="283.555" y="87.5791" width="2.97769" height="5.11708" fill="#FAFF15"/>
<rect x="269.086" y="76.0645" width="1.70154" height="1.9189" fill="#FF9315"/>
<rect x="295.023" y="73.7197" width="1.70154" height="1.9189" fill="#FF9315"/>
<rect x="270.781" y="77.9834" width="4.04115" height="1.9189" fill="#FF9315"/>
<rect x="315.453" y="110.818" width="1.48885" height="5.5435" fill="#FF9315"/>
<rect x="315.016" y="103.994" width="3.40308" height="3.41139" fill="#FF9315"/>
<rect x="312.039" y="110.818" width="1.48885" height="5.5435" fill="#FF9315"/>
<rect x="318.859" y="110.818" width="1.48885" height="5.5435" fill="#FF9315"/>
<path d="M273.438 142.479H276.947V148.981H273.438V142.479Z" fill="#26733D"/>
<path d="M287.266 142.479H290.881V148.981H287.266V142.479Z" fill="#26733D"/>
<path d="M281.961 117.961H280.578V124.57H281.961V117.961Z" fill="white"/>
<path d="M290.669 121.301L287.266 121.297V124.57H290.669V121.301Z" fill="white"/>
<path d="M502.795 0H474.278V9.56697H469.506V19.1339H464.734V33.4844H488.594V57.2879H493.365V33.4844H507.681V14.3505H502.795V0Z" fill="#314A46" stroke="#314A46" stroke-width="0.531525"/>
<rect x="464.734" y="33.4834" width="4.77183" height="4.78348" fill="white"/>
<rect x="483.828" y="33.4834" width="4.77183" height="4.78348" fill="white"/>
<rect x="502.914" y="33.4834" width="4.77183" height="4.78348" fill="white"/>
<rect x="502.914" y="52.8467" width="4.77183" height="9.1114" fill="white"/>
<rect x="479.047" y="50.5684" width="4.77183" height="11.3892" fill="white"/>
<rect x="464.734" y="57.1729" width="4.77183" height="4.78348" fill="white"/>
<rect x="493.367" y="57.1729" width="4.77183" height="4.78348" fill="white"/>
<rect x="483.828" y="57.1729" width="9.54367" height="4.78348" fill="#6F1E27"/>
<rect x="498.141" y="57.1729" width="4.77183" height="4.78348" fill="#6F1E27"/>
<rect x="507.672" y="57.1729" width="9.54367" height="4.78348" fill="#6F1E27"/>
<rect x="517.227" y="52.8467" width="4.77183" height="4.78348" fill="#6F1E27"/>
<rect x="493.367" y="33.4834" width="4.77183" height="8.65583" fill="white"/>
<rect x="474.273" y="33.4834" width="4.77183" height="12.0726" fill="white"/>
<path d="M464.734 61.957L507.681 62.0709V95.5553H502.874V148.06H502.909H507.681V190.997H502.909V148.06H502.874H498.137V109.906H493.365V100.339H488.594V90.7718H483.822V95.5553H479.05V105.122H474.278V109.906H469.506V190.997H464.734V61.957Z" fill="#314A46"/>
<path d="M502.909 148.06H502.874V95.5553H507.681V62.0709L464.734 61.957V190.997H469.506V109.906H474.278V105.122H479.05V95.5553H483.822V90.7718H488.594V100.339H493.365V109.906H498.137V148.06H502.909ZM502.909 148.06H507.681V190.997H502.909V148.06Z" stroke="#314A46" stroke-width="0.531525"/>
<rect x="343.398" y="111.37" width="4.77183" height="4.78348" fill="#FAFF15"/>
<path d="M532.844 128.301V111.031H534.333V114.549H538.055V117.961H541.458V124.677H551.773V121.3H554.964V128.301H551.773V142.373H548.37V128.301H537.842V142.373H534.545V128.301H532.844Z" fill="black" stroke="black" stroke-width="0.213222"/>
<path d="M582.943 117.819V114.443H543.062V124.464H548.154V121.194H551.654H572.336V117.819H579.124H582.943Z" fill="#122132" stroke="#122132" stroke-width="0.213222"/>
<path d="M582.935 107.513H534.547V110.817H538.269V114.335H582.935V107.513Z" fill="#182738" stroke="#182738" stroke-width="0.213222"/>
<path d="M530.727 100.584V96.959H546.041V100.477L530.727 100.584Z" fill="#26733D" stroke="#26733D" stroke-width="0.213222"/>
<path d="M532.844 107.407V100.69H554.964V107.206L532.844 107.407Z" fill="#206234" stroke="#206234" stroke-width="0.213222"/>
<path d="M532.844 110.924V107.406H534.439V110.924H538.161V114.442H542.84V117.854H538.161V114.442H534.439V110.924H532.844Z" fill="#26733D"/>
<path d="M534.439 110.924H532.844V107.406H534.439V110.924ZM534.439 110.924V114.442H538.161M534.439 110.924H538.161V114.442M538.161 114.442V117.854H542.84V114.442H538.161Z" stroke="#26733D" stroke-width="0.213222"/>
<path d="M551.562 100.584V96.959H556.454V100.477L551.562 100.584Z" fill="#26733D" stroke="#26733D" stroke-width="0.213222"/>
<path d="M559.009 72.7598H528.274V80.1156H522V83.3137H565.496V80.1156H559.009V72.7598Z" fill="#26733D" stroke="#26733D" stroke-width="0.213222"/>
<path d="M529.867 83.4209H557.517V96.9598H529.867V83.4209Z" fill="black"/>
<rect x="548.797" y="96.959" width="2.76502" height="3.6246" fill="black"/>
<rect x="546.039" y="96.959" width="2.76502" height="3.6246" fill="black"/>
<rect x="553.906" y="87.5791" width="2.97771" height="5.11708" fill="#FAFF15"/>
<rect x="544.555" y="87.5791" width="2.97771" height="5.11708" fill="#FAFF15"/>
<rect x="530.086" y="76.0645" width="1.70155" height="1.9189" fill="#FF9315"/>
<rect x="556.023" y="73.7197" width="1.70155" height="1.9189" fill="#FF9315"/>
<rect x="531.789" y="77.9834" width="4.04118" height="1.9189" fill="#FF9315"/>
<rect x="576.453" y="110.818" width="1.48886" height="5.5435" fill="#FF9315"/>
<rect x="576.016" y="103.994" width="3.4031" height="3.41139" fill="#FF9315"/>
<rect x="573.039" y="110.818" width="1.48886" height="5.5435" fill="#FF9315"/>
<rect x="579.859" y="110.818" width="1.48886" height="5.5435" fill="#FF9315"/>
<path d="M534.438 142.479H537.947V148.981H534.438V142.479Z" fill="#26733D"/>
<path d="M548.266 142.479H551.881V148.981H548.266V142.479Z" fill="#26733D"/>
<path d="M542.961 117.961H541.578V124.57H542.961V117.961Z" fill="white"/>
<path d="M551.669 121.301L548.266 121.297V124.57H551.669V121.301Z" fill="white"/>
<path d="M763.796 0H735.278V9.56697H730.506V19.1339H725.734V33.4844H749.594V57.2879H754.366V33.4844H768.681V14.3505H763.796V0Z" fill="#314A46" stroke="#314A46" stroke-width="0.531525"/>
<rect x="725.734" y="33.4834" width="4.77186" height="4.78348" fill="white"/>
<rect x="744.828" y="33.4834" width="4.77186" height="4.78348" fill="white"/>
<rect x="763.914" y="33.4834" width="4.77186" height="4.78348" fill="white"/>
<rect x="763.914" y="52.8467" width="4.77186" height="9.1114" fill="white"/>
<rect x="740.047" y="50.5684" width="4.77186" height="11.3892" fill="white"/>
<rect x="725.734" y="57.1729" width="4.77186" height="4.78348" fill="white"/>
<rect x="754.367" y="57.1729" width="4.77186" height="4.78348" fill="white"/>
<rect x="744.828" y="57.1729" width="9.54373" height="4.78348" fill="#6F1E27"/>
<rect x="759.141" y="57.1729" width="4.77186" height="4.78348" fill="#6F1E27"/>
<rect x="768.672" y="57.1729" width="9.54373" height="4.78348" fill="#6F1E27"/>
<rect x="778.227" y="52.8467" width="4.77186" height="4.78348" fill="#6F1E27"/>
<rect x="754.367" y="33.4834" width="4.77186" height="8.65583" fill="white"/>
<rect x="735.273" y="33.4834" width="4.77186" height="12.0726" fill="white"/>
<path d="M725.734 61.957L768.681 62.0709V95.5553H763.875V148.06H763.909H768.681V190.997H763.909V148.06H763.875H759.137V109.906H754.366V100.339H749.594V90.7718H744.822V95.5553H740.05V105.122H735.278V109.906H730.506V190.997H725.734V61.957Z" fill="#314A46"/>
<path d="M763.909 148.06H763.875V95.5553H768.681V62.0709L725.734 61.957V190.997H730.506V109.906H735.278V105.122H740.05V95.5553H744.822V90.7718H749.594V100.339H754.366V109.906H759.137V148.06H763.909ZM763.909 148.06H768.681V190.997H763.909V148.06Z" stroke="#314A46" stroke-width="0.531525"/>
<rect x="622.391" y="111.37" width="4.77186" height="4.78348" fill="#FAFF15"/>
<path d="M793.844 128.301V111.031H795.332V114.549H799.054V117.961H802.457V124.677H812.772V121.3H815.962V128.301H812.772V142.373H809.369V128.301H798.842V142.373H795.545V128.301H793.844Z" fill="black" stroke="black" stroke-width="0.213222"/>
<path d="M843.939 117.819V114.443H804.062V124.464H809.153V121.194H812.653H833.334V117.819H840.121H843.939Z" fill="#122132" stroke="#122132" stroke-width="0.213222"/>
<path d="M843.931 107.513H795.547V110.817H799.269V114.335H843.931V107.513Z" fill="#182738" stroke="#182738" stroke-width="0.213222"/>
<path d="M791.727 100.584V96.959H807.039V100.477L791.727 100.584Z" fill="#26733D" stroke="#26733D" stroke-width="0.213222"/>
<path d="M793.844 107.407V100.69H815.962V107.206L793.844 107.407Z" fill="#206234" stroke="#206234" stroke-width="0.213222"/>
<path d="M793.844 110.924V107.406H795.439V110.924H799.161V114.442H803.84V117.854H799.161V114.442H795.439V110.924H793.844Z" fill="#26733D"/>
<path d="M795.439 110.924H793.844V107.406H795.439V110.924ZM795.439 110.924V114.442H799.161M795.439 110.924H799.161V114.442M799.161 114.442V117.854H803.84V114.442H799.161Z" stroke="#26733D" stroke-width="0.213222"/>
<path d="M812.562 100.584V96.959H817.454V100.477L812.562 100.584Z" fill="#26733D" stroke="#26733D" stroke-width="0.213222"/>
<path d="M820.006 72.7598H789.274V80.1156H783V83.3137H826.492V80.1156H820.006V72.7598Z" fill="#26733D" stroke="#26733D" stroke-width="0.213222"/>
<path d="M790.867 83.4209H818.515V96.9598H790.867V83.4209Z" fill="black"/>
<rect x="809.797" y="96.959" width="2.7648" height="3.6246" fill="black"/>
<rect x="807.039" y="96.959" width="2.7648" height="3.6246" fill="black"/>
<rect x="814.898" y="87.5791" width="2.97748" height="5.11708" fill="#FAFF15"/>
<rect x="805.547" y="87.5791" width="2.97748" height="5.11708" fill="#FAFF15"/>
<rect x="791.086" y="76.0645" width="1.70142" height="1.9189" fill="#FF9315"/>
<rect x="817.023" y="73.7197" width="1.70142" height="1.9189" fill="#FF9315"/>
<rect x="792.789" y="77.9834" width="4.04086" height="1.9189" fill="#FF9315"/>
<rect x="837.453" y="110.818" width="1.48874" height="5.5435" fill="#FF9315"/>
<rect x="837.016" y="103.994" width="3.40283" height="3.41139" fill="#FF9315"/>
<rect x="834.039" y="110.818" width="1.48874" height="5.5435" fill="#FF9315"/>
<rect x="840.859" y="110.818" width="1.48874" height="5.5435" fill="#FF9315"/>
<path d="M795.438 142.479H798.947V148.981H795.438V142.479Z" fill="#26733D"/>
<path d="M809.266 142.479H812.881V148.981H809.266V142.479Z" fill="#26733D"/>
<path d="M803.953 117.961H802.57V124.57H803.953V117.961Z" fill="white"/>
<path d="M812.668 121.301L809.266 121.297V124.57H812.668V121.301Z" fill="white"/>
<path d="M1024.8 0H996.285V9.56697H991.514V19.1339H986.742V33.4844H1010.6V57.2879H1015.37V33.4844H1029.69V14.3505H1024.8V0Z" fill="#314A46" stroke="#314A46" stroke-width="0.531525"/>
<rect x="986.742" y="33.4834" width="4.77149" height="4.78348" fill="white"/>
<rect x="1005.84" y="33.4834" width="4.77149" height="4.78348" fill="white"/>
<rect x="1024.91" y="33.4834" width="4.77149" height="4.78348" fill="white"/>
<rect x="1024.91" y="52.8467" width="4.77149" height="9.1114" fill="white"/>
<rect x="1001.05" y="50.5684" width="4.77149" height="11.3892" fill="white"/>
<rect x="986.742" y="57.1729" width="4.77149" height="4.78348" fill="white"/>
<rect x="1015.37" y="57.1729" width="4.77149" height="4.78348" fill="white"/>
<rect x="1005.84" y="57.1729" width="9.54298" height="4.78348" fill="#6F1E27"/>
<rect x="1020.15" y="57.1729" width="4.77149" height="4.78348" fill="#6F1E27"/>
<rect x="1029.68" y="57.1729" width="9.54298" height="4.78348" fill="#6F1E27"/>
<rect x="1039.23" y="52.8467" width="4.77149" height="4.78348" fill="#6F1E27"/>
<rect x="1015.37" y="33.4834" width="4.77149" height="8.65583" fill="white"/>
<rect x="996.281" y="33.4834" width="4.77149" height="12.0726" fill="white"/>
<path d="M986.742 61.957L1029.69 62.0709V95.5553H1024.88V148.06H1024.91H1029.69V190.997H1024.91V148.06H1024.88H1020.14V109.906H1015.37V100.339H1010.6V90.7718H1005.83V95.5553H1001.06V105.122H996.285V109.906H991.514V190.997H986.742V61.957Z" fill="#314A46"/>
<path d="M1024.91 148.06H1024.88V95.5553H1029.69V62.0709L986.742 61.957V190.997H991.514V109.906H996.285V105.122H1001.06V95.5553H1005.83V90.7718H1010.6V100.339H1015.37V109.906H1020.14V148.06H1024.91ZM1024.91 148.06H1029.69V190.997H1024.91V148.06Z" stroke="#314A46" stroke-width="0.531525"/>
<rect x="902.492" y="111.37" width="4.77149" height="4.78348" fill="#FAFF15"/>
<path d="M1054.84 128.301V111.031H1056.33V114.549H1060.05V117.961H1063.46V124.677H1073.77V121.3H1076.96V128.301H1073.77V142.373H1070.37V128.301H1059.84V142.373H1056.55V128.301H1054.84Z" fill="black" stroke="black" stroke-width="0.213222"/>
<path d="M1104.94 117.819V114.443H1065.06V124.464H1070.15V121.194H1073.65H1094.33V117.819H1101.12H1104.94Z" fill="#122132" stroke="#122132" stroke-width="0.213222"/>
<path d="M1104.93 107.513H1056.55V110.817H1060.27V114.335H1104.93V107.513Z" fill="#182738" stroke="#182738" stroke-width="0.213222"/>
<path d="M1052.73 100.584V96.959H1068.04V100.477L1052.73 100.584Z" fill="#26733D" stroke="#26733D" stroke-width="0.213222"/>
<path d="M1054.84 107.407V100.69H1076.96V107.206L1054.84 107.407Z" fill="#206234" stroke="#206234" stroke-width="0.213222"/>
<path d="M1054.84 110.924V107.406H1056.44V110.924H1060.16V114.442H1064.84V117.854H1060.16V114.442H1056.44V110.924H1054.84Z" fill="#26733D"/>
<path d="M1056.44 110.924H1054.84V107.406H1056.44V110.924ZM1056.44 110.924V114.442H1060.16M1056.44 110.924H1060.16V114.442M1060.16 114.442V117.854H1064.84V114.442H1060.16Z" stroke="#26733D" stroke-width="0.213222"/>
<path d="M1073.56 100.584V96.959H1078.45V100.477L1073.56 100.584Z" fill="#26733D" stroke="#26733D" stroke-width="0.213222"/>
<path d="M1081.01 72.7598H1050.27V80.1156H1044V83.3137H1087.49V80.1156H1081.01V72.7598Z" fill="#26733D" stroke="#26733D" stroke-width="0.213222"/>
<path d="M1051.87 83.4209H1079.52V96.9598H1051.87V83.4209Z" fill="black"/>
<rect x="1070.8" y="96.959" width="2.76492" height="3.6246" fill="black"/>
<rect x="1068.04" y="96.959" width="2.76492" height="3.6246" fill="black"/>
<rect x="1075.9" y="87.5791" width="2.9776" height="5.11708" fill="#FAFF15"/>
<rect x="1066.55" y="87.5791" width="2.9776" height="5.11708" fill="#FAFF15"/>
<rect x="1052.09" y="76.0645" width="1.70149" height="1.9189" fill="#FF9315"/>
<rect x="1078.02" y="73.7197" width="1.70149" height="1.9189" fill="#FF9315"/>
<rect x="1053.79" y="77.9834" width="4.04103" height="1.9189" fill="#FF9315"/>
<rect x="1098.45" y="110.818" width="1.4888" height="5.5435" fill="#FF9315"/>
<rect x="1098.02" y="103.994" width="3.40298" height="3.41139" fill="#FF9315"/>
<rect x="1095.04" y="110.818" width="1.4888" height="5.5435" fill="#FF9315"/>
<rect x="1101.86" y="110.818" width="1.4888" height="5.5435" fill="#FF9315"/>
<path d="M1056.44 142.479H1059.95V148.981H1056.44V142.479Z" fill="#26733D"/>
<path d="M1070.27 142.479H1073.88V148.981H1070.27V142.479Z" fill="#26733D"/>
<path d="M1064.96 117.961H1063.58V124.57H1064.96V117.961Z" fill="white"/>
<path d="M1073.67 121.301L1070.27 121.297V124.57H1073.67V121.301Z" fill="white"/>
<path d="M1285.79 0H1257.28V9.56697H1252.51V19.1339H1247.73V33.4844H1271.59V57.2879H1276.36V33.4844H1290.68V14.3505H1285.79V0Z" fill="#314A46" stroke="#314A46" stroke-width="0.531525"/>
<rect x="1247.73" y="33.4834" width="4.77169" height="4.78348" fill="white"/>
<rect x="1266.83" y="33.4834" width="4.77169" height="4.78348" fill="white"/>
<rect x="1285.91" y="33.4834" width="4.77169" height="4.78348" fill="white"/>
<rect x="1285.91" y="52.8467" width="4.77169" height="9.1114" fill="white"/>
<rect x="1262.05" y="50.5684" width="4.77169" height="11.3892" fill="white"/>
<rect x="1247.73" y="57.1729" width="4.77169" height="4.78348" fill="white"/>
<rect x="1276.37" y="57.1729" width="4.77169" height="4.78348" fill="white"/>
<rect x="1266.83" y="57.1729" width="9.54338" height="4.78348" fill="#6F1E27"/>
<rect x="1281.14" y="57.1729" width="4.77169" height="4.78348" fill="#6F1E27"/>
<rect x="1290.67" y="57.1729" width="9.54338" height="4.78348" fill="#6F1E27"/>
<rect x="1300.23" y="52.8467" width="4.77169" height="4.78348" fill="#6F1E27"/>
<rect x="1276.37" y="33.4834" width="4.77169" height="8.65583" fill="white"/>
<rect x="1257.27" y="33.4834" width="4.77169" height="12.0726" fill="white"/>
<path d="M1247.73 61.957L1290.68 62.0709V95.5553H1285.87V148.06H1285.91H1290.68V190.997H1285.91V148.06H1285.87H1281.14V109.906H1276.36V100.339H1271.59V90.7718H1266.82V95.5553H1262.05V105.122H1257.28V109.906H1252.51V190.997H1247.73V61.957Z" fill="#314A46"/>
<path d="M1285.91 148.06H1285.87V95.5553H1290.68V62.0709L1247.73 61.957V190.997H1252.51V109.906H1257.28V105.122H1262.05V95.5553H1266.82V90.7718H1271.59V100.339H1276.36V109.906H1281.14V148.06H1285.91ZM1285.91 148.06H1290.68V190.997H1285.91V148.06Z" stroke="#314A46" stroke-width="0.531525"/>
<rect x="1194.06" y="111.37" width="4.77169" height="4.78348" fill="#FAFF15"/>
<path d="M1315.84 128.301V111.031H1317.33V114.549H1321.05V117.961H1324.46V124.677H1334.77V121.3H1337.96V128.301H1334.77V142.373H1331.37V128.301H1320.84V142.373H1317.55V128.301H1315.84Z" fill="black" stroke="black" stroke-width="0.213222"/>
<path d="M1365.94 117.819V114.443H1326.06V124.464H1331.15V121.194H1334.65H1355.33V117.819H1362.12H1365.94Z" fill="#122132" stroke="#122132" stroke-width="0.213222"/>
<path d="M1365.93 107.513H1317.55V110.817H1321.27V114.335H1365.93V107.513Z" fill="#182738" stroke="#182738" stroke-width="0.213222"/>
<path d="M1313.73 100.584V96.959H1329.04V100.477L1313.73 100.584Z" fill="#26733D" stroke="#26733D" stroke-width="0.213222"/>
<path d="M1315.84 107.407V100.69H1337.96V107.206L1315.84 107.407Z" fill="#206234" stroke="#206234" stroke-width="0.213222"/>
<path d="M1315.84 110.924V107.406H1317.44V110.924H1321.16V114.442H1325.84V117.854H1321.16V114.442H1317.44V110.924H1315.84Z" fill="#26733D"/>
<path d="M1317.44 110.924H1315.84V107.406H1317.44V110.924ZM1317.44 110.924V114.442H1321.16M1317.44 110.924H1321.16V114.442M1321.16 114.442V117.854H1325.84V114.442H1321.16Z" stroke="#26733D" stroke-width="0.213222"/>
<path d="M1334.56 100.584V96.959H1339.45V100.477L1334.56 100.584Z" fill="#26733D" stroke="#26733D" stroke-width="0.213222"/>
<path d="M1342.01 72.7598H1311.27V80.1156H1305V83.3137H1348.49V80.1156H1342.01V72.7598Z" fill="#26733D" stroke="#26733D" stroke-width="0.213222"/>
<path d="M1312.87 83.4209H1340.52V96.9598H1312.87V83.4209Z" fill="black"/>
<rect x="1331.8" y="96.959" width="2.7649" height="3.6246" fill="black"/>
<rect x="1329.04" y="96.959" width="2.7649" height="3.6246" fill="black"/>
<rect x="1336.9" y="87.5791" width="2.97759" height="5.11708" fill="#FAFF15"/>
<rect x="1327.55" y="87.5791" width="2.97759" height="5.11708" fill="#FAFF15"/>
<rect x="1313.09" y="76.0645" width="1.70148" height="1.9189" fill="#FF9315"/>
<rect x="1339.02" y="73.7197" width="1.70148" height="1.9189" fill="#FF9315"/>
<rect x="1314.79" y="77.9834" width="4.04101" height="1.9189" fill="#FF9315"/>
<rect x="1359.45" y="110.818" width="1.48879" height="5.5435" fill="#FF9315"/>
<rect x="1359.02" y="103.994" width="3.40296" height="3.41139" fill="#FF9315"/>
<rect x="1356.04" y="110.818" width="1.48879" height="5.5435" fill="#FF9315"/>
<rect x="1362.86" y="110.818" width="1.48879" height="5.5435" fill="#FF9315"/>
<path d="M1317.44 142.479H1320.95V148.981H1317.44V142.479Z" fill="#26733D"/>
<path d="M1331.27 142.479H1334.88V148.981H1331.27V142.479Z" fill="#26733D"/>
<path d="M1325.96 117.961H1324.58V124.57H1325.96V117.961Z" fill="white"/>
<path d="M1334.67 121.301L1331.27 121.297V124.57H1334.67V121.301Z" fill="white"/>
<path d="M1546.8 0H1518.29V9.56697H1513.51V19.1339H1508.74V33.4844H1532.6V57.2879H1537.37V33.4844H1551.69V14.3505H1546.8V0Z" fill="#314A46" stroke="#314A46" stroke-width="0.531525"/>
<rect x="1508.74" y="33.4834" width="4.77166" height="4.78348" fill="white"/>
<rect x="1527.84" y="33.4834" width="4.77166" height="4.78348" fill="white"/>
<rect x="1546.91" y="33.4834" width="4.77166" height="4.78348" fill="white"/>
<rect x="1546.91" y="52.8467" width="4.77166" height="9.1114" fill="white"/>
<rect x="1523.05" y="50.5684" width="4.77166" height="11.3892" fill="white"/>
<rect x="1508.74" y="57.1729" width="4.77166" height="4.78348" fill="white"/>
<rect x="1537.38" y="57.1729" width="4.77166" height="4.78348" fill="white"/>
<rect x="1527.84" y="57.1729" width="9.54333" height="4.78348" fill="#6F1E27"/>
<rect x="1542.15" y="57.1729" width="4.77166" height="4.78348" fill="#6F1E27"/>
<rect x="1551.68" y="57.1729" width="9.54333" height="4.78348" fill="#6F1E27"/>
<rect x="1561.23" y="52.8467" width="4.77166" height="4.78348" fill="#6F1E27"/>
<rect x="1537.38" y="33.4834" width="4.77166" height="8.65583" fill="white"/>
<rect x="1518.28" y="33.4834" width="4.77166" height="12.0726" fill="white"/>
<path d="M1508.74 61.957L1551.69 62.0709V95.5553H1546.88V148.06H1546.91H1551.69V190.997H1546.91V148.06H1546.88H1542.14V109.906H1537.37V100.339H1532.6V90.7718H1527.83V95.5553H1523.06V105.122H1518.29V109.906H1513.51V190.997H1508.74V61.957Z" fill="#314A46"/>
<path d="M1546.91 148.06H1546.88V95.5553H1551.69V62.0709L1508.74 61.957V190.997H1513.51V109.906H1518.29V105.122H1523.06V95.5553H1527.83V90.7718H1532.6V100.339H1537.37V109.906H1542.14V148.06H1546.91ZM1546.91 148.06H1551.69V190.997H1546.91V148.06Z" stroke="#314A46" stroke-width="0.531525"/>
<rect x="1479.05" y="111.37" width="4.77166" height="4.78348" fill="#FAFF15"/>
<path d="M1576.85 128.301V111.031H1578.34V114.549H1582.06V117.961H1585.47V124.677H1595.78V121.3H1598.97V128.301H1595.78V142.373H1592.38V128.301H1581.85V142.373H1578.55V128.301H1576.85Z" fill="black" stroke="black" stroke-width="0.213222"/>
<path d="M1626.94 117.819V114.443H1587.06V124.464H1592.15V121.194H1595.65H1616.34V117.819H1623.13H1626.94Z" fill="#122132" stroke="#122132" stroke-width="0.213222"/>
<path d="M1626.94 107.513H1578.55V110.817H1582.27V114.335H1626.94V107.513Z" fill="#182738" stroke="#182738" stroke-width="0.213222"/>
<path d="M1574.73 100.584V96.959H1590.04V100.477L1574.73 100.584Z" fill="#26733D" stroke="#26733D" stroke-width="0.213222"/>
<path d="M1576.85 107.407V100.69H1598.97V107.206L1576.85 107.407Z" fill="#206234" stroke="#206234" stroke-width="0.213222"/>
<path d="M1576.85 110.924V107.406H1578.45V110.924H1582.17V114.442H1586.85V117.854H1582.17V114.442H1578.45V110.924H1576.85Z" fill="#26733D"/>
<path d="M1578.45 110.924H1576.85V107.406H1578.45V110.924ZM1578.45 110.924V114.442H1582.17M1578.45 110.924H1582.17V114.442M1582.17 114.442V117.854H1586.85V114.442H1582.17Z" stroke="#26733D" stroke-width="0.213222"/>
<path d="M1595.57 100.584V96.959H1600.46V100.477L1595.57 100.584Z" fill="#26733D" stroke="#26733D" stroke-width="0.213222"/>
<path d="M1603.01 72.7598H1572.27V80.1156H1566V83.3137H1609.5V80.1156H1603.01V72.7598Z" fill="#26733D" stroke="#26733D" stroke-width="0.213222"/>
<path d="M1573.87 83.4209H1601.52V96.9598H1573.87V83.4209Z" fill="black"/>
<rect x="1592.8" y="96.959" width="2.7651" height="3.6246" fill="black"/>
<rect x="1590.04" y="96.959" width="2.7651" height="3.6246" fill="black"/>
<rect x="1597.91" y="87.5791" width="2.9778" height="5.11708" fill="#FAFF15"/>
<rect x="1588.55" y="87.5791" width="2.9778" height="5.11708" fill="#FAFF15"/>
<rect x="1574.09" y="76.0645" width="1.7016" height="1.9189" fill="#FF9315"/>
<rect x="1600.02" y="73.7197" width="1.7016" height="1.9189" fill="#FF9315"/>
<rect x="1575.79" y="77.9834" width="4.0413" height="1.9189" fill="#FF9315"/>
<rect x="1620.46" y="110.818" width="1.4889" height="5.5435" fill="#FF9315"/>
<rect x="1620.02" y="103.994" width="3.4032" height="3.41139" fill="#FF9315"/>
<rect x="1617.05" y="110.818" width="1.4889" height="5.5435" fill="#FF9315"/>
<rect x="1623.86" y="110.818" width="1.4889" height="5.5435" fill="#FF9315"/>
<path d="M1578.44 142.479H1581.95V148.981H1578.44V142.479Z" fill="#26733D"/>
<path d="M1592.27 142.479H1595.89V148.981H1592.27V142.479Z" fill="#26733D"/>
<path d="M1586.96 117.961H1585.58V124.57H1586.96V117.961Z" fill="white"/>
<path d="M1595.68 121.301L1592.27 121.297V124.57H1595.68V121.301Z" fill="white"/>
<path d="M1807.8 0H1779.28V9.56697H1774.51V19.1339H1769.73V33.4844H1793.59V57.2879H1798.37V33.4844H1812.68V14.3505H1807.8V0Z" fill="#314A46" stroke="#314A46" stroke-width="0.531525"/>
<rect x="1769.73" y="33.4834" width="4.77201" height="4.78348" fill="white"/>
<rect x="1788.83" y="33.4834" width="4.77201" height="4.78348" fill="white"/>
<rect x="1807.91" y="33.4834" width="4.77201" height="4.78348" fill="white"/>
<rect x="1807.91" y="52.8467" width="4.77201" height="9.1114" fill="white"/>
<rect x="1784.05" y="50.5684" width="4.77201" height="11.3892" fill="white"/>
<rect x="1769.73" y="57.1729" width="4.77201" height="4.78348" fill="white"/>
<rect x="1798.37" y="57.1729" width="4.77201" height="4.78348" fill="white"/>
<rect x="1788.83" y="57.1729" width="9.54401" height="4.78348" fill="#6F1E27"/>
<rect x="1803.14" y="57.1729" width="4.77201" height="4.78348" fill="#6F1E27"/>
<rect x="1812.67" y="57.1729" width="9.54401" height="4.78348" fill="#6F1E27"/>
<rect x="1822.23" y="52.8467" width="4.77201" height="4.78348" fill="#6F1E27"/>
<rect x="1798.37" y="33.4834" width="4.77201" height="8.65583" fill="white"/>
<rect x="1779.27" y="33.4834" width="4.77201" height="12.0726" fill="white"/>
<path d="M1769.73 61.957L1812.68 62.0709V95.5553H1807.88V148.06H1807.91H1812.68V190.997H1807.91V148.06H1807.88H1803.14V109.906H1798.37V100.339H1793.59V90.7718H1788.82V95.5553H1784.05V105.122H1779.28V109.906H1774.51V190.997H1769.73V61.957Z" fill="#314A46"/>
<path d="M1807.91 148.06H1807.88V95.5553H1812.68V62.0709L1769.73 61.957V190.997H1774.51V109.906H1779.28V105.122H1784.05V95.5553H1788.82V90.7718H1793.59V100.339H1798.37V109.906H1803.14V148.06H1807.91ZM1807.91 148.06H1812.68V190.997H1807.91V148.06Z" stroke="#314A46" stroke-width="0.531525"/>
<rect x="1767.36" y="111.37" width="4.77201" height="4.78348" fill="#FAFF15"/>
<path d="M1837.84 128.301V111.031H1839.33V114.549H1843.05V117.961H1846.46V124.677H1856.77V121.3H1859.96V128.301H1856.77V142.373H1853.37V128.301H1842.84V142.373H1839.55V128.301H1837.84Z" fill="black" stroke="black" stroke-width="0.213222"/>
<path d="M1887.94 117.819V114.443H1848.06V124.464H1853.15V121.194H1856.65H1877.33V117.819H1884.12H1887.94Z" fill="#122132" stroke="#122132" stroke-width="0.213222"/>
<path d="M1887.93 107.513H1839.55V110.817H1843.27V114.335H1887.93V107.513Z" fill="#182738" stroke="#182738" stroke-width="0.213222"/>
<path d="M1835.73 100.584V96.959H1851.04V100.477L1835.73 100.584Z" fill="#26733D" stroke="#26733D" stroke-width="0.213222"/>
<path d="M1837.84 107.407V100.69H1859.96V107.206L1837.84 107.407Z" fill="#206234" stroke="#206234" stroke-width="0.213222"/>
<path d="M1837.84 110.924V107.406H1839.44V110.924H1843.16V114.442H1847.84V117.854H1843.16V114.442H1839.44V110.924H1837.84Z" fill="#26733D"/>
<path d="M1839.44 110.924H1837.84V107.406H1839.44V110.924ZM1839.44 110.924V114.442H1843.16M1839.44 110.924H1843.16V114.442M1843.16 114.442V117.854H1847.84V114.442H1843.16Z" stroke="#26733D" stroke-width="0.213222"/>
<path d="M1856.56 100.584V96.959H1861.45V100.477L1856.56 100.584Z" fill="#26733D" stroke="#26733D" stroke-width="0.213222"/>
<path d="M1864.01 72.7598H1833.27V80.1156H1827V83.3137H1870.49V80.1156H1864.01V72.7598Z" fill="#26733D" stroke="#26733D" stroke-width="0.213222"/>
<path d="M1834.87 83.4209H1862.52V96.9598H1834.87V83.4209Z" fill="black"/>
<rect x="1853.8" y="96.959" width="2.7648" height="3.6246" fill="black"/>
<rect x="1851.04" y="96.959" width="2.7648" height="3.6246" fill="black"/>
<rect x="1858.9" y="87.5791" width="2.97748" height="5.11708" fill="#FAFF15"/>
<rect x="1849.55" y="87.5791" width="2.97748" height="5.11708" fill="#FAFF15"/>
<rect x="1835.09" y="76.0645" width="1.70142" height="1.9189" fill="#FF9315"/>
<rect x="1861.03" y="73.7197" width="1.70142" height="1.9189" fill="#FF9315"/>
<rect x="1836.79" y="77.9834" width="4.04086" height="1.9189" fill="#FF9315"/>
<rect x="1881.45" y="110.818" width="1.48874" height="5.5435" fill="#FF9315"/>
<rect x="1881.02" y="103.994" width="3.40283" height="3.41139" fill="#FF9315"/>
<rect x="1878.04" y="110.818" width="1.48874" height="5.5435" fill="#FF9315"/>
<rect x="1884.86" y="110.818" width="1.48874" height="5.5435" fill="#FF9315"/>
<path d="M1839.44 142.479H1842.95V148.981H1839.44V142.479Z" fill="#26733D"/>
<path d="M1853.27 142.479H1856.88V148.981H1853.27V142.479Z" fill="#26733D"/>
<path d="M1847.95 117.961H1846.57V124.57H1847.95V117.961Z" fill="white"/>
<path d="M1856.67 121.301L1853.27 121.297V124.57H1856.67V121.301Z" fill="white"/>
<path d="M2068.8 0H2040.29V9.56697H2035.51V19.1339H2030.74V33.4844H2054.6V57.2879H2059.37V33.4844H2073.69V14.3505H2068.8V0Z" fill="#314A46" stroke="#314A46" stroke-width="0.531525"/>
<rect x="2030.74" y="33.4834" width="4.77149" height="4.78348" fill="white"/>
<rect x="2049.84" y="33.4834" width="4.77149" height="4.78348" fill="white"/>
<rect x="2068.91" y="33.4834" width="4.77149" height="4.78348" fill="white"/>
<rect x="2068.91" y="52.8467" width="4.77149" height="9.1114" fill="white"/>
<rect x="2045.05" y="50.5684" width="4.77149" height="11.3892" fill="white"/>
<rect x="2030.74" y="57.1729" width="4.77149" height="4.78348" fill="white"/>
<rect x="2059.37" y="57.1729" width="4.77149" height="4.78348" fill="white"/>
<rect x="2049.84" y="57.1729" width="9.54298" height="4.78348" fill="#6F1E27"/>
<rect x="2064.15" y="57.1729" width="4.77149" height="4.78348" fill="#6F1E27"/>
<rect x="2073.68" y="57.1729" width="9.54298" height="4.78348" fill="#6F1E27"/>
<rect x="2083.23" y="52.8467" width="4.77149" height="4.78348" fill="#6F1E27"/>
<rect x="2059.37" y="33.4834" width="4.77149" height="8.65583" fill="white"/>
<rect x="2040.28" y="33.4834" width="4.77149" height="12.0726" fill="white"/>
<path d="M2030.74 61.957L2073.69 62.0709V95.5553H2068.88V148.06H2068.91H2073.69V190.997H2068.91V148.06H2068.88H2064.14V109.906H2059.37V100.339H2054.6V90.7718H2049.83V95.5553H2045.06V105.122H2040.29V109.906H2035.51V190.997H2030.74V61.957Z" fill="#314A46"/>
<path d="M2068.91 148.06H2068.88V95.5553H2073.69V62.0709L2030.74 61.957V190.997H2035.51V109.906H2040.29V105.122H2045.06V95.5553H2049.83V90.7718H2054.6V100.339H2059.37V109.906H2064.14V148.06H2068.91ZM2068.91 148.06H2073.69V190.997H2068.91V148.06Z" stroke="#314A46" stroke-width="0.531525"/>
<rect x="2028.36" y="111.37" width="4.77149" height="4.78348" fill="#111111"/>
<path d="M2098.85 128.301V111.031H2100.34V114.549H2104.07V117.961H2107.47V124.677H2117.8V121.3H2120.99V128.301H2117.8V142.373H2114.39V128.301H2103.85V142.373H2100.55V128.301H2098.85Z" fill="black" stroke="black" stroke-width="0.213222"/>
<path d="M2148.99 117.82V114.444H2109.08V124.465H2114.17V121.195H2117.68H2138.37V117.82H2145.17H2148.99Z" fill="#122132" stroke="#122132" stroke-width="0.213222"/>
<path d="M2148.99 107.514H2100.56V110.818H2104.29V114.336H2148.99V107.514Z" fill="#182738" stroke="#182738" stroke-width="0.213222"/>
<path d="M2096.73 100.585V96.96H2112.05V100.478L2096.73 100.585Z" fill="#26733D" stroke="#26733D" stroke-width="0.213222"/>
<path d="M2098.85 107.407V100.69H2120.99V107.206L2098.85 107.407Z" fill="#206234" stroke="#206234" stroke-width="0.213222"/>
<path d="M2098.85 110.924V107.406H2100.45V110.924H2104.17V114.442H2108.86V117.854H2104.17V114.442H2100.45V110.924H2098.85Z" fill="#26733D"/>
<path d="M2100.45 110.924H2098.85V107.406H2100.45V110.924ZM2100.45 110.924V114.442H2104.17M2100.45 110.924H2104.17V114.442M2104.17 114.442V117.854H2108.86V114.442H2104.17Z" stroke="#26733D" stroke-width="0.213222"/>
<path d="M2117.59 100.585V96.96H2122.48V100.478L2117.59 100.585Z" fill="#26733D" stroke="#26733D" stroke-width="0.213222"/>
<path d="M2125.04 72.7598H2094.28V80.1156H2088V83.3137H2131.53V80.1156H2125.04V72.7598Z" fill="#26733D" stroke="#26733D" stroke-width="0.213222"/>
<path d="M2095.87 83.4209H2123.54V96.9598H2095.87V83.4209Z" fill="black"/>
<rect x="2114.81" y="96.96" width="2.76708" height="3.6246" fill="black"/>
<rect x="2112.05" y="96.96" width="2.76708" height="3.6246" fill="black"/>
<rect x="2119.93" y="87.5791" width="2.97993" height="5.11708" fill="#FAFF15"/>
<rect x="2110.56" y="87.5791" width="2.97993" height="5.11708" fill="#FAFF15"/>
<rect x="2096.09" y="76.0645" width="1.70282" height="1.9189" fill="#FF9315"/>
<rect x="2122.06" y="73.7197" width="1.70282" height="1.9189" fill="#FF9315"/>
<rect x="2097.79" y="77.9834" width="4.04419" height="1.9189" fill="#FF9315"/>
<rect x="2142.48" y="110.818" width="1.48996" height="5.5435" fill="#FF9315"/>
<rect x="2142.06" y="103.995" width="3.40563" height="3.41139" fill="#FF9315"/>
<rect x="2139.08" y="110.818" width="1.48996" height="5.5435" fill="#FF9315"/>
<rect x="2145.89" y="110.818" width="1.48996" height="5.5435" fill="#FF9315"/>
<path d="M2100.45 142.48H2103.97V148.983H2100.45V142.48Z" fill="#26733D"/>
<path d="M2114.29 142.48H2117.91V148.983H2114.29V142.48Z" fill="#26733D"/>
<path d="M2108.97 117.961H2107.59V124.57H2108.97V117.961Z" fill="white"/>
<path d="M2117.69 121.302L2114.29 121.298V124.571H2117.69V121.302Z" fill="white"/>
<path d="M2329.78 0H2301.24V9.56711H2296.46V19.1342H2291.69V33.4849H2315.56V57.2888H2320.34V33.4849H2334.67V14.3507H2329.78V0Z" fill="#314A46" stroke="#314A46" stroke-width="0.531525"/>
<rect x="2291.69" y="33.4844" width="4.77541" height="4.78348" fill="white"/>
<rect x="2310.8" y="33.4834" width="4.77541" height="4.78348" fill="white"/>
<rect x="2329.9" y="33.4834" width="4.77541" height="4.78348" fill="white"/>
<rect x="2329.9" y="52.8467" width="4.77541" height="9.1114" fill="white"/>
<rect x="2306.02" y="50.5693" width="4.77541" height="11.3892" fill="white"/>
<rect x="2291.69" y="57.1738" width="4.77541" height="4.78348" fill="white"/>
<rect x="2320.35" y="57.1738" width="4.77541" height="4.78348" fill="white"/>
<rect x="2310.8" y="57.1738" width="9.55083" height="4.78348" fill="#6F1E27"/>
<rect x="2325.12" y="57.1738" width="4.77541" height="4.78348" fill="#6F1E27"/>
<rect x="2334.67" y="57.1738" width="9.55083" height="4.78348" fill="#6F1E27"/>
<rect x="2344.23" y="52.8467" width="4.77541" height="4.78348" fill="#6F1E27"/>
<rect x="2320.35" y="33.4844" width="4.77541" height="8.65583" fill="white"/>
<rect x="2301.24" y="33.4844" width="4.77541" height="12.0726" fill="white"/>
<path d="M2291.69 61.958L2334.67 62.0719V95.5568H2329.86V148.062H2329.89H2334.67V191H2329.89V148.062H2329.86H2325.12V109.907H2320.34V100.34H2315.56V90.7732H2310.79V95.5568H2306.01V105.124H2301.24V109.907H2296.46V191H2291.69V61.958Z" fill="#314A46"/>
<path d="M2329.89 148.062H2329.86V95.5568H2334.67V62.0719L2291.69 61.958V191H2296.46V109.907H2301.24V105.124H2306.01V95.5568H2310.79V90.7732H2315.56V100.34H2320.34V109.907H2325.12V148.062H2329.89ZM2329.89 148.062H2334.67V191H2329.89V148.062Z" stroke="#314A46" stroke-width="0.531525"/>
<rect x="2289.51" y="113.79" width="4.77541" height="4.78348" fill="#111111"/>
<rect x="2320.65" y="79.3252" width="4.77541" height="4.78348" fill="#111111"/>
<rect x="2310.8" y="71.1182" width="4.77541" height="4.78348" fill="#111111"/>
<rect x="2296.62" y="93.5498" width="4.77541" height="4.78348" fill="#111111"/>
<rect x="2330.47" y="63.46" width="4.77541" height="4.78348" fill="#111111"/>
<path d="M2296.06 9.2998H2300.98V14.0833H2296.06V9.2998Z" fill="#111111"/>
<rect x="2315.72" y="20.7881" width="4.77541" height="4.78348" fill="#111111"/>
<rect x="2305.89" width="4.77541" height="4.78348" fill="#111111"/>
<rect x="2296.06" y="78.2295" width="4.77541" height="4.78348" fill="#111111"/>
<rect x="2325.55" y="103.942" width="4.77541" height="4.78348" fill="#111111"/>
<rect x="2289.51" y="126.372" width="4.77541" height="4.78348" fill="#111111"/>
<rect x="2289.18" y="111.37" width="4.77172" height="4.78348" fill="#111111"/>
<path d="M2359.84 128.301V111.031H2361.33V114.549H2365.06V117.961H2368.46V124.677H2378.79V121.3H2381.98V128.301H2378.79V142.373H2375.38V128.301H2364.85V142.373H2361.55V128.301H2359.84Z" fill="black" stroke="black" stroke-width="0.213222"/>
<path d="M2409.99 117.819V114.443H2370.08V124.464H2375.17V121.194H2378.68H2399.37V117.819H2406.16H2409.99Z" fill="#122132" stroke="#122132" stroke-width="0.213222"/>
<path d="M2409.98 107.514H2361.56V110.818H2365.29V114.336H2409.98V107.514Z" fill="#182738" stroke="#182738" stroke-width="0.213222"/>
<path d="M2357.73 100.584V96.959H2373.05V100.477L2357.73 100.584Z" fill="#26733D" stroke="#26733D" stroke-width="0.213222"/>
<path d="M2359.84 107.406V100.689H2381.98V107.205L2359.84 107.406Z" fill="#206234" stroke="#206234" stroke-width="0.213222"/>
<path d="M2359.84 110.924V107.406H2361.44V110.924H2365.16V114.442H2369.85V117.854H2365.16V114.442H2361.44V110.924H2359.84Z" fill="#26733D"/>
<path d="M2361.44 110.924H2359.84V107.406H2361.44V110.924ZM2361.44 110.924V114.442H2365.16M2361.44 110.924H2365.16V114.442M2365.16 114.442V117.854H2369.85V114.442H2365.16Z" stroke="#26733D" stroke-width="0.213222"/>
<path d="M2378.59 100.584V96.959H2383.48V100.477L2378.59 100.584Z" fill="#26733D" stroke="#26733D" stroke-width="0.213222"/>
<path d="M2386.03 72.7598H2355.28V80.1156H2349V83.3137H2392.53V80.1156H2386.03V72.7598Z" fill="#26733D" stroke="#26733D" stroke-width="0.213222"/>
<path d="M2356.87 83.4209H2384.54V96.9598H2356.87V83.4209Z" fill="black"/>
<rect x="2375.81" y="96.959" width="2.76691" height="3.6246" fill="black"/>
<rect x="2373.05" y="96.959" width="2.76691" height="3.6246" fill="black"/>
<rect x="2380.92" y="87.5791" width="2.97974" height="5.11708" fill="#FAFF15"/>
<rect x="2371.55" y="87.5791" width="2.97974" height="5.11708" fill="#FAFF15"/>
<rect x="2357.09" y="76.0645" width="1.70271" height="1.9189" fill="#FF9315"/>
<rect x="2383.06" y="73.7197" width="1.70271" height="1.9189" fill="#FF9315"/>
<rect x="2358.79" y="77.9834" width="4.04394" height="1.9189" fill="#FF9315"/>
<rect x="2403.48" y="110.818" width="1.48987" height="5.5435" fill="#FF9315"/>
<rect x="2403.06" y="103.994" width="3.40542" height="3.41139" fill="#FF9315"/>
<rect x="2400.08" y="110.818" width="1.48987" height="5.5435" fill="#FF9315"/>
<rect x="2406.89" y="110.818" width="1.48987" height="5.5435" fill="#FF9315"/>
<path d="M2361.45 142.479H2364.96V148.981H2361.45V142.479Z" fill="#26733D"/>
<path d="M2375.28 142.479H2378.9V148.981H2375.28V142.479Z" fill="#26733D"/>
<path d="M2369.97 117.961H2368.59V124.57H2369.97V117.961Z" fill="white"/>
<path d="M2378.69 121.302L2375.28 121.298V124.571H2378.69V121.302Z" fill="white"/>
<path d="M2590.77 0H2562.24V9.56697H2557.46V19.1339H2552.69V33.4844H2576.56V57.2879H2581.34V33.4844H2595.66V14.3505H2590.77V0Z" fill="#314A46" stroke="#314A46" stroke-width="0.531525"/>
<rect x="2552.69" y="33.4834" width="4.77512" height="4.78348" fill="white"/>
<rect x="2571.8" y="33.4834" width="4.77512" height="4.78348" fill="white"/>
<rect x="2590.89" y="33.4834" width="4.77512" height="4.78348" fill="white"/>
<rect x="2590.89" y="52.8457" width="4.77512" height="9.1114" fill="white"/>
<rect x="2567.02" y="50.5684" width="4.77512" height="11.3892" fill="white"/>
<rect x="2552.69" y="57.1729" width="4.77512" height="4.78348" fill="white"/>
<rect x="2581.35" y="57.1729" width="4.77512" height="4.78348" fill="white"/>
<rect x="2571.8" y="57.1729" width="9.55024" height="4.78348" fill="#6F1E27"/>
<rect x="2586.12" y="57.1729" width="4.77512" height="4.78348" fill="#6F1E27"/>
<rect x="2595.67" y="57.1729" width="9.55024" height="4.78348" fill="#6F1E27"/>
<rect x="2605.23" y="52.8457" width="4.77512" height="4.78348" fill="#6F1E27"/>
<rect x="2581.35" y="33.4834" width="4.77512" height="8.65583" fill="white"/>
<rect x="2562.24" y="33.4834" width="4.77512" height="12.0726" fill="white"/>
<path d="M2552.69 61.957L2595.66 62.0709V95.5553H2590.85V148.06H2590.89H2595.66V190.997H2590.89V148.06H2590.85H2586.11V109.906H2581.34V100.339H2576.56V90.7718H2571.79V95.5553H2567.01V105.122H2562.24V109.906H2557.46V190.997H2552.69V61.957Z" fill="#314A46"/>
<path d="M2590.89 148.06H2590.85V95.5553H2595.66V62.0709L2552.69 61.957V190.997H2557.46V109.906H2562.24V105.122H2567.01V95.5553H2571.79V90.7718H2576.56V100.339H2581.34V109.906H2586.11V148.06H2590.89ZM2590.89 148.06H2595.66V190.997H2590.89V148.06Z" stroke="#314A46" stroke-width="0.531525"/>
<rect x="2550.51" y="113.789" width="4.77512" height="4.78348" fill="#111111"/>
<rect x="2581.65" y="79.3232" width="4.77512" height="4.78348" fill="#111111"/>
<rect x="2571.8" y="71.1182" width="4.77512" height="4.78348" fill="#111111"/>
<rect x="2557.61" y="93.5479" width="4.77512" height="4.78348" fill="#111111"/>
<rect x="2591.46" y="63.458" width="4.77512" height="4.78348" fill="#111111"/>
<path d="M2557.06 9.2998H2561.98V14.0833H2557.06V9.2998Z" fill="#111111"/>
<rect x="2576.72" y="20.7881" width="4.77512" height="4.78348" fill="#111111"/>
<rect x="2566.88" width="4.77512" height="4.78348" fill="#111111"/>
<rect x="2557.06" y="78.2295" width="4.77512" height="4.78348" fill="#111111"/>
<rect x="2586.55" y="103.942" width="4.77512" height="4.78348" fill="#111111"/>
<rect x="2550.49" y="126.37" width="4.77512" height="4.78348" fill="#111111"/>
<rect x="2550.55" y="111.37" width="4.77143" height="4.78348" fill="#111111"/>
<path d="M2620.85 128.301V111.031H2622.34V114.549H2626.07V117.961H2629.47V124.677H2639.8V121.3H2642.99V128.301H2639.8V142.373H2636.39V128.301H2625.85V142.373H2622.55V128.301H2620.85Z" fill="black" stroke="black" stroke-width="0.213222"/>
<path d="M2670.99 117.819V114.443H2631.08V124.464H2636.17V121.194H2639.68H2660.38V117.819H2667.17H2670.99Z" fill="#122132" stroke="#122132" stroke-width="0.213222"/>
<path d="M2670.99 107.514H2622.56V110.818H2626.29V114.336H2670.99V107.514Z" fill="#182738" stroke="#182738" stroke-width="0.213222"/>
<path d="M2618.73 100.584V96.959H2634.05V100.477L2618.73 100.584Z" fill="#26733D" stroke="#26733D" stroke-width="0.213222"/>
<path d="M2620.85 107.406V100.689H2642.99V107.205L2620.85 107.406Z" fill="#206234" stroke="#206234" stroke-width="0.213222"/>
<path d="M2620.85 110.924V107.406H2622.45V110.924H2626.17V114.442H2630.86V117.854H2626.17V114.442H2622.45V110.924H2620.85Z" fill="#26733D"/>
<path d="M2622.45 110.924H2620.85V107.406H2622.45V110.924ZM2622.45 110.924V114.442H2626.17M2622.45 110.924H2626.17V114.442M2626.17 114.442V117.854H2630.86V114.442H2626.17Z" stroke="#26733D" stroke-width="0.213222"/>
<path d="M2639.59 100.584V96.959H2644.48V100.477L2639.59 100.584Z" fill="#26733D" stroke="#26733D" stroke-width="0.213222"/>
<path d="M2647.04 72.7598H2616.28V80.1156H2610V83.3137H2653.53V80.1156H2647.04V72.7598Z" fill="#26733D" stroke="#26733D" stroke-width="0.213222"/>
<path d="M2617.87 83.4209H2645.54V96.9598H2617.87V83.4209Z" fill="black"/>
<rect x="2636.81" y="96.959" width="2.76721" height="3.6246" fill="black"/>
<rect x="2634.05" y="96.959" width="2.76721" height="3.6246" fill="black"/>
<rect x="2641.93" y="87.5791" width="2.98008" height="5.11708" fill="#FAFF15"/>
<rect x="2632.56" y="87.5791" width="2.98008" height="5.11708" fill="#FAFF15"/>
<rect x="2618.09" y="76.0645" width="1.7029" height="1.9189" fill="#FF9315"/>
<rect x="2644.06" y="73.7197" width="1.7029" height="1.9189" fill="#FF9315"/>
<rect x="2619.79" y="77.9834" width="4.04439" height="1.9189" fill="#FF9315"/>
<rect x="2664.48" y="110.818" width="1.49004" height="5.5435" fill="#FF9315"/>
<rect x="2664.07" y="103.994" width="3.4058" height="3.41139" fill="#FF9315"/>
<rect x="2661.09" y="110.818" width="1.49004" height="5.5435" fill="#FF9315"/>
<rect x="2667.89" y="110.818" width="1.49004" height="5.5435" fill="#FF9315"/>
<path d="M2622.45 142.479H2625.97V148.981H2622.45V142.479Z" fill="#26733D"/>
<path d="M2636.29 142.479H2639.91V148.981H2636.29V142.479Z" fill="#26733D"/>
<path d="M2630.98 117.961H2629.59V124.57H2630.98V117.961Z" fill="white"/>
<path d="M2639.69 121.302L2636.29 121.298V124.571H2639.69V121.302Z" fill="white"/>
<path d="M2851.77 0H2823.23V9.56697H2818.46V19.1339H2813.68V33.4844H2837.56V57.2879H2842.33V33.4844H2856.66V14.3505H2851.77V0Z" fill="#314A46" stroke="#314A46" stroke-width="0.531525"/>
<rect x="2813.68" y="33.4834" width="4.77565" height="4.78348" fill="white"/>
<rect x="2832.79" y="33.4834" width="4.77565" height="4.78348" fill="white"/>
<rect x="2851.89" y="33.4834" width="4.77565" height="4.78348" fill="white"/>
<rect x="2851.89" y="52.8457" width="4.77565" height="9.1114" fill="white"/>
<rect x="2828.01" y="50.5684" width="4.77565" height="11.3892" fill="white"/>
<rect x="2813.68" y="57.1729" width="4.77565" height="4.78348" fill="white"/>
<rect x="2842.33" y="57.1729" width="4.77565" height="4.78348" fill="white"/>
<rect x="2832.79" y="57.1729" width="9.55131" height="4.78348" fill="#6F1E27"/>
<rect x="2847.11" y="57.1729" width="4.77565" height="4.78348" fill="#6F1E27"/>
<rect x="2856.66" y="57.1729" width="9.55131" height="4.78348" fill="#6F1E27"/>
<rect x="2866.22" y="52.8457" width="4.77565" height="4.78348" fill="#6F1E27"/>
<rect x="2842.33" y="33.4834" width="4.77565" height="8.65583" fill="white"/>
<rect x="2823.23" y="33.4834" width="4.77565" height="12.0726" fill="white"/>
<path d="M2813.68 61.957L2856.66 62.0709V95.5553H2851.85V148.06H2851.89H2856.66V190.997H2851.89V148.06H2851.85H2847.11V109.906H2842.33V100.339H2837.56V90.7718H2832.78V95.5553H2828.01V105.122H2823.23V109.906H2818.46V190.997H2813.68V61.957Z" fill="#314A46"/>
<path d="M2851.89 148.06H2851.85V95.5553H2856.66V62.0709L2813.68 61.957V190.997H2818.46V109.906H2823.23V105.122H2828.01V95.5553H2832.78V90.7718H2837.56V100.339H2842.33V109.906H2847.11V148.06H2851.89ZM2851.89 148.06H2856.66V190.997H2851.89V148.06Z" stroke="#314A46" stroke-width="0.531525"/>
<rect x="2813.13" y="66.1943" width="4.77565" height="4.78348" fill="#111111"/>
<rect x="2842.63" y="79.3232" width="4.77565" height="4.78348" fill="#111111"/>
<rect x="2832.8" y="71.1182" width="4.77565" height="4.78348" fill="#111111"/>
<rect x="2828.42" y="86.4355" width="4.77565" height="4.78348" fill="#111111"/>
<rect x="2847.54" y="68.3828" width="4.77565" height="4.78348" fill="#111111"/>
<rect x="2815.86" y="118.165" width="4.77565" height="4.78348" fill="#111111"/>
<rect x="2844.81" y="131.841" width="4.77565" height="4.78348" fill="#111111"/>
<rect x="2849.17" y="144.971" width="4.77565" height="4.78348" fill="#111111"/>
<rect x="2818.59" y="93.5479" width="4.77565" height="4.78348" fill="#111111"/>
<rect x="2852.45" y="63.458" width="4.77565" height="4.78348" fill="#111111"/>
<path d="M2818.04 9.2998H2822.95V14.0833H2818.04V9.2998Z" fill="#111111"/>
<rect x="2837.7" y="20.7881" width="4.77565" height="4.78348" fill="#111111"/>
<path d="M2813.13 28.7207H2817.91V33.5042H2813.13V28.7207Z" fill="#111111"/>
<path d="M2847.54 4.37598H2852.31V9.15946H2847.54V4.37598Z" fill="#111111"/>
<rect x="2827.88" width="4.77565" height="4.78348" fill="#111111"/>
<rect x="2818.04" y="78.2295" width="4.77565" height="4.78348" fill="#111111"/>
<rect x="2847.54" y="103.942" width="4.77565" height="4.78348" fill="#111111"/>
<rect x="2811.52" y="126.37" width="4.77565" height="4.78348" fill="#111111"/>
<rect x="2811.4" y="111.37" width="4.77196" height="4.78348" fill="#111111"/>
<path d="M2881.84 128.301V111.031H2883.33V114.549H2887.06V117.961H2890.46V124.677H2900.79V121.3H2903.98V128.301H2900.79V142.373H2897.38V128.301H2886.85V142.373H2883.55V128.301H2881.84Z" fill="black" stroke="black" stroke-width="0.213222"/>
<path d="M2931.99 117.819V114.443H2892.08V124.464H2897.17V121.194H2900.68H2921.37V117.819H2928.16H2931.99Z" fill="#122132" stroke="#122132" stroke-width="0.213222"/>
<path d="M2931.98 107.514H2883.56V110.818H2887.29V114.336H2931.98V107.514Z" fill="#182738" stroke="#182738" stroke-width="0.213222"/>
<path d="M2879.73 100.584V96.959H2895.05V100.477L2879.73 100.584Z" fill="#26733D" stroke="#26733D" stroke-width="0.213222"/>
<path d="M2881.84 107.406V100.689H2903.98V107.205L2881.84 107.406Z" fill="#206234" stroke="#206234" stroke-width="0.213222"/>
<path d="M2881.84 110.924V107.406H2883.44V110.924H2887.17V114.442H2891.85V117.854H2887.17V114.442H2883.44V110.924H2881.84Z" fill="#26733D"/>
<path d="M2883.44 110.924H2881.84V107.406H2883.44V110.924ZM2883.44 110.924V114.442H2887.17M2883.44 110.924H2887.17V114.442M2887.17 114.442V117.854H2891.85V114.442H2887.17Z" stroke="#26733D" stroke-width="0.213222"/>
<path d="M2900.59 100.584V96.959H2905.48V100.477L2900.59 100.584Z" fill="#26733D" stroke="#26733D" stroke-width="0.213222"/>
<path d="M2908.03 72.7598H2877.28V80.1156H2871V83.3137H2914.53V80.1156H2908.03V72.7598Z" fill="#26733D" stroke="#26733D" stroke-width="0.213222"/>
<path d="M2878.87 83.4209H2906.54V96.9598H2878.87V83.4209Z" fill="black"/>
<rect x="2897.81" y="96.959" width="2.76706" height="3.6246" fill="black"/>
<rect x="2895.05" y="96.959" width="2.76706" height="3.6246" fill="black"/>
<rect x="2902.92" y="87.5791" width="2.97991" height="5.11708" fill="#FAFF15"/>
<rect x="2893.56" y="87.5791" width="2.97991" height="5.11708" fill="#FAFF15"/>
<rect x="2879.09" y="76.0645" width="1.70281" height="1.9189" fill="#FF9315"/>
<rect x="2905.06" y="73.7197" width="1.70281" height="1.9189" fill="#FF9315"/>
<rect x="2880.79" y="77.9834" width="4.04416" height="1.9189" fill="#FF9315"/>
<rect x="2925.48" y="110.818" width="1.48995" height="5.5435" fill="#FF9315"/>
<rect x="2925.06" y="103.994" width="3.40561" height="3.41139" fill="#FF9315"/>
<rect x="2922.08" y="110.818" width="1.48995" height="5.5435" fill="#FF9315"/>
<rect x="2928.89" y="110.818" width="1.48995" height="5.5435" fill="#FF9315"/>
<path d="M2883.45 142.479H2886.97V148.981H2883.45V142.479Z" fill="#26733D"/>
<path d="M2897.28 142.479H2900.9V148.981H2897.28V142.479Z" fill="#26733D"/>
<path d="M2891.98 117.961H2890.59V124.57H2891.98V117.961Z" fill="white"/>
<path d="M2900.69 121.302L2897.28 121.298V124.571H2900.69V121.302Z" fill="white"/>
<path d="M3112.78 0H3084.25V9.56697H3079.47V19.1339H3074.7V33.4844H3098.57V57.2879H3103.35V33.4844H3117.67V14.3505H3112.78V0Z" fill="#314A46" stroke="#314A46" stroke-width="0.531525"/>
<rect x="3074.7" y="33.4834" width="4.77539" height="4.78348" fill="white"/>
<rect x="3093.8" y="33.4834" width="4.77539" height="4.78348" fill="white"/>
<rect x="3112.9" y="33.4834" width="4.77539" height="4.78348" fill="white"/>
<rect x="3112.9" y="52.8457" width="4.77539" height="9.1114" fill="white"/>
<rect x="3089.02" y="50.5684" width="4.77539" height="11.3892" fill="white"/>
<rect x="3074.7" y="57.1729" width="4.77539" height="4.78348" fill="white"/>
<rect x="3103.34" y="57.1729" width="4.77539" height="4.78348" fill="white"/>
<rect x="3093.8" y="57.1729" width="9.55077" height="4.78348" fill="#6F1E27"/>
<rect x="3108.12" y="57.1729" width="4.77539" height="4.78348" fill="#6F1E27"/>
<rect x="3117.68" y="57.1729" width="9.55077" height="4.78348" fill="#6F1E27"/>
<rect x="3127.23" y="52.8457" width="4.77539" height="4.78348" fill="#6F1E27"/>
<rect x="3103.34" y="33.4834" width="4.77539" height="8.65583" fill="white"/>
<rect x="3084.24" y="33.4834" width="4.77539" height="12.0726" fill="white"/>
<path d="M3074.7 61.957L3117.67 62.0709V95.5553H3112.86V148.06H3112.9H3117.67V190.997H3112.9V148.06H3112.86H3108.12V109.906H3103.35V100.339H3098.57V90.7718H3093.8V95.5553H3089.02V105.122H3084.25V109.906H3079.47V190.997H3074.7V61.957Z" fill="#314A46"/>
<path d="M3112.9 148.06H3112.86V95.5553H3117.67V62.0709L3074.7 61.957V190.997H3079.47V109.906H3084.25V105.122H3089.02V95.5553H3093.8V90.7718H3098.57V100.339H3103.35V109.906H3108.12V148.06H3112.9ZM3112.9 148.06H3117.67V190.997H3112.9V148.06Z" stroke="#314A46" stroke-width="0.531525"/>
<rect x="3074.15" y="66.1943" width="4.77539" height="4.78348" fill="#111111"/>
<rect x="3103.65" y="79.3232" width="4.77539" height="4.78348" fill="#111111"/>
<rect x="3108.55" y="93.5479" width="4.77539" height="4.78348" fill="#111111"/>
<rect x="3113.47" y="86.4355" width="4.77539" height="4.78348" fill="#111111"/>
<rect x="3093.81" y="71.1182" width="4.77539" height="4.78348" fill="#111111"/>
<rect x="3089.44" y="86.4355" width="4.77539" height="4.78348" fill="#111111"/>
<rect x="3108.55" y="68.3828" width="4.77539" height="4.78348" fill="#111111"/>
<rect x="3076.88" y="118.165" width="4.77539" height="4.78348" fill="#111111"/>
<rect x="3105.82" y="131.841" width="4.77539" height="4.78348" fill="#111111"/>
<rect x="3110.19" y="144.971" width="4.77539" height="4.78348" fill="#111111"/>
<rect x="3071.97" y="158.648" width="4.77539" height="4.78348" fill="#111111"/>
<rect x="3110.74" y="184.359" width="4.77539" height="4.78348" fill="#111111"/>
<rect x="3115.66" y="167.401" width="4.77539" height="4.78348" fill="#111111"/>
<rect x="3071.97" y="178.341" width="4.77539" height="4.78348" fill="#111111"/>
<rect x="3079.61" y="93.5479" width="4.77539" height="4.78348" fill="#111111"/>
<rect x="3113.47" y="63.458" width="4.77539" height="4.78348" fill="#111111"/>
<path d="M3079.07 9.2998H3083.99V14.0833H3079.07V9.2998Z" fill="#111111"/>
<rect x="3098.73" y="20.7881" width="4.77539" height="4.78348" fill="#111111"/>
<rect x="3096.54" y="45.4062" width="4.77539" height="4.78348" fill="#111111"/>
<rect x="3091.64" y="59.6289" width="4.77539" height="4.78348" fill="#111111"/>
<rect x="3120.56" y="55.2529" width="4.77539" height="4.78348" fill="#111111"/>
<rect x="3086.17" y="16.959" width="4.77539" height="4.78348" fill="#111111"/>
<rect x="3077.43" y="12.0342" width="4.77539" height="4.78348" fill="#111111"/>
<rect x="3115.66" y="31.1826" width="4.77539" height="4.78348" fill="#111111"/>
<rect x="3105.28" y="37.7471" width="4.77539" height="4.78348" fill="#111111"/>
<rect x="3091.09" y="31.1826" width="4.77539" height="4.78348" fill="#111111"/>
<path d="M3074.15 28.7207H3078.92V33.5042H3074.15V28.7207Z" fill="#111111"/>
<path d="M3108.55 4.37598H3113.33V9.15946H3108.55V4.37598Z" fill="#111111"/>
<rect x="3088.9" width="4.77539" height="4.78348" fill="#111111"/>
<rect x="3079.07" y="78.2295" width="4.77539" height="4.78348" fill="#111111"/>
<rect x="3108.55" y="103.942" width="4.77539" height="4.78348" fill="#111111"/>
<rect x="3072.5" y="126.37" width="4.77539" height="4.78348" fill="#111111"/>
<rect x="3072.21" y="111.37" width="4.77169" height="4.78348" fill="#111111"/>
<path d="M3142.84 128.301V111.031H3144.33V114.549H3148.06V117.961H3151.46V124.677H3161.79V121.3H3164.98V128.301H3161.79V142.373H3158.38V128.301H3147.85V142.373H3144.55V128.301H3142.84Z" fill="black" stroke="black" stroke-width="0.213222"/>
<path d="M3192.99 117.818V114.442H3153.08V124.463H3158.17V121.193H3161.68H3182.37V117.818H3189.17H3192.99Z" fill="#122132" stroke="#122132" stroke-width="0.213222"/>
<path d="M3192.99 107.514H3144.56V110.818H3148.29V114.336H3192.99V107.514Z" fill="#182738" stroke="#182738" stroke-width="0.213222"/>
<path d="M3140.73 100.584V96.959H3156.05V100.477L3140.73 100.584Z" fill="#26733D" stroke="#26733D" stroke-width="0.213222"/>
<path d="M3142.84 107.406V100.689H3164.98V107.205L3142.84 107.406Z" fill="#206234" stroke="#206234" stroke-width="0.213222"/>
<path d="M3142.84 110.925V107.407H3144.44V110.925H3148.17V114.443H3152.85V117.855H3148.17V114.443H3144.44V110.925H3142.84Z" fill="#26733D"/>
<path d="M3144.44 110.925H3142.84V107.407H3144.44V110.925ZM3144.44 110.925V114.443H3148.17M3144.44 110.925H3148.17V114.443M3148.17 114.443V117.855H3152.85V114.443H3148.17Z" stroke="#26733D" stroke-width="0.213222"/>
<path d="M3161.59 100.584V96.959H3166.48V100.477L3161.59 100.584Z" fill="#26733D" stroke="#26733D" stroke-width="0.213222"/>
<path d="M3169.04 72.7598H3138.28V80.1156H3132V83.3137H3175.53V80.1156H3169.04V72.7598Z" fill="#26733D" stroke="#26733D" stroke-width="0.213222"/>
<path d="M3139.87 83.4209H3167.54V96.9598H3139.87V83.4209Z" fill="black"/>
<rect x="3158.81" y="96.959" width="2.76716" height="3.6246" fill="black"/>
<rect x="3156.05" y="96.959" width="2.76716" height="3.6246" fill="black"/>
<rect x="3163.93" y="87.5781" width="2.98002" height="5.11708" fill="#FAFF15"/>
<rect x="3154.56" y="87.5781" width="2.98002" height="5.11708" fill="#FAFF15"/>
<rect x="3140.09" y="76.0645" width="1.70287" height="1.9189" fill="#FF9315"/>
<rect x="3166.06" y="73.7197" width="1.70287" height="1.9189" fill="#FF9315"/>
<rect x="3141.79" y="77.9834" width="4.04431" height="1.9189" fill="#FF9315"/>
<rect x="3186.48" y="110.818" width="1.49001" height="5.5435" fill="#FF9315"/>
<rect x="3186.06" y="103.994" width="3.40574" height="3.41139" fill="#FF9315"/>
<rect x="3183.08" y="110.818" width="1.49001" height="5.5435" fill="#FF9315"/>
<rect x="3189.89" y="110.818" width="1.49001" height="5.5435" fill="#FF9315"/>
<path d="M3144.45 142.479H3147.97V148.981H3144.45V142.479Z" fill="#26733D"/>
<path d="M3158.28 142.479H3161.9V148.981H3158.28V142.479Z" fill="#26733D"/>
<path d="M3152.98 117.961H3151.59V124.57H3152.98V117.961Z" fill="white"/>
<path d="M3161.69 121.302L3158.28 121.298V124.571H3161.69V121.302Z" fill="white"/>
<rect x="3333.52" y="110.37" width="4.77556" height="4.78348" fill="#111111"/>
<g opacity="0.8">
<path d="M3373.79 0H3345.25V9.56697H3340.47V19.1339H3335.7V33.4844H3359.57V57.2879H3364.35V33.4844H3378.68V14.3505H3373.79V0Z" fill="#314A46" stroke="#314A46" stroke-width="0.531525"/>
<rect x="3335.7" y="33.4834" width="4.77556" height="4.78348" fill="white"/>
<rect x="3354.8" y="33.4834" width="4.77556" height="4.78348" fill="white"/>
<rect x="3373.9" y="33.4834" width="4.77556" height="4.78348" fill="white"/>
<rect x="3373.9" y="52.8457" width="4.77556" height="9.1114" fill="white"/>
<rect x="3350.02" y="50.5684" width="4.77556" height="11.3892" fill="white"/>
<rect x="3335.7" y="57.1729" width="4.77556" height="4.78348" fill="white"/>
<rect x="3364.34" y="57.1729" width="4.77556" height="4.78348" fill="white"/>
<rect x="3354.8" y="57.1729" width="9.55112" height="4.78348" fill="#6F1E27"/>
<rect x="3369.12" y="57.1729" width="4.77556" height="4.78348" fill="#6F1E27"/>
<rect x="3378.68" y="57.1729" width="9.55112" height="4.78348" fill="#6F1E27"/>
<rect x="3388.23" y="52.8457" width="4.77556" height="4.78348" fill="#6F1E27"/>
<rect x="3364.34" y="33.4834" width="4.77556" height="8.65583" fill="white"/>
<rect x="3345.24" y="33.4834" width="4.77556" height="12.0726" fill="white"/>
<path d="M3335.7 61.957L3378.68 62.0709V95.5553H3373.87V148.06H3373.9H3378.68V190.997H3373.9V148.06H3373.87H3369.12V109.906H3364.35V100.339H3359.57V90.7718H3354.8V95.5553H3350.02V105.122H3345.25V109.906H3340.47V190.997H3335.7V61.957Z" fill="#314A46"/>
<path d="M3373.9 148.06H3373.87V95.5553H3378.68V62.0709L3335.7 61.957V190.997H3340.47V109.906H3345.25V105.122H3350.02V95.5553H3354.8V90.7718H3359.57V100.339H3364.35V109.906H3369.12V148.06H3373.9ZM3373.9 148.06H3378.68V190.997H3373.9V148.06Z" stroke="#314A46" stroke-width="0.531525"/>
<rect x="3335.15" y="66.1943" width="4.77556" height="4.78348" fill="#111111"/>
<rect x="3364.65" y="79.3232" width="4.77556" height="4.78348" fill="#111111"/>
<rect x="3369.56" y="93.5479" width="4.77556" height="4.78348" fill="#111111"/>
<rect x="3374.48" y="86.4355" width="4.77556" height="4.78348" fill="#111111"/>
<rect x="3354.81" y="71.1182" width="4.77556" height="4.78348" fill="#111111"/>
<rect x="3350.44" y="86.4355" width="4.77556" height="4.78348" fill="#111111"/>
<rect x="3369.56" y="68.3828" width="4.77556" height="4.78348" fill="#111111"/>
<rect x="3337.88" y="118.165" width="4.77556" height="4.78348" fill="#111111"/>
<rect x="3366.82" y="131.841" width="4.77556" height="4.78348" fill="#111111"/>
<rect x="3371.2" y="144.971" width="4.77556" height="4.78348" fill="#111111"/>
<rect x="3332.97" y="158.648" width="4.77556" height="4.78348" fill="#111111"/>
<rect x="3371.74" y="184.359" width="4.77556" height="4.78348" fill="#111111"/>
<rect x="3376.66" y="167.401" width="4.77556" height="4.78348" fill="#111111"/>
<rect x="3332.97" y="178.341" width="4.77556" height="4.78348" fill="#111111"/>
<rect x="3340.62" y="93.5479" width="4.77556" height="4.78348" fill="#111111"/>
<rect x="3374.48" y="63.458" width="4.77556" height="4.78348" fill="#111111"/>
<path d="M3340.07 9.2998H3344.99V14.0833H3340.07V9.2998Z" fill="#111111"/>
<rect x="3359.73" y="20.7881" width="4.77556" height="4.78348" fill="#111111"/>
<rect x="3357.54" y="45.4062" width="4.77556" height="4.78348" fill="#111111"/>
<rect x="3352.64" y="59.6289" width="4.77556" height="4.78348" fill="#111111"/>
<rect x="3381.56" y="55.2529" width="4.77556" height="4.78348" fill="#111111"/>
<rect x="3347.17" y="16.959" width="4.77556" height="4.78348" fill="#111111"/>
<rect x="3338.43" y="12.0342" width="4.77556" height="4.78348" fill="#111111"/>
<rect x="3376.66" y="31.1826" width="4.77556" height="4.78348" fill="#111111"/>
<rect x="3366.28" y="37.7471" width="4.77556" height="4.78348" fill="#111111"/>
<rect x="3352.09" y="31.1826" width="4.77556" height="4.78348" fill="#111111"/>
<path d="M3335.15 28.7207H3339.92V33.5042H3335.15V28.7207Z" fill="#111111"/>
<path d="M3369.56 4.37598H3374.34V9.15946H3369.56V4.37598Z" fill="#111111"/>
<rect x="3349.91" width="4.77556" height="4.78348" fill="#111111"/>
<rect x="3340.07" y="78.2295" width="4.77556" height="4.78348" fill="#111111"/>
<rect x="3369.56" y="103.942" width="4.77556" height="4.78348" fill="#111111"/>
</g>
<rect x="3333.61" y="111.37" width="4.77187" height="4.78348" fill="#111111"/>
<path d="M3403.85 128.301V111.031H3405.34V114.549H3409.07V117.961H3412.47V124.677H3422.8V121.3H3425.99V128.301H3422.8V142.373H3419.39V128.301H3408.85V142.373H3405.55V128.301H3403.85Z" fill="black" stroke="black" stroke-width="0.213222"/>
<path d="M3453.99 117.819V114.443H3414.08V124.464H3419.17V121.194H3422.68H3443.38V117.819H3450.17H3453.99Z" fill="#122132" stroke="#122132" stroke-width="0.213222"/>
<path d="M3453.99 107.514H3405.56V110.818H3409.29V114.336H3453.99V107.514Z" fill="#182738" stroke="#182738" stroke-width="0.213222"/>
<path d="M3401.73 100.584V96.959H3417.05V100.477L3401.73 100.584Z" fill="#26733D" stroke="#26733D" stroke-width="0.213222"/>
<path d="M3403.85 107.406V100.689H3425.99V107.205L3403.85 107.406Z" fill="#206234" stroke="#206234" stroke-width="0.213222"/>
<path d="M3403.85 110.924V107.406H3405.45V110.924H3409.17V114.442H3413.86V117.854H3409.17V114.442H3405.45V110.924H3403.85Z" fill="#26733D"/>
<path d="M3405.45 110.924H3403.85V107.406H3405.45V110.924ZM3405.45 110.924V114.442H3409.17M3405.45 110.924H3409.17V114.442M3409.17 114.442V117.854H3413.86V114.442H3409.17Z" stroke="#26733D" stroke-width="0.213222"/>
<path d="M3422.59 100.584V96.959H3427.49V100.477L3422.59 100.584Z" fill="#26733D" stroke="#26733D" stroke-width="0.213222"/>
<path d="M3430.04 72.7598H3399.28V80.1156H3393V83.3137H3436.53V80.1156H3430.04V72.7598Z" fill="#26733D" stroke="#26733D" stroke-width="0.213222"/>
<path d="M3400.88 83.4209H3428.55V96.9598H3400.88V83.4209Z" fill="black"/>
<rect x="3419.82" y="96.959" width="2.76738" height="3.6246" fill="black"/>
<rect x="3417.05" y="96.959" width="2.76738" height="3.6246" fill="black"/>
<rect x="3424.93" y="87.5791" width="2.98025" height="5.11708" fill="#FAFF15"/>
<rect x="3415.56" y="87.5791" width="2.98025" height="5.11708" fill="#FAFF15"/>
<rect x="3401.09" y="76.0645" width="1.703" height="1.9189" fill="#FF9315"/>
<rect x="3427.06" y="73.7197" width="1.703" height="1.9189" fill="#FF9315"/>
<rect x="3402.79" y="77.9834" width="4.04463" height="1.9189" fill="#FF9315"/>
<rect x="3447.49" y="110.818" width="1.49013" height="5.5435" fill="#FF9315"/>
<rect x="3447.07" y="103.994" width="3.40601" height="3.41139" fill="#FF9315"/>
<rect x="3444.09" y="110.818" width="1.49013" height="5.5435" fill="#FF9315"/>
<rect x="3450.9" y="110.818" width="1.49013" height="5.5435" fill="#FF9315"/>
<path d="M3405.45 142.479H3408.97V148.982H3405.45V142.479Z" fill="#26733D"/>
<path d="M3419.29 142.479H3422.91V148.982H3419.29V142.479Z" fill="#26733D"/>
<path d="M3413.98 117.961H3412.59V124.57H3413.98V117.961Z" fill="white"/>
<path d="M3422.7 121.302L3419.29 121.298V124.571H3422.7V121.302Z" fill="white"/>
<rect x="3594.52" y="110.371" width="4.77594" height="4.78348" fill="#111111"/>
<g opacity="0.6">
<path d="M3634.78 0H3606.24V9.56697H3601.46V19.1339H3596.69V33.4844H3620.57V57.2879H3625.34V33.4844H3639.67V14.3505H3634.78V0Z" fill="#314A46" stroke="#314A46" stroke-width="0.531525"/>
<rect x="3596.69" y="33.4834" width="4.77594" height="4.78348" fill="white"/>
<rect x="3615.79" y="33.4834" width="4.77594" height="4.78348" fill="white"/>
<rect x="3634.89" y="33.4834" width="4.77594" height="4.78348" fill="white"/>
<rect x="3634.89" y="52.8457" width="4.77594" height="9.1114" fill="white"/>
<rect x="3611.02" y="50.5684" width="4.77594" height="11.3892" fill="white"/>
<rect x="3596.69" y="57.1729" width="4.77594" height="4.78348" fill="white"/>
<rect x="3625.34" y="57.1729" width="4.77594" height="4.78348" fill="white"/>
<rect x="3615.79" y="57.1729" width="9.55188" height="4.78348" fill="#6F1E27"/>
<rect x="3630.12" y="57.1729" width="4.77594" height="4.78348" fill="#6F1E27"/>
<rect x="3639.68" y="57.1729" width="9.55188" height="4.78348" fill="#6F1E27"/>
<rect x="3649.23" y="52.8457" width="4.77594" height="4.78348" fill="#6F1E27"/>
<rect x="3625.34" y="33.4834" width="4.77594" height="8.65583" fill="white"/>
<rect x="3606.23" y="33.4834" width="4.77594" height="12.0726" fill="white"/>
<path d="M3596.69 61.957L3639.67 62.0709V95.5553H3634.86V148.06H3634.89H3639.67V190.997H3634.89V148.06H3634.86H3630.12V109.906H3625.34V100.339H3620.57V90.7718H3615.79V95.5553H3611.01V105.122H3606.24V109.906H3601.46V190.997H3596.69V61.957Z" fill="#314A46"/>
<path d="M3634.89 148.06H3634.86V95.5553H3639.67V62.0709L3596.69 61.957V190.997H3601.46V109.906H3606.24V105.122H3611.01V95.5553H3615.79V90.7718H3620.57V100.339H3625.34V109.906H3630.12V148.06H3634.89ZM3634.89 148.06H3639.67V190.997H3634.89V148.06Z" stroke="#314A46" stroke-width="0.531525"/>
<rect x="3596.14" y="66.1943" width="4.77594" height="4.78348" fill="#111111"/>
<rect x="3625.64" y="79.3232" width="4.77594" height="4.78348" fill="#111111"/>
<rect x="3630.55" y="93.5479" width="4.77594" height="4.78348" fill="#111111"/>
<rect x="3635.47" y="86.4355" width="4.77594" height="4.78348" fill="#111111"/>
<rect x="3615.8" y="71.1182" width="4.77594" height="4.78348" fill="#111111"/>
<rect x="3611.44" y="86.4355" width="4.77594" height="4.78348" fill="#111111"/>
<rect x="3630.55" y="68.3828" width="4.77594" height="4.78348" fill="#111111"/>
<rect x="3598.87" y="118.165" width="4.77594" height="4.78348" fill="#111111"/>
<rect x="3627.81" y="131.841" width="4.77594" height="4.78348" fill="#111111"/>
<rect x="3632.19" y="144.971" width="4.77594" height="4.78348" fill="#111111"/>
<rect x="3593.96" y="158.648" width="4.77594" height="4.78348" fill="#111111"/>
<rect x="3632.74" y="184.359" width="4.77594" height="4.78348" fill="#111111"/>
<rect x="3637.65" y="167.401" width="4.77594" height="4.78348" fill="#111111"/>
<rect x="3593.96" y="178.341" width="4.77594" height="4.78348" fill="#111111"/>
<rect x="3601.61" y="93.5479" width="4.77594" height="4.78348" fill="#111111"/>
<rect x="3635.47" y="63.458" width="4.77594" height="4.78348" fill="#111111"/>
<path d="M3601.06 9.2998H3605.98V14.0833H3601.06V9.2998Z" fill="#111111"/>
<rect x="3620.73" y="20.7881" width="4.77594" height="4.78348" fill="#111111"/>
<rect x="3618.53" y="45.4062" width="4.77594" height="4.78348" fill="#111111"/>
<rect x="3613.63" y="59.6289" width="4.77594" height="4.78348" fill="#111111"/>
<rect x="3642.56" y="55.2529" width="4.77594" height="4.78348" fill="#111111"/>
<rect x="3608.17" y="16.959" width="4.77594" height="4.78348" fill="#111111"/>
<rect x="3599.42" y="12.0342" width="4.77594" height="4.78348" fill="#111111"/>
<rect x="3637.65" y="31.1826" width="4.77594" height="4.78348" fill="#111111"/>
<rect x="3627.28" y="37.7471" width="4.77594" height="4.78348" fill="#111111"/>
<rect x="3613.08" y="31.1826" width="4.77594" height="4.78348" fill="#111111"/>
<path d="M3596.14 28.7207H3600.92V33.5042H3596.14V28.7207Z" fill="#111111"/>
<path d="M3630.55 4.37598H3635.33V9.15946H3630.55V4.37598Z" fill="#111111"/>
<rect x="3610.9" width="4.77594" height="4.78348" fill="#111111"/>
<rect x="3601.06" y="78.2295" width="4.77594" height="4.78348" fill="#111111"/>
<rect x="3630.55" y="103.942" width="4.77594" height="4.78348" fill="#111111"/>
</g>
<rect x="3594.43" y="111.37" width="4.77225" height="4.78348" fill="#111111"/>
<path d="M3664.85 128.301V111.031H3666.34V114.549H3670.07V117.961H3673.47V124.677H3683.8V121.3H3686.99V128.301H3683.8V142.373H3680.39V128.301H3669.85V142.373H3666.55V128.301H3664.85Z" fill="black" stroke="black" stroke-width="0.213222"/>
<path d="M3715 117.819V114.443H3675.09V124.464H3680.18V121.194H3683.68H3704.38V117.819H3711.18H3715Z" fill="#122132" stroke="#122132" stroke-width="0.213222"/>
<path d="M3715 107.514H3666.57V110.818H3670.3V114.336H3715V107.514Z" fill="#182738" stroke="#182738" stroke-width="0.213222"/>
<path d="M3662.73 100.584V96.959H3678.06V100.477L3662.73 100.584Z" fill="#26733D" stroke="#26733D" stroke-width="0.213222"/>
<path d="M3664.85 107.406V100.689H3686.99V107.205L3664.85 107.406Z" fill="#206234" stroke="#206234" stroke-width="0.213222"/>
<path d="M3664.85 110.924V107.406H3666.45V110.924H3670.17V114.442H3674.86V117.854H3670.17V114.442H3666.45V110.924H3664.85Z" fill="#26733D"/>
<path d="M3666.45 110.924H3664.85V107.406H3666.45V110.924ZM3666.45 110.924V114.442H3670.17M3666.45 110.924H3670.17V114.442M3670.17 114.442V117.854H3674.86V114.442H3670.17Z" stroke="#26733D" stroke-width="0.213222"/>
<path d="M3683.59 100.584V96.959H3688.49V100.477L3683.59 100.584Z" fill="#26733D" stroke="#26733D" stroke-width="0.213222"/>
<path d="M3691.05 72.7598H3660.29V80.1156H3654.01V83.3137H3697.54V80.1156H3691.05V72.7598Z" fill="#26733D" stroke="#26733D" stroke-width="0.213222"/>
<path d="M3661.88 83.4209H3689.55V96.9598H3661.88V83.4209Z" fill="black"/>
<rect x="3680.82" y="96.959" width="2.76717" height="3.6246" fill="black"/>
<rect x="3678.05" y="96.959" width="2.76717" height="3.6246" fill="black"/>
<rect x="3685.94" y="87.5791" width="2.98003" height="5.11708" fill="#FAFF15"/>
<rect x="3676.57" y="87.5791" width="2.98003" height="5.11708" fill="#FAFF15"/>
<rect x="3662.09" y="76.0645" width="1.70287" height="1.9189" fill="#FF9315"/>
<rect x="3688.07" y="73.7197" width="1.70287" height="1.9189" fill="#FF9315"/>
<rect x="3663.8" y="77.9834" width="4.04433" height="1.9189" fill="#FF9315"/>
<rect x="3708.49" y="110.818" width="1.49002" height="5.5435" fill="#FF9315"/>
<rect x="3708.07" y="103.994" width="3.40575" height="3.41139" fill="#FF9315"/>
<rect x="3705.09" y="110.818" width="1.49002" height="5.5435" fill="#FF9315"/>
<rect x="3711.9" y="110.818" width="1.49002" height="5.5435" fill="#FF9315"/>
<path d="M3666.46 142.479H3669.97V148.982H3666.46V142.479Z" fill="#26733D"/>
<path d="M3680.29 142.479H3683.91V148.982H3680.29V142.479Z" fill="#26733D"/>
<path d="M3674.99 117.961H3673.6V124.57H3674.99V117.961Z" fill="white"/>
<path d="M3683.69 121.302L3680.29 121.298V124.571H3683.69V121.302Z" fill="white"/>
<rect x="3855.54" y="110.371" width="4.77558" height="4.78348" fill="#111111"/>
<g opacity="0.4">
<path d="M3895.79 0H3867.25V9.56697H3862.47V19.1339H3857.7V33.4844H3881.57V57.2879H3886.35V33.4844H3900.68V14.3505H3895.79V0Z" fill="#314A46" stroke="#314A46" stroke-width="0.531525"/>
<rect x="3857.7" y="33.4834" width="4.77558" height="4.78348" fill="white"/>
<rect x="3876.8" y="33.4834" width="4.77558" height="4.78348" fill="white"/>
<rect x="3895.9" y="33.4834" width="4.77558" height="4.78348" fill="white"/>
<rect x="3895.9" y="52.8457" width="4.77558" height="9.1114" fill="white"/>
<rect x="3872.02" y="50.5684" width="4.77558" height="11.3892" fill="white"/>
<rect x="3857.7" y="57.1729" width="4.77558" height="4.78348" fill="white"/>
<rect x="3886.34" y="57.1729" width="4.77558" height="4.78348" fill="white"/>
<rect x="3876.8" y="57.1729" width="9.55116" height="4.78348" fill="#6F1E27"/>
<rect x="3891.12" y="57.1729" width="4.77558" height="4.78348" fill="#6F1E27"/>
<rect x="3900.68" y="57.1729" width="9.55116" height="4.78348" fill="#6F1E27"/>
<rect x="3910.23" y="52.8457" width="4.77558" height="4.78348" fill="#6F1E27"/>
<rect x="3886.34" y="33.4834" width="4.77558" height="8.65583" fill="white"/>
<rect x="3867.24" y="33.4834" width="4.77558" height="12.0726" fill="white"/>
<path d="M3857.7 61.957L3900.68 62.0709V95.5553H3895.87V148.06H3895.9H3900.68V190.997H3895.9V148.06H3895.87H3891.13V109.906H3886.35V100.339H3881.57V90.7718H3876.8V95.5553H3872.02V105.122H3867.25V109.906H3862.47V190.997H3857.7V61.957Z" fill="#314A46"/>
<path d="M3895.9 148.06H3895.87V95.5553H3900.68V62.0709L3857.7 61.957V190.997H3862.47V109.906H3867.25V105.122H3872.02V95.5553H3876.8V90.7718H3881.57V100.339H3886.35V109.906H3891.13V148.06H3895.9ZM3895.9 148.06H3900.68V190.997H3895.9V148.06Z" stroke="#314A46" stroke-width="0.531525"/>
<rect x="3857.15" y="66.1943" width="4.77558" height="4.78348" fill="#111111"/>
<rect x="3886.65" y="79.3232" width="4.77558" height="4.78348" fill="#111111"/>
<rect x="3891.56" y="93.5479" width="4.77558" height="4.78348" fill="#111111"/>
<rect x="3896.48" y="86.4355" width="4.77558" height="4.78348" fill="#111111"/>
<rect x="3876.81" y="71.1182" width="4.77558" height="4.78348" fill="#111111"/>
<rect x="3872.44" y="86.4355" width="4.77558" height="4.78348" fill="#111111"/>
<rect x="3891.56" y="68.3828" width="4.77558" height="4.78348" fill="#111111"/>
<rect x="3859.88" y="118.165" width="4.77558" height="4.78348" fill="#111111"/>
<rect x="3888.82" y="131.841" width="4.77558" height="4.78348" fill="#111111"/>
<rect x="3893.2" y="144.971" width="4.77558" height="4.78348" fill="#111111"/>
<rect x="3854.97" y="158.648" width="4.77558" height="4.78348" fill="#111111"/>
<rect x="3893.74" y="184.359" width="4.77558" height="4.78348" fill="#111111"/>
<rect x="3898.66" y="167.401" width="4.77558" height="4.78348" fill="#111111"/>
<rect x="3854.97" y="178.341" width="4.77558" height="4.78348" fill="#111111"/>
<rect x="3862.62" y="93.5479" width="4.77558" height="4.78348" fill="#111111"/>
<rect x="3896.48" y="63.458" width="4.77558" height="4.78348" fill="#111111"/>
<path d="M3862.07 9.2998H3866.99V14.0833H3862.07V9.2998Z" fill="#111111"/>
<rect x="3881.73" y="20.7881" width="4.77558" height="4.78348" fill="#111111"/>
<rect x="3879.54" y="45.4062" width="4.77558" height="4.78348" fill="#111111"/>
<rect x="3874.64" y="59.6289" width="4.77558" height="4.78348" fill="#111111"/>
<rect x="3903.56" y="55.2529" width="4.77558" height="4.78348" fill="#111111"/>
<rect x="3869.17" y="16.959" width="4.77558" height="4.78348" fill="#111111"/>
<rect x="3860.43" y="12.0342" width="4.77558" height="4.78348" fill="#111111"/>
<rect x="3898.66" y="31.1826" width="4.77558" height="4.78348" fill="#111111"/>
<rect x="3888.28" y="37.7471" width="4.77558" height="4.78348" fill="#111111"/>
<rect x="3874.09" y="31.1826" width="4.77558" height="4.78348" fill="#111111"/>
<path d="M3857.15 28.7207H3861.92V33.5042H3857.15V28.7207Z" fill="#111111"/>
<path d="M3891.56 4.37598H3896.34V9.15946H3891.56V4.37598Z" fill="#111111"/>
<rect x="3871.91" width="4.77558" height="4.78348" fill="#111111"/>
<rect x="3862.07" y="78.2295" width="4.77558" height="4.78348" fill="#111111"/>
<rect x="3891.56" y="103.942" width="4.77558" height="4.78348" fill="#111111"/>
</g>
<rect x="3855.28" y="111.37" width="4.77189" height="4.78348" fill="#111111"/>
<path d="M3925.85 128.301V111.031H3927.34V114.549H3931.07V117.961H3934.47V124.677H3944.79V121.3H3947.99V128.301H3944.79V142.373H3941.39V128.301H3930.85V142.373H3927.55V128.301H3925.85Z" fill="black" stroke="black" stroke-width="0.213222"/>
<path d="M3975.99 117.819V114.443H3936.09V124.464H3941.18V121.194H3944.68H3965.38V117.819H3972.17H3975.99Z" fill="#122132" stroke="#122132" stroke-width="0.213222"/>
<path d="M3975.99 107.514H3927.57V110.818H3931.3V114.336H3975.99V107.514Z" fill="#182738" stroke="#182738" stroke-width="0.213222"/>
<path d="M3923.73 100.584V96.959H3939.06V100.477L3923.73 100.584Z" fill="#26733D" stroke="#26733D" stroke-width="0.213222"/>
<path d="M3925.85 107.406V100.689H3947.99V107.205L3925.85 107.406Z" fill="#206234" stroke="#206234" stroke-width="0.213222"/>
<path d="M3925.85 110.924V107.406H3927.45V110.924H3931.17V114.442H3935.86V117.854H3931.17V114.442H3927.45V110.924H3925.85Z" fill="#26733D"/>
<path d="M3927.45 110.924H3925.85V107.406H3927.45V110.924ZM3927.45 110.924V114.442H3931.17M3927.45 110.924H3931.17V114.442M3931.17 114.442V117.854H3935.86V114.442H3931.17Z" stroke="#26733D" stroke-width="0.213222"/>
<path d="M3944.59 100.584V96.959H3949.49V100.477L3944.59 100.584Z" fill="#26733D" stroke="#26733D" stroke-width="0.213222"/>
<path d="M3952.04 72.7598H3921.29V80.1156H3915.01V83.3137H3958.53V80.1156H3952.04V72.7598Z" fill="#26733D" stroke="#26733D" stroke-width="0.213222"/>
<path d="M3922.88 83.4209H3950.54V96.9598H3922.88V83.4209Z" fill="black"/>
<rect x="3941.82" y="96.959" width="2.76694" height="3.6246" fill="black"/>
<rect x="3939.05" y="96.959" width="2.76694" height="3.6246" fill="black"/>
<rect x="3946.93" y="87.5791" width="2.97978" height="5.11708" fill="#FAFF15"/>
<rect x="3937.56" y="87.5791" width="2.97978" height="5.11708" fill="#FAFF15"/>
<rect x="3923.09" y="76.0645" width="1.70273" height="1.9189" fill="#FF9315"/>
<rect x="3949.07" y="73.7197" width="1.70273" height="1.9189" fill="#FF9315"/>
<rect x="3924.8" y="77.9834" width="4.04399" height="1.9189" fill="#FF9315"/>
<rect x="3969.49" y="110.818" width="1.48989" height="5.5435" fill="#FF9315"/>
<rect x="3969.07" y="103.994" width="3.40547" height="3.41139" fill="#FF9315"/>
<rect x="3966.09" y="110.818" width="1.48989" height="5.5435" fill="#FF9315"/>
<rect x="3972.9" y="110.818" width="1.48989" height="5.5435" fill="#FF9315"/>
<path d="M3927.46 142.479H3930.97V148.982H3927.46V142.479Z" fill="#26733D"/>
<path d="M3941.29 142.479H3944.91V148.982H3941.29V142.479Z" fill="#26733D"/>
<path d="M3935.98 117.961H3934.59V124.57H3935.98V117.961Z" fill="white"/>
<path d="M3944.69 121.302L3941.29 121.298V124.571H3944.69V121.302Z" fill="white"/>
<rect x="4116.52" y="110.371" width="4.77518" height="4.78348" fill="#111111"/>
<g opacity="0.2">
<path d="M4156.79 0H4128.25V9.56697H4123.48V19.1339H4118.7V33.4844H4142.58V57.2879H4147.35V33.4844H4161.68V14.3505H4156.79V0Z" fill="#314A46" stroke="#314A46" stroke-width="0.531525"/>
<rect x="4118.7" y="33.4834" width="4.77518" height="4.78348" fill="white"/>
<rect x="4137.8" y="33.4834" width="4.77518" height="4.78348" fill="white"/>
<rect x="4156.9" y="33.4834" width="4.77518" height="4.78348" fill="white"/>
<rect x="4156.9" y="52.8457" width="4.77518" height="9.1114" fill="white"/>
<rect x="4133.02" y="50.5684" width="4.77518" height="11.3892" fill="white"/>
<rect x="4118.7" y="57.1729" width="4.77518" height="4.78348" fill="white"/>
<rect x="4147.35" y="57.1729" width="4.77518" height="4.78348" fill="white"/>
<rect x="4137.8" y="57.1729" width="9.55037" height="4.78348" fill="#6F1E27"/>
<rect x="4152.13" y="57.1729" width="4.77518" height="4.78348" fill="#6F1E27"/>
<rect x="4161.69" y="57.1729" width="9.55037" height="4.78348" fill="#6F1E27"/>
<rect x="4171.23" y="52.8457" width="4.77518" height="4.78348" fill="#6F1E27"/>
<rect x="4147.35" y="33.4834" width="4.77518" height="8.65583" fill="white"/>
<rect x="4128.25" y="33.4834" width="4.77518" height="12.0726" fill="white"/>
<path d="M4118.7 61.957L4161.68 62.0709V95.5553H4156.87V148.06H4156.9H4161.68V190.997H4156.9V148.06H4156.87H4152.13V109.906H4147.35V100.339H4142.58V90.7718H4137.8V95.5553H4133.03V105.122H4128.25V109.906H4123.48V190.997H4118.7V61.957Z" fill="#314A46"/>
<path d="M4156.9 148.06H4156.87V95.5553H4161.68V62.0709L4118.7 61.957V190.997H4123.48V109.906H4128.25V105.122H4133.03V95.5553H4137.8V90.7718H4142.58V100.339H4147.35V109.906H4152.13V148.06H4156.9ZM4156.9 148.06H4161.68V190.997H4156.9V148.06Z" stroke="#314A46" stroke-width="0.531525"/>
<rect x="4118.16" y="66.1943" width="4.77518" height="4.78348" fill="#111111"/>
<rect x="4147.65" y="79.3232" width="4.77518" height="4.78348" fill="#111111"/>
<rect x="4152.57" y="93.5479" width="4.77518" height="4.78348" fill="#111111"/>
<rect x="4157.48" y="86.4355" width="4.77518" height="4.78348" fill="#111111"/>
<rect x="4137.82" y="71.1182" width="4.77518" height="4.78348" fill="#111111"/>
<rect x="4133.45" y="86.4355" width="4.77518" height="4.78348" fill="#111111"/>
<rect x="4152.57" y="68.3828" width="4.77518" height="4.78348" fill="#111111"/>
<rect x="4120.88" y="118.165" width="4.77518" height="4.78348" fill="#111111"/>
<rect x="4149.83" y="131.841" width="4.77518" height="4.78348" fill="#111111"/>
<rect x="4154.2" y="144.971" width="4.77518" height="4.78348" fill="#111111"/>
<rect x="4115.98" y="158.648" width="4.77518" height="4.78348" fill="#111111"/>
<rect x="4154.75" y="184.359" width="4.77518" height="4.78348" fill="#111111"/>
<rect x="4159.66" y="167.401" width="4.77518" height="4.78348" fill="#111111"/>
<rect x="4115.98" y="178.341" width="4.77518" height="4.78348" fill="#111111"/>
<rect x="4123.62" y="93.5479" width="4.77518" height="4.78348" fill="#111111"/>
<rect x="4157.48" y="63.458" width="4.77518" height="4.78348" fill="#111111"/>
<path d="M4123.08 9.2998H4127.99V14.0833H4123.08V9.2998Z" fill="#111111"/>
<rect x="4142.73" y="20.7881" width="4.77518" height="4.78348" fill="#111111"/>
<rect x="4140.55" y="45.4062" width="4.77518" height="4.78348" fill="#111111"/>
<rect x="4135.64" y="59.6289" width="4.77518" height="4.78348" fill="#111111"/>
<rect x="4164.57" y="55.2529" width="4.77518" height="4.78348" fill="#111111"/>
<rect x="4130.18" y="16.959" width="4.77518" height="4.78348" fill="#111111"/>
<rect x="4121.44" y="12.0342" width="4.77518" height="4.78348" fill="#111111"/>
<rect x="4159.66" y="31.1826" width="4.77518" height="4.78348" fill="#111111"/>
<rect x="4149.29" y="37.7471" width="4.77518" height="4.78348" fill="#111111"/>
<rect x="4135.09" y="31.1826" width="4.77518" height="4.78348" fill="#111111"/>
<path d="M4118.16 28.7207H4122.93V33.5042H4118.16V28.7207Z" fill="#111111"/>
<path d="M4152.57 4.37598H4157.35V9.15946H4152.57V4.37598Z" fill="#111111"/>
<rect x="4132.91" width="4.77518" height="4.78348" fill="#111111"/>
<rect x="4123.08" y="78.2295" width="4.77518" height="4.78348" fill="#111111"/>
<rect x="4152.57" y="103.942" width="4.77518" height="4.78348" fill="#111111"/>
</g>
<rect x="4116.09" y="111.37" width="4.77149" height="4.78348" fill="#111111"/>
<path d="M4186.86 128.301V111.031H4188.35V114.549H4192.07V117.961H4195.48V124.677H4205.81V121.3H4209V128.301H4205.81V142.373H4202.4V128.301H4191.86V142.373H4188.56V128.301H4186.86Z" fill="black" stroke="black" stroke-width="0.213222"/>
<path d="M4237 117.819V114.443H4197.09V124.464H4202.18V121.194H4205.68H4226.38V117.819H4233.18H4237Z" fill="#122132" stroke="#122132" stroke-width="0.213222"/>
<path d="M4237 107.514H4188.57V110.818H4192.3V114.336H4237V107.514Z" fill="#182738" stroke="#182738" stroke-width="0.213222"/>
<path d="M4184.73 100.584V96.959H4200.06V100.477L4184.73 100.584Z" fill="#26733D" stroke="#26733D" stroke-width="0.213222"/>
<path d="M4186.86 107.406V100.689H4209V107.205L4186.86 107.406Z" fill="#206234" stroke="#206234" stroke-width="0.213222"/>
<path d="M4186.86 110.924V107.406H4188.46V110.924H4192.18V114.442H4196.86V117.854H4192.18V114.442H4188.46V110.924H4186.86Z" fill="#26733D"/>
<path d="M4188.46 110.924H4186.86V107.406H4188.46V110.924ZM4188.46 110.924V114.442H4192.18M4188.46 110.924H4192.18V114.442M4192.18 114.442V117.854H4196.86V114.442H4192.18Z" stroke="#26733D" stroke-width="0.213222"/>
<path d="M4205.6 100.584V96.959H4210.5V100.477L4205.6 100.584Z" fill="#26733D" stroke="#26733D" stroke-width="0.213222"/>
<path d="M4213.05 72.7598H4182.29V80.1156H4176.01V83.3137H4219.54V80.1156H4213.05V72.7598Z" fill="#26733D" stroke="#26733D" stroke-width="0.213222"/>
<path d="M4183.88 83.4209H4211.56V96.9598H4183.88V83.4209Z" fill="black"/>
<rect x="4202.83" y="96.959" width="2.76739" height="3.6246" fill="black"/>
<rect x="4200.05" y="96.959" width="2.76739" height="3.6246" fill="black"/>
<rect x="4207.94" y="87.5791" width="2.98026" height="5.11708" fill="#FAFF15"/>
<rect x="4198.57" y="87.5791" width="2.98026" height="5.11708" fill="#FAFF15"/>
<rect x="4184.09" y="76.0645" width="1.70301" height="1.9189" fill="#FF9315"/>
<rect x="4210.07" y="73.7197" width="1.70301" height="1.9189" fill="#FF9315"/>
<rect x="4185.8" y="77.9834" width="4.04464" height="1.9189" fill="#FF9315"/>
<rect x="4230.5" y="110.818" width="1.49013" height="5.5435" fill="#FF9315"/>
<rect x="4230.08" y="103.994" width="3.40601" height="3.41139" fill="#FF9315"/>
<rect x="4227.09" y="110.818" width="1.49013" height="5.5435" fill="#FF9315"/>
<rect x="4233.91" y="110.818" width="1.49013" height="5.5435" fill="#FF9315"/>
<path d="M4188.46 142.479H4191.97V148.982H4188.46V142.479Z" fill="#26733D"/>
<path d="M4202.3 142.479H4205.92V148.982H4202.3V142.479Z" fill="#26733D"/>
<path d="M4196.99 117.961H4195.6V124.57H4196.99V117.961Z" fill="white"/>
<path d="M4205.7 121.302L4202.3 121.298V124.571H4205.7V121.302Z" fill="white"/>
<rect x="4377.52" y="110.371" width="4.77595" height="4.78348" fill="#111111"/>
</g>
<defs>
<clipPath id="clip0_437_18634">
<rect width="4437.01" height="191" fill="white"/>
</clipPath>
</defs>
</svg>
