<svg width="274" height="213" viewBox="0 0 274 213" fill="none" xmlns="http://www.w3.org/2000/svg">
<g clip-path="url(#clip0_369_4499)">
<rect width="272.426" height="212.353" transform="translate(0.917969 0.32373)" fill="#191919"/>
<path fill-rule="evenodd" clip-rule="evenodd" d="M279.343 102.761H271.152V111.775H263.776V102.761H248.205V142.093H271.967V138.816H279.343V142.093H285.902V108.497H279.343V102.761Z" fill="#A80000"/>
<path fill-rule="evenodd" clip-rule="evenodd" d="M36.0697 118.742L18.8368 118.742L18.837 126.694L13.5314 126.694L13.5316 135.973L24.1364 135.973L24.1363 130.671L29.4403 130.671L29.4406 142.6L24.1385 142.6L24.1387 153.204L18.8406 153.204L18.8408 159.832L13.5352 159.832L13.5353 166.459L6.90432 166.459L6.90444 171.76L1.60646 171.76L1.60659 177.062L-3.69898 177.062L-3.69886 182.364L-10.326 182.364L-10.3259 188.991L-15.6315 188.991L-15.6312 199.595L-20.9293 199.595L-20.9289 216.827L-27.5602 216.827L-27.5592 257.917L-20.928 257.917L-20.9276 273.822L-15.6295 273.822L-15.6292 287.076L-10.3236 287.076L-10.3235 291.053L-3.69631 291.053L-3.69616 297.68L6.90754 297.68L6.90768 303.645L18.1753 303.645L18.1754 308.947L30.1059 308.947L30.106 314.249L42.0365 314.249L42.0366 320.214L52.6414 320.214L52.6417 331.48L59.9325 331.48L59.9327 336.782L65.2351 336.782L65.2352 342.747L69.212 342.747L69.2122 349.374L75.8402 349.374L75.8403 354.676L81.8056 354.676L81.8057 359.978L88.4337 359.978L88.4339 365.943L99.0387 365.943L99.0388 371.907L110.306 371.907L110.307 377.209L116.272 377.209L116.272 395.103L110.307 395.103L110.307 407.032L104.342 407.032L104.342 418.299L98.3771 418.299L98.3779 452.098L104.343 452.098L104.344 475.957L98.3785 475.957L98.3796 526.325L104.345 526.325L104.345 532.29L110.31 532.29L110.31 538.917L114.95 538.917L114.95 544.219L127.543 544.219L127.544 550.184L138.811 550.184L138.811 538.917L126.88 538.917L126.88 532.29L121.578 532.29L121.578 528.313L114.95 528.313L114.949 515.721L121.577 515.721L121.577 509.757L144.113 509.757L144.113 504.455L150.078 504.455L150.078 498.49L156.706 498.49L156.706 503.792L173.276 503.792L173.276 509.757L185.206 509.757L185.207 515.721L190.509 515.721L190.509 521.686L196.474 521.686L196.475 532.29L202.44 532.29L202.44 556.811L196.475 556.811L196.476 573.379L190.51 573.379L190.51 578.019L179.243 578.019L179.243 584.646L166.65 584.646L166.65 590.611L156.708 590.611L156.708 596.575L150.743 596.575L150.743 603.203L144.778 603.203L144.778 625.736L150.743 625.736L150.743 629.712L166.651 629.712L166.65 619.108L161.348 619.108L161.348 613.144L166.65 613.144L166.65 607.179L173.278 607.179L173.278 603.203L197.802 603.203L197.802 595.913L207.744 595.913L207.744 589.285L213.046 589.285L213.046 584.646L219.011 584.646L219.011 573.379L224.976 573.379L224.976 561.45L230.941 561.45L230.941 544.219L236.906 544.219L236.905 510.419L230.94 510.419L230.939 492.525L224.974 492.525L224.974 482.584L219.009 482.584L219.008 464.028L224.973 464.028L224.972 418.962L219.007 418.962L219.007 407.032L213.042 407.032L213.041 395.766L207.076 395.766L207.076 389.801L201.774 389.801L201.774 384.499L195.808 384.499L195.808 378.535L189.843 378.535L189.843 365.943L195.808 365.943L195.808 354.676L201.773 354.676L201.773 348.711L207.075 348.711L207.075 342.747L213.04 342.747L213.04 338.77L219.005 338.77L219.005 332.143L224.97 332.143L224.97 319.551L229.61 319.551L229.609 302.982L236.237 302.982L236.236 257.254L230.271 257.254L230.271 245.324L236.899 245.324L236.899 239.36L242.201 239.36L242.201 234.058L248.166 234.058L248.166 211.525L242.2 211.525L242.2 205.56L236.898 205.56L236.898 198.933L230.932 198.933L230.932 194.294L219.002 194.294L219.002 183.027L225.63 183.027L225.63 177.062L231.595 177.062L231.594 159.831L219.001 159.831L219.001 171.098L213.036 171.098L213.036 177.062L207.734 177.062L207.734 183.027L203.094 183.027L203.095 205.56L208.397 205.56L208.397 211.525L207.735 211.525L201.769 211.525L201.769 206.223L195.804 206.223L195.804 198.933L189.839 198.933L189.839 194.294L179.234 194.294L179.234 188.329L161.338 188.329L161.338 183.027L115.604 183.027L115.605 188.329L98.3717 188.329L98.3718 192.968L87.767 192.968L87.7671 198.933L81.1391 198.933L81.1392 204.897L75.8368 204.897L75.837 212.187L70.5346 212.187L70.5347 217.489L64.5695 217.489L64.5696 222.791L58.6044 222.791L58.6045 228.756L52.6393 228.756L52.6396 240.685L47.3372 240.685L47.3373 247.313L42.0349 247.313L42.035 251.289L23.4765 251.289L23.4764 247.313L17.5112 247.313L17.511 240.685L12.2086 240.685L12.2083 228.756L6.90706 228.756L6.90651 204.897L12.2121 204.897L12.2117 188.992L17.5097 188.992L17.5096 183.69L24.1406 183.69L24.1404 177.063L29.446 177.063L29.4459 170.435L36.0696 170.435L36.0693 159.831L41.3714 159.831L41.3712 149.227L47.9981 149.227L47.9976 130.671L41.3707 130.671L41.3706 124.044L36.0698 124.044L36.0697 118.742Z" fill="black"/>
</g>
<defs>
<clipPath id="clip0_369_4499">
<rect width="272.426" height="212.353" fill="white" transform="translate(0.917969 0.32373)"/>
</clipPath>
</defs>
</svg>
