<svg width="279" height="213" viewBox="0 0 279 213" fill="none" xmlns="http://www.w3.org/2000/svg">
<g clip-path="url(#clip0_369_3435)">
<rect width="278.946" height="212.353" transform="translate(0 0.646973)" fill="#191919"/>
<path fill-rule="evenodd" clip-rule="evenodd" d="M223.319 181.423H208.562V174.868H202.832V157.66H209.387V150.285H202.832V143.73H233.972V151.105H242.168V181.423H233.972V172.41H223.319V181.423Z" fill="#A80000"/>
<path fill-rule="evenodd" clip-rule="evenodd" d="M313.574 -93.1047L296.341 -93.1047L296.341 -85.152L291.035 -85.152L291.036 -75.8737L301.64 -75.8737L301.64 -81.1755L306.944 -81.1755L306.944 -69.2464L301.642 -69.2464L301.643 -58.6424L296.345 -58.6424L296.345 -52.0146L291.039 -52.0146L291.039 -45.3873L284.408 -45.3873L284.408 -40.0863L279.11 -40.0863L279.11 -34.7842L273.801 -34.7842L273.801 -29.4826L267.178 -29.4826L267.178 -22.8553L261.872 -22.8553L261.873 -12.251L256.575 -12.251L256.575 4.98052L249.944 4.98052L249.945 46.0703L256.576 46.0703L256.576 61.9756L261.874 61.9756L261.875 75.2299L267.18 75.2299L267.18 79.2064L273.804 79.2064L273.804 85.834L284.409 85.834L284.407 -6.94946L289.716 -6.94946L289.716 -22.8542L295.014 -22.8542L295.013 -28.156L301.644 -28.156L301.644 -34.7838L306.95 -34.7838L306.95 -41.4114L313.573 -41.4114L313.573 -52.015L318.875 -52.015L318.875 -62.6191L325.502 -62.6191L325.502 -81.1758L318.875 -81.1758L318.874 -87.8028L313.574 -87.8028L313.574 -93.1047ZM284.41 16.9094L289.712 16.9094L289.713 28.8387L295.015 28.8387L295.015 35.4661L300.98 35.4661L300.98 39.4425L319.539 39.4425L319.539 35.4661L324.841 35.4661L324.841 28.8387L330.143 28.8387L330.143 16.9094L336.108 16.9094L336.108 10.9448L342.074 10.9448L342.073 5.64288L348.039 5.64288L348.038 0.340981L353.341 0.340981L353.341 -6.94913L358.643 -6.94913L358.643 -12.9138L365.271 -12.9138L365.271 -18.8784L375.876 -18.8784L375.876 -23.5176L393.109 -23.5176L393.108 -28.8195L438.842 -28.8195L438.842 -23.5176L456.738 -23.5176L456.738 -17.5529L467.343 -17.5529L467.343 -12.9138L473.308 -12.9138L473.308 -5.62366L479.273 -5.62366L479.273 -0.321754L485.239 -0.321754L485.901 -0.321754L485.901 -6.2864L480.599 -6.2864L480.598 -28.8195L485.238 -28.8195L485.238 -34.7841L490.54 -34.7841L490.54 -40.7488L496.505 -40.7488L496.505 -52.0153L509.098 -52.0153L509.099 -34.7841L503.133 -34.7841L503.134 -28.8195L496.506 -28.8195L496.506 -17.5529L508.436 -17.5529L508.436 -12.9138L514.402 -12.9138L514.402 -6.2864L519.704 -6.2864L519.704 -0.321754L525.67 -0.321754L525.67 22.2113L519.705 22.2113L519.705 27.5132L514.403 27.5132L514.403 33.4779L507.775 33.4779L507.775 45.4071L513.74 45.4071L513.741 91.136L507.113 91.136L507.114 107.704L502.474 107.704L502.474 120.296L496.509 120.296L496.509 126.924L490.544 126.924L490.544 130.9L484.579 130.9L484.579 136.865L479.277 136.865L479.277 142.83L473.311 142.83L473.312 154.096L467.347 154.096L467.347 166.688L473.312 166.688L473.312 172.653L479.277 172.653L479.278 177.955L484.58 177.955L484.58 183.919L490.545 183.919L490.546 195.186L496.511 195.186L496.511 207.115L502.476 207.115L502.477 252.181L496.512 252.181L496.513 270.738L502.478 270.738L502.478 280.679L508.443 280.679L508.444 298.573L514.409 298.573L514.41 332.373L508.444 332.373L508.445 349.604L502.48 349.604L502.48 361.533L496.515 361.533L496.515 372.8L490.55 372.8L490.55 377.439L485.247 377.439L485.248 384.066L475.306 384.066L475.306 391.356L450.782 391.356L450.782 395.333L444.154 395.333L444.154 401.297L438.852 401.297L438.852 407.262L444.154 407.262L444.155 417.866L428.247 417.866L428.247 413.889L422.282 413.889L422.282 391.356L428.247 391.356L428.247 384.729L434.212 384.729L434.212 378.764L444.154 378.764L444.154 372.8L456.747 372.8L456.747 366.172L468.014 366.172L468.014 361.533L473.979 361.533L473.979 344.965L479.944 344.965L479.944 320.443L473.978 320.443L473.978 309.839L468.013 309.839L468.013 303.875L462.71 303.875L462.71 297.91L450.78 297.91L450.78 291.946L434.21 291.946L434.21 286.644L427.581 286.644L427.582 292.608L421.616 292.608L421.617 297.91L399.081 297.91L399.081 303.875L392.453 303.875L392.454 316.467L399.082 316.467L399.082 320.443L404.384 320.443L404.384 327.071L416.315 327.071L416.315 338.337L405.047 338.337L405.047 332.373L392.454 332.373L392.454 327.071L387.814 327.071L387.814 320.443L381.849 320.443L381.849 314.479L375.884 314.479L375.882 264.111L381.848 264.111L381.847 240.252L375.882 240.252L375.881 206.452L381.846 206.452L381.846 195.186L387.811 195.186L387.811 183.257L393.776 183.257L393.776 165.363L387.811 165.363L387.81 160.061L376.543 160.061L376.543 154.096L365.938 154.096L365.938 148.131L359.31 148.131L359.309 142.83L353.344 142.83L353.344 137.528L346.716 137.528L346.716 130.9L342.739 130.9L342.739 124.936L337.437 124.936L337.436 119.634L330.146 119.634L330.145 108.367L319.541 108.367L319.54 102.403L307.61 102.403L307.61 97.1007L295.679 97.1007L295.679 91.7988L284.412 91.7988L284.41 16.9094Z" fill="black"/>
<path d="M401.478 261.16L401.092 255.213L382.118 232.942L382.566 239.847L371.631 240.557L372.004 246.311L365.482 246.734L365.806 251.722L359.667 252.12L360.09 258.642L354.143 259.028L354.417 263.248L350.005 263.534L350.179 266.22L343.465 266.655L343.826 272.218L331.165 273.039L331.563 279.178L314.106 280.31L313.708 274.171L306.994 274.607L306.186 262.138L312.9 261.702L312.477 255.18L336.264 253.638L335.94 248.65L347.066 247.929L346.693 242.174L353.024 241.763L352.576 234.857L358.523 234.472L357.416 217.399L351.469 217.784L351.046 211.262L344.715 211.673L344.417 207.069L337.127 207.541L337.426 212.145L333.589 212.394L334.448 225.63L321.595 226.464L321.981 232.411L311.046 233.12L310.225 220.459L327.682 219.327L327.259 212.804L328.793 212.705L328.495 208.101L333.291 207.79L332.843 200.884L338.981 200.486L337.464 177.083L331.325 177.481L330.517 165.012L317.664 165.845L317.303 160.282L299.847 161.414L300.033 164.292L289.291 164.988L289.888 174.196L277.227 175.017L275.958 155.45L280.946 155.127L280.635 150.331L299.051 149.137L298.677 143.382L305.2 142.959L304.478 131.833L292.777 132.592L293.1 137.579L274.876 138.761L275.274 144.9L263.956 145.634L264.329 151.388L257.999 151.799L258.795 164.076L252.656 164.474L253.739 181.163L259.877 180.765L260.3 187.288L272.002 186.529L272.412 192.859L301.762 190.956L301.352 184.626L307.874 184.203L307.451 177.68L313.398 177.295L314.231 190.148L308.285 190.533L308.695 196.864L296.993 197.622L297.354 203.185L291.024 203.596L291.82 215.873L285.681 216.271L287.609 246.005L281.279 246.415L281.652 252.17L275.13 252.593L276.685 276.572L283.207 276.149L283.904 286.892L290.234 286.481L290.682 293.387L296.82 292.989L297.206 298.936L308.524 298.202L308.835 302.998L339.336 301.02L339.025 296.224L352.07 295.378L351.896 292.693L358.034 292.294L357.736 287.691L368.094 287.019L367.734 281.456L378.668 280.747L378.37 276.143L384.892 275.72L384.494 269.581L390.44 269.196L389.968 261.906L401.478 261.16Z" fill="black" stroke="black" stroke-width="0.409749"/>
</g>
<defs>
<clipPath id="clip0_369_3435">
<rect width="278.946" height="212.353" fill="white" transform="translate(0 0.646973)"/>
</clipPath>
</defs>
</svg>
