<svg width="289" height="213" viewBox="0 0 289 213" fill="none" xmlns="http://www.w3.org/2000/svg">
<g clip-path="url(#clip0_369_3568)">
<rect width="287.794" height="212.353" transform="translate(0.316406)" fill="#191919"/>
<path fill-rule="evenodd" clip-rule="evenodd" d="M223.906 125.381L223.906 244.041H235.615V221.106H243.42V244.041H278.547V191.193H265.864V163.273H278.547V125.381H262.935V148.8H247.323V125.381H223.906Z" fill="#A80000"/>
<path d="M-79.5543 16.0451L-80.7702 10.2112L-68.4301 -16.3172L-67.0181 -9.54233L-56.2912 -11.778L-55.1146 -6.1323L-48.7161 -7.46585L-47.6964 -2.57292L-41.6743 -3.82803L-40.3407 2.57044L-34.5069 1.35456L-33.644 5.49473L-29.3156 4.59263L-28.7665 7.22727L-22.1799 5.8545L-21.0424 11.312L-8.62189 8.72335L-7.36679 14.7454L9.75848 11.1762L8.50338 5.15414L15.09 3.78137L12.5406 -8.45096L5.95395 -7.07818L4.62039 -13.4767L-18.7151 -8.61312L-19.7349 -13.506L-30.6499 -11.2312L-31.8266 -16.8769L-38.0368 -15.5825L-39.4488 -22.3574L-45.2827 -21.1415L-48.7735 -37.8904L-42.9396 -39.1062L-44.2731 -45.5047L-38.0629 -46.799L-39.0042 -51.3156L-31.853 -52.806L-30.9117 -48.2895L-27.1479 -49.0739L-24.4416 -36.0888L-11.8328 -38.7167L-10.617 -32.8828L0.109861 -35.1185L-2.4788 -47.539L-19.6041 -43.9698L-20.9376 -50.3682L-22.4431 -50.0545L-23.3845 -54.571L-28.0892 -53.5905L-29.5012 -60.3653L-35.5233 -59.1102L-40.3084 -82.0693L-34.2863 -83.3245L-36.8357 -95.5568L-24.227 -98.1847L-25.3645 -103.642L-8.23918 -107.211L-7.65085 -104.389L2.88777 -106.585L4.77043 -97.5519L17.191 -100.141L13.1903 -119.336L8.29738 -118.316L7.31683 -123.021L-10.7494 -119.256L-11.9261 -124.901L-18.3245 -123.568L-20.5994 -134.483L-9.11981 -136.875L-8.10004 -131.982L9.77799 -135.708L11.0331 -129.686L22.1363 -132L23.313 -126.355L29.5232 -127.649L32.0334 -115.605L38.0555 -116.86L41.4678 -100.488L35.4457 -99.2324L36.7793 -92.8339L25.2997 -90.4414L26.594 -84.2311L-2.19899 -78.2301L-3.49331 -84.4404L-9.89177 -83.1069L-11.2253 -89.5053L-17.0592 -88.2894L-14.4313 -75.6807L-8.59744 -76.8966L-7.30311 -70.6863L4.17647 -73.0789L5.31391 -67.6214L11.5242 -68.9157L14.0344 -56.8716L20.0564 -58.1267L26.1359 -28.9572L32.3461 -30.2516L33.5228 -24.6059L39.9212 -25.9394L44.824 -2.41571L38.4256 -1.08216L40.622 9.45644L34.4117 10.7508L35.8237 17.5256L29.8016 18.7807L31.0175 24.6146L19.9143 26.9287L20.8949 31.6335L-9.02728 37.8698L-10.0078 33.165L-22.8047 35.8321L-23.3539 33.1974L-29.3759 34.4526L-30.3173 29.936L-40.4795 32.054L-41.6169 26.5965L-52.3438 28.8321L-53.2851 24.3156L-59.6835 25.6491L-60.9386 19.6271L-66.7725 20.843L-68.263 13.6917L-79.5543 16.0451Z" fill="black" stroke="black" stroke-width="0.409749"/>
</g>
<defs>
<clipPath id="clip0_369_3568">
<rect width="287.794" height="212.353" fill="white" transform="translate(0.316406)"/>
</clipPath>
</defs>
</svg>
