<svg width="279" height="213" viewBox="0 0 279 213" fill="none" xmlns="http://www.w3.org/2000/svg">
<g clip-path="url(#clip0_369_5031)">
<rect width="278.946" height="212.353" transform="translate(0 0.32373)" fill="#191919"/>
<path fill-rule="evenodd" clip-rule="evenodd" d="M-20.4844 -22.2124L-20.4844 164.466H-2.06543L-2.06543 128.385H10.2148L10.2148 164.466L65.4772 164.466L65.4772 81.3245H45.5241L45.5241 37.4004H65.4772L65.4772 -22.2124L40.9179 -22.2124L40.9179 14.6326H16.3574L16.3574 -22.2124H-20.4844Z" fill="#A80000"/>
<path fill-rule="evenodd" clip-rule="evenodd" d="M198.078 164.633H192.1V171.205H186.723V164.633H175.369V193.312H192.699V190.921H198.076V193.312H202.855V168.815H198.078V164.633Z" fill="#A80000"/>
<path fill-rule="evenodd" clip-rule="evenodd" d="M313.574 118.741L296.341 118.741L296.341 126.694L291.035 126.694L291.036 135.972L301.64 135.972L301.64 130.67L306.944 130.67L306.944 142.6L301.642 142.6L301.643 153.204L296.345 153.204L296.345 159.831L291.039 159.831L291.039 166.459L284.408 166.459L284.408 171.76L279.11 171.76L279.11 177.062L273.801 177.062L273.801 182.363L267.178 182.363L267.178 188.991L261.872 188.991L261.873 199.595L256.575 199.595L256.575 216.826L249.944 216.826L249.945 257.916L256.576 257.916L256.576 273.822L261.874 273.822L261.875 287.076L267.18 287.076L267.18 291.052L273.804 291.052L273.804 297.68L284.409 297.68L284.407 204.896L289.716 204.896L289.716 188.992L295.014 188.992L295.013 183.69L301.644 183.69L301.644 177.062L306.95 177.062L306.95 170.435L313.573 170.435L313.573 159.831L318.875 159.831L318.875 149.227L325.502 149.227L325.502 130.67L318.875 130.67L318.874 124.043L313.574 124.043L313.574 118.741ZM284.41 228.755L289.712 228.755L289.713 240.685L295.015 240.685L295.015 247.312L300.98 247.312L300.98 251.288L319.539 251.288L319.539 247.312L324.841 247.312L324.841 240.685L330.143 240.685L330.143 228.755L336.108 228.755L336.108 222.791L342.074 222.791L342.073 217.489L348.039 217.489L348.038 212.187L353.341 212.187L353.341 204.897L358.643 204.897L358.643 198.932L365.271 198.932L365.271 192.968L375.876 192.968L375.876 188.328L393.109 188.328L393.108 183.026L438.842 183.026L438.842 188.328L456.738 188.328L456.738 194.293L467.343 194.293L467.343 198.932L473.308 198.932L473.308 206.222L479.273 206.222L479.273 211.524L485.239 211.524L485.901 211.524L485.901 205.56L480.599 205.56L480.598 183.026L485.238 183.026L485.238 177.062L490.54 177.062L490.54 171.097L496.505 171.097L496.505 159.831L509.098 159.831L509.099 177.062L503.133 177.062L503.134 183.026L496.506 183.026L496.506 194.293L508.436 194.293L508.436 198.932L514.402 198.932L514.402 205.56L519.704 205.56L519.704 211.524L525.67 211.524L525.67 234.057L519.705 234.057L519.705 239.359L514.403 239.359L514.403 245.324L507.775 245.324L507.775 257.253L513.74 257.253L513.741 302.982L507.113 302.982L507.114 319.55L502.474 319.55L502.474 332.142L496.509 332.142L496.509 338.77L490.544 338.77L490.544 342.746L484.579 342.746L484.579 348.711L479.277 348.711L479.277 354.676L473.311 354.676L473.312 365.942L467.347 365.942L467.347 378.534L473.312 378.534L473.312 384.499L479.277 384.499L479.278 389.801L484.58 389.801L484.58 395.765L490.545 395.765L490.546 407.032L496.511 407.032L496.511 418.961L502.476 418.961L502.477 464.027L496.512 464.027L496.513 482.584L502.478 482.584L502.478 492.525L508.443 492.525L508.444 510.419L514.409 510.419L514.41 544.218L508.444 544.218L508.445 561.45L502.48 561.45L502.48 573.379L496.515 573.379L496.515 584.645L490.55 584.645L490.55 589.285L485.247 589.285L485.248 595.912L475.306 595.912L475.306 603.202L450.782 603.202L450.782 607.179L444.154 607.179L444.154 613.143L438.852 613.143L438.852 619.108L444.154 619.108L444.155 629.712L428.247 629.712L428.247 625.735L422.282 625.735L422.282 603.202L428.247 603.202L428.247 596.575L434.212 596.575L434.212 590.61L444.154 590.61L444.154 584.645L456.747 584.645L456.747 578.018L468.014 578.018L468.014 573.379L473.979 573.379L473.979 556.81L479.944 556.81L479.944 532.289L473.978 532.289L473.978 521.685L468.013 521.685L468.013 515.721L462.71 515.721L462.71 509.756L450.78 509.756L450.78 503.791L434.21 503.791L434.21 498.49L427.581 498.49L427.582 504.454L421.616 504.454L421.617 509.756L399.081 509.756L399.081 515.721L392.453 515.721L392.454 528.313L399.082 528.313L399.082 532.289L404.384 532.289L404.384 538.917L416.315 538.917L416.315 550.183L405.047 550.183L405.047 544.218L392.454 544.218L392.454 538.917L387.814 538.917L387.814 532.289L381.849 532.289L381.849 526.325L375.884 526.325L375.882 475.956L381.848 475.956L381.847 452.098L375.882 452.098L375.881 418.298L381.846 418.298L381.846 407.032L387.811 407.032L387.811 395.103L393.776 395.103L393.776 377.209L387.811 377.209L387.81 371.907L376.543 371.907L376.543 365.942L365.938 365.942L365.938 359.977L359.31 359.977L359.309 354.676L353.344 354.676L353.344 349.374L346.716 349.374L346.716 342.746L342.739 342.746L342.739 336.782L337.437 336.782L337.436 331.48L330.146 331.48L330.145 320.213L319.541 320.213L319.54 314.249L307.61 314.249L307.61 308.947L295.679 308.947L295.679 303.645L284.412 303.645L284.41 228.755Z" fill="black"/>
</g>
<defs>
<clipPath id="clip0_369_5031">
<rect width="278.946" height="212.353" fill="white" transform="translate(0 0.32373)"/>
</clipPath>
</defs>
</svg>
