<svg width="279" height="213" viewBox="0 0 279 213" fill="none" xmlns="http://www.w3.org/2000/svg">
<g clip-path="url(#clip0_369_4233)">
<rect width="278.946" height="212.353" fill="#191919"/>
<path fill-rule="evenodd" clip-rule="evenodd" d="M-43.8384 220.356H142.84V201.935H106.757V189.655H142.84V134.394H59.6996V154.349H15.7755V134.394H-43.8384V158.955H-6.99251V183.515H-43.8384V220.356Z" fill="#A80000"/>
<path fill-rule="evenodd" clip-rule="evenodd" d="M85.7403 22.1194L76.6004 22.1194V18.0579H73.0483V7.39709L77.1093 7.39709V2.82824H73.0483V-1.23252L92.3413 -1.23252V3.33599H97.418V22.1194H92.3404V16.5354H85.7403V22.1194Z" fill="#A80000"/>
<path fill-rule="evenodd" clip-rule="evenodd" d="M313.574 -309.364L296.341 -309.364L296.341 -301.411L291.035 -301.411L291.036 -292.133L301.64 -292.133L301.64 -297.435L306.944 -297.435L306.944 -285.506L301.642 -285.506L301.643 -274.903L296.345 -274.903L296.345 -268.275L291.039 -268.275L291.039 -261.647L284.408 -261.647L284.408 -256.346L279.11 -256.346L279.11 -251.044L273.801 -251.044L273.801 -245.742L267.178 -245.742L267.178 -239.115L261.872 -239.115L261.873 -228.51L256.575 -228.51L256.575 -211.279L249.944 -211.279L249.945 -170.189L256.576 -170.189L256.576 -154.284L261.874 -154.284L261.875 -141.029L267.18 -141.029L267.18 -137.053L273.804 -137.053L273.804 -130.425L284.409 -130.425L284.407 -223.209L289.716 -223.209L289.716 -239.114L295.014 -239.114L295.013 -244.416L301.644 -244.416L301.644 -251.044L306.95 -251.044L306.95 -257.671L313.573 -257.671L313.573 -268.274L318.875 -268.274L318.875 -278.878L325.502 -278.878L325.502 -297.435L318.875 -297.435L318.874 -304.062L313.574 -304.062L313.574 -309.364ZM284.41 -199.35L289.712 -199.35L289.713 -187.421L295.015 -187.421L295.015 -180.794L300.98 -180.794L300.98 -176.817L319.539 -176.817L319.539 -180.794L324.841 -180.794L324.841 -187.421L330.143 -187.421L330.143 -199.35L336.108 -199.35L336.108 -205.315L342.074 -205.315L342.073 -210.617L348.039 -210.617L348.038 -215.919L353.341 -215.919L353.341 -223.209L358.643 -223.209L358.643 -229.174L365.271 -229.174L365.271 -235.138L375.876 -235.138L375.876 -239.777L393.109 -239.777L393.108 -245.079L438.842 -245.079L438.842 -239.777L456.738 -239.777L456.738 -233.813L467.343 -233.813L467.343 -229.174L473.308 -229.174L473.308 -221.883L479.273 -221.883L479.273 -216.582L485.239 -216.582L485.901 -216.582L485.901 -222.546L480.599 -222.546L480.598 -245.079L485.238 -245.079L485.238 -251.044L490.54 -251.044L490.54 -257.009L496.505 -257.009L496.505 -268.275L509.098 -268.275L509.099 -251.044L503.133 -251.044L503.134 -245.079L496.506 -245.079L496.506 -233.813L508.436 -233.813L508.436 -229.174L514.402 -229.174L514.402 -222.546L519.704 -222.546L519.704 -216.582L525.67 -216.582L525.67 -194.048L519.705 -194.048L519.705 -188.747L514.403 -188.747L514.403 -182.782L507.775 -182.782L507.775 -170.853L513.74 -170.853L513.741 -125.124L507.113 -125.124L507.114 -108.555L502.474 -108.555L502.474 -95.9633L496.509 -95.9633L496.509 -89.3359L490.544 -89.3359L490.544 -85.3595L484.579 -85.3595L484.579 -79.3948L479.277 -79.3948L479.277 -73.4302L473.311 -73.4302L473.312 -62.1637L467.347 -62.1637L467.347 -49.5716L473.312 -49.5716L473.312 -43.607L479.277 -43.607L479.278 -38.3051L484.58 -38.3051L484.58 -32.3405L490.545 -32.3405L490.546 -21.0739L496.511 -21.0739L496.511 -9.14465L502.476 -9.14465L502.477 35.9215L496.512 35.9215L496.513 54.4781L502.478 54.4781L502.478 64.4192L508.443 64.4192L508.444 82.3131L514.409 82.3131L514.41 116.113L508.444 116.113L508.445 133.344L502.48 133.344L502.48 145.273L496.515 145.273L496.515 156.54L490.55 156.54L490.55 161.179L485.247 161.179L485.248 167.806L475.306 167.806L475.306 175.096L450.782 175.096L450.782 179.073L444.154 179.073L444.154 185.037L438.852 185.037L438.852 191.002L444.154 191.002L444.155 201.606L428.247 201.606L428.247 197.629L422.282 197.629L422.282 175.096L428.247 175.096L428.247 168.469L434.212 168.469L434.212 162.504L444.154 162.504L444.154 156.54L456.747 156.54L456.747 149.912L468.014 149.912L468.014 145.273L473.979 145.273L473.979 128.705L479.944 128.705L479.944 104.183L473.978 104.183L473.978 93.5797L468.013 93.5797L468.013 87.6151L462.71 87.6151L462.71 81.6504L450.78 81.6504L450.78 75.6858L434.21 75.6858L434.21 70.3839L427.581 70.3839L427.582 76.3485L421.616 76.3485L421.617 81.6504L399.081 81.6504L399.081 87.6151L392.453 87.6151L392.454 100.207L399.082 100.207L399.082 104.183L404.384 104.183L404.384 110.811L416.315 110.811L416.315 122.077L405.047 122.077L405.047 116.113L392.454 116.113L392.454 110.811L387.814 110.811L387.814 104.183L381.849 104.183L381.849 98.2188L375.884 98.2188L375.882 47.8508L381.848 47.8508L381.847 23.9922L375.882 23.9922L375.881 -9.80737L381.846 -9.80737L381.846 -21.0739L387.811 -21.0739L387.811 -33.0032L393.776 -33.0032L393.776 -50.8971L387.811 -50.8971L387.81 -56.199L376.543 -56.199L376.543 -62.1637L365.938 -62.1637L365.938 -68.1283L359.31 -68.1283L359.309 -73.4302L353.344 -73.4302L353.344 -78.7321L346.716 -78.7321L346.716 -85.3595L342.739 -85.3595L342.739 -91.3241L337.437 -91.3241L337.436 -96.626L330.146 -96.626L330.145 -107.893L319.541 -107.893L319.54 -113.857L307.61 -113.857L307.61 -119.159L295.679 -119.159L295.679 -124.461L284.412 -124.461L284.41 -199.35Z" fill="black"/>
<path d="M401.478 44.8999L401.092 38.9532L382.118 16.6818L382.566 23.5877L371.631 24.2967L372.004 30.0517L365.482 30.4746L365.806 35.4622L359.667 35.8602L360.09 42.3825L354.143 42.7681L354.417 46.9884L350.005 47.2745L350.179 49.9601L343.465 50.3955L343.826 55.9586L331.165 56.7796L331.563 62.9181L314.106 64.0501L313.708 57.9116L306.994 58.3469L306.186 45.8779L312.9 45.4426L312.477 38.9203L336.264 37.3778L335.94 32.3902L347.066 31.6688L346.693 25.9138L353.024 25.5033L352.576 18.5974L358.523 18.2118L357.416 1.1389L351.469 1.52451L351.046 -4.99774L344.715 -4.58725L344.417 -9.19118L337.127 -8.71849L337.426 -4.11456L333.589 -3.86577L334.448 9.37056L321.595 10.204L321.981 16.1507L311.046 16.8598L310.225 4.19896L327.682 3.06698L327.259 -3.45528L328.793 -3.55479L328.495 -8.15872L333.291 -8.4697L332.843 -15.3756L338.981 -15.7737L337.464 -39.177L331.325 -38.779L330.517 -51.2479L317.664 -50.4145L317.303 -55.9776L299.847 -54.8456L300.033 -51.9682L289.291 -51.2716L289.888 -42.0637L277.227 -41.2427L275.958 -60.8094L280.946 -61.1329L280.635 -65.9286L299.051 -67.1228L298.677 -72.8777L305.2 -73.3007L304.478 -84.4268L292.777 -83.668L293.1 -78.6805L274.876 -77.4987L275.274 -71.3601L263.956 -70.6262L264.329 -64.8713L257.999 -64.4608L258.795 -52.1836L252.656 -51.7856L253.739 -35.0963L259.877 -35.4944L260.3 -28.9721L272.002 -29.7309L272.412 -23.4005L301.762 -25.3037L301.352 -31.6341L307.874 -32.0571L307.451 -38.5793L313.398 -38.9649L314.231 -26.1123L308.285 -25.7266L308.695 -19.3962L296.993 -18.6374L297.354 -13.0743L291.024 -12.6638L291.82 -0.386696L285.681 0.0113604L287.609 29.7451L281.279 30.1556L281.652 35.9106L275.13 36.3335L276.685 60.3123L283.207 59.8894L283.904 70.6319L290.234 70.2214L290.682 77.1273L296.82 76.7293L297.206 82.676L308.524 81.9421L308.835 86.7379L339.336 84.76L339.025 79.9643L352.07 79.1184L351.896 76.4327L358.034 76.0347L357.736 71.4308L368.094 70.759L367.734 65.1959L378.668 64.4869L378.37 59.883L384.892 59.46L384.494 53.3215L390.44 52.9358L389.968 45.6463L401.478 44.8999Z" fill="black" stroke="black" stroke-width="0.409749"/>
</g>
<defs>
<clipPath id="clip0_369_4233">
<rect width="278.946" height="212.353" fill="white"/>
</clipPath>
</defs>
</svg>
