<svg width="119" height="157" viewBox="0 0 119 157" fill="none" xmlns="http://www.w3.org/2000/svg">
<g clip-path="url(#clip0_437_17663)">
<rect width="156.042" height="118.79" transform="translate(119) rotate(90)" fill="#191919"/>
<path fill-rule="evenodd" clip-rule="evenodd" d="M-4.25781 -24.5253L-4.25781 79.9023L6.04693 79.9023L6.04693 59.7186L12.9165 59.7186L12.9165 79.9023L43.8291 79.9023L43.8291 33.3931L32.6702 33.3931L32.6702 8.822L43.8291 8.822L43.8291 -24.5253L30.0908 -24.5253L30.0908 -3.91425L16.3517 -3.91425L16.3517 -24.5253L-4.25781 -24.5253Z" fill="#A80000"/>
<path fill-rule="evenodd" clip-rule="evenodd" d="M106.641 47.9612L106.641 42.8482L108.913 42.8482L108.913 40.8608L114.867 40.8608L114.867 43.134L117.423 43.134L117.423 40.8608L119.704 40.8608L119.704 51.6532L117.155 51.6532L117.155 54.4932L106.641 54.4932L106.641 51.6533L109.763 51.6533L109.763 47.9612L106.641 47.9612Z" fill="#A80000"/>
<path fill-rule="evenodd" clip-rule="evenodd" d="M292.047 175.414L292.047 165.774L287.595 165.774L287.595 162.806L282.405 162.806L282.405 168.738L285.374 168.738L285.374 171.705L278.699 171.705L278.699 168.739L272.774 168.739L272.774 165.776L269.062 165.776L269.062 162.808L265.351 162.808L265.351 159.1L262.389 159.1L262.389 156.134L259.418 156.134L259.418 153.166L256.455 153.167L256.455 149.46L252.744 149.46L252.744 146.494L246.819 146.494L246.819 143.528L237.174 143.528L237.174 139.821L214.189 139.821L214.189 143.529L205.296 143.529L205.296 146.495L197.875 146.495L197.875 149.462L195.655 149.462L195.655 153.168L191.944 153.168L191.944 159.1L243.852 159.099L243.852 162.067L252.746 162.067L252.746 165.032L255.716 165.032L255.716 168.741L259.427 168.741L259.427 171.708L263.128 171.708L263.128 175.414L269.057 175.413L269.057 178.379L274.992 178.379L274.992 182.089L285.373 182.089L285.373 178.379L289.076 178.379L289.076 175.414L292.047 175.414ZM230.506 159.101L230.506 162.067L223.833 162.067L223.833 165.033L220.125 165.033L220.125 168.37L217.901 168.37L217.901 178.752L220.125 178.752L220.125 181.718L223.833 181.718L223.833 184.684L230.506 184.684L230.506 188.021L233.843 188.021L233.843 191.358L236.809 191.358L236.809 194.695L239.774 194.694L239.774 197.661L243.852 197.661L243.852 200.627L247.189 200.627L247.189 204.334L250.526 204.334L250.526 210.267L253.121 210.267L253.121 219.907L256.087 219.907L256.087 245.49L253.121 245.49L253.121 255.501L249.784 255.501L249.784 261.433L247.189 261.433L247.189 264.77L243.111 264.77L243.111 268.107L240.145 268.107L240.145 271.444L240.145 271.815L243.482 271.815L243.482 268.849L256.087 268.848L256.087 271.444L259.423 271.444L259.423 274.41L262.76 274.41L262.76 277.747L269.062 277.747L269.062 284.791L259.423 284.791L259.423 281.454L256.087 281.455L256.087 277.747L249.784 277.747L249.784 284.421L247.189 284.421L247.189 287.758L243.482 287.758L243.482 290.724L240.145 290.724L240.145 294.061L227.54 294.061L227.54 290.725L224.574 290.725L224.574 287.758L221.238 287.759L221.238 284.051L214.564 284.051L214.564 287.388L188.984 287.388L188.984 283.681L179.715 283.681L179.715 281.086L172.671 281.086L172.671 277.749L168.964 277.749L168.964 274.412L166.74 274.412L166.74 271.075L163.403 271.075L163.403 268.109L160.066 268.109L160.066 264.772L153.764 264.772L153.764 261.435L146.72 261.435L146.72 264.772L143.383 264.772L143.383 268.109L140.417 268.11L140.417 271.076L137.081 271.076L137.081 274.413L130.778 274.413L130.778 277.75L124.105 277.75L124.105 281.087L98.8951 281.087L98.8951 277.751L88.5145 277.751L88.5145 281.088L82.9535 281.088L82.9535 284.425L72.9437 284.425L72.9437 287.762L54.0362 287.762L54.0362 284.425L44.3971 284.426L44.3971 281.089L37.7238 281.089L37.7238 277.752L31.4213 277.752L31.4213 274.415L28.8262 274.415L28.8262 271.449L25.1188 271.449L25.1188 265.888L21.0407 265.888L21.0407 252.169L18.8163 252.169L18.8163 248.461L15.4797 248.462L15.4797 245.495L12.1431 245.495L12.1431 248.462L6.21136 248.462L6.21136 239.563L8.43576 239.563L8.43576 236.226L21.0407 236.226L21.0407 239.563L24.7481 239.563L24.7481 242.9L28.0847 242.9L28.0847 248.461L31.4213 248.461L31.4213 255.506L35.1287 255.506L35.1287 261.809L37.7238 261.809L37.7238 265.146L46.9922 265.146L46.9922 268.482L60.7094 268.482L60.7094 265.145L66.6412 265.145L66.6412 261.808L69.9778 261.808L69.9778 258.842L73.3144 258.842L73.3144 252.168L76.651 252.168L76.651 242.899L79.6169 242.898L79.6169 239.191L76.2803 239.191L76.2803 235.854L73.3144 235.854L73.3144 223.248L69.9778 223.248L69.9778 219.54L62.9338 219.54L62.9338 223.248L60.7094 223.248L60.7094 226.214L57.0021 226.214L57.0021 232.888L50.6996 232.888L50.6996 226.585L54.0362 226.585L54.0362 219.54L57.0021 219.54L57.0021 216.945L60.7094 216.945L60.7094 213.608L64.046 213.608L64.046 210.271L92.2219 210.27L92.2219 213.607L105.568 213.607L105.568 210.27L124.476 210.27L124.476 213.607L130.778 213.606L130.778 216.943L137.452 216.943L137.452 220.28L147.461 220.28L147.461 216.943L150.427 216.943L150.427 210.64L153.764 210.64L153.764 204.707L157.1 204.707L157.1 201L160.066 200.999L160.066 197.663L163.032 197.662L163.032 193.955L166.74 193.955L166.74 191.73L170.076 191.73L170.076 188.764L173.042 188.764L173.042 184.685L179.345 184.685L179.345 178.753L182.681 178.753L182.681 172.079L185.647 172.079L185.647 165.405L188.613 165.405L188.613 159.102L230.506 159.101Z" fill="black"/>
<path d="M93.8765 224.588L97.2031 224.373L109.662 213.759L105.799 214.009L105.402 207.892L102.183 208.101L101.946 204.453L99.156 204.634L98.9333 201.2L95.2848 201.436L95.069 198.11L92.7082 198.263L92.5482 195.795L91.0458 195.892L90.8023 192.136L87.6903 192.338L87.231 185.255L83.7971 185.478L83.1639 175.713L86.5978 175.49L86.3543 171.734L93.3294 171.282L93.573 175.038L97.2215 174.801L98.0844 188.108L100.874 187.927L101.278 194.151L104.497 193.942L104.727 197.483L108.59 197.233L108.806 200.559L118.356 199.94L118.141 196.614L121.789 196.377L121.56 192.836L124.135 192.669L123.871 188.591L121.295 188.758L121.156 186.612L113.752 187.092L113.285 179.902L109.959 180.118L109.562 174.001L116.645 173.542L117.278 183.307L120.926 183.071L120.982 183.929L123.557 183.762L123.731 186.445L127.595 186.194L127.817 189.628L140.909 188.779L140.686 185.345L147.662 184.893L147.195 177.703L150.307 177.501L149.674 167.736L148.064 167.841L147.675 161.831L142.524 162.165L142.065 155.083L153.01 154.373L153.191 157.163L155.874 156.989L156.542 167.291L159.761 167.082L159.998 170.731L166.222 170.327L165.797 163.781L163.007 163.962L162.346 153.768L158.912 153.99L158.502 147.659L155.282 147.868L155.053 144.327L148.185 144.772L147.962 141.338L138.626 141.943L138.849 145.377L135.2 145.614L135.625 152.16L132.084 152.389L133.148 168.808L136.69 168.578L136.926 172.227L140.575 171.99L140.79 175.317L133.601 175.783L133.385 172.456L129.844 172.686L129.419 166.14L126.307 166.342L126.078 162.801L119.21 163.246L118.987 159.812L102.354 160.891L102.124 157.349L98.9052 157.558L98.6686 153.91L85.2548 154.779L85.4914 158.428L79.4821 158.818L79.7117 162.359L75.8485 162.609L76.0712 166.043L72.7446 166.259L73.1551 172.59L70.4724 172.764L71.5788 189.827L74.2615 189.653L74.7347 196.95L76.2371 196.852L76.4597 200.286L79.0352 200.119L79.4109 205.914L82.5229 205.712L82.9196 211.829L85.495 211.662L85.7316 215.31L89.1655 215.088L89.3812 218.414L93.459 218.15L93.8765 224.588Z" fill="black" stroke="black" stroke-width="0.229213"/>
</g>
<defs>
<clipPath id="clip0_437_17663">
<rect width="156.042" height="118.79" fill="white" transform="translate(119) rotate(90)"/>
</clipPath>
</defs>
</svg>
