<svg width="289" height="213" viewBox="0 0 289 213" fill="none" xmlns="http://www.w3.org/2000/svg">
<g clip-path="url(#clip0_369_4366)">
<rect width="287.794" height="212.353" transform="translate(0.316406 0.646973)" fill="#191919"/>
<path fill-rule="evenodd" clip-rule="evenodd" d="M157.931 102.999H344.609V84.5783H308.526V72.2981H344.609V17.0372H261.469V36.9923H217.545V17.0372H157.931V41.5976L194.777 41.5976V66.1581H157.931V102.999Z" fill="#A80000"/>
<path fill-rule="evenodd" clip-rule="evenodd" d="M158.753 244.034H144.002V237.479H138.266V220.271H144.826V212.897H138.266V206.341H169.406V213.715H177.602V244.034H169.406V235.021H158.753V244.034Z" fill="#A80000"/>
<path fill-rule="evenodd" clip-rule="evenodd" d="M6.32362 103.084H-1.86784V112.098H-9.24333V103.084H-24.8141V142.416H-1.044V139.139H6.33149V142.416H12.8828V108.82H6.32362V103.084Z" fill="#A80000"/>
</g>
<defs>
<clipPath id="clip0_369_4366">
<rect width="287.794" height="212.353" fill="white" transform="translate(0.316406 0.646973)"/>
</clipPath>
</defs>
</svg>
