<svg width="274" height="213" viewBox="0 0 274 213" fill="none" xmlns="http://www.w3.org/2000/svg">
<g clip-path="url(#clip0_369_3701)">
<rect width="272.426" height="212.353" transform="translate(0.917969 0.646973)" fill="#191919"/>
<path fill-rule="evenodd" clip-rule="evenodd" d="M36.0697 -309.183L18.8368 -309.183L18.837 -301.231L13.5314 -301.231L13.5316 -291.952L24.1364 -291.952L24.1363 -297.254L29.4403 -297.254L29.4406 -285.325L24.1385 -285.325L24.1387 -274.721L18.8406 -274.721L18.8408 -268.093L13.5352 -268.093L13.5353 -261.466L6.90432 -261.466L6.90444 -256.165L1.60646 -256.165L1.60659 -250.863L-3.69898 -250.863L-3.69886 -245.561L-10.326 -245.561L-10.3259 -238.934L-15.6315 -238.934L-15.6312 -228.33L-20.9293 -228.33L-20.9289 -211.098L-27.5602 -211.098L-27.5592 -170.008L-20.928 -170.008L-20.9276 -154.103L-15.6295 -154.103L-15.6292 -140.849L-10.3236 -140.849L-10.3235 -136.872L-3.69631 -136.872L-3.69616 -130.245L6.90754 -130.245L6.90768 -124.28L18.1753 -124.28L18.1754 -118.978L30.1059 -118.978L30.106 -113.676L42.0365 -113.676L42.0366 -107.711L52.6414 -107.711L52.6417 -96.4449L59.9325 -96.4449L59.9327 -91.143L65.2351 -91.143L65.2352 -85.1783L69.212 -85.1783L69.2122 -78.5509L75.8402 -78.5509L75.8403 -73.249L81.8056 -73.249L81.8057 -67.9471L88.4337 -67.9471L88.4339 -61.9825L99.0387 -61.9825L99.0388 -56.0179L110.306 -56.0179L110.307 -50.716L116.272 -50.716L116.272 -32.8221L110.307 -32.8221L110.307 -20.8928L104.342 -20.8928L104.342 -9.62622L98.3771 -9.62622L98.3779 24.1734L104.343 24.1734L104.344 48.0319L98.3785 48.0319L98.3796 98.4L104.345 98.4L104.345 104.365L110.31 104.365L110.31 110.992L114.95 110.992L114.95 116.294L127.543 116.294L127.544 122.259L138.811 122.259L138.811 110.992L126.88 110.992L126.88 104.365L121.578 104.365L121.578 100.388L114.95 100.388L114.949 87.7962L121.577 87.7962L121.577 81.8315L144.113 81.8315L144.113 76.5297L150.078 76.5297L150.078 70.565L156.706 70.565L156.706 75.8669L173.276 75.8669L173.276 81.8315L185.206 81.8315L185.207 87.7962L190.509 87.7962L190.509 93.7608L196.474 93.7608L196.475 104.365L202.44 104.365L202.44 128.886L196.475 128.886L196.476 145.454L190.51 145.454L190.51 150.094L179.243 150.094L179.243 156.721L166.65 156.721L166.65 162.686L156.708 162.686L156.708 168.65L150.743 168.65L150.743 175.278L144.778 175.278L144.778 197.811L150.743 197.811L150.743 201.787L166.651 201.787L166.65 191.183L161.348 191.183L161.348 185.219L166.65 185.219L166.65 179.254L173.278 179.254L173.278 175.278L197.802 175.278L197.802 167.987L207.744 167.987L207.744 161.36L213.046 161.36L213.046 156.721L219.011 156.721L219.011 145.454L224.976 145.454L224.976 133.525L230.941 133.525L230.941 116.294L236.906 116.294L236.905 82.4943L230.94 82.4943L230.939 64.6004L224.974 64.6004L224.974 54.6593L219.009 54.6593L219.008 36.1027L224.973 36.1027L224.972 -8.9635L219.007 -8.9635L219.007 -20.8928L213.042 -20.8928L213.041 -32.1593L207.076 -32.1593L207.076 -38.124L201.774 -38.124L201.774 -43.4259L195.808 -43.4259L195.808 -49.3905L189.843 -49.3905L189.843 -61.9825L195.808 -61.9825L195.808 -73.249L201.773 -73.249L201.773 -79.2137L207.075 -79.2137L207.075 -85.1783L213.04 -85.1783L213.04 -89.1548L219.005 -89.1548L219.005 -95.7821L224.97 -95.7821L224.97 -108.374L229.61 -108.374L229.609 -124.943L236.237 -124.943L236.236 -170.671L230.271 -170.671L230.271 -182.601L236.899 -182.601L236.899 -188.565L242.201 -188.565L242.201 -193.867L248.166 -193.867L248.166 -216.4L242.2 -216.4L242.2 -222.365L236.898 -222.365L236.898 -228.992L230.932 -228.992L230.932 -233.632L219.002 -233.632L219.002 -244.898L225.63 -244.898L225.63 -250.863L231.595 -250.863L231.594 -268.094L219.001 -268.094L219.001 -256.827L213.036 -256.827L213.036 -250.863L207.734 -250.863L207.734 -244.898L203.094 -244.898L203.095 -222.365L208.397 -222.365L208.397 -216.4L207.735 -216.4L201.769 -216.4L201.769 -221.702L195.804 -221.702L195.804 -228.992L189.839 -228.992L189.839 -233.632L179.234 -233.632L179.234 -239.596L161.338 -239.596L161.338 -244.898L115.604 -244.898L115.605 -239.596L98.3717 -239.596L98.3718 -234.957L87.767 -234.957L87.7671 -228.992L81.1391 -228.992L81.1392 -223.028L75.8368 -223.028L75.837 -215.738L70.5346 -215.738L70.5347 -210.436L64.5695 -210.436L64.5696 -205.134L58.6044 -205.134L58.6045 -199.169L52.6393 -199.169L52.6396 -187.24L47.3372 -187.24L47.3373 -180.613L42.0349 -180.613L42.035 -176.636L23.4765 -176.636L23.4764 -180.613L17.5112 -180.613L17.511 -187.24L12.2086 -187.24L12.2083 -199.169L6.90706 -199.169L6.90651 -223.028L12.2121 -223.028L12.2117 -238.933L17.5097 -238.933L17.5096 -244.235L24.1406 -244.235L24.1404 -250.862L29.446 -250.862L29.4459 -257.49L36.0696 -257.49L36.0693 -268.094L41.3714 -268.094L41.3712 -278.698L47.9981 -278.698L47.9976 -297.254L41.3707 -297.254L41.3706 -303.881L36.0698 -303.881L36.0697 -309.183Z" fill="black"/>
<rect width="29.1633" height="4.55632" transform="matrix(1 0 2.34214e-05 1 167.309 35.937)" fill="#FAFF15"/>
<rect width="1.82271" height="4.55632" transform="matrix(1 1.0589e-09 2.34236e-05 1 180.98 35.937)" fill="black"/>
<rect width="3.64541" height="1.82253" transform="matrix(1 0 2.34214e-05 1 191.914 34.1143)" fill="#FAFF15"/>
<rect width="1.82237" height="1.82219" transform="matrix(1 0 2.34214e-05 1 175.508 40.4924)" fill="#FAFF15"/>
<path d="M123.981 45.0813L123.596 39.1346L104.622 16.8632L105.07 23.7691L94.1352 24.4781L94.5083 30.2331L87.9861 30.656L88.3095 35.6436L82.1709 36.0416L82.5939 42.5639L76.6471 42.9495L76.9208 47.1698L72.5087 47.4559L72.6828 50.1415L65.9687 50.5769L66.3295 56.14L53.6687 56.961L54.0667 63.0995L36.6101 64.2315L36.2121 58.0929L29.498 58.5283L28.6894 46.0593L35.4035 45.624L34.9806 39.1017L58.7676 37.5592L58.4442 32.5716L69.5703 31.8502L69.1972 26.0952L75.5276 25.6847L75.0798 18.7788L81.0265 18.3932L79.9194 1.32029L73.9727 1.70591L73.5497 -4.81635L67.2193 -4.40585L66.9208 -9.00978L59.6312 -8.53709L59.9298 -3.93316L56.0931 -3.68438L56.9515 9.55195L44.0988 10.3854L44.4844 16.3321L33.5501 17.0412L32.7291 4.38035L50.1857 3.24838L49.7627 -3.27388L51.2974 -3.37339L50.9988 -7.97733L55.7946 -8.28831L55.3468 -15.1942L61.4854 -15.5923L59.9678 -38.9956L53.8292 -38.5976L53.0206 -51.0666L40.168 -50.2331L39.8073 -55.7962L22.3507 -54.6642L22.5372 -51.7868L11.7947 -51.0902L12.3918 -41.8823L-0.269019 -41.0613L-1.53782 -60.628L3.44977 -60.9515L3.13879 -65.7472L21.5545 -66.9414L21.1814 -72.6963L27.7036 -73.1193L26.9821 -84.2454L15.2805 -83.4866L15.6039 -78.4991L-2.62004 -77.3173L-2.22198 -71.1787L-13.54 -70.4448L-13.1668 -64.6899L-19.4972 -64.2794L-18.7011 -52.0022L-24.8397 -51.6042L-23.7575 -34.9149L-17.6189 -35.313L-17.196 -28.7907L-5.49429 -29.5495L-5.0838 -23.2191L24.2663 -25.1223L23.8558 -31.4527L30.3781 -31.8757L29.9551 -38.3979L35.9019 -38.7835L36.7353 -25.9309L30.7885 -25.5452L31.199 -19.2148L19.4974 -18.456L19.8581 -12.8929L13.5277 -12.4824L14.3238 -0.2053L8.18522 0.192757L10.1133 29.9265L3.78289 30.337L4.15607 36.0919L-2.36617 36.5149L-0.811265 60.4937L5.71098 60.0708L6.40758 70.8133L12.738 70.4028L13.1858 77.3087L19.3244 76.9107L19.71 82.8574L31.028 82.1235L31.339 86.9193L61.8401 84.9414L61.5291 80.1457L74.5736 79.2998L74.3994 76.6141L80.538 76.2161L80.2395 71.6122L90.5983 70.9404L90.2376 65.3773L101.172 64.6683L100.873 60.0644L107.396 59.6414L106.998 53.5029L112.944 53.1172L112.472 45.8277L123.981 45.0813Z" fill="black" stroke="black" stroke-width="0.409749"/>
<path d="M193.465 16.2265L192.249 10.3926L204.589 -16.1358L206.001 -9.36094L216.728 -11.5966L217.905 -5.9509L224.303 -7.28445L225.323 -2.39152L231.345 -3.64663L232.679 2.75184L238.513 1.53595L239.376 5.67613L243.704 4.77402L244.253 7.40866L250.84 6.03589L251.977 11.4934L264.398 8.90475L265.653 14.9268L282.778 11.3576L281.523 5.33554L288.11 3.96277L285.56 -8.26956L278.973 -6.89679L277.64 -13.2953L254.304 -8.43172L253.285 -13.3246L242.37 -11.0498L241.193 -16.6955L234.983 -15.4011L233.571 -22.176L227.737 -20.9601L224.246 -37.709L230.08 -38.9248L228.746 -45.3233L234.957 -46.6176L234.015 -51.1342L241.167 -52.6246L242.108 -48.1081L245.872 -48.8925L248.578 -35.9074L261.187 -38.5353L262.403 -32.7014L273.129 -34.9371L270.541 -47.3576L253.415 -43.7884L252.082 -50.1869L250.576 -49.8731L249.635 -54.3896L244.93 -53.4091L243.518 -60.1839L237.496 -58.9288L232.711 -81.888L238.733 -83.1431L236.184 -95.3754L248.793 -98.0033L247.655 -103.461L264.78 -107.03L265.369 -104.207L275.907 -106.404L277.79 -97.3705L290.21 -99.9591L286.21 -119.154L281.317 -118.135L280.336 -122.839L262.27 -119.074L261.093 -124.72L254.695 -123.386L252.42 -134.301L263.9 -136.694L264.919 -131.801L282.798 -135.527L284.053 -129.505L295.156 -131.819L296.332 -126.173L302.543 -127.468L305.053 -115.424L311.075 -116.679L314.487 -100.306L308.465 -99.051L309.799 -92.6525L298.319 -90.26L299.614 -84.0497L270.821 -78.0488L269.526 -84.259L263.128 -82.9255L261.794 -89.3239L255.96 -88.108L258.588 -75.4993L264.422 -76.7152L265.716 -70.5049L277.196 -72.8975L278.333 -67.44L284.544 -68.7343L287.054 -56.6902L293.076 -57.9453L299.155 -28.7759L305.366 -30.0702L306.542 -24.4245L312.941 -25.758L317.844 -2.23432L311.445 -0.900766L313.642 9.63784L307.431 10.9322L308.843 17.707L302.821 18.9621L304.037 24.796L292.934 27.1101L293.914 31.8149L263.992 38.0512L263.012 33.3464L250.215 36.0135L249.666 33.3788L243.644 34.6339L242.702 30.1174L232.54 32.2354L231.403 26.7779L220.676 29.0135L219.734 24.497L213.336 25.8305L212.081 19.8085L206.247 21.0244L204.757 13.8731L193.465 16.2265Z" fill="black" stroke="black" stroke-width="0.409749"/>
</g>
<defs>
<clipPath id="clip0_369_3701">
<rect width="272.426" height="212.353" fill="white" transform="translate(0.917969 0.646973)"/>
</clipPath>
</defs>
</svg>
