<svg width="289" height="213" viewBox="0 0 289 213" fill="none" xmlns="http://www.w3.org/2000/svg">
<g clip-path="url(#clip0_369_2770)">
<rect width="287.794" height="212.353" transform="translate(0.316406 0.32373)" fill="#191919"/>
<path fill-rule="evenodd" clip-rule="evenodd" d="M158.753 31.5422H144.002V24.9861H138.266V7.77875H144.826V0.404009H138.266V-6.1509L169.406 -6.1509V1.22319H177.602V31.5422H169.406V22.5284H158.753V31.5422Z" fill="#A80000"/>
<path fill-rule="evenodd" clip-rule="evenodd" d="M108.568 184.381H117.704V188.443H121.26V199.103H117.195V203.672H121.26V207.733H101.967V203.165H96.8906V184.381H101.968V189.965H108.568V184.381Z" fill="#A80000"/>
<path d="M-79.5543 231.981L-80.7702 226.147L-68.4301 199.619L-67.0181 206.394L-56.2912 204.158L-55.1146 209.804L-48.7161 208.47L-47.6964 213.363L-41.6743 212.108L-40.3407 218.507L-34.5069 217.291L-33.644 221.431L-29.3156 220.529L-28.7665 223.164L-22.1799 221.791L-21.0424 227.248L-8.62189 224.66L-7.36679 230.682L9.75848 227.112L8.50338 221.09L15.09 219.718L12.5406 207.485L5.95395 208.858L4.62039 202.46L-18.7151 207.323L-19.7349 202.43L-30.6499 204.705L-31.8266 199.059L-38.0368 200.354L-39.4488 193.579L-45.2827 194.795L-48.7735 178.046L-42.9396 176.83L-44.2731 170.432L-38.0629 169.137L-39.0042 164.621L-31.853 163.13L-30.9117 167.647L-27.1479 166.862L-24.4416 179.847L-11.8328 177.22L-10.617 183.053L0.109861 180.818L-2.4788 168.397L-19.6041 171.966L-20.9376 165.568L-22.4431 165.882L-23.3845 161.365L-28.0892 162.346L-29.5012 155.571L-35.5233 156.826L-40.3084 133.867L-34.2863 132.612L-36.8357 120.379L-24.227 117.752L-25.3645 112.294L-8.23918 108.725L-7.65085 111.548L2.88777 109.351L4.77043 118.384L17.191 115.796L13.1903 96.6004L8.29738 97.6202L7.31683 92.9154L-10.7494 96.6808L-11.9261 91.0351L-18.3245 92.3686L-20.5994 81.4536L-9.11981 79.0611L-8.10004 83.954L9.77799 80.2279L11.0331 86.25L22.1363 83.9359L23.313 89.5816L29.5232 88.2872L32.0334 100.331L38.0555 99.0763L41.4678 115.449L35.4457 116.704L36.7793 123.102L25.2997 125.495L26.594 131.705L-2.19899 137.706L-3.49331 131.496L-9.89177 132.829L-11.2253 126.431L-17.0592 127.647L-14.4313 140.256L-8.59744 139.04L-7.30311 145.25L4.17647 142.857L5.31391 148.315L11.5242 147.021L14.0344 159.065L20.0564 157.81L26.1359 186.979L32.3461 185.685L33.5228 191.33L39.9212 189.997L44.824 213.521L38.4256 214.854L40.622 225.393L34.4117 226.687L35.8237 233.462L29.8016 234.717L31.0175 240.551L19.9143 242.865L20.8949 247.57L-9.02728 253.806L-10.0078 249.101L-22.8047 251.768L-23.3539 249.134L-29.3759 250.389L-30.3173 245.872L-40.4795 247.99L-41.6169 242.533L-52.3438 244.768L-53.2851 240.252L-59.6835 241.585L-60.9386 235.563L-66.7725 236.779L-68.263 229.628L-79.5543 231.981Z" fill="black" stroke="black" stroke-width="0.409749"/>
</g>
<defs>
<clipPath id="clip0_369_2770">
<rect width="287.794" height="212.353" fill="white" transform="translate(0.316406 0.32373)"/>
</clipPath>
</defs>
</svg>
