<svg width="829" height="688" viewBox="0 0 829 688" fill="none" xmlns="http://www.w3.org/2000/svg">
<path fill-rule="evenodd" clip-rule="evenodd" d="M527.73 6.94727H569.511V39.0088H585.057V6.94727H637.527V49.6957H606.435V69.1267H637.527V117.704H542.307V103.131H527.73V6.94727Z" fill="#206234"/>
<rect x="524.82" y="29.293" width="34.0078" height="8.74399" fill="white"/>
<path fill-rule="evenodd" clip-rule="evenodd" d="M821.177 10.8335H763.363V22.4923H774.537V30.2648H763.363V65.2405H789.11V52.6105H802.714V65.2405H821.177V38.0368H809.517V34.1506H821.177V10.8335Z" fill="#206234"/>
<path fill-rule="evenodd" clip-rule="evenodd" d="M595.17 183.208H678.344V175.001H662.268V169.53H678.344V144.908H641.302V153.799H621.732V144.908H595.17V155.851H611.587V166.794H595.17V183.208Z" fill="#206234"/>
<path fill-rule="evenodd" clip-rule="evenodd" d="M648.223 27.3501H672.515V40.952H683.203V27.3501H754.133V39.0089H736.641V45.8098H754.133V89.5297H729.842V103.131H754.133V138.107H648.223V89.5295H678.345V70.0984H648.223V27.3501Z" fill="#206234"/>
<rect x="729.84" y="111.875" width="41.781" height="8.74399" fill="white"/>
<rect x="574.375" y="172.265" width="24.0765" height="9.84849" fill="white"/>
<rect x="591.887" y="182.114" width="24.0765" height="9.84849" fill="white"/>
<rect x="796.883" y="5.97607" width="32.0645" height="8.74399" fill="white"/>
<rect x="817.289" y="0.146973" width="11.6598" height="8.74399" fill="white"/>
<rect x="508.305" y="38.0376" width="34.0078" height="8.74399" fill="white"/>
<rect x="16.6484" y="265.381" width="34.0078" height="8.74399" fill="white"/>
<rect x="0.128906" y="274.125" width="34.0078" height="8.74399" fill="white"/>
<path fill-rule="evenodd" clip-rule="evenodd" d="M480.129 294.528V304.243H490.818V312.987H480.129V331.447H526.768V303.272H522.88V294.528H526.768V286.755H486.932V294.528H480.129Z" fill="#206234"/>
<rect x="507.332" y="325.618" width="38.8661" height="8.74399" fill="white"/>
<path fill-rule="evenodd" clip-rule="evenodd" d="M453.889 304.244H436.399V296.471H429.599V276.068H437.37V267.324H429.599V259.552H466.522V268.296H476.238V304.244H466.52V293.557H453.889V304.244Z" fill="#206234"/>
<rect x="449.035" y="255.666" width="6.80157" height="8.74399" fill="white"/>
<rect x="466.523" y="273.153" width="19.433" height="6.80088" fill="white"/>
<rect x="480.125" y="276.068" width="19.433" height="6.80088" fill="white"/>
<path fill-rule="evenodd" clip-rule="evenodd" d="M249.844 201.259H240.129V211.946H231.384V201.259H212.921V247.893H241.1V244.007H249.845V247.893H257.617V208.06H249.844V201.259Z" fill="#206234"/>
<rect x="224.578" y="221.661" width="38.8661" height="8.74399" transform="rotate(-180 224.578 221.661)" fill="white"/>
<path fill-rule="evenodd" clip-rule="evenodd" d="M287.729 285.783H270.242V278.011H263.439V257.608H271.213V248.864H263.439V241.092H300.362V249.836H310.078V285.783H300.36V275.096H287.729V285.783Z" fill="#206234"/>
<rect x="273.16" y="272.182" width="19.433" height="6.80088" transform="rotate(-180 273.16 272.182)" fill="white"/>
<rect x="259.559" y="269.267" width="19.433" height="6.80088" transform="rotate(-180 259.559 269.267)" fill="white"/>
<path fill-rule="evenodd" clip-rule="evenodd" d="M3.05078 289.67V366.423H28.3144V317.845H42.8892V366.423H141.025V329.503H100.216V310.072H141.025V277.04H12.766V289.67H3.05078Z" fill="#206234"/>
<rect x="166.281" y="370.309" width="44.696" height="11.6587" transform="rotate(-180 166.281 370.309)" fill="white"/>
<rect x="133.246" y="362.536" width="44.696" height="11.6587" transform="rotate(-180 133.246 362.536)" fill="white"/>
<path fill-rule="evenodd" clip-rule="evenodd" d="M466.137 551.018H563.3V563.648H574.766V598.624H563.3V593.766H550.668V598.624H402.976V590.851H376.741V598.624H259.172V593.766H225.164V598.624H176V574.335H198.93V563.648H176V551.018H327.19V580.164H351.481V551.018H448.647V559.761H466.137V551.018Z" fill="#206234"/>
<path fill-rule="evenodd" clip-rule="evenodd" d="M586.039 658.86V689.092H653.083V647.145H647.255V657.889H634.624V647.145H589.926V658.86H586.039Z" fill="#206234"/>
<path fill-rule="evenodd" clip-rule="evenodd" d="M670.569 601.539H657.938V655.634H687.088V660.552H657.938V692.206H736.641V685.14H692.919V672.354H736.641V618.259H716.235V601.539H678.343V623.177H670.569V601.539Z" fill="#206234"/>
<path fill-rule="evenodd" clip-rule="evenodd" d="M301.341 602.51H461.665V623.885H473.325V602.51H493.535V631.657H473.326V639.43H493.535V650.116H427.658V645.259H404.338V650.116H337.292V622.913H328.547V650.116H247.901V644.287H215.837V650.116H183.77V644.287H173.473V623.885H181.826V614.169H173.473V602.51H289.681V614.169H301.341V602.51Z" fill="#206234"/>
<path fill-rule="evenodd" clip-rule="evenodd" d="M62.3201 602.51H19.5707V623.363H10.8259V602.51H3.05078V658.813H19.5692V669.24H3.05078V688.007H81.7546V653.6H66.2099V643.174H81.7546V602.51H69.1217V622.321H62.3201V602.51Z" fill="#206234"/>
<path fill-rule="evenodd" clip-rule="evenodd" d="M86.8008 602.51H159.482V619.027H165.505V654.003H259.56V660.804H306.2V654.003H324.661V670.519H306.202V676.349H324.661V688.007H165.505H86.8008V636.515H91.4636V615.141H86.8008V602.51ZM161.426 672.462H114.787V681.206H161.426V672.462Z" fill="#206234"/>
<path fill-rule="evenodd" clip-rule="evenodd" d="M349.926 654.003H329.715V688.007H408.419V669.548H395.592V663.718H408.419V654.003H358.671V663.718H349.926V654.003Z" fill="#206234"/>
<path fill-rule="evenodd" clip-rule="evenodd" d="M525.793 602.51H574.377V608.476H581.178V643.27H555.913V651.224H581.178V653.212V688.007H413.082V653.212H481.098V659.177H513.162V651.224H497.13V602.51H512.19V610.464H525.793V602.51ZM436.403 670.113H421.828V685.025H436.403V670.113Z" fill="#206234"/>
<path fill-rule="evenodd" clip-rule="evenodd" d="M586.039 601.539H589.924V618.055H599.641V601.539H653.083V615.14H631.705V620.97H653.083V644.287H586.039V601.539Z" fill="#206234"/>
<rect x="188.633" y="647.202" width="44.696" height="11.6587" transform="rotate(-180 188.633 647.202)" fill="white"/>
<rect x="159.48" y="641.373" width="44.696" height="11.6587" transform="rotate(-180 159.48 641.373)" fill="white"/>
<rect x="608.383" y="619.027" width="44.696" height="11.6587" transform="rotate(-180 608.383 619.027)" fill="white"/>
<rect x="582.152" y="627.771" width="44.696" height="11.6587" transform="rotate(-180 582.152 627.771)" fill="white"/>
<rect x="766.762" y="661.775" width="44.696" height="11.6587" transform="rotate(-180 766.762 661.775)" fill="white"/>
</svg>
