<svg width="1440" height="698" viewBox="0 0 1440 698" fill="none" xmlns="http://www.w3.org/2000/svg">
<rect x="1159.54" y="598.82" width="6.3371" height="6.33647" transform="rotate(180 1159.54 598.82)" fill="white"/>
<rect x="256.508" y="280.94" width="6.3371" height="6.33647" transform="rotate(180 256.508 280.94)" fill="white"/>
<rect x="624.055" y="604.1" width="6.3371" height="6.33647" transform="rotate(180 624.055 604.1)" fill="white"/>
<rect x="1075.27" y="274.334" width="6.3371" height="6.33647" transform="rotate(180 1075.27 274.334)" fill="white"/>
<rect x="1299.34" y="117.983" width="6.3371" height="6.33647" transform="rotate(180 1299.34 117.983)" fill="white"/>
<rect x="672.641" y="423.51" width="6.3371" height="6.33647" transform="rotate(180 672.641 423.51)" fill="white"/>
<rect x="730.734" y="571.362" width="6.3371" height="6.33647" transform="rotate(180 730.734 571.362)" fill="white"/>
<rect x="905.031" y="379.175" width="6.3371" height="6.33647" transform="rotate(180 905.031 379.175)" fill="white"/>
<rect x="427.605" y="196.454" width="6.3371" height="6.33647" transform="rotate(180 427.605 196.454)" fill="white"/>
<rect x="524.25" y="307.369" width="6.3371" height="6.33647" transform="rotate(180 524.25 307.369)" fill="white"/>
<rect x="835.293" y="170.052" width="6.3371" height="6.33647" transform="rotate(180 835.293 170.052)" fill="white"/>
<rect x="915.562" y="236.585" width="6.3371" height="6.33647" transform="rotate(180 915.562 236.585)" fill="white"/>
<rect x="580.016" y="189.962" width="6.3371" height="6.33647" transform="rotate(180 580.016 189.962)" fill="white"/>
<rect x="1192.29" y="35.9304" width="6.3371" height="6.33647" transform="rotate(180 1192.29 35.9304)" fill="white"/>
<rect x="640.957" y="510.109" width="4.22474" height="4.22431" transform="rotate(180 640.957 510.109)" fill="white"/>
<rect x="1017.25" y="179.862" width="4.22474" height="4.22431" transform="rotate(180 1017.25 179.862)" fill="white"/>
<rect x="902.227" y="39.8711" width="4.22474" height="4.22431" transform="rotate(180 902.227 39.8711)" fill="white"/>
<rect x="714.895" y="70.7812" width="4.22474" height="4.22431" transform="rotate(180 714.895 70.7812)" fill="white"/>
<rect x="840.578" y="411.894" width="4.22474" height="4.22431" transform="rotate(180 840.578 411.894)" fill="white"/>
<rect x="1112.02" y="111.968" width="4.22474" height="4.22431" transform="rotate(180 1112.02 111.968)" fill="white"/>
<rect x="1354.23" y="8.87109" width="4.22474" height="4.22431" transform="rotate(180 1354.23 8.87109)" fill="white"/>
<rect x="399.09" y="595.651" width="4.22474" height="4.22431" transform="rotate(180 399.09 595.651)" fill="white"/>
<rect x="311.953" y="520.191" width="4.22474" height="4.22431" transform="rotate(180 311.953 520.191)" fill="white"/>
<rect x="1041.25" y="539.679" width="4.22474" height="4.22431" transform="rotate(180 1041.25 539.679)" fill="white"/>
<rect x="957.227" y="502.871" width="4.22474" height="4.22431" transform="rotate(180 957.227 502.871)" fill="white"/>
<rect x="936.867" y="103.977" width="4.22474" height="4.22431" transform="rotate(180 936.867 103.977)" fill="white"/>
<rect x="1200.73" y="228.136" width="4.22474" height="4.22431" transform="rotate(180 1200.73 228.136)" fill="white"/>
<rect x="1236.23" y="336.871" width="4.22474" height="4.22431" transform="rotate(180 1236.23 336.871)" fill="white"/>
<rect x="895.227" y="536.871" width="4.22474" height="4.22431" transform="rotate(180 895.227 536.871)" fill="white"/>
<rect x="983.156" y="363.314" width="4.22474" height="4.22431" transform="rotate(180 983.156 363.314)" fill="white"/>
<rect x="1068.71" y="42.2668" width="4.22474" height="4.22431" transform="rotate(180 1068.71 42.2668)" fill="white"/>
<rect x="277.625" y="163.716" width="4.22474" height="4.22431" transform="rotate(180 277.625 163.716)" fill="white"/>
<rect x="252.281" y="388.66" width="4.22474" height="4.22431" transform="rotate(180 252.281 388.66)" fill="white"/>
<rect x="1232.23" y="490.871" width="4.22474" height="4.22431" transform="rotate(180 1232.23 490.871)" fill="white"/>
<rect x="259.672" y="61.2761" width="6.3371" height="6.33647" transform="rotate(180 259.672 61.2761)" fill="white"/>
<rect x="455.074" y="58.1099" width="6.3371" height="6.33647" transform="rotate(180 455.074 58.1099)" fill="white"/>
<rect x="253.336" y="626.278" width="6.3371" height="6.33647" transform="rotate(180 253.336 626.278)" fill="white"/>
<rect x="1107.79" y="389.717" width="6.3371" height="6.33647" transform="rotate(180 1107.79 389.717)" fill="white"/>
<rect x="40.2734" y="239.334" width="6.3371" height="6.33647" transform="rotate(180 40.2734 239.334)" fill="white"/>
<rect x="77.0156" y="76.9683" width="4.22474" height="4.22431" transform="rotate(180 77.0156 76.9683)" fill="white"/>
<rect x="165.734" y="193.136" width="4.22474" height="4.22431" transform="rotate(180 165.734 193.136)" fill="white"/>
<rect x="72.793" y="354.717" width="6.3371" height="6.33647" transform="rotate(180 72.793 354.717)" fill="white"/>
<rect x="32.8555" y="582.892" width="4.22474" height="4.22431" transform="rotate(-90 32.8555 582.892)" fill="white"/>
<rect x="172.848" y="467.871" width="4.22474" height="4.22431" transform="rotate(-90 172.848 467.871)" fill="white"/>
<rect x="100.746" y="677.662" width="4.22474" height="4.22431" transform="rotate(-90 100.746 677.662)" fill="white"/>
<rect x="108.738" y="533.513" width="4.22474" height="4.22431" transform="rotate(-90 108.738 533.513)" fill="white"/>
<rect x="1346.42" y="300.236" width="6.3371" height="6.33647" transform="rotate(180 1346.42 300.236)" fill="white"/>
<rect x="1383.16" y="137.871" width="4.22474" height="4.22431" transform="rotate(180 1383.16 137.871)" fill="white"/>
<rect x="1349.34" y="435.983" width="6.3371" height="6.33647" transform="rotate(180 1349.34 435.983)" fill="white"/>
<rect x="1292" y="624.871" width="4.22474" height="4.22431" transform="rotate(-90 1292 624.871)" fill="white"/>
<rect x="1414.88" y="594.416" width="4.22474" height="4.22431" transform="rotate(-90 1414.88 594.416)" fill="white"/>
<rect x="791.992" y="504.828" width="6.3371" height="6.33647" transform="rotate(180 791.992 504.828)" fill="white"/>
<rect x="337.828" y="369.65" width="6.3371" height="6.33647" transform="rotate(180 337.828 369.65)" fill="white"/>
<rect x="448.73" y="426.718" width="6.3371" height="6.33647" transform="rotate(180 448.73 426.718)" fill="white"/>
</svg>
