<svg width="1806" height="1131" viewBox="0 0 1806 1131" fill="none" xmlns="http://www.w3.org/2000/svg">
<rect x="78" y="52.9875" width="12" height="11.9988" fill="white"/>
<rect x="1788" y="654.927" width="12" height="11.9988" fill="white"/>
<rect x="1092" y="42.9885" width="12" height="11.9988" fill="white"/>
<rect x="1176" y="448.948" width="12" height="11.9988" fill="white"/>
<rect x="1000" y="384.954" width="12" height="11.9988" fill="white"/>
<rect x="890" y="104.982" width="12" height="11.9988" fill="white"/>
<rect x="492" y="288.964" width="12" height="11.9988" fill="white"/>
<rect x="1464" y="814.911" width="12" height="11.9988" fill="white"/>
<rect x="692" y="864.906" width="12" height="11.9988" fill="white"/>
<rect x="540" y="738.919" width="12" height="11.9988" fill="white"/>
<rect x="1098" y="950.897" width="12" height="11.9988" fill="white"/>
<rect x="16" y="1118.88" width="12" height="11.9988" fill="white"/>
<rect x="1060" y="220.971" width="8" height="7.9992" fill="white"/>
<rect x="882" y="750.917" width="8" height="7.9992" fill="white"/>
<rect x="920" y="1052.89" width="8" height="7.9992" fill="white"/>
<rect x="682" y="406.952" width="8" height="7.9992" fill="white"/>
<rect x="168" y="974.895" width="8" height="7.9992" fill="white"/>
<rect x="1518" y="58.9871" width="8" height="7.9992" fill="white"/>
<rect x="302" y="164.976" width="8" height="7.9992" fill="white"/>
<rect y="754.917" width="8" height="7.9992" fill="white"/>
<rect x="572" y="48.9878" width="8" height="7.9992" fill="white"/>
<rect x="412" y="498.943" width="8" height="7.9992" fill="white"/>
<rect x="250" y="1106.88" width="8" height="7.9992" fill="white"/>
<rect x="1748" y="876.905" width="8" height="7.9992" fill="white"/>
<rect x="1796" y="450.947" width="8" height="7.9992" fill="white"/>
<rect x="8" y="336.959" width="8" height="7.9992" fill="white"/>
<rect x="1782" y="1070.89" width="12" height="11.9988" fill="white"/>
<rect x="882" y="564.936" width="12" height="11.9988" fill="white"/>
<rect x="1794" y="0.992676" width="12" height="11.9988" fill="white"/>
<rect x="176" y="448.948" width="12" height="11.9988" fill="white"/>
<rect x="774" y="230.97" width="12" height="11.9988" fill="white"/>
<rect x="1634" y="486.944" width="12" height="11.9988" fill="white"/>
</svg>
