<svg width="357" height="341" viewBox="0 0 357 341" fill="none" xmlns="http://www.w3.org/2000/svg">
<path fill-rule="evenodd" clip-rule="evenodd" d="M185.634 340.733L52.2904 340.733V281.475H0.432648V125.923H59.7002L59.7002 59.2578H0.432648V6.10352e-05L281.934 6.10352e-05L281.934 66.6651H356.016L356.016 340.733H281.938V259.253H185.634V340.733Z" fill="#010101"/>
<mask id="path-2-inside-1_244_140" fill="white">
<path fill-rule="evenodd" clip-rule="evenodd" d="M185.634 340.733L52.2904 340.733V281.475H0.432648V125.923H59.7002L59.7002 59.2578H0.432648V6.10352e-05L281.934 6.10352e-05L281.934 66.6651H356.016L356.016 340.733H281.938V259.253H185.634V340.733Z"/>
</mask>
<path d="M52.2904 340.733H49.6771V343.346H52.2904V340.733ZM185.634 340.733V343.346H188.247V340.733H185.634ZM52.2904 281.475H54.9036V278.862H52.2904V281.475ZM0.432621 281.475H-2.18062V284.088H0.432621V281.475ZM0.432621 125.923V123.31H-2.18062V125.923H0.432621ZM59.7002 125.923V128.536H62.3134V125.923H59.7002ZM59.7002 59.2578H62.3134V56.6446H59.7002V59.2578ZM0.432621 59.2578H-2.18062V61.871H0.432621V59.2578ZM0.432621 4.49927e-05V-2.6132H-2.18062V4.49927e-05H0.432621ZM281.934 4.49927e-05H284.547V-2.6132H281.934V4.49927e-05ZM281.934 66.6651H279.321V69.2783H281.934V66.6651ZM356.016 66.6651H358.629V64.0518H356.016V66.6651ZM356.016 340.733V343.346H358.629V340.733H356.016ZM281.938 340.733H279.325V343.346H281.938V340.733ZM281.938 259.253H284.551V256.64H281.938V259.253ZM185.634 259.253V256.64H183.021V259.253H185.634ZM52.2904 343.346L185.634 343.346V338.12L52.2904 338.12V343.346ZM49.6771 281.475V340.733H54.9036V281.475H49.6771ZM0.432621 284.088H52.2904V278.862H0.432621V284.088ZM-2.18062 125.923V281.475H3.04587V125.923H-2.18062ZM59.7002 123.31H0.432621V128.536H59.7002V123.31ZM57.0869 59.2578L57.0869 125.923H62.3134L62.3134 59.2578H57.0869ZM0.432621 61.871H59.7002V56.6446H0.432621V61.871ZM-2.18062 4.49927e-05V59.2578H3.04587V4.49927e-05H-2.18062ZM281.934 -2.6132L0.432621 -2.6132V2.61329L281.934 2.61329V-2.6132ZM284.547 66.6651L284.547 4.49927e-05H279.321L279.321 66.6651H284.547ZM356.016 64.0518H281.934V69.2783H356.016V64.0518ZM358.629 340.733L358.629 66.6651H353.402L353.402 340.733H358.629ZM281.938 343.346H356.016V338.12H281.938V343.346ZM279.325 259.253V340.733H284.551V259.253H279.325ZM185.634 261.866H281.938V256.64H185.634V261.866ZM188.247 340.733V259.253H183.021V340.733H188.247Z" fill="#206234" mask="url(#path-2-inside-1_244_140)"/>
</svg>
