<svg width="591" height="442" viewBox="0 0 591 442" fill="none" xmlns="http://www.w3.org/2000/svg">
<g filter="url(#filter0_b_361_960)">
<rect width="590.462" height="442" fill="black" fill-opacity="0.87"/>
</g>
<rect x="0.846743" y="0.846743" width="588.769" height="440.307" stroke="#206234" stroke-width="1.69349"/>
<path d="M161.17 185.809V172.622H168.613V185.809H166.987V174.103H162.796V185.809H161.17ZM172.959 185.809V172.622H177.204C178.023 172.622 178.733 172.785 179.336 173.11C179.938 173.423 180.401 173.869 180.726 174.447C181.064 175.025 181.232 175.711 181.232 176.506C181.232 177.289 181.064 177.975 180.726 178.565C180.401 179.143 179.938 179.595 179.336 179.92C178.733 180.233 178.023 180.39 177.204 180.39H174.585V185.809H172.959ZM174.585 178.927H177.204C177.914 178.927 178.48 178.71 178.902 178.276C179.336 177.831 179.552 177.241 179.552 176.506C179.552 175.759 179.336 175.169 178.902 174.736C178.48 174.302 177.914 174.085 177.204 174.085H174.585V178.927ZM184.748 185.809V172.622H186.319V180.028C186.319 180.462 186.307 180.926 186.283 181.419C186.271 181.901 186.253 182.365 186.229 182.81C186.205 183.244 186.181 183.611 186.157 183.912L190.167 172.622H192.334V185.809H190.763V178.403C190.763 177.957 190.769 177.493 190.781 177.012C190.805 176.518 190.829 176.054 190.853 175.621C190.889 175.175 190.919 174.808 190.944 174.519L186.915 185.809H184.748ZM196.627 185.809V172.622H200.366C201.57 172.622 202.509 172.923 203.184 173.525C203.87 174.128 204.213 174.965 204.213 176.036C204.213 176.638 204.087 177.162 203.834 177.608C203.581 178.053 203.22 178.397 202.75 178.637C202.293 178.878 201.739 178.993 201.088 178.981V178.71C201.787 178.698 202.389 178.83 202.895 179.107C203.413 179.384 203.81 179.782 204.087 180.299C204.376 180.817 204.52 181.431 204.52 182.142C204.52 182.889 204.364 183.539 204.051 184.093C203.738 184.647 203.292 185.074 202.714 185.375C202.136 185.664 201.444 185.809 200.637 185.809H196.627ZM198.216 184.346H200.456C201.215 184.346 201.811 184.147 202.244 183.75C202.69 183.34 202.913 182.786 202.913 182.088C202.913 181.365 202.69 180.781 202.244 180.335C201.811 179.878 201.215 179.649 200.456 179.649H198.216V184.346ZM198.216 178.24H200.348C201.046 178.24 201.594 178.053 201.992 177.68C202.401 177.307 202.606 176.801 202.606 176.163C202.606 175.524 202.407 175.019 202.01 174.645C201.612 174.272 201.064 174.085 200.366 174.085H198.216V178.24ZM208.578 185.809V172.622H216.165V174.103H210.185V178.186H215.532V179.649H210.185V184.328H216.165V185.809H208.578ZM223.202 185.809V174.085H219.59V172.604H228.441V174.085H224.828V185.809H223.202ZM235.84 185.989C235.382 185.989 235.015 185.857 234.738 185.592C234.473 185.327 234.341 184.972 234.341 184.526C234.341 184.057 234.473 183.683 234.738 183.406C235.015 183.129 235.382 182.991 235.84 182.991C236.298 182.991 236.659 183.129 236.924 183.406C237.201 183.683 237.339 184.057 237.339 184.526C237.339 184.972 237.201 185.327 236.924 185.592C236.659 185.857 236.298 185.989 235.84 185.989ZM243.619 185.809V172.622H245.75L247.123 176.885C247.255 177.271 247.376 177.656 247.484 178.041C247.593 178.415 247.671 178.704 247.719 178.908C247.779 178.704 247.858 178.415 247.954 178.041C248.05 177.656 248.159 177.265 248.279 176.867L249.58 172.622H251.711V185.809H250.122V181.022C250.122 180.492 250.14 179.89 250.176 179.216C250.212 178.541 250.26 177.855 250.32 177.156C250.38 176.446 250.441 175.771 250.501 175.133C250.573 174.483 250.633 173.917 250.682 173.435L248.55 180.028H246.834L244.684 173.435C244.745 173.905 244.805 174.453 244.865 175.079C244.925 175.693 244.979 176.349 245.028 177.048C245.076 177.734 245.118 178.421 245.154 179.107C245.19 179.794 245.208 180.432 245.208 181.022V185.809H243.619ZM255.877 185.809V172.622H263.464V174.103H257.485V178.186H262.831V179.649H257.485V184.328H263.464V185.809H255.877ZM267.575 185.809V172.622H269.201V178.258H273.428V172.622H275.054V185.809H273.428V179.739H269.201V185.809H267.575ZM278.732 185.809L281.441 180.028C280.646 179.788 280.02 179.348 279.563 178.71C279.105 178.071 278.876 177.307 278.876 176.416C278.876 175.657 279.039 174.995 279.364 174.429C279.689 173.863 280.147 173.423 280.737 173.11C281.327 172.785 282.013 172.622 282.796 172.622H286.842V185.809H285.217V180.209H283.121L280.61 185.809H278.732ZM282.796 178.764H285.217V174.067H282.796C282.134 174.067 281.592 174.284 281.17 174.718C280.761 175.139 280.556 175.705 280.556 176.416C280.556 177.114 280.761 177.68 281.17 178.114C281.58 178.547 282.122 178.764 282.796 178.764ZM306.608 185.989C305.789 185.989 305.067 185.845 304.44 185.556C303.814 185.267 303.314 184.857 302.941 184.328C302.58 183.798 302.375 183.178 302.327 182.467H303.953C304.025 183.105 304.302 183.611 304.784 183.984C305.265 184.358 305.873 184.544 306.608 184.544C307.427 184.544 308.071 184.328 308.541 183.894C309.023 183.461 309.263 182.895 309.263 182.196C309.263 181.486 309.023 180.92 308.541 180.498C308.059 180.065 307.415 179.848 306.608 179.848H304.982V178.367H306.59C307.325 178.367 307.915 178.138 308.36 177.68C308.806 177.222 309.029 176.663 309.029 176C309.029 175.326 308.806 174.808 308.36 174.447C307.927 174.073 307.337 173.887 306.59 173.887C305.855 173.887 305.265 174.097 304.82 174.519C304.374 174.928 304.151 175.47 304.151 176.145H302.526C302.526 175.398 302.694 174.748 303.031 174.194C303.369 173.64 303.838 173.212 304.44 172.911C305.055 172.598 305.771 172.442 306.59 172.442C307.854 172.442 308.86 172.731 309.607 173.309C310.353 173.887 310.727 174.712 310.727 175.783C310.727 176.386 310.594 176.927 310.329 177.409C310.076 177.879 309.709 178.246 309.227 178.511C308.758 178.776 308.198 178.902 307.547 178.89V178.619C308.246 178.607 308.848 178.746 309.354 179.035C309.872 179.312 310.269 179.715 310.546 180.245C310.835 180.763 310.98 181.377 310.98 182.088C310.98 182.846 310.799 183.521 310.438 184.111C310.088 184.689 309.583 185.146 308.92 185.484C308.27 185.821 307.499 185.989 306.608 185.989ZM318.613 185.989C317.819 185.989 317.132 185.839 316.554 185.538C315.988 185.237 315.549 184.803 315.236 184.237C314.934 183.659 314.784 182.979 314.784 182.196V176.235C314.784 175.44 314.934 174.76 315.236 174.194C315.549 173.628 315.988 173.194 316.554 172.893C317.132 172.592 317.819 172.442 318.613 172.442C319.408 172.442 320.089 172.592 320.655 172.893C321.233 173.194 321.672 173.628 321.973 174.194C322.286 174.76 322.443 175.434 322.443 176.217V182.196C322.443 182.979 322.286 183.659 321.973 184.237C321.672 184.803 321.233 185.237 320.655 185.538C320.089 185.839 319.408 185.989 318.613 185.989ZM318.613 184.526C319.324 184.526 319.866 184.328 320.239 183.93C320.625 183.521 320.817 182.943 320.817 182.196V176.235C320.817 175.488 320.625 174.916 320.239 174.519C319.866 174.109 319.324 173.905 318.613 173.905C317.915 173.905 317.373 174.109 316.988 174.519C316.602 174.916 316.41 175.488 316.41 176.235V182.196C316.41 182.943 316.602 183.521 316.988 183.93C317.373 184.328 317.915 184.526 318.613 184.526ZM326.699 185.809V172.622H330.438C331.643 172.622 332.582 172.923 333.256 173.525C333.943 174.128 334.286 174.965 334.286 176.036C334.286 176.638 334.159 177.162 333.907 177.608C333.654 178.053 333.292 178.397 332.823 178.637C332.365 178.878 331.811 178.993 331.161 178.981V178.71C331.859 178.698 332.461 178.83 332.967 179.107C333.485 179.384 333.882 179.782 334.159 180.299C334.448 180.817 334.593 181.431 334.593 182.142C334.593 182.889 334.436 183.539 334.123 184.093C333.81 184.647 333.365 185.074 332.787 185.375C332.209 185.664 331.516 185.809 330.709 185.809H326.699ZM328.289 184.346H330.529C331.287 184.346 331.883 184.147 332.317 183.75C332.762 183.34 332.985 182.786 332.985 182.088C332.985 181.365 332.762 180.781 332.317 180.335C331.883 179.878 331.287 179.649 330.529 179.649H328.289V184.346ZM328.289 178.24H330.42C331.119 178.24 331.667 178.053 332.064 177.68C332.473 177.307 332.678 176.801 332.678 176.163C332.678 175.524 332.479 175.019 332.082 174.645C331.685 174.272 331.137 174.085 330.438 174.085H328.289V178.24ZM340.294 185.809L341.631 182.395L337.747 172.622H339.517L341.884 179.071C342.04 179.48 342.167 179.872 342.263 180.245C342.359 180.606 342.42 180.877 342.444 181.058C342.468 180.877 342.522 180.606 342.606 180.245C342.691 179.872 342.799 179.48 342.931 179.071L345.009 172.622H346.779L342.028 185.809H340.294ZM353.275 185.809V174.085H349.662V172.604H358.513V174.085H354.901V185.809H353.275ZM373.98 185.809V172.622H375.606V178.276H377.557L380.483 172.622H382.253L378.984 178.963L382.434 185.809H380.573L377.503 179.703H375.606V185.809H373.98ZM384.504 185.899V184.382H384.829C385.359 184.382 385.739 184.147 385.967 183.677C386.208 183.196 386.335 182.377 386.347 181.221L386.491 172.622H393.283V185.809H391.658V174.103H388.099L387.972 181.221C387.948 182.834 387.689 184.021 387.196 184.779C386.714 185.526 385.955 185.899 384.92 185.899H384.504ZM397.774 185.809V172.622H405.361V174.103H399.382V178.186H404.729V179.649H399.382V184.328H405.361V185.809H397.774ZM409.418 185.809V172.622H410.99V180.028C410.99 180.462 410.978 180.926 410.954 181.419C410.942 181.901 410.924 182.365 410.899 182.81C410.875 183.244 410.851 183.611 410.827 183.912L414.837 172.622H417.005V185.809H415.433V178.403C415.433 177.957 415.44 177.493 415.452 177.012C415.476 176.518 415.5 176.054 415.524 175.621C415.56 175.175 415.59 174.808 415.614 174.519L411.586 185.809H409.418ZM413.212 171.267C412.345 171.267 411.646 171.027 411.116 170.545C410.586 170.063 410.321 169.431 410.321 168.648H411.604C411.604 169.118 411.748 169.497 412.037 169.786C412.327 170.075 412.712 170.22 413.194 170.22C413.687 170.22 414.079 170.075 414.368 169.786C414.669 169.497 414.819 169.118 414.819 168.648H416.102C416.102 169.431 415.837 170.063 415.307 170.545C414.777 171.027 414.079 171.267 413.212 171.267ZM424.458 181.925L424.079 174.79V172.622H425.994V174.79L425.614 181.925H424.458ZM424.765 185.899C424.452 185.899 424.193 185.797 423.989 185.592C423.784 185.387 423.682 185.128 423.682 184.815C423.682 184.502 423.784 184.243 423.989 184.039C424.193 183.834 424.452 183.731 424.765 183.731H425.307C425.657 183.731 425.922 183.834 426.102 184.039C426.295 184.231 426.391 184.484 426.391 184.797C426.391 185.11 426.289 185.375 426.084 185.592C425.879 185.797 425.62 185.899 425.307 185.899H424.765ZM118.537 209.338V205.418H119.35C119.483 205.177 119.621 204.852 119.766 204.442C119.91 204.033 120.037 203.569 120.145 203.052C120.253 202.534 120.314 201.992 120.326 201.426L120.452 193.622H127.208V205.418H128.472V209.338H127.027V206.809H119.982V209.338H118.537ZM121.048 205.418H125.582V195.067H122.005L121.915 201.426C121.903 202.353 121.801 203.172 121.608 203.882C121.415 204.593 121.229 205.105 121.048 205.418ZM135.33 206.989C134.535 206.989 133.848 206.839 133.27 206.538C132.704 206.237 132.265 205.803 131.952 205.237C131.651 204.659 131.5 203.979 131.5 203.196V197.235C131.5 196.44 131.651 195.76 131.952 195.194C132.265 194.628 132.704 194.194 133.27 193.893C133.848 193.592 134.535 193.442 135.33 193.442C136.124 193.442 136.805 193.592 137.371 193.893C137.949 194.194 138.388 194.628 138.689 195.194C139.003 195.76 139.159 196.434 139.159 197.217V203.196C139.159 203.979 139.003 204.659 138.689 205.237C138.388 205.803 137.949 206.237 137.371 206.538C136.805 206.839 136.124 206.989 135.33 206.989ZM135.33 205.526C136.04 205.526 136.582 205.328 136.955 204.93C137.341 204.521 137.533 203.943 137.533 203.196V197.235C137.533 196.488 137.341 195.916 136.955 195.519C136.582 195.109 136.04 194.905 135.33 194.905C134.631 194.905 134.089 195.109 133.704 195.519C133.318 195.916 133.126 196.488 133.126 197.235V203.196C133.126 203.943 133.318 204.521 133.704 204.93C134.089 205.328 134.631 205.526 135.33 205.526ZM143.433 206.809V193.622H150.767V195.103H145.059V199.078H147.245C148.088 199.078 148.81 199.24 149.412 199.565C150.014 199.878 150.478 200.324 150.803 200.902C151.14 201.48 151.309 202.16 151.309 202.943C151.309 203.726 151.14 204.406 150.803 204.984C150.478 205.562 150.014 206.014 149.412 206.339C148.81 206.652 148.088 206.809 147.245 206.809H143.433ZM145.059 205.328H147.245C147.991 205.328 148.575 205.117 148.997 204.695C149.418 204.262 149.629 203.678 149.629 202.943C149.629 202.197 149.418 201.612 148.997 201.191C148.575 200.769 147.991 200.559 147.245 200.559H145.059V205.328ZM155.222 206.809V193.622H159.467C160.286 193.622 160.996 193.785 161.598 194.11C162.2 194.423 162.664 194.869 162.989 195.447C163.326 196.025 163.495 196.711 163.495 197.506C163.495 198.289 163.326 198.975 162.989 199.565C162.664 200.143 162.2 200.595 161.598 200.92C160.996 201.233 160.286 201.39 159.467 201.39H156.848V206.809H155.222ZM156.848 199.927H159.467C160.177 199.927 160.743 199.71 161.165 199.276C161.598 198.831 161.815 198.241 161.815 197.506C161.815 196.759 161.598 196.169 161.165 195.736C160.743 195.302 160.177 195.085 159.467 195.085H156.848V199.927ZM170.804 206.989C170.009 206.989 169.323 206.839 168.745 206.538C168.179 206.237 167.739 205.803 167.426 205.237C167.125 204.659 166.974 203.979 166.974 203.196V197.235C166.974 196.44 167.125 195.76 167.426 195.194C167.739 194.628 168.179 194.194 168.745 193.893C169.323 193.592 170.009 193.442 170.804 193.442C171.599 193.442 172.279 193.592 172.845 193.893C173.423 194.194 173.863 194.628 174.164 195.194C174.477 195.76 174.633 196.434 174.633 197.217V203.196C174.633 203.979 174.477 204.659 174.164 205.237C173.863 205.803 173.423 206.237 172.845 206.538C172.279 206.839 171.599 206.989 170.804 206.989ZM170.804 205.526C171.514 205.526 172.056 205.328 172.43 204.93C172.815 204.521 173.008 203.943 173.008 203.196V197.235C173.008 196.488 172.815 195.916 172.43 195.519C172.056 195.109 171.514 194.905 170.804 194.905C170.105 194.905 169.563 195.109 169.178 195.519C168.793 195.916 168.6 196.488 168.6 197.235V203.196C168.6 203.943 168.793 204.521 169.178 204.93C169.563 205.328 170.105 205.526 170.804 205.526ZM190.732 206.809V193.622H198.175V206.809H196.549V195.103H192.358V206.809H190.732ZM206.278 206.989C205.483 206.989 204.797 206.839 204.219 206.538C203.653 206.237 203.213 205.803 202.9 205.237C202.599 204.659 202.449 203.979 202.449 203.196V197.235C202.449 196.44 202.599 195.76 202.9 195.194C203.213 194.628 203.653 194.194 204.219 193.893C204.797 193.592 205.483 193.442 206.278 193.442C207.073 193.442 207.753 193.592 208.319 193.893C208.897 194.194 209.337 194.628 209.638 195.194C209.951 195.76 210.108 196.434 210.108 197.217V203.196C210.108 203.979 209.951 204.659 209.638 205.237C209.337 205.803 208.897 206.237 208.319 206.538C207.753 206.839 207.073 206.989 206.278 206.989ZM206.278 205.526C206.989 205.526 207.531 205.328 207.904 204.93C208.289 204.521 208.482 203.943 208.482 203.196V197.235C208.482 196.488 208.289 195.916 207.904 195.519C207.531 195.109 206.989 194.905 206.278 194.905C205.58 194.905 205.038 195.109 204.652 195.519C204.267 195.916 204.074 196.488 204.074 197.235V203.196C204.074 203.943 204.267 204.521 204.652 204.93C205.038 205.328 205.58 205.526 206.278 205.526ZM212.901 206.809L215.285 200.017L213.081 193.622H214.779L216.658 199.475H217.417V193.622H218.789V199.475H219.566L221.427 193.622H223.125L220.957 200.035L223.305 206.809H221.625L219.602 200.631H218.789V206.809H217.417V200.631H216.604L214.562 206.809H212.901ZM225.412 206.809L228.844 193.622H231.03L234.444 206.809H232.8L231.933 203.304H227.941L227.074 206.809H225.412ZM228.266 201.932H231.59L230.578 197.867C230.385 197.097 230.235 196.452 230.126 195.934C230.018 195.417 229.952 195.079 229.928 194.923C229.904 195.079 229.837 195.417 229.729 195.934C229.621 196.452 229.47 197.09 229.277 197.849L228.266 201.932ZM236.695 206.899V205.382H237.02C237.55 205.382 237.929 205.147 238.158 204.677C238.399 204.196 238.525 203.377 238.537 202.221L238.682 193.622H245.474V206.809H243.848V195.103H240.289L240.163 202.221C240.139 203.834 239.88 205.021 239.386 205.779C238.904 206.526 238.146 206.899 237.11 206.899H236.695ZM253.577 206.989C252.782 206.989 252.096 206.839 251.518 206.538C250.952 206.237 250.512 205.803 250.199 205.237C249.898 204.659 249.748 203.979 249.748 203.196V197.235C249.748 196.44 249.898 195.76 250.199 195.194C250.512 194.628 250.952 194.194 251.518 193.893C252.096 193.592 252.782 193.442 253.577 193.442C254.372 193.442 255.052 193.592 255.618 193.893C256.197 194.194 256.636 194.628 256.937 195.194C257.25 195.76 257.407 196.434 257.407 197.217V203.196C257.407 203.979 257.25 204.659 256.937 205.237C256.636 205.803 256.197 206.237 255.618 206.538C255.052 206.839 254.372 206.989 253.577 206.989ZM253.577 205.526C254.288 205.526 254.83 205.328 255.203 204.93C255.588 204.521 255.781 203.943 255.781 203.196V197.235C255.781 196.488 255.588 195.916 255.203 195.519C254.83 195.109 254.288 194.905 253.577 194.905C252.879 194.905 252.337 195.109 251.952 195.519C251.566 195.916 251.373 196.488 251.373 197.235V203.196C251.373 203.943 251.566 204.521 251.952 204.93C252.337 205.328 252.879 205.526 253.577 205.526ZM261.663 206.809V193.622H265.402C266.606 193.622 267.546 193.923 268.22 194.525C268.906 195.128 269.25 195.965 269.25 197.036C269.25 197.638 269.123 198.162 268.87 198.608C268.617 199.053 268.256 199.397 267.786 199.637C267.329 199.878 266.775 199.993 266.125 199.981V199.71C266.823 199.698 267.425 199.83 267.931 200.107C268.449 200.384 268.846 200.782 269.123 201.299C269.412 201.817 269.557 202.431 269.557 203.142C269.557 203.889 269.4 204.539 269.087 205.093C268.774 205.647 268.328 206.074 267.75 206.375C267.172 206.664 266.48 206.809 265.673 206.809H261.663ZM263.252 205.346H265.492C266.251 205.346 266.847 205.147 267.281 204.75C267.726 204.34 267.949 203.786 267.949 203.088C267.949 202.365 267.726 201.781 267.281 201.335C266.847 200.878 266.251 200.649 265.492 200.649H263.252V205.346ZM263.252 199.24H265.384C266.082 199.24 266.63 199.053 267.028 198.68C267.437 198.307 267.642 197.801 267.642 197.163C267.642 196.524 267.443 196.019 267.046 195.645C266.648 195.272 266.1 195.085 265.402 195.085H263.252V199.24ZM272.711 206.809L276.143 193.622H278.329L281.743 206.809H280.099L279.232 203.304H275.24L274.373 206.809H272.711ZM275.565 201.932H278.889L277.877 197.867C277.684 197.097 277.534 196.452 277.426 195.934C277.317 195.417 277.251 195.079 277.227 194.923C277.203 195.079 277.136 195.417 277.028 195.934C276.92 196.452 276.769 197.09 276.577 197.849L275.565 201.932ZM288.239 206.809V195.085H284.626V193.604H293.477V195.085H289.864V206.809H288.239ZM297.155 206.809V193.622H298.781V199.041H301.418C302.213 199.041 302.906 199.204 303.496 199.529C304.098 199.854 304.561 200.306 304.887 200.884C305.224 201.462 305.392 202.142 305.392 202.925C305.392 203.696 305.224 204.376 304.887 204.966C304.561 205.544 304.098 205.996 303.496 206.321C302.906 206.646 302.213 206.809 301.418 206.809H297.155ZM298.781 205.328H301.328C302.038 205.328 302.61 205.111 303.044 204.677C303.49 204.232 303.712 203.648 303.712 202.925C303.712 202.203 303.49 201.625 303.044 201.191C302.61 200.745 302.038 200.523 301.328 200.523H298.781V205.328ZM320.787 206.809V193.622H324.526C325.73 193.622 326.669 193.923 327.344 194.525C328.03 195.128 328.373 195.965 328.373 197.036C328.373 197.638 328.247 198.162 327.994 198.608C327.741 199.053 327.38 199.397 326.91 199.637C326.453 199.878 325.899 199.993 325.248 199.981V199.71C325.947 199.698 326.549 199.83 327.055 200.107C327.573 200.384 327.97 200.782 328.247 201.299C328.536 201.817 328.681 202.431 328.681 203.142C328.681 203.889 328.524 204.539 328.211 205.093C327.898 205.647 327.452 206.074 326.874 206.375C326.296 206.664 325.604 206.809 324.797 206.809H320.787ZM322.376 205.346H324.616C325.375 205.346 325.971 205.147 326.405 204.75C326.85 204.34 327.073 203.786 327.073 203.088C327.073 202.365 326.85 201.781 326.405 201.335C325.971 200.878 325.375 200.649 324.616 200.649H322.376V205.346ZM322.376 199.24H324.508C325.206 199.24 325.754 199.053 326.152 198.68C326.561 198.307 326.766 197.801 326.766 197.163C326.766 196.524 326.567 196.019 326.17 195.645C325.772 195.272 325.224 195.085 324.526 195.085H322.376V199.24ZM344.129 206.809V193.622H346.261L347.633 197.885C347.766 198.271 347.886 198.656 347.995 199.041C348.103 199.415 348.181 199.704 348.23 199.908C348.29 199.704 348.368 199.415 348.464 199.041C348.561 198.656 348.669 198.265 348.79 197.867L350.09 193.622H352.222V206.809H350.632V202.022C350.632 201.492 350.65 200.89 350.686 200.216C350.722 199.541 350.771 198.855 350.831 198.156C350.891 197.446 350.951 196.771 351.011 196.133C351.084 195.483 351.144 194.917 351.192 194.435L349.061 201.028H347.344L345.195 194.435C345.255 194.905 345.315 195.453 345.376 196.079C345.436 196.693 345.49 197.349 345.538 198.048C345.586 198.734 345.628 199.421 345.665 200.107C345.701 200.794 345.719 201.432 345.719 202.022V206.809H344.129ZM360 206.989C359.205 206.989 358.519 206.839 357.941 206.538C357.375 206.237 356.935 205.803 356.622 205.237C356.321 204.659 356.171 203.979 356.171 203.196V197.235C356.171 196.44 356.321 195.76 356.622 195.194C356.935 194.628 357.375 194.194 357.941 193.893C358.519 193.592 359.205 193.442 360 193.442C360.795 193.442 361.475 193.592 362.041 193.893C362.619 194.194 363.059 194.628 363.36 195.194C363.673 195.76 363.83 196.434 363.83 197.217V203.196C363.83 203.979 363.673 204.659 363.36 205.237C363.059 205.803 362.619 206.237 362.041 206.538C361.475 206.839 360.795 206.989 360 206.989ZM360 205.526C360.711 205.526 361.253 205.328 361.626 204.93C362.011 204.521 362.204 203.943 362.204 203.196V197.235C362.204 196.488 362.011 195.916 361.626 195.519C361.253 195.109 360.711 194.905 360 194.905C359.302 194.905 358.76 195.109 358.374 195.519C357.989 195.916 357.796 196.488 357.796 197.235V203.196C357.796 203.943 357.989 204.521 358.374 204.93C358.76 205.328 359.302 205.526 360 205.526ZM373.433 206.989C372.505 206.989 371.771 206.682 371.229 206.068C370.687 205.454 370.416 204.617 370.416 203.557V200.757H368.989V206.809H367.49V193.622H368.989V199.312H370.416V196.874C370.416 195.802 370.681 194.965 371.211 194.363C371.753 193.749 372.493 193.442 373.433 193.442C374.396 193.442 375.149 193.749 375.691 194.363C376.245 194.977 376.522 195.814 376.522 196.874V203.557C376.522 204.617 376.245 205.454 375.691 206.068C375.149 206.682 374.396 206.989 373.433 206.989ZM373.433 205.58C373.95 205.58 374.342 205.406 374.607 205.057C374.884 204.707 375.022 204.208 375.022 203.557V196.874C375.022 196.223 374.884 195.724 374.607 195.374C374.342 195.025 373.95 194.851 373.433 194.851C372.915 194.851 372.517 195.025 372.24 195.374C371.976 195.724 371.843 196.223 371.843 196.874V203.557C371.843 204.208 371.976 204.707 372.24 205.057C372.517 205.406 372.915 205.58 373.433 205.58ZM392.042 206.809V193.622H399.719V195.103H393.668V206.809H392.042ZM407.299 206.989C406.504 206.989 405.818 206.839 405.24 206.538C404.674 206.237 404.234 205.803 403.921 205.237C403.62 204.659 403.47 203.979 403.47 203.196V197.235C403.47 196.44 403.62 195.76 403.921 195.194C404.234 194.628 404.674 194.194 405.24 193.893C405.818 193.592 406.504 193.442 407.299 193.442C408.094 193.442 408.774 193.592 409.34 193.893C409.919 194.194 410.358 194.628 410.659 195.194C410.972 195.76 411.129 196.434 411.129 197.217V203.196C411.129 203.979 410.972 204.659 410.659 205.237C410.358 205.803 409.919 206.237 409.34 206.538C408.774 206.839 408.094 206.989 407.299 206.989ZM407.299 205.526C408.01 205.526 408.552 205.328 408.925 204.93C409.31 204.521 409.503 203.943 409.503 203.196V197.235C409.503 196.488 409.31 195.916 408.925 195.519C408.552 195.109 408.01 194.905 407.299 194.905C406.601 194.905 406.059 195.109 405.674 195.519C405.288 195.916 405.095 196.488 405.095 197.235V203.196C405.095 203.943 405.288 204.521 405.674 204.93C406.059 205.328 406.601 205.526 407.299 205.526ZM414.066 206.899V205.382H414.391C414.921 205.382 415.301 205.147 415.529 204.677C415.77 204.196 415.897 203.377 415.909 202.221L416.053 193.622H422.845V206.809H421.219V195.103H417.661L417.534 202.221C417.51 203.834 417.251 205.021 416.758 205.779C416.276 206.526 415.517 206.899 414.482 206.899H414.066ZM430.949 206.989C430.154 206.989 429.468 206.839 428.89 206.538C428.324 206.237 427.884 205.803 427.571 205.237C427.27 204.659 427.119 203.979 427.119 203.196V197.235C427.119 196.44 427.27 195.76 427.571 195.194C427.884 194.628 428.324 194.194 428.89 193.893C429.468 193.592 430.154 193.442 430.949 193.442C431.744 193.442 432.424 193.592 432.99 193.893C433.568 194.194 434.008 194.628 434.309 195.194C434.622 195.76 434.778 196.434 434.778 197.217V203.196C434.778 203.979 434.622 204.659 434.309 205.237C434.008 205.803 433.568 206.237 432.99 206.538C432.424 206.839 431.744 206.989 430.949 206.989ZM430.949 205.526C431.659 205.526 432.201 205.328 432.575 204.93C432.96 204.521 433.153 203.943 433.153 203.196V197.235C433.153 196.488 432.96 195.916 432.575 195.519C432.201 195.109 431.659 194.905 430.949 194.905C430.25 194.905 429.708 195.109 429.323 195.519C428.938 195.916 428.745 196.488 428.745 197.235V203.196C428.745 203.943 428.938 204.521 429.323 204.93C429.708 205.328 430.25 205.526 430.949 205.526ZM439.034 206.809V193.622H442.774C443.978 193.622 444.917 193.923 445.592 194.525C446.278 195.128 446.621 195.965 446.621 197.036C446.621 197.638 446.495 198.162 446.242 198.608C445.989 199.053 445.628 199.397 445.158 199.637C444.7 199.878 444.146 199.993 443.496 199.981V199.71C444.195 199.698 444.797 199.83 445.303 200.107C445.82 200.384 446.218 200.782 446.495 201.299C446.784 201.817 446.928 202.431 446.928 203.142C446.928 203.889 446.772 204.539 446.459 205.093C446.146 205.647 445.7 206.074 445.122 206.375C444.544 206.664 443.851 206.809 443.045 206.809H439.034ZM440.624 205.346H442.864C443.623 205.346 444.219 205.147 444.652 204.75C445.098 204.34 445.321 203.786 445.321 203.088C445.321 202.365 445.098 201.781 444.652 201.335C444.219 200.878 443.623 200.649 442.864 200.649H440.624V205.346ZM440.624 199.24H442.756C443.454 199.24 444.002 199.053 444.399 198.68C444.809 198.307 445.014 197.801 445.014 197.163C445.014 196.524 444.815 196.019 444.417 195.645C444.02 195.272 443.472 195.085 442.774 195.085H440.624V199.24ZM452.629 206.809L453.966 203.395L450.082 193.622H451.853L454.219 200.071C454.376 200.48 454.502 200.872 454.598 201.245C454.695 201.606 454.755 201.877 454.779 202.058C454.803 201.877 454.857 201.606 454.942 201.245C455.026 200.872 455.134 200.48 455.267 200.071L457.344 193.622H459.114L454.364 206.809H452.629ZM466.423 206.989C465.966 206.989 465.598 206.857 465.321 206.592C465.056 206.327 464.924 205.972 464.924 205.526C464.924 205.057 465.056 204.683 465.321 204.406C465.598 204.129 465.966 203.991 466.423 203.991C466.881 203.991 467.242 204.129 467.507 204.406C467.784 204.683 467.922 205.057 467.922 205.526C467.922 205.972 467.784 206.327 467.507 206.592C467.242 206.857 466.881 206.989 466.423 206.989ZM122.692 227.809V216.085H119.079V214.604H127.93V216.085H124.318V227.809H122.692ZM131.59 227.809V214.622H135.33C136.534 214.622 137.473 214.923 138.148 215.525C138.834 216.128 139.177 216.965 139.177 218.036C139.177 218.638 139.051 219.162 138.798 219.608C138.545 220.053 138.184 220.397 137.714 220.637C137.256 220.878 136.702 220.993 136.052 220.981V220.71C136.751 220.698 137.353 220.83 137.858 221.107C138.376 221.384 138.774 221.782 139.051 222.299C139.34 222.817 139.484 223.431 139.484 224.142C139.484 224.889 139.328 225.539 139.015 226.093C138.701 226.647 138.256 227.074 137.678 227.375C137.1 227.664 136.407 227.809 135.601 227.809H131.59ZM133.18 226.346H135.42C136.179 226.346 136.775 226.147 137.208 225.75C137.654 225.34 137.877 224.786 137.877 224.088C137.877 223.365 137.654 222.781 137.208 222.335C136.775 221.878 136.179 221.649 135.42 221.649H133.18V226.346ZM133.18 220.24H135.311C136.01 220.24 136.558 220.053 136.955 219.68C137.365 219.307 137.569 218.801 137.569 218.163C137.569 217.524 137.371 217.019 136.973 216.645C136.576 216.272 136.028 216.085 135.33 216.085H133.18V220.24ZM147.154 227.989C146.36 227.989 145.673 227.839 145.095 227.538C144.529 227.237 144.089 226.803 143.776 226.237C143.475 225.659 143.325 224.979 143.325 224.196V218.235C143.325 217.44 143.475 216.76 143.776 216.194C144.089 215.628 144.529 215.194 145.095 214.893C145.673 214.592 146.36 214.442 147.154 214.442C147.949 214.442 148.63 214.592 149.196 214.893C149.774 215.194 150.213 215.628 150.514 216.194C150.827 216.76 150.984 217.434 150.984 218.217V224.196C150.984 224.979 150.827 225.659 150.514 226.237C150.213 226.803 149.774 227.237 149.196 227.538C148.63 227.839 147.949 227.989 147.154 227.989ZM147.154 226.526C147.865 226.526 148.407 226.328 148.78 225.93C149.165 225.521 149.358 224.943 149.358 224.196V218.235C149.358 217.488 149.165 216.916 148.78 216.519C148.407 216.109 147.865 215.905 147.154 215.905C146.456 215.905 145.914 216.109 145.529 216.519C145.143 216.916 144.951 217.488 144.951 218.235V224.196C144.951 224.943 145.143 225.521 145.529 225.93C145.914 226.328 146.456 226.526 147.154 226.526ZM155.366 227.809V214.622H162.953V216.103H156.974V220.186H162.321V221.649H156.974V226.328H162.953V227.809H155.366ZM167.01 227.809V214.622H168.582V222.028C168.582 222.462 168.57 222.926 168.546 223.419C168.534 223.901 168.516 224.365 168.492 224.81C168.468 225.244 168.444 225.611 168.419 225.912L172.43 214.622H174.597V227.809H173.026V220.403C173.026 219.957 173.032 219.493 173.044 219.012C173.068 218.518 173.092 218.054 173.116 217.621C173.152 217.175 173.182 216.808 173.206 216.519L169.178 227.809H167.01ZM170.804 213.267C169.937 213.267 169.238 213.027 168.708 212.545C168.179 212.063 167.914 211.431 167.914 210.648H169.196C169.196 211.118 169.341 211.497 169.63 211.786C169.919 212.075 170.304 212.22 170.786 212.22C171.28 212.22 171.671 212.075 171.96 211.786C172.261 211.497 172.412 211.118 172.412 210.648H173.694C173.694 211.431 173.429 212.063 172.899 212.545C172.369 213.027 171.671 213.267 170.804 213.267ZM194.273 227.989C193.454 227.989 192.731 227.845 192.105 227.556C191.479 227.267 190.979 226.857 190.606 226.328C190.245 225.798 190.04 225.178 189.992 224.467H191.617C191.69 225.105 191.967 225.611 192.448 225.984C192.93 226.358 193.538 226.544 194.273 226.544C195.092 226.544 195.736 226.328 196.206 225.894C196.687 225.461 196.928 224.895 196.928 224.196C196.928 223.486 196.687 222.92 196.206 222.498C195.724 222.065 195.08 221.848 194.273 221.848H192.647V220.367H194.255C194.989 220.367 195.579 220.138 196.025 219.68C196.471 219.222 196.693 218.663 196.693 218C196.693 217.326 196.471 216.808 196.025 216.447C195.591 216.073 195.001 215.887 194.255 215.887C193.52 215.887 192.93 216.097 192.484 216.519C192.039 216.928 191.816 217.47 191.816 218.145H190.19C190.19 217.398 190.359 216.748 190.696 216.194C191.033 215.64 191.503 215.212 192.105 214.911C192.719 214.598 193.436 214.442 194.255 214.442C195.519 214.442 196.525 214.731 197.271 215.309C198.018 215.887 198.391 216.712 198.391 217.783C198.391 218.386 198.259 218.927 197.994 219.409C197.741 219.879 197.374 220.246 196.892 220.511C196.422 220.776 195.862 220.902 195.212 220.89V220.619C195.911 220.607 196.513 220.746 197.018 221.035C197.536 221.312 197.934 221.715 198.211 222.245C198.5 222.763 198.644 223.377 198.644 224.088C198.644 224.846 198.464 225.521 198.102 226.111C197.753 226.689 197.247 227.146 196.585 227.484C195.935 227.821 195.164 227.989 194.273 227.989ZM201.762 227.809L205.194 214.622H207.38L210.794 227.809H209.15L208.283 224.304H204.291L203.424 227.809H201.762ZM204.616 222.932H207.94L206.928 218.867C206.736 218.097 206.585 217.452 206.477 216.934C206.369 216.417 206.302 216.079 206.278 215.923C206.254 216.079 206.188 216.417 206.079 216.934C205.971 217.452 205.821 218.09 205.628 218.849L204.616 222.932ZM213.135 230.338V226.418H213.948C214.081 226.177 214.219 225.852 214.364 225.442C214.508 225.033 214.635 224.569 214.743 224.052C214.851 223.534 214.912 222.992 214.924 222.426L215.05 214.622H221.806V226.418H223.071V230.338H221.625V227.809H214.58V230.338H213.135ZM215.646 226.418H220.18V216.067H216.604L216.513 222.426C216.501 223.353 216.399 224.172 216.206 224.882C216.014 225.593 215.827 226.105 215.646 226.418ZM225.412 227.809L228.844 214.622H231.03L234.444 227.809H232.8L231.933 224.304H227.941L227.074 227.809H225.412ZM228.266 222.932H231.59L230.578 218.867C230.385 218.097 230.235 217.452 230.126 216.934C230.018 216.417 229.952 216.079 229.928 215.923C229.904 216.079 229.837 216.417 229.729 216.934C229.621 217.452 229.47 218.09 229.277 218.849L228.266 222.932ZM243.83 227.809V222.733C243.673 222.769 243.378 222.811 242.945 222.859C242.523 222.895 242.005 222.914 241.391 222.914C240.259 222.914 239.356 222.57 238.682 221.884C238.019 221.197 237.688 220.276 237.688 219.12V214.622H239.314V219.12C239.314 219.831 239.525 220.403 239.946 220.836C240.38 221.258 240.952 221.468 241.662 221.468C242.24 221.468 242.716 221.45 243.089 221.414C243.463 221.366 243.709 221.324 243.83 221.288V214.622H245.456V227.809H243.83ZM249.964 227.809V214.622H257.551V216.103H251.572V220.186H256.919V221.649H251.572V226.328H257.551V227.809H249.964ZM261.609 227.809V214.622H263.18V222.028C263.18 222.462 263.168 222.926 263.144 223.419C263.132 223.901 263.114 224.365 263.09 224.81C263.066 225.244 263.042 225.611 263.018 225.912L267.028 214.622H269.195V227.809H267.624V220.403C267.624 219.957 267.63 219.493 267.642 219.012C267.666 218.518 267.69 218.054 267.714 217.621C267.75 217.175 267.78 216.808 267.805 216.519L263.776 227.809H261.609ZM265.402 213.267C264.535 213.267 263.836 213.027 263.307 212.545C262.777 212.063 262.512 211.431 262.512 210.648H263.794C263.794 211.118 263.939 211.497 264.228 211.786C264.517 212.075 264.902 212.22 265.384 212.22C265.878 212.22 266.269 212.075 266.558 211.786C266.859 211.497 267.01 211.118 267.01 210.648H268.292C268.292 211.431 268.027 212.063 267.497 212.545C266.968 213.027 266.269 213.267 265.402 213.267ZM284.644 227.809L287.354 222.028C286.559 221.788 285.933 221.348 285.475 220.71C285.017 220.071 284.789 219.307 284.789 218.416C284.789 217.657 284.951 216.995 285.276 216.429C285.601 215.863 286.059 215.423 286.649 215.11C287.239 214.785 287.926 214.622 288.708 214.622H292.755V227.809H291.129V222.209H289.034L286.523 227.809H284.644ZM288.708 220.764H291.129V216.067H288.708C288.046 216.067 287.504 216.284 287.083 216.718C286.673 217.139 286.468 217.705 286.468 218.416C286.468 219.114 286.673 219.68 287.083 220.114C287.492 220.547 288.034 220.764 288.708 220.764ZM297.137 227.809V214.622H300.876C302.081 214.622 303.02 214.923 303.694 215.525C304.381 216.128 304.724 216.965 304.724 218.036C304.724 218.638 304.597 219.162 304.345 219.608C304.092 220.053 303.73 220.397 303.261 220.637C302.803 220.878 302.249 220.993 301.599 220.981V220.71C302.297 220.698 302.899 220.83 303.405 221.107C303.923 221.384 304.321 221.782 304.597 222.299C304.887 222.817 305.031 223.431 305.031 224.142C305.031 224.889 304.874 225.539 304.561 226.093C304.248 226.647 303.803 227.074 303.225 227.375C302.647 227.664 301.954 227.809 301.147 227.809H297.137ZM298.727 226.346H300.967C301.725 226.346 302.321 226.147 302.755 225.75C303.201 225.34 303.423 224.786 303.423 224.088C303.423 223.365 303.201 222.781 302.755 222.335C302.321 221.878 301.725 221.649 300.967 221.649H298.727V226.346ZM298.727 220.24H300.858C301.557 220.24 302.105 220.053 302.502 219.68C302.912 219.307 303.116 218.801 303.116 218.163C303.116 217.524 302.918 217.019 302.52 216.645C302.123 216.272 301.575 216.085 300.876 216.085H298.727V220.24ZM307.643 227.899V226.382H307.968C308.498 226.382 308.878 226.147 309.106 225.677C309.347 225.196 309.474 224.377 309.486 223.221L309.63 214.622H316.422V227.809H314.797V216.103H311.238L311.111 223.221C311.087 224.834 310.828 226.021 310.335 226.779C309.853 227.526 309.094 227.899 308.059 227.899H307.643ZM320.118 227.809L322.828 222.028C322.033 221.788 321.407 221.348 320.949 220.71C320.492 220.071 320.263 219.307 320.263 218.416C320.263 217.657 320.425 216.995 320.751 216.429C321.076 215.863 321.533 215.423 322.123 215.11C322.713 214.785 323.4 214.622 324.183 214.622H328.229V227.809H326.603V222.209H324.508L321.997 227.809H320.118ZM324.183 220.764H326.603V216.067H324.183C323.52 216.067 322.978 216.284 322.557 216.718C322.147 217.139 321.943 217.705 321.943 218.416C321.943 219.114 322.147 219.68 322.557 220.114C322.966 220.547 323.508 220.764 324.183 220.764ZM332.738 227.809V214.622H340.325V216.103H334.346V220.186H339.692V221.649H334.346V226.328H340.325V227.809H332.738ZM347.363 227.809V216.085H343.75V214.604H352.601V216.085H348.988V227.809H347.363ZM360.072 227.989C359.278 227.989 358.585 227.839 357.995 227.538C357.417 227.237 356.965 226.803 356.64 226.237C356.327 225.659 356.171 224.979 356.171 224.196V218.235C356.171 217.44 356.327 216.76 356.64 216.194C356.965 215.628 357.417 215.194 357.995 214.893C358.585 214.592 359.278 214.442 360.072 214.442C360.867 214.442 361.554 214.598 362.132 214.911C362.71 215.212 363.155 215.646 363.468 216.212C363.782 216.778 363.938 217.452 363.938 218.235H362.312C362.312 217.488 362.114 216.916 361.716 216.519C361.331 216.109 360.783 215.905 360.072 215.905C359.362 215.905 358.802 216.103 358.392 216.501C357.995 216.898 357.796 217.47 357.796 218.217V224.196C357.796 224.943 357.995 225.521 358.392 225.93C358.802 226.328 359.362 226.526 360.072 226.526C360.783 226.526 361.331 226.328 361.716 225.93C362.114 225.521 362.312 224.943 362.312 224.196H363.938C363.938 224.967 363.782 225.641 363.468 226.219C363.155 226.785 362.71 227.225 362.132 227.538C361.554 227.839 360.867 227.989 360.072 227.989ZM367.417 227.809L370.127 222.028C369.332 221.788 368.706 221.348 368.248 220.71C367.791 220.071 367.562 219.307 367.562 218.416C367.562 217.657 367.724 216.995 368.05 216.429C368.375 215.863 368.832 215.423 369.422 215.11C370.013 214.785 370.699 214.622 371.482 214.622H375.528V227.809H373.902V222.209H371.807L369.296 227.809H367.417ZM371.482 220.764H373.902V216.067H371.482C370.819 216.067 370.278 216.284 369.856 216.718C369.447 217.139 369.242 217.705 369.242 218.416C369.242 219.114 369.447 219.68 369.856 220.114C370.265 220.547 370.807 220.764 371.482 220.764ZM391.753 227.809V214.622H399.196V227.809H397.57V216.103H393.379V227.809H391.753ZM407.299 227.989C406.504 227.989 405.818 227.839 405.24 227.538C404.674 227.237 404.234 226.803 403.921 226.237C403.62 225.659 403.47 224.979 403.47 224.196V218.235C403.47 217.44 403.62 216.76 403.921 216.194C404.234 215.628 404.674 215.194 405.24 214.893C405.818 214.592 406.504 214.442 407.299 214.442C408.094 214.442 408.774 214.592 409.34 214.893C409.919 215.194 410.358 215.628 410.659 216.194C410.972 216.76 411.129 217.434 411.129 218.217V224.196C411.129 224.979 410.972 225.659 410.659 226.237C410.358 226.803 409.919 227.237 409.34 227.538C408.774 227.839 408.094 227.989 407.299 227.989ZM407.299 226.526C408.01 226.526 408.552 226.328 408.925 225.93C409.31 225.521 409.503 224.943 409.503 224.196V218.235C409.503 217.488 409.31 216.916 408.925 216.519C408.552 216.109 408.01 215.905 407.299 215.905C406.601 215.905 406.059 216.109 405.674 216.519C405.288 216.916 405.095 217.488 405.095 218.235V224.196C405.095 224.943 405.288 225.521 405.674 225.93C406.059 226.328 406.601 226.526 407.299 226.526ZM415.078 227.809V214.622H417.209L418.582 218.885C418.715 219.271 418.835 219.656 418.943 220.041C419.052 220.415 419.13 220.704 419.178 220.908C419.238 220.704 419.317 220.415 419.413 220.041C419.509 219.656 419.618 219.265 419.738 218.867L421.039 214.622H423.17V227.809H421.581V223.022C421.581 222.492 421.599 221.89 421.635 221.216C421.671 220.541 421.719 219.855 421.779 219.156C421.84 218.446 421.9 217.771 421.96 217.133C422.032 216.483 422.093 215.917 422.141 215.435L420.009 222.028H418.293L416.144 215.435C416.204 215.905 416.264 216.453 416.324 217.079C416.384 217.693 416.439 218.349 416.487 219.048C416.535 219.734 416.577 220.421 416.613 221.107C416.649 221.794 416.667 222.432 416.667 223.022V227.809H415.078ZM430.949 227.989C430.154 227.989 429.468 227.839 428.89 227.538C428.324 227.237 427.884 226.803 427.571 226.237C427.27 225.659 427.119 224.979 427.119 224.196V218.235C427.119 217.44 427.27 216.76 427.571 216.194C427.884 215.628 428.324 215.194 428.89 214.893C429.468 214.592 430.154 214.442 430.949 214.442C431.744 214.442 432.424 214.592 432.99 214.893C433.568 215.194 434.008 215.628 434.309 216.194C434.622 216.76 434.778 217.434 434.778 218.217V224.196C434.778 224.979 434.622 225.659 434.309 226.237C434.008 226.803 433.568 227.237 432.99 227.538C432.424 227.839 431.744 227.989 430.949 227.989ZM430.949 226.526C431.659 226.526 432.201 226.328 432.575 225.93C432.96 225.521 433.153 224.943 433.153 224.196V218.235C433.153 217.488 432.96 216.916 432.575 216.519C432.201 216.109 431.659 215.905 430.949 215.905C430.25 215.905 429.708 216.109 429.323 216.519C428.938 216.916 428.745 217.488 428.745 218.235V224.196C428.745 224.943 428.938 225.521 429.323 225.93C429.708 226.328 430.25 226.526 430.949 226.526ZM444.851 227.809V222.733C444.694 222.769 444.399 222.811 443.966 222.859C443.544 222.895 443.026 222.914 442.412 222.914C441.28 222.914 440.377 222.57 439.703 221.884C439.04 221.197 438.709 220.276 438.709 219.12V214.622H440.335V219.12C440.335 219.831 440.546 220.403 440.967 220.836C441.401 221.258 441.973 221.468 442.683 221.468C443.261 221.468 443.737 221.45 444.11 221.414C444.484 221.366 444.731 221.324 444.851 221.288V214.622H446.477V227.809H444.851ZM450.877 227.809V214.622H452.503V220.041H455.14C455.935 220.041 456.628 220.204 457.218 220.529C457.82 220.854 458.283 221.306 458.609 221.884C458.946 222.462 459.114 223.142 459.114 223.925C459.114 224.696 458.946 225.376 458.609 225.966C458.283 226.544 457.82 226.996 457.218 227.321C456.628 227.646 455.935 227.809 455.14 227.809H450.877ZM452.503 226.328H455.05C455.76 226.328 456.332 226.111 456.766 225.677C457.212 225.232 457.434 224.648 457.434 223.925C457.434 223.203 457.212 222.625 456.766 222.191C456.332 221.745 455.76 221.523 455.05 221.523H452.503V226.328ZM143.108 248.809V235.622H145.24L146.612 239.885C146.745 240.271 146.865 240.656 146.974 241.041C147.082 241.415 147.16 241.704 147.209 241.908C147.269 241.704 147.347 241.415 147.443 241.041C147.54 240.656 147.648 240.265 147.768 239.867L149.069 235.622H151.201V248.809H149.611V244.022C149.611 243.492 149.629 242.89 149.665 242.216C149.701 241.541 149.749 240.855 149.81 240.156C149.87 239.446 149.93 238.771 149.99 238.133C150.063 237.483 150.123 236.917 150.171 236.435L148.039 243.028H146.323L144.174 236.435C144.234 236.905 144.294 237.453 144.354 238.079C144.415 238.693 144.469 239.349 144.517 240.048C144.565 240.734 144.607 241.421 144.643 242.107C144.68 242.794 144.698 243.432 144.698 244.022V248.809H143.108ZM155.24 248.809V235.622H156.866V241.258H161.093V235.622H162.718V248.809H161.093V242.739H156.866V248.809H155.24ZM167.191 248.809V235.622H174.778V237.103H168.799V241.186H174.146V242.649H168.799V247.328H174.778V248.809H167.191ZM190.732 248.809V235.622H198.175V248.809H196.549V237.103H192.358V248.809H190.732ZM202.665 248.809V235.622H210.252V237.103H204.273V241.186H209.62V242.649H204.273V247.328H210.252V248.809H202.665ZM214.346 248.809V235.622H218.591C219.41 235.622 220.12 235.785 220.722 236.11C221.324 236.423 221.788 236.869 222.113 237.447C222.45 238.025 222.619 238.711 222.619 239.506C222.619 240.289 222.45 240.975 222.113 241.565C221.788 242.143 221.324 242.595 220.722 242.92C220.12 243.233 219.41 243.39 218.591 243.39H215.971V248.809H214.346ZM215.971 241.927H218.591C219.301 241.927 219.867 241.71 220.289 241.276C220.722 240.831 220.939 240.241 220.939 239.506C220.939 238.759 220.722 238.169 220.289 237.736C219.867 237.302 219.301 237.085 218.591 237.085H215.971V241.927ZM226.315 248.809V235.622H233.902V237.103H227.923V241.186H233.27V242.649H227.923V247.328H233.902V248.809H226.315ZM238.031 248.809V235.622H245.365V237.103H239.657V241.078H241.843C242.686 241.078 243.408 241.24 244.01 241.565C244.613 241.878 245.076 242.324 245.401 242.902C245.739 243.48 245.907 244.16 245.907 244.943C245.907 245.726 245.739 246.406 245.401 246.984C245.076 247.562 244.613 248.014 244.01 248.339C243.408 248.652 242.686 248.809 241.843 248.809H238.031ZM239.657 247.328H241.843C242.589 247.328 243.174 247.117 243.595 246.695C244.016 246.262 244.227 245.678 244.227 244.943C244.227 244.197 244.016 243.612 243.595 243.191C243.174 242.769 242.589 242.559 241.843 242.559H239.657V247.328ZM249.784 248.809V235.622H251.355V243.028C251.355 243.462 251.343 243.926 251.319 244.419C251.307 244.901 251.289 245.365 251.265 245.81C251.241 246.244 251.217 246.611 251.193 246.912L255.203 235.622H257.371V248.809H255.799V241.403C255.799 240.957 255.805 240.493 255.817 240.012C255.841 239.518 255.865 239.054 255.889 238.621C255.926 238.175 255.956 237.808 255.98 237.519L251.952 248.809H249.784ZM264.589 248.809V237.085H260.976V235.604H269.828V237.085H266.215V248.809H264.589ZM273.506 248.809V235.622H275.131V241.041H277.769C278.564 241.041 279.256 241.204 279.846 241.529C280.448 241.854 280.912 242.306 281.237 242.884C281.574 243.462 281.743 244.142 281.743 244.925C281.743 245.696 281.574 246.376 281.237 246.966C280.912 247.544 280.448 247.996 279.846 248.321C279.256 248.646 278.564 248.809 277.769 248.809H273.506ZM275.131 247.328H277.678C278.389 247.328 278.961 247.111 279.394 246.677C279.84 246.232 280.063 245.648 280.063 244.925C280.063 244.203 279.84 243.625 279.394 243.191C278.961 242.745 278.389 242.523 277.678 242.523H275.131V247.328ZM297.137 248.809V235.622H300.876C302.081 235.622 303.02 235.923 303.694 236.525C304.381 237.128 304.724 237.965 304.724 239.036C304.724 239.638 304.597 240.162 304.345 240.608C304.092 241.053 303.73 241.397 303.261 241.637C302.803 241.878 302.249 241.993 301.599 241.981V241.71C302.297 241.698 302.899 241.83 303.405 242.107C303.923 242.384 304.321 242.782 304.597 243.299C304.887 243.817 305.031 244.431 305.031 245.142C305.031 245.889 304.874 246.539 304.561 247.093C304.248 247.647 303.803 248.074 303.225 248.375C302.647 248.664 301.954 248.809 301.147 248.809H297.137ZM298.727 247.346H300.967C301.725 247.346 302.321 247.147 302.755 246.75C303.201 246.34 303.423 245.786 303.423 245.088C303.423 244.365 303.201 243.781 302.755 243.335C302.321 242.878 301.725 242.649 300.967 242.649H298.727V247.346ZM298.727 241.24H300.858C301.557 241.24 302.105 241.053 302.502 240.68C302.912 240.307 303.116 239.801 303.116 239.163C303.116 238.524 302.918 238.019 302.52 237.645C302.123 237.272 301.575 237.085 300.876 237.085H298.727V241.24ZM312.773 248.989C311.979 248.989 311.286 248.839 310.696 248.538C310.118 248.237 309.666 247.803 309.341 247.237C309.028 246.659 308.872 245.979 308.872 245.196V239.235C308.872 238.44 309.028 237.76 309.341 237.194C309.666 236.628 310.118 236.194 310.696 235.893C311.286 235.592 311.979 235.442 312.773 235.442C313.568 235.442 314.255 235.598 314.833 235.911C315.411 236.212 315.856 236.646 316.169 237.212C316.482 237.778 316.639 238.452 316.639 239.235H315.013C315.013 238.488 314.815 237.916 314.417 237.519C314.032 237.109 313.484 236.905 312.773 236.905C312.063 236.905 311.503 237.103 311.093 237.501C310.696 237.898 310.497 238.47 310.497 239.217V245.196C310.497 245.943 310.696 246.521 311.093 246.93C311.503 247.328 312.063 247.526 312.773 247.526C313.484 247.526 314.032 247.328 314.417 246.93C314.815 246.521 315.013 245.943 315.013 245.196H316.639C316.639 245.967 316.482 246.641 316.169 247.219C315.856 247.785 315.411 248.225 314.833 248.538C314.255 248.839 313.568 248.989 312.773 248.989ZM320.913 248.809V235.622H328.5V237.103H322.521V241.186H327.868V242.649H322.521V247.328H328.5V248.809H320.913ZM331.654 248.809L335.447 242.125L331.853 235.622H333.731L335.773 239.524C335.881 239.729 335.989 239.952 336.098 240.192C336.218 240.421 336.315 240.602 336.387 240.734C336.447 240.602 336.531 240.421 336.64 240.192C336.76 239.952 336.874 239.729 336.983 239.524L339.06 235.622H340.849L337.254 242.017L341.047 248.809H339.187L336.929 244.618C336.82 244.413 336.706 244.197 336.585 243.968C336.477 243.727 336.393 243.534 336.333 243.39C336.272 243.534 336.182 243.721 336.062 243.95C335.953 244.178 335.845 244.395 335.736 244.6L333.46 248.809H331.654ZM355.033 251.338V247.418H355.845C355.978 247.177 356.116 246.852 356.261 246.442C356.405 246.033 356.532 245.569 356.64 245.052C356.749 244.534 356.809 243.992 356.821 243.426L356.947 235.622H363.703V247.418H364.968V251.338H363.523V248.809H356.478V251.338H355.033ZM357.543 247.418H362.078V237.067H358.501L358.411 243.426C358.399 244.353 358.296 245.172 358.103 245.882C357.911 246.593 357.724 247.105 357.543 247.418ZM368.212 248.809V235.622H375.799V237.103H369.82V241.186H375.167V242.649H369.82V247.328H375.799V248.809H368.212ZM379.603 248.809V235.622H381.735L383.108 239.885C383.24 240.271 383.361 240.656 383.469 241.041C383.577 241.415 383.656 241.704 383.704 241.908C383.764 241.704 383.842 241.415 383.939 241.041C384.035 240.656 384.143 240.265 384.264 239.867L385.564 235.622H387.696V248.809H386.106V244.022C386.106 243.492 386.124 242.89 386.161 242.216C386.197 241.541 386.245 240.855 386.305 240.156C386.365 239.446 386.426 238.771 386.486 238.133C386.558 237.483 386.618 236.917 386.666 236.435L384.535 243.028H382.819L380.669 236.435C380.729 236.905 380.79 237.453 380.85 238.079C380.91 238.693 380.964 239.349 381.012 240.048C381.061 240.734 381.103 241.421 381.139 242.107C381.175 242.794 381.193 243.432 381.193 244.022V248.809H379.603ZM395.475 248.989C394.68 248.989 393.993 248.839 393.415 248.538C392.849 248.237 392.41 247.803 392.097 247.237C391.796 246.659 391.645 245.979 391.645 245.196V239.235C391.645 238.44 391.796 237.76 392.097 237.194C392.41 236.628 392.849 236.194 393.415 235.893C393.993 235.592 394.68 235.442 395.475 235.442C396.269 235.442 396.95 235.592 397.516 235.893C398.094 236.194 398.533 236.628 398.834 237.194C399.148 237.76 399.304 238.434 399.304 239.217V245.196C399.304 245.979 399.148 246.659 398.834 247.237C398.533 247.803 398.094 248.237 397.516 248.538C396.95 248.839 396.269 248.989 395.475 248.989ZM395.475 247.526C396.185 247.526 396.727 247.328 397.1 246.93C397.486 246.521 397.678 245.943 397.678 245.196V239.235C397.678 238.488 397.486 237.916 397.1 237.519C396.727 237.109 396.185 236.905 395.475 236.905C394.776 236.905 394.234 237.109 393.849 237.519C393.463 237.916 393.271 238.488 393.271 239.235V245.196C393.271 245.943 393.463 246.521 393.849 246.93C394.234 247.328 394.776 247.526 395.475 247.526ZM403.56 248.809V235.622H405.186V241.258H409.413V235.622H411.038V248.809H409.413V242.739H405.186V248.809H403.56ZM419.124 248.989C418.329 248.989 417.643 248.839 417.065 248.538C416.499 248.237 416.059 247.803 415.746 247.237C415.445 246.659 415.294 245.979 415.294 245.196V239.235C415.294 238.44 415.445 237.76 415.746 237.194C416.059 236.628 416.499 236.194 417.065 235.893C417.643 235.592 418.329 235.442 419.124 235.442C419.919 235.442 420.599 235.592 421.165 235.893C421.743 236.194 422.183 236.628 422.484 237.194C422.797 237.76 422.954 238.434 422.954 239.217V245.196C422.954 245.979 422.797 246.659 422.484 247.237C422.183 247.803 421.743 248.237 421.165 248.538C420.599 248.839 419.919 248.989 419.124 248.989ZM419.124 247.526C419.835 247.526 420.376 247.328 420.75 246.93C421.135 246.521 421.328 245.943 421.328 245.196V239.235C421.328 238.488 421.135 237.916 420.75 237.519C420.376 237.109 419.835 236.905 419.124 236.905C418.426 236.905 417.884 237.109 417.498 237.519C417.113 237.916 416.92 238.488 416.92 239.235V245.196C416.92 245.943 417.113 246.521 417.498 246.93C417.884 247.328 418.426 247.526 419.124 247.526ZM427.21 248.809V235.622H430.949C432.153 235.622 433.092 235.923 433.767 236.525C434.453 237.128 434.796 237.965 434.796 239.036C434.796 239.638 434.67 240.162 434.417 240.608C434.164 241.053 433.803 241.397 433.333 241.637C432.876 241.878 432.322 241.993 431.671 241.981V241.71C432.37 241.698 432.972 241.83 433.478 242.107C433.996 242.384 434.393 242.782 434.67 243.299C434.959 243.817 435.103 244.431 435.103 245.142C435.103 245.889 434.947 246.539 434.634 247.093C434.321 247.647 433.875 248.074 433.297 248.375C432.719 248.664 432.027 248.809 431.22 248.809H427.21ZM428.799 247.346H431.039C431.798 247.346 432.394 247.147 432.827 246.75C433.273 246.34 433.496 245.786 433.496 245.088C433.496 244.365 433.273 243.781 432.827 243.335C432.394 242.878 431.798 242.649 431.039 242.649H428.799V247.346ZM428.799 241.24H430.931C431.629 241.24 432.177 241.053 432.575 240.68C432.984 240.307 433.189 239.801 433.189 239.163C433.189 238.524 432.99 238.019 432.593 237.645C432.195 237.272 431.647 237.085 430.949 237.085H428.799V241.24ZM101.532 269.809V256.622H105.271C106.475 256.622 107.414 256.923 108.089 257.525C108.775 258.128 109.118 258.965 109.118 260.036C109.118 260.638 108.992 261.162 108.739 261.608C108.486 262.053 108.125 262.397 107.655 262.637C107.198 262.878 106.644 262.993 105.993 262.981V262.71C106.692 262.698 107.294 262.83 107.8 263.107C108.318 263.384 108.715 263.782 108.992 264.299C109.281 264.817 109.426 265.431 109.426 266.142C109.426 266.889 109.269 267.539 108.956 268.093C108.643 268.647 108.197 269.074 107.619 269.375C107.041 269.664 106.349 269.809 105.542 269.809H101.532ZM103.121 268.346H105.361C106.12 268.346 106.716 268.147 107.15 267.75C107.595 267.34 107.818 266.786 107.818 266.088C107.818 265.365 107.595 264.781 107.15 264.335C106.716 263.878 106.12 263.649 105.361 263.649H103.121V268.346ZM103.121 262.24H105.253C105.951 262.24 106.499 262.053 106.897 261.68C107.306 261.307 107.511 260.801 107.511 260.163C107.511 259.524 107.312 259.019 106.915 258.645C106.517 258.272 105.969 258.085 105.271 258.085H103.121V262.24ZM124.874 269.809V256.622H127.006L128.378 260.885C128.511 261.271 128.631 261.656 128.74 262.041C128.848 262.415 128.926 262.704 128.975 262.908C129.035 262.704 129.113 262.415 129.209 262.041C129.306 261.656 129.414 261.265 129.535 260.867L130.835 256.622H132.967V269.809H131.377V265.022C131.377 264.492 131.395 263.89 131.431 263.216C131.467 262.541 131.516 261.855 131.576 261.156C131.636 260.446 131.696 259.771 131.756 259.133C131.829 258.483 131.889 257.917 131.937 257.435L129.806 264.028H128.089L125.94 257.435C126 257.905 126.06 258.453 126.121 259.079C126.181 259.693 126.235 260.349 126.283 261.048C126.331 261.734 126.373 262.421 126.41 263.107C126.446 263.794 126.464 264.432 126.464 265.022V269.809H124.874ZM140.745 269.989C139.95 269.989 139.264 269.839 138.686 269.538C138.12 269.237 137.68 268.803 137.367 268.237C137.066 267.659 136.916 266.979 136.916 266.196V260.235C136.916 259.44 137.066 258.76 137.367 258.194C137.68 257.628 138.12 257.194 138.686 256.893C139.264 256.592 139.95 256.442 140.745 256.442C141.54 256.442 142.22 256.592 142.786 256.893C143.364 257.194 143.804 257.628 144.105 258.194C144.418 258.76 144.575 259.434 144.575 260.217V266.196C144.575 266.979 144.418 267.659 144.105 268.237C143.804 268.803 143.364 269.237 142.786 269.538C142.22 269.839 141.54 269.989 140.745 269.989ZM140.745 268.526C141.456 268.526 141.998 268.328 142.371 267.93C142.756 267.521 142.949 266.943 142.949 266.196V260.235C142.949 259.488 142.756 258.916 142.371 258.519C141.998 258.109 141.456 257.905 140.745 257.905C140.047 257.905 139.505 258.109 139.119 258.519C138.734 258.916 138.541 259.488 138.541 260.235V266.196C138.541 266.943 138.734 267.521 139.119 267.93C139.505 268.328 140.047 268.526 140.745 268.526ZM148.957 269.809V256.622H156.544V258.103H150.565V262.186H155.912V263.649H150.565V268.328H156.544V269.809H148.957ZM160.601 269.809V256.622H162.173V264.028C162.173 264.462 162.161 264.926 162.137 265.419C162.125 265.901 162.107 266.365 162.083 266.81C162.058 267.244 162.034 267.611 162.01 267.912L166.02 256.622H168.188V269.809H166.617V262.403C166.617 261.957 166.623 261.493 166.635 261.012C166.659 260.518 166.683 260.054 166.707 259.621C166.743 259.175 166.773 258.808 166.797 258.519L162.769 269.809H160.601ZM164.395 255.267C163.528 255.267 162.829 255.027 162.299 254.545C161.769 254.063 161.505 253.431 161.505 252.648H162.787C162.787 253.118 162.932 253.497 163.221 253.786C163.51 254.075 163.895 254.22 164.377 254.22C164.87 254.22 165.262 254.075 165.551 253.786C165.852 253.497 166.002 253.118 166.002 252.648H167.285C167.285 253.431 167.02 254.063 166.49 254.545C165.96 255.027 165.262 255.267 164.395 255.267ZM184.612 269.809V256.622H192.289V258.103H186.238V269.809H184.612ZM199.869 269.989C199.074 269.989 198.388 269.839 197.81 269.538C197.244 269.237 196.804 268.803 196.491 268.237C196.19 267.659 196.039 266.979 196.039 266.196V260.235C196.039 259.44 196.19 258.76 196.491 258.194C196.804 257.628 197.244 257.194 197.81 256.893C198.388 256.592 199.074 256.442 199.869 256.442C200.664 256.442 201.344 256.592 201.91 256.893C202.488 257.194 202.928 257.628 203.229 258.194C203.542 258.76 203.699 259.434 203.699 260.217V266.196C203.699 266.979 203.542 267.659 203.229 268.237C202.928 268.803 202.488 269.237 201.91 269.538C201.344 269.839 200.664 269.989 199.869 269.989ZM199.869 268.526C200.58 268.526 201.121 268.328 201.495 267.93C201.88 267.521 202.073 266.943 202.073 266.196V260.235C202.073 259.488 201.88 258.916 201.495 258.519C201.121 258.109 200.58 257.905 199.869 257.905C199.171 257.905 198.629 258.109 198.243 258.519C197.858 258.916 197.665 259.488 197.665 260.235V266.196C197.665 266.943 197.858 267.521 198.243 267.93C198.629 268.328 199.171 268.526 199.869 268.526ZM206.636 269.899V268.382H206.961C207.491 268.382 207.87 268.147 208.099 267.677C208.34 267.196 208.466 266.377 208.478 265.221L208.623 256.622H215.415V269.809H213.789V258.103H210.231L210.104 265.221C210.08 266.834 209.821 268.021 209.327 268.779C208.846 269.526 208.087 269.899 207.051 269.899H206.636ZM223.519 269.989C222.724 269.989 222.037 269.839 221.459 269.538C220.893 269.237 220.454 268.803 220.141 268.237C219.84 267.659 219.689 266.979 219.689 266.196V260.235C219.689 259.44 219.84 258.76 220.141 258.194C220.454 257.628 220.893 257.194 221.459 256.893C222.037 256.592 222.724 256.442 223.519 256.442C224.313 256.442 224.994 256.592 225.56 256.893C226.138 257.194 226.577 257.628 226.878 258.194C227.192 258.76 227.348 259.434 227.348 260.217V266.196C227.348 266.979 227.192 267.659 226.878 268.237C226.577 268.803 226.138 269.237 225.56 269.538C224.994 269.839 224.313 269.989 223.519 269.989ZM223.519 268.526C224.229 268.526 224.771 268.328 225.144 267.93C225.53 267.521 225.722 266.943 225.722 266.196V260.235C225.722 259.488 225.53 258.916 225.144 258.519C224.771 258.109 224.229 257.905 223.519 257.905C222.82 257.905 222.278 258.109 221.893 258.519C221.507 258.916 221.315 259.488 221.315 260.235V266.196C221.315 266.943 221.507 267.521 221.893 267.93C222.278 268.328 222.82 268.526 223.519 268.526ZM231.604 269.809V256.622H235.343C236.548 256.622 237.487 256.923 238.161 257.525C238.848 258.128 239.191 258.965 239.191 260.036C239.191 260.638 239.064 261.162 238.812 261.608C238.559 262.053 238.197 262.397 237.728 262.637C237.27 262.878 236.716 262.993 236.066 262.981V262.71C236.764 262.698 237.366 262.83 237.872 263.107C238.39 263.384 238.788 263.782 239.064 264.299C239.354 264.817 239.498 265.431 239.498 266.142C239.498 266.889 239.341 267.539 239.028 268.093C238.715 268.647 238.27 269.074 237.692 269.375C237.114 269.664 236.421 269.809 235.614 269.809H231.604ZM233.194 268.346H235.434C236.192 268.346 236.788 268.147 237.222 267.75C237.668 267.34 237.89 266.786 237.89 266.088C237.89 265.365 237.668 264.781 237.222 264.335C236.788 263.878 236.192 263.649 235.434 263.649H233.194V268.346ZM233.194 262.24H235.325C236.024 262.24 236.572 262.053 236.969 261.68C237.379 261.307 237.583 260.801 237.583 260.163C237.583 259.524 237.385 259.019 236.987 258.645C236.59 258.272 236.042 258.085 235.343 258.085H233.194V262.24ZM243.555 269.809V256.622H251.142V258.103H245.163V262.186H250.51V263.649H245.163V268.328H251.142V269.809H243.555ZM256.554 272.699L257.999 267.081H260.348L257.999 272.699H256.554ZM284.72 269.809V264.733C284.563 264.769 284.268 264.811 283.835 264.859C283.413 264.895 282.895 264.914 282.281 264.914C281.149 264.914 280.246 264.57 279.572 263.884C278.909 263.197 278.578 262.276 278.578 261.12V256.622H280.204V261.12C280.204 261.831 280.415 262.403 280.836 262.836C281.27 263.258 281.842 263.468 282.552 263.468C283.13 263.468 283.606 263.45 283.979 263.414C284.352 263.366 284.599 263.324 284.72 263.288V256.622H286.346V269.809H284.72ZM293.654 269.809V258.085H290.042V256.604H298.893V258.085H295.28V269.809H293.654ZM306.292 269.989C305.497 269.989 304.811 269.839 304.233 269.538C303.667 269.237 303.227 268.803 302.914 268.237C302.613 267.659 302.462 266.979 302.462 266.196V260.235C302.462 259.44 302.613 258.76 302.914 258.194C303.227 257.628 303.667 257.194 304.233 256.893C304.811 256.592 305.497 256.442 306.292 256.442C307.087 256.442 307.767 256.592 308.333 256.893C308.911 257.194 309.351 257.628 309.652 258.194C309.965 258.76 310.121 259.434 310.121 260.217V266.196C310.121 266.979 309.965 267.659 309.652 268.237C309.351 268.803 308.911 269.237 308.333 269.538C307.767 269.839 307.087 269.989 306.292 269.989ZM306.292 268.526C307.002 268.526 307.544 268.328 307.918 267.93C308.303 267.521 308.496 266.943 308.496 266.196V260.235C308.496 259.488 308.303 258.916 307.918 258.519C307.544 258.109 307.002 257.905 306.292 257.905C305.593 257.905 305.052 258.109 304.666 258.519C304.281 258.916 304.088 259.488 304.088 260.235V266.196C304.088 266.943 304.281 267.521 304.666 267.93C305.052 268.328 305.593 268.526 306.292 268.526ZM314.396 269.809V256.622H321.729V258.103H316.021V262.078H318.207C319.05 262.078 319.773 262.24 320.375 262.565C320.977 262.878 321.44 263.324 321.766 263.902C322.103 264.48 322.271 265.16 322.271 265.943C322.271 266.726 322.103 267.406 321.766 267.984C321.44 268.562 320.977 269.014 320.375 269.339C319.773 269.652 319.05 269.809 318.207 269.809H314.396ZM316.021 268.328H318.207C318.954 268.328 319.538 268.117 319.959 267.695C320.381 267.262 320.591 266.678 320.591 265.943C320.591 265.197 320.381 264.612 319.959 264.191C319.538 263.769 318.954 263.559 318.207 263.559H316.021V268.328ZM325.696 269.809V256.622H327.214V262.041H327.954C329.05 262.041 329.911 262.348 330.538 262.963C331.176 263.577 331.495 264.414 331.495 265.474V266.395C331.495 267.455 331.182 268.291 330.556 268.906C329.929 269.508 329.062 269.809 327.954 269.809H325.696ZM327.214 268.382H327.954C328.593 268.382 329.08 268.207 329.418 267.858C329.767 267.497 329.941 267.003 329.941 266.377V265.474C329.941 264.835 329.767 264.342 329.418 263.992C329.08 263.643 328.593 263.468 327.954 263.468H327.214V268.382ZM332.669 269.809V256.622H334.187V269.809H332.669ZM349.183 269.809L351.893 264.028C351.098 263.788 350.472 263.348 350.014 262.71C349.557 262.071 349.328 261.307 349.328 260.416C349.328 259.657 349.491 258.995 349.816 258.429C350.141 257.863 350.598 257.423 351.189 257.11C351.779 256.785 352.465 256.622 353.248 256.622H357.294V269.809H355.668V264.209H353.573L351.062 269.809H349.183ZM353.248 262.764H355.668V258.067H353.248C352.585 258.067 352.044 258.284 351.622 258.718C351.213 259.139 351.008 259.705 351.008 260.416C351.008 261.114 351.213 261.68 351.622 262.114C352.032 262.547 352.573 262.764 353.248 262.764ZM373.501 269.809V256.622H375.127V262.258H379.354V256.622H380.98V269.809H379.354V263.739H375.127V269.809H373.501ZM384.549 269.809L387.982 256.622H390.167L393.581 269.809H391.937L391.07 266.304H387.078L386.211 269.809H384.549ZM387.403 264.932H390.727L389.716 260.867C389.523 260.097 389.372 259.452 389.264 258.934C389.156 258.417 389.089 258.079 389.065 257.923C389.041 258.079 388.975 258.417 388.867 258.934C388.758 259.452 388.608 260.09 388.415 260.849L387.403 264.932ZM397.133 269.809V256.622H398.759V262.276H400.709L403.636 256.622H405.406L402.137 262.963L405.587 269.809H403.726L400.655 263.703H398.759V269.809H397.133ZM412.715 269.989C411.92 269.989 411.234 269.839 410.656 269.538C410.09 269.237 409.65 268.803 409.337 268.237C409.036 267.659 408.885 266.979 408.885 266.196V260.235C408.885 259.44 409.036 258.76 409.337 258.194C409.65 257.628 410.09 257.194 410.656 256.893C411.234 256.592 411.92 256.442 412.715 256.442C413.51 256.442 414.19 256.592 414.756 256.893C415.334 257.194 415.774 257.628 416.075 258.194C416.388 258.76 416.544 259.434 416.544 260.217V266.196C416.544 266.979 416.388 267.659 416.075 268.237C415.774 268.803 415.334 269.237 414.756 269.538C414.19 269.839 413.51 269.989 412.715 269.989ZM412.715 268.526C413.425 268.526 413.967 268.328 414.341 267.93C414.726 267.521 414.919 266.943 414.919 266.196V260.235C414.919 259.488 414.726 258.916 414.341 258.519C413.967 258.109 413.425 257.905 412.715 257.905C412.016 257.905 411.475 258.109 411.089 258.519C410.704 258.916 410.511 259.488 410.511 260.235V266.196C410.511 266.943 410.704 267.521 411.089 267.93C411.475 268.328 412.016 268.526 412.715 268.526ZM420.8 269.809V256.622H422.426V262.258H426.653V256.622H428.279V269.809H426.653V263.739H422.426V269.809H420.8ZM432.752 269.809V256.622H440.338V258.103H434.359V262.186H439.706V263.649H434.359V268.328H440.338V269.809H432.752ZM451.531 272.338V269.809H444.468V256.622H446.094V268.364H449.996V256.622H451.621V268.364H452.976V272.338H451.531ZM457.124 264.57V263.125H462.904V264.57H457.124ZM471.026 269.809V258.085H467.413V256.604H476.264V258.085H472.652V269.809H471.026ZM483.664 269.989C482.869 269.989 482.182 269.839 481.604 269.538C481.038 269.237 480.599 268.803 480.286 268.237C479.985 267.659 479.834 266.979 479.834 266.196V260.235C479.834 259.44 479.985 258.76 480.286 258.194C480.599 257.628 481.038 257.194 481.604 256.893C482.182 256.592 482.869 256.442 483.664 256.442C484.458 256.442 485.139 256.592 485.705 256.893C486.283 257.194 486.722 257.628 487.023 258.194C487.336 258.76 487.493 259.434 487.493 260.217V266.196C487.493 266.979 487.336 267.659 487.023 268.237C486.722 268.803 486.283 269.237 485.705 269.538C485.139 269.839 484.458 269.989 483.664 269.989ZM483.664 268.526C484.374 268.526 484.916 268.328 485.289 267.93C485.675 267.521 485.867 266.943 485.867 266.196V260.235C485.867 259.488 485.675 258.916 485.289 258.519C484.916 258.109 484.374 257.905 483.664 257.905C482.965 257.905 482.423 258.109 482.038 258.519C481.652 258.916 481.46 259.488 481.46 260.235V266.196C481.46 266.943 481.652 267.521 482.038 267.93C482.423 268.328 482.965 268.526 483.664 268.526ZM206.35 290.989C205.556 290.989 204.863 290.839 204.273 290.538C203.695 290.237 203.243 289.803 202.918 289.237C202.605 288.659 202.449 287.979 202.449 287.196V281.235C202.449 280.44 202.605 279.76 202.918 279.194C203.243 278.628 203.695 278.194 204.273 277.893C204.863 277.592 205.556 277.442 206.35 277.442C207.145 277.442 207.832 277.598 208.41 277.911C208.988 278.212 209.433 278.646 209.746 279.212C210.06 279.778 210.216 280.452 210.216 281.235H208.59C208.59 280.488 208.392 279.916 207.994 279.519C207.609 279.109 207.061 278.905 206.35 278.905C205.64 278.905 205.08 279.103 204.67 279.501C204.273 279.898 204.074 280.47 204.074 281.217V287.196C204.074 287.943 204.273 288.521 204.67 288.93C205.08 289.328 205.64 289.526 206.35 289.526C207.061 289.526 207.609 289.328 207.994 288.93C208.392 288.521 208.59 287.943 208.59 287.196H210.216C210.216 287.967 210.06 288.641 209.746 289.219C209.433 289.785 208.988 290.225 208.41 290.538C207.832 290.839 207.145 290.989 206.35 290.989ZM214.057 290.809V277.622H216.188L217.561 281.885C217.693 282.271 217.814 282.656 217.922 283.041C218.031 283.415 218.109 283.704 218.157 283.908C218.217 283.704 218.296 283.415 218.392 283.041C218.488 282.656 218.597 282.265 218.717 281.867L220.018 277.622H222.149V290.809H220.56V286.022C220.56 285.492 220.578 284.89 220.614 284.216C220.65 283.541 220.698 282.855 220.758 282.156C220.819 281.446 220.879 280.771 220.939 280.133C221.011 279.483 221.071 278.917 221.12 278.435L218.988 285.028H217.272L215.122 278.435C215.183 278.905 215.243 279.453 215.303 280.079C215.363 280.693 215.417 281.349 215.466 282.048C215.514 282.734 215.556 283.421 215.592 284.107C215.628 284.794 215.646 285.432 215.646 286.022V290.809H214.057ZM229.928 290.989C229.133 290.989 228.446 290.839 227.868 290.538C227.302 290.237 226.863 289.803 226.55 289.237C226.249 288.659 226.098 287.979 226.098 287.196V281.235C226.098 280.44 226.249 279.76 226.55 279.194C226.863 278.628 227.302 278.194 227.868 277.893C228.446 277.592 229.133 277.442 229.928 277.442C230.723 277.442 231.403 277.592 231.969 277.893C232.547 278.194 232.987 278.628 233.288 279.194C233.601 279.76 233.757 280.434 233.757 281.217V287.196C233.757 287.979 233.601 288.659 233.288 289.237C232.987 289.803 232.547 290.237 231.969 290.538C231.403 290.839 230.723 290.989 229.928 290.989ZM229.928 289.526C230.638 289.526 231.18 289.328 231.553 288.93C231.939 288.521 232.132 287.943 232.132 287.196V281.235C232.132 280.488 231.939 279.916 231.553 279.519C231.18 279.109 230.638 278.905 229.928 278.905C229.229 278.905 228.687 279.109 228.302 279.519C227.917 279.916 227.724 280.488 227.724 281.235V287.196C227.724 287.943 227.917 288.521 228.302 288.93C228.687 289.328 229.229 289.526 229.928 289.526ZM238.32 290.809V277.622H245.997V279.103H239.946V290.809H238.32ZM261.663 290.809V277.622H265.402C266.606 277.622 267.546 277.923 268.22 278.525C268.906 279.128 269.25 279.965 269.25 281.036C269.25 281.638 269.123 282.162 268.87 282.608C268.617 283.053 268.256 283.397 267.786 283.637C267.329 283.878 266.775 283.993 266.125 283.981V283.71C266.823 283.698 267.425 283.83 267.931 284.107C268.449 284.384 268.846 284.782 269.123 285.299C269.412 285.817 269.557 286.431 269.557 287.142C269.557 287.889 269.4 288.539 269.087 289.093C268.774 289.647 268.328 290.074 267.75 290.375C267.172 290.664 266.48 290.809 265.673 290.809H261.663ZM263.252 289.346H265.492C266.251 289.346 266.847 289.147 267.281 288.75C267.726 288.34 267.949 287.786 267.949 287.088C267.949 286.365 267.726 285.781 267.281 285.335C266.847 284.878 266.251 284.649 265.492 284.649H263.252V289.346ZM263.252 283.24H265.384C266.082 283.24 266.63 283.053 267.028 282.68C267.437 282.307 267.642 281.801 267.642 281.163C267.642 280.524 267.443 280.019 267.046 279.645C266.648 279.272 266.1 279.085 265.402 279.085H263.252V283.24ZM272.982 290.809V277.622H274.499V283.041H275.24C276.336 283.041 277.197 283.348 277.823 283.963C278.461 284.577 278.78 285.414 278.78 286.474V287.395C278.78 288.455 278.467 289.291 277.841 289.906C277.215 290.508 276.348 290.809 275.24 290.809H272.982ZM274.499 289.382H275.24C275.878 289.382 276.366 289.207 276.703 288.858C277.052 288.497 277.227 288.003 277.227 287.377V286.474C277.227 285.835 277.052 285.342 276.703 284.992C276.366 284.643 275.878 284.468 275.24 284.468H274.499V289.382ZM279.954 290.809V277.622H281.472V290.809H279.954ZM283.994 290.899V289.382H284.319C284.849 289.382 285.228 289.147 285.457 288.677C285.698 288.196 285.824 287.377 285.836 286.221L285.981 277.622H292.773V290.809H291.147V279.103H287.588L287.462 286.221C287.438 287.834 287.179 289.021 286.685 289.779C286.204 290.526 285.445 290.899 284.409 290.899H283.994ZM297.264 290.809V277.622H304.85V279.103H298.871V283.186H304.218V284.649H298.871V289.328H304.85V290.809H297.264ZM314.778 290.809V285.733C314.622 285.769 314.327 285.811 313.893 285.859C313.472 285.895 312.954 285.914 312.34 285.914C311.208 285.914 310.305 285.57 309.63 284.884C308.968 284.197 308.637 283.276 308.637 282.12V277.622H310.262V282.12C310.262 282.831 310.473 283.403 310.895 283.836C311.328 284.258 311.9 284.468 312.611 284.468C313.189 284.468 313.665 284.45 314.038 284.414C314.411 284.366 314.658 284.324 314.778 284.288V277.622H316.404V290.809H314.778ZM320.732 290.809V277.622H322.304V285.028C322.304 285.462 322.292 285.926 322.268 286.419C322.256 286.901 322.238 287.365 322.214 287.81C322.19 288.244 322.166 288.611 322.141 288.912L326.152 277.622H328.319V290.809H326.748V283.403C326.748 282.957 326.754 282.493 326.766 282.012C326.79 281.518 326.814 281.054 326.838 280.621C326.874 280.175 326.904 279.808 326.928 279.519L322.9 290.809H320.732ZM335.538 290.809V279.085H331.925V277.604H340.776V279.085H337.164V290.809H335.538ZM344.454 290.809V277.622H346.08V283.041H348.717C349.512 283.041 350.205 283.204 350.795 283.529C351.397 283.854 351.86 284.306 352.186 284.884C352.523 285.462 352.691 286.142 352.691 286.925C352.691 287.696 352.523 288.376 352.186 288.966C351.86 289.544 351.397 289.996 350.795 290.321C350.205 290.646 349.512 290.809 348.717 290.809H344.454ZM346.08 289.328H348.627C349.338 289.328 349.91 289.111 350.343 288.677C350.789 288.232 351.011 287.648 351.011 286.925C351.011 286.203 350.789 285.625 350.343 285.191C349.91 284.745 349.338 284.523 348.627 284.523H346.08V289.328ZM360.072 290.989C359.278 290.989 358.585 290.839 357.995 290.538C357.417 290.237 356.965 289.803 356.64 289.237C356.327 288.659 356.171 287.979 356.171 287.196V281.235C356.171 280.44 356.327 279.76 356.64 279.194C356.965 278.628 357.417 278.194 357.995 277.893C358.585 277.592 359.278 277.442 360.072 277.442C360.867 277.442 361.554 277.598 362.132 277.911C362.71 278.212 363.155 278.646 363.468 279.212C363.782 279.778 363.938 280.452 363.938 281.235H362.312C362.312 280.488 362.114 279.916 361.716 279.519C361.331 279.109 360.783 278.905 360.072 278.905C359.362 278.905 358.802 279.103 358.392 279.501C357.995 279.898 357.796 280.47 357.796 281.217V287.196C357.796 287.943 357.995 288.521 358.392 288.93C358.802 289.328 359.362 289.526 360.072 289.526C360.783 289.526 361.331 289.328 361.716 288.93C362.114 288.521 362.312 287.943 362.312 287.196H363.938C363.938 287.967 363.782 288.641 363.468 289.219C363.155 289.785 362.71 290.225 362.132 290.538C361.554 290.839 360.867 290.989 360.072 290.989ZM367.417 290.809L370.127 285.028C369.332 284.788 368.706 284.348 368.248 283.71C367.791 283.071 367.562 282.307 367.562 281.416C367.562 280.657 367.724 279.995 368.05 279.429C368.375 278.863 368.832 278.423 369.422 278.11C370.013 277.785 370.699 277.622 371.482 277.622H375.528V290.809H373.902V285.209H371.807L369.296 290.809H367.417ZM371.482 283.764H373.902V279.067H371.482C370.819 279.067 370.277 279.284 369.856 279.718C369.447 280.139 369.242 280.705 369.242 281.416C369.242 282.114 369.447 282.68 369.856 283.114C370.265 283.547 370.807 283.764 371.482 283.764ZM149.273 311.809V298.622H150.845V306.028C150.845 306.462 150.833 306.926 150.809 307.419C150.797 307.901 150.779 308.365 150.755 308.81C150.73 309.244 150.706 309.611 150.682 309.912L154.692 298.622H156.86V311.809H155.289V304.403C155.289 303.957 155.295 303.493 155.307 303.012C155.331 302.518 155.355 302.054 155.379 301.621C155.415 301.175 155.445 300.808 155.469 300.519L151.441 311.809H149.273ZM171.514 311.809L173.898 305.017L171.694 298.622H173.392L175.271 304.475H176.03V298.622H177.403V304.475H178.179L180.04 298.622H181.738L179.57 305.035L181.919 311.809H180.239L178.216 305.631H177.403V311.809H176.03V305.631H175.217L173.176 311.809H171.514ZM184.748 311.809V298.622H186.319V306.028C186.319 306.462 186.307 306.926 186.283 307.419C186.271 307.901 186.253 308.365 186.229 308.81C186.205 309.244 186.181 309.611 186.157 309.912L190.167 298.622H192.334V311.809H190.763V304.403C190.763 303.957 190.769 303.493 190.781 303.012C190.805 302.518 190.829 302.054 190.853 301.621C190.889 301.175 190.919 300.808 190.944 300.519L186.915 311.809H184.748ZM199.553 311.809V300.085H195.94V298.604H204.791V300.085H201.179V311.809H199.553ZM208.469 311.809V298.622H210.095V304.041H212.732C213.527 304.041 214.22 304.204 214.81 304.529C215.412 304.854 215.876 305.306 216.201 305.884C216.538 306.462 216.707 307.142 216.707 307.925C216.707 308.696 216.538 309.376 216.201 309.966C215.876 310.544 215.412 310.996 214.81 311.321C214.22 311.646 213.527 311.809 212.732 311.809H208.469ZM210.095 310.328H212.642C213.353 310.328 213.925 310.111 214.358 309.677C214.804 309.232 215.027 308.648 215.027 307.925C215.027 307.203 214.804 306.625 214.358 306.191C213.925 305.745 213.353 305.523 212.642 305.523H210.095V310.328ZM235.912 311.989C235.118 311.989 234.425 311.839 233.835 311.538C233.257 311.237 232.805 310.803 232.48 310.237C232.167 309.659 232.011 308.979 232.011 308.196V302.235C232.011 301.44 232.167 300.76 232.48 300.194C232.805 299.628 233.257 299.194 233.835 298.893C234.425 298.592 235.118 298.442 235.912 298.442C236.707 298.442 237.394 298.598 237.972 298.911C238.55 299.212 238.995 299.646 239.308 300.212C239.621 300.778 239.778 301.452 239.778 302.235H238.152C238.152 301.488 237.954 300.916 237.556 300.519C237.171 300.109 236.623 299.905 235.912 299.905C235.202 299.905 234.642 300.103 234.232 300.501C233.835 300.898 233.636 301.47 233.636 302.217V308.196C233.636 308.943 233.835 309.521 234.232 309.93C234.642 310.328 235.202 310.526 235.912 310.526C236.623 310.526 237.171 310.328 237.556 309.93C237.954 309.521 238.152 308.943 238.152 308.196H239.778C239.778 308.967 239.621 309.641 239.308 310.219C238.995 310.785 238.55 311.225 237.972 311.538C237.394 311.839 236.707 311.989 235.912 311.989ZM249.742 311.809V306.733C249.586 306.769 249.291 306.811 248.857 306.859C248.436 306.895 247.918 306.914 247.304 306.914C246.172 306.914 245.268 306.57 244.594 305.884C243.932 305.197 243.601 304.276 243.601 303.12V298.622H245.226V303.12C245.226 303.831 245.437 304.403 245.858 304.836C246.292 305.258 246.864 305.468 247.575 305.468C248.153 305.468 248.628 305.45 249.002 305.414C249.375 305.366 249.622 305.324 249.742 305.288V298.622H251.368V311.809H249.742ZM254.974 311.809L258.406 298.622H260.592L264.006 311.809H262.362L261.495 308.304H257.503L256.636 311.809H254.974ZM257.828 306.932H261.152L260.14 302.867C259.947 302.097 259.797 301.452 259.688 300.934C259.58 300.417 259.514 300.079 259.49 299.923C259.466 300.079 259.399 300.417 259.291 300.934C259.183 301.452 259.032 302.09 258.839 302.849L257.828 306.932ZM271.387 311.989C270.592 311.989 269.899 311.839 269.309 311.538C268.731 311.237 268.28 310.803 267.955 310.237C267.641 309.659 267.485 308.979 267.485 308.196V302.235C267.485 301.44 267.641 300.76 267.955 300.194C268.28 299.628 268.731 299.194 269.309 298.893C269.899 298.592 270.592 298.442 271.387 298.442C272.181 298.442 272.868 298.598 273.446 298.911C274.024 299.212 274.47 299.646 274.783 300.212C275.096 300.778 275.252 301.452 275.252 302.235H273.627C273.627 301.488 273.428 300.916 273.03 300.519C272.645 300.109 272.097 299.905 271.387 299.905C270.676 299.905 270.116 300.103 269.707 300.501C269.309 300.898 269.111 301.47 269.111 302.217V308.196C269.111 308.943 269.309 309.521 269.707 309.93C270.116 310.328 270.676 310.526 271.387 310.526C272.097 310.526 272.645 310.328 273.03 309.93C273.428 309.521 273.627 308.943 273.627 308.196H275.252C275.252 308.967 275.096 309.641 274.783 310.219C274.47 310.785 274.024 311.225 273.446 311.538C272.868 311.839 272.181 311.989 271.387 311.989ZM282.326 311.809V300.085H278.714V298.604H287.565V300.085H283.952V311.809H282.326ZM289.906 311.899V310.382H290.231C290.761 310.382 291.14 310.147 291.369 309.677C291.61 309.196 291.737 308.377 291.749 307.221L291.893 298.622H298.685V311.809H297.059V300.103H293.501L293.374 307.221C293.35 308.834 293.091 310.021 292.598 310.779C292.116 311.526 291.357 311.899 290.322 311.899H289.906ZM302.995 311.809V298.622H304.567V306.028C304.567 306.462 304.555 306.926 304.531 307.419C304.519 307.901 304.501 308.365 304.477 308.81C304.452 309.244 304.428 309.611 304.404 309.912L308.414 298.622H310.582V311.809H309.011V304.403C309.011 303.957 309.017 303.493 309.029 303.012C309.053 302.518 309.077 302.054 309.101 301.621C309.137 301.175 309.167 300.808 309.191 300.519L305.163 311.809H302.995ZM314.874 311.809V298.622H318.613C319.818 298.622 320.757 298.923 321.431 299.525C322.118 300.128 322.461 300.965 322.461 302.036C322.461 302.638 322.335 303.162 322.082 303.608C321.829 304.053 321.468 304.397 320.998 304.637C320.54 304.878 319.986 304.993 319.336 304.981V304.71C320.035 304.698 320.637 304.83 321.142 305.107C321.66 305.384 322.058 305.782 322.335 306.299C322.624 306.817 322.768 307.431 322.768 308.142C322.768 308.889 322.612 309.539 322.299 310.093C321.985 310.647 321.54 311.074 320.962 311.375C320.384 311.664 319.691 311.809 318.884 311.809H314.874ZM316.464 310.346H318.704C319.462 310.346 320.059 310.147 320.492 309.75C320.938 309.34 321.16 308.786 321.16 308.088C321.16 307.365 320.938 306.781 320.492 306.335C320.059 305.878 319.462 305.649 318.704 305.649H316.464V310.346ZM316.464 304.24H318.595C319.294 304.24 319.842 304.053 320.239 303.68C320.649 303.307 320.853 302.801 320.853 302.163C320.853 301.524 320.655 301.019 320.257 300.645C319.86 300.272 319.312 300.085 318.613 300.085H316.464V304.24ZM330.438 311.989C329.643 311.989 328.957 311.839 328.379 311.538C327.813 311.237 327.373 310.803 327.06 310.237C326.759 309.659 326.609 308.979 326.609 308.196V302.235C326.609 301.44 326.759 300.76 327.06 300.194C327.373 299.628 327.813 299.194 328.379 298.893C328.957 298.592 329.643 298.442 330.438 298.442C331.233 298.442 331.913 298.592 332.479 298.893C333.058 299.194 333.497 299.628 333.798 300.194C334.111 300.76 334.268 301.434 334.268 302.217V308.196C334.268 308.979 334.111 309.659 333.798 310.237C333.497 310.803 333.058 311.237 332.479 311.538C331.913 311.839 331.233 311.989 330.438 311.989ZM330.438 310.526C331.149 310.526 331.691 310.328 332.064 309.93C332.449 309.521 332.642 308.943 332.642 308.196V302.235C332.642 301.488 332.449 300.916 332.064 300.519C331.691 300.109 331.149 299.905 330.438 299.905C329.74 299.905 329.198 300.109 328.813 300.519C328.427 300.916 328.234 301.488 328.234 302.235V308.196C328.234 308.943 328.427 309.521 328.813 309.93C329.198 310.328 329.74 310.526 330.438 310.526ZM338.47 311.809V298.622H340.041V306.028C340.041 306.462 340.029 306.926 340.005 307.419C339.993 307.901 339.975 308.365 339.951 308.81C339.927 309.244 339.903 309.611 339.879 309.912L343.889 298.622H346.056V311.809H344.485V304.403C344.485 303.957 344.491 303.493 344.503 303.012C344.527 302.518 344.551 302.054 344.575 301.621C344.611 301.175 344.641 300.808 344.666 300.519L340.637 311.809H338.47ZM342.263 297.267C341.396 297.267 340.697 297.027 340.168 296.545C339.638 296.063 339.373 295.431 339.373 294.648H340.655C340.655 295.118 340.8 295.497 341.089 295.786C341.378 296.075 341.763 296.22 342.245 296.22C342.739 296.22 343.13 296.075 343.419 295.786C343.72 295.497 343.871 295.118 343.871 294.648H345.153C345.153 295.431 344.888 296.063 344.358 296.545C343.829 297.027 343.13 297.267 342.263 297.267ZM360.71 311.809L363.095 305.017L360.891 298.622H362.589L364.467 304.475H365.226V298.622H366.599V304.475H367.376L369.236 298.622H370.934L368.767 305.035L371.115 311.809H369.435L367.412 305.631H366.599V311.809H365.226V305.631H364.413L362.372 311.809H360.71ZM373.944 311.809V298.622H375.515V306.028C375.515 306.462 375.503 306.926 375.479 307.419C375.467 307.901 375.449 308.365 375.425 308.81C375.401 309.244 375.377 309.611 375.353 309.912L379.363 298.622H381.531V311.809H379.959V304.403C379.959 303.957 379.965 303.493 379.977 303.012C380.001 302.518 380.025 302.054 380.05 301.621C380.086 301.175 380.116 300.808 380.14 300.519L376.112 311.809H373.944ZM389.381 311.989C388.563 311.989 387.84 311.845 387.214 311.556C386.588 311.267 386.088 310.857 385.714 310.328C385.353 309.798 385.148 309.178 385.1 308.467H386.726C386.798 309.105 387.075 309.611 387.557 309.984C388.039 310.358 388.647 310.544 389.381 310.544C390.2 310.544 390.845 310.328 391.314 309.894C391.796 309.461 392.037 308.895 392.037 308.196C392.037 307.486 391.796 306.92 391.314 306.498C390.833 306.065 390.188 305.848 389.381 305.848H387.756V304.367H389.363C390.098 304.367 390.688 304.138 391.134 303.68C391.579 303.222 391.802 302.663 391.802 302C391.802 301.326 391.579 300.808 391.134 300.447C390.7 300.073 390.11 299.887 389.363 299.887C388.629 299.887 388.039 300.097 387.593 300.519C387.148 300.928 386.925 301.47 386.925 302.145H385.299C385.299 301.398 385.468 300.748 385.805 300.194C386.142 299.64 386.612 299.212 387.214 298.911C387.828 298.598 388.545 298.442 389.363 298.442C390.628 298.442 391.633 298.731 392.38 299.309C393.127 299.887 393.5 300.712 393.5 301.783C393.5 302.386 393.368 302.927 393.103 303.409C392.85 303.879 392.482 304.246 392.001 304.511C391.531 304.776 390.971 304.902 390.321 304.89V304.619C391.019 304.607 391.621 304.746 392.127 305.035C392.645 305.312 393.042 305.715 393.319 306.245C393.608 306.763 393.753 307.377 393.753 308.088C393.753 308.846 393.572 309.521 393.211 310.111C392.862 310.689 392.356 311.146 391.694 311.484C391.043 311.821 390.273 311.989 389.381 311.989ZM397.648 311.809V298.622H399.273V304.258H403.5V298.622H405.126V311.809H403.5V305.739H399.273V311.809H397.648ZM409.49 311.809V298.622H411.116V304.041H413.754C414.548 304.041 415.241 304.204 415.831 304.529C416.433 304.854 416.897 305.306 417.222 305.884C417.559 306.462 417.728 307.142 417.728 307.925C417.728 308.696 417.559 309.376 417.222 309.966C416.897 310.544 416.433 310.996 415.831 311.321C415.241 311.646 414.548 311.809 413.754 311.809H409.49ZM411.116 310.328H413.663C414.374 310.328 414.946 310.111 415.379 309.677C415.825 309.232 416.048 308.648 416.048 307.925C416.048 307.203 415.825 306.625 415.379 306.191C414.946 305.745 414.374 305.523 413.663 305.523H411.116V310.328ZM426.644 311.989C425.717 311.989 424.982 311.682 424.44 311.068C423.898 310.454 423.627 309.617 423.627 308.557V305.757H422.2V311.809H420.701V298.622H422.2V304.312H423.627V301.874C423.627 300.802 423.892 299.965 424.422 299.363C424.964 298.749 425.705 298.442 426.644 298.442C427.607 298.442 428.36 298.749 428.902 299.363C429.456 299.977 429.733 300.814 429.733 301.874V308.557C429.733 309.617 429.456 310.454 428.902 311.068C428.36 311.682 427.607 311.989 426.644 311.989ZM426.644 310.58C427.162 310.58 427.553 310.406 427.818 310.057C428.095 309.707 428.234 309.208 428.234 308.557V301.874C428.234 301.223 428.095 300.724 427.818 300.374C427.553 300.025 427.162 299.851 426.644 299.851C426.126 299.851 425.729 300.025 425.452 300.374C425.187 300.724 425.054 301.223 425.054 301.874V308.557C425.054 309.208 425.187 309.707 425.452 310.057C425.729 310.406 426.126 310.58 426.644 310.58ZM436.861 311.989C436.404 311.989 436.036 311.857 435.759 311.592C435.494 311.327 435.362 310.972 435.362 310.526C435.362 310.057 435.494 309.683 435.759 309.406C436.036 309.129 436.404 308.991 436.861 308.991C437.319 308.991 437.68 309.129 437.945 309.406C438.222 309.683 438.36 310.057 438.36 310.526C438.36 310.972 438.222 311.327 437.945 311.592C437.68 311.857 437.319 311.989 436.861 311.989ZM220.294 332.809V319.622H227.736V332.809H226.111V321.103H221.92V332.809H220.294ZM235.84 332.989C235.045 332.989 234.359 332.839 233.781 332.538C233.215 332.237 232.775 331.803 232.462 331.237C232.161 330.659 232.011 329.979 232.011 329.196V323.235C232.011 322.44 232.161 321.76 232.462 321.194C232.775 320.628 233.215 320.194 233.781 319.893C234.359 319.592 235.045 319.442 235.84 319.442C236.635 319.442 237.315 319.592 237.881 319.893C238.459 320.194 238.899 320.628 239.2 321.194C239.513 321.76 239.67 322.434 239.67 323.217V329.196C239.67 329.979 239.513 330.659 239.2 331.237C238.899 331.803 238.459 332.237 237.881 332.538C237.315 332.839 236.635 332.989 235.84 332.989ZM235.84 331.526C236.551 331.526 237.093 331.328 237.466 330.93C237.851 330.521 238.044 329.943 238.044 329.196V323.235C238.044 322.488 237.851 321.916 237.466 321.519C237.093 321.109 236.551 320.905 235.84 320.905C235.142 320.905 234.6 321.109 234.214 321.519C233.829 321.916 233.636 322.488 233.636 323.235V329.196C233.636 329.943 233.829 330.521 234.214 330.93C234.6 331.328 235.142 331.526 235.84 331.526ZM243.619 332.809V319.622H245.75L247.123 323.885C247.255 324.271 247.376 324.656 247.484 325.041C247.593 325.415 247.671 325.704 247.719 325.908C247.779 325.704 247.858 325.415 247.954 325.041C248.05 324.656 248.159 324.265 248.279 323.867L249.58 319.622H251.711V332.809H250.122V328.022C250.122 327.492 250.14 326.89 250.176 326.216C250.212 325.541 250.26 324.855 250.32 324.156C250.38 323.446 250.441 322.771 250.501 322.133C250.573 321.483 250.633 320.917 250.682 320.435L248.55 327.028H246.834L244.684 320.435C244.745 320.905 244.805 321.453 244.865 322.079C244.925 322.693 244.979 323.349 245.028 324.048C245.076 324.734 245.118 325.421 245.154 326.107C245.19 326.794 245.208 327.432 245.208 328.022V332.809H243.619ZM259.49 332.989C258.695 332.989 258.008 332.839 257.43 332.538C256.864 332.237 256.425 331.803 256.112 331.237C255.811 330.659 255.66 329.979 255.66 329.196V323.235C255.66 322.44 255.811 321.76 256.112 321.194C256.425 320.628 256.864 320.194 257.43 319.893C258.008 319.592 258.695 319.442 259.49 319.442C260.284 319.442 260.965 319.592 261.531 319.893C262.109 320.194 262.548 320.628 262.85 321.194C263.163 321.76 263.319 322.434 263.319 323.217V329.196C263.319 329.979 263.163 330.659 262.85 331.237C262.548 331.803 262.109 332.237 261.531 332.538C260.965 332.839 260.284 332.989 259.49 332.989ZM259.49 331.526C260.2 331.526 260.742 331.328 261.115 330.93C261.501 330.521 261.693 329.943 261.693 329.196V323.235C261.693 322.488 261.501 321.916 261.115 321.519C260.742 321.109 260.2 320.905 259.49 320.905C258.791 320.905 258.249 321.109 257.864 321.519C257.479 321.916 257.286 322.488 257.286 323.235V329.196C257.286 329.943 257.479 330.521 257.864 330.93C258.249 331.328 258.791 331.526 259.49 331.526ZM266.112 332.809L268.496 326.017L266.293 319.622H267.991L269.869 325.475H270.628V319.622H272.001V325.475H272.778L274.638 319.622H276.336L274.168 326.035L276.517 332.809H274.837L272.814 326.631H272.001V332.809H270.628V326.631H269.815L267.774 332.809H266.112ZM279.526 332.809V319.622H287.113V321.103H281.134V325.186H286.481V326.649H281.134V331.328H287.113V332.809H279.526ZM290.737 332.809L290.701 319.622H292.218V331.58H294.332V319.622H295.632V331.58H297.728V319.622H299.227V332.809H290.737ZM303.068 332.809V319.622H304.693V325.041H307.331C308.125 325.041 308.818 325.204 309.408 325.529C310.01 325.854 310.474 326.306 310.799 326.884C311.136 327.462 311.305 328.142 311.305 328.925C311.305 329.696 311.136 330.376 310.799 330.966C310.474 331.544 310.01 331.996 309.408 332.321C308.818 332.646 308.125 332.809 307.331 332.809H303.068ZM304.693 331.328H307.24C307.951 331.328 308.523 331.111 308.956 330.677C309.402 330.232 309.625 329.648 309.625 328.925C309.625 328.203 309.402 327.625 308.956 327.191C308.523 326.745 307.951 326.523 307.24 326.523H304.693V331.328ZM326.392 332.809V319.622H328.523L329.896 323.885C330.029 324.271 330.149 324.656 330.258 325.041C330.366 325.415 330.444 325.704 330.492 325.908C330.553 325.704 330.631 325.415 330.727 325.041C330.824 324.656 330.932 324.265 331.052 323.867L332.353 319.622H334.485V332.809H332.895V328.022C332.895 327.492 332.913 326.89 332.949 326.216C332.985 325.541 333.033 324.855 333.094 324.156C333.154 323.446 333.214 322.771 333.274 322.133C333.347 321.483 333.407 320.917 333.455 320.435L331.323 327.028H329.607L327.458 320.435C327.518 320.905 327.578 321.453 327.638 322.079C327.699 322.693 327.753 323.349 327.801 324.048C327.849 324.734 327.891 325.421 327.927 326.107C327.964 326.794 327.982 327.432 327.982 328.022V332.809H326.392ZM338.524 332.809V319.622H340.15V325.258H344.377V319.622H346.002V332.809H344.377V326.739H340.15V332.809H338.524ZM350.475 332.809V319.622H358.062V321.103H352.083V325.186H357.43V326.649H352.083V331.328H358.062V332.809H350.475ZM364.305 329.106V325.854H365.208C365.979 325.854 366.587 325.644 367.033 325.222C367.49 324.788 367.719 324.216 367.719 323.506C367.719 322.795 367.49 322.229 367.033 321.808C366.587 321.374 365.973 321.158 365.19 321.158H362.932V319.622H365.19C366.033 319.622 366.762 319.785 367.376 320.11C368.002 320.423 368.484 320.869 368.821 321.447C369.17 322.025 369.345 322.711 369.345 323.506C369.345 324.192 369.2 324.813 368.911 325.367C368.622 325.908 368.219 326.342 367.701 326.667C367.195 326.992 366.605 327.173 365.931 327.209V329.106H364.305ZM364.829 332.899C364.516 332.899 364.257 332.797 364.052 332.592C363.847 332.387 363.745 332.128 363.745 331.815C363.745 331.502 363.847 331.243 364.052 331.039C364.257 330.834 364.516 330.731 364.829 330.731H365.371C365.72 330.731 365.985 330.834 366.165 331.039C366.358 331.231 366.454 331.484 366.454 331.797C366.454 332.11 366.352 332.375 366.147 332.592C365.943 332.797 365.684 332.899 365.371 332.899H364.829Z" fill="white"/>
<path d="M267.883 138.287V103.773H323.111V138.287H267.883Z" fill="#206234" stroke="#206234" stroke-width="1.12893"/>
<path d="M262.77 103.773V95.0803H300.866V103.517L262.77 103.773Z" fill="#26733D" stroke="#26733D" stroke-width="1.12893"/>
<path d="M300.867 103.773V95.0803H326.436V103.517L300.867 103.773Z" fill="#26733D" stroke="#26733D" stroke-width="1.12893"/>
<path d="M332.845 35H256.604V53.175H241.039V61.0772H348.938V53.175H332.845V35Z" fill="#26733D" stroke="#26733D" stroke-width="1.12893"/>
<path d="M260.723 61.5884H329.246V95.0796H260.723V61.5884Z" fill="black"/>
<rect x="294.219" y="95.0803" width="6.64779" height="8.69238" fill="black"/>
<rect x="287.062" y="95.0803" width="7.15915" height="8.69238" fill="black"/>
<rect x="302.66" y="71.8147" width="7.67052" height="12.5273" fill="#FAFF15"/>
<rect x="279.902" y="71.8147" width="7.15915" height="12.5273" fill="#FAFF15"/>
<rect x="261.496" y="43.4369" width="4.09095" height="4.60185" fill="#FF9315"/>
<rect x="325.672" y="37.3011" width="3.83526" height="4.85751" fill="#FF9315"/>
<rect x="265.586" y="48.0387" width="9.97168" height="4.60185" fill="#FF9315"/>
<path fill-rule="evenodd" clip-rule="evenodd" d="M250.999 407.568H338.668V397.788H322.853V392.021H338.668V367.198H299.622V372.053H278.994V367.198H250.999V378.732H259.836V390.266H250.999V407.568Z" fill="#206234"/>
<rect x="280.559" y="379.053" width="7.55718" height="3.59866" fill="white"/>
<rect x="280.559" y="394.648" width="7.55718" height="3.59866" fill="white"/>
<rect x="276.961" y="394.407" width="11.7556" height="3.59866" transform="rotate(-90 276.961 394.407)" fill="white"/>
<rect x="288.117" y="394.407" width="11.7556" height="3.59866" transform="rotate(-90 288.117 394.407)" fill="white"/>
<path d="M303.926 379.053H307.886V383.446H303.926V379.053Z" fill="white"/>
<path d="M303.926 386.975H307.886V398.246H303.926V386.975Z" fill="white"/>
<rect x="300.359" y="383.44" width="3.56437" height="3.56437" fill="white"/>
<rect x="296.797" y="398.246" width="19.1928" height="3.56437" transform="rotate(-90 296.797 398.246)" fill="white"/>
<defs>
<filter id="filter0_b_361_960" x="-2.25798" y="-2.25798" width="594.977" height="446.516" filterUnits="userSpaceOnUse" color-interpolation-filters="sRGB">
<feFlood flood-opacity="0" result="BackgroundImageFix"/>
<feGaussianBlur in="BackgroundImageFix" stdDeviation="1.12899"/>
<feComposite in2="SourceAlpha" operator="in" result="effect1_backgroundBlur_361_960"/>
<feBlend mode="normal" in="SourceGraphic" in2="effect1_backgroundBlur_361_960" result="shape"/>
</filter>
</defs>
</svg>
