<svg width="1280" height="1024" viewBox="0 0 1280 1024" fill="none" xmlns="http://www.w3.org/2000/svg">
<g clip-path="url(#clip0_419_3579)">
<rect width="1280" height="1024" fill="#111111"/>
<rect x="76.8047" y="81.5491" width="9.33015" height="9.32921" fill="white"/>
<rect x="975.422" y="127.346" width="9.33015" height="9.32921" fill="white"/>
<rect x="1032.77" y="578.058" width="9.33015" height="9.32921" fill="white"/>
<rect x="1032.77" y="888.089" width="9.33015" height="9.32921" fill="white"/>
<rect x="691.398" y="122.679" width="9.33015" height="9.32921" fill="white"/>
<rect x="1042.1" y="247.358" width="9.33015" height="9.32921" fill="white"/>
<rect x="893.414" y="702.737" width="9.33015" height="9.32921" fill="white"/>
<rect x="390.664" y="892.297" width="9.33015" height="9.32921" fill="white"/>
<rect x="400.492" y="687.091" width="9.33015" height="9.32921" fill="white"/>
<rect x="1131.44" y="722.073" width="9.33015" height="9.32921" fill="white"/>
<rect x="804.797" y="284.381" width="6.2201" height="6.21947" fill="white"/>
<rect x="565.141" y="771.87" width="6.2201" height="6.21947" fill="white"/>
<rect x="695.945" y="931.206" width="6.2201" height="6.21947" fill="white"/>
<rect x="221.883" y="146.978" width="6.2201" height="6.21947" fill="white"/>
<rect x="234.211" y="335.678" width="6.2201" height="6.21947" fill="white"/>
<rect x="1244.78" y="193.353" width="6.2201" height="6.21947" fill="white"/>
<rect x="212.398" y="561.36" width="6.2201" height="6.21947" fill="white"/>
<rect x="406.703" y="163.35" width="6.2201" height="6.21947" fill="white"/>
<rect x="402.047" y="461.795" width="6.2201" height="6.21947" fill="white"/>
<rect x="740.57" y="790.835" width="6.2201" height="6.21947" fill="white"/>
<rect x="98.6016" y="439.037" width="9.33015" height="9.32921" fill="white"/>
<rect x="573.383" y="214.688" width="9.33015" height="9.32921" fill="white"/>
<rect x="1251.09" y="491.178" width="9.33015" height="9.32921" fill="white"/>
<rect x="41.3281" y="910.758" width="9.33015" height="9.32921" fill="white"/>
<rect x="951.086" y="439.037" width="9.33015" height="9.32921" fill="white"/>
<path d="M105.883 910.071V825.948H240.493V910.071H105.883Z" fill="#206234" stroke="#206234" stroke-width="0.623164"/>
<path d="M105.883 993.202V889.508H114.943V910.631H137.594V931.114H240.493V951.167V971.439V993.202H221.078V1077.69H200.369V993.202H136.3V1077.69H116.237V993.202H105.883Z" fill="black"/>
<path d="M240.493 951.167V993.202H221.078V1077.69H200.369V993.202H136.3V1077.69H116.237V993.202H105.883V889.508H114.943V910.631H137.594V931.114H240.493V971.439" stroke="black" stroke-width="0.623164"/>
<path d="M93.4141 825.948V804.761H186.27V825.325L93.4141 825.948Z" fill="#26733D" stroke="#26733D" stroke-width="0.623164"/>
<path d="M105.883 889.508V867.075H198.116V889.508H105.883Z" fill="#26733D" stroke="#26733D" stroke-width="0.623164"/>
<path d="M198.742 886.392V868.322H240.496V886.392H198.742Z" fill="#206234" stroke="#206234" stroke-width="0.623164"/>
<path d="M209.953 930.323V882.03H240.49V930.323H209.953Z" fill="#206234" stroke="#206234" stroke-width="0.623164"/>
<path d="M138.287 930.323L137.664 890.131L212.448 889.197V930.323H138.287Z" fill="#206234" stroke="#206234" stroke-width="0.623164"/>
<path d="M186.281 825.948V804.761H248.601V825.325L186.281 825.948Z" fill="#26733D" stroke="#26733D" stroke-width="0.623164"/>
<path d="M264.218 658.326H78.3904V702.625H40.4531V721.885H303.442V702.625H264.218V658.326Z" fill="#26733D" stroke="#26733D" stroke-width="0.623164"/>
<path d="M88.4297 723.131H255.446V804.762H88.4297V723.131Z" fill="black"/>
<rect x="170.086" y="804.761" width="16.2031" height="21.1865" fill="black"/>
<rect x="152.633" y="804.761" width="17.4495" height="21.1865" fill="black"/>
<rect x="190.633" y="748.057" width="18.6959" height="30.5335" fill="#FAFF15"/>
<path d="M147.648 910.071V887.639H240.505V910.071H147.648Z" fill="#26733D" stroke="#26733D" stroke-width="0.623164"/>
<rect x="135.18" y="748.057" width="17.4495" height="30.5335" fill="#FAFF15"/>
<rect x="90.3047" y="678.889" width="9.97113" height="11.2164" fill="#FF9315"/>
<rect x="246.727" y="663.934" width="9.34793" height="11.8395" fill="#FF9315"/>
<rect x="100.273" y="690.106" width="24.3046" height="11.2164" fill="#FF9315"/>
<path d="M92.6778 783.975H79.7734L79.7734 936.792H118.083V917.283H105.582V903.871L105.582 824.619H92.6778V798.608V783.975Z" fill="#122132" stroke="#122132" stroke-width="0.623164"/>
<path d="M53.2734 783.975L53.2734 969.392H65.9075V955.129H79.3567L79.3567 783.975H53.2734Z" fill="#182738" stroke="#182738" stroke-width="0.623164"/>
<rect x="65.9141" y="808.834" width="5.70514" height="21.1926" transform="rotate(-90 65.9141 808.834)" fill="#FF9315"/>
<rect x="39.8281" y="810.464" width="13.0403" height="13.0416" transform="rotate(-90 39.8281 810.464)" fill="#FF9315"/>
<rect x="65.9141" y="821.874" width="5.70514" height="21.1926" transform="rotate(-90 65.9141 821.874)" fill="#FF9315"/>
<rect x="65.9141" y="834.799" width="5.70514" height="21.1926" transform="rotate(-90 65.9141 834.799)" fill="#FF9315"/>
<rect x="778.227" y="467.59" width="16.0995" height="16.0995" fill="#206234"/>
<rect x="778.227" y="397" width="16.0995" height="49.9289" fill="#206234"/>
<rect x="602.641" y="484.238" width="86.6898" height="16.0995" transform="rotate(-90 602.641 484.238)" fill="#206234"/>
<rect x="679.148" y="432.915" width="16.0995" height="16.0995" fill="#206234"/>
<rect x="695.25" y="449.014" width="17.3379" height="16.0995" fill="#206234"/>
<rect x="663.047" y="416.815" width="16.0995" height="16.0995" fill="#206234"/>
<rect x="646.953" y="483.69" width="86.6898" height="16.0995" transform="rotate(-90 646.953 483.69)" fill="#206234"/>
<rect x="712.594" y="483.69" width="86.6898" height="16.0995" transform="rotate(-90 712.594 483.69)" fill="#206234"/>
<rect x="557.641" y="447.478" width="19.7521" height="18.6548" transform="rotate(90 557.641 447.478)" fill="#206234"/>
<rect x="523.07" y="447.478" width="19.7521" height="18.6548" transform="rotate(90 523.07 447.478)" fill="#206234"/>
<rect x="538.977" y="431.566" width="15.9114" height="15.9114" transform="rotate(90 538.977 431.566)" fill="#206234"/>
<rect x="574.094" y="397" width="86.6898" height="16.4601" transform="rotate(90 574.094 397)" fill="#206234"/>
<rect x="504.414" y="397" width="86.6898" height="16.4601" transform="rotate(90 504.414 397)" fill="#206234"/>
<rect x="339.336" y="572.125" width="17.6699" height="17.6699" fill="#206234"/>
<rect x="356.922" y="554.709" width="19.0291" height="17.2451" fill="#206234"/>
<rect x="321.672" y="554.455" width="17.6699" height="17.6699" fill="#206234"/>
<rect x="304" y="627.853" width="95.1455" height="17.6699" transform="rotate(-90 304 627.853)" fill="#206234"/>
<rect x="376.039" y="627.853" width="95.1455" height="17.6699" transform="rotate(-90 376.039 627.853)" fill="#206234"/>
<rect x="421.07" y="627.853" width="95.1455" height="17.8398" transform="rotate(-90 421.07 627.853)" fill="#206234"/>
<rect x="501.586" y="572.125" width="17.6699" height="17.6699" fill="#206234"/>
<rect x="519.258" y="589.794" width="19.0291" height="17.6699" fill="#206234"/>
<rect x="483.922" y="554.455" width="17.6699" height="17.6699" fill="#206234"/>
<rect x="466.25" y="627.853" width="95.1455" height="17.6699" transform="rotate(-90 466.25 627.853)" fill="#206234"/>
<rect x="538.289" y="627.853" width="95.1455" height="17.6699" transform="rotate(-90 538.289 627.853)" fill="#206234"/>
<rect x="639.211" y="610.013" width="59.4659" height="17.8398" transform="rotate(-90 639.211 610.013)" fill="#206234"/>
<rect x="601.164" y="610.013" width="38.0582" height="17.8398" fill="#206234"/>
<rect x="601.164" y="532.707" width="38.0582" height="17.8398" fill="#206234"/>
<rect x="583.32" y="627.853" width="95.1455" height="17.8398" transform="rotate(-90 583.32 627.853)" fill="#206234"/>
<rect x="740.305" y="568.387" width="17.8398" height="17.8398" transform="rotate(-90 740.305 568.387)" fill="#206234"/>
<rect x="740.305" y="627.853" width="17.8398" height="17.8398" transform="rotate(-90 740.305 627.853)" fill="#206234"/>
<rect x="722.469" y="610.013" width="23.7864" height="17.8398" transform="rotate(-90 722.469 610.013)" fill="#206234"/>
<rect x="702.258" y="532.707" width="38.0582" height="17.8398" fill="#206234"/>
<rect x="702.258" y="568.387" width="38.0582" height="17.8398" fill="#206234"/>
<rect x="684.414" y="627.853" width="95.1455" height="17.8398" transform="rotate(-90 684.414 627.853)" fill="#206234"/>
<rect x="841.391" y="626.663" width="38.0582" height="17.8398" transform="rotate(-180 841.391 626.663)" fill="#206234"/>
<rect x="859.234" y="532.707" width="76.1164" height="17.8398" transform="rotate(90 859.234 532.707)" fill="#206234"/>
<rect x="803.336" y="532.707" width="76.1164" height="17.8398" transform="rotate(90 803.336 532.707)" fill="#206234"/>
<rect x="921.938" y="572.125" width="17.6699" height="17.6699" fill="#206234"/>
<rect x="939.609" y="589.794" width="19.0291" height="17.6699" fill="#206234"/>
<rect x="904.273" y="554.455" width="17.6699" height="17.6699" fill="#206234"/>
<rect x="886.602" y="627.853" width="95.1455" height="17.6699" transform="rotate(-90 886.602 627.853)" fill="#206234"/>
<rect x="958.641" y="627.853" width="95.1455" height="17.6699" transform="rotate(-90 958.641 627.853)" fill="#206234"/>
</g>
<defs>
<clipPath id="clip0_419_3579">
<rect width="1280" height="1024" fill="white"/>
</clipPath>
</defs>
</svg>
