<svg width="1024" height="1024" viewBox="0 0 1024 1024" fill="none" xmlns="http://www.w3.org/2000/svg">
<g clip-path="url(#clip0_426_10460)">
<rect width="1024" height="1024" fill="#111111"/>
<rect x="2.13281" y="144.001" width="7.87209" height="7.8713" fill="white"/>
<rect x="729" y="205" width="7.87209" height="7.8713" fill="white"/>
<rect x="744" y="416" width="7.87209" height="7.8713" fill="white"/>
<rect x="808.711" y="824.501" width="7.87209" height="7.8713" fill="white"/>
<rect x="496" y="128" width="7.87209" height="7.8713" fill="white"/>
<rect x="858" y="320" width="7.87209" height="7.8713" fill="white"/>
<rect x="691.133" y="668.114" width="7.87209" height="7.8713" fill="white"/>
<rect x="266.953" y="828.051" width="7.87209" height="7.8713" fill="white"/>
<rect x="275.242" y="654.914" width="7.87209" height="7.8713" fill="white"/>
<rect x="891.961" y="684.428" width="7.87209" height="7.8713" fill="white"/>
<rect x="891.961" y="684.428" width="7.87209" height="7.8713" fill="white"/>
<rect x="616.375" y="315.136" width="5.24806" height="5.24753" fill="white"/>
<rect x="414.164" y="726.444" width="5.24806" height="5.24753" fill="white"/>
<rect x="524.531" y="860.879" width="5.24806" height="5.24753" fill="white"/>
<rect x="124.547" y="199.206" width="5.24806" height="5.24753" fill="white"/>
<rect x="134.953" y="358.417" width="5.24806" height="5.24753" fill="white"/>
<rect x="987.594" y="238.333" width="5.24806" height="5.24753" fill="white"/>
<rect x="116.547" y="548.831" width="5.24806" height="5.24753" fill="white"/>
<rect x="280.492" y="213.019" width="5.24806" height="5.24753" fill="white"/>
<rect x="264" y="411" width="5.24806" height="5.24753" fill="white"/>
<rect x="562.18" y="742.445" width="5.24806" height="5.24753" fill="white"/>
<rect x="20.5312" y="445.623" width="7.87209" height="7.8713" fill="white"/>
<rect x="421.117" y="256.335" width="7.87209" height="7.8713" fill="white"/>
<rect x="992.922" y="489.616" width="7.87209" height="7.8713" fill="white"/>
<rect x="315.422" y="100.916" width="7.87209" height="7.8713" transform="rotate(-180 315.422 100.916)" fill="white"/>
<rect x="951.203" y="84.3518" width="5.24806" height="5.24753" transform="rotate(-180 951.203 84.3518)" fill="white"/>
<rect x="88.1562" y="45.2241" width="5.24806" height="5.24753" transform="rotate(-180 88.1562 45.2241)" fill="white"/>
<rect x="795.258" y="70.5383" width="5.24806" height="5.24753" transform="rotate(-180 795.258 70.5383)" fill="white"/>
<rect x="625.875" y="64.8713" width="7.87209" height="7.8713" transform="rotate(-180 625.875 64.8713)" fill="white"/>
<rect x="630.25" y="446.78" width="13.5836" height="13.5836" fill="#206234"/>
<rect x="630.25" y="387.221" width="13.5836" height="42.1263" fill="#206234"/>
<rect x="482.109" y="460.827" width="73.1424" height="13.5836" transform="rotate(-90 482.109 460.827)" fill="#206234"/>
<rect x="546.664" y="417.523" width="13.5836" height="13.5836" fill="#206234"/>
<rect x="560.258" y="431.106" width="14.6285" height="13.5836" fill="#206234"/>
<rect x="533.086" y="403.94" width="13.5836" height="13.5836" fill="#206234"/>
<rect x="519.5" y="460.364" width="73.1424" height="13.5836" transform="rotate(-90 519.5 460.364)" fill="#206234"/>
<rect x="574.883" y="460.364" width="73.1424" height="13.5836" transform="rotate(-90 574.883 460.364)" fill="#206234"/>
<rect x="444.141" y="429.812" width="16.6654" height="15.7395" transform="rotate(90 444.141 429.812)" fill="#206234"/>
<rect x="414.984" y="429.812" width="16.6654" height="15.7395" transform="rotate(90 414.984 429.812)" fill="#206234"/>
<rect x="428.406" y="416.387" width="13.4249" height="13.4249" transform="rotate(90 428.406 416.387)" fill="#206234"/>
<rect x="458.031" y="387.223" width="73.1424" height="13.8878" transform="rotate(90 458.031 387.223)" fill="#206234"/>
<rect x="399.242" y="387.223" width="73.1424" height="13.8878" transform="rotate(90 399.242 387.223)" fill="#206234"/>
<rect x="259.953" y="534.979" width="14.9085" height="14.9085" fill="#206234"/>
<rect x="274.789" y="520.286" width="16.0553" height="14.5502" fill="#206234"/>
<rect x="245.047" y="520.071" width="14.9085" height="14.9085" fill="#206234"/>
<rect x="230.141" y="581.998" width="80.2767" height="14.9085" transform="rotate(-90 230.141 581.998)" fill="#206234"/>
<rect x="290.93" y="581.998" width="80.2767" height="14.9085" transform="rotate(-90 290.93 581.998)" fill="#206234"/>
<rect x="328.914" y="581.999" width="80.2767" height="15.0519" transform="rotate(-90 328.914 581.999)" fill="#206234"/>
<rect x="396.852" y="534.979" width="14.9085" height="14.9085" fill="#206234"/>
<rect x="411.758" y="549.888" width="16.0553" height="14.9085" fill="#206234"/>
<rect x="381.945" y="520.071" width="14.9085" height="14.9085" fill="#206234"/>
<rect x="367.039" y="581.999" width="80.2767" height="14.9085" transform="rotate(-90 367.039 581.999)" fill="#206234"/>
<rect x="427.828" y="581.999" width="80.2767" height="14.9085" transform="rotate(-90 427.828 581.999)" fill="#206234"/>
<rect x="512.969" y="566.947" width="50.173" height="15.0519" transform="rotate(-90 512.969 566.947)" fill="#206234"/>
<rect x="480.875" y="566.947" width="32.1107" height="15.0519" fill="#206234"/>
<rect x="480.875" y="501.722" width="32.1107" height="15.0519" fill="#206234"/>
<rect x="465.812" y="581.999" width="80.2767" height="15.0519" transform="rotate(-90 465.812 581.999)" fill="#206234"/>
<rect x="598.273" y="531.826" width="15.0519" height="15.0519" transform="rotate(-90 598.273 531.826)" fill="#206234"/>
<rect x="598.273" y="581.999" width="15.0519" height="15.0519" transform="rotate(-90 598.273 581.999)" fill="#206234"/>
<rect x="583.227" y="566.947" width="20.0692" height="15.0519" transform="rotate(-90 583.227 566.947)" fill="#206234"/>
<rect x="566.18" y="501.722" width="32.1107" height="15.0519" fill="#206234"/>
<rect x="566.18" y="531.826" width="32.1107" height="15.0519" fill="#206234"/>
<rect x="551.117" y="581.999" width="80.2767" height="15.0519" transform="rotate(-90 551.117 581.999)" fill="#206234"/>
<rect x="683.547" y="580.995" width="32.1107" height="15.0519" transform="rotate(-180 683.547 580.995)" fill="#206234"/>
<rect x="698.609" y="501.722" width="64.2214" height="15.0519" transform="rotate(90 698.609 501.722)" fill="#206234"/>
<rect x="651.453" y="501.722" width="64.2214" height="15.0519" transform="rotate(90 651.453 501.722)" fill="#206234"/>
<rect x="751.508" y="534.979" width="14.9085" height="14.9085" fill="#206234"/>
<rect x="766.414" y="549.888" width="16.0553" height="14.9085" fill="#206234"/>
<rect x="736.602" y="520.071" width="14.9085" height="14.9085" fill="#206234"/>
<rect x="721.695" y="581.999" width="80.2767" height="14.9085" transform="rotate(-90 721.695 581.999)" fill="#206234"/>
<rect x="782.484" y="581.999" width="80.2767" height="14.9085" transform="rotate(-90 782.484 581.999)" fill="#206234"/>
<rect x="644.039" y="918.056" width="7.87209" height="7.8713" transform="rotate(-180 644.039 918.056)" fill="white"/>
<rect x="721.875" y="972.871" width="7.87209" height="7.8713" transform="rotate(-180 721.875 972.871)" fill="white"/>
<rect x="928.219" y="881.678" width="5.24806" height="5.24753" transform="rotate(-180 928.219 881.678)" fill="white"/>
<rect x="890.57" y="1000.11" width="5.24806" height="5.24753" transform="rotate(-180 890.57 1000.11)" fill="white"/>
<rect x="385.047" y="997.124" width="5.24806" height="5.24753" transform="rotate(-180 385.047 997.124)" fill="white"/>
<rect x="362.742" y="869.871" width="7.87209" height="7.8713" transform="rotate(-180 362.742 869.871)" fill="white"/>
<path d="M102.742 908.404V837.427H216.316V908.404H102.742Z" fill="#206234" stroke="#206234" stroke-width="0.52578"/>
<path d="M102.742 978.544V891.054H110.387V908.876H129.498V926.158H216.316V943.078V960.182V978.544H199.936V1049.83H182.463V978.544H128.406V1049.83H111.479V978.544H102.742Z" fill="black"/>
<path d="M216.316 943.078V978.544H199.936V1049.83H182.463V978.544H128.406V1049.83H111.479V978.544H102.742V891.054H110.387V908.876H129.498V926.158H216.316V960.182" stroke="black" stroke-width="0.52578"/>
<path d="M92.2188 837.428V819.552H170.564V836.902L92.2188 837.428Z" fill="#26733D" stroke="#26733D" stroke-width="0.52578"/>
<path d="M102.742 891.054V872.127H180.562V891.054H102.742Z" fill="#26733D" stroke="#26733D" stroke-width="0.52578"/>
<path d="M181.078 888.426V873.179H216.307V888.426H181.078Z" fill="#206234" stroke="#206234" stroke-width="0.52578"/>
<path d="M190.539 925.491V884.745H216.304V925.491H190.539Z" fill="#206234" stroke="#206234" stroke-width="0.52578"/>
<path d="M130.073 925.491L129.547 891.58L192.644 890.792V925.491H130.073Z" fill="#206234" stroke="#206234" stroke-width="0.52578"/>
<path d="M170.57 837.428V819.552H223.151V836.902L170.57 837.428Z" fill="#26733D" stroke="#26733D" stroke-width="0.52578"/>
<path d="M236.328 696H79.5399V733.376H47.5312V749.627H269.422V733.376H236.328V696Z" fill="#26733D" stroke="#26733D" stroke-width="0.52578"/>
<path d="M88.0156 750.678H228.932V819.552H88.0156V750.678Z" fill="black"/>
<rect x="156.906" y="819.552" width="13.671" height="17.8756" fill="black"/>
<rect x="142.18" y="819.552" width="14.7226" height="17.8756" fill="black"/>
<rect x="174.25" y="771.708" width="15.7742" height="25.7619" fill="#FAFF15"/>
<path d="M137.969 908.404V889.477H216.314V908.404H137.969Z" fill="#26733D" stroke="#26733D" stroke-width="0.52578"/>
<rect x="127.453" y="771.708" width="14.7226" height="25.7619" fill="#FAFF15"/>
<rect x="89.5859" y="713.35" width="8.41291" height="9.46357" fill="#FF9315"/>
<rect x="221.57" y="700.732" width="7.8871" height="9.98932" fill="#FF9315"/>
<rect x="98" y="722.813" width="20.5065" height="9.46357" fill="#FF9315"/>
<path d="M91.5987 802.014H80.7109L80.7109 930.949H113.034V914.489H102.486V903.173L102.486 836.306H91.5987V814.36V802.014Z" fill="#122132" stroke="#122132" stroke-width="0.52578"/>
<path d="M58.3438 802.014L58.3438 958.455H69.0034V946.421H80.3509L80.3509 802.014H58.3438Z" fill="#182738" stroke="#182738" stroke-width="0.52578"/>
<rect x="69.0078" y="822.987" width="4.81357" height="17.8808" transform="rotate(-90 69.0078 822.987)" fill="#FF9315"/>
<rect x="47" y="824.363" width="11.0025" height="11.0036" transform="rotate(-90 47 824.363)" fill="#FF9315"/>
<rect x="69.0078" y="833.99" width="4.81357" height="17.8808" transform="rotate(-90 69.0078 833.99)" fill="#FF9315"/>
<rect x="69.0078" y="844.895" width="4.81357" height="17.8808" transform="rotate(-90 69.0078 844.895)" fill="#FF9315"/>
</g>
<defs>
<clipPath id="clip0_426_10460">
<rect width="1024" height="1024" fill="white"/>
</clipPath>
</defs>
</svg>
