<svg width="563" height="422" viewBox="0 0 563 422" fill="none" xmlns="http://www.w3.org/2000/svg">
<g filter="url(#filter0_b_97_3031)">
<rect width="563" height="421.443" fill="black" fill-opacity="0.87"/>
</g>
<rect x="0.807361" y="0.807361" width="561.385" height="419.828" stroke="#206234" stroke-width="1.61472"/>
<path d="M153.933 183.931V171.358H161.029V183.931H159.479V172.77H155.483V183.931H153.933ZM165.173 183.931V171.358H169.221C170.002 171.358 170.679 171.513 171.253 171.823C171.827 172.122 172.269 172.547 172.579 173.098C172.901 173.649 173.062 174.303 173.062 175.061C173.062 175.808 172.901 176.462 172.579 177.025C172.269 177.576 171.827 178.006 171.253 178.316C170.679 178.615 170.002 178.764 169.221 178.764H166.723V183.931H165.173ZM166.723 177.369H169.221C169.898 177.369 170.438 177.162 170.84 176.749C171.253 176.324 171.46 175.762 171.46 175.061C171.46 174.349 171.253 173.787 170.84 173.373C170.438 172.96 169.898 172.753 169.221 172.753H166.723V177.369ZM176.414 183.931V171.358H177.912V178.42C177.912 178.833 177.901 179.275 177.878 179.746C177.866 180.205 177.849 180.647 177.826 181.072C177.803 181.486 177.78 181.836 177.757 182.123L181.581 171.358H183.648V183.931H182.149V176.87C182.149 176.445 182.155 176.003 182.166 175.543C182.189 175.073 182.212 174.631 182.235 174.217C182.27 173.792 182.298 173.442 182.321 173.167L178.481 183.931H176.414ZM187.74 183.931V171.358H191.305C192.454 171.358 193.349 171.645 193.992 172.219C194.647 172.793 194.974 173.591 194.974 174.613C194.974 175.187 194.854 175.687 194.612 176.112C194.371 176.537 194.027 176.864 193.579 177.094C193.143 177.323 192.614 177.432 191.994 177.421V177.162C192.66 177.151 193.234 177.277 193.717 177.541C194.21 177.805 194.589 178.184 194.854 178.678C195.129 179.172 195.267 179.758 195.267 180.435C195.267 181.147 195.118 181.767 194.819 182.295C194.521 182.823 194.096 183.231 193.545 183.518C192.993 183.794 192.333 183.931 191.564 183.931H187.74ZM189.256 182.536H191.392C192.115 182.536 192.683 182.347 193.097 181.968C193.522 181.577 193.734 181.049 193.734 180.383C193.734 179.694 193.522 179.137 193.097 178.713C192.683 178.276 192.115 178.058 191.392 178.058H189.256V182.536ZM189.256 176.715H191.288C191.954 176.715 192.477 176.537 192.856 176.181C193.246 175.825 193.441 175.343 193.441 174.734C193.441 174.125 193.252 173.643 192.873 173.287C192.494 172.931 191.971 172.753 191.305 172.753H189.256V176.715ZM199.135 183.931V171.358H206.369V172.77H200.668V176.663H205.767V178.058H200.668V182.519H206.369V183.931H199.135ZM213.08 183.931V172.753H209.635V171.341H218.075V172.753H214.63V183.931H213.08ZM225.13 184.104C224.694 184.104 224.343 183.977 224.079 183.725C223.827 183.472 223.7 183.133 223.7 182.709C223.7 182.261 223.827 181.905 224.079 181.641C224.343 181.377 224.694 181.244 225.13 181.244C225.566 181.244 225.911 181.377 226.163 181.641C226.427 181.905 226.559 182.261 226.559 182.709C226.559 183.133 226.427 183.472 226.163 183.725C225.911 183.977 225.566 184.104 225.13 184.104ZM232.547 183.931V171.358H234.579L235.888 175.423C236.014 175.79 236.129 176.158 236.232 176.525C236.336 176.881 236.41 177.157 236.456 177.352C236.514 177.157 236.588 176.881 236.68 176.525C236.772 176.158 236.875 175.785 236.99 175.406L238.23 171.358H240.263V183.931H238.747V179.367C238.747 178.862 238.764 178.288 238.799 177.645C238.833 177.002 238.879 176.347 238.937 175.681C238.994 175.004 239.051 174.361 239.109 173.752C239.178 173.132 239.235 172.592 239.281 172.133L237.249 178.42H235.612L233.563 172.133C233.62 172.581 233.678 173.103 233.735 173.701C233.792 174.286 233.844 174.912 233.89 175.578C233.936 176.232 233.976 176.887 234.011 177.541C234.045 178.196 234.062 178.804 234.062 179.367V183.931H232.547ZM244.235 183.931V171.358H251.469V172.77H245.768V176.663H250.866V178.058H245.768V182.519H251.469V183.931H244.235ZM255.389 183.931V171.358H256.939V176.732H260.969V171.358H262.52V183.931H260.969V178.144H256.939V183.931H255.389ZM266.026 183.931L268.61 178.42C267.852 178.19 267.255 177.771 266.819 177.162C266.382 176.554 266.164 175.825 266.164 174.975C266.164 174.252 266.319 173.62 266.629 173.08C266.939 172.541 267.376 172.122 267.938 171.823C268.501 171.513 269.155 171.358 269.902 171.358H273.76V183.931H272.21V178.592H270.212L267.818 183.931H266.026ZM269.902 177.214H272.21V172.736H269.902C269.27 172.736 268.754 172.943 268.352 173.356C267.961 173.758 267.766 174.298 267.766 174.975C267.766 175.641 267.961 176.181 268.352 176.594C268.742 177.007 269.259 177.214 269.902 177.214ZM292.606 184.104C291.826 184.104 291.137 183.966 290.54 183.69C289.942 183.415 289.466 183.024 289.11 182.519C288.766 182.014 288.57 181.422 288.524 180.745H290.075C290.143 181.354 290.408 181.836 290.867 182.192C291.326 182.548 291.906 182.726 292.606 182.726C293.387 182.726 294.002 182.519 294.449 182.106C294.909 181.692 295.138 181.153 295.138 180.487C295.138 179.809 294.909 179.27 294.449 178.868C293.99 178.454 293.376 178.248 292.606 178.248H291.056V176.835H292.589C293.29 176.835 293.852 176.617 294.277 176.181C294.702 175.744 294.914 175.21 294.914 174.579C294.914 173.936 294.702 173.442 294.277 173.098C293.864 172.742 293.301 172.564 292.589 172.564C291.889 172.564 291.326 172.765 290.901 173.167C290.476 173.557 290.264 174.074 290.264 174.717H288.714C288.714 174.005 288.875 173.385 289.196 172.857C289.518 172.328 289.965 171.921 290.54 171.634C291.125 171.335 291.808 171.186 292.589 171.186C293.795 171.186 294.754 171.461 295.466 172.013C296.177 172.564 296.533 173.35 296.533 174.372C296.533 174.946 296.407 175.463 296.155 175.922C295.913 176.37 295.563 176.72 295.104 176.973C294.656 177.226 294.122 177.346 293.502 177.335V177.076C294.168 177.065 294.742 177.197 295.224 177.473C295.718 177.737 296.097 178.121 296.361 178.626C296.637 179.12 296.775 179.706 296.775 180.383C296.775 181.107 296.602 181.75 296.258 182.312C295.925 182.864 295.443 183.3 294.811 183.621C294.191 183.943 293.456 184.104 292.606 184.104ZM304.053 184.104C303.296 184.104 302.641 183.96 302.09 183.673C301.55 183.386 301.131 182.973 300.833 182.433C300.546 181.882 300.402 181.233 300.402 180.487V174.803C300.402 174.045 300.546 173.396 300.833 172.857C301.131 172.317 301.55 171.904 302.09 171.616C302.641 171.329 303.296 171.186 304.053 171.186C304.811 171.186 305.46 171.329 306 171.616C306.551 171.904 306.97 172.317 307.257 172.857C307.556 173.396 307.705 174.039 307.705 174.786V180.487C307.705 181.233 307.556 181.882 307.257 182.433C306.97 182.973 306.551 183.386 306 183.673C305.46 183.96 304.811 184.104 304.053 184.104ZM304.053 182.709C304.731 182.709 305.248 182.519 305.604 182.14C305.971 181.75 306.155 181.199 306.155 180.487V174.803C306.155 174.091 305.971 173.545 305.604 173.167C305.248 172.776 304.731 172.581 304.053 172.581C303.387 172.581 302.871 172.776 302.503 173.167C302.136 173.545 301.952 174.091 301.952 174.803V180.487C301.952 181.199 302.136 181.75 302.503 182.14C302.871 182.519 303.387 182.709 304.053 182.709ZM311.763 183.931V171.358H315.328C316.476 171.358 317.372 171.645 318.015 172.219C318.67 172.793 318.997 173.591 318.997 174.613C318.997 175.187 318.876 175.687 318.635 176.112C318.394 176.537 318.05 176.864 317.602 177.094C317.165 177.323 316.637 177.432 316.017 177.421V177.162C316.683 177.151 317.257 177.277 317.74 177.541C318.233 177.805 318.612 178.184 318.876 178.678C319.152 179.172 319.29 179.758 319.29 180.435C319.29 181.147 319.14 181.767 318.842 182.295C318.543 182.823 318.118 183.231 317.567 183.518C317.016 183.794 316.356 183.931 315.587 183.931H311.763ZM313.279 182.536H315.414C316.138 182.536 316.706 182.347 317.12 181.968C317.544 181.577 317.757 181.049 317.757 180.383C317.757 179.694 317.544 179.137 317.12 178.713C316.706 178.276 316.138 178.058 315.414 178.058H313.279V182.536ZM313.279 176.715H315.311C315.977 176.715 316.499 176.537 316.878 176.181C317.269 175.825 317.464 175.343 317.464 174.734C317.464 174.125 317.275 173.643 316.896 173.287C316.517 172.931 315.994 172.753 315.328 172.753H313.279V176.715ZM324.726 183.931L326 180.676L322.297 171.358H323.985L326.241 177.507C326.391 177.897 326.511 178.271 326.603 178.626C326.695 178.971 326.752 179.229 326.775 179.402C326.798 179.229 326.85 178.971 326.93 178.626C327.011 178.271 327.114 177.897 327.24 177.507L329.221 171.358H330.909L326.379 183.931H324.726ZM337.103 183.931V172.753H333.658V171.341H342.098V172.753H338.653V183.931H337.103ZM356.845 183.931V171.358H358.395V176.749H360.255L363.045 171.358H364.733L361.616 177.404L364.906 183.931H363.132L360.204 178.11H358.395V183.931H356.845ZM366.88 184.018V182.571H367.19C367.695 182.571 368.057 182.347 368.275 181.899C368.504 181.44 368.625 180.659 368.636 179.557L368.774 171.358H375.25V183.931H373.7V172.77H370.307L370.187 179.557C370.164 181.095 369.917 182.226 369.446 182.95C368.987 183.662 368.263 184.018 367.276 184.018H366.88ZM379.532 183.931V171.358H386.766V172.77H381.065V176.663H386.163V178.058H381.065V182.519H386.766V183.931H379.532ZM390.635 183.931V171.358H392.133V178.42C392.133 178.833 392.122 179.275 392.099 179.746C392.087 180.205 392.07 180.647 392.047 181.072C392.024 181.486 392.001 181.836 391.978 182.123L395.802 171.358H397.869V183.931H396.37V176.87C396.37 176.445 396.376 176.003 396.388 175.543C396.411 175.073 396.434 174.631 396.456 174.217C396.491 173.792 396.52 173.442 396.543 173.167L392.702 183.931H390.635ZM394.252 170.066C393.425 170.066 392.759 169.837 392.254 169.377C391.749 168.918 391.496 168.315 391.496 167.569H392.719C392.719 168.017 392.857 168.378 393.132 168.654C393.408 168.93 393.775 169.067 394.235 169.067C394.705 169.067 395.079 168.93 395.354 168.654C395.641 168.378 395.785 168.017 395.785 167.569H397.008C397.008 168.315 396.755 168.918 396.25 169.377C395.745 169.837 395.079 170.066 394.252 170.066ZM404.976 180.228L404.614 173.425V171.358H406.44V173.425L406.078 180.228H404.976ZM405.268 184.018C404.97 184.018 404.723 183.92 404.528 183.725C404.332 183.53 404.235 183.283 404.235 182.984C404.235 182.686 404.332 182.439 404.528 182.243C404.723 182.048 404.97 181.951 405.268 181.951H405.785C406.118 181.951 406.371 182.048 406.543 182.243C406.727 182.427 406.818 182.668 406.818 182.967C406.818 183.265 406.721 183.518 406.526 183.725C406.33 183.92 406.084 184.018 405.785 184.018H405.268ZM113.283 206.343V202.605H114.058C114.184 202.376 114.316 202.065 114.454 201.675C114.592 201.285 114.712 200.843 114.816 200.349C114.919 199.855 114.976 199.338 114.988 198.799L115.108 191.358H121.55V202.605H122.756V206.343H121.378V203.931H114.661V206.343H113.283ZM115.677 202.605H120V192.736H116.59L116.504 198.799C116.492 199.683 116.394 200.464 116.211 201.141C116.027 201.819 115.849 202.307 115.677 202.605ZM129.294 204.104C128.536 204.104 127.882 203.96 127.331 203.673C126.791 203.386 126.372 202.973 126.073 202.433C125.786 201.882 125.643 201.233 125.643 200.487V194.803C125.643 194.045 125.786 193.396 126.073 192.857C126.372 192.317 126.791 191.904 127.331 191.616C127.882 191.329 128.536 191.186 129.294 191.186C130.052 191.186 130.701 191.329 131.24 191.616C131.791 191.904 132.211 192.317 132.498 192.857C132.796 193.396 132.945 194.039 132.945 194.786V200.487C132.945 201.233 132.796 201.882 132.498 202.433C132.211 202.973 131.791 203.386 131.24 203.673C130.701 203.96 130.052 204.104 129.294 204.104ZM129.294 202.709C129.971 202.709 130.488 202.519 130.844 202.14C131.212 201.75 131.395 201.199 131.395 200.487V194.803C131.395 194.091 131.212 193.545 130.844 193.167C130.488 192.776 129.971 192.581 129.294 192.581C128.628 192.581 128.111 192.776 127.744 193.167C127.376 193.545 127.193 194.091 127.193 194.803V200.487C127.193 201.199 127.376 201.75 127.744 202.14C128.111 202.519 128.628 202.709 129.294 202.709ZM137.021 203.931V191.358H144.014V192.77H138.571V196.56H140.655C141.459 196.56 142.148 196.715 142.722 197.025C143.296 197.323 143.738 197.748 144.048 198.299C144.37 198.85 144.53 199.499 144.53 200.246C144.53 200.992 144.37 201.641 144.048 202.192C143.738 202.743 143.296 203.174 142.722 203.484C142.148 203.782 141.459 203.931 140.655 203.931H137.021ZM138.571 202.519H140.655C141.367 202.519 141.924 202.318 142.326 201.916C142.728 201.503 142.928 200.946 142.928 200.246C142.928 199.534 142.728 198.977 142.326 198.575C141.924 198.173 141.367 197.972 140.655 197.972H138.571V202.519ZM148.261 203.931V191.358H152.309C153.089 191.358 153.767 191.513 154.341 191.823C154.915 192.122 155.357 192.547 155.667 193.098C155.989 193.649 156.15 194.303 156.15 195.061C156.15 195.808 155.989 196.462 155.667 197.025C155.357 197.576 154.915 198.006 154.341 198.316C153.767 198.615 153.089 198.764 152.309 198.764H149.811V203.931H148.261ZM149.811 197.369H152.309C152.986 197.369 153.526 197.162 153.928 196.749C154.341 196.324 154.548 195.762 154.548 195.061C154.548 194.349 154.341 193.787 153.928 193.373C153.526 192.96 152.986 192.753 152.309 192.753H149.811V197.369ZM163.118 204.104C162.361 204.104 161.706 203.96 161.155 203.673C160.615 203.386 160.196 202.973 159.898 202.433C159.611 201.882 159.467 201.233 159.467 200.487V194.803C159.467 194.045 159.611 193.396 159.898 192.857C160.196 192.317 160.615 191.904 161.155 191.616C161.706 191.329 162.361 191.186 163.118 191.186C163.876 191.186 164.525 191.329 165.065 191.616C165.616 191.904 166.035 192.317 166.322 192.857C166.621 193.396 166.77 194.039 166.77 194.786V200.487C166.77 201.233 166.621 201.882 166.322 202.433C166.035 202.973 165.616 203.386 165.065 203.673C164.525 203.96 163.876 204.104 163.118 204.104ZM163.118 202.709C163.796 202.709 164.313 202.519 164.669 202.14C165.036 201.75 165.22 201.199 165.22 200.487V194.803C165.22 194.091 165.036 193.545 164.669 193.167C164.313 192.776 163.796 192.581 163.118 192.581C162.452 192.581 161.936 192.776 161.568 193.167C161.201 193.545 161.017 194.091 161.017 194.803V200.487C161.017 201.199 161.201 201.75 161.568 202.14C161.936 202.519 162.452 202.709 163.118 202.709ZM182.12 203.931V191.358H189.216V203.931H187.666V192.77H183.67V203.931H182.12ZM196.943 204.104C196.185 204.104 195.53 203.96 194.979 203.673C194.44 203.386 194.021 202.973 193.722 202.433C193.435 201.882 193.291 201.233 193.291 200.487V194.803C193.291 194.045 193.435 193.396 193.722 192.857C194.021 192.317 194.44 191.904 194.979 191.616C195.53 191.329 196.185 191.186 196.943 191.186C197.701 191.186 198.349 191.329 198.889 191.616C199.44 191.904 199.859 192.317 200.146 192.857C200.445 193.396 200.594 194.039 200.594 194.786V200.487C200.594 201.233 200.445 201.882 200.146 202.433C199.859 202.973 199.44 203.386 198.889 203.673C198.349 203.96 197.701 204.104 196.943 204.104ZM196.943 202.709C197.62 202.709 198.137 202.519 198.493 202.14C198.86 201.75 199.044 201.199 199.044 200.487V194.803C199.044 194.091 198.86 193.545 198.493 193.167C198.137 192.776 197.62 192.581 196.943 192.581C196.277 192.581 195.76 192.776 195.393 193.167C195.025 193.545 194.842 194.091 194.842 194.803V200.487C194.842 201.199 195.025 201.75 195.393 202.14C195.76 202.519 196.277 202.709 196.943 202.709ZM203.257 203.931L205.531 197.455L203.429 191.358H205.048L206.84 196.939H207.563V191.358H208.872V196.939H209.613L211.387 191.358H213.006L210.939 197.473L213.178 203.931H211.576L209.647 198.041H208.872V203.931H207.563V198.041H206.788L204.842 203.931H203.257ZM215.187 203.931L218.459 191.358H220.543L223.798 203.931H222.231L221.404 200.59H217.598L216.771 203.931H215.187ZM217.908 199.281H221.077L220.112 195.406C219.929 194.671 219.785 194.056 219.682 193.563C219.579 193.069 219.515 192.747 219.492 192.598C219.469 192.747 219.406 193.069 219.303 193.563C219.2 194.056 219.056 194.665 218.872 195.388L217.908 199.281ZM225.945 204.018V202.571H226.255C226.76 202.571 227.122 202.347 227.34 201.899C227.569 201.44 227.69 200.659 227.701 199.557L227.839 191.358H234.315V203.931H232.765V192.77H229.372L229.252 199.557C229.229 201.095 228.982 202.226 228.511 202.95C228.052 203.662 227.328 204.018 226.341 204.018H225.945ZM242.042 204.104C241.284 204.104 240.63 203.96 240.079 203.673C239.539 203.386 239.12 202.973 238.821 202.433C238.534 201.882 238.391 201.233 238.391 200.487V194.803C238.391 194.045 238.534 193.396 238.821 192.857C239.12 192.317 239.539 191.904 240.079 191.616C240.63 191.329 241.284 191.186 242.042 191.186C242.8 191.186 243.449 191.329 243.988 191.616C244.539 191.904 244.959 192.317 245.246 192.857C245.544 193.396 245.693 194.039 245.693 194.786V200.487C245.693 201.233 245.544 201.882 245.246 202.433C244.959 202.973 244.539 203.386 243.988 203.673C243.449 203.96 242.8 204.104 242.042 204.104ZM242.042 202.709C242.72 202.709 243.236 202.519 243.592 202.14C243.96 201.75 244.143 201.199 244.143 200.487V194.803C244.143 194.091 243.96 193.545 243.592 193.167C243.236 192.776 242.72 192.581 242.042 192.581C241.376 192.581 240.859 192.776 240.492 193.167C240.124 193.545 239.941 194.091 239.941 194.803V200.487C239.941 201.199 240.124 201.75 240.492 202.14C240.859 202.519 241.376 202.709 242.042 202.709ZM249.752 203.931V191.358H253.317C254.465 191.358 255.361 191.645 256.004 192.219C256.658 192.793 256.985 193.591 256.985 194.613C256.985 195.187 256.865 195.687 256.624 196.112C256.383 196.537 256.038 196.864 255.59 197.094C255.154 197.323 254.626 197.432 254.006 197.421V197.162C254.672 197.151 255.246 197.277 255.728 197.541C256.222 197.805 256.601 198.184 256.865 198.678C257.141 199.172 257.278 199.758 257.278 200.435C257.278 201.147 257.129 201.767 256.83 202.295C256.532 202.823 256.107 203.231 255.556 203.518C255.005 203.794 254.345 203.931 253.575 203.931H249.752ZM251.267 202.536H253.403C254.126 202.536 254.695 202.347 255.108 201.968C255.533 201.577 255.745 201.049 255.745 200.383C255.745 199.694 255.533 199.137 255.108 198.713C254.695 198.276 254.126 198.058 253.403 198.058H251.267V202.536ZM251.267 196.715H253.3C253.966 196.715 254.488 196.537 254.867 196.181C255.257 195.825 255.453 195.343 255.453 194.734C255.453 194.125 255.263 193.643 254.884 193.287C254.505 192.931 253.983 192.753 253.317 192.753H251.267V196.715ZM260.286 203.931L263.558 191.358H265.642L268.898 203.931H267.33L266.503 200.59H262.697L261.87 203.931H260.286ZM263.007 199.281H266.176L265.212 195.406C265.028 194.671 264.884 194.056 264.781 193.563C264.678 193.069 264.615 192.747 264.592 192.598C264.569 192.747 264.506 193.069 264.402 193.563C264.299 194.056 264.155 194.665 263.972 195.388L263.007 199.281ZM275.091 203.931V192.753H271.647V191.341H280.086V192.753H276.642V203.931H275.091ZM283.593 203.931V191.358H285.143V196.525H287.658C288.416 196.525 289.076 196.68 289.639 196.99C290.213 197.3 290.655 197.731 290.965 198.282C291.286 198.833 291.447 199.482 291.447 200.228C291.447 200.963 291.286 201.612 290.965 202.175C290.655 202.726 290.213 203.156 289.639 203.466C289.076 203.776 288.416 203.931 287.658 203.931H283.593ZM285.143 202.519H287.572C288.249 202.519 288.795 202.312 289.208 201.899C289.633 201.474 289.845 200.917 289.845 200.228C289.845 199.539 289.633 198.988 289.208 198.575C288.795 198.15 288.249 197.938 287.572 197.938H285.143V202.519ZM306.126 203.931V191.358H309.691C310.839 191.358 311.735 191.645 312.378 192.219C313.032 192.793 313.36 193.591 313.36 194.613C313.36 195.187 313.239 195.687 312.998 196.112C312.757 196.537 312.412 196.864 311.964 197.094C311.528 197.323 311 197.432 310.38 197.421V197.162C311.046 197.151 311.62 197.277 312.102 197.541C312.596 197.805 312.975 198.184 313.239 198.678C313.515 199.172 313.652 199.758 313.652 200.435C313.652 201.147 313.503 201.767 313.204 202.295C312.906 202.823 312.481 203.231 311.93 203.518C311.379 203.794 310.719 203.931 309.949 203.931H306.126ZM307.641 202.536H309.777C310.5 202.536 311.069 202.347 311.482 201.968C311.907 201.577 312.119 201.049 312.119 200.383C312.119 199.694 311.907 199.137 311.482 198.713C311.069 198.276 310.5 198.058 309.777 198.058H307.641V202.536ZM307.641 196.715H309.674C310.34 196.715 310.862 196.537 311.241 196.181C311.631 195.825 311.827 195.343 311.827 194.734C311.827 194.125 311.637 193.643 311.258 193.287C310.879 192.931 310.357 192.753 309.691 192.753H307.641V196.715ZM328.382 203.931V191.358H330.415L331.724 195.423C331.85 195.79 331.965 196.158 332.068 196.525C332.172 196.881 332.246 197.157 332.292 197.352C332.35 197.157 332.424 196.881 332.516 196.525C332.608 196.158 332.711 195.785 332.826 195.406L334.066 191.358H336.099V203.931H334.583V199.367C334.583 198.862 334.6 198.288 334.635 197.645C334.669 197.002 334.715 196.347 334.772 195.681C334.83 195.004 334.887 194.361 334.945 193.752C335.013 193.132 335.071 192.592 335.117 192.133L333.084 198.42H331.448L329.399 192.133C329.456 192.581 329.513 193.103 329.571 193.701C329.628 194.286 329.68 194.912 329.726 195.578C329.772 196.232 329.812 196.887 329.846 197.541C329.881 198.196 329.898 198.804 329.898 199.367V203.931H328.382ZM343.515 204.104C342.757 204.104 342.103 203.96 341.552 203.673C341.012 203.386 340.593 202.973 340.294 202.433C340.007 201.882 339.864 201.233 339.864 200.487V194.803C339.864 194.045 340.007 193.396 340.294 192.857C340.593 192.317 341.012 191.904 341.552 191.616C342.103 191.329 342.757 191.186 343.515 191.186C344.273 191.186 344.922 191.329 345.462 191.616C346.013 191.904 346.432 192.317 346.719 192.857C347.017 193.396 347.167 194.039 347.167 194.786V200.487C347.167 201.233 347.017 201.882 346.719 202.433C346.432 202.973 346.013 203.386 345.462 203.673C344.922 203.96 344.273 204.104 343.515 204.104ZM343.515 202.709C344.193 202.709 344.709 202.519 345.065 202.14C345.433 201.75 345.617 201.199 345.617 200.487V194.803C345.617 194.091 345.433 193.545 345.065 193.167C344.709 192.776 344.193 192.581 343.515 192.581C342.849 192.581 342.333 192.776 341.965 193.167C341.598 193.545 341.414 194.091 341.414 194.803V200.487C341.414 201.199 341.598 201.75 341.965 202.14C342.333 202.519 342.849 202.709 343.515 202.709ZM356.323 204.104C355.439 204.104 354.738 203.811 354.222 203.225C353.705 202.64 353.447 201.842 353.447 200.831V198.161H352.086V203.931H350.656V191.358H352.086V196.784H353.447V194.458C353.447 193.436 353.699 192.638 354.204 192.064C354.721 191.479 355.427 191.186 356.323 191.186C357.242 191.186 357.959 191.479 358.476 192.064C359.004 192.65 359.268 193.448 359.268 194.458V200.831C359.268 201.842 359.004 202.64 358.476 203.225C357.959 203.811 357.242 204.104 356.323 204.104ZM356.323 202.76C356.817 202.76 357.19 202.594 357.442 202.261C357.707 201.928 357.839 201.451 357.839 200.831V194.458C357.839 193.838 357.707 193.362 357.442 193.029C357.19 192.696 356.817 192.529 356.323 192.529C355.829 192.529 355.45 192.696 355.186 193.029C354.934 193.362 354.807 193.838 354.807 194.458V200.831C354.807 201.451 354.934 201.928 355.186 202.261C355.45 202.594 355.829 202.76 356.323 202.76ZM374.067 203.931V191.358H381.387V192.77H375.617V203.931H374.067ZM388.614 204.104C387.857 204.104 387.202 203.96 386.651 203.673C386.111 203.386 385.692 202.973 385.394 202.433C385.107 201.882 384.963 201.233 384.963 200.487V194.803C384.963 194.045 385.107 193.396 385.394 192.857C385.692 192.317 386.111 191.904 386.651 191.616C387.202 191.329 387.857 191.186 388.614 191.186C389.372 191.186 390.021 191.329 390.561 191.616C391.112 191.904 391.531 192.317 391.818 192.857C392.117 193.396 392.266 194.039 392.266 194.786V200.487C392.266 201.233 392.117 201.882 391.818 202.433C391.531 202.973 391.112 203.386 390.561 203.673C390.021 203.96 389.372 204.104 388.614 204.104ZM388.614 202.709C389.292 202.709 389.809 202.519 390.165 202.14C390.532 201.75 390.716 201.199 390.716 200.487V194.803C390.716 194.091 390.532 193.545 390.165 193.167C389.809 192.776 389.292 192.581 388.614 192.581C387.948 192.581 387.432 192.776 387.064 193.167C386.697 193.545 386.513 194.091 386.513 194.803V200.487C386.513 201.199 386.697 201.75 387.064 202.14C387.432 202.519 387.948 202.709 388.614 202.709ZM395.067 204.018V202.571H395.377C395.882 202.571 396.244 202.347 396.462 201.899C396.691 201.44 396.812 200.659 396.823 199.557L396.961 191.358H403.437V203.931H401.887V192.77H398.494L398.374 199.557C398.351 201.095 398.104 202.226 397.633 202.95C397.174 203.662 396.45 204.018 395.463 204.018H395.067ZM411.164 204.104C410.406 204.104 409.752 203.96 409.201 203.673C408.661 203.386 408.242 202.973 407.943 202.433C407.656 201.882 407.513 201.233 407.513 200.487V194.803C407.513 194.045 407.656 193.396 407.943 192.857C408.242 192.317 408.661 191.904 409.201 191.616C409.752 191.329 410.406 191.186 411.164 191.186C411.922 191.186 412.571 191.329 413.11 191.616C413.661 191.904 414.081 192.317 414.368 192.857C414.666 193.396 414.815 194.039 414.815 194.786V200.487C414.815 201.233 414.666 201.882 414.368 202.433C414.081 202.973 413.661 203.386 413.11 203.673C412.571 203.96 411.922 204.104 411.164 204.104ZM411.164 202.709C411.842 202.709 412.358 202.519 412.714 202.14C413.082 201.75 413.265 201.199 413.265 200.487V194.803C413.265 194.091 413.082 193.545 412.714 193.167C412.358 192.776 411.842 192.581 411.164 192.581C410.498 192.581 409.981 192.776 409.614 193.167C409.246 193.545 409.063 194.091 409.063 194.803V200.487C409.063 201.199 409.246 201.75 409.614 202.14C409.981 202.519 410.498 202.709 411.164 202.709ZM418.874 203.931V191.358H422.439C423.587 191.358 424.483 191.645 425.126 192.219C425.78 192.793 426.108 193.591 426.108 194.613C426.108 195.187 425.987 195.687 425.746 196.112C425.505 196.537 425.16 196.864 424.712 197.094C424.276 197.323 423.748 197.432 423.128 197.421V197.162C423.794 197.151 424.368 197.277 424.85 197.541C425.344 197.805 425.723 198.184 425.987 198.678C426.263 199.172 426.4 199.758 426.4 200.435C426.4 201.147 426.251 201.767 425.953 202.295C425.654 202.823 425.229 203.231 424.678 203.518C424.127 203.794 423.467 203.931 422.697 203.931H418.874ZM420.389 202.536H422.525C423.248 202.536 423.817 202.347 424.23 201.968C424.655 201.577 424.867 201.049 424.867 200.383C424.867 199.694 424.655 199.137 424.23 198.713C423.817 198.276 423.248 198.058 422.525 198.058H420.389V202.536ZM420.389 196.715H422.422C423.088 196.715 423.61 196.537 423.989 196.181C424.379 195.825 424.575 195.343 424.575 194.734C424.575 194.125 424.385 193.643 424.006 193.287C423.627 192.931 423.105 192.753 422.439 192.753H420.389V196.715ZM431.836 203.931L433.111 200.676L429.408 191.358H431.096L433.352 197.507C433.501 197.897 433.622 198.271 433.714 198.626C433.806 198.971 433.863 199.229 433.886 199.402C433.909 199.229 433.961 198.971 434.041 198.626C434.121 198.271 434.225 197.897 434.351 197.507L436.332 191.358H438.02L433.49 203.931H431.836ZM444.988 204.104C444.552 204.104 444.202 203.977 443.938 203.725C443.685 203.472 443.559 203.133 443.559 202.709C443.559 202.261 443.685 201.905 443.938 201.641C444.202 201.377 444.552 201.244 444.988 201.244C445.425 201.244 445.769 201.377 446.022 201.641C446.286 201.905 446.418 202.261 446.418 202.709C446.418 203.133 446.286 203.472 446.022 203.725C445.769 203.977 445.425 204.104 444.988 204.104ZM117.244 223.931V212.753H113.799V211.341H122.239V212.753H118.794V223.931H117.244ZM125.729 223.931V211.358H129.294C130.442 211.358 131.338 211.645 131.981 212.219C132.635 212.793 132.963 213.591 132.963 214.613C132.963 215.187 132.842 215.687 132.601 216.112C132.36 216.537 132.015 216.864 131.568 217.094C131.131 217.323 130.603 217.432 129.983 217.421V217.162C130.649 217.151 131.223 217.277 131.705 217.541C132.199 217.805 132.578 218.184 132.842 218.678C133.118 219.172 133.255 219.758 133.255 220.435C133.255 221.147 133.106 221.767 132.808 222.295C132.509 222.823 132.084 223.231 131.533 223.518C130.982 223.794 130.322 223.931 129.552 223.931H125.729ZM127.244 222.536H129.38C130.104 222.536 130.672 222.347 131.085 221.968C131.51 221.577 131.723 221.049 131.723 220.383C131.723 219.694 131.51 219.137 131.085 218.713C130.672 218.276 130.104 218.058 129.38 218.058H127.244V222.536ZM127.244 216.715H129.277C129.943 216.715 130.465 216.537 130.844 216.181C131.235 215.825 131.43 215.343 131.43 214.734C131.43 214.125 131.24 213.643 130.861 213.287C130.482 212.931 129.96 212.753 129.294 212.753H127.244V216.715ZM140.569 224.104C139.811 224.104 139.156 223.96 138.605 223.673C138.066 223.386 137.647 222.973 137.348 222.433C137.061 221.882 136.917 221.233 136.917 220.487V214.803C136.917 214.045 137.061 213.396 137.348 212.857C137.647 212.317 138.066 211.904 138.605 211.616C139.156 211.329 139.811 211.186 140.569 211.186C141.327 211.186 141.975 211.329 142.515 211.616C143.066 211.904 143.485 212.317 143.772 212.857C144.071 213.396 144.22 214.039 144.22 214.786V220.487C144.22 221.233 144.071 221.882 143.772 222.433C143.485 222.973 143.066 223.386 142.515 223.673C141.975 223.96 141.327 224.104 140.569 224.104ZM140.569 222.709C141.246 222.709 141.763 222.519 142.119 222.14C142.486 221.75 142.67 221.199 142.67 220.487V214.803C142.67 214.091 142.486 213.545 142.119 213.167C141.763 212.776 141.246 212.581 140.569 212.581C139.903 212.581 139.386 212.776 139.019 213.167C138.651 213.545 138.468 214.091 138.468 214.803V220.487C138.468 221.199 138.651 221.75 139.019 222.14C139.386 222.519 139.903 222.709 140.569 222.709ZM148.399 223.931V211.358H155.633V212.77H149.932V216.663H155.03V218.058H149.932V222.519H155.633V223.931H148.399ZM159.501 223.931V211.358H161V218.42C161 218.833 160.988 219.275 160.965 219.746C160.954 220.205 160.937 220.647 160.914 221.072C160.891 221.486 160.868 221.836 160.845 222.123L164.669 211.358H166.735V223.931H165.237V216.87C165.237 216.445 165.243 216.003 165.254 215.543C165.277 215.073 165.3 214.631 165.323 214.217C165.358 213.792 165.386 213.442 165.409 213.167L161.568 223.931H159.501ZM163.118 210.066C162.292 210.066 161.626 209.837 161.12 209.377C160.615 208.918 160.363 208.315 160.363 207.569H161.586C161.586 208.017 161.723 208.378 161.999 208.654C162.274 208.93 162.642 209.067 163.101 209.067C163.572 209.067 163.945 208.93 164.221 208.654C164.508 208.378 164.651 208.017 164.651 207.569H165.874C165.874 208.315 165.622 208.918 165.116 209.377C164.611 209.837 163.945 210.066 163.118 210.066ZM185.496 224.104C184.715 224.104 184.026 223.966 183.429 223.69C182.832 223.415 182.355 223.024 181.999 222.519C181.655 222.014 181.46 221.422 181.414 220.745H182.964C183.033 221.354 183.297 221.836 183.756 222.192C184.216 222.548 184.795 222.726 185.496 222.726C186.277 222.726 186.891 222.519 187.339 222.106C187.798 221.692 188.028 221.153 188.028 220.487C188.028 219.809 187.798 219.27 187.339 218.868C186.879 218.454 186.265 218.248 185.496 218.248H183.946V216.835H185.479C186.179 216.835 186.742 216.617 187.166 216.181C187.591 215.744 187.804 215.21 187.804 214.579C187.804 213.936 187.591 213.442 187.166 213.098C186.753 212.742 186.19 212.564 185.479 212.564C184.778 212.564 184.216 212.765 183.791 213.167C183.366 213.557 183.153 214.074 183.153 214.717H181.603C181.603 214.005 181.764 213.385 182.086 212.857C182.407 212.328 182.855 211.921 183.429 211.634C184.015 211.335 184.698 211.186 185.479 211.186C186.684 211.186 187.643 211.461 188.355 212.013C189.067 212.564 189.423 213.35 189.423 214.372C189.423 214.946 189.296 215.463 189.044 215.922C188.803 216.37 188.453 216.72 187.993 216.973C187.545 217.226 187.011 217.346 186.391 217.335V217.076C187.057 217.065 187.632 217.197 188.114 217.473C188.608 217.737 188.986 218.121 189.251 218.626C189.526 219.12 189.664 219.706 189.664 220.383C189.664 221.107 189.492 221.75 189.147 222.312C188.814 222.864 188.332 223.3 187.7 223.621C187.08 223.943 186.346 224.104 185.496 224.104ZM192.637 223.931L195.909 211.358H197.993L201.249 223.931H199.681L198.855 220.59H195.048L194.221 223.931H192.637ZM195.358 219.281H198.527L197.563 215.406C197.379 214.671 197.236 214.056 197.132 213.563C197.029 213.069 196.966 212.747 196.943 212.598C196.92 212.747 196.857 213.069 196.753 213.563C196.65 214.056 196.506 214.665 196.323 215.388L195.358 219.281ZM203.481 226.343V222.605H204.256C204.382 222.376 204.515 222.065 204.652 221.675C204.79 221.285 204.911 220.843 205.014 220.349C205.117 219.855 205.175 219.338 205.186 218.799L205.307 211.358H211.748V222.605H212.954V226.343H211.576V223.931H204.859V226.343H203.481ZM205.875 222.605H210.198V212.736H206.788L206.702 218.799C206.69 219.683 206.593 220.464 206.409 221.141C206.225 221.819 206.047 222.307 205.875 222.605ZM215.187 223.931L218.459 211.358H220.543L223.798 223.931H222.231L221.404 220.59H217.598L216.771 223.931H215.187ZM217.908 219.281H221.077L220.112 215.406C219.929 214.671 219.785 214.056 219.682 213.563C219.579 213.069 219.515 212.747 219.492 212.598C219.469 212.747 219.406 213.069 219.303 213.563C219.2 214.056 219.056 214.665 218.872 215.388L217.908 219.281ZM232.748 223.931V219.092C232.599 219.126 232.317 219.166 231.904 219.212C231.502 219.247 231.008 219.264 230.423 219.264C229.343 219.264 228.482 218.937 227.839 218.282C227.208 217.628 226.892 216.749 226.892 215.647V211.358H228.442V215.647C228.442 216.324 228.643 216.87 229.045 217.283C229.458 217.685 230.004 217.886 230.681 217.886C231.232 217.886 231.686 217.869 232.042 217.834C232.398 217.788 232.633 217.748 232.748 217.714V211.358H234.298V223.931H232.748ZM238.597 223.931V211.358H245.831V212.77H240.13V216.663H245.228V218.058H240.13V222.519H245.831V223.931H238.597ZM249.7 223.931V211.358H251.198V218.42C251.198 218.833 251.187 219.275 251.164 219.746C251.152 220.205 251.135 220.647 251.112 221.072C251.089 221.486 251.066 221.836 251.043 222.123L254.867 211.358H256.934V223.931H255.435V216.87C255.435 216.445 255.441 216.003 255.453 215.543C255.476 215.073 255.499 214.631 255.521 214.217C255.556 213.792 255.585 213.442 255.608 213.167L251.767 223.931H249.7ZM253.317 210.066C252.49 210.066 251.824 209.837 251.319 209.377C250.814 208.918 250.561 208.315 250.561 207.569H251.784C251.784 208.017 251.922 208.378 252.197 208.654C252.473 208.93 252.84 209.067 253.3 209.067C253.77 209.067 254.144 208.93 254.419 208.654C254.706 208.378 254.85 208.017 254.85 207.569H256.073C256.073 208.315 255.82 208.918 255.315 209.377C254.81 209.837 254.144 210.066 253.317 210.066ZM271.664 223.931L274.247 218.42C273.49 218.19 272.892 217.771 272.456 217.162C272.02 216.554 271.802 215.825 271.802 214.975C271.802 214.252 271.957 213.62 272.267 213.08C272.577 212.541 273.013 212.122 273.576 211.823C274.138 211.513 274.793 211.358 275.539 211.358H279.397V223.931H277.847V218.592H275.849L273.455 223.931H271.664ZM275.539 217.214H277.847V212.736H275.539C274.908 212.736 274.391 212.943 273.989 213.356C273.599 213.758 273.403 214.298 273.403 214.975C273.403 215.641 273.599 216.181 273.989 216.594C274.379 217.007 274.896 217.214 275.539 217.214ZM283.576 223.931V211.358H287.141C288.289 211.358 289.185 211.645 289.828 212.219C290.483 212.793 290.81 213.591 290.81 214.613C290.81 215.187 290.689 215.687 290.448 216.112C290.207 216.537 289.863 216.864 289.415 217.094C288.978 217.323 288.45 217.432 287.83 217.421V217.162C288.496 217.151 289.07 217.277 289.553 217.541C290.046 217.805 290.425 218.184 290.689 218.678C290.965 219.172 291.103 219.758 291.103 220.435C291.103 221.147 290.953 221.767 290.655 222.295C290.356 222.823 289.931 223.231 289.38 223.518C288.829 223.794 288.169 223.931 287.4 223.931H283.576ZM285.092 222.536H287.227C287.951 222.536 288.519 222.347 288.933 221.968C289.357 221.577 289.57 221.049 289.57 220.383C289.57 219.694 289.357 219.137 288.933 218.713C288.519 218.276 287.951 218.058 287.227 218.058H285.092V222.536ZM285.092 216.715H287.124C287.79 216.715 288.312 216.537 288.691 216.181C289.082 215.825 289.277 215.343 289.277 214.734C289.277 214.125 289.088 213.643 288.709 213.287C288.33 212.931 287.807 212.753 287.141 212.753H285.092V216.715ZM293.593 224.018V222.571H293.903C294.409 222.571 294.77 222.347 294.989 221.899C295.218 221.44 295.339 220.659 295.35 219.557L295.488 211.358H301.964V223.931H300.414V212.77H297.021L296.9 219.557C296.877 221.095 296.631 222.226 296.16 222.95C295.7 223.662 294.977 224.018 293.99 224.018H293.593ZM305.488 223.931L308.072 218.42C307.314 218.19 306.717 217.771 306.281 217.162C305.844 216.554 305.626 215.825 305.626 214.975C305.626 214.252 305.781 213.62 306.091 213.08C306.401 212.541 306.837 212.122 307.4 211.823C307.963 211.513 308.617 211.358 309.364 211.358H313.222V223.931H311.672V218.592H309.674L307.28 223.931H305.488ZM309.364 217.214H311.672V212.736H309.364C308.732 212.736 308.215 212.943 307.813 213.356C307.423 213.758 307.228 214.298 307.228 214.975C307.228 215.641 307.423 216.181 307.813 216.594C308.204 217.007 308.721 217.214 309.364 217.214ZM317.521 223.931V211.358H324.755V212.77H319.054V216.663H324.152V218.058H319.054V222.519H324.755V223.931H317.521ZM331.465 223.931V212.753H328.021V211.341H336.46V212.753H333.016V223.931H331.465ZM343.584 224.104C342.826 224.104 342.166 223.96 341.603 223.673C341.052 223.386 340.622 222.973 340.312 222.433C340.013 221.882 339.864 221.233 339.864 220.487V214.803C339.864 214.045 340.013 213.396 340.312 212.857C340.622 212.317 341.052 211.904 341.603 211.616C342.166 211.329 342.826 211.186 343.584 211.186C344.342 211.186 344.996 211.335 345.548 211.634C346.099 211.921 346.524 212.334 346.822 212.874C347.121 213.413 347.27 214.056 347.27 214.803H345.72C345.72 214.091 345.53 213.545 345.152 213.167C344.784 212.776 344.262 212.581 343.584 212.581C342.907 212.581 342.373 212.77 341.982 213.149C341.603 213.528 341.414 214.074 341.414 214.786V220.487C341.414 221.199 341.603 221.75 341.982 222.14C342.373 222.519 342.907 222.709 343.584 222.709C344.262 222.709 344.784 222.519 345.152 222.14C345.53 221.75 345.72 221.199 345.72 220.487H347.27C347.27 221.222 347.121 221.865 346.822 222.416C346.524 222.955 346.099 223.374 345.548 223.673C344.996 223.96 344.342 224.104 343.584 224.104ZM350.587 223.931L353.171 218.42C352.413 218.19 351.816 217.771 351.38 217.162C350.943 216.554 350.725 215.825 350.725 214.975C350.725 214.252 350.88 213.62 351.19 213.08C351.5 212.541 351.937 212.122 352.499 211.823C353.062 211.513 353.716 211.358 354.463 211.358H358.321V223.931H356.771V218.592H354.773L352.379 223.931H350.587ZM354.463 217.214H356.771V212.736H354.463C353.831 212.736 353.315 212.943 352.913 213.356C352.522 213.758 352.327 214.298 352.327 214.975C352.327 215.641 352.522 216.181 352.913 216.594C353.303 217.007 353.82 217.214 354.463 217.214ZM373.792 223.931V211.358H380.888V223.931H379.338V212.77H375.342V223.931H373.792ZM388.614 224.104C387.857 224.104 387.202 223.96 386.651 223.673C386.111 223.386 385.692 222.973 385.394 222.433C385.107 221.882 384.963 221.233 384.963 220.487V214.803C384.963 214.045 385.107 213.396 385.394 212.857C385.692 212.317 386.111 211.904 386.651 211.616C387.202 211.329 387.857 211.186 388.614 211.186C389.372 211.186 390.021 211.329 390.561 211.616C391.112 211.904 391.531 212.317 391.818 212.857C392.117 213.396 392.266 214.039 392.266 214.786V220.487C392.266 221.233 392.117 221.882 391.818 222.433C391.531 222.973 391.112 223.386 390.561 223.673C390.021 223.96 389.372 224.104 388.614 224.104ZM388.614 222.709C389.292 222.709 389.809 222.519 390.165 222.14C390.532 221.75 390.716 221.199 390.716 220.487V214.803C390.716 214.091 390.532 213.545 390.165 213.167C389.809 212.776 389.292 212.581 388.614 212.581C387.948 212.581 387.432 212.776 387.064 213.167C386.697 213.545 386.513 214.091 386.513 214.803V220.487C386.513 221.199 386.697 221.75 387.064 222.14C387.432 222.519 387.948 222.709 388.614 222.709ZM396.031 223.931V211.358H398.064L399.373 215.423C399.499 215.79 399.614 216.158 399.717 216.525C399.82 216.881 399.895 217.157 399.941 217.352C399.998 217.157 400.073 216.881 400.165 216.525C400.257 216.158 400.36 215.785 400.475 215.406L401.715 211.358H403.747V223.931H402.232V219.367C402.232 218.862 402.249 218.288 402.283 217.645C402.318 217.002 402.364 216.347 402.421 215.681C402.479 215.004 402.536 214.361 402.593 213.752C402.662 213.132 402.72 212.592 402.766 212.133L400.733 218.42H399.097L397.047 212.133C397.105 212.581 397.162 213.103 397.22 213.701C397.277 214.286 397.329 214.912 397.375 215.578C397.421 216.232 397.461 216.887 397.495 217.541C397.53 218.196 397.547 218.804 397.547 219.367V223.931H396.031ZM411.164 224.104C410.406 224.104 409.752 223.96 409.201 223.673C408.661 223.386 408.242 222.973 407.943 222.433C407.656 221.882 407.513 221.233 407.513 220.487V214.803C407.513 214.045 407.656 213.396 407.943 212.857C408.242 212.317 408.661 211.904 409.201 211.616C409.752 211.329 410.406 211.186 411.164 211.186C411.922 211.186 412.571 211.329 413.11 211.616C413.661 211.904 414.081 212.317 414.368 212.857C414.666 213.396 414.815 214.039 414.815 214.786V220.487C414.815 221.233 414.666 221.882 414.368 222.433C414.081 222.973 413.661 223.386 413.11 223.673C412.571 223.96 411.922 224.104 411.164 224.104ZM411.164 222.709C411.842 222.709 412.358 222.519 412.714 222.14C413.082 221.75 413.265 221.199 413.265 220.487V214.803C413.265 214.091 413.082 213.545 412.714 213.167C412.358 212.776 411.842 212.581 411.164 212.581C410.498 212.581 409.981 212.776 409.614 213.167C409.246 213.545 409.063 214.091 409.063 214.803V220.487C409.063 221.199 409.246 221.75 409.614 222.14C409.981 222.519 410.498 222.709 411.164 222.709ZM424.42 223.931V219.092C424.27 219.126 423.989 219.166 423.576 219.212C423.174 219.247 422.68 219.264 422.094 219.264C421.015 219.264 420.154 218.937 419.511 218.282C418.879 217.628 418.564 216.749 418.564 215.647V211.358H420.114V215.647C420.114 216.324 420.315 216.87 420.717 217.283C421.13 217.685 421.675 217.886 422.353 217.886C422.904 217.886 423.357 217.869 423.713 217.834C424.069 217.788 424.305 217.748 424.42 217.714V211.358H425.97V223.931H424.42ZM430.166 223.931V211.358H431.716V216.525H434.23C434.988 216.525 435.648 216.68 436.211 216.99C436.785 217.3 437.227 217.731 437.537 218.282C437.859 218.833 438.02 219.482 438.02 220.228C438.02 220.963 437.859 221.612 437.537 222.175C437.227 222.726 436.785 223.156 436.211 223.466C435.648 223.776 434.988 223.931 434.23 223.931H430.166ZM431.716 222.519H434.144C434.822 222.519 435.367 222.312 435.78 221.899C436.205 221.474 436.418 220.917 436.418 220.228C436.418 219.539 436.205 218.988 435.78 218.575C435.367 218.15 434.822 217.938 434.144 217.938H431.716V222.519ZM136.711 243.931V231.358H138.743L140.052 235.423C140.178 235.79 140.293 236.158 140.397 236.525C140.5 236.881 140.575 237.157 140.621 237.352C140.678 237.157 140.753 236.881 140.844 236.525C140.936 236.158 141.04 235.785 141.154 235.406L142.395 231.358H144.427V243.931H142.911V239.367C142.911 238.862 142.928 238.288 142.963 237.645C142.997 237.002 143.043 236.347 143.101 235.681C143.158 235.004 143.216 234.361 143.273 233.752C143.342 233.132 143.399 232.592 143.445 232.133L141.413 238.42H139.777L137.727 232.133C137.784 232.581 137.842 233.103 137.899 233.701C137.957 234.286 138.008 234.912 138.054 235.578C138.1 236.232 138.14 236.887 138.175 237.541C138.209 238.196 138.226 238.804 138.226 239.367V243.931H136.711ZM148.278 243.931V231.358H149.828V236.732H153.859V231.358H155.409V243.931H153.859V238.144H149.828V243.931H148.278ZM159.674 243.931V231.358H166.908V232.77H161.207V236.663H166.305V238.058H161.207V242.519H166.908V243.931H159.674ZM182.12 243.931V231.358H189.216V243.931H187.666V232.77H183.67V243.931H182.12ZM193.498 243.931V231.358H200.732V232.77H195.031V236.663H200.129V238.058H195.031V242.519H200.732V243.931H193.498ZM204.635 243.931V231.358H208.683C209.463 231.358 210.141 231.513 210.715 231.823C211.289 232.122 211.731 232.547 212.041 233.098C212.363 233.649 212.524 234.303 212.524 235.061C212.524 235.808 212.363 236.462 212.041 237.025C211.731 237.576 211.289 238.006 210.715 238.316C210.141 238.615 209.463 238.764 208.683 238.764H206.185V243.931H204.635ZM206.185 237.369H208.683C209.36 237.369 209.9 237.162 210.302 236.749C210.715 236.324 210.922 235.762 210.922 235.061C210.922 234.349 210.715 233.787 210.302 233.373C209.9 232.96 209.36 232.753 208.683 232.753H206.185V237.369ZM216.048 243.931V231.358H223.282V232.77H217.581V236.663H222.679V238.058H217.581V242.519H223.282V243.931H216.048ZM227.219 243.931V231.358H234.212V232.77H228.769V236.56H230.853C231.657 236.56 232.346 236.715 232.92 237.025C233.494 237.323 233.936 237.748 234.246 238.299C234.568 238.85 234.729 239.499 234.729 240.246C234.729 240.992 234.568 241.641 234.246 242.192C233.936 242.743 233.494 243.174 232.92 243.484C232.346 243.782 231.657 243.931 230.853 243.931H227.219ZM228.769 242.519H230.853C231.565 242.519 232.122 242.318 232.524 241.916C232.926 241.503 233.127 240.946 233.127 240.246C233.127 239.534 232.926 238.977 232.524 238.575C232.122 238.173 231.565 237.972 230.853 237.972H228.769V242.519ZM238.425 243.931V231.358H239.924V238.42C239.924 238.833 239.912 239.275 239.889 239.746C239.878 240.205 239.86 240.647 239.837 241.072C239.814 241.486 239.791 241.836 239.769 242.123L243.592 231.358H245.659V243.931H244.161V236.87C244.161 236.445 244.166 236.003 244.178 235.543C244.201 235.073 244.224 234.631 244.247 234.217C244.281 233.792 244.31 233.442 244.333 233.167L240.492 243.931H238.425ZM252.542 243.931V232.753H249.097V231.341H257.537V232.753H254.092V243.931H252.542ZM261.044 243.931V231.358H262.594V236.525H265.108C265.866 236.525 266.526 236.68 267.089 236.99C267.663 237.3 268.105 237.731 268.415 238.282C268.737 238.833 268.898 239.482 268.898 240.228C268.898 240.963 268.737 241.612 268.415 242.175C268.105 242.726 267.663 243.156 267.089 243.466C266.526 243.776 265.866 243.931 265.108 243.931H261.044ZM262.594 242.519H265.022C265.7 242.519 266.245 242.312 266.658 241.899C267.083 241.474 267.296 240.917 267.296 240.228C267.296 239.539 267.083 238.988 266.658 238.575C266.245 238.15 265.7 237.938 265.022 237.938H262.594V242.519ZM283.576 243.931V231.358H287.141C288.289 231.358 289.185 231.645 289.828 232.219C290.483 232.793 290.81 233.591 290.81 234.613C290.81 235.187 290.689 235.687 290.448 236.112C290.207 236.537 289.863 236.864 289.415 237.094C288.978 237.323 288.45 237.432 287.83 237.421V237.162C288.496 237.151 289.07 237.277 289.553 237.541C290.046 237.805 290.425 238.184 290.689 238.678C290.965 239.172 291.103 239.758 291.103 240.435C291.103 241.147 290.953 241.767 290.655 242.295C290.356 242.823 289.931 243.231 289.38 243.518C288.829 243.794 288.169 243.931 287.4 243.931H283.576ZM285.092 242.536H287.227C287.951 242.536 288.519 242.347 288.933 241.968C289.357 241.577 289.57 241.049 289.57 240.383C289.57 239.694 289.357 239.137 288.933 238.713C288.519 238.276 287.951 238.058 287.227 238.058H285.092V242.536ZM285.092 236.715H287.124C287.79 236.715 288.312 236.537 288.691 236.181C289.082 235.825 289.277 235.343 289.277 234.734C289.277 234.125 289.088 233.643 288.709 233.287C288.33 232.931 287.807 232.753 287.141 232.753H285.092V236.715ZM298.485 244.104C297.727 244.104 297.067 243.96 296.504 243.673C295.953 243.386 295.522 242.973 295.212 242.433C294.914 241.882 294.765 241.233 294.765 240.487V234.803C294.765 234.045 294.914 233.396 295.212 232.857C295.522 232.317 295.953 231.904 296.504 231.616C297.067 231.329 297.727 231.186 298.485 231.186C299.243 231.186 299.897 231.335 300.448 231.634C301 231.921 301.424 232.334 301.723 232.874C302.022 233.413 302.171 234.056 302.171 234.803H300.621C300.621 234.091 300.431 233.545 300.052 233.167C299.685 232.776 299.162 232.581 298.485 232.581C297.807 232.581 297.274 232.77 296.883 233.149C296.504 233.528 296.315 234.074 296.315 234.786V240.487C296.315 241.199 296.504 241.75 296.883 242.14C297.274 242.519 297.807 242.709 298.485 242.709C299.162 242.709 299.685 242.519 300.052 242.14C300.431 241.75 300.621 241.199 300.621 240.487H302.171C302.171 241.222 302.022 241.865 301.723 242.416C301.424 242.955 301 243.374 300.448 243.673C299.897 243.96 299.243 244.104 298.485 244.104ZM306.246 243.931V231.358H313.48V232.77H307.779V236.663H312.877V238.058H307.779V242.519H313.48V243.931H306.246ZM316.487 243.931L320.104 237.559L316.677 231.358H318.468L320.414 235.078C320.518 235.274 320.621 235.486 320.725 235.716C320.839 235.934 320.931 236.106 321 236.232C321.058 236.106 321.138 235.934 321.241 235.716C321.356 235.486 321.465 235.274 321.568 235.078L323.549 231.358H325.254L321.827 237.455L325.444 243.931H323.67L321.517 239.935C321.413 239.74 321.304 239.534 321.19 239.315C321.086 239.086 321.006 238.902 320.948 238.764C320.891 238.902 320.805 239.08 320.69 239.298C320.587 239.516 320.483 239.723 320.38 239.918L318.21 243.931H316.487ZM338.779 246.343V242.605H339.554C339.68 242.376 339.812 242.065 339.95 241.675C340.088 241.285 340.208 240.843 340.312 240.349C340.415 239.855 340.472 239.338 340.484 238.799L340.604 231.358H347.046V242.605H348.252V246.343H346.874V243.931H340.157V246.343H338.779ZM341.173 242.605H345.496V232.736H342.086L342 238.799C341.988 239.683 341.89 240.464 341.707 241.141C341.523 241.819 341.345 242.307 341.173 242.605ZM351.345 243.931V231.358H358.579V232.77H352.878V236.663H357.976V238.058H352.878V242.519H358.579V243.931H351.345ZM362.207 243.931V231.358H364.239L365.548 235.423C365.674 235.79 365.789 236.158 365.893 236.525C365.996 236.881 366.071 237.157 366.117 237.352C366.174 237.157 366.249 236.881 366.34 236.525C366.432 236.158 366.536 235.785 366.65 235.406L367.891 231.358H369.923V243.931H368.407V239.367C368.407 238.862 368.425 238.288 368.459 237.645C368.493 237.002 368.539 236.347 368.597 235.681C368.654 235.004 368.712 234.361 368.769 233.752C368.838 233.132 368.895 232.592 368.941 232.133L366.909 238.42H365.273L363.223 232.133C363.28 232.581 363.338 233.103 363.395 233.701C363.453 234.286 363.504 234.912 363.55 235.578C363.596 236.232 363.636 236.887 363.671 237.541C363.705 238.196 363.722 238.804 363.722 239.367V243.931H362.207ZM377.34 244.104C376.582 244.104 375.927 243.96 375.376 243.673C374.836 243.386 374.417 242.973 374.119 242.433C373.832 241.882 373.688 241.233 373.688 240.487V234.803C373.688 234.045 373.832 233.396 374.119 232.857C374.417 232.317 374.836 231.904 375.376 231.616C375.927 231.329 376.582 231.186 377.34 231.186C378.098 231.186 378.746 231.329 379.286 231.616C379.837 231.904 380.256 232.317 380.543 232.857C380.842 233.396 380.991 234.039 380.991 234.786V240.487C380.991 241.233 380.842 241.882 380.543 242.433C380.256 242.973 379.837 243.386 379.286 243.673C378.746 243.96 378.098 244.104 377.34 244.104ZM377.34 242.709C378.017 242.709 378.534 242.519 378.89 242.14C379.257 241.75 379.441 241.199 379.441 240.487V234.803C379.441 234.091 379.257 233.545 378.89 233.167C378.534 232.776 378.017 232.581 377.34 232.581C376.674 232.581 376.157 232.776 375.79 233.167C375.422 233.545 375.238 234.091 375.238 234.803V240.487C375.238 241.199 375.422 241.75 375.79 242.14C376.157 242.519 376.674 242.709 377.34 242.709ZM385.049 243.931V231.358H386.599V236.732H390.63V231.358H392.18V243.931H390.63V238.144H386.599V243.931H385.049ZM399.889 244.104C399.131 244.104 398.477 243.96 397.926 243.673C397.386 243.386 396.967 242.973 396.668 242.433C396.381 241.882 396.238 241.233 396.238 240.487V234.803C396.238 234.045 396.381 233.396 396.668 232.857C396.967 232.317 397.386 231.904 397.926 231.616C398.477 231.329 399.131 231.186 399.889 231.186C400.647 231.186 401.296 231.329 401.836 231.616C402.387 231.904 402.806 232.317 403.093 232.857C403.391 233.396 403.541 234.039 403.541 234.786V240.487C403.541 241.233 403.391 241.882 403.093 242.433C402.806 242.973 402.387 243.386 401.836 243.673C401.296 243.96 400.647 244.104 399.889 244.104ZM399.889 242.709C400.567 242.709 401.083 242.519 401.439 242.14C401.807 241.75 401.991 241.199 401.991 240.487V234.803C401.991 234.091 401.807 233.545 401.439 233.167C401.083 232.776 400.567 232.581 399.889 232.581C399.223 232.581 398.707 232.776 398.339 233.167C397.972 233.545 397.788 234.091 397.788 234.803V240.487C397.788 241.199 397.972 241.75 398.339 242.14C398.707 242.519 399.223 242.709 399.889 242.709ZM407.599 243.931V231.358H411.164C412.312 231.358 413.208 231.645 413.851 232.219C414.505 232.793 414.833 233.591 414.833 234.613C414.833 235.187 414.712 235.687 414.471 236.112C414.23 236.537 413.885 236.864 413.438 237.094C413.001 237.323 412.473 237.432 411.853 237.421V237.162C412.519 237.151 413.093 237.277 413.575 237.541C414.069 237.805 414.448 238.184 414.712 238.678C414.988 239.172 415.126 239.758 415.126 240.435C415.126 241.147 414.976 241.767 414.678 242.295C414.379 242.823 413.954 243.231 413.403 243.518C412.852 243.794 412.192 243.931 411.422 243.931H407.599ZM409.114 242.536H411.25C411.974 242.536 412.542 242.347 412.955 241.968C413.38 241.577 413.593 241.049 413.593 240.383C413.593 239.694 413.38 239.137 412.955 238.713C412.542 238.276 411.974 238.058 411.25 238.058H409.114V242.536ZM409.114 236.715H411.147C411.813 236.715 412.335 236.537 412.714 236.181C413.105 235.825 413.3 235.343 413.3 234.734C413.3 234.125 413.11 233.643 412.731 233.287C412.352 232.931 411.83 232.753 411.164 232.753H409.114V236.715ZM97.0681 263.931V251.358H100.633C101.782 251.358 102.677 251.645 103.32 252.219C103.975 252.793 104.302 253.591 104.302 254.613C104.302 255.187 104.181 255.687 103.94 256.112C103.699 256.537 103.355 256.864 102.907 257.094C102.471 257.323 101.942 257.432 101.322 257.421V257.162C101.988 257.151 102.562 257.277 103.045 257.541C103.538 257.805 103.917 258.184 104.181 258.678C104.457 259.172 104.595 259.758 104.595 260.435C104.595 261.147 104.446 261.767 104.147 262.295C103.848 262.823 103.424 263.231 102.872 263.518C102.321 263.794 101.661 263.931 100.892 263.931H97.0681ZM98.5838 262.536H100.719C101.443 262.536 102.011 262.347 102.425 261.968C102.849 261.577 103.062 261.049 103.062 260.383C103.062 259.694 102.849 259.137 102.425 258.713C102.011 258.276 101.443 258.058 100.719 258.058H98.5838V262.536ZM98.5838 256.715H100.616C101.282 256.715 101.805 256.537 102.184 256.181C102.574 255.825 102.769 255.343 102.769 254.734C102.769 254.125 102.58 253.643 102.201 253.287C101.822 252.931 101.299 252.753 100.633 252.753H98.5838V256.715ZM119.325 263.931V251.358H121.357L122.666 255.423C122.793 255.79 122.907 256.158 123.011 256.525C123.114 256.881 123.189 257.157 123.235 257.352C123.292 257.157 123.367 256.881 123.459 256.525C123.55 256.158 123.654 255.785 123.769 255.406L125.009 251.358H127.041V263.931H125.525V259.367C125.525 258.862 125.543 258.288 125.577 257.645C125.612 257.002 125.657 256.347 125.715 255.681C125.772 255.004 125.83 254.361 125.887 253.752C125.956 253.132 126.013 252.592 126.059 252.133L124.027 258.42H122.391L120.341 252.133C120.398 252.581 120.456 253.103 120.513 253.701C120.571 254.286 120.622 254.912 120.668 255.578C120.714 256.232 120.754 256.887 120.789 257.541C120.823 258.196 120.841 258.804 120.841 259.367V263.931H119.325ZM134.458 264.104C133.7 264.104 133.045 263.96 132.494 263.673C131.955 263.386 131.535 262.973 131.237 262.433C130.95 261.882 130.806 261.233 130.806 260.487V254.803C130.806 254.045 130.95 253.396 131.237 252.857C131.535 252.317 131.955 251.904 132.494 251.616C133.045 251.329 133.7 251.186 134.458 251.186C135.216 251.186 135.864 251.329 136.404 251.616C136.955 251.904 137.374 252.317 137.661 252.857C137.96 253.396 138.109 254.039 138.109 254.786V260.487C138.109 261.233 137.96 261.882 137.661 262.433C137.374 262.973 136.955 263.386 136.404 263.673C135.864 263.96 135.216 264.104 134.458 264.104ZM134.458 262.709C135.135 262.709 135.652 262.519 136.008 262.14C136.375 261.75 136.559 261.199 136.559 260.487V254.803C136.559 254.091 136.375 253.545 136.008 253.167C135.652 252.776 135.135 252.581 134.458 252.581C133.792 252.581 133.275 252.776 132.908 253.167C132.54 253.545 132.356 254.091 132.356 254.803V260.487C132.356 261.199 132.54 261.75 132.908 262.14C133.275 262.519 133.792 262.709 134.458 262.709ZM142.288 263.931V251.358H149.522V252.77H143.821V256.663H148.919V258.058H143.821V262.519H149.522V263.931H142.288ZM153.39 263.931V251.358H154.889V258.42C154.889 258.833 154.877 259.275 154.854 259.746C154.843 260.205 154.826 260.647 154.803 261.072C154.78 261.486 154.757 261.836 154.734 262.123L158.558 251.358H160.624V263.931H159.126V256.87C159.126 256.445 159.132 256.003 159.143 255.543C159.166 255.073 159.189 254.631 159.212 254.217C159.246 253.792 159.275 253.442 159.298 253.167L155.457 263.931H153.39ZM157.007 250.066C156.181 250.066 155.515 249.837 155.009 249.377C154.504 248.918 154.252 248.315 154.252 247.569H155.474C155.474 248.017 155.612 248.378 155.888 248.654C156.163 248.93 156.531 249.067 156.99 249.067C157.461 249.067 157.834 248.93 158.11 248.654C158.397 248.378 158.54 248.017 158.54 247.569H159.763C159.763 248.315 159.511 248.918 159.005 249.377C158.5 249.837 157.834 250.066 157.007 250.066ZM176.284 263.931V251.358H183.605V252.77H177.835V263.931H176.284ZM190.832 264.104C190.074 264.104 189.419 263.96 188.868 263.673C188.329 263.386 187.909 262.973 187.611 262.433C187.324 261.882 187.18 261.233 187.18 260.487V254.803C187.18 254.045 187.324 253.396 187.611 252.857C187.909 252.317 188.329 251.904 188.868 251.616C189.419 251.329 190.074 251.186 190.832 251.186C191.59 251.186 192.238 251.329 192.778 251.616C193.329 251.904 193.748 252.317 194.035 252.857C194.334 253.396 194.483 254.039 194.483 254.786V260.487C194.483 261.233 194.334 261.882 194.035 262.433C193.748 262.973 193.329 263.386 192.778 263.673C192.238 263.96 191.59 264.104 190.832 264.104ZM190.832 262.709C191.509 262.709 192.026 262.519 192.382 262.14C192.749 261.75 192.933 261.199 192.933 260.487V254.803C192.933 254.091 192.749 253.545 192.382 253.167C192.026 252.776 191.509 252.581 190.832 252.581C190.166 252.581 189.649 252.776 189.282 253.167C188.914 253.545 188.73 254.091 188.73 254.803V260.487C188.73 261.199 188.914 261.75 189.282 262.14C189.649 262.519 190.166 262.709 190.832 262.709ZM197.284 264.018V262.571H197.594C198.099 262.571 198.461 262.347 198.679 261.899C198.909 261.44 199.029 260.659 199.041 259.557L199.179 251.358H205.655V263.931H204.105V252.77H200.711L200.591 259.557C200.568 261.095 200.321 262.226 199.85 262.95C199.391 263.662 198.668 264.018 197.68 264.018H197.284ZM213.381 264.104C212.624 264.104 211.969 263.96 211.418 263.673C210.878 263.386 210.459 262.973 210.161 262.433C209.873 261.882 209.73 261.233 209.73 260.487V254.803C209.73 254.045 209.873 253.396 210.161 252.857C210.459 252.317 210.878 251.904 211.418 251.616C211.969 251.329 212.624 251.186 213.381 251.186C214.139 251.186 214.788 251.329 215.328 251.616C215.879 251.904 216.298 252.317 216.585 252.857C216.884 253.396 217.033 254.039 217.033 254.786V260.487C217.033 261.233 216.884 261.882 216.585 262.433C216.298 262.973 215.879 263.386 215.328 263.673C214.788 263.96 214.139 264.104 213.381 264.104ZM213.381 262.709C214.059 262.709 214.576 262.519 214.932 262.14C215.299 261.75 215.483 261.199 215.483 260.487V254.803C215.483 254.091 215.299 253.545 214.932 253.167C214.576 252.776 214.059 252.581 213.381 252.581C212.715 252.581 212.199 252.776 211.831 253.167C211.464 253.545 211.28 254.091 211.28 254.803V260.487C211.28 261.199 211.464 261.75 211.831 262.14C212.199 262.519 212.715 262.709 213.381 262.709ZM221.091 263.931V251.358H224.656C225.804 251.358 226.7 251.645 227.343 252.219C227.998 252.793 228.325 253.591 228.325 254.613C228.325 255.187 228.204 255.687 227.963 256.112C227.722 256.537 227.378 256.864 226.93 257.094C226.493 257.323 225.965 257.432 225.345 257.421V257.162C226.011 257.151 226.585 257.277 227.068 257.541C227.561 257.805 227.94 258.184 228.204 258.678C228.48 259.172 228.618 259.758 228.618 260.435C228.618 261.147 228.468 261.767 228.17 262.295C227.871 262.823 227.446 263.231 226.895 263.518C226.344 263.794 225.684 263.931 224.915 263.931H221.091ZM222.607 262.536H224.742C225.466 262.536 226.034 262.347 226.447 261.968C226.872 261.577 227.085 261.049 227.085 260.383C227.085 259.694 226.872 259.137 226.447 258.713C226.034 258.276 225.466 258.058 224.742 258.058H222.607V262.536ZM222.607 256.715H224.639C225.305 256.715 225.827 256.537 226.206 256.181C226.597 255.825 226.792 255.343 226.792 254.734C226.792 254.125 226.602 253.643 226.224 253.287C225.845 252.931 225.322 252.753 224.656 252.753H222.607V256.715ZM232.486 263.931V251.358H239.72V252.77H234.019V256.663H239.117V258.058H234.019V262.519H239.72V263.931H232.486ZM244.881 266.687L246.258 261.331H248.498L246.258 266.687H244.881ZM271.736 263.931V259.092C271.587 259.126 271.306 259.166 270.892 259.212C270.49 259.247 269.997 259.264 269.411 259.264C268.332 259.264 267.47 258.937 266.827 258.282C266.196 257.628 265.88 256.749 265.88 255.647V251.358H267.43V255.647C267.43 256.324 267.631 256.87 268.033 257.283C268.446 257.685 268.992 257.886 269.669 257.886C270.22 257.886 270.674 257.869 271.03 257.834C271.386 257.788 271.621 257.748 271.736 257.714V251.358H273.286V263.931H271.736ZM280.255 263.931V252.753H276.81V251.341H285.25V252.753H281.805V263.931H280.255ZM292.305 264.104C291.547 264.104 290.893 263.96 290.342 263.673C289.802 263.386 289.383 262.973 289.084 262.433C288.797 261.882 288.654 261.233 288.654 260.487V254.803C288.654 254.045 288.797 253.396 289.084 252.857C289.383 252.317 289.802 251.904 290.342 251.616C290.893 251.329 291.547 251.186 292.305 251.186C293.063 251.186 293.712 251.329 294.251 251.616C294.802 251.904 295.222 252.317 295.509 252.857C295.807 253.396 295.956 254.039 295.956 254.786V260.487C295.956 261.233 295.807 261.882 295.509 262.433C295.222 262.973 294.802 263.386 294.251 263.673C293.712 263.96 293.063 264.104 292.305 264.104ZM292.305 262.709C292.982 262.709 293.499 262.519 293.855 262.14C294.223 261.75 294.406 261.199 294.406 260.487V254.803C294.406 254.091 294.223 253.545 293.855 253.167C293.499 252.776 292.982 252.581 292.305 252.581C291.639 252.581 291.122 252.776 290.755 253.167C290.387 253.545 290.204 254.091 290.204 254.803V260.487C290.204 261.199 290.387 261.75 290.755 262.14C291.122 262.519 291.639 262.709 292.305 262.709ZM300.032 263.931V251.358H307.025V252.77H301.582V256.56H303.666C304.47 256.56 305.159 256.715 305.733 257.025C306.307 257.323 306.749 257.748 307.059 258.299C307.381 258.85 307.541 259.499 307.541 260.246C307.541 260.992 307.381 261.641 307.059 262.192C306.749 262.743 306.307 263.174 305.733 263.484C305.159 263.782 304.47 263.931 303.666 263.931H300.032ZM301.582 262.519H303.666C304.378 262.519 304.935 262.318 305.337 261.916C305.739 261.503 305.939 260.946 305.939 260.246C305.939 259.534 305.739 258.977 305.337 258.575C304.935 258.173 304.378 257.972 303.666 257.972H301.582V262.519ZM310.807 263.931V251.358H312.254V256.525H312.96C314.005 256.525 314.826 256.818 315.423 257.404C316.032 257.989 316.336 258.787 316.336 259.798V260.676C316.336 261.687 316.037 262.485 315.44 263.07C314.843 263.644 314.016 263.931 312.96 263.931H310.807ZM312.254 262.571H312.96C313.569 262.571 314.034 262.404 314.355 262.071C314.688 261.727 314.855 261.256 314.855 260.659V259.798C314.855 259.189 314.688 258.718 314.355 258.385C314.034 258.052 313.569 257.886 312.96 257.886H312.254V262.571ZM317.455 263.931V251.358H318.902V263.931H317.455ZM333.202 263.931L335.785 258.42C335.027 258.19 334.43 257.771 333.994 257.162C333.558 256.554 333.339 255.825 333.339 254.975C333.339 254.252 333.494 253.62 333.804 253.08C334.114 252.541 334.551 252.122 335.113 251.823C335.676 251.513 336.331 251.358 337.077 251.358H340.935V263.931H339.385V258.592H337.387L334.993 263.931H333.202ZM337.077 257.214H339.385V252.736H337.077C336.445 252.736 335.929 252.943 335.527 253.356C335.136 253.758 334.941 254.298 334.941 254.975C334.941 255.641 335.136 256.181 335.527 256.594C335.917 257.007 336.434 257.214 337.077 257.214ZM356.388 263.931V251.358H357.939V256.732H361.969V251.358H363.519V263.931H361.969V258.144H357.939V263.931H356.388ZM366.923 263.931L370.195 251.358H372.279L375.535 263.931H373.967L373.14 260.59H369.334L368.507 263.931H366.923ZM369.644 259.281H372.813L371.849 255.406C371.665 254.671 371.521 254.056 371.418 253.563C371.315 253.069 371.252 252.747 371.229 252.598C371.206 252.747 371.143 253.069 371.039 253.563C370.936 254.056 370.792 254.665 370.609 255.388L369.644 259.281ZM378.921 263.931V251.358H380.471V256.749H382.331L385.121 251.358H386.809L383.692 257.404L386.982 263.931H385.208L382.28 258.11H380.471V263.931H378.921ZM393.778 264.104C393.02 264.104 392.366 263.96 391.815 263.673C391.275 263.386 390.856 262.973 390.557 262.433C390.27 261.882 390.127 261.233 390.127 260.487V254.803C390.127 254.045 390.27 253.396 390.557 252.857C390.856 252.317 391.275 251.904 391.815 251.616C392.366 251.329 393.02 251.186 393.778 251.186C394.536 251.186 395.185 251.329 395.724 251.616C396.276 251.904 396.695 252.317 396.982 252.857C397.28 253.396 397.43 254.039 397.43 254.786V260.487C397.43 261.233 397.28 261.882 396.982 262.433C396.695 262.973 396.276 263.386 395.724 263.673C395.185 263.96 394.536 264.104 393.778 264.104ZM393.778 262.709C394.456 262.709 394.972 262.519 395.328 262.14C395.696 261.75 395.879 261.199 395.879 260.487V254.803C395.879 254.091 395.696 253.545 395.328 253.167C394.972 252.776 394.456 252.581 393.778 252.581C393.112 252.581 392.596 252.776 392.228 253.167C391.861 253.545 391.677 254.091 391.677 254.803V260.487C391.677 261.199 391.861 261.75 392.228 262.14C392.596 262.519 393.112 262.709 393.778 262.709ZM401.488 263.931V251.358H403.038V256.732H407.068V251.358H408.618V263.931H407.068V258.144H403.038V263.931H401.488ZM412.883 263.931V251.358H420.117V252.77H414.416V256.663H419.514V258.058H414.416V262.519H420.117V263.931H412.883ZM430.789 266.343V263.931H424.055V251.358H425.605V262.553H429.325V251.358H430.875V262.553H432.167V266.343H430.789ZM436.122 258.937V257.559H441.633V258.937H436.122ZM449.377 263.931V252.753H445.932V251.341H454.372V252.753H450.927V263.931H449.377ZM461.427 264.104C460.669 264.104 460.015 263.96 459.463 263.673C458.924 263.386 458.505 262.973 458.206 262.433C457.919 261.882 457.776 261.233 457.776 260.487V254.803C457.776 254.045 457.919 253.396 458.206 252.857C458.505 252.317 458.924 251.904 459.463 251.616C460.015 251.329 460.669 251.186 461.427 251.186C462.185 251.186 462.834 251.329 463.373 251.616C463.924 251.904 464.344 252.317 464.631 252.857C464.929 253.396 465.078 254.039 465.078 254.786V260.487C465.078 261.233 464.929 261.882 464.631 262.433C464.344 262.973 463.924 263.386 463.373 263.673C462.834 263.96 462.185 264.104 461.427 264.104ZM461.427 262.709C462.104 262.709 462.621 262.519 462.977 262.14C463.345 261.75 463.528 261.199 463.528 260.487V254.803C463.528 254.091 463.345 253.545 462.977 253.167C462.621 252.776 462.104 252.581 461.427 252.581C460.761 252.581 460.244 252.776 459.877 253.167C459.509 253.545 459.326 254.091 459.326 254.803V260.487C459.326 261.199 459.509 261.75 459.877 262.14C460.244 262.519 460.761 262.709 461.427 262.709ZM197.012 284.104C196.254 284.104 195.594 283.96 195.031 283.673C194.48 283.386 194.049 282.973 193.739 282.433C193.441 281.882 193.291 281.233 193.291 280.487V274.803C193.291 274.045 193.441 273.396 193.739 272.857C194.049 272.317 194.48 271.904 195.031 271.616C195.594 271.329 196.254 271.186 197.012 271.186C197.77 271.186 198.424 271.335 198.975 271.634C199.526 271.921 199.951 272.334 200.25 272.874C200.548 273.413 200.698 274.056 200.698 274.803H199.147C199.147 274.091 198.958 273.545 198.579 273.167C198.212 272.776 197.689 272.581 197.012 272.581C196.334 272.581 195.8 272.77 195.41 273.149C195.031 273.528 194.842 274.074 194.842 274.786V280.487C194.842 281.199 195.031 281.75 195.41 282.14C195.8 282.519 196.334 282.709 197.012 282.709C197.689 282.709 198.212 282.519 198.579 282.14C198.958 281.75 199.147 281.199 199.147 280.487H200.698C200.698 281.222 200.548 281.865 200.25 282.416C199.951 282.955 199.526 283.374 198.975 283.673C198.424 283.96 197.77 284.104 197.012 284.104ZM204.36 283.931V271.358H206.392L207.701 275.423C207.827 275.79 207.942 276.158 208.045 276.525C208.149 276.881 208.223 277.157 208.269 277.352C208.327 277.157 208.401 276.881 208.493 276.525C208.585 276.158 208.688 275.785 208.803 275.406L210.043 271.358H212.076V283.931H210.56V279.367C210.56 278.862 210.577 278.288 210.612 277.645C210.646 277.002 210.692 276.347 210.75 275.681C210.807 275.004 210.864 274.361 210.922 273.752C210.991 273.132 211.048 272.592 211.094 272.133L209.062 278.42H207.425L205.376 272.133C205.433 272.581 205.491 273.103 205.548 273.701C205.605 274.286 205.657 274.912 205.703 275.578C205.749 276.232 205.789 276.887 205.824 277.541C205.858 278.196 205.875 278.804 205.875 279.367V283.931H204.36ZM219.492 284.104C218.735 284.104 218.08 283.96 217.529 283.673C216.989 283.386 216.57 282.973 216.272 282.433C215.985 281.882 215.841 281.233 215.841 280.487V274.803C215.841 274.045 215.985 273.396 216.272 272.857C216.57 272.317 216.989 271.904 217.529 271.616C218.08 271.329 218.735 271.186 219.492 271.186C220.25 271.186 220.899 271.329 221.439 271.616C221.99 271.904 222.409 272.317 222.696 272.857C222.995 273.396 223.144 274.039 223.144 274.786V280.487C223.144 281.233 222.995 281.882 222.696 282.433C222.409 282.973 221.99 283.386 221.439 283.673C220.899 283.96 220.25 284.104 219.492 284.104ZM219.492 282.709C220.17 282.709 220.687 282.519 221.043 282.14C221.41 281.75 221.594 281.199 221.594 280.487V274.803C221.594 274.091 221.41 273.545 221.043 273.167C220.687 272.776 220.17 272.581 219.492 272.581C218.826 272.581 218.31 272.776 217.942 273.167C217.575 273.545 217.391 274.091 217.391 274.803V280.487C217.391 281.199 217.575 281.75 217.942 282.14C218.31 282.519 218.826 282.709 219.492 282.709ZM227.495 283.931V271.358H234.815V272.77H229.045V283.931H227.495ZM249.752 283.931V271.358H253.317C254.465 271.358 255.361 271.645 256.004 272.219C256.658 272.793 256.985 273.591 256.985 274.613C256.985 275.187 256.865 275.687 256.624 276.112C256.383 276.537 256.038 276.864 255.59 277.094C255.154 277.323 254.626 277.432 254.006 277.421V277.162C254.672 277.151 255.246 277.277 255.728 277.541C256.222 277.805 256.601 278.184 256.865 278.678C257.141 279.172 257.278 279.758 257.278 280.435C257.278 281.147 257.129 281.767 256.83 282.295C256.532 282.823 256.107 283.231 255.556 283.518C255.005 283.794 254.345 283.931 253.575 283.931H249.752ZM251.267 282.536H253.403C254.126 282.536 254.695 282.347 255.108 281.968C255.533 281.577 255.745 281.049 255.745 280.383C255.745 279.694 255.533 279.137 255.108 278.713C254.695 278.276 254.126 278.058 253.403 278.058H251.267V282.536ZM251.267 276.715H253.3C253.966 276.715 254.488 276.537 254.867 276.181C255.257 275.825 255.453 275.343 255.453 274.734C255.453 274.125 255.263 273.643 254.884 273.287C254.505 272.931 253.983 272.753 253.317 272.753H251.267V276.715ZM260.544 283.931V271.358H261.991V276.525H262.697C263.742 276.525 264.563 276.818 265.16 277.404C265.769 277.989 266.073 278.787 266.073 279.798V280.676C266.073 281.687 265.774 282.485 265.177 283.07C264.58 283.644 263.753 283.931 262.697 283.931H260.544ZM261.991 282.571H262.697C263.306 282.571 263.771 282.404 264.092 282.071C264.425 281.727 264.592 281.256 264.592 280.659V279.798C264.592 279.189 264.425 278.718 264.092 278.385C263.771 278.052 263.306 277.886 262.697 277.886H261.991V282.571ZM267.192 283.931V271.358H268.639V283.931H267.192ZM271.044 284.018V282.571H271.354C271.859 282.571 272.221 282.347 272.439 281.899C272.669 281.44 272.789 280.659 272.801 279.557L272.938 271.358H279.415V283.931H277.864V272.77H274.471L274.351 279.557C274.328 281.095 274.081 282.226 273.61 282.95C273.151 283.662 272.427 284.018 271.44 284.018H271.044ZM283.697 283.931V271.358H290.93V272.77H285.229V276.663H290.328V278.058H285.229V282.519H290.93V283.931H283.697ZM300.397 283.931V279.092C300.247 279.126 299.966 279.166 299.553 279.212C299.151 279.247 298.657 279.264 298.072 279.264C296.992 279.264 296.131 278.937 295.488 278.282C294.856 277.628 294.541 276.749 294.541 275.647V271.358H296.091V275.647C296.091 276.324 296.292 276.87 296.694 277.283C297.107 277.685 297.652 277.886 298.33 277.886C298.881 277.886 299.335 277.869 299.691 277.834C300.047 277.788 300.282 277.748 300.397 277.714V271.358H301.947V283.931H300.397ZM306.074 283.931V271.358H307.572V278.42C307.572 278.833 307.561 279.275 307.538 279.746C307.526 280.205 307.509 280.647 307.486 281.072C307.463 281.486 307.44 281.836 307.417 282.123L311.241 271.358H313.308V283.931H311.809V276.87C311.809 276.445 311.815 276.003 311.827 275.543C311.85 275.073 311.873 274.631 311.895 274.217C311.93 273.792 311.959 273.442 311.982 273.167L308.141 283.931H306.074ZM320.191 283.931V272.753H316.746V271.341H325.185V272.753H321.741V283.931H320.191ZM328.692 283.931V271.358H330.243V276.525H332.757C333.515 276.525 334.175 276.68 334.738 276.99C335.312 277.3 335.754 277.731 336.064 278.282C336.386 278.833 336.546 279.482 336.546 280.228C336.546 280.963 336.386 281.612 336.064 282.175C335.754 282.726 335.312 283.156 334.738 283.466C334.175 283.776 333.515 283.931 332.757 283.931H328.692ZM330.243 282.519H332.671C333.349 282.519 333.894 282.312 334.307 281.899C334.732 281.474 334.945 280.917 334.945 280.228C334.945 279.539 334.732 278.988 334.307 278.575C333.894 278.15 333.349 277.938 332.671 277.938H330.243V282.519ZM343.584 284.104C342.826 284.104 342.166 283.96 341.603 283.673C341.052 283.386 340.622 282.973 340.312 282.433C340.013 281.882 339.864 281.233 339.864 280.487V274.803C339.864 274.045 340.013 273.396 340.312 272.857C340.622 272.317 341.052 271.904 341.603 271.616C342.166 271.329 342.826 271.186 343.584 271.186C344.342 271.186 344.996 271.335 345.548 271.634C346.099 271.921 346.524 272.334 346.822 272.874C347.121 273.413 347.27 274.056 347.27 274.803H345.72C345.72 274.091 345.53 273.545 345.152 273.167C344.784 272.776 344.262 272.581 343.584 272.581C342.907 272.581 342.373 272.77 341.982 273.149C341.603 273.528 341.414 274.074 341.414 274.786V280.487C341.414 281.199 341.603 281.75 341.982 282.14C342.373 282.519 342.907 282.709 343.584 282.709C344.262 282.709 344.784 282.519 345.152 282.14C345.53 281.75 345.72 281.199 345.72 280.487H347.27C347.27 281.222 347.121 281.865 346.822 282.416C346.524 282.955 346.099 283.374 345.548 283.673C344.996 283.96 344.342 284.104 343.584 284.104ZM350.587 283.931L353.171 278.42C352.413 278.19 351.816 277.771 351.38 277.162C350.943 276.554 350.725 275.825 350.725 274.975C350.725 274.252 350.88 273.62 351.19 273.08C351.5 272.541 351.937 272.122 352.499 271.823C353.062 271.513 353.716 271.358 354.463 271.358H358.321V283.931H356.771V278.592H354.773L352.379 283.931H350.587ZM354.463 277.214H356.771V272.736H354.463C353.831 272.736 353.315 272.943 352.913 273.356C352.522 273.758 352.327 274.298 352.327 274.975C352.327 275.641 352.522 276.181 352.913 276.594C353.303 277.007 353.82 277.214 354.463 277.214ZM142.589 303.931V291.358H144.088V298.42C144.088 298.833 144.076 299.275 144.053 299.746C144.042 300.205 144.025 300.647 144.002 301.072C143.979 301.486 143.956 301.836 143.933 302.123L147.756 291.358H149.823V303.931H148.325V296.87C148.325 296.445 148.33 296.003 148.342 295.543C148.365 295.073 148.388 294.631 148.411 294.217C148.445 293.792 148.474 293.442 148.497 293.167L144.656 303.931H142.589ZM163.795 303.931L166.069 297.455L163.968 291.358H165.587L167.378 296.939H168.101V291.358H169.41V296.939H170.151L171.925 291.358H173.544L171.477 297.473L173.716 303.931H172.114L170.185 298.041H169.41V303.931H168.101V298.041H167.326L165.38 303.931H163.795ZM176.414 303.931V291.358H177.912V298.42C177.912 298.833 177.901 299.275 177.878 299.746C177.866 300.205 177.849 300.647 177.826 301.072C177.803 301.486 177.78 301.836 177.757 302.123L181.581 291.358H183.648V303.931H182.149V296.87C182.149 296.445 182.155 296.003 182.166 295.543C182.189 295.073 182.212 294.631 182.235 294.217C182.27 293.792 182.298 293.442 182.321 293.167L178.481 303.931H176.414ZM190.53 303.931V292.753H187.086V291.341H195.525V292.753H192.081V303.931H190.53ZM199.032 303.931V291.358H200.582V296.525H203.097C203.855 296.525 204.515 296.68 205.078 296.99C205.652 297.3 206.094 297.731 206.404 298.282C206.725 298.833 206.886 299.482 206.886 300.228C206.886 300.963 206.725 301.612 206.404 302.175C206.094 302.726 205.652 303.156 205.078 303.466C204.515 303.776 203.855 303.931 203.097 303.931H199.032ZM200.582 302.519H203.011C203.688 302.519 204.234 302.312 204.647 301.899C205.072 301.474 205.284 300.917 205.284 300.228C205.284 299.539 205.072 298.988 204.647 298.575C204.234 298.15 203.688 297.938 203.011 297.938H200.582V302.519ZM225.199 304.104C224.441 304.104 223.781 303.96 223.218 303.673C222.667 303.386 222.236 302.973 221.926 302.433C221.628 301.882 221.478 301.233 221.478 300.487V294.803C221.478 294.045 221.628 293.396 221.926 292.857C222.236 292.317 222.667 291.904 223.218 291.616C223.781 291.329 224.441 291.186 225.199 291.186C225.957 291.186 226.611 291.335 227.162 291.634C227.713 291.921 228.138 292.334 228.437 292.874C228.735 293.413 228.885 294.056 228.885 294.803H227.334C227.334 294.091 227.145 293.545 226.766 293.167C226.399 292.776 225.876 292.581 225.199 292.581C224.521 292.581 223.987 292.77 223.597 293.149C223.218 293.528 223.029 294.074 223.029 294.786V300.487C223.029 301.199 223.218 301.75 223.597 302.14C223.987 302.519 224.521 302.709 225.199 302.709C225.876 302.709 226.399 302.519 226.766 302.14C227.145 301.75 227.334 301.199 227.334 300.487H228.885C228.885 301.222 228.735 301.865 228.437 302.416C228.138 302.955 227.713 303.374 227.162 303.673C226.611 303.96 225.957 304.104 225.199 304.104ZM238.385 303.931V299.092C238.236 299.126 237.955 299.166 237.541 299.212C237.14 299.247 236.646 299.264 236.06 299.264C234.981 299.264 234.12 298.937 233.477 298.282C232.845 297.628 232.529 296.749 232.529 295.647V291.358H234.079V295.647C234.079 296.324 234.28 296.87 234.682 297.283C235.096 297.685 235.641 297.886 236.319 297.886C236.87 297.886 237.323 297.869 237.679 297.834C238.035 297.788 238.271 297.748 238.385 297.714V291.358H239.936V303.931H238.385ZM243.374 303.931L246.646 291.358H248.73L251.985 303.931H250.418L249.591 300.59H245.785L244.958 303.931H243.374ZM246.095 299.281H249.264L248.299 295.406C248.116 294.671 247.972 294.056 247.869 293.563C247.766 293.069 247.702 292.747 247.679 292.598C247.656 292.747 247.593 293.069 247.49 293.563C247.387 294.056 247.243 294.665 247.059 295.388L246.095 299.281ZM259.023 304.104C258.265 304.104 257.605 303.96 257.042 303.673C256.491 303.386 256.061 302.973 255.751 302.433C255.452 301.882 255.303 301.233 255.303 300.487V294.803C255.303 294.045 255.452 293.396 255.751 292.857C256.061 292.317 256.491 291.904 257.042 291.616C257.605 291.329 258.265 291.186 259.023 291.186C259.781 291.186 260.435 291.335 260.987 291.634C261.538 291.921 261.963 292.334 262.261 292.874C262.56 293.413 262.709 294.056 262.709 294.803H261.159C261.159 294.091 260.969 293.545 260.591 293.167C260.223 292.776 259.701 292.581 259.023 292.581C258.346 292.581 257.812 292.77 257.421 293.149C257.042 293.528 256.853 294.074 256.853 294.786V300.487C256.853 301.199 257.042 301.75 257.421 302.14C257.812 302.519 258.346 302.709 259.023 302.709C259.701 302.709 260.223 302.519 260.591 302.14C260.969 301.75 261.159 301.199 261.159 300.487H262.709C262.709 301.222 262.56 301.865 262.261 302.416C261.963 302.955 261.538 303.374 260.987 303.673C260.435 303.96 259.781 304.104 259.023 304.104ZM269.454 303.931V292.753H266.009V291.341H274.449V292.753H271.004V303.931H269.454ZM276.681 304.018V302.571H276.991C277.496 302.571 277.858 302.347 278.076 301.899C278.306 301.44 278.427 300.659 278.438 299.557L278.576 291.358H285.052V303.931H283.502V292.77H280.109L279.988 299.557C279.965 301.095 279.718 302.226 279.248 302.95C278.788 303.662 278.065 304.018 277.077 304.018H276.681ZM289.162 303.931V291.358H290.66V298.42C290.66 298.833 290.649 299.275 290.626 299.746C290.614 300.205 290.597 300.647 290.574 301.072C290.551 301.486 290.528 301.836 290.505 302.123L294.329 291.358H296.396V303.931H294.897V296.87C294.897 296.445 294.903 296.003 294.914 295.543C294.937 295.073 294.96 294.631 294.983 294.217C295.018 293.792 295.046 293.442 295.069 293.167L291.229 303.931H289.162ZM300.488 303.931V291.358H304.053C305.202 291.358 306.097 291.645 306.74 292.219C307.395 292.793 307.722 293.591 307.722 294.613C307.722 295.187 307.602 295.687 307.36 296.112C307.119 296.537 306.775 296.864 306.327 297.094C305.891 297.323 305.362 297.432 304.742 297.421V297.162C305.408 297.151 305.983 297.277 306.465 297.541C306.959 297.805 307.337 298.184 307.602 298.678C307.877 299.172 308.015 299.758 308.015 300.435C308.015 301.147 307.866 301.767 307.567 302.295C307.269 302.823 306.844 303.231 306.293 303.518C305.741 303.794 305.081 303.931 304.312 303.931H300.488ZM302.004 302.536H304.14C304.863 302.536 305.431 302.347 305.845 301.968C306.27 301.577 306.482 301.049 306.482 300.383C306.482 299.694 306.27 299.137 305.845 298.713C305.431 298.276 304.863 298.058 304.14 298.058H302.004V302.536ZM302.004 296.715H304.036C304.702 296.715 305.225 296.537 305.604 296.181C305.994 295.825 306.189 295.343 306.189 294.734C306.189 294.125 306 293.643 305.621 293.287C305.242 292.931 304.719 292.753 304.053 292.753H302.004V296.715ZM315.328 304.104C314.57 304.104 313.916 303.96 313.365 303.673C312.825 303.386 312.406 302.973 312.107 302.433C311.82 301.882 311.677 301.233 311.677 300.487V294.803C311.677 294.045 311.82 293.396 312.107 292.857C312.406 292.317 312.825 291.904 313.365 291.616C313.916 291.329 314.57 291.186 315.328 291.186C316.086 291.186 316.735 291.329 317.275 291.616C317.826 291.904 318.245 292.317 318.532 292.857C318.83 293.396 318.98 294.039 318.98 294.786V300.487C318.98 301.233 318.83 301.882 318.532 302.433C318.245 302.973 317.826 303.386 317.275 303.673C316.735 303.96 316.086 304.104 315.328 304.104ZM315.328 302.709C316.006 302.709 316.522 302.519 316.878 302.14C317.246 301.75 317.43 301.199 317.43 300.487V294.803C317.43 294.091 317.246 293.545 316.878 293.167C316.522 292.776 316.006 292.581 315.328 292.581C314.662 292.581 314.146 292.776 313.778 293.167C313.411 293.545 313.227 294.091 313.227 294.803V300.487C313.227 301.199 313.411 301.75 313.778 302.14C314.146 302.519 314.662 302.709 315.328 302.709ZM322.986 303.931V291.358H324.485V298.42C324.485 298.833 324.473 299.275 324.45 299.746C324.439 300.205 324.421 300.647 324.398 301.072C324.375 301.486 324.352 301.836 324.33 302.123L328.153 291.358H330.22V303.931H328.722V296.87C328.722 296.445 328.727 296.003 328.739 295.543C328.762 295.073 328.785 294.631 328.808 294.217C328.842 293.792 328.871 293.442 328.894 293.167L325.053 303.931H322.986ZM326.603 290.066C325.776 290.066 325.11 289.837 324.605 289.377C324.1 288.918 323.847 288.315 323.847 287.569H325.07C325.07 288.017 325.208 288.378 325.484 288.654C325.759 288.93 326.127 289.067 326.586 289.067C327.057 289.067 327.43 288.93 327.705 288.654C327.992 288.378 328.136 288.017 328.136 287.569H329.359C329.359 288.315 329.106 288.918 328.601 289.377C328.096 289.837 327.43 290.066 326.603 290.066ZM344.192 303.931L346.466 297.455L344.364 291.358H345.984L347.775 296.939H348.498V291.358H349.807V296.939H350.548L352.322 291.358H353.941L351.874 297.473L354.113 303.931H352.511L350.582 298.041H349.807V303.931H348.498V298.041H347.723L345.777 303.931H344.192ZM356.81 303.931V291.358H358.309V298.42C358.309 298.833 358.297 299.275 358.274 299.746C358.263 300.205 358.246 300.647 358.223 301.072C358.2 301.486 358.177 301.836 358.154 302.123L361.978 291.358H364.044V303.931H362.546V296.87C362.546 296.445 362.552 296.003 362.563 295.543C362.586 295.073 362.609 294.631 362.632 294.217C362.667 293.792 362.695 293.442 362.718 293.167L358.877 303.931H356.81ZM371.53 304.104C370.749 304.104 370.06 303.966 369.463 303.69C368.866 303.415 368.39 303.024 368.034 302.519C367.689 302.014 367.494 301.422 367.448 300.745H368.998C369.067 301.354 369.331 301.836 369.79 302.192C370.25 302.548 370.83 302.726 371.53 302.726C372.311 302.726 372.925 302.519 373.373 302.106C373.832 301.692 374.062 301.153 374.062 300.487C374.062 299.809 373.832 299.27 373.373 298.868C372.914 298.454 372.299 298.248 371.53 298.248H369.98V296.835H371.513C372.213 296.835 372.776 296.617 373.201 296.181C373.626 295.744 373.838 295.21 373.838 294.579C373.838 293.936 373.626 293.442 373.201 293.098C372.787 292.742 372.225 292.564 371.513 292.564C370.812 292.564 370.25 292.765 369.825 293.167C369.4 293.557 369.188 294.074 369.188 294.717H367.637C367.637 294.005 367.798 293.385 368.12 292.857C368.441 292.328 368.889 291.921 369.463 291.634C370.049 291.335 370.732 291.186 371.513 291.186C372.718 291.186 373.677 291.461 374.389 292.013C375.101 292.564 375.457 293.35 375.457 294.372C375.457 294.946 375.331 295.463 375.078 295.922C374.837 296.37 374.487 296.72 374.027 296.973C373.58 297.226 373.046 297.346 372.426 297.335V297.076C373.092 297.065 373.666 297.197 374.148 297.473C374.642 297.737 375.021 298.121 375.285 298.626C375.56 299.12 375.698 299.706 375.698 300.383C375.698 301.107 375.526 301.75 375.181 302.312C374.848 302.864 374.366 303.3 373.735 303.621C373.115 303.943 372.38 304.104 371.53 304.104ZM379.412 303.931V291.358H380.962V296.732H384.992V291.358H386.542V303.931H384.992V298.144H380.962V303.931H379.412ZM390.704 303.931V291.358H392.254V296.525H394.769C395.526 296.525 396.187 296.68 396.749 296.99C397.323 297.3 397.766 297.731 398.076 298.282C398.397 298.833 398.558 299.482 398.558 300.228C398.558 300.963 398.397 301.612 398.076 302.175C397.766 302.726 397.323 303.156 396.749 303.466C396.187 303.776 395.526 303.931 394.769 303.931H390.704ZM392.254 302.519H394.682C395.36 302.519 395.905 302.312 396.319 301.899C396.744 301.474 396.956 300.917 396.956 300.228C396.956 299.539 396.744 298.988 396.319 298.575C395.905 298.15 395.36 297.938 394.682 297.938H392.254V302.519ZM407.06 304.104C406.175 304.104 405.475 303.811 404.958 303.225C404.442 302.64 404.183 301.842 404.183 300.831V298.161H402.823V303.931H401.393V291.358H402.823V296.784H404.183V294.458C404.183 293.436 404.436 292.638 404.941 292.064C405.458 291.479 406.164 291.186 407.06 291.186C407.978 291.186 408.696 291.479 409.213 292.064C409.741 292.65 410.005 293.448 410.005 294.458V300.831C410.005 301.842 409.741 302.64 409.213 303.225C408.696 303.811 407.978 304.104 407.06 304.104ZM407.06 302.76C407.553 302.76 407.927 302.594 408.179 302.261C408.443 301.928 408.575 301.451 408.575 300.831V294.458C408.575 293.838 408.443 293.362 408.179 293.029C407.927 292.696 407.553 292.529 407.06 292.529C406.566 292.529 406.187 292.696 405.923 293.029C405.67 293.362 405.544 293.838 405.544 294.458V300.831C405.544 301.451 405.67 301.928 405.923 302.261C406.187 302.594 406.566 302.76 407.06 302.76ZM416.801 304.104C416.365 304.104 416.015 303.977 415.751 303.725C415.498 303.472 415.372 303.133 415.372 302.709C415.372 302.261 415.498 301.905 415.751 301.641C416.015 301.377 416.365 301.244 416.801 301.244C417.238 301.244 417.582 301.377 417.835 301.641C418.099 301.905 418.231 302.261 418.231 302.709C418.231 303.133 418.099 303.472 417.835 303.725C417.582 303.977 417.238 304.104 416.801 304.104ZM210.307 323.931V311.358H217.403V323.931H215.853V312.77H211.857V323.931H210.307ZM225.13 324.104C224.372 324.104 223.717 323.96 223.166 323.673C222.627 323.386 222.208 322.973 221.909 322.433C221.622 321.882 221.478 321.233 221.478 320.487V314.803C221.478 314.045 221.622 313.396 221.909 312.857C222.208 312.317 222.627 311.904 223.166 311.616C223.717 311.329 224.372 311.186 225.13 311.186C225.888 311.186 226.536 311.329 227.076 311.616C227.627 311.904 228.046 312.317 228.333 312.857C228.632 313.396 228.781 314.039 228.781 314.786V320.487C228.781 321.233 228.632 321.882 228.333 322.433C228.046 322.973 227.627 323.386 227.076 323.673C226.536 323.96 225.888 324.104 225.13 324.104ZM225.13 322.709C225.807 322.709 226.324 322.519 226.68 322.14C227.047 321.75 227.231 321.199 227.231 320.487V314.803C227.231 314.091 227.047 313.545 226.68 313.167C226.324 312.776 225.807 312.581 225.13 312.581C224.464 312.581 223.947 312.776 223.58 313.167C223.212 313.545 223.029 314.091 223.029 314.803V320.487C223.029 321.199 223.212 321.75 223.58 322.14C223.947 322.519 224.464 322.709 225.13 322.709ZM232.547 323.931V311.358H234.579L235.888 315.423C236.014 315.79 236.129 316.158 236.232 316.525C236.336 316.881 236.41 317.157 236.456 317.352C236.514 317.157 236.588 316.881 236.68 316.525C236.772 316.158 236.875 315.785 236.99 315.406L238.23 311.358H240.263V323.931H238.747V319.367C238.747 318.862 238.764 318.288 238.799 317.645C238.833 317.002 238.879 316.347 238.937 315.681C238.994 315.004 239.051 314.361 239.109 313.752C239.178 313.132 239.235 312.592 239.281 312.133L237.249 318.42H235.612L233.563 312.133C233.62 312.581 233.678 313.103 233.735 313.701C233.792 314.286 233.844 314.912 233.89 315.578C233.936 316.232 233.976 316.887 234.011 317.541C234.045 318.196 234.062 318.804 234.062 319.367V323.931H232.547ZM247.679 324.104C246.922 324.104 246.267 323.96 245.716 323.673C245.176 323.386 244.757 322.973 244.459 322.433C244.172 321.882 244.028 321.233 244.028 320.487V314.803C244.028 314.045 244.172 313.396 244.459 312.857C244.757 312.317 245.176 311.904 245.716 311.616C246.267 311.329 246.922 311.186 247.679 311.186C248.437 311.186 249.086 311.329 249.626 311.616C250.177 311.904 250.596 312.317 250.883 312.857C251.182 313.396 251.331 314.039 251.331 314.786V320.487C251.331 321.233 251.182 321.882 250.883 322.433C250.596 322.973 250.177 323.386 249.626 323.673C249.086 323.96 248.437 324.104 247.679 324.104ZM247.679 322.709C248.357 322.709 248.874 322.519 249.23 322.14C249.597 321.75 249.781 321.199 249.781 320.487V314.803C249.781 314.091 249.597 313.545 249.23 313.167C248.874 312.776 248.357 312.581 247.679 312.581C247.013 312.581 246.497 312.776 246.129 313.167C245.762 313.545 245.578 314.091 245.578 314.803V320.487C245.578 321.199 245.762 321.75 246.129 322.14C246.497 322.519 247.013 322.709 247.679 322.709ZM253.994 323.931L256.267 317.455L254.166 311.358H255.785L257.576 316.939H258.3V311.358H259.609V316.939H260.349L262.123 311.358H263.742L261.676 317.473L263.915 323.931H262.313L260.384 318.041H259.609V323.931H258.3V318.041H257.525L255.578 323.931H253.994ZM266.784 323.931V311.358H274.018V312.77H268.317V316.663H273.415V318.058H268.317V322.519H274.018V323.931H266.784ZM277.473 323.931L277.439 311.358H278.886V322.76H280.901V311.358H282.141V322.76H284.139V311.358H285.569V323.931H277.473ZM289.231 323.931V311.358H290.781V316.525H293.295C294.053 316.525 294.713 316.68 295.276 316.99C295.85 317.3 296.292 317.731 296.602 318.282C296.924 318.833 297.085 319.482 297.085 320.228C297.085 320.963 296.924 321.612 296.602 322.175C296.292 322.726 295.85 323.156 295.276 323.466C294.713 323.776 294.053 323.931 293.295 323.931H289.231ZM290.781 322.519H293.209C293.887 322.519 294.432 322.312 294.845 321.899C295.27 321.474 295.483 320.917 295.483 320.228C295.483 319.539 295.27 318.988 294.845 318.575C294.432 318.15 293.887 317.938 293.209 317.938H290.781V322.519ZM311.47 323.931V311.358H313.503L314.812 315.423C314.938 315.79 315.053 316.158 315.156 316.525C315.259 316.881 315.334 317.157 315.38 317.352C315.437 317.157 315.512 316.881 315.604 316.525C315.696 316.158 315.799 315.785 315.914 315.406L317.154 311.358H319.186V323.931H317.671V319.367C317.671 318.862 317.688 318.288 317.722 317.645C317.757 317.002 317.803 316.347 317.86 315.681C317.918 315.004 317.975 314.361 318.032 313.752C318.101 313.132 318.159 312.592 318.205 312.133L316.172 318.42H314.536L312.486 312.133C312.544 312.581 312.601 313.103 312.659 313.701C312.716 314.286 312.768 314.912 312.814 315.578C312.86 316.232 312.9 316.887 312.934 317.541C312.969 318.196 312.986 318.804 312.986 319.367V323.931H311.47ZM323.038 323.931V311.358H324.588V316.732H328.618V311.358H330.168V323.931H328.618V318.144H324.588V323.931H323.038ZM334.433 323.931V311.358H341.667V312.77H335.966V316.663H341.064V318.058H335.966V322.519H341.667V323.931H334.433ZM347.62 320.401V317.3H348.481C349.216 317.3 349.796 317.099 350.221 316.697C350.657 316.284 350.875 315.739 350.875 315.061C350.875 314.384 350.657 313.844 350.221 313.442C349.796 313.029 349.21 312.822 348.464 312.822H346.311V311.358H348.464C349.267 311.358 349.962 311.513 350.548 311.823C351.145 312.122 351.604 312.547 351.926 313.098C352.259 313.649 352.425 314.303 352.425 315.061C352.425 315.716 352.287 316.307 352.012 316.835C351.736 317.352 351.352 317.765 350.858 318.075C350.376 318.385 349.813 318.558 349.17 318.592V320.401H347.62ZM348.119 324.018C347.821 324.018 347.574 323.92 347.379 323.725C347.183 323.53 347.086 323.283 347.086 322.984C347.086 322.686 347.183 322.439 347.379 322.243C347.574 322.048 347.821 321.951 348.119 321.951H348.636C348.969 321.951 349.222 322.048 349.394 322.243C349.578 322.427 349.669 322.668 349.669 322.967C349.669 323.265 349.572 323.518 349.377 323.725C349.181 323.92 348.934 324.018 348.636 324.018H348.119Z" fill="white"/>
<path d="M255.426 150.153V117.245H308.085V150.153H255.426Z" fill="#206234" stroke="#206234" stroke-width="1.07643"/>
<path d="M250.551 117.245V108.957H286.876V117.001L250.551 117.245Z" fill="#26733D" stroke="#26733D" stroke-width="1.07643"/>
<path d="M286.875 117.245V108.957H311.254V117.001L286.875 117.245Z" fill="#26733D" stroke="#26733D" stroke-width="1.07643"/>
<path d="M317.364 51.6711H244.669V69.0008H229.828V76.5355H332.708V69.0008H317.364V51.6711Z" fill="#26733D" stroke="#26733D" stroke-width="1.07643"/>
<path d="M248.602 77.0229H313.938V108.957H248.602V77.0229Z" fill="black"/>
<rect x="280.539" y="108.957" width="6.3386" height="8.2881" fill="black"/>
<rect x="273.711" y="108.957" width="6.82618" height="8.2881" fill="black"/>
<rect x="288.582" y="86.7737" width="7.31377" height="11.9446" fill="#FAFF15"/>
<rect x="266.887" y="86.7737" width="6.82618" height="11.9446" fill="#FAFF15"/>
<rect x="249.332" y="59.7156" width="3.90068" height="4.38782" fill="#FF9315"/>
<rect x="310.523" y="53.865" width="3.65688" height="4.63159" fill="#FF9315"/>
<rect x="253.234" y="64.1033" width="9.5079" height="4.38782" fill="#FF9315"/>
<defs>
<filter id="filter0_b_97_3031" x="-2.15296" y="-2.15296" width="567.306" height="425.749" filterUnits="userSpaceOnUse" color-interpolation-filters="sRGB">
<feFlood flood-opacity="0" result="BackgroundImageFix"/>
<feGaussianBlur in="BackgroundImageFix" stdDeviation="1.07648"/>
<feComposite in2="SourceAlpha" operator="in" result="effect1_backgroundBlur_97_3031"/>
<feBlend mode="normal" in="SourceGraphic" in2="effect1_backgroundBlur_97_3031" result="shape"/>
</filter>
</defs>
</svg>
