<svg width="1440" height="1024" viewBox="0 0 1440 1024" fill="none" xmlns="http://www.w3.org/2000/svg">
<g clip-path="url(#clip0_419_4709)">
<rect width="1440" height="1024" fill="#111111"/>
<rect x="81" y="86" width="9.8394" height="9.83841" fill="white"/>
<rect x="1028.67" y="134.297" width="9.8394" height="9.83841" fill="white"/>
<rect x="1089.14" y="609.609" width="9.8394" height="9.83841" fill="white"/>
<rect x="1089.14" y="936.562" width="9.8394" height="9.83841" fill="white"/>
<rect x="729.141" y="129.375" width="9.8394" height="9.83841" fill="white"/>
<rect x="1098.98" y="260.859" width="9.8394" height="9.83841" fill="white"/>
<rect x="942.188" y="741.094" width="9.8394" height="9.83841" fill="white"/>
<rect x="412" y="941" width="9.8394" height="9.83841" fill="white"/>
<rect x="422.359" y="724.594" width="9.8394" height="9.83841" fill="white"/>
<rect x="1193.2" y="761.484" width="9.8394" height="9.83841" fill="white"/>
<rect x="848.734" y="299.902" width="6.5596" height="6.55894" fill="white"/>
<rect x="596" y="814" width="6.5596" height="6.55894" fill="white"/>
<rect x="733.945" y="982.032" width="6.5596" height="6.55894" fill="white"/>
<rect x="234" y="155" width="6.5596" height="6.55894" fill="white"/>
<rect x="247" y="354" width="6.5596" height="6.55894" fill="white"/>
<rect x="1312.73" y="203.906" width="6.5596" height="6.55894" fill="white"/>
<rect x="224" y="592" width="6.5596" height="6.55894" fill="white"/>
<rect x="428.906" y="172.266" width="6.5596" height="6.55894" fill="white"/>
<rect x="424" y="487" width="6.5596" height="6.55894" fill="white"/>
<rect x="781" y="834" width="6.5596" height="6.55894" fill="white"/>
<rect x="1412.86" y="837.735" width="6.5596" height="6.55894" fill="white"/>
<rect x="104" y="463" width="9.8394" height="9.83841" fill="white"/>
<rect x="604.688" y="226.406" width="9.8394" height="9.83841" fill="white"/>
<rect x="1319.38" y="517.987" width="9.8394" height="9.83841" fill="white"/>
<rect x="43.5938" y="960.469" width="9.8394" height="9.83841" fill="white"/>
<rect x="1003" y="463" width="9.8394" height="9.83841" fill="white"/>
<path d="M111.664 895.744V807.029H253.622V895.744H111.664Z" fill="#206234" stroke="#206234" stroke-width="0.657178"/>
<path d="M111.664 983.412V874.058H121.219V896.334H145.106V917.935H253.622V939.083V960.461V983.412H233.147V1072.52H211.307V983.412H143.741V1072.52H122.584V983.412H111.664Z" fill="black"/>
<path d="M253.622 939.083V983.412H233.147V1072.52H211.307V983.412H143.741V1072.52H122.584V983.412H111.664V874.058H121.219V896.334H145.106V917.935H253.622V960.461" stroke="black" stroke-width="0.657178"/>
<path d="M98.5156 807.029V784.686H196.44V806.372L98.5156 807.029Z" fill="#26733D" stroke="#26733D" stroke-width="0.657178"/>
<path d="M111.664 874.058V850.401H208.931V874.058H111.664Z" fill="#26733D" stroke="#26733D" stroke-width="0.657178"/>
<path d="M209.586 870.773V851.715H253.619V870.773H209.586Z" fill="#206234" stroke="#206234" stroke-width="0.657178"/>
<path d="M221.414 917.101V866.172H253.617V917.101H221.414Z" fill="#206234" stroke="#206234" stroke-width="0.657178"/>
<path d="M145.837 917.101L145.18 874.715L224.045 873.729V917.101H145.837Z" fill="#206234" stroke="#206234" stroke-width="0.657178"/>
<path d="M196.445 807.029V784.686H262.166V806.372L196.445 807.029Z" fill="#26733D" stroke="#26733D" stroke-width="0.657178"/>
<path d="M278.643 630.258H82.672V676.975H42.6641V697.287H320.007V676.975H278.643V630.258Z" fill="#26733D" stroke="#26733D" stroke-width="0.657178"/>
<path d="M93.2578 698.601H269.39V784.687H93.2578V698.601Z" fill="black"/>
<rect x="179.359" y="784.686" width="17.0875" height="22.3429" fill="black"/>
<rect x="160.961" y="784.686" width="18.4019" height="22.3429" fill="black"/>
<rect x="201.039" y="724.886" width="19.7163" height="32.2001" fill="#FAFF15"/>
<path d="M155.703 895.744V872.086H253.628V895.744H155.703Z" fill="#26733D" stroke="#26733D" stroke-width="0.657178"/>
<rect x="142.555" y="724.886" width="18.4019" height="32.2001" fill="#FAFF15"/>
<rect x="95.2344" y="651.943" width="10.5154" height="11.8286" fill="#FF9315"/>
<rect x="260.195" y="636.172" width="9.85816" height="12.4857" fill="#FF9315"/>
<rect x="105.75" y="663.772" width="25.6312" height="11.8286" fill="#FF9315"/>
<path d="M97.7337 762.765H84.125L84.125 923.922H124.526V903.349H111.342V889.205L111.342 805.627H97.7337V778.196V762.765Z" fill="#122132" stroke="#122132" stroke-width="0.657178"/>
<path d="M56.1797 762.765L56.1797 958.302H69.5033V943.261H83.6866L83.6866 762.765H56.1797Z" fill="#182738" stroke="#182738" stroke-width="0.657178"/>
<rect x="69.5078" y="788.98" width="6.01653" height="22.3494" transform="rotate(-90 69.5078 788.98)" fill="#FF9315"/>
<rect x="42" y="790.699" width="13.7521" height="13.7535" transform="rotate(-90 42 790.699)" fill="#FF9315"/>
<rect x="69.5078" y="802.732" width="6.01653" height="22.3494" transform="rotate(-90 69.5078 802.732)" fill="#FF9315"/>
<rect x="69.5078" y="816.363" width="6.01653" height="22.3494" transform="rotate(-90 69.5078 816.363)" fill="#FF9315"/>
<rect x="866.102" y="464.443" width="16.9783" height="16.9783" fill="#206234"/>
<rect x="866.102" y="390" width="16.9783" height="52.6541" fill="#206234"/>
<rect x="680.93" y="482" width="91.4214" height="16.9783" transform="rotate(-90 680.93 482)" fill="#206234"/>
<rect x="761.617" y="427.875" width="16.9783" height="16.9783" fill="#206234"/>
<rect x="778.602" y="444.853" width="18.2843" height="16.9783" fill="#206234"/>
<rect x="744.641" y="410.896" width="16.9783" height="16.9783" fill="#206234"/>
<rect x="727.664" y="481.421" width="91.4214" height="16.9783" transform="rotate(-90 727.664 481.421)" fill="#206234"/>
<rect x="796.883" y="481.421" width="91.4214" height="16.9783" transform="rotate(-90 796.883 481.421)" fill="#206234"/>
<rect x="633.484" y="443.233" width="20.8302" height="19.673" transform="rotate(90 633.484 443.233)" fill="#206234"/>
<rect x="597.031" y="443.233" width="20.8302" height="19.673" transform="rotate(90 597.031 443.233)" fill="#206234"/>
<rect x="613.812" y="426.453" width="16.7799" height="16.7799" transform="rotate(90 613.812 426.453)" fill="#206234"/>
<rect x="650.844" y="390" width="91.4214" height="17.3585" transform="rotate(90 650.844 390)" fill="#206234"/>
<rect x="577.359" y="390" width="91.4214" height="17.3585" transform="rotate(90 577.359 390)" fill="#206234"/>
<rect x="403.266" y="574.684" width="18.6343" height="18.6343" fill="#206234"/>
<rect x="421.812" y="556.318" width="20.0677" height="18.1864" fill="#206234"/>
<rect x="384.633" y="556.049" width="18.6343" height="18.6343" fill="#206234"/>
<rect x="366" y="633.453" width="100.339" height="18.6343" transform="rotate(-90 366 633.453)" fill="#206234"/>
<rect x="441.977" y="633.453" width="100.339" height="18.6343" transform="rotate(-90 441.977 633.453)" fill="#206234"/>
<rect x="489.453" y="633.453" width="100.339" height="18.8135" transform="rotate(-90 489.453 633.453)" fill="#206234"/>
<rect x="574.375" y="574.684" width="18.6343" height="18.6343" fill="#206234"/>
<rect x="593.008" y="593.317" width="20.0677" height="18.6343" fill="#206234"/>
<rect x="555.742" y="556.049" width="18.6343" height="18.6343" fill="#206234"/>
<rect x="537.109" y="633.453" width="100.339" height="18.6343" transform="rotate(-90 537.109 633.453)" fill="#206234"/>
<rect x="613.086" y="633.453" width="100.339" height="18.6343" transform="rotate(-90 613.086 633.453)" fill="#206234"/>
<rect x="719.516" y="614.64" width="62.7116" height="18.8135" transform="rotate(-90 719.516 614.64)" fill="#206234"/>
<rect x="679.391" y="614.64" width="40.1355" height="18.8135" fill="#206234"/>
<rect x="679.391" y="533.114" width="40.1355" height="18.8135" fill="#206234"/>
<rect x="660.57" y="633.453" width="100.339" height="18.8135" transform="rotate(-90 660.57 633.453)" fill="#206234"/>
<rect x="826.117" y="570.741" width="18.8135" height="18.8135" transform="rotate(-90 826.117 570.741)" fill="#206234"/>
<rect x="826.117" y="633.453" width="18.8135" height="18.8135" transform="rotate(-90 826.117 633.453)" fill="#206234"/>
<rect x="807.312" y="614.64" width="25.0847" height="18.8135" transform="rotate(-90 807.312 614.64)" fill="#206234"/>
<rect x="785.992" y="533.114" width="40.1355" height="18.8135" fill="#206234"/>
<rect x="785.992" y="570.741" width="40.1355" height="18.8135" fill="#206234"/>
<rect x="767.172" y="633.453" width="100.339" height="18.8135" transform="rotate(-90 767.172 633.453)" fill="#206234"/>
<rect x="932.719" y="632.199" width="40.1355" height="18.8135" transform="rotate(-180 932.719 632.199)" fill="#206234"/>
<rect x="951.539" y="533.115" width="80.2709" height="18.8135" transform="rotate(90 951.539 533.115)" fill="#206234"/>
<rect x="892.594" y="533.115" width="80.2709" height="18.8135" transform="rotate(90 892.594 533.115)" fill="#206234"/>
<rect x="1017.66" y="574.684" width="18.6343" height="18.6343" fill="#206234"/>
<rect x="1036.3" y="593.317" width="20.0677" height="18.6343" fill="#206234"/>
<rect x="999.031" y="556.049" width="18.6343" height="18.6343" fill="#206234"/>
<rect x="980.398" y="633.453" width="100.339" height="18.6343" transform="rotate(-90 980.398 633.453)" fill="#206234"/>
<rect x="1056.38" y="633.453" width="100.339" height="18.6343" transform="rotate(-90 1056.38 633.453)" fill="#206234"/>
</g>
<defs>
<clipPath id="clip0_419_4709">
<rect width="1440" height="1024" fill="white"/>
</clipPath>
</defs>
</svg>
