<svg width="425" height="896" viewBox="0 0 425 896" fill="none" xmlns="http://www.w3.org/2000/svg">
<g clip-path="url(#clip0_442_22025)">
<rect width="425" height="896" fill="#111111"/>
<rect x="142.844" y="822.189" width="4.45117" height="4.45072" transform="rotate(180 142.844 822.189)" fill="white"/>
<rect x="176.977" y="695.344" width="4.45117" height="4.45072" transform="rotate(180 176.977 695.344)" fill="white"/>
<rect x="217.766" y="799.194" width="4.45117" height="4.45072" transform="rotate(180 217.766 799.194)" fill="white"/>
<rect x="4.85938" y="535.859" width="4.45117" height="4.45072" transform="rotate(180 4.85938 535.859)" fill="white"/>
<rect x="72.7344" y="613.767" width="4.45117" height="4.45072" transform="rotate(180 72.7344 613.767)" fill="white"/>
<rect x="291.211" y="517.315" width="4.45117" height="4.45072" transform="rotate(180 291.211 517.315)" fill="white"/>
<rect x="347.602" y="564.047" width="4.45117" height="4.45072" transform="rotate(180 347.602 564.047)" fill="white"/>
<rect x="111.906" y="531.3" width="4.45117" height="4.45072" transform="rotate(180 111.906 531.3)" fill="white"/>
<rect x="154.703" y="756.17" width="2.96745" height="2.96715" transform="rotate(180 154.703 756.17)" fill="white"/>
<rect x="419.016" y="524.205" width="2.96745" height="2.96715" transform="rotate(180 419.016 524.205)" fill="white"/>
<rect x="92.9688" y="469.967" width="2.96745" height="2.96715" transform="rotate(180 92.9688 469.967)" fill="white"/>
<rect x="312.969" y="735.967" width="2.96745" height="2.96715" transform="rotate(180 312.969 735.967)" fill="white"/>
<rect x="362.547" y="470.904" width="2.96745" height="2.96715" transform="rotate(180 362.547 470.904)" fill="white"/>
<rect x="395.07" y="653.062" width="2.96745" height="2.96715" transform="rotate(180 395.07 653.062)" fill="white"/>
<rect x="24.1484" y="438.688" width="4.45117" height="4.45072" transform="rotate(180 24.1484 438.688)" fill="white"/>
<rect x="260.789" y="752.461" width="4.45117" height="4.45072" transform="rotate(180 260.789 752.461)" fill="white"/>
<rect x="19.6875" y="697.597" width="4.45117" height="4.45072" transform="rotate(180 19.6875 697.597)" fill="white"/>
<rect x="239.562" y="742.668" width="4.45117" height="4.45072" transform="rotate(-90 239.562 742.668)" fill="white"/>
<rect x="298.906" y="862.856" width="4.45117" height="4.45072" transform="rotate(-90 298.906 862.856)" fill="white"/>
<rect x="18.5156" y="842.816" width="2.96745" height="2.96715" transform="rotate(-90 18.5156 842.816)" fill="white"/>
<rect x="163.906" y="739.699" width="2.96745" height="2.96715" transform="rotate(-90 163.906 739.699)" fill="white"/>
<rect x="393.859" y="744.897" width="4.45117" height="4.45072" transform="rotate(-90 393.859 744.897)" fill="white"/>
<rect x="396.078" y="882.145" width="4.45117" height="4.45072" transform="rotate(-90 396.078 882.145)" fill="white"/>
<rect x="177.258" y="799.794" width="4.45117" height="4.45072" transform="rotate(-90 177.258 799.794)" fill="white"/>
<rect x="137.172" y="877.686" width="4.45117" height="4.45072" transform="rotate(-90 137.172 877.686)" fill="white"/>
<rect x="16.2891" y="378.963" width="4.45117" height="4.45072" transform="rotate(-90 16.2891 378.963)" fill="white"/>
<rect x="281" y="49.4512" width="4.45117" height="4.45072" transform="rotate(-90 281 49.4512)" fill="white"/>
<rect x="222" y="121.451" width="4.45117" height="4.45072" transform="rotate(-90 222 121.451)" fill="white"/>
<rect x="168" y="53.4512" width="4.45117" height="4.45072" transform="rotate(-90 168 53.4512)" fill="white"/>
<rect x="35.5703" y="77.7656" width="4.45117" height="4.45072" transform="rotate(-90 35.5703 77.7656)" fill="white"/>
<rect x="106" y="212.451" width="4.45117" height="4.45072" transform="rotate(-90 106 212.451)" fill="white"/>
<rect x="317.453" y="151.211" width="4.45117" height="4.45072" transform="rotate(-90 317.453 151.211)" fill="white"/>
<rect x="257" y="214.451" width="4.45117" height="4.45072" transform="rotate(-90 257 214.451)" fill="white"/>
<rect x="411.656" y="401.958" width="4.45117" height="4.45072" transform="rotate(-90 411.656 401.958)" fill="white"/>
<rect x="78.5938" y="14.7031" width="2.96745" height="2.96715" transform="rotate(-90 78.5938 14.7031)" fill="white"/>
<rect x="310.562" y="279.012" width="2.96745" height="2.96715" transform="rotate(-90 310.562 279.012)" fill="white"/>
<rect x="387.18" y="66.6436" width="2.96745" height="2.96715" transform="rotate(-90 387.18 66.6436)" fill="white"/>
<rect x="147.586" y="154.918" width="2.96745" height="2.96715" transform="rotate(-90 147.586 154.918)" fill="white"/>
<rect x="358.25" y="345.584" width="2.96745" height="2.96715" transform="rotate(-90 358.25 345.584)" fill="white"/>
<rect x="57.8281" y="295.873" width="2.96745" height="2.96715" transform="rotate(-90 57.8281 295.873)" fill="white"/>
<rect x="363.867" y="222.546" width="2.96745" height="2.96715" transform="rotate(-90 363.867 222.546)" fill="white"/>
<rect x="14.8047" y="195.725" width="2.96745" height="2.96715" transform="rotate(-90 14.8047 195.725)" fill="white"/>
<rect x="181.703" y="255.066" width="2.96745" height="2.96715" transform="rotate(-90 181.703 255.066)" fill="white"/>
<rect x="407.211" y="315.161" width="2.96745" height="2.96715" transform="rotate(-90 407.211 315.161)" fill="white"/>
<rect x="87" y="394.968" width="2.96745" height="2.96715" transform="rotate(-90 87 394.968)" fill="white"/>
<rect x="188" y="494.451" width="4.45117" height="4.45072" transform="rotate(-90 188 494.451)" fill="white"/>
<rect x="82.3047" y="120.788" width="4.45117" height="4.45072" transform="rotate(-90 82.3047 120.788)" fill="white"/>
<path d="M156.742 760.404V689.427H270.316V760.404H156.742Z" fill="#206234" stroke="#206234" stroke-width="0.52578"/>
<path d="M156.742 830.544V743.055H164.387V760.877H183.498V778.159H270.316V795.078V812.182V830.544H253.936V901.832H236.463V830.544H182.406V901.832H165.479V830.544H156.742Z" fill="black"/>
<path d="M270.316 795.078V830.544H253.936V901.832H236.463V830.544H182.406V901.832H165.479V830.544H156.742V743.055H164.387V760.877H183.498V778.159H270.316V812.182" stroke="black" stroke-width="0.52578"/>
<path d="M146.219 689.427V671.552H224.564V688.902L146.219 689.427Z" fill="#26733D" stroke="#26733D" stroke-width="0.52578"/>
<path d="M156.742 743.054V724.127H234.562V743.054H156.742Z" fill="#26733D" stroke="#26733D" stroke-width="0.52578"/>
<path d="M235.078 740.426V725.179H270.307V740.426H235.078Z" fill="#206234" stroke="#206234" stroke-width="0.52578"/>
<path d="M244.539 777.491V736.745H270.304V777.491H244.539Z" fill="#206234" stroke="#206234" stroke-width="0.52578"/>
<path d="M184.073 777.492L183.547 743.581L246.644 742.792V777.492H184.073Z" fill="#206234" stroke="#206234" stroke-width="0.52578"/>
<path d="M224.57 689.427V671.552H277.151V688.902L224.57 689.427Z" fill="#26733D" stroke="#26733D" stroke-width="0.52578"/>
<path d="M290.328 548H133.54V585.376H101.531V601.627H323.422V585.376H290.328V548Z" fill="#26733D" stroke="#26733D" stroke-width="0.52578"/>
<path d="M142.016 602.678H282.932V671.551H142.016V602.678Z" fill="black"/>
<rect x="210.906" y="671.552" width="13.671" height="17.8756" fill="black"/>
<rect x="196.18" y="671.552" width="14.7226" height="17.8756" fill="black"/>
<rect x="228.25" y="623.709" width="15.7742" height="25.7619" fill="#FAFF15"/>
<path d="M191.969 760.404V741.477H270.314V760.404H191.969Z" fill="#26733D" stroke="#26733D" stroke-width="0.52578"/>
<rect x="181.453" y="623.709" width="14.7226" height="25.7619" fill="#FAFF15"/>
<rect x="143.586" y="565.35" width="8.41291" height="9.46357" fill="#FF9315"/>
<rect x="275.57" y="552.731" width="7.8871" height="9.98932" fill="#FF9315"/>
<rect x="152" y="574.813" width="20.5065" height="9.46357" fill="#FF9315"/>
<path d="M145.599 654.014H134.711V782.949H167.034V766.49H156.486V755.174V688.306H145.599V666.36V654.014Z" fill="#122132" stroke="#122132" stroke-width="0.52578"/>
<path d="M112.344 654.014L112.344 810.455H123.003V798.421H134.351V654.014H112.344Z" fill="#182738" stroke="#182738" stroke-width="0.52578"/>
<rect x="123.008" y="674.987" width="4.81357" height="17.8808" transform="rotate(-90 123.008 674.987)" fill="#FF9315"/>
<rect x="101" y="676.362" width="11.0025" height="11.0036" transform="rotate(-90 101 676.362)" fill="#FF9315"/>
<rect x="123.008" y="685.99" width="4.81357" height="17.8808" transform="rotate(-90 123.008 685.99)" fill="#FF9315"/>
<rect x="123.008" y="696.896" width="4.81357" height="17.8808" transform="rotate(-90 123.008 696.896)" fill="#FF9315"/>
<rect x="273.891" y="351.395" width="7.16008" height="7.16008" fill="#206234"/>
<rect x="273.891" y="320" width="7.16008" height="22.2053" fill="#206234"/>
<rect x="195.805" y="358.799" width="38.5543" height="7.16008" transform="rotate(-90 195.805 358.799)" fill="#206234"/>
<rect x="229.836" y="335.972" width="7.16008" height="7.16008" fill="#206234"/>
<rect x="237" y="343.132" width="7.71086" height="7.16008" fill="#206234"/>
<rect x="222.68" y="328.812" width="7.16008" height="7.16008" fill="#206234"/>
<rect x="215.516" y="358.555" width="38.5543" height="7.16008" transform="rotate(-90 215.516 358.555)" fill="#206234"/>
<rect x="244.711" y="358.555" width="38.5543" height="7.16008" transform="rotate(-90 244.711 358.555)" fill="#206234"/>
<rect x="175.805" y="342.45" width="8.78452" height="8.29649" transform="rotate(90 175.805 342.45)" fill="#206234"/>
<rect x="160.438" y="342.45" width="8.78452" height="8.29649" transform="rotate(90 160.438 342.45)" fill="#206234"/>
<rect x="167.508" y="335.373" width="7.07642" height="7.07642" transform="rotate(90 167.508 335.373)" fill="#206234"/>
<rect x="183.125" y="320" width="38.5543" height="7.32044" transform="rotate(90 183.125 320)" fill="#206234"/>
<rect x="152.133" y="320" width="38.5543" height="7.32044" transform="rotate(90 152.133 320)" fill="#206234"/>
<rect x="78.7188" y="397.884" width="7.85848" height="7.85848" fill="#206234"/>
<rect x="86.5312" y="390.139" width="8.46298" height="7.66957" fill="#206234"/>
<rect x="70.8594" y="390.025" width="7.85848" height="7.85848" fill="#206234"/>
<rect x="63" y="422.667" width="42.3149" height="7.85848" transform="rotate(-90 63 422.667)" fill="#206234"/>
<rect x="95.0391" y="422.667" width="42.3149" height="7.85848" transform="rotate(-90 95.0391 422.667)" fill="#206234"/>
<rect x="115.062" y="422.669" width="42.3149" height="7.93404" transform="rotate(-90 115.062 422.669)" fill="#206234"/>
<rect x="150.875" y="397.885" width="7.85848" height="7.85848" fill="#206234"/>
<rect x="158.727" y="405.742" width="8.46298" height="7.85848" fill="#206234"/>
<rect x="143.016" y="390.026" width="7.85848" height="7.85848" fill="#206234"/>
<rect x="135.156" y="422.668" width="42.3149" height="7.85848" transform="rotate(-90 135.156 422.668)" fill="#206234"/>
<rect x="167.195" y="422.668" width="42.3149" height="7.85848" transform="rotate(-90 167.195 422.668)" fill="#206234"/>
<rect x="212.078" y="414.735" width="26.4468" height="7.93404" transform="rotate(-90 212.078 414.735)" fill="#206234"/>
<rect x="195.164" y="414.735" width="16.926" height="7.93404" fill="#206234"/>
<rect x="195.164" y="380.354" width="16.926" height="7.93404" fill="#206234"/>
<rect x="187.219" y="422.668" width="42.3149" height="7.93404" transform="rotate(-90 187.219 422.668)" fill="#206234"/>
<rect x="257.047" y="396.222" width="7.93404" height="7.93404" transform="rotate(-90 257.047 396.222)" fill="#206234"/>
<rect x="257.047" y="422.668" width="7.93404" height="7.93404" transform="rotate(-90 257.047 422.668)" fill="#206234"/>
<rect x="249.109" y="414.735" width="10.5787" height="7.93404" transform="rotate(-90 249.109 414.735)" fill="#206234"/>
<rect x="240.133" y="380.354" width="16.926" height="7.93404" fill="#206234"/>
<rect x="240.133" y="396.222" width="16.926" height="7.93404" fill="#206234"/>
<rect x="232.188" y="422.668" width="42.3149" height="7.93404" transform="rotate(-90 232.188 422.668)" fill="#206234"/>
<rect x="301.984" y="422.141" width="16.926" height="7.93404" transform="rotate(-180 301.984 422.141)" fill="#206234"/>
<rect x="309.93" y="380.354" width="33.8519" height="7.93404" transform="rotate(90 309.93 380.354)" fill="#206234"/>
<rect x="285.07" y="380.354" width="33.8519" height="7.93404" transform="rotate(90 285.07 380.354)" fill="#206234"/>
<rect x="337.82" y="397.885" width="7.85848" height="7.85848" fill="#206234"/>
<rect x="345.672" y="405.742" width="8.46298" height="7.85848" fill="#206234"/>
<rect x="329.961" y="390.026" width="7.85848" height="7.85848" fill="#206234"/>
<rect x="322.102" y="422.668" width="42.3149" height="7.85848" transform="rotate(-90 322.102 422.668)" fill="#206234"/>
<rect x="354.141" y="422.668" width="42.3149" height="7.85848" transform="rotate(-90 354.141 422.668)" fill="#206234"/>
</g>
<defs>
<clipPath id="clip0_442_22025">
<rect width="425" height="896" fill="white"/>
</clipPath>
</defs>
</svg>
