<svg width="2560" height="1024" viewBox="0 0 2560 1024" fill="none" xmlns="http://www.w3.org/2000/svg">
<g clip-path="url(#clip0_421_8074)">
<rect width="2560" height="1024" fill="#111111"/>
<rect x="641.414" y="52" width="9.8394" height="9.83841" fill="white"/>
<rect x="2006.07" y="621.725" width="9.8394" height="9.83841" fill="white"/>
<rect x="1589.09" y="100.297" width="9.8394" height="9.83841" fill="white"/>
<rect x="1773" y="548" width="9.8394" height="9.83841" fill="white"/>
<rect x="1649.55" y="902.562" width="9.8394" height="9.83841" fill="white"/>
<rect x="1289.55" y="95.375" width="9.8394" height="9.83841" fill="white"/>
<rect x="1659.4" y="226.859" width="9.8394" height="9.83841" fill="white"/>
<rect x="1630" y="380" width="9.8394" height="9.83841" fill="white"/>
<rect x="1502.6" y="707.094" width="9.8394" height="9.83841" fill="white"/>
<rect x="972.414" y="907" width="9.8394" height="9.83841" fill="white"/>
<rect x="982.773" y="690.594" width="9.8394" height="9.83841" fill="white"/>
<rect x="1753.62" y="727.484" width="9.8394" height="9.83841" fill="white"/>
<rect x="1409.15" y="265.902" width="6.5596" height="6.55894" fill="white"/>
<rect x="1156.41" y="780" width="6.5596" height="6.55894" fill="white"/>
<rect x="1294.36" y="948.031" width="6.5596" height="6.55894" fill="white"/>
<rect x="794.414" y="121" width="6.5596" height="6.55894" fill="white"/>
<rect x="807.414" y="320" width="6.5596" height="6.55894" fill="white"/>
<rect x="1873.15" y="169.906" width="6.5596" height="6.55894" fill="white"/>
<rect x="784.414" y="558" width="6.5596" height="6.55894" fill="white"/>
<rect x="989.32" y="138.266" width="6.5596" height="6.55894" fill="white"/>
<rect x="984.414" y="453" width="6.5596" height="6.55894" fill="white"/>
<rect x="1341.41" y="800" width="6.5596" height="6.55894" fill="white"/>
<rect x="1973.27" y="803.735" width="6.5596" height="6.55894" fill="white"/>
<rect x="2012.62" y="454.472" width="6.5596" height="6.55894" fill="white"/>
<rect x="546.562" y="361.007" width="6.5596" height="6.55894" fill="white"/>
<rect x="2001.16" y="962.789" width="9.8394" height="9.83841" fill="white"/>
<rect x="2010.99" y="85.5312" width="9.8394" height="9.83841" fill="white"/>
<rect x="664.414" y="429" width="9.8394" height="9.83841" fill="white"/>
<rect x="1165.1" y="192.406" width="9.8394" height="9.83841" fill="white"/>
<rect x="1863" y="406" width="9.8394" height="9.83841" fill="white"/>
<rect x="2372" y="816" width="9.8394" height="9.83841" fill="white"/>
<rect x="1659.4" y="226.859" width="9.8394" height="9.83841" fill="white"/>
<rect x="381.07" y="621.725" width="9.8394" height="9.83841" fill="white"/>
<rect x="148" y="548" width="9.8394" height="9.83841" fill="white"/>
<rect x="24.5547" y="902.562" width="9.8394" height="9.83841" fill="white"/>
<rect x="34.3984" y="226.859" width="9.8394" height="9.83841" fill="white"/>
<rect x="5" y="380" width="9.8394" height="9.83841" fill="white"/>
<rect x="128.617" y="727.484" width="9.8394" height="9.83841" fill="white"/>
<rect x="248.148" y="169.906" width="6.5596" height="6.55894" fill="white"/>
<rect x="348.273" y="803.735" width="6.5596" height="6.55894" fill="white"/>
<rect x="387.625" y="454.472" width="6.5596" height="6.55894" fill="white"/>
<rect x="376.156" y="962.789" width="9.8394" height="9.83841" fill="white"/>
<rect x="385.992" y="85.5312" width="9.8394" height="9.83841" fill="white"/>
<rect x="238" y="406" width="9.8394" height="9.83841" fill="white"/>
<rect x="34.3984" y="226.859" width="9.8394" height="9.83841" fill="white"/>
<rect x="2262.41" y="52" width="9.8394" height="9.83841" fill="white"/>
<rect x="2415.41" y="121" width="6.5596" height="6.55894" fill="white"/>
<rect x="2428.41" y="320" width="6.5596" height="6.55894" fill="white"/>
<rect x="2405.41" y="558" width="6.5596" height="6.55894" fill="white"/>
<rect x="2161" y="703.711" width="6.5596" height="6.55894" fill="white"/>
<rect x="2167.56" y="361.007" width="6.5596" height="6.55894" fill="white"/>
<rect x="2285.41" y="429" width="9.8394" height="9.83841" fill="white"/>
<rect x="2225.01" y="926.469" width="9.8394" height="9.83841" fill="white"/>
<path d="M605.664 895.744V807.029H747.622V895.744H605.664Z" fill="#206234" stroke="#206234" stroke-width="0.657178"/>
<path d="M605.664 983.413V874.059H615.219V896.334H639.106V917.935H747.622V939.083V960.462V983.413H727.147V1072.52H705.307V983.413H637.741V1072.52H616.584V983.413H605.664Z" fill="black"/>
<path d="M747.622 939.083V983.413H727.147V1072.52H705.307V983.413H637.741V1072.52H616.584V983.413H605.664V874.059H615.219V896.334H639.106V917.935H747.622V960.462" stroke="black" stroke-width="0.657178"/>
<path d="M592.516 807.029V784.687H690.44V806.372L592.516 807.029Z" fill="#26733D" stroke="#26733D" stroke-width="0.657178"/>
<path d="M605.664 874.058V850.4H702.931V874.058H605.664Z" fill="#26733D" stroke="#26733D" stroke-width="0.657178"/>
<path d="M703.586 870.772V851.715H747.619V870.772H703.586Z" fill="#206234" stroke="#206234" stroke-width="0.657178"/>
<path d="M715.414 917.101V866.172H747.617V917.101H715.414Z" fill="#206234" stroke="#206234" stroke-width="0.657178"/>
<path d="M639.837 917.101L639.18 874.715L718.045 873.729V917.101H639.837Z" fill="#206234" stroke="#206234" stroke-width="0.657178"/>
<path d="M690.445 807.029V784.687H756.166V806.372L690.445 807.029Z" fill="#26733D" stroke="#26733D" stroke-width="0.657178"/>
<path d="M772.643 630.258H576.672V676.975H536.664V697.287H814.007V676.975H772.643V630.258Z" fill="#26733D" stroke="#26733D" stroke-width="0.657178"/>
<path d="M587.258 698.601H763.39V784.687H587.258V698.601Z" fill="black"/>
<rect x="673.359" y="784.687" width="17.0875" height="22.3429" fill="black"/>
<rect x="654.961" y="784.687" width="18.4019" height="22.3429" fill="black"/>
<rect x="695.039" y="724.887" width="19.7163" height="32.2001" fill="#FAFF15"/>
<path d="M649.703 895.744V872.087H747.628V895.744H649.703Z" fill="#26733D" stroke="#26733D" stroke-width="0.657178"/>
<rect x="636.555" y="724.887" width="18.4019" height="32.2001" fill="#FAFF15"/>
<rect x="589.234" y="651.943" width="10.5154" height="11.8286" fill="#FF9315"/>
<rect x="754.195" y="636.172" width="9.85816" height="12.4857" fill="#FF9315"/>
<rect x="599.75" y="663.771" width="25.6312" height="11.8286" fill="#FF9315"/>
<path d="M591.734 762.766H578.125V923.923H618.526V903.35H605.342V889.206V805.628H591.734V778.197V762.766Z" fill="#122132" stroke="#122132" stroke-width="0.657178"/>
<path d="M550.18 762.766V958.303H563.503V943.261H577.687V762.766H550.18Z" fill="#182738" stroke="#182738" stroke-width="0.657178"/>
<rect x="563.508" y="788.98" width="6.01653" height="22.3494" transform="rotate(-90 563.508 788.98)" fill="#FF9315"/>
<rect x="536" y="790.699" width="13.7521" height="13.7535" transform="rotate(-90 536 790.699)" fill="#FF9315"/>
<rect x="563.508" y="802.732" width="6.01653" height="22.3494" transform="rotate(-90 563.508 802.732)" fill="#FF9315"/>
<rect x="563.508" y="816.364" width="6.01653" height="22.3494" transform="rotate(-90 563.508 816.364)" fill="#FF9315"/>
<rect x="1457.1" y="464.443" width="16.9783" height="16.9783" fill="#206234"/>
<rect x="1457.1" y="390" width="16.9783" height="52.6541" fill="#206234"/>
<rect x="1271.93" y="482" width="91.4214" height="16.9783" transform="rotate(-90 1271.93 482)" fill="#206234"/>
<rect x="1352.62" y="427.875" width="16.9783" height="16.9783" fill="#206234"/>
<rect x="1369.6" y="444.853" width="18.2843" height="16.9783" fill="#206234"/>
<rect x="1335.64" y="410.896" width="16.9783" height="16.9783" fill="#206234"/>
<rect x="1318.66" y="481.422" width="91.4214" height="16.9783" transform="rotate(-90 1318.66 481.422)" fill="#206234"/>
<rect x="1387.88" y="481.422" width="91.4214" height="16.9783" transform="rotate(-90 1387.88 481.422)" fill="#206234"/>
<rect x="1224.48" y="443.233" width="20.8302" height="19.673" transform="rotate(90 1224.48 443.233)" fill="#206234"/>
<rect x="1188.03" y="443.233" width="20.8302" height="19.673" transform="rotate(90 1188.03 443.233)" fill="#206234"/>
<rect x="1204.81" y="426.453" width="16.7799" height="16.7799" transform="rotate(90 1204.81 426.453)" fill="#206234"/>
<rect x="1241.84" y="390" width="91.4214" height="17.3585" transform="rotate(90 1241.84 390)" fill="#206234"/>
<rect x="1168.36" y="390" width="91.4214" height="17.3585" transform="rotate(90 1168.36 390)" fill="#206234"/>
<rect x="994.266" y="574.685" width="18.6343" height="18.6343" fill="#206234"/>
<rect x="1012.81" y="556.318" width="20.0677" height="18.1864" fill="#206234"/>
<rect x="975.633" y="556.05" width="18.6343" height="18.6343" fill="#206234"/>
<rect x="957" y="633.454" width="100.339" height="18.6343" transform="rotate(-90 957 633.454)" fill="#206234"/>
<rect x="1032.98" y="633.454" width="100.339" height="18.6343" transform="rotate(-90 1032.98 633.454)" fill="#206234"/>
<rect x="1080.45" y="633.454" width="100.339" height="18.8135" transform="rotate(-90 1080.45 633.454)" fill="#206234"/>
<rect x="1165.38" y="574.685" width="18.6343" height="18.6343" fill="#206234"/>
<rect x="1184.01" y="593.318" width="20.0677" height="18.6343" fill="#206234"/>
<rect x="1146.74" y="556.05" width="18.6343" height="18.6343" fill="#206234"/>
<rect x="1128.11" y="633.454" width="100.339" height="18.6343" transform="rotate(-90 1128.11 633.454)" fill="#206234"/>
<rect x="1204.09" y="633.454" width="100.339" height="18.6343" transform="rotate(-90 1204.09 633.454)" fill="#206234"/>
<rect x="1310.52" y="614.641" width="62.7116" height="18.8135" transform="rotate(-90 1310.52 614.641)" fill="#206234"/>
<rect x="1270.39" y="614.641" width="40.1355" height="18.8135" fill="#206234"/>
<rect x="1270.39" y="533.115" width="40.1355" height="18.8135" fill="#206234"/>
<rect x="1251.57" y="633.454" width="100.339" height="18.8135" transform="rotate(-90 1251.57 633.454)" fill="#206234"/>
<rect x="1417.12" y="570.742" width="18.8135" height="18.8135" transform="rotate(-90 1417.12 570.742)" fill="#206234"/>
<rect x="1417.12" y="633.454" width="18.8135" height="18.8135" transform="rotate(-90 1417.12 633.454)" fill="#206234"/>
<rect x="1398.31" y="614.641" width="25.0847" height="18.8135" transform="rotate(-90 1398.31 614.641)" fill="#206234"/>
<rect x="1376.99" y="533.115" width="40.1355" height="18.8135" fill="#206234"/>
<rect x="1376.99" y="570.742" width="40.1355" height="18.8135" fill="#206234"/>
<rect x="1358.17" y="633.454" width="100.339" height="18.8135" transform="rotate(-90 1358.17 633.454)" fill="#206234"/>
<rect x="1523.72" y="632.199" width="40.1355" height="18.8135" transform="rotate(-180 1523.72 632.199)" fill="#206234"/>
<rect x="1542.54" y="533.114" width="80.2709" height="18.8135" transform="rotate(90 1542.54 533.114)" fill="#206234"/>
<rect x="1483.59" y="533.114" width="80.2709" height="18.8135" transform="rotate(90 1483.59 533.114)" fill="#206234"/>
<rect x="1608.66" y="574.685" width="18.6343" height="18.6343" fill="#206234"/>
<rect x="1627.3" y="593.318" width="20.0677" height="18.6343" fill="#206234"/>
<rect x="1590.03" y="556.05" width="18.6343" height="18.6343" fill="#206234"/>
<rect x="1571.4" y="633.454" width="100.339" height="18.6343" transform="rotate(-90 1571.4 633.454)" fill="#206234"/>
<rect x="1647.38" y="633.454" width="100.339" height="18.6343" transform="rotate(-90 1647.38 633.454)" fill="#206234"/>
</g>
<defs>
<clipPath id="clip0_421_8074">
<rect width="2560" height="1024" fill="white"/>
</clipPath>
</defs>
</svg>
