<svg width="1440" height="717" viewBox="0 0 1440 717" fill="none" xmlns="http://www.w3.org/2000/svg">
<g clip-path="url(#clip0_372_8576)">
<rect width="1440" height="717" fill="#111111"/>
<rect x="1415.61" y="422.307" width="8.39351" height="8.39267" fill="white"/>
<rect x="934.602" y="26.8833" width="8.39351" height="8.39267" fill="white"/>
<rect x="1081.93" y="174.219" width="8.39351" height="8.39267" fill="white"/>
<rect x="1090" y="300" width="8.39351" height="8.39267" fill="white"/>
<rect x="742.848" y="153.635" width="8.39351" height="8.39267" fill="white"/>
<rect x="727.273" y="18.3677" width="8.39351" height="8.39267" fill="white"/>
<rect x="448.883" y="147.055" width="8.39351" height="8.39267" fill="white"/>
<rect x="17" y="332.389" width="8.39351" height="8.39267" fill="white"/>
<rect x="1112.27" y="609.727" width="8.39351" height="8.39267" fill="white"/>
<rect x="647.508" y="516.558" width="8.39351" height="8.39267" fill="white"/>
<rect x="398.336" y="525.225" width="8.39351" height="8.39267" fill="white"/>
<rect x="872.75" y="610.051" width="8.39351" height="8.39267" fill="white"/>
<rect x="917.266" y="150.386" width="5.59567" height="5.59511" fill="white"/>
<rect x="1012.6" y="403.89" width="5.59567" height="5.59511" fill="white"/>
<rect x="550" y="632.477" width="5.59567" height="5.59511" fill="white"/>
<rect x="543" y="238" width="5.59567" height="5.59511" fill="white"/>
<rect x="222.262" y="626.836" width="5.59567" height="5.59511" fill="white"/>
<rect x="315.988" y="60.3315" width="5.59567" height="5.59511" fill="white"/>
<rect x="104.754" y="472.971" width="5.59567" height="5.59511" fill="white"/>
<rect x="36.5" y="586.976" width="5.59567" height="5.59511" fill="white"/>
<rect x="482.84" y="27.9663" width="5.59567" height="5.59511" fill="white"/>
<rect x="326" y="331" width="5.59567" height="5.59511" fill="white"/>
<rect x="1261.77" y="533.892" width="5.59567" height="5.59511" fill="white"/>
<rect x="1310.52" y="181.802" width="5.59567" height="5.59511" fill="white"/>
<rect x="1109" y="66" width="5.59567" height="5.59511" fill="white"/>
<rect x="110.348" y="180.626" width="5.59567" height="5.59511" fill="white"/>
<rect x="36.5" y="79.9673" width="5.59567" height="5.59511" fill="white"/>
<rect x="1351.19" y="693.977" width="8.39351" height="8.39267" fill="white"/>
<rect x="257.504" y="426.64" width="8.39351" height="8.39267" fill="white"/>
<rect x="227.859" y="258.958" width="8.39351" height="8.39267" fill="white"/>
<rect x="594.426" y="142.802" width="8.39351" height="8.39267" fill="white"/>
<rect x="1231.43" y="359.472" width="8.39351" height="8.39267" fill="white"/>
<rect x="1244" y="101" width="7.74772" height="7.74694" fill="white"/>
<path d="M261.375 625.593V558.897H368.099V625.593H261.375Z" fill="#206234" stroke="#206234" stroke-width="0.494068"/>
<path d="M261.375 691.503V609.29H268.558V626.037H286.517V642.276H368.099V658.175V674.248V691.503H352.706V758.491H336.287V691.503H285.491V758.491H269.585V691.503H261.375Z" fill="black"/>
<path d="M368.099 658.175V691.503H352.706V758.491H336.287V691.503H285.491V758.491H269.585V691.503H261.375V609.29H268.558V626.037H286.517V642.276H368.099V674.248" stroke="black" stroke-width="0.494068"/>
<path d="M251.492 558.898V542.1H325.112V558.404L251.492 558.898Z" fill="#26733D" stroke="#26733D" stroke-width="0.494068"/>
<path d="M261.375 609.29V591.504H334.501V609.29H261.375Z" fill="#26733D" stroke="#26733D" stroke-width="0.494068"/>
<path d="M334.992 606.82V592.492H368.096V606.82H334.992Z" fill="#206234" stroke="#206234" stroke-width="0.494068"/>
<path d="M343.887 641.65V603.361H368.097V641.65H343.887Z" fill="#206234" stroke="#206234" stroke-width="0.494068"/>
<path d="M287.064 641.65L286.57 609.784L345.861 609.043V641.65H287.064Z" fill="#206234" stroke="#206234" stroke-width="0.494068"/>
<path d="M325.109 558.898V542.1H374.519V558.404L325.109 558.898Z" fill="#26733D" stroke="#26733D" stroke-width="0.494068"/>
<path d="M386.902 426H239.57V461.122H209.492V476.392H417.999V461.122H386.902V426Z" fill="#26733D" stroke="#26733D" stroke-width="0.494068"/>
<path d="M247.539 477.38H379.956V542.1H247.539V477.38Z" fill="black"/>
<rect x="312.262" y="542.1" width="12.8464" height="16.7975" fill="black"/>
<rect x="298.43" y="542.1" width="13.8346" height="16.7975" fill="black"/>
<rect x="328.57" y="497.142" width="14.8228" height="24.2081" fill="#FAFF15"/>
<path d="M294.477 625.593V607.808H368.096V625.593H294.477Z" fill="#26733D" stroke="#26733D" stroke-width="0.494068"/>
<rect x="284.594" y="497.142" width="13.8346" height="24.2081" fill="#FAFF15"/>
<rect x="249.02" y="442.303" width="7.90548" height="8.89277" fill="#FF9315"/>
<rect x="373.035" y="430.446" width="7.41139" height="9.38681" fill="#FF9315"/>
<rect x="256.926" y="451.196" width="19.2696" height="8.89277" fill="#FF9315"/>
<path d="M250.895 525.619H240.664V646.778H271.037V631.311H261.126V620.677V557.843H250.895V537.22V525.619Z" fill="#122132" stroke="#122132" stroke-width="0.494068"/>
<path d="M219.664 525.619L219.664 672.625H229.681V661.317H240.344V525.619H219.664Z" fill="#182738" stroke="#182738" stroke-width="0.494068"/>
<rect x="229.68" y="545.328" width="4.52324" height="16.8023" transform="rotate(-90 229.68 545.328)" fill="#FF9315"/>
<rect x="209" y="546.62" width="10.3388" height="10.3399" transform="rotate(-90 209 546.62)" fill="#FF9315"/>
<rect x="229.68" y="555.667" width="4.52324" height="16.8023" transform="rotate(-90 229.68 555.667)" fill="#FF9315"/>
<rect x="229.68" y="565.915" width="4.52324" height="16.8023" transform="rotate(-90 229.68 565.915)" fill="#FF9315"/>
<rect x="828.578" y="317.833" width="12.7337" height="12.7337" fill="#206234"/>
<rect x="828.582" y="262" width="12.7337" height="39.4906" fill="#206234"/>
<rect x="689.699" y="331" width="68.566" height="12.7337" transform="rotate(-90 689.699 331)" fill="#206234"/>
<rect x="750.215" y="290.406" width="12.7337" height="12.7337" fill="#206234"/>
<rect x="762.953" y="303.14" width="13.7132" height="12.7337" fill="#206234"/>
<rect x="737.484" y="277.672" width="12.7337" height="12.7337" fill="#206234"/>
<rect x="724.75" y="330.566" width="68.566" height="12.7337" transform="rotate(-90 724.75 330.566)" fill="#206234"/>
<rect x="776.664" y="330.566" width="68.566" height="12.7337" transform="rotate(-90 776.664 330.566)" fill="#206234"/>
<rect x="654.109" y="301.925" width="15.6226" height="14.7547" transform="rotate(90 654.109 301.925)" fill="#206234"/>
<rect x="626.77" y="301.925" width="15.6226" height="14.7547" transform="rotate(90 626.77 301.925)" fill="#206234"/>
<rect x="639.355" y="289.34" width="12.5849" height="12.5849" transform="rotate(90 639.355 289.34)" fill="#206234"/>
<rect x="667.129" y="262" width="68.566" height="13.0189" transform="rotate(90 667.129 262)" fill="#206234"/>
<rect x="612.016" y="262" width="68.566" height="13.0189" transform="rotate(90 612.016 262)" fill="#206234"/>
<rect x="481.047" y="400.271" width="14.0178" height="14.0178" fill="#206234"/>
<path d="M495 386.455H512.049V400.135H495V386.455Z" fill="#206234"/>
<path d="M462.148 386.253H481.05V400.271H462.148V386.253Z" fill="#206234"/>
<rect x="453.012" y="444.481" width="75.4806" height="14.0178" transform="rotate(-90 453.012 444.481)" fill="#206234"/>
<rect x="510.164" y="444.481" width="75.4806" height="14.0178" transform="rotate(-90 510.164 444.481)" fill="#206234"/>
<rect x="545.871" y="444.48" width="75.4806" height="14.1526" transform="rotate(-90 545.871 444.48)" fill="#206234"/>
<rect x="609.762" y="400.27" width="14.0178" height="14.0178" fill="#206234"/>
<path d="M623.785 414.288H641.811V428.306H623.785V414.288Z" fill="#206234"/>
<path d="M592.816 386.252H609.764V400.27H592.816V386.252Z" fill="#206234"/>
<rect x="581.727" y="444.48" width="75.4806" height="14.0178" transform="rotate(-90 581.727 444.48)" fill="#206234"/>
<rect x="638.879" y="444.48" width="75.4806" height="14.0178" transform="rotate(-90 638.879 444.48)" fill="#206234"/>
<rect x="718.934" y="430.328" width="47.1754" height="14.1526" transform="rotate(-90 718.934 430.328)" fill="#206234"/>
<path d="M683.863 430.328H718.939V444.48H683.863V430.328Z" fill="#206234"/>
<path d="M683.863 369H718.939V383.152H683.863V369Z" fill="#206234"/>
<rect x="674.59" y="444.48" width="75.4806" height="14.1526" transform="rotate(-90 674.59 444.48)" fill="#206234"/>
<rect x="799.129" y="397.305" width="14.1526" height="14.1526" transform="rotate(-90 799.129 397.305)" fill="#206234"/>
<rect x="799.129" y="444.48" width="14.1526" height="14.1526" transform="rotate(-90 799.129 444.48)" fill="#206234"/>
<path d="M784.973 430.328V406.574H799.125V430.328H784.973Z" fill="#206234"/>
<path d="M764.059 369H799.134V383.152H764.059V369Z" fill="#206234"/>
<path d="M764.059 397.305H799.134V411.457H764.059V397.305Z" fill="#206234"/>
<rect x="754.785" y="444.48" width="75.4806" height="14.1526" transform="rotate(-90 754.785 444.48)" fill="#206234"/>
<rect x="879.34" y="443.537" width="30.1922" height="14.1526" transform="rotate(-180 879.34 443.537)" fill="#206234"/>
<rect x="893.496" y="369" width="60.3845" height="14.1526" transform="rotate(90 893.496 369)" fill="#206234"/>
<rect x="849.152" y="369" width="60.3845" height="14.1526" transform="rotate(90 849.152 369)" fill="#206234"/>
<rect x="943.223" y="400.27" width="14.0178" height="14.0178" fill="#206234"/>
<path d="M957.246 414.288H975.272V428.306H957.246V414.288Z" fill="#206234"/>
<path d="M925.301 386.252H943.225V400.27H925.301V386.252Z" fill="#206234"/>
<rect x="913.855" y="444.942" width="75.4806" height="14.0178" transform="rotate(-90 913.855 444.942)" fill="#206234"/>
<rect x="972.34" y="444.48" width="75.4806" height="14.0178" transform="rotate(-90 972.34 444.48)" fill="#206234"/>
</g>
<defs>
<clipPath id="clip0_372_8576">
<rect width="1440" height="717" fill="white"/>
</clipPath>
</defs>
</svg>
