<svg width="60" height="20" viewBox="0 0 60 20" fill="none" xmlns="http://www.w3.org/2000/svg">
<rect x="11.0195" y="3.81445" width="3.67418" height="3.67418" fill="#206234"/>
<rect x="3.67188" y="3.81445" width="3.67418" height="3.67418" fill="#206234"/>
<rect x="14.6992" y="0.140381" width="3.67418" height="3.67418" fill="#206234"/>
<rect x="45.2188" y="3.81445" width="3.67418" height="3.67418" fill="#206234"/>
<rect x="55.3945" y="12.5759" width="3.67418" height="3.67418" fill="#206234"/>
<rect y="0.140381" width="3.67418" height="3.67418" fill="#206234"/>
<rect x="7.34766" y="19.9246" width="12.4357" height="3.67418" transform="rotate(-90 7.34766 19.9246)" fill="#206234"/>
<rect x="29.4258" y="0.140381" width="7.91362" height="3.70951" fill="#206234"/>
<rect x="48.8945" y="0.140381" width="10.1747" height="3.67418" fill="#206234"/>
<rect x="29.4258" y="8.17773" width="7.91362" height="3.70951" fill="#206234"/>
<rect x="48.8945" y="7.48901" width="6.50048" height="5.08733" fill="#206234"/>
<rect x="29.4258" y="16.2151" width="7.91362" height="3.70951" fill="#206234"/>
<rect x="45.2188" y="16.2505" width="10.1747" height="3.67418" fill="#206234"/>
<rect x="25.7188" y="19.9246" width="19.7841" height="3.70951" transform="rotate(-90 25.7188 19.9246)" fill="#206234"/>
</svg>
